<?xml version="1.0" encoding="utf-8"?>
<!-- Generator: Adobe Illustrator 18.1.1, SVG Export Plug-In . SVG Version: 6.00 Build 0)  -->
<svg version="1.1" id="Layer_1" xmlns="http://www.w3.org/2000/svg" xmlns:xlink="http://www.w3.org/1999/xlink" x="0px" y="0px"
	 viewBox="0 0 500 500" enable-background="new 0 0 500 500" xml:space="preserve">
<path fill="#FFFFFF" d="M391.7,357.2c-0.3-6.5-2.8-19.4-5.8-34.4l-0.1-0.5c-3.2-16-6.9-35.9-7.1-44.6c-0.1-5.4,0.3-13.2,0.3-21.4
	v-0.4c0-16.9-0.1-40.1-1.7-55.3c-1.3-12.5-6.1-44-20.8-67.6c-13.6-21.8-30.2-35.9-51.9-44.7c-19.9-8-56.3-8.9-57.3-8.9
	c-9.3,0-33.2,0.8-53,8.8c-21.7,8.8-38.1,23-51.8,44.8c-14.7,23.5-19.4,55.1-20.7,67.6c-1.6,15.2-1.5,38.4-1.3,55.3l0,3.9
	c0,6.8,0,13.3-0.1,17.9c-0.2,8.8-4.2,28.6-7.4,44.6l-0.2,0.6c-3,14.9-5.5,27.8-5.8,34.3c-0.6,16.6,4.1,27.8,16.1,38.7
	c7.7,7,15.2,10.2,23.4,10.2c4.5,0,8.5-0.9,12.8-2c1.2-0.3,2.4-0.7,3.7-1.2c4.4,2.4,12.6,6,23.5,6c7.1,0,15.3-1.5,24.2-5.8
	c5.1,4.2,10.5,8.2,10.5,8.2c13.9,7.9,25.9,9.6,27.7,9.6h0.4c1.8,0,13.8-1.1,28.2-9.6c0,0,4.7-3.4,9.5-7.3c8.3,3.7,15.9,5,22.5,5
	c11.8,0,20.5-4.2,24.5-6.6c1.9,0.8,3.6,1.4,5.3,1.8c4.4,1.1,8.4,2,12.8,2c8.4,0,15.6-3.2,23.4-10.2
	C387.7,385.1,392.3,373.9,391.7,357.2z"/>
<g>
	<path fill="#A03ECE" d="M375.9,396.2c-6.6,6-12.3,8.6-18.9,8.6c-3.7,0-7.2-0.8-11.4-1.8c-2.2-0.6-5-1.8-8.5-3.3l-0.6-0.3
		c-7.7-3.5-18.4-8.2-28.4-8.2c-6.9,0-12.5,2.3-17.1,7c-12.1,12.4-24.1,17.4-32,19.4c-0.2,0.1-7.8,2.1-16.8-0.4
		c-9-2.5-21.1-6.7-33.1-19.1c-4.6-4.7-10.2-6.9-17.1-6.9c-9.9,0-20.5,4.7-28.4,8.2l-0.3,0.2c-3.6,1.6-6.4,2.9-8.7,3.4
		c-4.2,1-7.7,1.8-11.4,1.8c-6.6,0-12.4-2.6-18.9-8.6c-10.8-9.8-14.6-19.1-14.1-34.2c0.2-6.1,2.9-19.3,5.9-34.6l0.1-0.7
		c3.6-17.8,7.6-37.3,7.9-47.2c0.1-2.4,0.1-5.5,0.1-7.5h252.7c-0.1,2-0.2,5.1-0.2,7.5c0.3,9.8,4,29.7,7.6,47.6l0,0.4
		c3,15.3,5.6,28.4,5.8,34.6C390.5,377.1,386.7,386.3,375.9,396.2z"/>
	<g>
		<path d="M374.1,394.4c-6.2,5.5-12.8,8.8-21.2,7.5c-6.4-0.9-12-3.4-17.8-5.9c-11.5-5.1-25.7-10.6-38-5.1
			c-6.3,2.8-10.6,8.6-15.9,12.7c-5.2,4.1-11.1,7.5-17.4,9.8c-10.6,3.8-20.7,2.2-31-2c-6.8-2.8-13-6.8-18.5-11.7
			c-4.7-4.2-8.6-8.4-14.9-10.1c-12.7-3.3-25.9,2.6-37.3,7.7c-6.4,2.8-13.3,5.4-20.4,5c-7.6-0.5-13.9-5.6-19-10.9
			c-8.6-9.1-11.2-20.6-9.8-32.9c3.4-29.1,13.6-57.3,13.7-86.8c-0.8,0.8-1.7,1.7-2.5,2.5c28.5,0,57.1,0,85.6,0c45.3,0,90.6,0,135.8,0
			c10.4,0,20.8,0,31.2,0c-0.8-0.8-1.7-1.7-2.5-2.5c-1.1,21.4,4.9,43.2,9,64c2,10.2,4.6,20.7,4.3,31.1
			C387.2,378.1,382.3,386.7,374.1,394.4c-2.4,2.2,1.2,5.7,3.5,3.5c7.5-6.9,12.9-15,14.4-25.2c1.5-10.1-0.5-20-2.3-29.9
			c-2.3-12.5-4.9-25-7.1-37.5c-2-11.2-3.9-22.4-3.3-33.8c0.1-1.4-1.2-2.5-2.5-2.5c-28.5,0-57.1,0-85.6,0c-45.3,0-90.6,0-135.8,0
			c-10.4,0-20.8,0-31.2,0c-1.4,0-2.5,1.1-2.5,2.5c-0.1,28.4-9.4,55.9-13.3,84c-1.5,10.9-0.9,22.4,5.1,31.9
			c6.4,10.3,17.8,20.2,30.6,19.9c14.2-0.4,26-9.4,39.6-12.5c8.3-1.9,16.8-1.4,23.3,4.6c5.7,5.2,11.2,10.1,18.1,13.8
			c10.1,5.4,22.2,9.4,33.7,7.1c11.2-2.3,21.6-8.7,30-16.2c3.7-3.3,6.7-7.1,11.4-8.9c4.1-1.6,8.5-1.6,12.8-1
			c8.4,1.1,16.2,4.8,23.9,8.2c6.8,2.9,14.2,5.5,21.7,5c7.6-0.4,13.7-4.4,19.3-9.3C380.1,395.8,376.5,392.3,374.1,394.4z"/>
	</g>
</g>
<path fill="#C8C8C8" d="M288.4,401.1c0,0,8.6-6.5,18.1-7.6c9.5-1.1,25.7,5.9,25.7,5.9s-5.3,10.8-15.4,10.5S288.4,401.1,288.4,401.1z
	"/>
<path fill="#C8C8C8" d="M163.1,401.1c0,0,8.6-6.5,18.1-7.6c9.5-1.1,25.7,5.9,25.7,5.9s-5.3,10.8-15.4,10.5
	C181.4,409.8,163.1,401.1,163.1,401.1z"/>
<path d="M395.4,359.6c-0.3-6.6-2.9-19.8-5.9-35.1l-0.1-0.6c-3.3-16.3-6.8-36.6-7-45.5c-0.1-5.6,0.6-13.5,0.6-21.9v-0.4
	c0-17.3-0.4-40.9-2-56.5c-1.3-12.7-6.4-44.9-21.4-69c-13.9-22.3-30.9-36.7-53-45.6c-20.3-8.2-57.5-9.1-58.6-9.1
	c-9.5,0-33.9,0.8-54.2,9c-22.1,9-39,23.5-52.9,45.7c-15,24-19.8,56.3-21.1,69c-1.7,15.6-1.5,39.2-1.4,56.5l0,4c0,7,0,13.5-0.1,18.3
	c-0.2,9-4.3,29.2-7.6,45.5l-0.2,0.7c-3,15.3-5.7,28.4-5.9,35c-0.6,17,4.1,28.4,16.4,39.5c7.9,7.1,15.5,10.4,23.9,10.4
	c4.6,0,8.6-0.9,13.1-2c1.2-0.3,2.5-0.7,3.8-1.2c4.4,2.5,12.9,6.1,24,6.1c7.2,0,15.6-1.5,24.8-5.9c5.3,4.3,10.7,8,10.8,8.1
	c14.2,8.1,26.5,9.5,28.3,9.5h0.4c1.8,0,14-0.8,28.8-9.5c0,0,4.8-3.3,9.7-7.3c8.5,3.8,16.2,5.2,23,5.2c12.1,0,21-4.3,25-6.7
	c1.9,0.8,3.7,1.4,5.4,1.8c4.5,1.1,8.5,2,13.1,2c8.6,0,15.9-3.2,23.9-10.4C391.3,388,396.1,376.5,395.4,359.6z M171.4,402.3
	c6.5-2.8,14.7-6,21.7-6c4.7,0,8.2,1.4,11.2,4.4l0.2,0.2C190.3,406.8,178.7,404.9,171.4,402.3z M295.1,401.7c0.3-0.3,0.6-0.6,0.9-0.9
	c3.1-3.1,6.5-4.5,11.2-4.5c6.6,0,14.1,2.7,20.4,5.4C320.7,404.5,309.2,406.9,295.1,401.7z M373.7,393.2c-6.5,5.9-12,8.4-18.6,8.4
	c-3.6,0-7.1-0.8-11.2-1.8c-2.2-0.5-4.9-1.7-8.3-3.2l-0.6-0.3c-7.6-3.4-18.1-8-27.9-8c-6.8,0-12.3,2.2-16.8,6.8
	c-11.9,12.1-23.7,17-31.5,18.9c-0.2,0.1-7.7,2.1-16.5-0.3c-8.8-2.4-20.7-6.6-32.5-18.6c-4.5-4.6-10-6.8-16.8-6.8
	c-9.7,0-20.1,4.6-27.9,8l-0.3,0.2c-3.5,1.6-6.3,2.8-8.6,3.4c-4.1,1-7.5,1.8-11.2,1.8c-6.5,0-12.2-2.6-18.6-8.4
	c-10.6-9.6-14.4-18.7-13.8-33.4c0.2-6,2.8-18.9,5.8-33.8l0.1-0.7c3.5-17.4,7.5-37.2,7.7-46.9c0.1-4.9,0.1-11.5,0.1-18.5l0-4
	c-0.1-17.1-0.3-40.5,1.3-55.6c1.3-12.2,5.8-43,20-65.6c13-20.8,28.6-34.3,49.1-42.6c19-7.7,42.1-8.8,51.2-8.8
	c0.8,0,36.5,0.9,55.5,8.5c20.5,8.3,36.1,22,49.1,42.8c14.2,22.7,19.2,53.5,20.5,65.7c1.6,15.1,1.9,38.6,1.9,55.7v0.4
	c0,8.4-0.7,16.4-0.5,22.1c0.3,9.6,4,29.4,7.5,46.9l0,0.6c3,15,5.5,27.9,5.7,33.9C388.2,374.6,384.4,383.6,373.7,393.2z"/>
<path d="M330.2,187.3c0,11.4-9.3,20.7-20.7,20.7s-20.7-9.3-20.7-20.7c0-1,0.1-1.9,0.2-2.9c1.3,0.9,2.8,1.4,4.4,1.4
	c4.3,0,7.8-3.5,7.8-7.8c0-3.1-1.8-5.8-4.5-7c3.5-2.7,7.9-4.4,12.7-4.4C320.9,166.6,330.2,175.8,330.2,187.3z"/>
<path d="M211.2,187.3c0,11.4-9.3,20.7-20.7,20.7c-11.4,0-20.7-9.3-20.7-20.7c0-1,0.1-1.9,0.2-2.9c1.3,0.9,2.8,1.4,4.4,1.4
	c4.3,0,7.8-3.5,7.8-7.8c0-3.1-1.8-5.8-4.5-7c3.5-2.7,7.9-4.4,12.7-4.4C201.9,166.6,211.2,175.8,211.2,187.3z"/>
<ellipse transform="matrix(0.7169 -0.6971 0.6971 0.7169 -112.9338 175.5088)" fill="#F68694" cx="159.7" cy="226.8" rx="8" ry="3.6"/>
<ellipse transform="matrix(0.7169 -0.6971 0.6971 0.7169 -109.5173 186.4544)" fill="#F68694" cx="174.8" cy="228.1" rx="8" ry="3.6"/>
<ellipse transform="matrix(0.7169 -0.6971 0.6971 0.7169 -105.2185 197.0418)" fill="#F68694" cx="190" cy="228.1" rx="8" ry="3.6"/>
<ellipse transform="matrix(-0.7169 -0.6971 0.6971 -0.7169 425.8532 629.0911)" fill="#F68694" cx="340.6" cy="228.1" rx="8" ry="3.6"/>
<g>
	<polygon fill="#FFFFFF" points="250.8,271 286.2,271 268.5,301.3 250.8,331.8 233.1,301.4 215.4,271 	"/>
	<g>
		<path d="M250.8,273c11.8,0,23.6,0,35.4,0c-0.7-1.3-1.4-2.5-2.2-3.8c-11.8,20.4-23.6,40.8-35.4,61.2c1.4,0,2.9,0,4.3,0
			c-11.8-20.4-23.6-40.8-35.4-61.2c-0.7,1.3-1.4,2.5-2.2,3.8C227.2,273,239,273,250.8,273c3.2,0,3.2-5,0-5c-11.8,0-23.6,0-35.4,0
			c-1.9,0-3.1,2.1-2.2,3.8c11.8,20.4,23.6,40.8,35.4,61.2c0.9,1.6,3.4,1.6,4.3,0c11.8-20.4,23.6-40.8,35.4-61.2
			c0.9-1.6-0.3-3.8-2.2-3.8c-11.8,0-23.6,0-35.4,0C247.5,268,247.5,273,250.8,273z"/>
	</g>
</g>
<ellipse transform="matrix(-0.7169 -0.6971 0.6971 -0.7169 398.8955 620.6766)" fill="#F68694" cx="325.5" cy="229.4" rx="8" ry="3.6"/>
<ellipse transform="matrix(-0.7169 -0.6971 0.6971 -0.7169 372.8202 610.0892)" fill="#F68694" cx="310.3" cy="229.4" rx="8" ry="3.6"/>
<g>
	<g>
		<path d="M122.5,273c28.7,0,57.4,0,86.2,0c45.4,0,90.8,0,136.2,0c10.5,0,21.1,0,31.6,0c3.2,0,3.2-5,0-5c-28.7,0-57.4,0-86.2,0
			c-45.4,0-90.8,0-136.2,0c-10.5,0-21.1,0-31.6,0C119.3,268,119.3,273,122.5,273L122.5,273z"/>
	</g>
</g>
<g>
	<ellipse fill="#CC4051" cx="250.4" cy="282.3" rx="10.9" ry="10.5"/>
	<g>
		<path d="M258.8,282.3c-0.6,10.3-16.8,10.4-16.8,0C242,271.8,258.2,271.9,258.8,282.3c0.2,3.2,5.2,3.2,5,0c-0.4-7.2-5.9-13-13.4-13
			c-7.1,0-13.4,5.8-13.4,13c0,7,5.9,12.7,12.8,13c7.7,0.3,13.6-5.6,14-13C263.9,279.1,258.9,279.1,258.8,282.3z"/>
	</g>
</g>
<g>
	<polygon fill="#FFFFFF" points="250.8,271 229.7,295.8 215.4,271 	"/>
	<g>
		<path d="M249,269.2c-7,8.3-14.1,16.5-21.1,24.8c1.3,0.2,2.6,0.3,3.9,0.5c-4.8-8.3-9.5-16.5-14.3-24.8c-0.7,1.3-1.4,2.5-2.2,3.8
			c11.8,0,23.6,0,35.4,0c3.2,0,3.2-5,0-5c-11.8,0-23.6,0-35.4,0c-1.9,0-3.1,2.1-2.2,3.8c4.8,8.3,9.5,16.5,14.3,24.8
			c0.8,1.3,2.9,1.7,3.9,0.5c7-8.3,14.1-16.5,21.1-24.8C254.6,270.3,251.1,266.7,249,269.2z"/>
	</g>
</g>
<g>
	<polygon fill="#FFFFFF" points="250.4,271 271.4,295.8 285.8,271 	"/>
	<g>
		<path d="M248.6,272.7c7,8.3,14.1,16.5,21.1,24.8c1.1,1.2,3.2,0.8,3.9-0.5c4.8-8.3,9.5-16.5,14.3-24.8c0.9-1.6-0.3-3.8-2.2-3.8
			c-11.8,0-23.6,0-35.4,0c-3.2,0-3.2,5,0,5c11.8,0,23.6,0,35.4,0c-0.7-1.3-1.4-2.5-2.2-3.8c-4.8,8.3-9.5,16.5-14.3,24.8
			c1.3-0.2,2.6-0.3,3.9-0.5c-7-8.3-14.1-16.5-21.1-24.8C250,266.7,246.5,270.3,248.6,272.7z"/>
	</g>
</g>
<g>
	<line fill="#FFFFFF" x1="250.8" y1="330" x2="250.8" y2="417.5"/>
	<g>
		<path d="M248.3,330c0,25.4,0,50.9,0,76.3c0,3.7,0,7.4,0,11.2c0,3.2,5,3.2,5,0c0-25.4,0-50.9,0-76.3c0-3.7,0-7.4,0-11.2
			C253.3,326.8,248.3,326.8,248.3,330L248.3,330z"/>
	</g>
</g>
<g>
	<circle fill="#671C6B" cx="263.4" cy="338.6" r="4.9"/>
	<g>
		<path d="M266.8,338.6c-0.2,4.3-6.8,4.4-6.8,0C260,334.3,266.5,334.3,266.8,338.6c0.1,1.9,3.1,1.9,3,0c-0.2-3.5-2.8-6.4-6.4-6.4
			c-3.5,0-6.4,2.9-6.4,6.4c0,3.4,2.7,6.2,6.1,6.4c3.7,0.2,6.4-2.8,6.6-6.4C269.9,336.7,266.9,336.7,266.8,338.6z"/>
	</g>
</g>
<g>
	<circle fill="#671C6B" cx="263.4" cy="362.6" r="4.9"/>
	<g>
		<path d="M266.8,362.6c-0.2,4.3-6.8,4.4-6.8,0C260,358.3,266.5,358.3,266.8,362.6c0.1,1.9,3.1,1.9,3,0c-0.2-3.5-2.8-6.4-6.4-6.4
			c-3.5,0-6.4,2.9-6.4,6.4c0,3.4,2.7,6.2,6.1,6.4c3.7,0.2,6.4-2.8,6.6-6.4C269.9,360.7,266.9,360.7,266.8,362.6z"/>
	</g>
</g>
<g>
	<circle fill="#671C6B" cx="263.4" cy="386.6" r="4.9"/>
	<g>
		<path d="M266.8,386.6c-0.2,4.3-6.8,4.4-6.8,0C260,382.3,266.5,382.3,266.8,386.6c0.1,1.9,3.1,1.9,3,0c-0.2-3.5-2.8-6.4-6.4-6.4
			c-3.5,0-6.4,2.9-6.4,6.4c0,3.4,2.7,6.2,6.1,6.4c3.7,0.2,6.4-2.8,6.6-6.4C269.9,384.7,266.9,384.7,266.8,386.6z"/>
	</g>
</g>
<g>
	<g>
		<path fill="#A03ECE" d="M235.5,53.4c-13.6-15-30.8-20.5-38.4-12.1c-7.6,8.3-2.6,27.3,11,42.3s30.8,20.5,38.4,12.1
			C254,87.4,249.1,68.4,235.5,53.4z M215.5,80.6c-8.3-9.1-11.2-20.6-6.7-25.6c4.6-5,15-1.8,23.2,7.3c8.3,9.1,11.2,20.6,6.7,25.6
			C234.2,93,223.8,89.7,215.5,80.6z"/>
		<g>
			<path d="M237.2,51.6c-8.3-8.9-22.5-20.1-35.7-16c-11.8,3.7-11.8,17.9-8.6,27.6c4.8,14.5,16.1,28.3,29.8,35.2
				c9.2,4.6,22.8,6.5,28-4.8C257.3,79.4,246.3,61.8,237.2,51.6c-2.1-2.4-5.7,1.1-3.5,3.5c5.5,6.2,10.1,13.3,12.5,21.3
				c1.6,5.4,2.7,12.9-1.5,17.5c-9.6,10.8-28.4-5-34.9-12.1c-5.5-6.1-10.1-13.4-12.5-21.3c-1.5-5.1-2.5-11.8,0.7-16.5
				c3.6-5.3,10.5-4.6,15.8-2.8c7.8,2.6,14.3,8.1,19.8,14C235.9,57.5,239.4,54,237.2,51.6z"/>
			<path d="M217.3,78.8c-3.9-4.4-12.1-16.1-6.7-22.1c5.4-6,16.3,3.6,19.7,7.3c4.1,4.5,10.9,14.5,7.3,21.1
				C233.2,93.2,220.8,82.5,217.3,78.8c-2.2-2.3-5.7,1.2-3.5,3.5c5.8,6.2,19.9,16.3,27.4,6.6c6.6-8.6-1.3-21.9-7.2-28.4
				c-5.6-6.2-19-15.7-26.8-7.3c-7.8,8.4,0.8,22.5,6.7,29.2C215.9,84.8,219.4,81.2,217.3,78.8z"/>
		</g>
	</g>
	<g>
		<path fill="#A03ECE" d="M247.7,95.7c7.6,8.3,24.8,2.9,38.4-12.1s18.6-34,11-42.3c-7.6-8.3-24.8-2.9-38.4,12.1
			S240.1,87.4,247.7,95.7z M255.4,87.9c-4.6-5-1.6-16.5,6.7-25.6c8.3-9.1,18.7-12.4,23.2-7.3c4.6,5,1.6,16.5-6.7,25.6
			C270.4,89.7,260,93,255.4,87.9z"/>
		<g>
			<path d="M245.9,97.5c9.1,9.2,23.6,3,32.3-3.4c12-8.8,22.5-22.8,24.6-37.9c1.5-10.6-3.5-21.2-15.3-21.3
				C273,34.7,259.8,47,251.9,57.9C244.4,68.3,236.3,86,245.9,97.5c2.1,2.5,5.6-1.1,3.5-3.5c-9.3-11.1,3.5-30.5,11-38.8
				c6.4-7,25.3-22.9,34.9-12.1c4.1,4.6,3,12.1,1.5,17.5c-2.2,7.4-6.3,14.2-11.3,20c-6.7,7.8-25.4,24.1-36,13.4
				C247.2,91.7,243.7,95.2,245.9,97.5z"/>
			<path d="M257.2,86.1c-5-6.3,2.5-17.5,6.7-22.1c3.5-3.9,14.4-13.3,19.7-7.3c5,5.5-2,16.5-5.6,20.8
				C274.3,82.1,263.4,92.1,257.2,86.1c-2.3-2.2-5.9,1.3-3.5,3.5c8.7,8.3,22-1.6,27.9-8.6c5.5-6.5,13-20.1,5.6-27.9
				c-7.8-8.3-21.1,1.1-26.8,7.3c-6.5,7.1-13.8,20.2-6.7,29.2C255.7,92.2,259.2,88.6,257.2,86.1z"/>
		</g>
	</g>
	<g>
		<path fill="#A03ECE" d="M361.8,137H138.8c0,0-48.3-68.6,111.5-68.6S361.8,137,361.8,137z"/>
		<g>
			<path d="M361.8,134.6c-25.2,0-50.4,0-75.6,0c-39.9,0-79.9,0-119.8,0c-9.2,0-18.3,0-27.5,0c0.7,0.4,1.4,0.8,2.2,1.2
				c-4.3-6.1-6.7-14-6.5-21.6c0.7-20.6,22.9-30.4,39.8-35.2c21.1-5.9,43.4-7.5,65.3-7.9c24.7-0.5,50,0.2,74.3,5
				c18.9,3.7,47.3,11.5,51.7,33.8c1.7,8.8-1,18.7-6,25.9c-1.9,2.6,2.5,5.1,4.3,2.5c3.6-5.1,5.9-11.6,6.8-17.7
				c2-13.5-4.1-25.4-14.8-33.5c-8.9-6.7-19.6-10.7-30.2-13.5c-17.8-4.7-36.3-6.5-54.6-7.3c-23-1-46.4-0.6-69.3,2.3
				c-14.6,1.8-29.3,4.6-42.8,10.4c-14,6-27.5,16.4-29.3,32.5c-1,8.6,1.5,17.7,6,25.1c1.1,1.9,2.1,2.7,4.4,2.9c5.3,0.3,10.7,0,15.9,0
				c23.3,0,46.7,0,70,0c44.4,0,88.8,0,133.2,0c0.8,0,1.7,0,2.5,0C365,139.6,365,134.6,361.8,134.6z"/>
		</g>
	</g>
	<g>
		<path fill="#A03ECE" d="M332.4,137H167.6c0,0,4-29.9,82.4-28.1S332.4,137,332.4,137z"/>
		<g>
			<path d="M332.4,134.6c-48,0-96.1,0-144.1,0c-6.9,0-13.8,0-20.7,0c0.8,1.1,1.6,2.1,2.4,3.2c0.5-3.2,2.8-6.3,5.3-8.8
				c8.6-8.8,21.6-12.5,33.3-14.7c24.1-4.5,50.1-3.8,74.3,0c13.5,2.1,28.4,5.3,39.5,13.8c3.2,2.5,7.1,6.4,7.6,9.7
				c0.5,3.2,5.3,1.8,4.8-1.3c-0.6-3.9-4-7.6-6.7-10.1c-9.8-9-23.7-13-36.3-15.6c-24.9-5-51.6-5.9-76.8-2.5
				c-14.2,1.9-29.6,5.5-40.9,15c-3.8,3.2-8.3,8.1-9,13.2c-0.2,1.6,0.6,3.2,2.4,3.2c48,0,96.1,0,144.1,0c6.9,0,13.8,0,20.7,0
				C335.7,139.6,335.7,134.6,332.4,134.6z"/>
		</g>
	</g>
</g>
<g>
	<polygon fill="#A03ECE" points="268.7,301.7 284.9,273.2 300.9,297.8 252.5,330.1 	"/>
	<g>
		<path d="M270.9,302.9c5.4-9.5,10.8-18.9,16.2-28.4c-1.4,0-2.9,0-4.3,0c5.3,8.2,10.7,16.4,16,24.5c0.3-1.1,0.6-2.3,0.9-3.4
			c-16.1,10.8-32.2,21.5-48.4,32.3c1.1,1.1,2.3,2.3,3.4,3.4C260.1,321.9,265.5,312.4,270.9,302.9c1.6-2.8-2.7-5.3-4.3-2.5
			c-5.4,9.5-10.8,18.9-16.2,28.4c-1.2,2.1,1.3,4.9,3.4,3.4c16.1-10.8,32.2-21.5,48.4-32.3c1.1-0.7,1.7-2.2,0.9-3.4
			c-5.3-8.2-10.7-16.4-16-24.5c-1-1.5-3.4-1.7-4.3,0c-5.4,9.5-10.8,18.9-16.2,28.4C265,303.2,269.3,305.7,270.9,302.9z"/>
	</g>
</g>
<g>
	<polygon fill="#A03ECE" points="232.7,301.7 216.5,273.2 200.5,297.8 248.9,330.1 	"/>
	<g>
		<path d="M234.9,300.4c-5.4-9.5-10.8-18.9-16.2-28.4c-1-1.7-3.3-1.5-4.3,0c-5.3,8.2-10.7,16.4-16,24.5c-0.8,1.2-0.2,2.7,0.9,3.4
			c16.1,10.8,32.2,21.5,48.4,32.3c2.1,1.4,4.6-1.3,3.4-3.4C245.7,319.4,240.3,309.9,234.9,300.4c-1.6-2.8-5.9-0.3-4.3,2.5
			c5.4,9.5,10.8,18.9,16.2,28.4c1.1-1.1,2.3-2.3,3.4-3.4c-16.1-10.8-32.2-21.5-48.4-32.3c0.3,1.1,0.6,2.3,0.9,3.4
			c5.3-8.2,10.7-16.4,16-24.5c-1.4,0-2.9,0-4.3,0c5.4,9.5,10.8,18.9,16.2,28.4C232.1,305.7,236.5,303.2,234.9,300.4z"/>
	</g>
</g>
<g>
	<g>
		<path fill="#662F42" d="M308.5,378.2L308.5,378.2c-2.4,2.5-6.5,2.6-9,0.1l-33-32.1c-2.5-2.4-2.6-6.5-0.1-9h0
			c2.4-2.5,6.5-2.6,9-0.1l33,32.1C310.9,371.6,310.9,375.6,308.5,378.2z"/>
		<g>
			<path d="M306.7,376.4c-4.3,4.4-13.3-7.5-15.7-9.9c-6.3-6.2-12.7-12.4-19-18.5c-1.2-1.1-2.7-2.3-3.7-3.6c-3-4.1,1.2-8.4,5.4-5.5
				c0.6,0.4,1.1,1,1.6,1.5c5.9,5.7,11.8,11.4,17.6,17.2c3.3,3.2,6.5,6.3,9.8,9.5C305.1,369.4,309.7,372.6,306.7,376.4
				c-2,2.5,1.5,6.1,3.5,3.5c7.1-9-3.9-16.2-9.7-21.9c-7.5-7.3-14.8-14.7-22.4-21.8c-3.4-3.2-8-4.8-12.2-1.8
				c-4.7,3.4-4.7,9.7-0.9,13.7c6.4,7,13.7,13.3,20.5,20c5.4,5.2,16.4,20.5,24.8,11.8C312.5,377.6,308.9,374.1,306.7,376.4z"/>
		</g>
	</g>
	<g>
		<circle fill="#662F42" cx="251.7" cy="322.9" r="29"/>
		<g>
			<path d="M270.2,303.8c10.2,10.4,10.8,26.9,0.6,37.5c-10,10.4-27.2,10.6-37.5,0.6c-10.4-10.1-10.6-27.2-0.6-37.5
				C242.9,293.8,259.6,294,270.2,303.8c2.4,2.2,5.9-1.3,3.5-3.5c-9.7-8.9-23.5-11.5-35.5-5.9c-12.2,5.7-19.4,19-17.8,32.3
				c1.5,12.8,11.1,23.7,23.6,26.8c12.8,3.2,26.4-2.1,33.8-13c8.6-12.6,6.4-29.5-4.1-40.2C271.5,298,267.9,301.5,270.2,303.8z"/>
		</g>
	</g>
	<g>
		<circle fill="#9BDAF9" cx="251.7" cy="322.9" r="22"/>
		<g>
			<path d="M266,308.2c7.8,8.1,8.4,20.8,0.4,29c-7.8,8-21,8.2-29,0.4c-7.8-7.6-8.2-20.4-0.9-28.5C244.3,300.4,257.6,300.5,266,308.2
				c1.4,1.3,3.6-0.8,2.1-2.1c-9.5-8.6-24.1-9-33.3,0.4c-8.9,9.2-8.8,24.3,0.4,33.3c9.2,8.9,24.3,8.8,33.3-0.4
				c9.1-9.4,8.5-24-0.4-33.3C266.8,304.7,264.7,306.8,266,308.2z"/>
		</g>
	</g>
</g>
<g>
	<g>
		<path fill="#A03ECE" d="M199.2,313.5l4.1,40.6l-45.4,7.1c-12.2,3.2-24.5-1.9-29.2-11.6c-0.1-0.2-1.3-3.4-1.3-3.4c0,0,0,0,0-0.1
			l-14.3-39.7c-6.2-12.9-1.9-27.9,9.6-33.1l0.5-0.2c11.5-5.2,25.6,1.7,31.1,14.8l7.6,28.2L199.2,313.5z"/>
		<g>
			<path d="M196.7,313.5c1.4,13.5,2.7,27.1,4.1,40.6c0.6-0.8,1.2-1.6,1.8-2.4c-12,1.9-24.1,3.8-36.1,5.7c-5.2,0.8-10.9,2.4-16.1,2.3
				c-9.8-0.1-17.4-5.5-20.7-14.6c-4.3-11.9-8.5-23.7-12.8-35.6c-2.7-7.4-5.5-14.4-3-22.4c3.6-11.2,15.9-16.2,26.4-10.9
				c8.9,4.5,11.5,12.3,13.9,21c1.8,6.6,3.6,13.2,5.3,19.8c0.3,1,1.3,1.9,2.4,1.8c12.4-0.9,24.9-1.8,37.3-2.7c3.2-0.2,3.2-5.2,0-5
				c-12.4,0.9-24.9,1.8-37.3,2.7c0.8,0.6,1.6,1.2,2.4,1.8c-1.8-6.6-3.6-13.2-5.3-19.8c-2.2-8.1-4.3-15.1-11.2-20.7
				c-7.9-6.5-19-8.2-28-3c-10,5.8-13.6,18.1-11.2,28.9c1.4,6.1,4.4,12.3,6.5,18.2c2.8,7.9,5.7,15.8,8.5,23.6
				c2,5.5,3.7,10.8,8.2,14.9c7.9,7.1,17.8,7.5,27.8,5.7c14.7-2.6,29.6-4.6,44.4-6.9c1-0.2,1.9-1.4,1.8-2.4
				c-1.4-13.5-2.7-27.1-4.1-40.6C201.4,310.4,196.4,310.3,196.7,313.5z"/>
		</g>
	</g>
	<g>
		<path fill="#FFFFFF" d="M198.6,313.7l4.4,40.4c0,0,28.2-8.1,26.5-23.3C227.9,315.5,198.6,313.7,198.6,313.7z"/>
		<g>
			<path d="M196.1,313.7c1.5,13.5,2.9,26.9,4.4,40.4c0.2,1.6,1.5,2.9,3.2,2.4c11.4-3.3,30.3-11.8,28.3-26.4
				c-2-14.2-21.6-18.1-33.4-18.9c-3.2-0.2-3.2,4.8,0,5c9,0.6,26.6,3.4,28.4,14.3c1.9,11.6-15.9,18.6-24.7,21.2
				c1.1,0.8,2.1,1.6,3.2,2.4c-1.5-13.5-2.9-26.9-4.4-40.4C200.8,310.5,195.8,310.5,196.1,313.7z"/>
		</g>
	</g>
</g>
<g>
	<g>
		<path fill="#A03ECE" d="M308.5,326.3l2,40.8l45.9,0.3c12.5,1.4,23.9-5.5,27.2-15.8c0.1-0.2,0.8-3.5,0.8-3.5c0,0,0,0,0-0.1
			l8.2-41.4c4.2-13.6-2.3-27.9-14.4-31.3l-0.5-0.1c-12.2-3.4-25.1,5.5-28.5,19.3l-3.3,29.1L308.5,326.3z"/>
		<g>
			<path d="M306,326.3c0.7,13.6,1.3,27.2,2,40.8c0.1,1.4,1.1,2.5,2.5,2.5c13.9,0.1,27.8,0.2,41.6,0.2c8.1,0,15.9,0.3,23.2-4.2
				c6.8-4.2,10.1-10.5,11.7-18c2.7-13.4,5-26.9,8-40.3c2.3-10.6,1.4-22-7.3-29.7c-7.9-6.9-19.5-7.5-28.3-1.9
				c-8.6,5.5-12.3,14.2-13.4,23.9c-0.9,7.9-1.8,15.8-2.7,23.8c0.8-0.8,1.7-1.7,2.5-2.5c-12.4,1-24.9,1.9-37.3,2.9
				c-3.2,0.2-3.2,5.2,0,5c12.4-1,24.9-1.9,37.3-2.9c1.5-0.1,2.3-1.1,2.5-2.5c0.7-5.8,1.3-11.7,2-17.5c0.8-7,0.9-13.3,5-19.4
				c6.7-9.8,20.7-13.4,29.8-4.6c7.1,7,6.8,16.3,4.9,25.2c-2.8,12.7-5.1,25.5-7.6,38.3c-1.3,6.6-3.5,12-9.5,15.8
				c-6.6,4.2-13.9,3.5-21.3,3.5c-13.7-0.1-27.3-0.1-41-0.2c0.8,0.8,1.7,1.7,2.5,2.5c-0.7-13.6-1.3-27.2-2-40.8
				C310.8,323.1,305.8,323,306,326.3z"/>
		</g>
	</g>
	<g>
		<path fill="#FFFFFF" d="M309.1,326.3l1.7,40.6c0,0-29.1-3.8-29.7-19.1S309.1,326.3,309.1,326.3z"/>
		<g>
			<path d="M306.6,326.3c0.6,13.5,1.1,27.1,1.7,40.6c0.8-0.8,1.7-1.7,2.5-2.5c1.3,0.2-0.5,0-0.7-0.1c-0.8-0.3-2-0.4-2.9-0.5
				c-2.9-0.6-5.8-1.4-8.6-2.4c-6.1-2.1-14.6-6.1-15-13.6c-0.6-11.5,17.4-17.1,26.2-19.1c3.1-0.7,1.8-5.5-1.3-4.8
				c-11.6,2.5-31.2,10-29.8,24.8c1.3,14.1,20.6,19.2,32.1,20.7c1.3,0.2,2.5-1.3,2.5-2.5c-0.6-13.5-1.1-27.1-1.7-40.6
				C311.4,323.1,306.4,323.1,306.6,326.3z"/>
		</g>
	</g>
</g>
<g>
	<g>
		<path fill="#892789" d="M273.4,273H380l59.3,41.6c0,0-15.3,21.9-64.3,24.5s-50.1-1.7-50.1-1.7L273.4,273z"/>
		<g>
			<path d="M273.4,275c25.7,0,51.4,0,77.1,0c9.8,0,19.7-0.5,29.5,0c-1.6-0.1-0.9-0.2,0.5,0.9c1.9,1.3,3.8,2.7,5.7,4
				c6.2,4.4,12.4,8.8,18.6,13.1c11.1,7.8,22.2,15.7,33.3,23.5c-0.3-1.1-0.6-2.3-0.9-3.4c0,0-0.6,0.7-1.2,1.4
				c-1.4,1.5-2.9,2.8-4.4,4.1c-6.1,5-13.5,8.6-20.9,11.2c-13,4.6-26.7,6.3-40.4,6.9c-11.2,0.5-22.4,1-33.6,0.2
				c-2.4-0.2-4.9-0.3-7.2-0.8c-0.8-0.2-2.7-0.6-2.6-0.7c-0.2,0.1-0.2,0,0.5,0.9c-0.6-0.9-1.1-1.7-1.8-2.5
				c-8.6-10.8-17.3-21.6-25.9-32.4c-8.2-10.2-16.4-20.5-24.5-30.7c-2-2.5-5.5,1-3.5,3.5c16.7,20.9,33.5,41.9,50.2,62.8
				c0.4,0.4,0.7,0.9,1.1,1.3c1,1.1-1.5-1.3-0.1-0.1c0.5,0.4,0.7,0.9,1.3,1.3c2.4,1.7,6.4,1.8,9.2,2.1c10.2,1,20.5,0.7,30.7,0.3
				c14.6-0.5,29.2-1.6,43.3-5.8c12-3.6,26.6-9.8,34.1-20.6c0.8-1.2,0.1-2.7-0.9-3.4c-9.5-6.7-18.9-13.4-28.4-20.1
				c-6.7-4.7-13.5-9.5-20.2-14.2c-3.3-2.3-6.8-5.8-10.5-7.4c-1.9-0.9-4.4-0.5-6.5-0.5c-5.9,0-11.7,0-17.6,0c-16.9,0-33.8,0-50.8,0
				c-11.1,0-22.2,0-33.3,0C270.1,270,270.1,275,273.4,275z"/>
		</g>
	</g>
	<g>
		<path fill="#892789" d="M231.3,272H124.6l-59.3,41.6c0,0,15.3,21.9,64.3,24.5s50.1-1.7,50.1-1.7L231.3,272z"/>
		<g>
			<path d="M231.3,269c-26,0-52,0-78,0c-6.7,0-13.4,0-20,0c-2.7,0-6-0.5-8.6,0c-2.9,0.6-5.7,3.5-8.1,5.1
				c-6.3,4.4-12.5,8.8-18.8,13.2c-11.2,7.9-22.5,15.9-33.7,23.8c-1,0.7-1.7,2.2-0.9,3.4c6,8.6,16.9,14.1,26.3,17.8
				c12.2,4.8,25.3,7.1,38.3,7.9c12.8,0.8,25.8,1.3,38.6,0.7c4.1-0.2,8.9-0.2,12.8-1.8c0.9-0.4,1.5-0.7,2.2-1.3
				c0.2-0.2,0.3-0.5,0.5-0.6c1.5-1.2-0.9,1.2-0.1,0.2c8.3-10.4,16.6-20.8,24.9-31.2c8.8-11,17.6-22,26.4-33c2-2.5-1.5-6.1-3.5-3.5
				c-16.2,20.3-32.4,40.6-48.6,60.8c-0.9,1.1-1.8,2.3-2.7,3.4c-0.3,0.3-0.5,0.7-0.7,1.1c-0.4,0.7,0.4-0.6,0.4-0.6
				c0.3,0,0.1,0-0.7,0.2c-1.5,0.4-3,0.7-4.6,0.9c-8.7,1.1-17.6,0.8-26.3,0.6c-14.7-0.4-29.5-1-43.8-4.7c-9.7-2.6-19.3-6.4-27.5-12.5
				c-2-1.5-4-3.1-5.7-5c-0.6-0.7-1.7-2-1.7-1.9c-0.3,1.1-0.6,2.3-0.9,3.4c9.3-6.6,18.7-13.2,28-19.8c6.6-4.7,13.3-9.4,19.9-14.1
				c3.6-2.5,7.8-4.8,11-7.8c0.1-0.1-1.7-0.1,0.1,0.1c1.5,0.2,3.1,0,4.7,0c6,0,12.1,0,18.1,0c16.7,0,33.3,0,50,0
				c10.9,0,21.9,0,32.8,0C234.5,274,234.5,269,231.3,269z"/>
		</g>
	</g>
</g>
<g>
	<g>
		<path fill="#FFFFFF" d="M241.1,309.1c-4.4,2.6-7.1,7.5-6.8,12.6c0.2,3.2,5.2,3.2,5,0c-0.2-3.4,1.4-6.5,4.4-8.3
			C246.4,311.7,243.9,307.4,241.1,309.1L241.1,309.1z"/>
	</g>
</g>
<g>
	<g>
		<path fill="#FFFFFF" d="M250,310.2c3.2,0,3.2-5,0-5C246.8,305.2,246.8,310.2,250,310.2L250,310.2z"/>
	</g>
</g>
<g>
	<g>
		<path d="M240.1,221.9c-0.5-9.8,13.9-2.7,17.9-0.6c4.9,2.6,9.6,5.5,14.5,8.2c2.8,1.6,5.3-2.7,2.5-4.3c-8.1-4.6-16.6-10.9-25.8-13.1
			c-6.7-1.6-14.5,2-14.1,9.7C235.3,225.1,240.3,225.1,240.1,221.9L240.1,221.9z"/>
	</g>
</g>
<g>
	<g>
		<path d="M281.1,156.2c0,2.9,1.6,4.5,4.5,4.9c5.2,0.8,11,0.1,16.3,0.1c11.7,0,23.5,0.1,35.2-0.4c3.2-0.1,3.2-5.1,0-5
			c-4.1,0.2-50.9,0.5-50.9,0.3C286.1,153,281.1,153,281.1,156.2L281.1,156.2z"/>
	</g>
</g>
<g>
	<g>
		<path d="M212.4,156.2c0,0.2-46.9-0.2-50.9-0.3c-3.2-0.1-3.2,4.9,0,5c11.7,0.5,23.5,0.4,35.2,0.4c5.1,0,10.5,0.5,15.6,0
			c3.1-0.3,5.1-1.7,5.1-5C217.3,153,212.3,153,212.4,156.2L212.4,156.2z"/>
	</g>
</g>
</svg>
