<?xml version="1.0" encoding="utf-8"?>
<!-- Generator: Adobe Illustrator 18.1.1, SVG Export Plug-In . SVG Version: 6.00 Build 0)  -->
<svg version="1.1" xmlns="http://www.w3.org/2000/svg" xmlns:xlink="http://www.w3.org/1999/xlink" x="0px" y="0px"
	 viewBox="0 0 500 500" enable-background="new 0 0 500 500" xml:space="preserve">
<g id="Layer_1">
	<path fill="#B76935" d="M122.3,194.3c0,0-17.9-27.6-4.8-71.3s21.7-50.4,27-51s19.8,0.9,21.9-0.5c0,0,6.3-6.6,8.5-7.9
		c2.2-1.3,21.5-22.8,62.3-14.4s38.6,15.8,53,11.6S338,46.4,351,51.3s16.9,18.5,20,30.3c3.1,11.8,10.7,63.7,10.7,72.4
		s-8.1,22.4-8.1,22.4s-16.5-41.5-19.9-45.1s-2.8,3.8-9.9,1.4s-17.6-3.6-24.8-12.8s-18.4-17.1-23.4-19.1s-15.4,1-26,4.6
		s-28.4,8.1-36.4,6.5s-24.3,0.9-30.6-0.9s-18.8-2.3-18.8-2.3s-16.5,26.5-20.5,30.3s-30.1,20.4-30.1,20.4"/>
	<g>
		<g>
			<path fill="#EFB848" d="M375.7,342.1l15.9-37.9l-32-24.1c-10-7.5-12-21.8-4.5-31.8l1.3-1.8c7.5-10,21.8-12,31.8-4.5l46.7,35.2
				c10,7.5,12,21.8,4.5,31.8l-0.4,0.6l-24.8,50.1"/>
			<path d="M378.1,342.7c5.3-12.6,10.6-25.3,15.9-37.9c0.5-1.1-0.3-2.2-1.1-2.8c-10.6-8-21.6-15.7-31.9-24
				c-10.9-8.9-9.7-24.8,0.8-33.4c8.5-7,19.1-5.1,27.3,1.1c13.1,9.9,26.3,19.8,39.4,29.7c6.5,4.9,12.5,9.8,13.1,18.8
				c0.5,7.4-4.2,13.5-7.4,19.8c-7.3,14.8-14.7,29.6-22,44.5c-1.4,2.9,2.9,5.4,4.3,2.5c7.3-14.7,14.6-29.4,21.9-44.2
				c3.4-6.9,8.2-13.3,8.3-21.4c0-9.9-5.6-16.8-13-22.4c-14.2-10.7-28.4-21.5-42.6-32.1c-8.4-6.3-19.2-8-28.7-2.7
				c-10.9,6.1-16.9,20-12.8,32c3.2,9.3,12,14.4,19.5,20c7.1,5.4,14.3,10.7,21.4,16.1c-0.4-0.9-0.8-1.9-1.1-2.8
				c-5.3,12.6-10.6,25.3-15.9,37.9C372.1,344.4,376.9,345.7,378.1,342.7L378.1,342.7z"/>
		</g>
		<g>
			<path fill="#FFFFFF" d="M375.5,342.9l38.4,17.4c0,0-18.8,24.8-33.3,18.2C366.1,371.9,375.5,342.9,375.5,342.9z"/>
			<path d="M374.2,345.1c12.8,5.8,25.6,11.6,38.4,17.4c-0.3-1.1-0.6-2.3-0.9-3.4c-1.9,2.5-6.4,7.2-9.6,10c-5.4,4.7-14.3,11-21.5,6.6
				c-9.5-5.8-5.5-23.4-2.7-32.1c1-3.1-3.8-4.4-4.8-1.3c-3.6,11.3-7,31.5,5.9,38.2c13.8,7.2,29.5-8.9,37.1-18.8
				c0.8-1,0.2-2.9-0.9-3.4c-12.8-5.8-25.6-11.6-38.4-17.4C373.8,339.4,371.3,343.8,374.2,345.1z"/>
		</g>
		<path d="M380.9,331.1c13.1,5.5,26.2,11,39.3,16.5c1.8,0.7,2.6-2.2,0.8-2.9c-13.1-5.5-26.2-11-39.3-16.5
			C379.9,327.5,379.1,330.4,380.9,331.1L380.9,331.1z"/>
	</g>
	<g>
		<g>
			<path fill="#EFB848" d="M125,342.1l-15.9-37.9l32-24.1c10-7.5,12-21.8,4.5-31.8l-1.3-1.8c-7.5-10-21.8-12-31.8-4.5l-46.7,35.2
				c-10,7.5-12,21.8-4.5,31.8l0.4,0.6l24.8,50.1"/>
			<path d="M127.4,341.4c-5.3-12.6-10.6-25.3-15.9-37.9c-0.4,0.9-0.8,1.9-1.1,2.8c6-4.5,12-9,18-13.5c6-4.5,13.6-8.9,18.4-14.7
				c8.3-10,7.1-23.6-0.8-33.4c-8.5-10.6-23.8-12.8-34.9-4.9c-13.6,9.7-26.7,20.1-40,30.1c-6,4.5-12.2,8.6-15.1,15.9
				c-2.5,6.1-2.4,13,0.1,19.1c1.2,2.8,3,5.1,4.4,7.8c7.9,16,15.9,32.1,23.8,48.1c1.4,2.9,5.7,0.4,4.3-2.5
				C82,345.3,75.5,332.2,69,319c-2.4-4.8-5-9.4-7.6-14.1c-5.3-10-1.1-20.6,7.4-27c13.1-9.9,26.3-19.8,39.4-29.7
				c6.3-4.7,12.3-9.3,20.9-8c13.8,2.1,22.6,18.5,16.1,31c-3.7,7.3-12.8,12.2-19.2,17c-6.1,4.6-12.2,9.2-18.3,13.8
				c-0.8,0.6-1.6,1.7-1.1,2.8c5.3,12.6,10.6,25.3,15.9,37.9C123.8,345.7,128.6,344.4,127.4,341.4L127.4,341.4z"/>
		</g>
		<g>
			<path fill="#FFFFFF" d="M125.2,342.9l-38.4,17.4c0,0,18.8,24.8,33.3,18.2S125.2,342.9,125.2,342.9z"/>
			<path d="M123.9,340.8c-12.8,5.8-25.6,11.6-38.4,17.4c-1.1,0.5-1.7,2.4-0.9,3.4c7.6,10,23.3,26,37.1,18.8
				c12.9-6.7,9.5-26.9,5.9-38.2c-1-3.1-5.8-1.7-4.8,1.3c2.8,8.7,6.8,26.2-2.7,32.1c-7.1,4.4-15.8-1.7-21.1-6.2
				c-3.4-2.9-8-7.7-10-10.4c-0.3,1.1-0.6,2.3-0.9,3.4c12.8-5.8,25.6-11.6,38.4-17.4C129.4,343.8,126.8,339.4,123.9,340.8z"/>
		</g>
		<path d="M119,328.2c-13.1,5.5-26.2,11-39.3,16.5c-1.8,0.7-1,3.6,0.8,2.9c13.1-5.5,26.2-11,39.3-16.5
			C121.5,330.4,120.7,327.5,119,328.2L119,328.2z"/>
	</g>
	<path fill="#FFFFFF" d="M391.7,357.2c-0.3-6.5-2.8-19.4-5.8-34.4l-0.1-0.5c-3.2-16-6.9-35.9-7.1-44.6c-0.1-5.4,0.3-13.2,0.3-21.4
		v-0.4c0-16.9-0.1-40.1-1.7-55.3c-1.3-12.5-6.1-44-20.8-67.6c-13.6-21.8-30.2-35.9-51.9-44.7c-19.9-8-56.3-8.9-57.3-8.9
		c-9.3,0-33.2,0.8-53,8.8c-21.7,8.8-38.1,23-51.8,44.8c-14.7,23.5-19.4,55.1-20.7,67.6c-1.6,15.2-1.5,38.4-1.3,55.3l0,3.9
		c0,6.8,0,13.3-0.1,17.9c-0.2,8.8-4.2,28.6-7.4,44.6l-0.2,0.6c-3,14.9-5.5,27.8-5.8,34.3c-0.6,16.6,4.1,27.8,16.1,38.7
		c7.7,7,15.2,10.2,23.4,10.2c4.5,0,8.5-0.9,12.8-2c1.2-0.3,2.4-0.7,3.7-1.2c4.4,2.4,12.6,6,23.5,6c7.1,0,15.3-1.5,24.2-5.8
		c5.1,4.2,10.5,8.2,10.5,8.2c13.9,7.9,25.9,9.6,27.7,9.6h0.4c1.8,0,13.8-1.1,28.2-9.6c0,0,4.7-3.4,9.5-7.3c8.3,3.7,15.9,5,22.5,5
		c11.8,0,20.5-4.2,24.5-6.6c1.9,0.8,3.6,1.4,5.3,1.8c4.4,1.1,8.4,2,12.8,2c8.4,0,15.6-3.2,23.4-10.2
		C387.7,385.1,392.3,373.9,391.7,357.2z"/>
	<path fill="#EFB848" d="M122.5,252.3c0,0,58,4.6,100.7,5.3c42.7,0.7,155.8-5.1,155.8-5.1s-2.3,38.2,1.3,52.5s6.5,31.1,6.5,31.1
		s-140,10.9-204.6,6.6s-69.4-5.3-69.4-5.3S125.4,273.3,122.5,252.3z"/>
	<path fill="#C8C8C8" d="M288.4,401.1c0,0,8.6-6.5,18.1-7.6c9.5-1.1,25.7,5.9,25.7,5.9s-5.3,10.8-15.4,10.5S288.4,401.1,288.4,401.1
		z"/>
	<g>
		<polygon fill="#FFFFFF" points="379,263.7 263.3,306.7 260,305 377.6,258.8 		"/>
		<polygon fill="#ED5D40" points="380.3,268.2 266.5,308.3 263.3,306.7 379,263.7 		"/>
		<polygon fill="#488DD3" points="377.6,258.8 260,305 256.5,303.3 376.1,253.5 		"/>
	</g>
	<g>
		<polygon fill="#FFFFFF" points="123.5,263.7 239.2,306.7 242.6,305 124.9,258.8 		"/>
		<polygon fill="#ED5D40" points="122.3,268.2 236,308.3 239.2,306.7 123.5,263.7 		"/>
		<polygon fill="#488DD3" points="124.9,258.8 242.6,305 246.1,303.3 126.4,253.5 		"/>
	</g>
	<path fill="#E0893B" d="M112.8,337.5c0,0,28.5,4.2,71.2,6.3c42.7,2.1,102.3,2,148.3-1.7c46-3.7,56.2-5.6,56.2-5.6s5.3,21.5,0,37.8
		c-5.3,16.3-16.2,29-27.8,30.2c-11.7,1.2-41.3-11.5-50.3-12S282.8,408,271.5,413s-24.7,7-34.5,3.2c-9.8-3.8-29.7-24-39.3-23.7
		c-9.7,0.3-38.8,14-49.3,13.3C137.8,405.2,99.9,405.2,112.8,337.5z"/>
	<path fill="#C8C8C8" d="M163.1,401.1c0,0,8.6-6.5,18.1-7.6c9.5-1.1,25.7,5.9,25.7,5.9s-5.3,10.8-15.4,10.5
		C181.4,409.8,163.1,401.1,163.1,401.1z"/>
	<path d="M395.4,359.6c-0.3-6.6-2.9-19.8-5.9-35.1l-0.1-0.6c-3.3-16.3-6.8-36.6-7-45.5c-0.1-5.6,0.6-13.5,0.6-21.9v-0.4
		c0-17.3-0.4-40.9-2-56.5c-1.3-12.7-6.4-44.9-21.4-69c-13.9-22.3-30.9-36.7-53-45.6c-20.3-8.2-57.5-9.1-58.6-9.1
		c-9.5,0-33.9,0.8-54.2,9c-22.1,9-39,23.5-52.9,45.7c-15,24-19.8,56.3-21.1,69c-1.7,15.6-1.5,39.2-1.4,56.5l0,4c0,7,0,13.5-0.1,18.3
		c-0.2,9-4.3,29.2-7.6,45.5l-0.2,0.7c-3,15.3-5.7,28.4-5.9,35c-0.6,17,4.1,28.4,16.4,39.5c7.9,7.1,15.5,10.4,23.9,10.4
		c4.6,0,8.6-0.9,13.1-2c1.2-0.3,2.5-0.7,3.8-1.2c4.4,2.5,12.9,6.1,24,6.1c7.2,0,15.6-1.5,24.8-5.9c5.3,4.3,10.7,8,10.8,8.1
		c14.2,8.1,26.5,9.5,28.3,9.5h0.4c1.8,0,14-0.8,28.8-9.5c0,0,4.8-3.3,9.7-7.3c8.5,3.8,16.2,5.2,23,5.2c12.1,0,21-4.3,25-6.7
		c1.9,0.8,3.7,1.4,5.4,1.8c4.5,1.1,8.5,2,13.1,2c8.6,0,15.9-3.2,23.9-10.4C391.3,388,396.1,376.5,395.4,359.6z M171.4,402.3
		c6.5-2.8,14.7-6,21.7-6c4.7,0,8.2,1.4,11.2,4.4l0.2,0.2C190.3,406.8,178.7,404.9,171.4,402.3z M295.1,401.7
		c0.3-0.3,0.6-0.6,0.9-0.9c3.1-3.1,6.5-4.5,11.2-4.5c6.6,0,14.1,2.7,20.4,5.4C320.7,404.5,309.2,406.9,295.1,401.7z M373.7,393.2
		c-6.5,5.9-12,8.4-18.6,8.4c-3.6,0-7.1-0.8-11.2-1.8c-2.2-0.5-4.9-1.7-8.3-3.2l-0.6-0.3c-7.6-3.4-18.1-8-27.9-8
		c-6.8,0-12.3,2.2-16.8,6.8c-11.9,12.1-23.7,17-31.5,18.9c-0.2,0.1-7.7,2.1-16.5-0.3c-8.8-2.4-20.7-6.6-32.5-18.6
		c-4.5-4.6-10-6.8-16.8-6.8c-9.7,0-20.1,4.6-27.9,8l-0.3,0.2c-3.5,1.6-6.3,2.8-8.6,3.4c-4.1,1-7.5,1.8-11.2,1.8
		c-6.5,0-12.2-2.6-18.6-8.4c-10.6-9.6-14.4-18.7-13.8-33.4c0.2-6,2.8-18.9,5.8-33.8l0.1-0.7c3.5-17.4,7.5-37.2,7.7-46.9
		c0.1-4.9,0.1-11.5,0.1-18.5l0-4c-0.1-17.1-0.3-40.5,1.3-55.6c1.3-12.2,5.8-43,20-65.6c13-20.8,28.6-34.3,49.1-42.6
		c19-7.7,42.1-8.8,51.2-8.8c0.8,0,36.5,0.9,55.5,8.5c20.5,8.3,36.1,22,49.1,42.8c14.2,22.7,19.2,53.5,20.5,65.7
		c1.6,15.1,1.9,38.6,1.9,55.7v0.4c0,8.4-0.7,16.4-0.5,22.1c0.3,9.6,4,29.4,7.5,46.9l0,0.6c3,15,5.5,27.9,5.7,33.9
		C388.2,374.6,384.4,383.6,373.7,393.2z"/>
	<path d="M330.2,187.3c0,11.4-9.3,20.7-20.7,20.7s-20.7-9.3-20.7-20.7c0-1,0.1-1.9,0.2-2.9c1.3,0.9,2.8,1.4,4.4,1.4
		c4.3,0,7.8-3.5,7.8-7.8c0-3.1-1.8-5.8-4.5-7c3.5-2.7,7.9-4.4,12.7-4.4C320.9,166.6,330.2,175.8,330.2,187.3z"/>
	<path d="M211.2,187.3c0,11.4-9.3,20.7-20.7,20.7c-11.4,0-20.7-9.3-20.7-20.7c0-1,0.1-1.9,0.2-2.9c1.3,0.9,2.8,1.4,4.4,1.4
		c4.3,0,7.8-3.5,7.8-7.8c0-3.1-1.8-5.8-4.5-7c3.5-2.7,7.9-4.4,12.7-4.4C201.9,166.6,211.2,175.8,211.2,187.3z"/>
	<path d="M240.3,236.1c14.7,6.6,30.3,1.5,38.7-12c1.9-3.1-3.1-5.8-5-2.6c-6.7,10.8-19.3,14.8-31,9.6
		C239.7,229.6,237,234.6,240.3,236.1L240.3,236.1z"/>
	
		<ellipse transform="matrix(0.7169 -0.6971 0.6971 0.7169 -112.9338 175.5088)" fill="#F68694" cx="159.7" cy="226.8" rx="8" ry="3.6"/>
	
		<ellipse transform="matrix(0.7169 -0.6971 0.6971 0.7169 -109.5173 186.4544)" fill="#F68694" cx="174.8" cy="228.1" rx="8" ry="3.6"/>
	
		<ellipse transform="matrix(0.7169 -0.6971 0.6971 0.7169 -105.2185 197.0418)" fill="#F68694" cx="190" cy="228.1" rx="8" ry="3.6"/>
	
		<ellipse transform="matrix(-0.7169 -0.6971 0.6971 -0.7169 425.8532 629.0911)" fill="#F68694" cx="340.6" cy="228.1" rx="8" ry="3.6"/>
	
		<ellipse transform="matrix(-0.7169 -0.6971 0.6971 -0.7169 398.8955 620.6766)" fill="#F68694" cx="325.5" cy="229.4" rx="8" ry="3.6"/>
	
		<ellipse transform="matrix(-0.7169 -0.6971 0.6971 -0.7169 372.8202 610.0892)" fill="#F68694" cx="310.3" cy="229.4" rx="8" ry="3.6"/>
	<path d="M166.3,152.2c16.4-8.6,36.2-3.7,46.6,11.7c1.8,2.7,6.1,0.2,4.3-2.5c-11.9-17.6-34.5-23.3-53.4-13.4
		C160.9,149.3,163.4,153.7,166.3,152.2L166.3,152.2z"/>
	<path d="M335.3,147.8c-18.9-9.9-41.5-4.2-53.4,13.4c-1.8,2.7,2.5,5.2,4.3,2.5c10.4-15.3,30.2-20.2,46.6-11.7
		C335.6,153.7,338.1,149.3,335.3,147.8L335.3,147.8z"/>
	<path d="M122.5,253c65.4,7.4,131.4,9,197.2,4.9c18.8-1.2,37.6-2.8,56.4-4.9c3.2-0.3,3.2-5.4,0-5c-65.7,7.3-131.9,9.1-197.9,4.9
		c-18.6-1.2-37.1-2.8-55.7-4.9C119.3,247.6,119.3,252.6,122.5,253L122.5,253z"/>
	<path d="M116.5,340c69.6,7.4,139.8,9,209.7,4.9c20.2-1.2,40.4-2.8,60.6-4.9c3.2-0.3,3.2-5.3,0-5c-69.9,7.2-140.3,9.1-210.5,4.9
		c-20-1.2-39.9-2.8-59.8-4.9C113.3,334.7,113.3,339.7,116.5,340L116.5,340z"/>
	<path d="M206.7,257.6c-0.8,9.4-1.6,18.7-2.4,28.1c-0.2,1.9,2.2,3.1,3.8,2.2c14.3-8.7,28.5-17.3,42.8-26c2.7-1.7,0.2-6-2.5-4.3
		c-14.3,8.7-28.5,17.3-42.8,26c1.3,0.7,2.5,1.4,3.8,2.2c0.8-9.4,1.6-18.7,2.4-28.1C212,254.4,207,254.4,206.7,257.6L206.7,257.6z"/>
	<path d="M229.1,345.1c-0.2,10.8-0.4,21.6-0.6,32.4c0,1.4,1.2,2.5,2.5,2.5c6,0,12,0,18,0c3.2,0,3.2-5,0-5c-6,0-12,0-18,0
		c0.8,0.8,1.7,1.7,2.5,2.5c0.2-10.8,0.4-21.6,0.6-32.4C234.2,341.9,229.2,341.9,229.1,345.1L229.1,345.1z"/>
	<path d="M287.6,257.6c0.8,9.4,1.6,18.7,2.4,28.1c1.3-0.7,2.5-1.4,3.8-2.2c-14.3-8.7-28.5-17.3-42.8-26c-2.8-1.7-5.3,2.6-2.5,4.3
		c14.2,8.7,28.5,17.3,42.7,26c1.5,0.9,3.9-0.2,3.8-2.2c-0.8-9.4-1.6-18.7-2.4-28.1C292.3,254.4,287.3,254.4,287.6,257.6L287.6,257.6
		z"/>
	<path d="M247.5,261c-0.3,27.2-0.5,54.3-0.8,81.5c0,3.2,5,3.2,5,0c0.3-27.2,0.5-54.3,0.8-81.5C252.5,257.8,247.5,257.8,247.5,261
		L247.5,261z"/>
	<path d="M247,345c0,23.3,0,46.7,0,70c0,3.2,5,3.2,5,0c0-23.3,0-46.7,0-70C252,341.8,247,341.8,247,345L247,345z"/>
	<circle fill="#E0893B" cx="261.5" cy="280.3" r="4.7"/>
	<g>
		<g>
			<circle fill="#EF9B3F" cx="251.1" cy="330.1" r="23.9"/>
		</g>
		<g>
			<path fill="#FFCA6C" d="M274.3,330.2c0,0.7,0,1.4-0.1,2.1c-5.1-12.4-17.3-21-31.5-21c-2.2,0-4.3,0.2-6.3,0.6c4-3.2,9-5,14.5-5
				C263.9,306.8,274.3,317.3,274.3,330.2z"/>
			<g>
				<path d="M124.3,253.7c36.8,15.5,73.6,30.9,110.5,46.4c5.2,2.2,10.4,4.4,15.5,6.5c3,1.2,4.3-3.6,1.3-4.8
					c-36.8-15.5-73.6-30.9-110.5-46.4c-5.2-2.2-10.4-4.4-15.5-6.5C122.7,247.7,121.4,252.5,124.3,253.7L124.3,253.7z"/>
				<path d="M376.3,248.9c-36.8,15.5-73.6,30.9-110.5,46.4c-5.2,2.2-10.4,4.4-15.5,6.5c-2.9,1.2-1.6,6.1,1.3,4.8
					c36.8-15.5,73.6-30.9,110.5-46.4c5.2-2.2,10.4-4.4,15.5-6.5C380.6,252.5,379.3,247.7,376.3,248.9L376.3,248.9z"/>
				<path d="M378.3,266.6c-32.5,12-65.1,23.9-97.6,35.9c-4.6,1.7-9.3,3.4-13.9,5.1c-3,1.1-1.7,5.9,1.3,4.8
					c32.5-12,65.1-23.9,97.6-35.9c4.6-1.7,9.3-3.4,13.9-5.1C382.7,270.3,381.4,265.5,378.3,266.6L378.3,266.6z"/>
				<path d="M122.8,271.4c32.5,12,65.1,23.9,97.6,35.9c4.6,1.7,9.3,3.4,13.9,5.1c3,1.1,4.3-3.7,1.3-4.8
					c-32.5-12-65.1-23.9-97.6-35.9c-4.6-1.7-9.3-3.4-13.9-5.1C121.1,265.5,119.8,270.3,122.8,271.4L122.8,271.4z"/>
				<path d="M273.8,330.5c-0.3,12.4-10.1,22.8-22.8,22.8c-12.4,0-22.7-10.3-22.8-22.8c-0.1-12.4,10.4-22.8,22.8-22.8
					C263.7,307.8,273.4,318.1,273.8,330.5c0.1,3.2,5.1,3.2,5,0c-0.3-11.4-7-21.8-17.9-25.9c-10.9-4.2-23.8-0.8-31.2,8.2
					c-16.1,19.5,1.2,49.3,26.1,45c13.4-2.3,22.6-14,23-27.3C278.8,327.3,273.8,327.3,273.8,330.5z"/>
			</g>
			<path fill="#DD7F3A" d="M269.1,335.9c-2.4,7.6-9.4,13.1-17.8,13.1c-10.3,0-18.7-8.4-18.7-18.7c0-4.1,1.3-7.8,3.5-10.9
				c-0.6,1.8-0.8,3.6-0.8,5.6c0,10.3,8.4,18.7,18.7,18.7C260.2,343.7,265.8,340.6,269.1,335.9z"/>
		</g>
	</g>
	<path d="M264.6,280c-0.2,4.3-6.7,4.3-6.7,0C258,275.7,264.4,275.7,264.6,280c0.1,1.9,3.1,1.9,3,0c-0.2-3.4-2.8-6.3-6.3-6.3
		c-3.4,0-6.3,2.9-6.3,6.3c0,3.3,2.7,6.2,6.1,6.3c3.7,0.2,6.4-2.8,6.6-6.3C267.7,278.1,264.7,278.1,264.6,280z"/>
	<path d="M134.9,338.4c-2.5,9.8-9.6,28.6-22.7,25.5c-1.9-0.5-2.7,2.4-0.8,2.9c15.1,3.7,23.4-15.9,26.3-27.5
		C138.3,337.4,135.4,336.6,134.9,338.4L134.9,338.4z"/>
	<path d="M365.4,340.2c3,11.6,11.2,31.2,26.3,27.5c1.9-0.5,1.1-3.3-0.8-2.9c-13,3.2-20.1-15.6-22.7-25.5
		C367.8,337.6,364.9,338.4,365.4,340.2L365.4,340.2z"/>
	<path fill="#B76935" d="M122.3,160.7c0,0,38.7-3.8,63.4-51.3c0,0,44.5,9.3,79.6-4.7s45.7,9,49.5,12.7c3.8,3.7,30.2,23.8,45.9,11.7
		c0,0-15.9-30.2-42.1-42.8C292.5,73.5,162.2,36.3,122.3,160.7z"/>
	<path d="M123,164.5c29.1-6.7,50.5-30.9,64.7-55.8c1.6-2.8-2.7-5.3-4.3-2.5c-13.6,23.8-33.9,47.1-61.7,53.5
		C118.5,160.4,119.9,165.2,123,164.5L123,164.5z"/>
	<path d="M185,109.9c17.9,4,37.1,4.9,55.4,3.7c9-0.6,17.5-2.4,26-5.4c8.7-3.1,17.9-6.9,27.4-5.4c9.4,1.5,13.7,8.8,19.8,15.1
		c5.1,5.2,10.9,10.3,17.5,13.7c5.5,2.8,11.4,4.3,17.5,2.9c4.4-1,8.7-2.6,12.9-4.2c3-1.1,1.7-5.9-1.3-4.8c-4.2,1.5-8.5,3.2-12.9,4.2
		c-7.4,1.7-14.5-2.3-20.2-6.6c-11.5-8.6-18.6-23.8-34.1-25.4c-7.7-0.8-15.3,1.3-22.5,3.8c-9.3,3.2-18.1,6.2-28.1,7
		c-18.4,1.4-37.9,0.6-55.9-3.4C183.2,104.4,181.9,109.2,185,109.9L185,109.9z"/>
	<path d="M124.5,194.5c-17.7-31.6-8-72.9,7.7-103.3c2.6-5.1,6.2-12.7,11.8-15.1c5.3-2.2,11.9-2.6,17.5-3c2.1-0.1,4.4,0.2,6.2-0.9
		c3.1-2,5.7-5.3,8.7-7.5c6.5-4.9,13.7-9,21.4-11.8c20.4-7.5,42-3.1,62,3.6c5.9,2,11.8,4.5,17.9,5.7c5.3,1,10.3,0.2,15.5-1
		c17.3-4.1,36.2-11.6,54.2-8.7c5.7,0.9,9,3.1,12,7.9c3.2,5.1,5.4,10.8,7.4,16.5c5.8,17.2,9,35.5,10.5,53.6
		c1.2,14.3,2.7,32.4-3.9,45.8c-1.4,2.9,2.9,5.4,4.3,2.5c6.1-12.4,5.7-28,5-41.5c-0.9-17.4-3.6-35-8.1-51.8c-3-11-6.7-25.8-15.8-33.6
		c-5.2-4.5-13.2-4.8-19.6-4.7c-10.2,0.2-20.4,2.5-30.2,5c-7.8,1.9-15.7,4.9-23.7,5.7c-5.8,0.6-11.4-1.5-16.7-3.4
		c-19-6.6-40-13.1-60.2-9.4C192.6,47.7,177.7,56,166,66.9c-0.4,0.3-1.2,0.9-1.4,1.4c-0.6,1.3,0.8-0.5,0.9-0.3
		c-0.6-1.2-12.3,1.1-13.7,1.3c-8.5,1.4-13.5,3.3-18.5,10.3c-6,8.3-10,18.2-13.5,27.7c-4.1,11.2-7.3,22.8-8.9,34.6
		c-2.5,18.3,0.1,38.9,9.2,55.2C121.7,199.8,126.1,197.3,124.5,194.5L124.5,194.5z"/>
	<path fill="#FFFFFF" d="M182.3,75.1c5.6-5.3,12-9.4,19.2-12.1c3-1.1,1.7-6-1.3-4.8c-8,3-15.2,7.5-21.5,13.4
		C176.5,73.8,180,77.3,182.3,75.1L182.3,75.1z"/>
	<path fill="#FFFFFF" d="M210.3,55c0,0-0.1,0-0.1,0c-1.3,0-2.6,1.1-2.5,2.5c0.1,1.4,1.1,2.5,2.5,2.5c0,0,0.1,0,0.1,0
		c1.3,0,2.6-1.1,2.5-2.5C212.7,56.1,211.7,55,210.3,55L210.3,55z"/>
</g>
<g id="Layer_2">
</g>
</svg>
