<?xml version="1.0" encoding="utf-8"?>
<!-- Generator: Adobe Illustrator 18.1.1, SVG Export Plug-In . SVG Version: 6.00 Build 0)  -->
<svg version="1.1" id="Layer_1" xmlns="http://www.w3.org/2000/svg" xmlns:xlink="http://www.w3.org/1999/xlink" x="0px" y="0px"
	 viewBox="0 0 500 500" enable-background="new 0 0 500 500" xml:space="preserve">
<g>
	<path fill="#32CCCC" d="M365.8,125.8c0,0,8.3,6.5,13,23.5s14.7,78.8,14.7,78.8L376,248l-17-108.5L365.8,125.8z"/>
	<g>
		<path d="M364,127.5c7,5.7,10.7,15.8,12.8,24.2c2.4,9.4,4.1,19.1,5.9,28.7c3,16.1,5.7,32.2,8.4,48.4c0.2-0.8,0.4-1.6,0.6-2.4
			c-5.8,6.6-11.7,13.3-17.5,19.9c1.4,0.4,2.8,0.7,4.2,1.1c-5.4-34.8-10.9-69.7-16.3-104.5c-0.1-1-0.2-2.1-0.5-3.1
			c-0.7-1.9,0.7,0.5-0.3,0.7c0.9-0.2,3-6.1,3.4-7c1-2.1,2.1-4.3,3.1-6.4c1.4-2.9-2.9-5.4-4.3-2.5c-2,4.2-4.3,8.4-6.2,12.6
			c-0.7,1.7-0.8,2.8-0.6,4.5c1.1,7,2.2,14.1,3.3,21.1c3.6,22.8,7.1,45.6,10.7,68.4c0.9,5.8,1.8,11.7,2.7,17.5c0.3,1.8,3,2.4,4.2,1.1
			c5.4-6.1,10.7-12.2,16.1-18.3c1.4-1.6,2.1-2.5,2-4.7c-0.2-2.7-0.9-5.5-1.3-8.2c-3.7-22.1-7.1-44.5-12.3-66.3
			c-2.4-9.8-6.4-21.8-14.6-28.4C365,122,361.5,125.5,364,127.5z"/>
	</g>
</g>
<g>
	<path fill="#32CCCC" d="M344.9,114c0,0,21.4-1.8,24.1,6.3s-6,28-6,28L344.9,114z"/>
	<g>
		<path d="M344.9,116.5c5.6-0.5,18.7-1.6,21.7,4.5c2.1,4.4-0.8,12.1-2.1,16.3c-1,3.3-2.2,6.6-3.6,9.8c1.4,0,2.9,0,4.3,0
			c-6-11.4-12.1-22.9-18.1-34.3c-1.5-2.8-5.8-0.3-4.3,2.5c6,11.4,12.1,22.9,18.1,34.3c0.8,1.5,3.6,1.7,4.3,0
			c1.9-4.3,3.4-8.7,4.7-13.2c1.5-5.3,3.7-12.8,1-18c-4.2-8-18.4-7.5-26-6.9C341.7,111.8,341.7,116.8,344.9,116.5z"/>
	</g>
</g>
<g>
	<g>
		<path fill="#FFFFFF" d="M381.9,322.2l-1.2-0.4c-14.2-4.4-19.6-24.3-12.7-42.5l35.6-94.1c15.1-42.4,50.1-27.9,37.3,11.7l-24.3,97.7
			C411.9,313.4,396.1,326.6,381.9,322.2z"/>
		<g>
			<path d="M382.6,319.8c-17.3-5.4-16.9-27.1-11.7-41c3.2-8.5,6.4-17,9.6-25.5c8.3-21.8,16.5-43.7,24.8-65.5
				c3.7-9.7,10.2-25.8,23-25.8c16.6,0,12.9,24.6,10.3,34.2c-5.4,19.8-9.9,39.9-14.9,59.9c-2.9,11.6-5.8,23.1-8.6,34.7
				C411.4,304.9,400.3,324.7,382.6,319.8c-3.1-0.9-4.4,4-1.3,4.8c19,5.3,33.5-13.4,37.8-29.7c2.2-8.5,4.3-17.1,6.4-25.7
				c5.9-23.8,11.5-47.7,17.8-71.4c3.2-12.1,6.1-30.1-6.5-38.3c-14.1-9.2-27.8,7.2-33,18.7c-3.6,7.8-6.3,16.1-9.3,24.1
				c-5.3,13.9-10.5,27.8-15.8,41.8c-4.2,11.2-8.5,22.4-12.7,33.6c-6.2,16.7-4.6,40.8,15.3,47C384.3,325.5,385.6,320.7,382.6,319.8z"
				/>
		</g>
	</g>
	<g>
		<path fill="#32CCCC" d="M380.6,327.2l-1.5-0.5c-18.3-5.7-23.3-37.7-12.2-68.6l62.7,19.6C421.3,309.4,398.9,332.9,380.6,327.2z"/>
		<g>
			<path d="M381.3,324.8c-10.4-3.2-14.9-12.8-16.8-22.9c-2.6-14.4,0-29.4,4.8-43c-1,0.6-2.1,1.2-3.1,1.7
				c20.9,6.5,41.8,13.1,62.7,19.6c-0.6-1-1.2-2.1-1.7-3.1c-3.6,13.4-9.7,26.5-19.2,36.7C401.3,321,391.6,327.7,381.3,324.8
				c-3.1-0.9-4.4,3.9-1.3,4.8c11.2,3.2,21.9-2.8,29.8-10.4c11.2-10.9,18.3-25.8,22.3-40.8c0.4-1.3-0.5-2.7-1.7-3.1
				c-20.9-6.5-41.8-13.1-62.7-19.6c-1.4-0.4-2.6,0.5-3.1,1.7c-7.6,21.4-13.1,63.2,15.4,72.1C383.1,330.6,384.4,325.7,381.3,324.8z"
				/>
		</g>
	</g>
	<g>
		<g>
			<circle fill="#DCE9FF" cx="394.1" cy="205.4" r="7"/>
			<g>
				<path d="M399.4,207.1c-2.4,6.6-12.6,3.4-10.5-3.4C391.1,196.9,401.1,200.3,399.4,207.1c-0.5,1.9,2.4,2.7,2.9,0.8
					c1.2-4.5-1.1-9.2-5.6-10.6c-4.4-1.3-9.3,1.2-10.6,5.6c-1.3,4.4,1.2,9.3,5.6,10.6c4.6,1.4,9-1.3,10.6-5.6
					C402.9,206.1,400,205.3,399.4,207.1z"/>
			</g>
		</g>
		<g>
			<circle fill="#DCE9FF" cx="407.5" cy="209.6" r="7"/>
			<g>
				<path d="M412.7,211.3c-2.4,6.6-12.6,3.4-10.5-3.4C404.4,201.1,414.5,204.5,412.7,211.3c-0.5,1.9,2.4,2.7,2.9,0.8
					c1.2-4.5-1.1-9.2-5.6-10.6c-4.4-1.3-9.3,1.2-10.6,5.6c-1.3,4.4,1.2,9.3,5.6,10.6c4.6,1.4,9-1.3,10.6-5.6
					C416.3,210.3,413.4,209.5,412.7,211.3z"/>
			</g>
		</g>
		<g>
			<circle fill="#DCE9FF" cx="420.9" cy="213.8" r="7"/>
			<g>
				<path d="M426.1,215.5c-2.4,6.6-12.6,3.4-10.5-3.4C417.8,205.2,427.8,208.7,426.1,215.5c-0.5,1.9,2.4,2.7,2.9,0.8
					c1.2-4.5-1.1-9.2-5.6-10.6c-4.4-1.3-9.3,1.2-10.6,5.6c-1.3,4.4,1.2,9.3,5.6,10.6c4.6,1.4,9-1.3,10.6-5.6
					C429.7,214.4,426.8,213.7,426.1,215.5z"/>
			</g>
		</g>
		<g>
			<circle fill="#DCE9FF" cx="434.2" cy="217.9" r="7"/>
			<g>
				<path d="M439.5,219.6c-2.4,6.6-12.6,3.4-10.5-3.4C431.1,209.4,441.2,212.8,439.5,219.6c-0.5,1.9,2.4,2.7,2.9,0.8
					c1.2-4.5-1.1-9.2-5.6-10.6c-4.4-1.3-9.3,1.2-10.6,5.6c-1.3,4.4,1.2,9.3,5.6,10.6c4.6,1.4,9-1.3,10.6-5.6
					C443,218.6,440.1,217.8,439.5,219.6z"/>
			</g>
		</g>
	</g>
</g>
<g>
	<g>
		<path fill="#FFFFFF" d="M119.8,322.2l1.2-0.4c14.2-4.4,19.6-24.3,12.7-42.5l-35.6-94.1C83,142.7,48,157.2,60.8,196.8l24.3,97.7
			C89.8,313.4,105.6,326.6,119.8,322.2z"/>
		<g>
			<path d="M120.5,324.6c19.4-6.1,21.6-29.5,15.6-46.1c-2.9-8-6.1-16-9.1-24c-8.8-23.2-17.6-46.3-26.3-69.6
				c-4.4-11.7-13-28.6-27.9-27.9c-15.9,0.7-18.5,20.2-16.4,32.3c1.5,8.6,4.3,17.4,6.4,25.9c3.6,14.4,7.2,28.8,10.8,43.2
				c3,11.9,5.9,23.7,8.9,35.6C86.6,310.4,100.9,330,120.5,324.6c3.1-0.9,1.8-5.7-1.3-4.8c-16.9,4.7-28.5-13.6-32-27.5
				c-2.3-9-4.5-18-6.7-27.1c-5.6-22.5-11-45-16.8-67.4c-2.6-10.2-6.8-25.8,3.2-33.6c13.3-10.4,25.4,12.3,28.9,21.6
				c7.4,19.5,14.8,39,22.1,58.6c4.1,11,8.3,21.9,12.4,32.9c5.4,14.3,6.9,36.8-11.2,42.4C116.1,320.7,117.4,325.5,120.5,324.6z"/>
		</g>
	</g>
	<g>
		<path fill="#32CCCC" d="M121.1,327.2l1.5-0.5c18.3-5.7,23.3-37.7,12.2-68.6L72,277.7C80.4,309.4,102.8,332.9,121.1,327.2z"/>
		<g>
			<path d="M121.7,329.6c28.5-8.9,23-50.7,15.4-72.1c-0.4-1.2-1.7-2.2-3.1-1.7c-20.9,6.5-41.8,13.1-62.7,19.6
				c-1.3,0.4-2.1,1.7-1.7,3.1c4.1,15,11.1,29.8,22.3,40.8C99.8,326.8,110.5,332.8,121.7,329.6c3.1-0.9,1.8-5.7-1.3-4.8
				c-10.3,2.9-20-3.8-26.7-11c-9.6-10.2-15.6-23.4-19.2-36.7c-0.6,1-1.2,2.1-1.7,3.1c20.9-6.5,41.8-13.1,62.7-19.6
				c-1-0.6-2.1-1.2-3.1-1.7c4.8,13.6,7.5,28.7,4.8,43c-1.9,10.1-6.4,19.7-16.8,22.9C117.3,325.7,118.6,330.6,121.7,329.6z"/>
		</g>
	</g>
	<g>
		<g>
			<circle fill="#DCE9FF" cx="107.6" cy="205.4" r="7"/>
			<g>
				<path d="M99.4,207.9c1.6,4.3,6,7,10.6,5.6c4.4-1.3,7-6.2,5.6-10.6c-1.3-4.4-6.2-7-10.6-5.6C100.5,198.7,98.3,203.4,99.4,207.9
					c0.5,1.9,3.4,1.1,2.9-0.8c-1.8-6.8,8.3-10.2,10.5-3.4c2.1,6.8-8,10-10.5,3.4C101.7,205.3,98.8,206.1,99.4,207.9z"/>
			</g>
		</g>
		<g>
			<circle fill="#DCE9FF" cx="94.2" cy="209.6" r="7"/>
			<g>
				<path d="M86.1,212.1c1.6,4.3,6,7,10.6,5.6c4.4-1.3,7-6.2,5.6-10.6c-1.3-4.4-6.2-7-10.6-5.6C87.2,202.8,84.9,207.6,86.1,212.1
					c0.5,1.9,3.4,1.1,2.9-0.8c-1.8-6.8,8.3-10.2,10.5-3.4c2.1,6.8-8,10-10.5,3.4C88.3,209.5,85.4,210.3,86.1,212.1z"/>
			</g>
		</g>
		<g>
			<circle fill="#DCE9FF" cx="80.8" cy="213.8" r="7"/>
			<g>
				<path d="M72.7,216.2c1.6,4.3,6,7,10.6,5.6c4.4-1.3,7-6.2,5.6-10.6c-1.3-4.4-6.2-7-10.6-5.6C73.8,207,71.6,211.8,72.7,216.2
					c0.5,1.9,3.4,1.1,2.9-0.8c-1.8-6.8,8.3-10.2,10.5-3.4c2.1,6.8-8,10-10.5,3.4C74.9,213.7,72,214.4,72.7,216.2z"/>
			</g>
		</g>
		<g>
			<circle fill="#DCE9FF" cx="67.5" cy="217.9" r="7"/>
			<g>
				<path d="M59.3,220.4c1.6,4.3,6,7,10.6,5.6c4.4-1.3,7-6.2,5.6-10.6c-1.3-4.4-6.2-7-10.6-5.6C60.4,211.2,58.2,216,59.3,220.4
					c0.5,1.9,3.4,1.1,2.9-0.8c-1.8-6.8,8.3-10.2,10.5-3.4c2.1,6.8-8,10-10.5,3.4C61.6,217.8,58.7,218.6,59.3,220.4z"/>
			</g>
		</g>
	</g>
</g>
<path fill="#FFFFFF" d="M391.7,357.2c-0.3-6.5-2.8-19.4-5.8-34.4l-0.1-0.5c-3.2-16-6.9-35.9-7.1-44.6c-0.1-5.4,0.3-13.2,0.3-21.4
	v-0.4c0-16.9-0.1-40.1-1.7-55.3c-1.3-12.5-6.1-44-20.8-67.6c-13.6-21.8-30.2-35.9-51.9-44.7c-19.9-8-56.3-8.9-57.3-8.9
	c-9.3,0-33.2,0.8-53,8.8c-21.7,8.8-38.1,23-51.8,44.8c-14.7,23.5-19.4,55.1-20.7,67.6c-1.6,15.2-1.5,38.4-1.3,55.3l0,3.9
	c0,6.8,0,13.3-0.1,17.9c-0.2,8.8-4.2,28.6-7.4,44.6l-0.2,0.6c-3,14.9-5.5,27.8-5.8,34.3c-0.6,16.6,4.1,27.8,16.1,38.7
	c7.7,7,15.2,10.2,23.4,10.2c4.5,0,8.5-0.9,12.8-2c1.2-0.3,2.4-0.7,3.7-1.2c4.4,2.4,12.6,6,23.5,6c7.1,0,15.3-1.5,24.2-5.8
	c5.1,4.2,10.5,8.2,10.5,8.2c13.9,7.9,25.9,9.6,27.7,9.6h0.4c1.8,0,13.8-1.1,28.2-9.6c0,0,4.7-3.4,9.5-7.3c8.3,3.7,15.9,5,22.5,5
	c11.8,0,20.5-4.2,24.5-6.6c1.9,0.8,3.6,1.4,5.3,1.8c4.4,1.1,8.4,2,12.8,2c8.4,0,15.6-3.2,23.4-10.2
	C387.7,385.1,392.3,373.9,391.7,357.2z"/>
<path fill="#1F929B" stroke="#000000" stroke-miterlimit="10" d="M375.5,395.9c-6.6,6.3-12.2,9-18.8,9c-3.7,0-7.2-0.8-11.4-1.9
	c-2.2-0.6-5-1.9-8.4-3.5l-0.6-0.3c-7.7-3.7-18.3-8.7-28.3-8.7c-6.9,0-12.4,2.4-17.1,7.4c-12,13.1-24,18.4-31.9,20.4
	c-0.2,0.1-7.8,2.3-16.7-0.4c-8.9-2.6-21-7.1-33-20.1c-4.5-4.9-10.1-7.3-17.1-7.3c-9.9,0-20.4,4.9-28.3,8.6l-0.3,0.2
	c-3.6,1.7-6.4,3-8.7,3.6c-4.2,1.1-7.6,1.9-11.4,1.9c-6.5,0-12.4-2.8-18.9-9c-10.8-10.4-14.5-20.1-14-36
	c98.1,12.1,191.2,12.3,278.9-0.4c0,0.1,0,0.3,0,0.4C390.1,375.8,386.2,385.6,375.5,395.9z"/>
<path fill="#32CCCC" stroke="#000000" stroke-miterlimit="10" d="M389.4,360.5c-87.7,11.8-181.5,11.6-278.9,0.4v0
	c0-6,2.9-18.9,5.9-33.8l0.2-0.6c3.5-17.4,7.6-37.2,7.9-46.9c0.1-4.2,0.1-9.7,0.1-15.6c88.6,11.2,172.7,11.3,252-0.4
	c-0.2,6.1-0.5,11.8-0.5,16c0.3,9.6,4,29.4,7.6,46.8l-0.1,0.6C386.6,341.7,389.1,354.4,389.4,360.5z"/>
<path fill="#C8C8C8" d="M288.4,401.1c0,0,8.6-6.5,18.1-7.6c9.5-1.1,25.7,5.9,25.7,5.9s-5.3,10.8-15.4,10.5S288.4,401.1,288.4,401.1z
	"/>
<path fill="#C8C8C8" d="M163.1,401.1c0,0,8.6-6.5,18.1-7.6c9.5-1.1,25.7,5.9,25.7,5.9s-5.3,10.8-15.4,10.5
	C181.4,409.8,163.1,401.1,163.1,401.1z"/>
<path d="M395.4,359.6c-0.3-6.6-2.9-19.8-5.9-35.1l-0.1-0.6c-3.3-16.3-6.8-36.6-7-45.5c-0.1-5.6,0.6-13.5,0.6-21.9v-0.4
	c0-17.3-0.4-40.9-2-56.5c-1.3-12.7-6.4-44.9-21.4-69c-13.9-22.3-30.9-36.7-53-45.6c-20.3-8.2-57.5-9.1-58.6-9.1
	c-9.5,0-33.9,0.8-54.2,9c-22.1,9-39,23.5-52.9,45.7c-15,24-19.8,56.3-21.1,69c-1.7,15.6-1.5,39.2-1.4,56.5l0,4c0,7,0,13.5-0.1,18.3
	c-0.2,9-4.3,29.2-7.6,45.5l-0.2,0.7c-3,15.3-5.7,28.4-5.9,35c-0.6,17,4.1,28.4,16.4,39.5c7.9,7.1,15.5,10.4,23.9,10.4
	c4.6,0,8.6-0.9,13.1-2c1.2-0.3,2.5-0.7,3.8-1.2c4.4,2.5,12.9,6.1,24,6.1c7.2,0,15.6-1.5,24.8-5.9c5.3,4.3,10.7,8,10.8,8.1
	c14.2,8.1,26.5,9.5,28.3,9.5h0.4c1.8,0,14-0.8,28.8-9.5c0,0,4.8-3.3,9.7-7.3c8.5,3.8,16.2,5.2,23,5.2c12.1,0,21-4.3,25-6.7
	c1.9,0.8,3.7,1.4,5.4,1.8c4.5,1.1,8.5,2,13.1,2c8.6,0,15.9-3.2,23.9-10.4C391.3,388,396.1,376.5,395.4,359.6z M171.4,402.3
	c6.5-2.8,14.7-6,21.7-6c4.7,0,8.2,1.4,11.2,4.4l0.2,0.2C190.3,406.8,178.7,404.9,171.4,402.3z M295.1,401.7c0.3-0.3,0.6-0.6,0.9-0.9
	c3.1-3.1,6.5-4.5,11.2-4.5c6.6,0,14.1,2.7,20.4,5.4C320.7,404.5,309.2,406.9,295.1,401.7z M373.7,393.2c-6.5,5.9-12,8.4-18.6,8.4
	c-3.6,0-7.1-0.8-11.2-1.8c-2.2-0.5-4.9-1.7-8.3-3.2l-0.6-0.3c-7.6-3.4-18.1-8-27.9-8c-6.8,0-12.3,2.2-16.8,6.8
	c-11.9,12.1-23.7,17-31.5,18.9c-0.2,0.1-7.7,2.1-16.5-0.3c-8.8-2.4-20.7-6.6-32.5-18.6c-4.5-4.6-10-6.8-16.8-6.8
	c-9.7,0-20.1,4.6-27.9,8l-0.3,0.2c-3.5,1.6-6.3,2.8-8.6,3.4c-4.1,1-7.5,1.8-11.2,1.8c-6.5,0-12.2-2.6-18.6-8.4
	c-10.6-9.6-14.4-18.7-13.8-33.4c0.2-6,2.8-18.9,5.8-33.8l0.1-0.7c3.5-17.4,7.5-37.2,7.7-46.9c0.1-4.9,0.1-11.5,0.1-18.5l0-4
	c-0.1-17.1-0.3-40.5,1.3-55.6c1.3-12.2,5.8-43,20-65.6c13-20.8,28.6-34.3,49.1-42.6c19-7.7,42.1-8.8,51.2-8.8
	c0.8,0,36.5,0.9,55.5,8.5c20.5,8.3,36.1,22,49.1,42.8c14.2,22.7,19.2,53.5,20.5,65.7c1.6,15.1,1.9,38.6,1.9,55.7v0.4
	c0,8.4-0.7,16.4-0.5,22.1c0.3,9.6,4,29.4,7.5,46.9l0,0.6c3,15,5.5,27.9,5.7,33.9C388.2,374.6,384.4,383.6,373.7,393.2z"/>
<path d="M330.2,187.3c0,11.4-9.3,20.7-20.7,20.7s-20.7-9.3-20.7-20.7c0-1,0.1-1.9,0.2-2.9c1.3,0.9,2.8,1.4,4.4,1.4
	c4.3,0,7.8-3.5,7.8-7.8c0-3.1-1.8-5.8-4.5-7c3.5-2.7,7.9-4.4,12.7-4.4C320.9,166.6,330.2,175.8,330.2,187.3z"/>
<path d="M211.2,187.3c0,11.4-9.3,20.7-20.7,20.7c-11.4,0-20.7-9.3-20.7-20.7c0-1,0.1-1.9,0.2-2.9c1.3,0.9,2.8,1.4,4.4,1.4
	c4.3,0,7.8-3.5,7.8-7.8c0-3.1-1.8-5.8-4.5-7c3.5-2.7,7.9-4.4,12.7-4.4C201.9,166.6,211.2,175.8,211.2,187.3z"/>
<ellipse transform="matrix(0.7169 -0.6971 0.6971 0.7169 -112.9338 175.5088)" fill="#F68694" cx="159.7" cy="226.8" rx="8" ry="3.6"/>
<ellipse transform="matrix(0.7169 -0.6971 0.6971 0.7169 -109.5173 186.4544)" fill="#F68694" cx="174.8" cy="228.1" rx="8" ry="3.6"/>
<ellipse transform="matrix(0.7169 -0.6971 0.6971 0.7169 -105.2185 197.0418)" fill="#F68694" cx="190" cy="228.1" rx="8" ry="3.6"/>
<ellipse transform="matrix(-0.7169 -0.6971 0.6971 -0.7169 425.8532 629.0911)" fill="#F68694" cx="340.6" cy="228.1" rx="8" ry="3.6"/>
<ellipse transform="matrix(-0.7169 -0.6971 0.6971 -0.7169 398.8955 620.6766)" fill="#F68694" cx="325.5" cy="229.4" rx="8" ry="3.6"/>
<ellipse transform="matrix(-0.7169 -0.6971 0.6971 -0.7169 372.8202 610.0892)" fill="#F68694" cx="310.3" cy="229.4" rx="8" ry="3.6"/>
<g>
	<g>
		<path d="M123,265c66.3,8.6,133.5,11.5,200.3,6c17.5-1.4,35-3.5,52.4-6.1c3.2-0.5,1.8-5.3-1.3-4.8c-64.1,9.6-129.3,10.8-193.9,5.9
			c-19.2-1.5-38.4-3.5-57.5-6C119.8,259.6,119.8,264.6,123,265L123,265z"/>
	</g>
</g>
<g>
	<g>
		<path d="M109,362c73.4,8.7,147.7,11.5,221.5,6c19.3-1.4,38.6-3.5,57.8-6.1c3.2-0.4,1.8-5.2-1.3-4.8c-70.7,9.6-142.4,10.8-213.6,6
			c-21.5-1.5-43-3.5-64.4-6.1C105.8,356.6,105.8,361.6,109,362L109,362z"/>
	</g>
</g>
<g>
	<ellipse fill="#993D3D" cx="247.8" cy="225.8" rx="11.2" ry="12.2"/>
	<g>
		<path d="M256.5,225.8c-0.2,4.8-3.4,9.7-8.7,9.7c-5.1,0-8.7-4.8-8.7-9.7c0-4.5,3.1-9.1,7.8-9.6
			C252.6,215.6,256.2,220.7,256.5,225.8c0.2,3.2,5.2,3.2,5,0c-0.4-7.5-5.5-14.7-13.7-14.7c-7.8,0-13.7,7.1-13.7,14.7
			c0,7.3,5.5,14.3,13.1,14.6c8.4,0.4,13.9-6.8,14.3-14.6C261.7,222.6,256.7,222.6,256.5,225.8z"/>
	</g>
</g>
<g>
	<g>
		<path d="M161.8,157.3c8.4-6.6,18.3-11.8,29.2-11.8c10.9,0,20.8,5.2,29.2,11.8c2.5,2,6.1-1.5,3.5-3.5c-9.5-7.5-20.4-13.2-32.8-13.2
			c-12.3,0-23.3,5.8-32.8,13.2C155.7,155.7,159.3,159.2,161.8,157.3L161.8,157.3z"/>
	</g>
</g>
<g>
	<g>
		<path d="M279.8,157.3c8.4-6.6,18.3-11.8,29.2-11.8c10.9,0,20.8,5.2,29.2,11.8c2.5,2,6.1-1.5,3.5-3.5c-9.5-7.5-20.4-13.2-32.8-13.2
			c-12.3,0-23.3,5.8-32.8,13.2C273.7,155.7,277.3,159.2,279.8,157.3L279.8,157.3z"/>
	</g>
</g>
<g>
	<g opacity="0.51">
		<path fill="#36CECA" d="M221.9,186.7c0,17.1-13.9,31-31,31s-31-13.9-31-31"/>
	</g>
	<g>
		<g>
			<path d="M219.4,186.7c-0.3,15.5-12.7,28.5-28.5,28.5c-15.8,0-28.1-12.9-28.5-28.5c-0.1-3.2-5.1-3.2-5,0
				c0.4,18.2,14.9,33.4,33.5,33.5c18.5,0,33.1-15.3,33.5-33.5C224.4,183.5,219.4,183.5,219.4,186.7L219.4,186.7z"/>
		</g>
	</g>
</g>
<g>
	<g opacity="0.51">
		<path fill="#36CECA" d="M340.9,186.7c0,17.1-13.9,31-31,31c-17.1,0-31-13.9-31-31"/>
	</g>
	<g>
		<g>
			<path d="M338.4,186.7c-0.3,15.5-12.7,28.5-28.5,28.5c-15.8,0-28.1-12.9-28.5-28.5c-0.1-3.2-5.1-3.2-5,0
				c0.4,18.2,14.9,33.4,33.5,33.5c18.5,0,33.1-15.3,33.5-33.5C343.4,183.5,338.4,183.5,338.4,186.7L338.4,186.7z"/>
		</g>
	</g>
</g>
<g>
	<g>
		<path d="M223.3,195.7c17.6-8.3,36.2-8.3,53.8,0c2.9,1.4,5.4-2.9,2.5-4.3c-19.4-9.1-39.5-9.1-58.9,0
			C217.8,192.7,220.4,197,223.3,195.7L223.3,195.7z"/>
	</g>
</g>
<g>
	<path fill="#A6FFFD" d="M219,271c0,39,61.7,39,61.7,0H219z"/>
	<g>
		<path d="M216.5,271.2c0.3,18.6,15.1,31.3,33.3,31.3c18.2,0,33.1-12.7,33.3-31.3c0-1.4-1.2-2.5-2.5-2.5c-20.6,0-41.1,0-61.7,0
			c-3.2,0-3.2,5,0,5c20.6,0,41.1,0,61.7,0c-0.8-0.8-1.7-1.7-2.5-2.5c-0.5,34.5-56.2,34.5-56.7,0C221.5,268,216.5,268,216.5,271.2z"
			/>
	</g>
</g>
<g>
	<path fill="#DCE9FF" d="M330.2,268c0,124-158.4,124-158.4,0h6.4c4.8,115,140.5,115,145.3,0H330.2z"/>
	<g>
		<path d="M328.7,268.4c-0.2,36.4-16.4,73.8-52.9,86.6c-29.8,10.5-63.6,0.7-83.2-24.1c-14-17.7-19.2-40.3-19.3-62.5
			c-0.5,0.5-1,1-1.5,1.5c2.1,0,4.3,0,6.4,0c-0.5-0.5-1-1-1.5-1.5c1.6,34.3,16.6,70.4,50.8,83.3c28.1,10.6,59.4,0.2,77.6-23.1
			c13.3-17.1,18.9-38.8,19.8-60.2c-0.5,0.5-1,1-1.5,1.5c2.2,0,4.5,0,6.7,0c1.9,0,1.9-3,0-3c-2.2,0-4.5,0-6.7,0
			c-0.8,0-1.5,0.7-1.5,1.5c-1.5,33.1-16.1,68.6-49.4,80.7c-27.1,9.9-56.9-0.3-74.2-22.9c-12.6-16.5-17.8-37.3-18.8-57.8
			c0-0.8-0.7-1.5-1.5-1.5c-2.1,0-4.3,0-6.4,0c-0.8,0-1.5,0.7-1.5,1.5c0.2,37.6,17,75.6,54.3,89.2c31.1,11.3,66.7,1,87.2-24.9
			c14.4-18.2,19.9-41.4,19.9-64.3C331.7,266.5,328.7,266.5,328.7,268.4z"/>
	</g>
</g>
<g>
	<g>
		<path fill="#DCE9FF" d="M305.8,270c0,73-111,73-111,0h4.5c3.3,66,98.5,66,101.8,0H305.8z"/>
		<g>
			<path d="M304.3,270.1c-0.2,23.7-13.7,44-36.8,50.9c-19.8,5.9-43.2,1.3-57.6-14c-9.5-10-13.5-23.4-13.6-36.9c-0.5,0.5-1,1-1.5,1.5
				c1.5,0,3,0,4.5,0c-0.5-0.5-1-1-1.5-1.5c1.3,22.2,14.1,41.5,35.7,48.3c19.1,6,41.4,1.2,55.2-13.6c8.9-9.5,13.1-21.9,13.9-34.7
				c-0.5,0.5-1,1-1.5,1.5c1.6,0,3.1,0,4.7,0c1.9,0,1.9-3,0-3c-1.6,0-3.1,0-4.7,0c-0.8,0-1.5,0.7-1.5,1.5
				c-1.2,21-13.4,39.3-33.9,45.5c-17.7,5.4-38.3,1.2-51.3-12.3c-8.7-9-12.8-21-13.6-33.3c0-0.8-0.6-1.5-1.5-1.5c-1.5,0-3,0-4.5,0
				c-0.8,0-1.5,0.7-1.5,1.5c0.2,24.9,14.4,46.3,38.6,53.7c21,6.4,46,1.4,61.2-14.9c9.8-10.6,14.1-24.5,14.2-38.7
				C307.3,268.2,304.3,268.2,304.3,270.1z"/>
		</g>
	</g>
	<g>
		<circle fill="#69B7B7" cx="250.5" cy="335.3" r="10.7"/>
		<g>
			<path d="M259.7,335.3c-0.6,11.7-18.3,11.8-18.3,0C241.3,323.5,259,323.6,259.7,335.3c0.1,1.9,3.1,1.9,3,0
				c-0.4-6.6-5.3-12.2-12.2-12.2c-6.6,0-12.2,5.6-12.2,12.2c0,6.4,5.2,11.8,11.6,12.1c7.1,0.3,12.4-5.3,12.7-12.1
				C262.8,333.4,259.8,333.4,259.7,335.3z"/>
		</g>
	</g>
</g>
<g>
	<g>
		<g>
			<path fill="#A6FFFD" d="M119.7,365.9c-1.6,7.1-7,12-12.1,10.9s-7.8-7.8-6.2-15C103,354.6,121.3,358.7,119.7,365.9z"/>
			<g>
				<path d="M118.3,365.5c-1.2,4.6-5.5,12.2-11.4,9.4c-3.9-1.8-6.3-10.3-3.4-13.8C106.2,357.5,119.1,360.1,118.3,365.5
					c-0.3,1.9,2.6,2.7,2.9,0.8c1.5-9.2-17.3-13.9-20.9-5.8c-2.5,5.7-0.1,15.3,6.2,17.5c7.5,2.6,13.1-5.4,14.7-11.7
					C121.6,364.4,118.7,363.6,118.3,365.5z"/>
			</g>
		</g>
		<g>
			<path fill="#A6FFFD" d="M137.3,371.1c-1.6,7.1-7,12-12.1,10.9s-7.8-7.8-6.2-15C120.6,359.9,138.9,364,137.3,371.1z"/>
			<g>
				<path d="M135.8,370.7c-1.2,4.6-5.5,12.2-11.4,9.4c-3.9-1.8-6.3-10.3-3.4-13.8C123.8,362.8,136.7,365.4,135.8,370.7
					c-0.3,1.9,2.6,2.7,2.9,0.8c1.5-9.2-17.3-13.9-20.9-5.8c-2.5,5.7-0.1,15.3,6.2,17.5c7.5,2.6,13.1-5.4,14.7-11.7
					C139.2,369.7,136.3,368.9,135.8,370.7z"/>
			</g>
		</g>
		<g>
			<path fill="#A6FFFD" d="M156.3,373.5c-0.8,7.3-5.6,12.7-10.7,12.2s-8.7-6.9-7.9-14.2S157.1,366.2,156.3,373.5z"/>
			<g>
				<path d="M154.9,373.1c-0.7,4.8-4.5,13.7-11,10.5c-3.6-1.7-6.9-9.8-4.2-13.3c2.8-3.6,15.3-2.3,15.1,3.2c-0.1,1.9,2.9,1.9,3,0
					c0.4-9.1-18.4-11.4-21.4-3.4c-2.2,5.9,1.5,15.3,7.9,16.9c7.8,1.9,12.5-6.7,13.4-13.1C158,372,155.2,371.2,154.9,373.1z"/>
			</g>
		</g>
		<g>
			<path fill="#A6FFFD" d="M174.8,376.2c-0.8,7.3-5.6,12.7-10.7,12.2c-5.1-0.6-8.7-6.9-7.9-14.2S175.6,368.9,174.8,376.2z"/>
			<g>
				<path d="M173.3,375.8c-0.7,4.8-4.5,13.7-11,10.5c-3.6-1.7-6.9-9.8-4.2-13.3c2.8-3.6,15.3-2.3,15.1,3.2c-0.1,1.9,2.9,1.9,3,0
					c0.4-9.1-18.4-11.4-21.4-3.4c-2.2,5.9,1.5,15.3,7.9,16.9c7.8,1.9,12.5-6.7,13.4-13.1C176.5,374.7,173.6,373.9,173.3,375.8z"/>
			</g>
		</g>
		<g>
			<path fill="#A6FFFD" d="M193.8,376.2c-0.2,7.3-4.5,13.2-9.6,13.1c-5.2-0.1-9.2-6.1-9.1-13.4C175.2,368.5,194,368.9,193.8,376.2z"
				/>
			<g>
				<path d="M192.3,376.2c-0.3,4.8-3.1,13-9.4,11.4c-4.1-1.1-8.4-9.4-5.8-13.2C179.6,370.8,192.1,370.7,192.3,376.2
					c0.1,1.9,3.1,1.9,3,0c-0.4-9.1-19.6-10.1-21.6-1.6c-1.5,6.1,2.8,15.1,9.4,16c8,1.2,11.9-8,12.2-14.5
					C195.4,374.3,192.4,374.3,192.3,376.2z"/>
			</g>
		</g>
	</g>
	<g>
		<g>
			<path fill="#A6FFFD" d="M381.1,365.9c1.6,7.1,7,12,12.1,10.9c5.1-1.1,7.8-7.8,6.2-15S379.5,358.7,381.1,365.9z"/>
			<g>
				<path d="M379.6,366.3c1.6,6.1,6.9,13.9,14.3,11.8c6.7-1.9,9.1-11.7,6.6-17.6C397,352.3,378.2,357.1,379.6,366.3
					c0.3,1.9,3.2,1.1,2.9-0.8c-0.9-5.5,11.9-7.8,14.9-4.4c1.5,1.7,1,5.6,0.6,7.6c-0.5,2.4-1.7,5-4.1,6.2c-5.9,3-10.3-4.9-11.4-9.4
					C382.1,363.6,379.2,364.4,379.6,366.3z"/>
			</g>
		</g>
		<g>
			<path fill="#A6FFFD" d="M363.5,371.1c1.6,7.1,7,12,12.1,10.9c5.1-1.1,7.8-7.8,6.2-15S361.9,364,363.5,371.1z"/>
			<g>
				<path d="M362.1,371.5c1.6,6.1,6.9,13.9,14.3,11.8c6.7-1.9,9.1-11.7,6.6-17.6C379.5,357.5,360.6,362.4,362.1,371.5
					c0.3,1.9,3.2,1.1,2.9-0.8c-0.9-5.5,11.9-7.8,14.9-4.4c1.5,1.7,1,5.6,0.6,7.6c-0.5,2.4-1.7,5-4.1,6.2c-5.9,3-10.3-4.9-11.4-9.4
					C364.5,368.9,361.6,369.7,362.1,371.5z"/>
			</g>
		</g>
		<g>
			<path fill="#A6FFFD" d="M344.5,373.5c0.8,7.3,5.6,12.7,10.7,12.2s8.7-6.9,7.9-14.2C362.3,364.2,343.7,366.2,344.5,373.5z"/>
			<g>
				<path d="M343,373.9c0.9,6.3,5.7,15,13.4,13.1c6.4-1.6,10.1-11,7.9-16.9c-3-8-21.8-5.7-21.4,3.4c0.1,1.9,3.1,1.9,3,0
					c-0.2-5.6,12.2-6.8,15.1-3.2c2.8,3.5-0.6,11.6-4.2,13.3c-6.4,3.2-10.3-5.8-11-10.5C345.6,371.2,342.7,372,343,373.9z"/>
			</g>
		</g>
		<g>
			<path fill="#A6FFFD" d="M326,376.2c0.8,7.3,5.6,12.7,10.7,12.2c5.1-0.6,8.7-6.9,7.9-14.2C343.9,366.9,325.2,368.9,326,376.2z"/>
			<g>
				<path d="M324.6,376.6c0.9,6.3,5.7,15,13.4,13.1c6.4-1.6,10.1-11,7.9-16.9c-3-8-21.8-5.7-21.4,3.4c0.1,1.9,3.1,1.9,3,0
					c-0.2-5.6,12.2-6.8,15.1-3.2c2.8,3.5-0.6,11.6-4.2,13.3c-6.4,3.2-10.3-5.8-11-10.5C327.2,373.9,324.3,374.7,324.6,376.6z"/>
			</g>
		</g>
		<g>
			<path fill="#A6FFFD" d="M307,376.2c0.2,7.3,4.5,13.2,9.6,13.1c5.2-0.1,9.2-6.1,9.1-13.4C325.5,368.5,306.8,368.9,307,376.2z"/>
			<g>
				<path d="M305.5,376.2c0.3,6.4,4.1,15.4,12,14.5c6.7-0.8,11.1-9.9,9.6-16C324.9,366.2,305.8,367,305.5,376.2
					c-0.1,1.9,2.9,1.9,3,0c0.2-5.5,12.8-5.4,15.2-1.8c2.5,3.7-1.5,11.4-5.2,12.9c-6.6,2.6-9.8-6.2-10-11.1
					C308.4,374.3,305.4,374.3,305.5,376.2z"/>
			</g>
		</g>
	</g>
	<g>
		<g>
			<path fill="#32CCCC" d="M294.5,270.5c28.7-1.2,56.9-3.9,84.5-8l21.1,99.4c-29.9,8.1-60.6,15.5-93.4,14.4L294.5,270.5z"/>
			<g>
				<path d="M294.5,273c28.5-1.3,56.9-3.9,85.1-8.1c-1-0.6-2.1-1.2-3.1-1.7c6.2,28.9,12.3,57.9,18.5,86.8c0.9,4.2,1.8,8.4,2.7,12.5
					c0.6-1,1.2-2.1,1.7-3.1c-30.3,8.2-61.1,15.3-92.7,14.3c0.8,0.8,1.7,1.7,2.5,2.5c-3.6-30.8-7.1-61.6-10.7-92.4
					c-0.5-4.4-1-8.9-1.5-13.3c-0.4-3.2-5.4-3.2-5,0c3.6,30.8,7.1,61.6,10.7,92.4c0.5,4.4,1,8.9,1.5,13.3c0.2,1.4,1,2.5,2.5,2.5
					c32.1,1,63.3-6.2,94-14.5c1.4-0.4,2-1.8,1.7-3.1c-6.2-28.9-12.3-57.9-18.5-86.8c-0.9-4.2-1.8-8.4-2.7-12.5
					c-0.3-1.4-1.8-1.9-3.1-1.7c-27.8,4.1-55.8,6.7-83.8,8C291.3,268.2,291.3,273.2,294.5,273z"/>
			</g>
		</g>
		<g>
			<path fill="#32CCCC" d="M207.1,270.5c-28.7-1.2-56.9-3.9-84.5-8l-21.1,99.4c29.9,8.1,60.6,15.5,93.4,14.4L207.1,270.5z"/>
			<g>
				<path d="M207.1,268c-28.1-1.2-56-3.8-83.8-8c-1.3-0.2-2.8,0.3-3.1,1.7c-6.2,28.9-12.3,57.9-18.5,86.8c-0.9,4.2-1.8,8.4-2.7,12.5
					c-0.3,1.3,0.4,2.7,1.7,3.1c30.8,8.3,62,15.5,94,14.5c1.5,0,2.3-1.1,2.5-2.5c3.6-30.8,7.1-61.6,10.7-92.4c0.5-4.4,1-8.9,1.5-13.3
					c0.4-3.2-4.6-3.2-5,0c-3.6,30.8-7.1,61.6-10.7,92.4c-0.5,4.4-1,8.9-1.5,13.3c0.8-0.8,1.7-1.7,2.5-2.5
					c-31.6,1-62.4-6.1-92.7-14.3c0.6,1,1.2,2.1,1.7,3.1c6.2-28.9,12.3-57.9,18.5-86.8c0.9-4.2,1.8-8.4,2.7-12.5
					c-1,0.6-2.1,1.2-3.1,1.7c28.2,4.2,56.6,6.9,85.1,8.1C210.3,273.2,210.3,268.2,207.1,268z"/>
			</g>
		</g>
		<g>
			<g>
				<circle fill="#A6FFFD" cx="155.8" cy="300.2" r="20.8"/>
				<g>
					<path d="M175.1,302.2c-1.5,10.1-9.8,17.8-20.3,17.3c-11-0.6-19.4-10.6-18.1-21.5c1.2-10.5,10.9-18.2,21.4-17
						c10.8,1.3,17.9,11,17,21.6c-0.2,1.9,2.8,1.9,3,0c1-12.1-7.5-23.3-19.8-24.6c-12-1.3-23.2,7.6-24.6,19.6
						c-1.4,12,7.3,23.2,19.4,24.8c12.3,1.6,23.1-7.3,25-19.3C178.3,301.1,175.4,300.3,175.1,302.2z"/>
				</g>
			</g>
			<g>
				<line fill="#A6FFFD" x1="158.1" y1="279.7" x2="153.3" y2="320.8"/>
				<g>
					<path d="M156.6,279.7c-1.6,13.7-3.2,27.4-4.8,41.2c-0.2,1.9,2.8,1.9,3,0c1.6-13.7,3.2-27.4,4.8-41.2
						C159.8,277.8,156.8,277.8,156.6,279.7L156.6,279.7z"/>
				</g>
			</g>
			<g>
				<line fill="#A6FFFD" x1="155.5" y1="302.7" x2="141.3" y2="314"/>
				<g>
					<path d="M154.5,301.6c-4.8,3.8-9.5,7.5-14.3,11.3c-1.5,1.2,0.6,3.3,2.1,2.1c4.8-3.8,9.5-7.5,14.3-11.3
						C158.1,302.6,156,300.5,154.5,301.6L154.5,301.6z"/>
				</g>
			</g>
			<g>
				<line fill="#A6FFFD" x1="155.4" y1="302.7" x2="166.7" y2="316.9"/>
				<g>
					<path d="M154.4,303.8c3.8,4.8,7.5,9.5,11.3,14.3c1.2,1.5,3.3-0.6,2.1-2.1c-3.8-4.8-7.5-9.5-11.3-14.3
						C155.3,300.1,153.2,302.3,154.4,303.8L154.4,303.8z"/>
				</g>
			</g>
		</g>
	</g>
</g>
<g>
	<path fill="#32CCCC" d="M357.8,129.3H142.3c7.2-11.6,17.5-22.4,32.3-32h150.7c7.4,4.8,14,10.4,19.9,16.7
		C349.8,118.8,353.9,123.9,357.8,129.3z"/>
	<g>
		<path d="M357.8,126.8c-24.3,0-48.6,0-72.9,0c-38.7,0-77.4,0-116,0c-8.8,0-17.7,0-26.5,0c0.7,1.3,1.4,2.5,2.2,3.8
			c3.7-5.9,8-11.3,12.9-16.2c2.5-2.5,5.1-4.8,7.8-7c1.6-1.3,3.2-2.6,4.9-3.8c1.2-0.9,3.5-3.3,4.6-3.7c1.6-0.6,4.6,0,6.3,0
			c12.7,0,25.4,0,38,0c31.7,0,63.4,0,95.1,0c3,0,7.9-1,10.8,0c0.5,0.2,0.2,0.4,0.7,0.6c4.1,1.9,7.8,5.7,11.1,8.7
			c7.1,6.4,13.3,13.7,18.9,21.5c1.9,2.6,6.2,0.1,4.3-2.5c-4.6-6.5-9.6-12.7-15.2-18.3c-2.9-2.9-5.9-5.6-9-8.1
			c-2.7-2.1-6-5.5-9.3-6.6c-2-0.7-4.6-0.2-6.6-0.2c-13.3,0-26.7,0-40,0c-32.5,0-64.9,0-97.4,0c-2.5,0-5.9-0.6-8.3,0.1
			c-3.4,1-7,4.6-9.7,6.8c-3.2,2.5-6.3,5.2-9.3,8c-5.7,5.5-10.6,11.7-14.8,18.3c-1,1.6,0.3,3.8,2.2,3.8c24.3,0,48.6,0,72.9,0
			c38.7,0,77.4,0,116,0c8.8,0,17.7,0,26.5,0C361,131.8,361,126.8,357.8,126.8z"/>
	</g>
</g>
<g>
	<path fill="#32CCCC" d="M153.4,116.8c0,0,58.1,1.3,66.1,1.3"/>
	<g>
		<path d="M153.4,118.3c22,0.5,44.1,1.2,66.1,1.3c1.9,0,1.9-3,0-3c-22,0-44.1-0.8-66.1-1.3C151.4,115.2,151.4,118.2,153.4,118.3
			L153.4,118.3z"/>
	</g>
</g>
<g>
	<path fill="#32CCCC" d="M165,106.5c0,0,33.3,1.5,37.5,1.5"/>
	<g>
		<path d="M165,108c12.5,0.6,25,1.4,37.5,1.5c1.9,0,1.9-3,0-3c-12.5-0.1-25-0.9-37.5-1.5C163.1,104.9,163.1,107.9,165,108L165,108z"
			/>
	</g>
</g>
<g>
	<path fill="#32CCCC" d="M253.5,110.5c0,0,65.5-0.3,83.5-1.8"/>
	<g>
		<path d="M253.5,112c27.8-0.1,55.8,0.5,83.5-1.8c1.9-0.2,1.9-3.2,0-3c-27.7,2.2-55.7,1.6-83.5,1.8C251.6,109,251.6,112,253.5,112
			L253.5,112z"/>
	</g>
</g>
</svg>
