<?xml version="1.0" encoding="utf-8"?>
<!-- Generator: Adobe Illustrator 18.1.1, SVG Export Plug-In . SVG Version: 6.00 Build 0)  -->
<svg version="1.1" id="Layer_1" xmlns="http://www.w3.org/2000/svg" xmlns:xlink="http://www.w3.org/1999/xlink" x="0px" y="0px"
	 viewBox="0 0 500 500" enable-background="new 0 0 500 500" xml:space="preserve">
<g>
	<g>
		<path fill="#FFFFFF" d="M74.4,304.5l30.4-39.7c9.3-12.1,26.8-14.5,38.9-5.2l0,0c12.1,9.3,14.5,26.8,5.2,38.9l-30.4,39.7"/>
	</g>
	<path d="M76.6,305.8c5.5-7.1,10.9-14.3,16.4-21.4c3.5-4.6,7-9.2,10.5-13.8c2.6-3.4,5-6.9,8.6-9.4c17.5-12.6,42.3,2,39.9,23.5
		c-1.2,10.3-10.2,19.1-16.2,27c-6.4,8.4-12.9,16.9-19.3,25.3c-2,2.6,2.4,5,4.3,2.5c6.4-8.4,12.9-16.9,19.3-25.3
		c7-9.1,16-18.2,17-30.2c1.6-19.1-15.6-34.9-34.4-32.2c-13.6,2-20.5,12.5-28.1,22.5c-7.4,9.7-14.8,19.3-22.1,29
		C70.3,305.8,74.7,308.3,76.6,305.8L76.6,305.8z"/>
	<path fill="#F24C36" d="M117.8,340.5c-3,5.4-7.4,13.6-13.9,12.9c1.3,5.8,0.2,12.1-3,17.5c-6.4,9.7-12.4,23.6-24.9,26.4
		c-7.8,1.8-14.3-1.1-20.7-5.4c-5.2-3.5-10.9-6.7-15.7-10.7c-7.8-6.6-10.2-18.1-5.8-27.3c2.6-5.5,6.6-10.4,9.9-15.5
		c4.5-6.8,9.4-12.4,17.9-13.7c0.2,0,0.4-0.1,0.6-0.1c-1-2.9,0-6.1,1.9-9c2.1-3.2,4.2-8,7.5-10.1c5.9-3.8,12,2.1,16.6,5.3
		c7.5,5,14.9,10,22.4,15.1C115.8,329.3,121.8,333.3,117.8,340.5z"/>
	<g>
		<g>
			<g>
				<path d="M60.8,391.7c-3.9-2.6-7.9-5.2-11.8-7.8c-5.3-3.5-10.7-6.6-13.1-12.8c-4.6-12.2,6.7-24.5,13.2-33.9
					c5.1-7.4,14.2-10.8,22.8-7.3c4.7,1.9,8.9,5.5,13.1,8.3c4.6,3.1,10.2,5.9,13.3,10.7c4.7,7.2,3.2,15.2-1.3,22
					C93.7,375.9,90.4,381,87,386C80.9,394.8,70,397.5,60.8,391.7c-2.7-1.7-5.3,2.6-2.5,4.3c8.6,5.3,19.6,5.1,27.6-1.3
					c5.3-4.2,8.7-11.1,12.4-16.6c4.2-6.3,8.4-12.2,8-20.1c-0.4-8.4-4.9-14.9-11.7-19.5c-12.3-8.3-26.3-20.9-41.7-11.7
					c-5.9,3.5-9.2,9.7-12.9,15.2c-3.9,5.8-8.8,11.7-9.9,18.9c-2.8,18.5,15.5,26.7,28.2,35.2C60.9,397.8,63.4,393.5,60.8,391.7z"/>
			</g>
		</g>
		<g>
			<g>
				<path d="M71.5,354.1c7.5,5,16.4,9.4,18,19.3c2.5,15.6-15,26.8-28.3,18.7c-6-3.6-11.8-7.6-17.5-11.6c-12-8.3-11.7-25.5,1.3-32.7
					c2.8-1.6,0.3-5.9-2.5-4.3c-10.9,6-15.9,19.2-10.6,30.8c3.8,8.5,12.8,12.9,20.2,17.8c8.1,5.4,16.2,10,26.3,6.6
					c11.6-3.8,18.4-16.1,15.7-27.9c-2.5-10.6-11.7-15.4-20-21C71.4,347.9,68.9,352.3,71.5,354.1L71.5,354.1z"/>
			</g>
		</g>
		<g>
			<g>
				<path d="M76.8,342.3c-1.5,5.9-5.9,7.8-10.7,10.5c-5.5,3.1-12.1,4-16.3-2c-7.4-10.6,5.3-22.8,16-22.2c3.2,0.2,3.2-4.8,0-5
					c-14.9-0.8-30,16.4-20,30.3c4.9,6.8,13.9,8.1,21,4.2c6.5-3.5,12.8-6.8,14.8-14.5C82.4,340.5,77.6,339.2,76.8,342.3L76.8,342.3z"
					/>
			</g>
		</g>
		<g>
			<g>
				<path d="M68.3,324.1c-4.3-3.5,0.8-8.6,3-11.8c2-3,3.6-5.9,7.7-3.7c6,3.2,11.7,7.8,17.4,11.6c5.9,3.9,12.6,7.4,18,11.9
					c3.2,2.7,1.9,5.1-0.1,8.1c-2,3-5.1,10.5-9.8,8c-2.8-1.5-5.4,2.8-2.5,4.3c8.9,4.7,14.5-5.7,18.2-12.3c4.2-7.5-2.1-11.6-7.5-15.2
					c-7.8-5.2-15.7-10.4-23.5-15.7c-4.9-3.2-11.3-9.4-17.4-5.5c-3.4,2.2-5.7,7.2-7.9,10.5c-2.9,4.4-3.7,9.5,0.9,13.3
					C67.2,329.7,70.8,326.2,68.3,324.1L68.3,324.1z"/>
			</g>
		</g>
		<g>
			<g>
				<path d="M80.3,307.3c-3.8,5.7-7.6,11.4-11.3,17.1c-1.1,1.6,1.5,3.1,2.6,1.5c3.8-5.7,7.6-11.4,11.3-17.1
					C84,307.2,81.4,305.7,80.3,307.3L80.3,307.3z"/>
			</g>
		</g>
		<g>
			<g>
				<path d="M87.9,312.4c-3.8,5.7-7.6,11.4-11.3,17.1c-1.1,1.6,1.5,3.1,2.6,1.5c3.8-5.7,7.6-11.4,11.3-17.1
					C91.5,312.3,88.9,310.8,87.9,312.4L87.9,312.4z"/>
			</g>
		</g>
		<g>
			<g>
				<path d="M95.7,318.8c-3.8,5.7-7.6,11.4-11.3,17.1c-1.1,1.6,1.5,3.1,2.6,1.5c3.8-5.7,7.6-11.4,11.3-17.1
					C99.4,318.7,96.8,317.2,95.7,318.8L95.7,318.8z"/>
			</g>
		</g>
		<g>
			<g>
				<path d="M104.7,323.5c-3.8,5.7-7.6,11.4-11.3,17.1c-1.1,1.6,1.5,3.1,2.6,1.5c3.8-5.7,7.6-11.4,11.3-17.1
					C108.3,323.4,105.7,321.9,104.7,323.5L104.7,323.5z"/>
			</g>
		</g>
		<g>
			<g>
				<path d="M112.2,328.6c-3.8,5.7-7.6,11.4-11.3,17.1c-1.1,1.6,1.5,3.1,2.6,1.5c3.8-5.7,7.6-11.4,11.3-17.1
					C115.9,328.5,113.3,327,112.2,328.6L112.2,328.6z"/>
			</g>
		</g>
	</g>
</g>
<g>
	<g>
		<path fill="#FFFFFF" d="M425.8,304.5l-30.4-39.7c-9.3-12.1-26.8-14.5-38.9-5.2l0,0c-12.1,9.3-14.5,26.8-5.2,38.9l30.4,39.7"/>
	</g>
	<path d="M427.9,303.3c-6.4-8.4-12.9-16.9-19.3-25.3c-6.8-8.8-13.1-19.9-23.8-24.3c-18-7.3-38.5,4.5-41.3,23.6
		c-2,13.8,6.2,23.1,13.9,33.2c7.4,9.7,14.8,19.3,22.1,29c1.9,2.5,6.3,0,4.3-2.5c-5.5-7.1-10.9-14.3-16.4-21.4
		c-5.6-7.3-12.9-14.7-16.9-23.1c-9.5-19.8,10.4-41.8,31-34.7c10.3,3.5,16.4,14.5,22.7,22.7c6.4,8.4,12.9,16.9,19.3,25.3
		C425.5,308.3,429.9,305.8,427.9,303.3L427.9,303.3z"/>
	<path fill="#F24C36" d="M382.4,340.5c3,5.4,7.4,13.6,13.9,12.9c-1.3,5.8-0.2,12.1,3,17.5c6.4,9.7,12.4,23.6,24.9,26.4
		c7.8,1.8,14.3-1.1,20.7-5.4c5.2-3.5,10.9-6.7,15.7-10.7c7.8-6.6,10.2-18.1,5.8-27.3c-2.6-5.5-6.6-10.4-9.9-15.5
		c-4.5-6.8-9.4-12.4-17.9-13.7c-0.2,0-0.4-0.1-0.6-0.1c1-2.9,0-6.1-1.9-9c-2.1-3.2-4.2-8-7.5-10.1c-5.9-3.8-12,2.1-16.6,5.3
		c-7.5,5-14.9,10-22.4,15.1C384.4,329.3,378.4,333.3,382.4,340.5z"/>
	<g>
		<g>
			<g>
				<path d="M442,396.1c11-7.3,26.5-14.1,28.3-28.7c1-8.1-2.6-14.2-6.8-20.6c-3.4-5.1-6.5-10.8-10.5-15.4c-6.6-7.5-17.7-9.9-26.9-6
					c-6,2.6-11.5,7.2-16.9,10.8c-5.9,3.9-11.4,7.8-13.9,14.8c-2.9,8.2-0.7,16,3.9,22.9c4,5.9,7.5,12.7,12.3,18.1
					C419.3,400.8,432.2,402.1,442,396.1c2.7-1.7,0.2-6-2.5-4.3c-8.7,5.4-19.7,3.4-25.7-5c-2.9-4.1-5.6-8.5-8.4-12.7
					c-3.8-5.8-7.4-11.3-6-18.6c1.4-7.2,6.4-11,12.1-14.7c4.4-3,8.8-6,13.3-8.9c7.8-4.9,17.9-4.4,24.3,2.6c3.5,3.8,6.1,8.7,8.9,13
					c3.5,5.2,7.5,10.2,7.6,16.7c0.3,14.1-16,21-26.1,27.6C436.8,393.5,439.3,397.8,442,396.1z"/>
			</g>
		</g>
		<g>
			<g>
				<path d="M426.2,349.7c-7,4.6-15,8.7-18.5,16.7c-5,11.1-0.7,24.5,10,30.4c9.5,5.3,19.1,2.7,27.6-2.9c6.7-4.4,15.5-8.7,20.4-15.2
					c8.9-11.8,4.7-28.3-8-35.3c-2.8-1.6-5.3,2.8-2.5,4.3c13,7.2,13.4,24.4,1.3,32.7c-5.7,3.9-11.5,8-17.5,11.6
					c-13.3,8.1-30.8-3.1-28.3-18.7c1.5-9.9,10.5-14.3,18-19.3C431.4,352.3,428.8,347.9,426.2,349.7L426.2,349.7z"/>
			</g>
		</g>
		<g>
			<g>
				<path d="M418.6,343.7c2,7.7,8.3,11.1,14.8,14.5c7.2,3.8,16.1,2.6,21-4.2c10-13.9-5.1-31.1-20-30.3c-3.2,0.2-3.2,5.2,0,5
					c10.7-0.6,23.4,11.5,16,22.2c-4,5.8-10.6,5.3-16,2.2c-4.8-2.7-9.5-4.8-11-10.7C422.6,339.2,417.8,340.5,418.6,343.7L418.6,343.7
					z"/>
			</g>
		</g>
		<g>
			<g>
				<path d="M435.5,327.6c7.6-6.2,0-15.5-4.4-21.2c-5.4-7.1-11.8-2.6-17.4,1.1c-7.9,5.2-15.8,10.5-23.6,15.7
					c-4.9,3.3-12.8,6.8-11.3,14c0.9,4,4.6,8,6.8,11.4c3.1,4.5,7.5,6.5,12.6,3.8c2.8-1.5,0.3-5.8-2.5-4.3c-4.7,2.5-7.8-5-9.8-8
					c-1.9-2.9-3.2-5.4-0.1-8.1c5.4-4.5,12.1-8,18-11.9c5.7-3.8,11.3-8.3,17.4-11.6c4.2-2.3,5.7,0.7,7.7,3.7c2.2,3.3,7.3,8.3,3,11.8
					C429.5,326.2,433,329.7,435.5,327.6L435.5,327.6z"/>
			</g>
		</g>
		<g>
			<g>
				<path d="M417.3,308.8c3.8,5.7,7.6,11.4,11.3,17.1c1.1,1.6,3.7,0.1,2.6-1.5c-3.8-5.7-7.6-11.4-11.3-17.1
					C418.8,305.7,416.2,307.2,417.3,308.8L417.3,308.8z"/>
			</g>
		</g>
		<g>
			<g>
				<path d="M409.7,313.9c3.8,5.7,7.6,11.4,11.3,17.1c1.1,1.6,3.7,0.1,2.6-1.5c-3.8-5.7-7.6-11.4-11.3-17.1
					C411.3,310.8,408.7,312.3,409.7,313.9L409.7,313.9z"/>
			</g>
		</g>
		<g>
			<g>
				<path d="M401.9,320.3c3.8,5.7,7.6,11.4,11.3,17.1c1.1,1.6,3.7,0.1,2.6-1.5c-3.8-5.7-7.6-11.4-11.3-17.1
					C403.4,317.2,400.8,318.7,401.9,320.3L401.9,320.3z"/>
			</g>
		</g>
		<g>
			<g>
				<path d="M392.9,325c3.8,5.7,7.6,11.4,11.3,17.1c1.1,1.6,3.7,0.1,2.6-1.5c-3.8-5.7-7.6-11.4-11.3-17.1
					C394.5,321.9,391.9,323.4,392.9,325L392.9,325z"/>
			</g>
		</g>
		<g>
			<g>
				<path d="M385.4,330.1c3.8,5.7,7.6,11.4,11.3,17.1c1.1,1.6,3.7,0.1,2.6-1.5c-3.8-5.7-7.6-11.4-11.3-17.1
					C386.9,327,384.3,328.5,385.4,330.1L385.4,330.1z"/>
			</g>
		</g>
	</g>
</g>
<path fill="#FFFFFF" d="M391.7,357.2c-0.3-6.5-2.8-19.4-5.8-34.4l-0.1-0.5c-3.2-16-6.9-35.9-7.1-44.6c-0.1-5.4,0.3-13.2,0.3-21.4
	v-0.4c0-16.9-0.1-40.1-1.7-55.3c-1.3-12.5-6.1-44-20.8-67.6c-13.6-21.8-30.2-35.9-51.9-44.7c-19.9-8-56.3-8.9-57.3-8.9
	c-9.3,0-33.2,0.8-53,8.8c-21.7,8.8-38.1,23-51.8,44.8c-14.7,23.5-19.4,55.1-20.7,67.6c-1.6,15.2-1.5,38.4-1.3,55.3l0,3.9
	c0,6.8,0,13.3-0.1,17.9c-0.2,8.8-4.2,28.6-7.4,44.6l-0.2,0.6c-3,14.9-5.5,27.8-5.8,34.3c-0.6,16.6,4.1,27.8,16.1,38.7
	c7.7,7,15.2,10.2,23.4,10.2c4.5,0,8.5-0.9,12.8-2c1.2-0.3,2.4-0.7,3.7-1.2c4.4,2.4,12.6,6,23.5,6c7.1,0,15.3-1.5,24.2-5.8
	c5.1,4.2,10.5,8.2,10.5,8.2c13.9,7.9,25.9,9.6,27.7,9.6h0.4c1.8,0,13.8-1.1,28.2-9.6c0,0,4.7-3.4,9.5-7.3c8.3,3.7,15.9,5,22.5,5
	c11.8,0,20.5-4.2,24.5-6.6c1.9,0.8,3.6,1.4,5.3,1.8c4.4,1.1,8.4,2,12.8,2c8.4,0,15.6-3.2,23.4-10.2
	C387.7,385.1,392.3,373.9,391.7,357.2z"/>
<path fill="#FFFFFF" d="M386.9,323.8l-0.1-0.5c-3.2-16-6.9-35.9-7.1-44.6c-0.1-5.4,0.3-13.2,0.3-21.4v-0.4c0-16.9-0.1-40.1-1.7-55.3
	c-1.3-12.5-6.1-44-20.8-67.6c-13.6-21.8-30.2-35.9-51.9-44.7c-19.9-8-56.3-8.9-57.3-8.9c-9.3,0-33.2,0.8-53,8.8
	c-21.7,8.8-38.1,23-51.8,44.8c-14.7,23.5-19.4,55.1-20.7,67.6c-1.6,15.2-1.5,38.4-1.3,55.3l0,3.9c0,6.8,0,13.3-0.1,17.9
	c-0.2,8.8-4.2,28.6-7.4,44.6l-0.2,0.6c-2.7,13.4-5,25.1-5.6,32.1"/>
<path fill="#EF7437" d="M123.5,266.8c0,0,17.5,10.3,71,17s25.6,6.7,63,5.3s64-7.2,75.8-10.7c11.8-3.5,44.5-13.8,44.5-13.8
	s1.1,21.8,4.6,39.8c3.5,18,9.4,39.7,9.4,39.7s-101.5,7.8-135,7.3S112.3,342,112.3,342S124.3,274,123.5,266.8z"/>
<path fill="#C8C8C8" d="M288.4,401.1c0,0,8.6-6.5,18.1-7.6c9.5-1.1,25.7,5.9,25.7,5.9s-5.3,10.8-15.4,10.5S288.4,401.1,288.4,401.1z
	"/>
<path fill="#D84B2A" d="M109.5,356c0,0-0.8,29.1,11.3,39.5s27.9,12.1,43.6,6.2c15.8-5.9,22.9-12.2,35-6.2s32.4,27.4,50,23.6
	s33.2-14.9,44.5-21.3c11.3-6.4,13.5-7,29-0.9s29.8,13.9,43.6,7.5s24.9-26.8,25.3-32.9c0.4-6.1-0.9-16.2-0.9-16.2s-111.5,6.5-121.8,7
	s-46.2-0.5-62.2,0S118.9,357.6,109.5,356z"/>
<path fill="#D84B2A" d="M111.3,355.3c0,0,47.7,5.9,89.3,6.4s58.5,1.6,96.2,0.3s92.7-6,92.7-6l-1.3-12c0.1,4.6-236.8,9-236.9,4.4
	c-18,0-38.5-4.4-38.5-4.4"/>
<path fill="#C8C8C8" d="M163.1,401.1c0,0,8.6-6.5,18.1-7.6c9.5-1.1,25.7,5.9,25.7,5.9s-5.3,10.8-15.4,10.5
	C181.4,409.8,163.1,401.1,163.1,401.1z"/>
<path d="M395.4,359.6c-0.3-6.6-2.9-19.8-5.9-35.1l-0.1-0.6c-3.3-16.3-6.8-36.6-7-45.5c-0.1-5.6,0.6-13.5,0.6-21.9v-0.4
	c0-17.3-0.4-40.9-2-56.5c-1.3-12.7-6.4-44.9-21.4-69c-13.9-22.3-30.9-36.7-53-45.6c-20.3-8.2-57.5-9.1-58.6-9.1
	c-9.5,0-33.9,0.8-54.2,9c-22.1,9-39,23.5-52.9,45.7c-15,24-19.8,56.3-21.1,69c-1.7,15.6-1.5,39.2-1.4,56.5l0,4c0,7,0,13.5-0.1,18.3
	c-0.2,9-4.3,29.2-7.6,45.5l-0.2,0.7c-3,15.3-5.7,28.4-5.9,35c-0.6,17,4.1,28.4,16.4,39.5c7.9,7.1,15.5,10.4,23.9,10.4
	c4.6,0,8.6-0.9,13.1-2c1.2-0.3,2.5-0.7,3.8-1.2c4.4,2.5,12.9,6.1,24,6.1c7.2,0,15.6-1.5,24.8-5.9c5.3,4.3,10.7,8,10.8,8.1
	c14.2,8.1,26.5,9.5,28.3,9.5h0.4c1.8,0,14-0.8,28.8-9.5c0,0,4.8-3.3,9.7-7.3c8.5,3.8,16.2,5.2,23,5.2c12.1,0,21-4.3,25-6.7
	c1.9,0.8,3.7,1.4,5.4,1.8c4.5,1.1,8.5,2,13.1,2c8.6,0,15.9-3.2,23.9-10.4C391.3,388,396.1,376.5,395.4,359.6z M171.4,402.3
	c6.5-2.8,14.7-6,21.7-6c4.7,0,8.2,1.4,11.2,4.4l0.2,0.2C190.3,406.8,178.7,404.9,171.4,402.3z M295.1,401.7c0.3-0.3,0.6-0.6,0.9-0.9
	c3.1-3.1,6.5-4.5,11.2-4.5c6.6,0,14.1,2.7,20.4,5.4C320.7,404.5,309.2,406.9,295.1,401.7z M373.7,393.2c-6.5,5.9-12,8.4-18.6,8.4
	c-3.6,0-7.1-0.8-11.2-1.8c-2.2-0.5-4.9-1.7-8.3-3.2l-0.6-0.3c-7.6-3.4-18.1-8-27.9-8c-6.8,0-12.3,2.2-16.8,6.8
	c-11.9,12.1-23.7,17-31.5,18.9c-0.2,0.1-7.7,2.1-16.5-0.3c-8.8-2.4-20.7-6.6-32.5-18.6c-4.5-4.6-10-6.8-16.8-6.8
	c-9.7,0-20.1,4.6-27.9,8l-0.3,0.2c-3.5,1.6-6.3,2.8-8.6,3.4c-4.1,1-7.5,1.8-11.2,1.8c-6.5,0-12.2-2.6-18.6-8.4
	c-10.6-9.6-14.4-18.7-13.8-33.4c0.2-6,2.8-18.9,5.8-33.8l0.1-0.7c3.5-17.4,7.5-37.2,7.7-46.9c0.1-4.9,0.1-11.5,0.1-18.5l0-4
	c-0.1-17.1-0.3-40.5,1.3-55.6c1.3-12.2,5.8-43,20-65.6c13-20.8,28.6-34.3,49.1-42.6c19-7.7,42.1-8.8,51.2-8.8
	c0.8,0,36.5,0.9,55.5,8.5c20.5,8.3,36.1,22,49.1,42.8c14.2,22.7,19.2,53.5,20.5,65.7c1.6,15.1,1.9,38.6,1.9,55.7v0.4
	c0,8.4-0.7,16.4-0.5,22.1c0.3,9.6,4,29.4,7.5,46.9l0,0.6c3,15,5.5,27.9,5.7,33.9C388.2,374.6,384.4,383.6,373.7,393.2z"/>
<path d="M330.2,187.3c0,11.4-9.3,20.7-20.7,20.7s-20.7-9.3-20.7-20.7c0-1,0.1-1.9,0.2-2.9c1.3,0.9,2.8,1.4,4.4,1.4
	c4.3,0,7.8-3.5,7.8-7.8c0-3.1-1.8-5.8-4.5-7c3.5-2.7,7.9-4.4,12.7-4.4C320.9,166.6,330.2,175.8,330.2,187.3z"/>
<path d="M211.2,187.3c0,11.4-9.3,20.7-20.7,20.7c-11.4,0-20.7-9.3-20.7-20.7c0-1,0.1-1.9,0.2-2.9c1.3,0.9,2.8,1.4,4.4,1.4
	c4.3,0,7.8-3.5,7.8-7.8c0-3.1-1.8-5.8-4.5-7c3.5-2.7,7.9-4.4,12.7-4.4C201.9,166.6,211.2,175.8,211.2,187.3z"/>
<path d="M243.2,237.4c14.5,7,30.2,2.5,39.1-10.8c2-3.1-2.9-5.9-5-2.8c-7,10.6-19.8,14.2-31.3,8.6
	C242.7,230.9,239.9,235.8,243.2,237.4L243.2,237.4z"/>
<ellipse transform="matrix(0.7169 -0.6971 0.6971 0.7169 -112.9338 175.5088)" fill="#F68694" cx="159.7" cy="226.8" rx="8" ry="3.6"/>
<ellipse transform="matrix(0.7169 -0.6971 0.6971 0.7169 -109.5173 186.4544)" fill="#F68694" cx="174.8" cy="228.1" rx="8" ry="3.6"/>
<ellipse transform="matrix(0.7169 -0.6971 0.6971 0.7169 -105.2185 197.0418)" fill="#F68694" cx="190" cy="228.1" rx="8" ry="3.6"/>
<ellipse transform="matrix(-0.7169 -0.6971 0.6971 -0.7169 425.8532 629.0911)" fill="#F68694" cx="340.6" cy="228.1" rx="8" ry="3.6"/>
<ellipse transform="matrix(-0.7169 -0.6971 0.6971 -0.7169 398.8955 620.6766)" fill="#F68694" cx="325.5" cy="229.4" rx="8" ry="3.6"/>
<ellipse transform="matrix(-0.7169 -0.6971 0.6971 -0.7169 372.8202 610.0892)" fill="#F68694" cx="310.3" cy="229.4" rx="8" ry="3.6"/>
<g>
	<g>
		<path d="M122.8,266.9c64,25.2,133.5,33.7,200.9,17.7c18.4-4.4,36.4-10.5,53.8-17.9c3-1.3,0.4-5.6-2.5-4.3
			c-61.3,26-128.3,32.3-193.3,17.7c-19.6-4.4-38.8-10.5-57.5-17.9C121.2,260.9,119.9,265.7,122.8,266.9L122.8,266.9z"/>
	</g>
</g>
<g>
	<g>
		<path d="M123.1,276.9c63.8,25.1,133.2,33.7,200.4,17.7c18.3-4.4,36.2-10.4,53.5-17.8c1.8-0.8,0.2-3.3-1.5-2.6
			C314,300.3,246.7,306.6,181.4,292c-19.6-4.4-38.8-10.5-57.5-17.9C122.1,273.3,121.3,276.2,123.1,276.9L123.1,276.9z"/>
	</g>
</g>
<g>
	<g>
		<path d="M112.3,346.5c71.1,6.5,142.7,7.9,214,4.3c20.7-1,41.4-2.5,62-4.3c3.2-0.3,3.2-5.3,0-5c-71.9,6.3-144.3,8-216.4,4.3
			c-19.9-1-39.8-2.5-59.6-4.3C109,341.2,109.1,346.2,112.3,346.5L112.3,346.5z"/>
	</g>
</g>
<path fill="#F24C36" d="M391.2,166.4c0,4.3,0.9,9.8-0.9,13.8c-2.4,5.3-8.4,7.5-13.4,6.1v0.2c0,1.8,0.2,3.5,0.1,5.3
	c-0.6,12.9-16.6,17-22.2,5c-1.3-2.8-0.8-5.9-0.8-8.9l0.5-35.9H145.9l0.1,26.4c0,6.9,1.4,18-4.2,23.4c-8.4,8.2-17.4,0.6-17.8-10.5
	c-0.1-1.6-0.2-3.2-0.2-4.8c-5.1,1-10.4-1.2-12.7-6.3c-1.8-4-0.9-9.6-0.9-13.8c0-4.2-0.8-9.5,0.5-13.6c1.7-5.6,6.9-8.1,12.2-7.5
	c-1.9-2.2-3.2-4.8-4-7.6c-1.4-4.8-0.9-10.3-0.8-15.2c0.4-12.2,10.1-21.2,22.6-21.4c12.8-0.2,25.7,0,38.6,0h146
	c11.7,0,23.5-0.3,35.2,0c13.8,0.4,22.1,10.8,22.1,23.5c0,6.1,0.4,12.1-2.7,17.6c-0.7,1.2-1.4,2.2-2.3,3.2c0,0,0,1.5,0,1.5
	c5.6-1.2,11.6-0.2,13.4,5.8C392,156.9,391.2,162.1,391.2,166.4z"/>
<g>
	<g>
		<path d="M362.8,148.3c-32.1,0-64.2,0-96.3,0c-41,0-82,0-123,0c-4.4,0-8.8,0.4-13-1.4c-8.2-3.5-10.7-11.1-10.7-19.3
			c0-7.1-0.3-13.9,5.1-19.4c4.9-4.9,10.8-5.1,17-5.1c6.1,0,12.2,0,18.3,0c46.1,0,92.2,0,138.2,0c18.1,0,36.2,0,54.3,0
			c3.3,0,6.6-0.1,9.8,0c7.4,0.2,14,4.5,16.6,11.6c1.7,4.8,1.2,11,1,16C380,140.4,372.7,147.9,362.8,148.3c-3.2,0.1-3.2,5.1,0,5
			c8.2-0.3,15.7-4.4,19.7-11.7c3.2-5.9,2.8-12.2,2.8-18.6c0-13.4-8.6-24.5-22.6-24.9c-12-0.3-24,0-36,0c-49.8,0-99.5,0-149.3,0
			c-13.1,0-26.3-0.3-39.4,0c-12.8,0.3-22.7,9.7-23.1,22.6c-0.2,5.2-0.6,11.1,0.8,16.1c2.1,7.5,8.2,13.6,15.7,15.7
			c4.2,1.2,8.8,0.8,13.1,0.8c7.3,0,14.6,0,21.8,0c23.8,0,47.6,0,71.4,0c41,0,82,0,122.9,0c0.8,0,1.5,0,2.3,0
			C366,153.3,366.1,148.3,362.8,148.3z"/>
	</g>
</g>
<g>
	<g>
		<path d="M143.4,150.7c0,14.1,0.6,28.4,0,42.5c-0.3,6.2-5.7,9.8-11.7,8.2c-4.8-1.3-5.7-5.7-5.7-9.9c0-8.3,0-16.6,0-24.9
			c0-7.1,0-14.3,0-21.4c0-3.2-5-3.2-5,0c0,16.1-0.5,32.2,0,48.3c0.4,11.7,15,18.2,23.6,9.5c5.7-5.7,3.7-16.9,3.7-24.2
			c0-9.3,0-18.7,0-28C148.4,147.5,143.4,147.5,143.4,150.7L143.4,150.7z"/>
	</g>
</g>
<g>
	<g>
		<path d="M375.3,144c0,15,0,30,0,45.1c0,1.9,0.2,4-0.1,5.9c-1.6,9.6-16.6,8.6-17.2-1c-0.4-6.6,0-13.3,0-19.9c0-7.6,0-15.3,0-22.9
			c0-3.2-5-3.2-5,0c0,8,0,15.9,0,23.9c0,4.9,0,9.9,0,14.8c0,3.2-0.2,6.4,1.2,9.4c5.8,12.7,25.6,8.4,26.2-5.3c0.4-7.6,0-15.3,0-22.9
			c0-9,0-18,0-27C380.3,140.8,375.3,140.8,375.3,144L375.3,144z"/>
	</g>
</g>
<g>
	<g>
		<path d="M122.2,182.4c-5.2,3.1-10.2-0.3-10.4-6.1c-0.1-3.1,0-6.2,0-9.2c0-3.2-0.1-6.5,0-9.8c0.2-5.5,4.2-9.8,10-6.9
			c2.9,1.4,5.4-2.9,2.5-4.3c-6.5-3.3-14.8-1-17,6.5c-1.3,4.4-0.5,9.9-0.5,14.4c0,4.5-0.9,10.3,0.9,14.6c2.9,6.8,10.9,8.7,17,5.1
			C127.5,185.1,125,180.8,122.2,182.4L122.2,182.4z"/>
	</g>
</g>
<g>
	<g>
		<path d="M376.5,186.8c6.1,3.7,14.1,1.8,17-5.1c1.8-4.3,0.9-10.1,0.9-14.6c0-4.5,0.8-10-0.5-14.4c-2.2-7.6-10.5-9.8-17-6.5
			c-2.9,1.5-0.3,5.8,2.5,4.3c5.7-2.9,9.8,1.4,10,6.9c0.1,3.2,0,6.5,0,9.8c0,3.1,0.1,6.2,0,9.2c-0.3,5.7-5.2,9.3-10.4,6.1
			C376.2,180.8,373.7,185.1,376.5,186.8L376.5,186.8z"/>
	</g>
</g>
<g>
	<line fill="#FFFFFF" x1="121" y1="345" x2="121" y2="356"/>
	<g>
		<path d="M120,345c0,3.7,0,7.3,0,11c0,1.9,3,1.9,3,0c0-3.7,0-7.3,0-11C123,343.1,120,343.1,120,345L120,345z"/>
	</g>
</g>
<g>
	<line fill="#FFFFFF" x1="152" y1="347" x2="152" y2="358"/>
	<g>
		<path d="M151,347c0,3.7,0,7.3,0,11c0,1.9,3,1.9,3,0c0-3.7,0-7.3,0-11C154,345.1,151,345.1,151,347L151,347z"/>
	</g>
</g>
<g>
	<line fill="#FFFFFF" x1="183" y1="349" x2="183" y2="360"/>
	<g>
		<path d="M182,349c0,3.7,0,7.3,0,11c0,1.9,3,1.9,3,0c0-3.7,0-7.3,0-11C185,347.1,182,347.1,182,349L182,349z"/>
	</g>
</g>
<g>
	<line fill="#FFFFFF" x1="214" y1="350" x2="214" y2="361"/>
	<g>
		<path d="M213,350c0,3.7,0,7.3,0,11c0,1.9,3,1.9,3,0c0-3.7,0-7.3,0-11C216,348.1,213,348.1,213,350L213,350z"/>
	</g>
</g>
<g>
	<line fill="#FFFFFF" x1="245" y1="351" x2="245" y2="362"/>
	<g>
		<path d="M244,351c0,3.7,0,7.3,0,11c0,1.9,3,1.9,3,0c0-3.7,0-7.3,0-11C247,349.1,244,349.1,244,351L244,351z"/>
	</g>
</g>
<g>
	<line fill="#FFFFFF" x1="276" y1="351" x2="276" y2="362"/>
	<g>
		<path d="M275,351c0,3.7,0,7.3,0,11c0,1.9,3,1.9,3,0c0-3.7,0-7.3,0-11C278,349.1,275,349.1,275,351L275,351z"/>
	</g>
</g>
<g>
	<line fill="#FFFFFF" x1="307" y1="349" x2="307" y2="360"/>
	<g>
		<path d="M306,349c0,3.7,0,7.3,0,11c0,1.9,3,1.9,3,0c0-3.7,0-7.3,0-11C309,347.1,306,347.1,306,349L306,349z"/>
	</g>
</g>
<g>
	<line fill="#FFFFFF" x1="338" y1="347" x2="338" y2="358"/>
	<g>
		<path d="M337,347c0,3.7,0,7.3,0,11c0,1.9,3,1.9,3,0c0-3.7,0-7.3,0-11C340,345.1,337,345.1,337,347L337,347z"/>
	</g>
</g>
<g>
	<path fill="#8C3337" d="M149.8,100.3c0.1-7.7,7.9-14.3,15.5-13.1c0.7-3.8,3.5-7.1,7.1-8.5c3.6-1.4,6.5-1.1,9.6,1.2
		c0,0-0.3-1,0.2-2.2c3.1-6.7,12.4-9.6,18.8-5.9c4.6-6,13.7-8.1,20.4-4.7c5.1-6,15-7.1,21.3-2.4c3.3-1.8,6.8-3.6,10.6-3.8
		c3.8-0.2,7.9,1.7,9.2,5.3c1.8-3.2,5.5-5.3,9.2-5.1c3.7,0.2,7.2,2.6,8.7,5.9c6-4.3,15.3-2.9,19.7,3.1c3.1-2,6.7-3.5,10.3-3.1
		s7.2,3.1,7.7,6.7c2.5-2.5,6.6-3.3,9.9-2c3.3,1.3,5.7,4.6,5.9,8.2c5.2-0.1,10.1,4,11,9.2c5.5-1.9,12.1,3.2,11.6,9"/>
</g>
<g>
	<line fill="#FFFFFF" x1="369" y1="345" x2="369" y2="356"/>
	<g>
		<path d="M368,345c0,3.7,0,7.3,0,11c0,1.9,3,1.9,3,0c0-3.7,0-7.3,0-11C371,343.1,368,343.1,368,345L368,345z"/>
	</g>
</g>
<g>
	<g>
		<path d="M151.3,100.3c0.5-6.7,6.5-11.3,13-10.6c1.1,0.1,2.2-0.8,2.4-1.8c1.6-6.2,6.9-8.4,12.3-5.4c1.4,0.8,3.2,0.1,3.7-1.5
			c2-6.8,9.7-10.2,16-6.9c0.9,0.5,2.3,0.5,3-0.4c4.3-5.1,11.2-7.1,17.4-4.3c1,0.4,2.2,0.5,3-0.4c4.9-5.2,12.4-6,18.3-2.1
			c0.7,0.5,1.8,0.4,2.5,0c4.7-2.7,13.1-6.4,16.3,0.5c0.8,1.8,3.4,1.4,4.3,0c3.6-5.4,11.4-4.7,14.6,0.8c0.6,1.1,2.3,1.6,3.4,0.9
			c5.5-3.6,11.7-2.3,15.8,2.7c0.7,0.8,2.2,0.9,3,0.4c4.5-2.8,12.5-5.1,14.3,2.1c0.5,2,2.8,2.3,4.2,1.1c4.4-3.7,10.8-1.4,11.6,4.4
			c0.2,1.4,1,2.4,2.5,2.5c4.4,0.2,7.6,3.1,8.5,7.3c0.3,1.3,1.8,2.1,3.1,1.7c4.3-1.1,8.4,2.1,8.4,6.6c0,3.2,5,3.2,5,0
			c0-7.7-7.3-13.3-14.7-11.4c1,0.6,2.1,1.2,3.1,1.7c-1.5-6.5-6.8-10.7-13.4-11c0.8,0.8,1.7,1.7,2.5,2.5c-1.3-10.2-12.1-14.6-20.1-8
			c1.4,0.4,2.8,0.7,4.2,1.1c-2.6-10.4-14.3-9.6-21.7-5.1c1,0.1,2,0.3,3,0.4c-5.4-6.7-14.6-8.2-21.9-3.5c1.1,0.3,2.3,0.6,3.4,0.9
			c-5.1-9-17.5-9.3-23.2-0.8c1.4,0,2.9,0,4.3,0c-4.5-9.6-16.1-6.3-23.2-2.3c0.8,0,1.7,0,2.5,0c-7.7-5.2-18-3.9-24.3,2.8
			c1-0.1,2-0.3,3-0.4c-8.2-3.6-17.6-1.8-23.5,5.1c1-0.1,2-0.3,3-0.4c-9.2-4.7-20.5-0.1-23.4,9.9c1.2-0.5,2.4-1,3.7-1.5
			c-8.4-4.5-17.2-1.1-19.6,8.4c0.8-0.6,1.6-1.2,2.4-1.8c-9.4-0.9-17.4,6.4-18,15.6C146,103.6,151,103.5,151.3,100.3L151.3,100.3z"/>
	</g>
</g>
<g>
	<g>
		<path fill="#FFFFFF" d="M189.8,86.3c1.5-2.1,3.8-3.2,6.3-3.3c3.2-0.1,3.2-5.1,0-5c-4.4,0.1-8.2,2.2-10.7,5.8
			C183.7,86.4,188,88.9,189.8,86.3L189.8,86.3z"/>
	</g>
</g>
<g>
	<g>
		<path fill="#FFFFFF" d="M204.3,81.3c0.1,0,0.1,0,0.2,0c1.3,0,2.6-1.1,2.5-2.5c-0.1-1.4-1.1-2.5-2.5-2.5c-0.1,0-0.1,0-0.2,0
			c-1.3,0-2.6,1.1-2.5,2.5C201.8,80.2,202.8,81.3,204.3,81.3L204.3,81.3z"/>
	</g>
</g>
<g id="Layer_2">
	<path d="M221.5,171c-0.2,0-0.3,0-0.5,0c0,0,0,0,0,0c-16.8,0-33.2-4.2-48.4-11.4c-2.9-1.4-0.6-5.7,2.3-4.3
		c14.3,6.8,29.5,10.3,45.1,10.7c0.2,0,0.3,0,0.5,0c0.3,0,0.6,0,1,0C224.7,166.2,224.7,171.1,221.5,171z"/>
	<path d="M221,161L221,161C221,161,221,161,221,161C221,161,221,161,221,161z"/>
	<path d="M330.8,159.6c-15.3,7.3-31.8,11.1-48.7,11.4c0,0,0,0,0,0h-0.2c-3.2,0-3.2-4.8,0-5c0.3,0,0.7,0,1,0c0.2,0,0.3,0,0.5,0
		c15.5-0.4,30.8-4,45-10.7C331.2,153.9,333.7,158.3,330.8,159.6z"/>
</g>
<g>
	<g>
		<path d="M111.8,355.9c0.8-3.8,1.7-7.7,2.5-11.5c-0.5,0.4-1,0.7-1.4,1.1c28.8,2.5,57.7,4.6,86.6,6.1c42.3,2.1,84.8,0,127-1.8
			c20.7-0.9,41.2-2.8,61.8-5.2c-0.5-0.5-1-1-1.5-1.5c0,4.3,0,8.6,0,12.9c0.5-0.5,1-1,1.5-1.5c-71.9,6.3-144.3,8-216.4,4.3
			c-19.9-1-39.8-2.5-59.6-4.3c-1.9-0.2-1.9,2.8,0,3c71.1,6.5,142.7,7.9,214,4.3c20.7-1,41.4-2.5,62-4.3c0.8-0.1,1.5-0.6,1.5-1.5
			c0-4.3,0-8.6,0-12.9c0-0.7-0.7-1.6-1.5-1.5c-42.3,4.8-84.5,6.1-127,7.2c-18.7,0.5-37.3,0.8-56,0c-19.4-0.9-38.7-2.2-58.1-3.6
			c-11.5-0.9-22.9-1.7-34.3-2.7c-0.6-0.1-1.3,0.5-1.4,1.1c-0.8,3.8-1.7,7.7-2.5,11.5C108.5,357,111.4,357.8,111.8,355.9L111.8,355.9
			z"/>
	</g>
</g>
<g id="Layer_3">
</g>
</svg>
