<?xml version="1.0" encoding="utf-8"?>
<!-- Generator: Adobe Illustrator 18.1.1, SVG Export Plug-In . SVG Version: 6.00 Build 0)  -->
<svg version="1.1" id="Layer_1" xmlns="http://www.w3.org/2000/svg" xmlns:xlink="http://www.w3.org/1999/xlink" x="0px" y="0px"
	 viewBox="0 0 500 500" enable-background="new 0 0 500 500" xml:space="preserve">
<g>
	<path fill="#99471D" d="M391.7,172.3c0,5.5-6.3,10.5-7.1,15.9c-0.7,5.4,4,12,2.6,17.2c-1.4,5.3-8.9,8.4-11,13.4
		c-2.1,5,0.8,12.6-2,17.2c-2.7,4.7-10.8,5.8-14.1,10.2c-3.3,4.3-2.4,12.3-6.2,16.2c-3.8,3.8-11.9,3-16.1,6.4
		c-4.2,3.4-5.2,11.4-9.9,14.3c-4.6,2.8-12.2,0.2-17.2,2.5c-4.9,2.3-7.7,9.9-12.9,11.7c-5.1,1.7-12-2.6-17.3-1.4
		c-5.3,1.2-9.7,8-15.1,8.5c-5.3,0.6-11.1-5.1-16.6-5.1c-5.5,0-11.3,5.7-16.6,5.1c-5.5-0.6-9.9-7.4-15.1-8.5
		c-5.4-1.2-12.2,3.1-17.3,1.4c-5.2-1.8-8-9.4-12.9-11.7c-5-2.3-12.6,0.3-17.2-2.5c-4.6-2.9-5.7-10.9-9.9-14.3
		c-4.3-3.4-12.3-2.6-16.1-6.4c-3.8-3.9-2.9-11.9-6.2-16.2c-3.3-4.3-11.3-5.5-14.1-10.2c-2.8-4.7,0.1-12.2-2-17.2
		c-2.1-5-9.6-8.2-11-13.4c-1.4-5.2,3.3-11.7,2.6-17.2c-0.7-5.3-7.1-10.4-7.1-15.9c0-5.5,6.3-10.5,7.1-15.9c0.7-5.4-4-12-2.6-17.2
		c1.4-5.3,8.9-8.4,11-13.4c2.1-5-0.8-12.6,2-17.2c2.7-4.7,10.8-5.8,14.1-10.2c3.3-4.3,2.4-12.3,6.2-16.2c3.8-3.8,11.9-3,16.1-6.4
		c4.2-3.4,5.2-11.4,9.9-14.3c4.6-2.8,12.2-0.2,17.2-2.5c4.9-2.3,7.7-9.9,12.9-11.7c5.1-1.7,12,2.6,17.3,1.4c5.3-1.2,9.7-8,15.1-8.5
		c5.3-0.6,11.1,5.1,16.6,5.1c5.5,0,11.3-5.7,16.6-5.1c5.5,0.6,9.9,7.4,15.1,8.5c5.4,1.2,12.2-3.1,17.3-1.4c5.2,1.8,8,9.4,12.9,11.7
		c5,2.3,12.6-0.3,17.2,2.5c4.6,2.9,5.7,10.9,9.9,14.3c4.3,3.4,12.3,2.6,16.1,6.4c3.8,3.9,2.9,11.9,6.2,16.2
		c3.3,4.3,11.3,5.5,14.1,10.2c2.8,4.7-0.1,12.2,2,17.2c2.1,5,9.6,8.2,11,13.4c1.4,5.2-3.3,11.7-2.6,17.2
		C385.3,161.8,391.7,166.8,391.7,172.3z"/>
	<g>
		<path d="M389.2,172.3c-0.4,4.2-3.7,7.4-5.5,11c-1.5,3.1-1.9,6.1-1.3,9.5c0.7,3.7,3.4,8.1,2.4,11.9c-0.9,3.7-5.5,6.2-7.9,8.9
			c-1.9,2.1-3.2,4.3-3.7,7c-0.7,4.1,0.7,8.5-0.4,12.4c-1.9,6.8-12.3,7.1-15.7,13.4c-1.5,2.9-1.8,6.2-2.7,9.3c-1.4,5.1-4.1,6.5-9,7.7
			c-7.6,1.9-11,4.5-14.5,11.5c-2,4-3.7,6.8-8.6,7.1c-3.7,0.3-7.5-0.4-11,0.8c-7.1,2.2-9.4,12.7-17.2,12.4
			c-7.6-0.3-12.7-3.9-19.7,1.1c-2.9,2-5.7,5.3-9.4,5.7c-4.1,0.4-8-2.9-11.7-4.2c-3-1-6-1-9,0c-3.8,1.3-7.6,4.6-11.7,4.2
			c-3.7-0.3-6.5-3.7-9.4-5.7c-2.7-1.9-5.4-3.1-8.7-3c-3.7,0.1-7.3,1.8-11,2c-5,0.2-7.3-4-10.2-7.3c-5.3-6-10.6-5.3-18-5.8
			c-8.7-0.6-8.2-10.8-14.3-15.3c-2.6-1.9-5.8-2.6-8.8-3.3c-4.9-1.2-7.6-2.6-9-7.7c-1.9-6.9-2.8-11.7-9.4-15.4
			c-3.4-1.9-7.8-3.2-8.9-7.3c-1.1-4,0.3-8.4-0.4-12.4c-0.5-2.8-1.8-5-3.7-7c-2.5-2.7-7-5.2-7.9-8.9c-1-3.8,1.6-8.2,2.4-11.9
			c0.7-3.4,0.3-6.4-1.3-9.5c-1.7-3.4-5.4-6.9-5.5-11c-0.1-4.1,4.1-8,5.7-11.6c1.3-2.7,1.6-5.3,1.1-8.2c-0.6-3.8-3.6-8.7-2.5-12.6
			c1-3.6,5.1-5.9,7.5-8.4c2.2-2.3,3.7-4.7,4.2-7.8c0.6-3.7-0.4-7.4,0.2-11.1c0.8-4.8,5.3-6.2,9.1-8.3c7-3.9,7.5-8.9,9.6-16
			c2.5-8.6,12-5.8,17.9-10.5c6.2-4.9,5.3-14.7,14.7-15.2c7.6-0.4,12.5-0.2,17.7-6.3c2.6-3,4.7-6.8,9.2-6.8c3.9-0.1,7.7,1.9,11.6,2
			c3,0.1,5.7-1,8.2-2.6c3.3-2.2,6.5-6.2,10.8-6.1c3.8,0.1,7.4,3.1,10.9,4.3c3,1,6,1,9,0c3.5-1.2,7.1-4.2,10.9-4.3
			c4.3-0.1,7.5,3.9,10.8,6.1c7,4.7,12.3,0.5,19.8,0.7c7.3,0.1,9.7,10.3,16.5,12.4c3.3,1,6.9,0.5,10.3,0.7c5.5,0.3,7.3,3.2,9.6,7.8
			c3.4,6.7,7,9.1,14.2,10.9c4.5,1.1,7.4,2.3,8.8,7c1,3.5,1.2,7.3,3.1,10.4c3.7,6.1,14.3,6.5,15.5,13.9c1.2,7.3-1.2,13.1,4.4,18.9
			c2.4,2.5,6.5,4.8,7.5,8.4c1.1,3.9-1.9,8.8-2.5,12.6c-0.5,2.9-0.2,5.5,1.1,8.2C385.2,164.6,388.8,168,389.2,172.3
			c0.3,3.2,5.3,3.2,5,0c-0.3-3.8-2-6.7-4-9.9c-3-4.7-3.4-8-1.8-13.3c2.4-8,1.6-12.7-4.6-18.4c-3.3-3-5.7-5.3-5.9-10
			c-0.1-4,0.7-8.1-0.8-11.9c-3-7.4-13.2-7-16.1-14.2c-2.6-6.5-1.8-13.5-9.3-16.7c-3.5-1.5-7.4-1.5-10.8-3.2
			c-4.2-2.1-5.2-7.2-7.5-10.9c-4.6-7.2-11.1-5.5-18.4-6.3c-7.9-0.9-9.7-11.2-17.6-12.8c-3.6-0.7-7.3,0.6-10.8,1.3
			c-5.7,1.2-8.4-1-12.8-4.2c-6.6-4.9-11.3-4.3-18.5-1c-5,2.3-8,2.3-12.9,0c-3.3-1.5-6.7-3.3-10.5-2.9c-3.1,0.3-5.6,2.1-8,3.9
			c-4.3,3.3-7.1,5.4-12.8,4.2c-7.9-1.6-13.1-2.3-18.8,4.3c-2.8,3.2-4.9,6.7-9.5,7.3c-4.2,0.5-8.6-0.5-12.6,1.1
			c-7.4,2.9-6.8,12.8-13.4,16.1c-6.2,3.2-13.8,1.8-17.1,9.3c-1.5,3.4-1.6,7.2-2.9,10.6c-1.8,4.4-6.3,5.6-10.1,7.9
			c-7.5,4.4-6.7,10.4-6.9,18.2c-0.2,8.6-10.2,10.6-11.9,18.6c-0.7,3.4,0.4,6.7,1.4,9.9c1.6,5.4,1.2,8.6-1.8,13.3c-1.9,3-4,6.2-4,9.9
			c0,3.7,2.1,6.9,4,9.9c2.8,4.4,3.5,7.5,2,12.6c-1.1,3.6-2.5,7.4-1.5,11.2c0.8,3.1,3.2,5.4,5.4,7.5c3.6,3.4,6.4,5.8,6.3,11.2
			c0,7.9,0,13.5,7.5,17.8c3.7,2.1,7.8,3.3,9.5,7.6c1.4,3.4,1.4,7.2,2.9,10.6c3.6,7.9,11.7,5.6,18,9.6c6.1,3.9,5.4,13.4,13.2,16
			c3.5,1.2,7.3,0.6,11,0.8c5.5,0.3,7.7,4.1,11,7.9c5.6,6.2,10.8,5.3,18.4,3.8c5.7-1.1,8.4,1,12.8,4.2c2.5,1.9,5.2,3.7,8.4,4
			c3.4,0.3,6.5-1.3,9.5-2.7c2.2-1,4.6-2.4,7.1-2.4c2.7,0,5.3,1.6,7.7,2.7c7,3.2,11.7,2.7,17.7-2c4.1-3.2,6.9-4.9,12.2-3.8
			c3.5,0.7,7.2,2,10.8,1.3c8.2-1.7,9.9-12.4,18.6-12.9c7.8-0.4,13.8,0.2,18.1-7.3c1.8-3.1,2.9-7.4,6.1-9.4c3.5-2.2,8.2-2,11.9-3.7
			c7.3-3.2,6.4-10.2,9-16.5c2.9-7.2,13.4-6.8,16.3-14.5c1.3-3.5,0.7-7.3,0.7-10.9c0-5.6,3.1-8.1,6.8-11.6c5.9-5.7,5.7-10.7,3.4-18.2
			c-1.5-5.1-0.8-8.2,2-12.6c2-3.2,3.7-6.1,4-9.9C394.4,169.1,389.4,169.1,389.2,172.3z"/>
	</g>
</g>
<g>
	<g>
		<path fill="#FFFFFF" d="M147.6,276.7c0,4-0.8,8.1-2.3,12l-33.4,81.6c-1.4,2.8-11,20.6-24.1,15.6c-14.3-5.4-9.4-28.8-9.4-28.8
			l24.4-85.2c4.3-14.8,18.1-23.8,30.5-18.9C142.4,256.7,147.6,266.3,147.6,276.7z"/>
		<g>
			<path d="M145.1,276.7c-0.2,8.1-3.8,15.2-6.8,22.6c-4.2,10.3-8.4,20.6-12.7,31c-4.1,9.9-8.1,19.9-12.2,29.8
				c-2.1,5.2-3.7,9.6-6.4,13.7c-3.6,5.4-9.6,11.9-16.8,10.3c-7.1-1.6-9.5-9-10-15.4c-0.4-5.3,0.4-10,1.9-15
				c5.8-20.3,11.6-40.5,17.4-60.8c1.9-6.7,3.7-13.4,5.8-20.1c2.8-9.3,10.4-18.3,20.8-18.4C138.3,254.2,144.9,265.9,145.1,276.7
				c0.1,3.2,5.1,3.2,5,0c-0.4-17.4-15.6-33.5-33.5-25.2c-10.4,4.8-14.7,14.7-17.6,25c-6.6,23-13.2,45.9-19.8,68.9
				c-1.5,5.1-3.3,10.1-3.8,15.4c-1.2,11.6,2.1,28.3,16.9,28.4c19.1,0.1,26.3-28.7,31.9-42.5c5.5-13.5,11-27,16.5-40.5
				c3.9-9.5,9.1-19.2,9.4-29.6C150.2,273.5,145.2,273.5,145.1,276.7z"/>
		</g>
	</g>
</g>
<g>
	<g>
		<path fill="#F27833" d="M161.1,298.1c-24.8-0.2-48.4-5.3-71.1-15.3c0,0,12.8-41.9,44.7-35S161.1,298.1,161.1,298.1z"/>
		<g>
			<path d="M161.1,295.6c-24.1-0.3-47.7-5.3-69.8-14.9c0.4,0.9,0.8,1.9,1.1,2.8c3.8-12.4,12.3-26.1,24.4-31.6
				c10-4.5,22.6-2.4,30.7,5.1c6.9,6.4,9.9,15.9,11,24.9c0.6,5.3,0.8,10.9,0.1,16.2c-0.4,3.2,4.6,3.2,5,0
				c1.8-14.7-0.9-32.7-11.5-43.7c-7.9-8.2-20.5-11.7-31.6-9.1c-10.1,2.4-18.1,9.9-23.8,18.3c-3.8,5.6-7.1,12-9.1,18.5
				c-0.3,0.9,0.2,2.4,1.1,2.8c23,10,47.3,15.3,72.3,15.6C164.3,300.7,164.3,295.7,161.1,295.6z"/>
		</g>
	</g>
	<g>
		<path fill="#F27833" d="M150.2,298.4c-16.9,0.1-33.1-3.4-48.4-10.4c0,0,12.2-44.6,33.9-40S150.2,298.4,150.2,298.4z"/>
		<g>
			<path d="M150.2,295.9c-16.4,0-32.2-3.4-47.2-10.1c0.4,0.9,0.8,1.9,1.1,2.8c3.3-12,8.9-26.3,18.6-34.4c6.5-5.4,15.5-5.4,20.5,2
				c4.7,6.9,5.4,16.3,5.5,24.4c0.1,5.7-0.2,11.8-1.1,17.2c-0.5,3.1,4.3,4.5,4.8,1.3c2.2-14,3.3-32.6-4.8-45
				c-4.7-7.3-13.5-10.8-21.8-7.6c-8.8,3.5-14.7,12.6-18.8,20.7c-3.3,6.4-6,13.3-7.9,20.2c-0.3,1,0.2,2.4,1.1,2.8
				c15.8,7.1,32.4,10.7,49.7,10.8C153.5,300.9,153.5,295.9,150.2,295.9z"/>
		</g>
	</g>
</g>
<path fill="#FFFFFF" d="M391.7,357.2c-0.3-6.5-2.8-19.4-5.8-34.4l-0.1-0.5c-3.2-16-6.9-35.9-7.1-44.6c-0.1-5.4,0.3-13.2,0.3-21.4
	v-0.4c0-16.9-0.1-40.1-1.7-55.3c-1.3-12.5-6.1-44-20.8-67.6c-13.6-21.8-30.2-35.9-51.9-44.7c-19.9-8-56.3-8.9-57.3-8.9
	c-9.3,0-33.2,0.8-53,8.8c-21.7,8.8-38.1,23-51.8,44.8c-14.7,23.5-19.4,55.1-20.7,67.6c-1.6,15.2-1.5,38.4-1.3,55.3l0,3.9
	c0,6.8,0,13.3-0.1,17.9c-0.2,8.8-4.2,28.6-7.4,44.6l-0.2,0.6c-3,14.9-5.5,27.8-5.8,34.3c-0.6,16.6,4.1,27.8,16.1,38.7
	c7.7,7,15.2,10.2,23.4,10.2c4.5,0,8.5-0.9,12.8-2c1.2-0.3,2.4-0.7,3.7-1.2c4.4,2.4,12.6,6,23.5,6c7.1,0,15.3-1.5,24.2-5.8
	c5.1,4.2,10.5,8.2,10.5,8.2c13.9,7.9,25.9,9.6,27.7,9.6h0.4c1.8,0,13.8-1.1,28.2-9.6c0,0,4.7-3.4,9.5-7.3c8.3,3.7,15.9,5,22.5,5
	c11.8,0,20.5-4.2,24.5-6.6c1.9,0.8,3.6,1.4,5.3,1.8c4.4,1.1,8.4,2,12.8,2c8.4,0,15.6-3.2,23.4-10.2
	C387.7,385.1,392.3,373.9,391.7,357.2z"/>
<g>
	<path fill="#F27833" d="M375.9,394.3c-5.2,4.7-9.8,7.2-14.8,8c-1.3,0.2-2.6,0.3-4,0.3c-3,0-5.9-0.5-9.1-1.3
		c-0.7-0.2-1.5-0.3-2.3-0.5c-2.2-0.5-4.9-1.7-8.4-3.2l-0.6-0.3c-7.2-3.2-16.8-7.4-26.2-8c-0.7,0-1.4-0.1-2.1-0.1
		c-4.6,0-8.6,1-12.1,3c-1.8,1-3.4,2.3-5,3.8c-12,12.1-24,17-31.9,18.9c0,0-0.7,0.2-1.9,0.4c-2.8,0.5-8.3,1-14.4-0.7
		c-0.1,0-0.2-0.1-0.4-0.1c-8.3-2.3-19.2-6-30.3-16.1c-0.9-0.8-1.8-1.6-2.6-2.5c-3.4-3.5-7.5-5.6-12.3-6.4c-1.5-0.3-3.1-0.4-4.8-0.4
		c-9.9,0-20.4,4.6-28.3,8l-0.3,0.2c-1.4,0.6-2.6,1.2-3.8,1.6c-1.9,0.8-3.5,1.4-4.9,1.7c-2.9,0.7-5.4,1.3-8,1.6
		c-1.1,0.1-2.2,0.2-3.4,0.2c-6.5,0-12.3-2.6-18.8-8.4c-10.7-9.6-14.5-18.7-14-33.4c0.2-6,2.8-18.9,5.9-33.8l0.1-0.6
		c0.3-1.2,0.5-2.5,0.7-3.7c0-0.1,0.1-0.3,0.1-0.4c3.3-16.3,6.8-33.8,7-42.8c0-0.6,0-1.3,0-2c0.1-4.6-0.2-10.4-0.2-16.5l-0.3-4v-0.4
		c28,13.8,76,18.9,125.4,22.9c0,0,60.6-2.1,87.2-7.2c20.3-3.9,34.1-10.7,39.5-13.8c0,8-0.6,15.6-0.5,21.1c0.1,3.8,0.8,9.1,1.7,15.3
		c1.3,8.3,3.2,18.1,5,27.4c0,0.1,0,0.2,0,0.2c0.3,1.3,0.5,2.6,0.8,3.9l0,0.6c3,15,5.6,27.9,5.8,33.9
		C390.5,375.6,386.7,384.6,375.9,394.3z"/>
</g>
<path fill="#C8C8C8" d="M288.4,401.1c0,0,8.6-6.5,18.1-7.6c9.5-1.1,25.7,5.9,25.7,5.9s-5.3,10.8-15.4,10.5S288.4,401.1,288.4,401.1z
	"/>
<g>
	<path fill="#DD5A2C" d="M161.5,403.7c0,0-3.9-77.3-6.1-77.3c-2.2,0-6.4,77.5-6.4,77.5"/>
</g>
<g>
	<path fill="#DD5A2C" d="M211.5,399.6c0,0-4.2-73.3-6.6-73.3s-6.9,73.4-6.9,73.4"/>
</g>
<g>
	<path fill="#DD5A2C" d="M256.5,418.6c0,0-4.2-79.7-6.6-79.7s-6.9,79.9-6.9,79.9"/>
</g>
<g>
	<path fill="#DD5A2C" d="M308.5,392.6c0,0-4.2-62.4-6.6-62.4c-2.4,0-6.9,62.6-6.9,62.6"/>
</g>
<g>
	<path fill="#DD5A2C" d="M359.5,402.6c0,0-4.2-62.4-6.6-62.4c-2.4,0-6.9,62.6-6.9,62.6"/>
</g>
<path fill="#C8C8C8" d="M163.1,401.1c0,0,8.6-6.5,18.1-7.6c9.5-1.1,25.7,5.9,25.7,5.9s-5.3,10.8-15.4,10.5
	C181.4,409.8,163.1,401.1,163.1,401.1z"/>
<path d="M395.4,359.6c-0.3-6.6-2.9-19.8-5.9-35.1l-0.1-0.6c-3.3-16.3-6.8-36.6-7-45.5c-0.1-5.6,0.6-13.5,0.6-21.9v-0.4
	c0-17.3-0.4-40.9-2-56.5c-1.3-12.7-6.4-44.9-21.4-69c-13.9-22.3-30.9-36.7-53-45.6c-20.3-8.2-57.5-9.1-58.6-9.1
	c-9.5,0-33.9,0.8-54.2,9c-22.1,9-39,23.5-52.9,45.7c-15,24-19.8,56.3-21.1,69c-1.7,15.6-1.5,39.2-1.4,56.5l0,4c0,7,0,13.5-0.1,18.3
	c-0.2,9-4.3,29.2-7.6,45.5l-0.2,0.7c-3,15.3-5.7,28.4-5.9,35c-0.6,17,4.1,28.4,16.4,39.5c7.9,7.1,15.5,10.4,23.9,10.4
	c4.6,0,8.6-0.9,13.1-2c1.2-0.3,2.5-0.7,3.8-1.2c4.4,2.5,12.9,6.1,24,6.1c7.2,0,15.6-1.5,24.8-5.9c5.3,4.3,10.7,8,10.8,8.1
	c14.2,8.1,26.5,9.5,28.3,9.5h0.4c1.8,0,14-0.8,28.8-9.5c0,0,4.8-3.3,9.7-7.3c8.5,3.8,16.2,5.2,23,5.2c12.1,0,21-4.3,25-6.7
	c1.9,0.8,3.7,1.4,5.4,1.8c4.5,1.1,8.5,2,13.1,2c8.6,0,15.9-3.2,23.9-10.4C391.3,388,396.1,376.5,395.4,359.6z M171.4,402.3
	c6.5-2.8,14.7-6,21.7-6c4.7,0,8.2,1.4,11.2,4.4l0.2,0.2C190.3,406.8,178.7,404.9,171.4,402.3z M295.1,401.7c0.3-0.3,0.6-0.6,0.9-0.9
	c3.1-3.1,6.5-4.5,11.2-4.5c6.6,0,14.1,2.7,20.4,5.4C320.7,404.5,309.2,406.9,295.1,401.7z M373.7,393.2c-6.5,5.9-12,8.4-18.6,8.4
	c-3.6,0-7.1-0.8-11.2-1.8c-2.2-0.5-4.9-1.7-8.3-3.2l-0.6-0.3c-7.6-3.4-18.1-8-27.9-8c-6.8,0-12.3,2.2-16.8,6.8
	c-11.9,12.1-23.7,17-31.5,18.9c-0.2,0.1-7.7,2.1-16.5-0.3c-8.8-2.4-20.7-6.6-32.5-18.6c-4.5-4.6-10-6.8-16.8-6.8
	c-9.7,0-20.1,4.6-27.9,8l-0.3,0.2c-3.5,1.6-6.3,2.8-8.6,3.4c-4.1,1-7.5,1.8-11.2,1.8c-6.5,0-12.2-2.6-18.6-8.4
	c-10.6-9.6-14.4-18.7-13.8-33.4c0.2-6,2.8-18.9,5.8-33.8l0.1-0.7c3.5-17.4,7.5-37.2,7.7-46.9c0.1-4.9,0.1-11.5,0.1-18.5l0-4
	c-0.1-17.1-0.3-40.5,1.3-55.6c1.3-12.2,5.8-43,20-65.6c13-20.8,28.6-34.3,49.1-42.6c19-7.7,42.1-8.8,51.2-8.8
	c0.8,0,36.5,0.9,55.5,8.5c20.5,8.3,36.1,22,49.1,42.8c14.2,22.7,19.2,53.5,20.5,65.7c1.6,15.1,1.9,38.6,1.9,55.7v0.4
	c0,8.4-0.7,16.4-0.5,22.1c0.3,9.6,4,29.4,7.5,46.9l0,0.6c3,15,5.5,27.9,5.7,33.9C388.2,374.6,384.4,383.6,373.7,393.2z"/>
<path d="M330.2,187.3c0,11.4-9.3,20.7-20.7,20.7s-20.7-9.3-20.7-20.7c0-1,0.1-1.9,0.2-2.9c1.3,0.9,2.8,1.4,4.4,1.4
	c4.3,0,7.8-3.5,7.8-7.8c0-3.1-1.8-5.8-4.5-7c3.5-2.7,7.9-4.4,12.7-4.4C320.9,166.6,330.2,175.8,330.2,187.3z"/>
<path d="M211.2,187.3c0,11.4-9.3,20.7-20.7,20.7c-11.4,0-20.7-9.3-20.7-20.7c0-1,0.1-1.9,0.2-2.9c1.3,0.9,2.8,1.4,4.4,1.4
	c4.3,0,7.8-3.5,7.8-7.8c0-3.1-1.8-5.8-4.5-7c3.5-2.7,7.9-4.4,12.7-4.4C201.9,166.6,211.2,175.8,211.2,187.3z"/>
<ellipse transform="matrix(0.7169 -0.6971 0.6971 0.7169 -112.9338 175.5088)" fill="#F68694" cx="159.7" cy="226.8" rx="8" ry="3.6"/>
<ellipse transform="matrix(0.7169 -0.6971 0.6971 0.7169 -109.5173 186.4544)" fill="#F68694" cx="174.8" cy="228.1" rx="8" ry="3.6"/>
<ellipse transform="matrix(0.7169 -0.6971 0.6971 0.7169 -105.2185 197.0418)" fill="#F68694" cx="190" cy="228.1" rx="8" ry="3.6"/>
<ellipse transform="matrix(-0.7169 -0.6971 0.6971 -0.7169 425.8532 629.0911)" fill="#F68694" cx="340.6" cy="228.1" rx="8" ry="3.6"/>
<ellipse transform="matrix(-0.7169 -0.6971 0.6971 -0.7169 398.8955 620.6766)" fill="#F68694" cx="325.5" cy="229.4" rx="8" ry="3.6"/>
<g>
	<g>
		<path d="M115,323.8c61.9,6.1,124.6,7.8,186.7,5.9c27.2-0.8,54.3-2.6,81.3-5.9c3.2-0.4,3.2-5.4,0-5c-82,10-165.8,7.9-248,1.7
			c-6.7-0.5-13.3-1-20-1.7C111.8,318.5,111.8,323.5,115,323.8L115,323.8z"/>
	</g>
</g>
<ellipse transform="matrix(-0.7169 -0.6971 0.6971 -0.7169 372.8202 610.0892)" fill="#F68694" cx="310.3" cy="229.4" rx="8" ry="3.6"/>
<g>
	<g>
		<path d="M247.8,329.3c-2,26.1-4.1,52.2-6.1,78.4c-0.3,3.8-0.6,7.5-0.9,11.3c-0.2,1.9,2.9,1.9,3,0c2-26.1,4.1-52.2,6.1-78.4
			c0.3-3.8,0.6-7.5,0.9-11.3C251,327.4,248,327.4,247.8,329.3L247.8,329.3z"/>
	</g>
</g>
<g>
	<g>
		<path d="M248.8,329.3c2,26.1,4.1,52.2,6.1,78.4c0.3,3.8,0.6,7.5,0.9,11.3c0.1,1.9,3.2,1.9,3,0c-2-26.1-4.1-52.2-6.1-78.4
			c-0.3-3.8-0.6-7.5-0.9-11.3C251.7,327.4,248.7,327.4,248.8,329.3L248.8,329.3z"/>
	</g>
</g>
<g>
	<g>
		<path d="M152.9,324.3c-2.1,27.4-4.3,54.7-6.4,82.1c-0.2,1.9,2.9,1.9,3,0c2.1-27.4,4.3-54.7,6.4-82.1
			C156,322.4,153,322.4,152.9,324.3L152.9,324.3z"/>
	</g>
</g>
<g>
	<g>
		<path d="M153.8,324.3c2.1,26.5,4.1,52.9,6.2,79.4c0.1,1.9,3.2,1.9,3,0c-2.1-26.5-4.1-52.9-6.2-79.4
			C156.6,322.4,153.6,322.4,153.8,324.3L153.8,324.3z"/>
	</g>
</g>
<g>
	<g>
		<path d="M351.6,324.3c2.1,27.4,4.3,54.7,6.4,82.1c0.1,1.9,3.2,1.9,3,0c-2.1-27.4-4.3-54.7-6.4-82.1
			C354.4,322.4,351.4,322.4,351.6,324.3L351.6,324.3z"/>
	</g>
</g>
<g>
	<g>
		<path d="M350.7,324.3c-2.1,26.5-4.1,52.9-6.2,79.4c-0.2,1.9,2.9,1.9,3,0c2.1-26.5,4.1-52.9,6.2-79.4
			C353.8,322.4,350.8,322.4,350.7,324.3L350.7,324.3z"/>
	</g>
</g>
<g>
	<g>
		<path d="M202.8,328.3c-2.3,21.5-4.7,43-7,64.5c-0.2,1.9,2.8,1.9,3,0c2.3-21.5,4.7-43,7-64.5C206.1,326.4,203.1,326.4,202.8,328.3
			L202.8,328.3z"/>
	</g>
</g>
<g>
	<g>
		<path d="M203.5,328.3c2.6,23.9,5.2,47.7,7.8,71.6c0.2,1.9,3.2,1.9,3,0c-2.6-23.9-5.2-47.7-7.8-71.6
			C206.2,326.4,203.2,326.4,203.5,328.3L203.5,328.3z"/>
	</g>
</g>
<g>
	<g>
		<path d="M301.2,328.3c2.3,21.5,4.7,43,7,64.5c0.2,1.9,3.2,1.9,3,0c-2.3-21.5-4.7-43-7-64.5C304,326.4,301,326.4,301.2,328.3
			L301.2,328.3z"/>
	</g>
</g>
<g>
	<g>
		<path d="M300.6,328.3c-2.6,23.9-5.2,47.7-7.8,71.6c-0.2,1.9,2.8,1.9,3,0c2.6-23.9,5.2-47.7,7.8-71.6
			C303.8,326.4,300.8,326.4,300.6,328.3L300.6,328.3z"/>
	</g>
</g>
<g>
	<g>
		<path d="M123.5,256.9c12.5,6.6,26.4,10.4,40.1,13.3c17.1,3.6,34.6,5.8,52,7.6c38,4,76.3,5.7,114.2,10.3c17.2,2,34.5,4.5,51,9.8
			c3.1,1,4.4-3.8,1.3-4.8c-31.3-10-65.4-11.7-97.9-14.4c-37.2-3-74.7-5-111.4-11.8c-16-2.9-32.5-6.7-46.9-14.4
			C123.2,251.1,120.6,255.4,123.5,256.9L123.5,256.9z"/>
	</g>
</g>
<g>
	<g>
		<path d="M250,281c14.2-0.5,28.3-1.3,42.5-2.3c22.3-1.6,45-3.4,66.2-11.1c6.9-2.5,14-5.4,20.1-9.4c2.7-1.8,0.2-6.1-2.5-4.3
			c-14.5,9.5-32.8,14.1-49.7,16.4c-20.2,2.9-40.7,4-61.1,5c-5.2,0.3-10.3,0.5-15.5,0.7C246.8,276.1,246.8,281.1,250,281L250,281z"/>
	</g>
</g>
<g>
	<g>
		<path d="M219.3,187c-0.3,15.8-12.9,29-29,29c-15.8,0-29-13.2-29-29c0-15.8,13.2-29,29-29C206.4,158,218.9,171.2,219.3,187
			c0.1,3.2,5.1,3.2,5,0c-0.3-14.1-8.7-26.7-22-31.8c-13.4-5.1-29.1-0.9-38.2,10.2c-9,10.9-10.3,26.8-3,38.9
			c7.2,12.1,21.5,18.6,35.4,16.1c16.2-2.9,27.5-17.3,27.8-33.4C224.4,183.8,219.4,183.8,219.3,187z"/>
	</g>
</g>
<g>
	<g>
		<path d="M338.3,187c-0.3,15.8-12.9,29-29,29c-15.8,0-29-13.2-29-29c0-15.8,13.2-29,29-29C325.4,158,337.9,171.2,338.3,187
			c0.1,3.2,5.1,3.2,5,0c-0.3-14.1-8.7-26.7-22-31.8c-13.4-5.1-29.1-0.9-38.2,10.2c-9,10.9-10.3,26.8-3,38.9
			c7.2,12.1,21.5,18.6,35.4,16.1c16.2-2.9,27.5-17.3,27.8-33.4C343.4,183.8,338.4,183.8,338.3,187z"/>
	</g>
</g>
<g>
	<g>
		<path d="M223.3,184.7c17.3-9.5,35.4-10.3,52.5,0c2.8,1.7,5.3-2.7,2.5-4.3c-18.6-11.2-38.7-10.4-57.5,0
			C217.9,181.9,220.4,186.2,223.3,184.7L223.3,184.7z"/>
	</g>
</g>
<g>
	<g>
		<path d="M164.7,151.4c5.1-5.8,11.4-10.9,19.4-11.7c7.6-0.8,14.7,2.1,21.1,5.8c2.8,1.6,5.3-2.7,2.5-4.3c-7.6-4.4-16.1-7.6-25-6.3
			c-8.8,1.2-15.9,6.6-21.6,13C159,150.2,162.5,153.8,164.7,151.4L164.7,151.4z"/>
	</g>
</g>
<g>
	<g>
		<path d="M338.2,147.8c-5.7-6.5-12.8-11.8-21.6-13c-8.9-1.2-17.4,1.9-25,6.3c-2.8,1.6-0.3,5.9,2.5,4.3c6.4-3.7,13.6-6.7,21.1-5.8
			c8,0.9,14.3,5.9,19.4,11.7C336.8,153.8,340.3,150.2,338.2,147.8L338.2,147.8z"/>
	</g>
</g>
<g>
	<path fill="#A03838" d="M276,234c0,7-12,12.3-26.8,12.3c-14.8,0-26.8-5.3-26.8-12.3C222.3,228,276,228,276,234z"/>
	<g>
		<path d="M273.5,233.5c-0.4,6-10.3,8.2-14.9,9c-7.6,1.4-15.8,1.1-23.2-1c-3-0.9-6.4-2.1-8.6-4.3c-0.9-0.9-1.1-1.6-1.8-2.6
			c-1-1.5,0-0.4-0.3-0.2c2.1-1.1,4.7-1.4,7.1-1.8c8.3-1.2,16.8-1.2,25.2-0.8c3.7,0.2,7.4,0.4,11.1,1c1.4,0.2,2.8,0.7,4.2,1
			C273.6,233.9,273.7,235,273.5,233.5c0.3,3.2,5.4,3.2,5,0c-0.6-5.6-9.9-5.8-14-6.3c-9.4-1-19.1-1-28.5-0.2
			c-4.1,0.4-14.3,0.3-15.9,5.4c-1.2,3.7,2.2,7.7,4.9,9.6c5.2,3.8,12,5.3,18.3,5.9c10.2,1,34.4,0.1,35.4-14.5
			C278.7,230.3,273.7,230.3,273.5,233.5z"/>
	</g>
</g>
<g>
	<g>
		<path fill="#FFFFFF" d="M391.8,290.3c-4.2,12.2-14.9,36.7-27.6,52.6c-1.8,3.5-4.8,5.9-8.4,7.3c-1.4,0.7-2.8,1.2-4.4,1.4
			c-18.8,6.8-58.8,8.9-58.8,8.9l0-0.2c-3.1-0.1-22.1-1.2-23.8-15c-1.7-13.4,15.5-19.3,19.1-20.3l0-0.1c0,0,27.1-4.2,46.7-10.1
			c10-15.3,17-34.2,20.9-43.5c4.8-11.4,17.8-14.9,26.5-11C390.5,264,396,278.1,391.8,290.3z"/>
		<g>
			<path d="M389.4,289.6c-4.1,11.8-9.4,23.2-15.5,34c-3.6,6.3-7.6,12.2-11.9,18c-4.3,5.8-10.1,7.4-16.9,9.3c-17,4.6-35,6.1-52.6,7.1
				c0.8,0.8,1.7,1.7,2.5,2.5c0-0.1,0-0.2,0-0.2c-0.2-1.4-1-2.5-2.5-2.5c-7.6-0.2-18.5-2.6-21-11c-3.1-10.5,8.6-16.9,16.9-19.4
				c1.4-0.4,1.9-1.7,1.7-3.1c0,0,0-0.1,0-0.1c-0.6,1-1.2,2.1-1.7,3.1c9.7-1.5,19.3-3.4,28.9-5.5c3.5-0.8,7.1-1.6,10.6-2.6
				c2.5-0.6,6.4-0.9,8.4-2.7c2.7-2.4,4.7-7.4,6.3-10.6c1.8-3.4,3.5-6.8,5.1-10.3c2.9-6.2,5.5-12.5,8.1-18.9
				c2.5-6.2,5.4-11.8,12-14.3C385,255.8,393.7,275.6,389.4,289.6c-0.9,3.1,3.9,4.4,4.8,1.3c3.2-10.5,1.2-23.9-7.9-30.9
				c-7.6-6-19-4.6-26.3,1.1c-4.1,3.2-6.3,7.5-8.2,12.2c-2.4,5.9-4.8,11.8-7.4,17.6c-2.9,6.5-6.2,12.9-9.9,19c-3.1,5.1-13,5.7-18.5,7
				c-9.6,2.2-19.2,4-28.9,5.5c-1.4,0.2-1.9,1.9-1.7,3.1c0,0,0,0.1,0,0.1c0.6-1,1.2-2.1,1.7-3.1c-10.8,3.3-23.4,11.5-20.7,24.5
				c2.4,11.5,15.8,15.4,26,15.7c-0.8-0.8-1.7-1.7-2.5-2.5c0,0.1,0,0.2,0,0.2c0.2,1.3,1,2.6,2.5,2.5c18.9-1,38.9-2.4,57-8.2
				c5.7-1.8,11.3-3.3,15.2-8.3c4.7-6,8.9-12.5,12.7-19c6.7-11.6,12.4-23.9,16.8-36.6C395.3,287.9,390.4,286.6,389.4,289.6z"/>
		</g>
	</g>
</g>
<g>
	<g>
		<path fill="#F27833" d="M404.1,309.1c-24.8-0.2-48.4-5.3-71.1-15.3c0,0,12.8-41.9,44.7-35C409.7,265.7,404.1,309.1,404.1,309.1z"
			/>
		<g>
			<path d="M404.1,306.6c-24.1-0.3-47.7-5.3-69.8-14.9c0.4,0.9,0.8,1.9,1.1,2.8c3.8-12.4,12.3-26.1,24.4-31.6
				c10-4.5,22.6-2.4,30.7,5.1c6.9,6.4,9.9,15.9,11,24.9c0.6,5.3,0.8,10.9,0.1,16.2c-0.4,3.2,4.6,3.2,5,0
				c1.8-14.7-0.9-32.7-11.5-43.7c-7.9-8.2-20.5-11.7-31.6-9.1c-10.1,2.4-18.1,9.9-23.8,18.3c-3.8,5.6-7.1,12-9.1,18.5
				c-0.3,0.9,0.2,2.4,1.1,2.8c23,10,47.3,15.3,72.3,15.6C407.3,311.7,407.3,306.7,404.1,306.6z"/>
		</g>
	</g>
	<g>
		<path fill="#F27833" d="M393.2,309.4c-16.9,0.1-33.1-3.4-48.4-10.4c0,0,12.2-44.6,33.9-40C400.5,263.7,393.2,309.4,393.2,309.4z"
			/>
		<g>
			<path d="M393.2,306.9c-16.4,0-32.2-3.4-47.2-10.1c0.4,0.9,0.8,1.9,1.1,2.8c3.3-12,8.9-26.3,18.6-34.4c6.5-5.4,15.5-5.4,20.5,2
				c4.7,6.9,5.4,16.3,5.5,24.4c0.1,5.7-0.2,11.8-1.1,17.2c-0.5,3.1,4.3,4.5,4.8,1.3c2.2-14,3.3-32.6-4.8-45
				c-4.7-7.3-13.5-10.8-21.8-7.6c-8.8,3.5-14.7,12.6-18.8,20.7c-3.3,6.4-6,13.3-7.9,20.2c-0.3,1,0.2,2.4,1.1,2.8
				c15.8,7.1,32.4,10.7,49.7,10.8C396.5,311.9,396.5,306.9,393.2,306.9z"/>
		</g>
	</g>
</g>
<path fill="#99471D" d="M129,146.8c0,0,17.7,0.8,24.5-8.3c6.8-9.1,10-15,18.9-13.9c8.9,1.2,17-0.6,25.7-10.3s20.3,2.6,26.1,0
	c5.8-2.6,14.7-12.1,21-10.3c6.3,1.8,12.1,8.9,18.7,6.9c6.7-2,15.9-6.5,21.9-4s12.8,11.5,19.1,11.5c6.3,0,14.4-4.7,19.3,1.6
	c4.8,6.3,12.8,12.4,19.5,13.8s25.1,13.2,29.5,15.4s-16.3-78-124.3-78S130.1,142.3,129,146.8z"/>
<g>
	<g>
		<path d="M132.6,149.2c7.2-4.3,16.3-1.7,22.8-7.7c2.8-2.6,4.7-5.9,7.2-8.7c3.9-4.4,8.4-4.7,14-4.6c3.6,0,7.3,0.1,10.7-1.3
			c4.2-1.7,7.1-5.2,10.5-8.1c4.4-3.8,8.2-4.4,13.8-3.3c4,0.8,8.2,1.9,12.3,1.2c3.9-0.7,7.3-3,10.6-5c4.8-2.8,8.5-3.9,13.9-1.8
			c3.9,1.5,7.6,3.8,11.9,4.4c4.5,0.6,8.7-1,12.9-2.4c5-1.6,8.9-2,13.5,1c3.6,2.4,6.8,5.5,10.9,7.1c8.7,3.4,18.6-3.2,26.1,4
			c3,2.9,5.4,6.5,8.9,8.9c3.6,2.5,7.7,3.1,11.9,3.4c6.3,0.5,10.8,1.2,14.6,6.6c2.7,3.8,4.7,7.9,8.5,10.8c2.5,1.9,6.1-1.6,3.5-3.5
			c-6.4-5-8.2-14.3-16.3-17.3c-4.6-1.7-9.4-1.1-14.1-2c-5-0.9-7.9-4.5-11.2-8c-2.4-2.7-5-5.3-8.4-6.6c-4.5-1.7-9.3-0.6-14-0.3
			c-5.3,0.4-8.9-0.9-13.2-4c-3.5-2.6-6.9-5.5-11.3-6.3c-3.9-0.7-7.8,0.5-11.4,1.6c-6.2,2-10.5,2.5-16.6-0.2
			c-3.5-1.6-7.2-3.5-11.1-3.6c-4.2-0.2-7.9,1.7-11.5,3.8c-4.7,2.8-8.5,5.1-14.2,4.3c-4.6-0.7-9.3-2.4-14-1.6
			c-9.3,1.5-13.2,12.3-22.7,13.1c-4.9,0.4-10.1-0.6-14.9,1c-4,1.3-6.7,4.5-9.2,7.7c-3.7,4.8-6.7,8.3-12.9,9.4
			c-4.9,0.9-9.7,1.1-14.1,3.7C127.3,146.5,129.8,150.8,132.6,149.2L132.6,149.2z"/>
	</g>
</g>
<g>
	<g>
		<g>
			<path fill="#FFC3A9" d="M295.3,351.2c9.5-8.2,30.9-8.9,29.3-19.5c-3-20.1-29.4-32.8-58.9-28.4c-29.5,4.4-51.1,24.3-48.1,44.4
				c3,20.1,28.2,35.6,72.1,29C333.5,370.2,286.7,358.6,295.3,351.2z M285.2,333.2c-6,0-10.8-3-10.8-6.6c0-3.6,4.9-6.6,10.8-6.6
				s10.8,3,10.8,6.6C296,330.3,291.2,333.2,285.2,333.2z"/>
		</g>
		<g>
			<path d="M297.1,352.9c4.9-4,11.3-5.7,17.2-8c4.1-1.6,9.1-3.5,11.5-7.4c5.4-8.6-4.6-21-10.9-26c-22.2-17.6-58.6-14.3-80.9,1.3
				c-9.5,6.6-17.7,16.3-19,28.2c-1,9.3,2.9,18.4,9.5,24.9c18.6,18.2,51.6,17.3,74.9,11.5c6.2-1.5,16-5.7,9.7-13.2
				c-2.2-2.7-5.3-4.6-8-6.7c-1.2-1-2.6-1.9-3.6-3.1C296.7,353.5,296.5,353.5,297.1,352.9c2.3-2.2-1.2-5.8-3.5-3.5
				c-3.8,3.6-0.7,7.7,2.4,10.4c1.8,1.5,10.7,6.4,10.3,9.2c-0.3,2.2-6.7,3.3-8.1,3.6c-7.2,1.8-14.7,2.6-22.1,3
				c-11.8,0.6-24.1-0.4-35.1-5c-7.8-3.3-15.2-8.7-18.8-16.6c-4.2-9.2-1.9-19.4,4.2-27.2c16.1-21,50-26.9,73.9-17.9
				c6,2.3,11.8,5.7,16,10.6c2.8,3.3,7.9,10.7,5.5,15.1c-2.2,4.2-9.7,5.8-13.7,7.3c-5.1,1.9-10.1,3.9-14.4,7.4
				C291,351.4,294.6,354.9,297.1,352.9z"/>
			<path d="M285.2,330.7c-2.3-0.1-8.2-0.7-8.3-4.1c-0.2-3.2,6.4-4.1,8.3-4.1c2.2,0,8.3,0.8,8.3,4.1
				C293.5,330,287.4,330.6,285.2,330.7c-3.2,0.1-3.2,5.1,0,5c5.2-0.2,13.3-2.5,13.3-9.1c0-6.5-8.1-9.1-13.3-9.1
				c-5.2,0-12.9,2.4-13.3,8.7c-0.4,6.8,7.9,9.3,13.3,9.5C288.4,335.8,288.4,330.8,285.2,330.7z"/>
		</g>
	</g>
	<g>
		<ellipse fill="#E5454D" cx="254.5" cy="321.1" rx="8.5" ry="7.1"/>
		<g>
			<path d="M261.4,321.1c-0.5,7.3-13.9,7.4-13.9,0C247.5,313.6,260.9,313.7,261.4,321.1c0.1,1.9,3.1,1.9,3,0
				c-0.8-11.2-19.9-11.3-19.9,0c0,11.3,19.2,11.2,19.9,0C264.6,319.2,261.6,319.2,261.4,321.1z"/>
		</g>
	</g>
	<g>
		<ellipse fill="#E2C747" cx="235.5" cy="337.1" rx="8.5" ry="7.1"/>
		<g>
			<path d="M242.4,337.1c-0.5,7.3-13.9,7.4-13.9,0C228.5,329.6,241.9,329.7,242.4,337.1c0.1,1.9,3.1,1.9,3,0
				c-0.8-11.2-19.9-11.3-19.9,0c0,11.3,19.2,11.2,19.9,0C245.6,335.2,242.6,335.2,242.4,337.1z"/>
		</g>
	</g>
	<g>
		<ellipse fill="#4773E2" cx="246.5" cy="358.1" rx="8.5" ry="7.1"/>
		<g>
			<path d="M253.4,358.1c-0.5,7.3-13.9,7.4-13.9,0C239.5,350.6,252.9,350.7,253.4,358.1c0.1,1.9,3.1,1.9,3,0
				c-0.8-11.2-19.9-11.3-19.9,0c0,11.3,19.2,11.2,19.9,0C256.6,356.2,253.6,356.2,253.4,358.1z"/>
		</g>
	</g>
	<g>
		<ellipse fill="#F4E0D4" cx="274.5" cy="361.1" rx="8.5" ry="7.1"/>
		<g>
			<path d="M281.4,361.1c-0.5,7.3-13.9,7.4-13.9,0C267.5,353.6,280.9,353.7,281.4,361.1c0.1,1.9,3.1,1.9,3,0
				c-0.8-11.2-19.9-11.3-19.9,0c0,11.3,19.2,11.2,19.9,0C284.6,359.2,281.6,359.2,281.4,361.1z"/>
		</g>
	</g>
</g>
<g>
	<g>
		<path fill="#F27833" d="M184.1,66l-2.9,1.3c-4.3,1.9-9.3,0-11.2-4.3l-5.6-12.5c-1.9-4.3,0-9.3,4.3-11.2l2.9-1.3
			c4.3-1.9,9.3,0,11.2,4.3l5.6,12.5C190.3,59,188.4,64,184.1,66z"/>
		<g>
			<path d="M182.9,63.8c-3.7,1.6-7.5,2.6-10.1-1.2c-1-1.5-1.6-3.3-2.4-5c-2.3-5.1-7.4-12.5-0.4-16.3c3.1-1.6,6.9-2.6,9.6,0.3
				c1.3,1.4,2,3.7,2.8,5.4C184.6,52.3,189.9,59.9,182.9,63.8c-2.8,1.6-0.3,5.9,2.5,4.3c10.2-5.6,4.9-15.3,1.4-23.1
				c-1.7-3.9-3.2-7.6-7.5-9.4c-4.1-1.7-8.2-0.5-11.9,1.5c-10.2,5.4-4.8,15.4-1.4,23.1c1.5,3.4,2.8,6.9,6.3,8.9
				c4.5,2.6,8.7,1,13.1-0.9C188.3,66.8,185.8,62.5,182.9,63.8z"/>
		</g>
	</g>
	<g>
		<path fill="#F27833" d="M270,54.7c8.9,19.8-30.7,23.6-73.1,42.6s-71.5,46.2-80.4,26.4s18.3-51.2,60.6-70.3S261.1,35,270,54.7z"/>
		<g>
			<path d="M267.6,55.4c3.8,9.1-5.1,13.7-12.2,17c-12.5,5.8-26,9.5-39,14.3c-15,5.6-29.5,12.2-43.5,19.9c-11,6-21.7,12.7-33.1,17.8
				c-6.1,2.7-15.9,7-20.3-0.5c-4.4-7.5-1.2-17,2.8-23.9c13.5-23.4,41-38.9,65.4-48.3c15.8-6,32.9-10.3,49.9-9.7
				c11.1,0.3,25,2.9,30.3,13.9c1.4,2.9,5.7,0.4,4.3-2.5c-4.7-9.9-15.7-14.1-25.9-15.6c-15.5-2.3-31.8,0.4-46.7,4.7
				C170.3,51,138.9,67.5,121,92.8c-5.5,7.8-10.1,17.6-8.2,27.4c1.6,7.9,7.2,13.6,15.6,12.9c11-0.9,21.8-8.1,31.2-13.4
				c16.1-9,32.3-17.9,49.5-24.8c16.6-6.6,34.3-11.1,50.4-18.9c8.8-4.3,17.4-11.3,12.9-21.9C271.2,51.1,266.3,52.4,267.6,55.4z"/>
		</g>
	</g>
	<g>
		<path fill="#F27833" d="M241.3,79.4c3.8,8.4-18.1,12.3-42.4,23.2s-41.7,24.7-45.5,16.4s12.9-24,37.2-34.9S237.5,71,241.3,79.4z"/>
		<g>
			<path d="M238.9,80c1.4,3.7-5.9,6.2-8.4,7.3c-7.1,3.1-14.4,5.5-21.6,8.3c-14.3,5.6-27.4,13.2-41.2,19.9c-2.2,1.1-9.3,5.3-11.8,2.9
				c-2.7-2.7,2-8.5,3.5-10.4c9.5-11.4,24.4-18.9,38-24.3c8.3-3.3,17.2-6,26.1-6.8c4.5-0.4,13-1.2,15.5,3.7c1.5,2.9,5.8,0.3,4.3-2.5
				c-2.5-4.7-8-6-12.9-6.3c-8.9-0.6-18.1,1.6-26.5,4.3c-17.2,5.5-36.6,14.6-48.5,28.8c-2.9,3.5-5.9,8.1-5.2,12.9
				c0.7,4.2,4,6.5,8.2,6.1c6.4-0.5,12.9-4.6,18.4-7.5c9.8-5.1,19.5-10.3,29.7-14.5c9.7-4,20.1-6.9,29.5-11.7
				c4.3-2.2,9.6-5.9,7.5-11.5C242.6,75.7,237.7,77,238.9,80z"/>
		</g>
	</g>
</g>
<g>
	<g>
		<path fill="#FCB9A4" d="M77.3,313.7c2.9,7.1,2.5,13.9-0.9,15.3c-3.3,1.4-8.4-3.3-11.2-10.4c-2.9-7.1,0.9-15.3,0.9-15.3
			S74.5,306.6,77.3,313.7z"/>
		<g>
			<path d="M74.9,314.3c1,2.7,3.2,8.2,1.5,10.9c-2.3,3.7-6.3-2.7-7.3-4.4c-2.9-5.1-3-11.4-0.8-16.3c-0.9,0.4-1.9,0.8-2.8,1.1
				c3.2,1.3,7.8,5.1,9.7,9.2c1.3,2.9,5.7,0.4,4.3-2.5c-2.5-5.4-7.3-9.3-12.7-11.5c-0.9-0.4-2.4,0.2-2.8,1.1
				c-4.1,9.3-2.4,21.2,6.1,27.6c2.9,2.2,6.9,3,9.6,0c3.8-4.3,1.8-11.9,0.1-16.6C78.7,310,73.8,311.3,74.9,314.3z"/>
		</g>
	</g>
	<g>
		<path fill="#A34A31" d="M96.4,378.4L96.4,378.4c-2.3,0.9-4.9-0.2-5.9-2.5L72,330.3l8.3-3.4l18.5,45.6
			C99.8,374.9,98.7,377.5,96.4,378.4z"/>
		<g>
			<path d="M95.7,376c-3.3,1.3-4.7-5.5-5.4-7.2c-2.1-5.3-4.3-10.6-6.4-15.9c-3.1-7.8-6.3-15.5-9.4-23.3c-0.6,1-1.2,2.1-1.7,3.1
				c2.8-1.1,5.6-2.2,8.3-3.4c-1-0.6-2.1-1.2-3.1-1.7c3.1,7.8,6.3,15.5,9.4,23.3c2.1,5.2,4.2,10.4,6.3,15.6c0.8,2,4.6,8,1.4,9.8
				c-2.8,1.6-0.3,5.9,2.5,4.3c4.5-2.6,4.4-6.7,2.7-11c-2.1-5.2-4.2-10.3-6.3-15.5c-3.8-9.3-7.5-18.6-11.3-27.9
				c-0.5-1.1-1.7-2.3-3.1-1.7c-2.8,1.1-5.6,2.2-8.3,3.4c-1.1,0.5-2.3,1.7-1.7,3.1c3.9,9.6,7.8,19.2,11.6,28.8c2,5,4,10,6.1,15
				c1.6,3.9,4.8,8.1,9.7,6.1C100,379.6,98.7,374.8,95.7,376z"/>
		</g>
	</g>
</g>
</svg>
