<?xml version="1.0" encoding="utf-8"?>
<!-- Generator: Adobe Illustrator 18.1.1, SVG Export Plug-In . SVG Version: 6.00 Build 0)  -->
<svg version="1.1" id="Layer_1" xmlns="http://www.w3.org/2000/svg" xmlns:xlink="http://www.w3.org/1999/xlink" x="0px" y="0px"
	 viewBox="0 0 500 500" enable-background="new 0 0 500 500" xml:space="preserve">
<path fill="#4E6C9B" d="M110.8,150.8c-3.1-27,7.3-75.3,14-84.9s26.1-3.9,52,1.2s79.6-4.9,117.3-4.2s36.2,13.1,36.2,13.1
	s23.2,4.8,35.6,12.6c12.3,7.8,13.9,18.1,14.7,26.5c0.8,8.4,3.5,55.3,2.3,67.4c-1.2,12.1-7.1,13.8-7.1,13.8s-0.6-10.8-1.4-16.4
	s-12.6-38.4-12.6-38.4s-21.4-4.4-32.9-8.9s-26.8-18.3-26.8-18.3s-22,7.4-27.4,8.4s-25,3.1-53.5,5c-28.5,1.9-69.7-6.6-69.7-6.6
	s-11.3,17.6-15.8,28.5c-4.5,11-11,48-11,48s-3.4,4.9-7-4.6S110.8,150.8,110.8,150.8z"/>
<path fill="#FFFFFF" d="M389.7,357.2c-0.3-6.5-2.8-19.4-5.8-34.4l-0.1-0.5c-3.2-16-6.9-35.9-7.1-44.6c-0.1-5.4,0.3-13.2,0.3-21.4
	v-0.4c0-16.9-0.1-40.1-1.7-55.3c-1.3-12.5-6.1-44-20.8-67.6c-13.6-21.8-30.2-35.9-51.9-44.7c-19.9-8-56.3-8.9-57.3-8.9
	c-9.3,0-33.2,0.8-53,8.8c-21.7,8.8-38.1,23-51.8,44.8c-14.7,23.5-19.4,55.1-20.7,67.6c-1.6,15.2-1.5,38.4-1.3,55.3l0,3.9
	c0,6.8,0,13.3-0.1,17.9c-0.2,8.8-4.2,28.6-7.4,44.6l-0.2,0.6c-3,14.9-5.5,27.8-5.8,34.3c-0.6,16.6,4.1,27.8,16.1,38.7
	c7.7,7,15.2,10.2,23.4,10.2c4.5,0,8.5-0.9,12.8-2c1.2-0.3,2.4-0.7,3.7-1.2c4.4,2.4,12.6,6,23.5,6c7.1,0,15.3-1.5,24.2-5.8
	c5.1,4.2,10.5,8.2,10.5,8.2c13.9,7.9,25.9,9.6,27.7,9.6h0.4c1.8,0,13.8-1.1,28.2-9.6c0,0,4.7-3.4,9.5-7.3c8.3,3.7,15.9,5,22.5,5
	c11.8,0,20.5-4.2,24.5-6.6c1.9,0.8,3.6,1.4,5.3,1.8c4.4,1.1,8.4,2,12.8,2c8.4,0,15.6-3.2,23.4-10.2
	C385.7,385.1,390.3,373.9,389.7,357.2z"/>
<path fill="#293F6B" d="M393.7,357.2c-0.3-6.5-2.8-19.4-5.8-34.4l-0.1-0.5c-3.2-16-7.4-35.9-7.6-44.6c-0.1-5.4-0.2-13.2-0.2-21.4
	v-14.7c0.2,15.1-256,18.7-256.2,3.6l-1.5,14.6c0,6.8,0.1,13.3,0,17.9c-0.2,8.8-4.2,28.6-7.4,44.6l-0.1,0.6
	c-3,14.9-5.5,27.8-5.8,34.3c-0.6,16.6,4.1,27.8,16.1,38.7c7.7,7,15.2,10.2,23.4,10.2c4.5,0,8.5-0.9,12.8-2c1.2-0.3,2.4-0.7,3.7-1.2
	c4.4,2.4,12.6,6,23.5,6c7.1,0,15.3-1.5,24.2-5.8c5.1,4.2,10.5,8.7,10.5,8.7c13.9,7.9,25.9,10.1,27.7,10.1h0.4
	c1.8,0,13.8-1.6,28.2-10.1c0,0,4.7-3.7,9.5-7.5c8.3,3.7,15.9,4.8,22.5,4.8c11.8,0,20.5-4.3,24.5-6.7c1.9,0.8,3.6,1.3,5.3,1.7
	c4.4,1.1,8.4,1.9,12.8,1.9c8.4,0,15.6-3.2,23.4-10.2C389.7,385.1,394.3,373.9,393.7,357.2z"/>
<path fill="#C8C8C8" d="M288.4,401.1c0,0,8.6-6.5,18.1-7.6c9.5-1.1,25.7,5.9,25.7,5.9s-5.3,10.8-15.4,10.5S288.4,401.1,288.4,401.1z
	"/>
<path fill="#C8C8C8" d="M163.1,401.1c0,0,8.6-6.5,18.1-7.6c9.5-1.1,25.7,5.9,25.7,5.9s-5.3,10.8-15.4,10.5
	C181.4,409.8,163.1,401.1,163.1,401.1z"/>
<path d="M395.4,359.6c-0.3-6.6-2.9-19.8-5.9-35.1l-0.1-0.6c-3.3-16.3-6.8-36.6-7-45.5c-0.1-5.6,0.6-13.5,0.6-21.9v-0.4
	c0-17.3-0.4-40.9-2-56.5c-1.3-12.7-6.4-44.9-21.4-69c-13.9-22.3-30.9-36.7-53-45.6c-20.3-8.2-57.5-9.1-58.6-9.1
	c-9.5,0-33.9,0.8-54.2,9c-22.1,9-39,23.5-52.9,45.7c-15,24-19.8,56.3-21.1,69c-1.7,15.6-1.5,39.2-1.4,56.5l0,4c0,7,0,13.5-0.1,18.3
	c-0.2,9-4.3,29.2-7.6,45.5l-0.2,0.7c-3,15.3-5.7,28.4-5.9,35c-0.6,17,4.1,28.4,16.4,39.5c7.9,7.1,15.5,10.4,23.9,10.4
	c4.6,0,8.6-0.9,13.1-2c1.2-0.3,2.5-0.7,3.8-1.2c4.4,2.5,12.9,6.1,24,6.1c7.2,0,15.6-1.5,24.8-5.9c5.3,4.3,10.7,8,10.8,8.1
	c14.2,8.1,26.5,9.5,28.3,9.5h0.4c1.8,0,14-0.8,28.8-9.5c0,0,4.8-3.3,9.7-7.3c8.5,3.8,16.2,5.2,23,5.2c12.1,0,21-4.3,25-6.7
	c1.9,0.8,3.7,1.4,5.4,1.8c4.5,1.1,8.5,2,13.1,2c8.6,0,15.9-3.2,23.9-10.4C391.3,388,396.1,376.5,395.4,359.6z M171.4,402.3
	c6.5-2.8,14.7-6,21.7-6c4.7,0,8.2,1.4,11.2,4.4l0.2,0.2C190.3,406.8,178.7,404.9,171.4,402.3z M295.1,401.7c0.3-0.3,0.6-0.6,0.9-0.9
	c3.1-3.1,6.5-4.5,11.2-4.5c6.6,0,14.1,2.7,20.4,5.4C320.7,404.5,309.2,406.9,295.1,401.7z M373.7,393.2c-6.5,5.9-12,8.4-18.6,8.4
	c-3.6,0-7.1-0.8-11.2-1.8c-2.2-0.5-4.9-1.7-8.3-3.2l-0.6-0.3c-7.6-3.4-18.1-8-27.9-8c-6.8,0-12.3,2.2-16.8,6.8
	c-11.9,12.1-23.7,17-31.5,18.9c-0.2,0.1-7.7,2.1-16.5-0.3c-8.8-2.4-20.7-6.6-32.5-18.6c-4.5-4.6-10-6.8-16.8-6.8
	c-9.7,0-20.1,4.6-27.9,8l-0.3,0.2c-3.5,1.6-6.3,2.8-8.6,3.4c-4.1,1-7.5,1.8-11.2,1.8c-6.5,0-12.2-2.6-18.6-8.4
	c-10.6-9.6-14.4-18.7-13.8-33.4c0.2-6,2.8-18.9,5.8-33.8l0.1-0.7c3.5-17.4,7.5-37.2,7.7-46.9c0.1-4.9,0.1-11.5,0.1-18.5l0-4
	c-0.1-17.1-0.3-40.5,1.3-55.6c1.3-12.2,5.8-43,20-65.6c13-20.8,28.6-34.3,49.1-42.6c19-7.7,42.1-8.8,51.2-8.8
	c0.8,0,36.5,0.9,55.5,8.5c20.5,8.3,36.1,22,49.1,42.8c14.2,22.7,19.2,53.5,20.5,65.7c1.6,15.1,1.9,38.6,1.9,55.7v0.4
	c0,8.4-0.7,16.4-0.5,22.1c0.3,9.6,4,29.4,7.5,46.9l0,0.6c3,15,5.5,27.9,5.7,33.9C388.2,374.6,384.4,383.6,373.7,393.2z"/>
<path d="M330.2,187.3c0,11.4-9.3,20.7-20.7,20.7s-20.7-9.3-20.7-20.7c0-1,0.1-1.9,0.2-2.9c1.3,0.9,2.8,1.4,4.4,1.4
	c4.3,0,7.8-3.5,7.8-7.8c0-3.1-1.8-5.8-4.5-7c3.5-2.7,7.9-4.4,12.7-4.4C320.9,166.6,330.2,175.8,330.2,187.3z"/>
<path d="M211.2,187.3c0,11.4-9.3,20.7-20.7,20.7c-11.4,0-20.7-9.3-20.7-20.7c0-1,0.1-1.9,0.2-2.9c1.3,0.9,2.8,1.4,4.4,1.4
	c4.3,0,7.8-3.5,7.8-7.8c0-3.1-1.8-5.8-4.5-7c3.5-2.7,7.9-4.4,12.7-4.4C201.9,166.6,211.2,175.8,211.2,187.3z"/>
<path d="M241.1,236.9c14.3,7.4,30.1,3.4,39.4-9.6c2.1-3-2.8-5.9-4.9-3c-7.3,10.4-20.2,13.6-31.5,7.7
	C240.8,230.3,237.9,235.2,241.1,236.9L241.1,236.9z"/>
<ellipse transform="matrix(0.7169 -0.6971 0.6971 0.7169 -112.9338 175.5088)" fill="#F68694" cx="159.7" cy="226.8" rx="8" ry="3.6"/>
<ellipse transform="matrix(0.7169 -0.6971 0.6971 0.7169 -109.5173 186.4544)" fill="#F68694" cx="174.8" cy="228.1" rx="8" ry="3.6"/>
<ellipse transform="matrix(0.7169 -0.6971 0.6971 0.7169 -105.2185 197.0418)" fill="#F68694" cx="190" cy="228.1" rx="8" ry="3.6"/>
<ellipse transform="matrix(-0.7169 -0.6971 0.6971 -0.7169 425.8532 629.0911)" fill="#F68694" cx="340.6" cy="228.1" rx="8" ry="3.6"/>
<ellipse transform="matrix(-0.7169 -0.6971 0.6971 -0.7169 398.8955 620.6766)" fill="#F68694" cx="325.5" cy="229.4" rx="8" ry="3.6"/>
<ellipse transform="matrix(-0.7169 -0.6971 0.6971 -0.7169 372.8202 610.0892)" fill="#F68694" cx="310.3" cy="229.4" rx="8" ry="3.6"/>
<g id="Layer_2">
</g>
<g>
	<g>
		<path d="M174.2,143.1c9.8,7.3,20.4,13.2,31.7,17.8c3,1.2,4.3-3.6,1.3-4.8c-10.9-4.5-21.1-10.3-30.5-17.3
			C174.1,136.9,171.7,141.2,174.2,143.1L174.2,143.1z"/>
	</g>
</g>
<polygon fill="#FFFFFF" points="232,287.7 207.8,254.5 281,254 260.3,288.8 254,266.8 249.4,260 243.4,257.6 240.4,262.3 238,267 
	"/>
<g>
	<g>
		<path d="M294.1,153.2c8.6-9,21.3-11.2,32.3-5.4c2.8,1.5,5.4-2.8,2.5-4.3c-13-6.8-28.2-4.5-38.4,6.1
			C288.3,152,291.8,155.6,294.1,153.2L294.1,153.2z"/>
	</g>
</g>
<g>
	<g>
		<path d="M122.7,248.4c66.5,10.9,134.4,12.6,201.4,5c18.8-2.1,37.5-5,56.1-8.6c3.2-0.6,1.8-5.4-1.3-4.8
			c-65.1,12.5-131.8,16-197.8,10.6c-19.1-1.6-38.1-3.9-57-7C120.9,243.1,119.6,247.9,122.7,248.4L122.7,248.4z"/>
	</g>
</g>
<g>
	<g>
		<path d="M111.6,334.4C182,350.5,255,347.6,326,336.9c20.5-3.1,40.9-6.8,61.2-11c2.3-0.5,2.4-4.4,0-4.8c-0.6-0.1-1.2-0.2-1.9-0.3
			c-3.1-0.5-4.5,4.3-1.3,4.8c0.6,0.1,1.2,0.2,1.9,0.3c0-1.6,0-3.2,0-4.8c-69.8,14.2-141.4,24-212.7,17.9
			c-20.3-1.7-40.4-4.8-60.3-9.4C109.8,328.9,108.4,333.7,111.6,334.4L111.6,334.4z"/>
	</g>
</g>
<g>
	<g>
		<path d="M242.5,305.4c-0.1,11.9-0.1,23.8,0,35.6c0,3.2,5,3.2,5,0c-0.1-11.9-0.1-23.8,0-35.6C247.5,302.2,242.5,302.2,242.5,305.4
			L242.5,305.4z"/>
	</g>
</g>
<g>
	<path fill="#152538" d="M258.8,332.8L258.8,332.8c-3.1,0-5.7-2.6-5.7-5.7v0c0-3.1,2.5-5.7,5.7-5.7h0c3.1,0,5.7,2.5,5.7,5.7v0
		C264.5,330.3,262,332.8,258.8,332.8z"/>
	<g>
		<path d="M258.8,331.3c-5.4,0-5.4-8.3,0-8.3C264.3,323,264.2,331,258.8,331.3c-1.9,0.1-1.9,3.1,0,3c3.9-0.2,7.2-3.1,7.2-7.2
			c0-3.9-3.3-7.2-7.2-7.2c-3.9,0-7.2,3.3-7.2,7.2c0,3.9,3.3,7.2,7.2,7.2C260.8,334.3,260.8,331.3,258.8,331.3z"/>
	</g>
</g>
<path d="M242,343c0,24,0,48,0,72c0,3.2,5,3.2,5,0c0-24,0-48,0-72C247,339.8,242,339.8,242,343L242,343z"/>
<path fill="#4E6C9B" d="M144.8,118.2c0,0,30.4,7.9,64,8.2c33.6,0.3,53.3-1.5,66.2-5c12.9-3.5,25.8-6.5,25.8-6.5s-1.7-2.3,11.3,5.8
	s30.7,20.3,40.6,19.6s15.2-2.4,15.2-2.4s-17.5-49.4-67-59.2S168.9,65.1,144.8,118.2z"/>
<g>
	<g>
		<path d="M136.4,118.9c5.3,3.2,11.4,4.2,17.4,5.3c6.7,1.2,13.5,2.3,20.3,3.2c14.6,1.9,29.4,3,44.2,2.9c28.6-0.1,57.3-4.5,84.1-14.7
			c3-1.1,1.7-6-1.3-4.8c-25.9,9.8-53.3,14.2-81,14.5c-13.6,0.1-27.1-0.7-40.6-2.3c-7-0.8-13.9-1.8-20.8-3.1
			c-6.6-1.2-14-1.8-19.8-5.4C136.1,112.9,133.6,117.2,136.4,118.9L136.4,118.9z"/>
	</g>
</g>
<g>
	<g>
		<path d="M300.3,115c9.7,8.4,21.5,15.6,33.2,20.7c11.5,5,23.8,7.4,36.3,5.4c3.2-0.5,1.8-5.3-1.3-4.8c-12.3,1.9-24.6-1.1-35.7-6.4
			c-10.1-4.8-20.5-11.1-29-18.4C301.5,109.4,297.9,112.9,300.3,115L300.3,115z"/>
	</g>
</g>
<g>
	<g>
		<path d="M331.7,80.5c7-1,13.8,1.5,20.2,4c5.9,2.2,11.8,4.7,16.3,9.2c7.7,7.6,10.1,19.1,11,29.4c1.2,12.5,1,25.2,1.1,37.8
			c0.1,12,1.5,24.8-3.2,36.2c-1.2,3,3.6,4.3,4.8,1.3c5.3-12.8,3.5-27.8,3.3-41.4c-0.1-14,0.2-28.3-2.2-42.2
			c-1.9-10.9-6.3-21.6-15.6-28.2c-5.3-3.8-11.6-6.1-17.6-8.2c-6.5-2.3-12.7-3.7-19.5-2.7C327.2,76.2,328.5,81,331.7,80.5L331.7,80.5
			z"/>
	</g>
</g>
<g>
	<g>
		<path d="M332.7,78.1c0.1-10.9-13.6-14-21.9-15.6c-12-2.3-24.3-2.9-36.5-2.7c-25.8,0.4-51.3,4.6-77.1,5.2
			c-12.6,0.3-25.3-0.3-37.7-2.8c-10.7-2.1-22.6-7.1-32.7-0.2c-8.2,5.7-12,16.2-14.4,25.5c-3.1,12.1-4.1,24.8-4.8,37.2
			c-1.5,26.9,0.6,54.9,12.1,79.6c1.4,2.9,5.7,0.4,4.3-2.5c-9.4-20.3-12-43.1-11.8-65.3c0.1-11.4,0.8-23,2.4-34.4
			c1.5-10.4,3.7-22,9.9-30.7c8-11.3,19.6-7.5,31.1-5c10.5,2.3,21.2,3.3,32,3.5c22.2,0.4,44.3-2.6,66.4-4.2c12.3-0.9,24.7-1.4,37-0.7
			c6.8,0.4,13.5,1.2,20.2,2.6c5.4,1.1,16.5,3,16.5,10.4C327.7,81.4,332.7,81.4,332.7,78.1L332.7,78.1z"/>
	</g>
</g>
<polyline fill="#EF4848" points="233,286.6 238.4,264.8 245.6,258.4 252.3,264.8 258.6,285.8 245.8,304.2 "/>
<g>
	<g>
		<path d="M247.9,306c5.7-8.5,12.2-16.4,18.5-24.5c6.4-8.3,12.5-16.9,18.6-25.5c1.9-2.6-2.5-5.1-4.3-2.5c-6.4,9.1-12.9,18.2-19.8,27
			c-5.9,7.6-12,15-17.3,23C241.8,306.2,246.1,308.7,247.9,306L247.9,306z"/>
	</g>
</g>
<g>
	<g>
		<path d="M204.4,257.2c7.1,8.1,14,16.3,20.8,24.7c6.3,7.8,11.6,16.6,18.3,24c2.1,2.4,5.7-1.1,3.5-3.5c-6.7-7.4-12-16.2-18.3-24
			c-6.8-8.4-13.7-16.6-20.8-24.7C205.8,251.3,202.3,254.8,204.4,257.2L204.4,257.2z"/>
	</g>
</g>
<g>
	<g>
		<path d="M204.9,254.3c-5,9.9-12.3,18.5-17.9,28c-0.8,1.3-0.1,3.4,1.5,3.7c10,1.8,19.9,4.6,29.5,7.9c9.1,3.1,18,7,25.3,13.3
			c2.4,2.1,6-1.4,3.5-3.5c-15.3-13.1-37.6-19-57.1-22.5c0.5,1.2,1,2.4,1.5,3.7c5.7-9.5,12.9-18.1,17.9-28
			C210.6,253.9,206.3,251.4,204.9,254.3L204.9,254.3z"/>
	</g>
</g>
<g>
	<g>
		<path d="M281.3,257.8c5,9.8,12.1,18.3,17.8,27.8c0.5-1.2,1-2.4,1.5-3.7c-19.3,3.5-41.4,9.3-56.5,22.3c-2.4,2.1,1.1,5.6,3.5,3.5
			c7.4-6.4,16.4-10.3,25.6-13.4c9.4-3.2,19-5.9,28.7-7.7c1.6-0.3,2.3-2.4,1.5-3.7c-5.6-9.5-12.8-18-17.8-27.8
			C284.1,252.4,279.8,254.9,281.3,257.8L281.3,257.8z"/>
	</g>
</g>
<g>
	<g>
		<path d="M244.4,256.4c-7,6.7-14.1,13.4-21.1,20.2c0.8,0.5,1.7,1,2.5,1.5c0.1-0.2,0.2-0.4,0.4-0.7c1.2-1.5-0.9-3.6-2.1-2.1
			c-0.6,0.7-0.8,1.1-1.1,2c-0.5,1.5,1.5,2.4,2.5,1.5c7-6.7,14.1-13.4,21.1-20.2C247.9,257.2,245.8,255,244.4,256.4L244.4,256.4z"/>
	</g>
</g>
<g>
	<g>
		<path d="M244.5,258.6c6.6,7,13.2,14,19.8,20.9c1.3,1.4,3.4-0.7,2.1-2.1c-6.6-7-13.2-14-19.8-20.9
			C245.3,255.1,243.2,257.2,244.5,258.6L244.5,258.6z"/>
	</g>
</g>
<g>
	<g>
		<path d="M237,264c-1.8,7-3.6,13.9-5.4,20.9c-0.5,1.9,2.4,2.7,2.9,0.8c1.8-7,3.6-13.9,5.4-20.9C240.3,262.9,237.4,262.1,237,264
			L237,264z"/>
	</g>
</g>
<g>
	<g>
		<path d="M251.5,266.5c2.4,7.1,4.5,14.3,6.1,21.6c0.4,1.9,3.3,1.1,2.9-0.8c-1.7-7.3-3.7-14.5-6.1-21.6
			C253.8,263.8,250.9,264.6,251.5,266.5L251.5,266.5z"/>
	</g>
</g>
<g>
	<g>
		<path fill="#FFFFFF" d="M301.3,284.2c-3.9-10.8-23.3-14.9-38.9-10.4l14.1,39.3C292.1,308.6,305.2,295,301.3,284.2z"/>
		<g>
			<path d="M303.7,283.5c-6.3-15.3-28.5-15.8-41.9-12.1c-1.2,0.3-2.2,1.8-1.7,3.1c4.7,13.1,9.4,26.2,14.1,39.3
				c0.4,1.2,1.7,2.2,3.1,1.7C289.8,311.6,308.5,299.3,303.7,283.5c-0.9-3.1-5.8-1.8-4.8,1.3c3.9,12.8-13.1,22.7-23,25.8
				c1,0.6,2.1,1.2,3.1,1.7c-4.7-13.1-9.4-26.2-14.1-39.3c-0.6,1-1.2,2.1-1.7,3.1c10.3-2.8,30.7-3.7,35.8,8.6
				C300,287.8,304.9,286.5,303.7,283.5z"/>
		</g>
	</g>
	<g>
		<path fill="#293F6B" d="M113.9,276.6c1,5.6,4.4,10.9,10,14.5l61.3,38.9c8.2,5.2,18.9,5.4,27.4,1.4c0.2-0.1,0.5-0.2,0.7-0.3
			l63.1-18.1l-14-39.1l-55,11.9c-1.4,0.3-2.8,0.1-3.9-0.7l-48.5-30.8c-11.4-7.2-27.6-4.9-36.2,5.2
			C114.4,264.7,112.9,270.8,113.9,276.6z"/>
		<g>
			<path d="M111.5,277.2c2.7,12.7,14.6,18.2,24.6,24.5c12.6,8,25.2,16,37.8,24c3.3,2.1,6.5,4.2,9.8,6.2c8,4.8,17.7,6.1,26.6,3
				c10.2-3.5,20.5-6.3,30.9-9.3c11.9-3.4,23.9-6.8,35.8-10.3c1.2-0.4,2.2-1.8,1.7-3.1c-4.7-13-9.4-26-14-39.1
				c-0.5-1.3-1.7-2.1-3.1-1.7c-9.5,2.1-19,4.1-28.5,6.2c-6.3,1.4-12.6,2.7-18.8,4.1c-2.8,0.6-6.9,2.4-9.8,1.2
				c-2.9-1.2-5.7-3.6-8.3-5.3c-5.7-3.6-11.4-7.3-17.1-10.9c-8-5.1-15.9-10.7-24.2-15.3C136.2,241.1,108.3,253.9,111.5,277.2
				c0.4,3.2,5.2,1.8,4.8-1.3c-1.7-12.7,9.7-22.2,21.5-23.1c6.4-0.5,12,1.4,17.3,4.7c9.4,5.9,18.8,11.9,28.2,17.9
				c4.8,3,9.5,6,14.3,9.1c2.5,1.6,5.3,3.9,8.4,4c2.7,0.1,5.8-1,8.4-1.6c5.9-1.3,11.8-2.6,17.8-3.8c10.3-2.2,20.6-4.5,30.9-6.7
				c-1-0.6-2.1-1.2-3.1-1.7c4.7,13,9.4,26,14,39.1c0.6-1,1.2-2.1,1.7-3.1c-20.6,5.9-41.4,11.3-61.9,17.7c-9,2.8-17,5.1-26,0.2
				c-2.5-1.4-4.9-3.1-7.3-4.6c-11.7-7.4-23.4-14.8-35.1-22.3c-10-6.3-26.5-13.2-29.2-25.9C115.6,272.8,110.8,274.1,111.5,277.2z"/>
		</g>
	</g>
</g>
<g>
	<g>
		<path fill="#FFFFFF" d="M198.9,281.1c3.9-10.8,23.3-14.9,38.9-10.4L223.7,310C208.1,305.4,195,291.9,198.9,281.1z"/>
		<g>
			<path d="M201.3,281.7c5.1-12.4,25.5-11.4,35.8-8.6c-0.6-1-1.2-2.1-1.7-3.1c-4.7,13.1-9.4,26.2-14.1,39.3c1-0.6,2.1-1.2,3.1-1.7
				C214.4,304.5,197.4,294.6,201.3,281.7c0.9-3.1-3.9-4.4-4.8-1.3c-4.9,15.8,13.9,28,26.5,32c1.4,0.4,2.6-0.5,3.1-1.7
				c4.7-13.1,9.4-26.2,14.1-39.3c0.5-1.3-0.5-2.7-1.7-3.1c-13.5-3.7-35.7-3.2-41.9,12.1C195.3,283.4,200.1,284.7,201.3,281.7z"/>
		</g>
	</g>
	<g>
		<path fill="#293F6B" d="M386.3,273.4c-1,5.6-4.4,10.9-10,14.5L315,326.8c-8.2,5.2-18.9,5.4-27.4,1.4c-0.2-0.1-0.5-0.2-0.7-0.3
			l-63.1-18.1l14-39.1l55,11.9c1.4,0.3,2.8,0.1,3.9-0.7l48.5-30.8c11.4-7.2,27.6-4.9,36.2,5.2C385.7,261.6,387.3,267.7,386.3,273.4z
			"/>
		<g>
			<path d="M383.9,272.8c-2.5,11.8-16,17.5-25.3,23.4c-11.8,7.5-23.7,15-35.5,22.5c-3.1,1.9-6.1,4-9.2,5.8c-9,5.5-17.1,4.1-26.5,1
				c-9.9-3.2-20-5.7-30-8.6c-11-3.1-22-6.3-33-9.4c0.6,1,1.2,2.1,1.7,3.1c4.7-13,9.4-26,14-39.1c-1,0.6-2.1,1.2-3.1,1.7
				c18.2,3.9,36.4,8.9,54.8,11.9c3.4,0.6,5.6-0.6,8.4-2.3c4.2-2.7,8.4-5.3,12.5-8c10.1-6.4,20.2-12.8,30.3-19.2
				c5.1-3.2,10.2-5.9,16.5-6C372.3,249.4,385.8,258.9,383.9,272.8c-0.4,3.1,4.4,4.5,4.8,1.3c2.8-20.4-18.8-33.5-37.2-28.3
				c-9.4,2.7-18.3,10.2-26.4,15.3c-5.7,3.6-11.4,7.2-17.1,10.8c-3.8,2.4-7.6,5.4-11.7,7.4c-2.6,1.3-4.4,0.6-7.1,0
				c-5.7-1.2-11.3-2.4-17-3.7c-11.3-2.4-22.5-4.9-33.8-7.3c-1.4-0.3-2.6,0.4-3.1,1.7c-4.7,13-9.4,26-14,39.1
				c-0.5,1.3,0.5,2.7,1.7,3.1c10,2.9,20.1,5.7,30.1,8.6c10.9,3.1,22.1,5.7,32.8,9.4c9.8,3.3,19.3,4.7,28.8-0.5
				c2.7-1.5,5.3-3.3,7.9-4.9c12.3-7.8,24.6-15.6,36.9-23.4c10.9-6.9,26.2-13.5,29.1-27.4C389.4,271,384.6,269.6,383.9,272.8z"/>
		</g>
	</g>
</g>
<g>
	<path fill="#152538" d="M246,293.4L246,293.4c-3.1,0-5.7-2.5-5.7-5.7l0,0c0-3.1,2.6-5.7,5.7-5.7l0,0c3.1,0,5.7,2.6,5.7,5.7l0,0
		C251.7,290.8,249.1,293.4,246,293.4z"/>
	<g>
		<path d="M246,291.9c-5.4,0-5.4-8.3,0-8.3C251.4,283.5,251.3,291.6,246,291.9c-1.9,0.1-1.9,3.1,0,3c3.9-0.2,7.2-3.1,7.2-7.2
			c0-3.9-3.3-7.2-7.2-7.2c-3.9,0-7.2,3.3-7.2,7.2c0,3.9,3.3,7.2,7.2,7.2C247.9,294.9,247.9,291.9,246,291.9z"/>
	</g>
</g>
<g>
	<g>
		<path fill="#FFFFFF" d="M139,73.6c10.2,1.4,19.6,6.1,30,5.8c3.2-0.1,3.2-5.1,0-5c-9.9,0.3-19-4.3-28.7-5.6
			C137.2,68.3,135.8,73.1,139,73.6L139,73.6z"/>
	</g>
</g>
<g>
	<g>
		<path fill="#FFFFFF" d="M178.5,79c0.1,0,0.1,0,0.2,0c1.3,0,2.6-1.1,2.5-2.5c-0.1-1.4-1.1-2.5-2.5-2.5c-0.1,0-0.1,0-0.2,0
			c-1.3,0-2.6,1.1-2.5,2.5C176.1,77.9,177.1,79,178.5,79L178.5,79z"/>
	</g>
</g>
<path d="M223,344c0,9.8,0,19.6,0,29.4c0,1.4,1.3,2.6,2.7,2.6c6.1,0,12.2,0,18.3,0c3.2,0,3.2-5,0-5c-6.1,0-12.2,0-18.3,0
	c0.8,1,1.3,1.6,2.3,2.4c0-9.8,0-19.6,0-29.4C228,340.8,223,340.8,223,344L223,344z"/>
</svg>
