<?xml version="1.0" encoding="utf-8"?>
<!-- Generator: Adobe Illustrator 18.1.1, SVG Export Plug-In . SVG Version: 6.00 Build 0)  -->
<svg version="1.1" id="Layer_1" xmlns="http://www.w3.org/2000/svg" xmlns:xlink="http://www.w3.org/1999/xlink" x="0px" y="0px"
	 viewBox="0 0 500 500" enable-background="new 0 0 500 500" xml:space="preserve">
<g>
	<g>
		<path fill="#7788ED" d="M403,232H98.2c0,0-37.7-183,152.4-183S403,232,403,232z"/>
		<g>
			<path d="M403,229c-34.4,0-68.9,0-103.3,0c-54.6,0-109.3,0-163.9,0c-12.5,0-25.1,0-37.6,0c0.8,0.6,1.6,1.2,2.4,1.8
				c-4-19.3-3.9-40.5-1.5-60.2c4.8-39.3,23.1-76.3,57.6-97.4c24.3-14.9,53.1-20.7,81.3-22c30.8-1.4,63,1.5,91.4,14.1
				c20.1,8.9,37.6,22.8,50,41c10.6,15.6,17.2,33.5,20.8,51.9c4.6,23.6,4.2,48,0.7,71.4c-0.1,0.4-0.1,0.8-0.2,1.2
				c-0.6,3.1,4.2,4.5,4.8,1.3c4.2-20.7,4.1-43,1.4-63.8c-5.4-40.6-24.7-78.3-60.6-99.9c-24.7-14.8-53.8-20.8-82.3-22.2
				c-31.2-1.5-63.8,1.6-92.8,14c-21,9-39.3,23.2-52.5,42c-11.1,15.8-18.2,34.2-22,53c-3.3,16-4.4,32.4-3.8,48.7
				c0.3,8.8,0.5,18.4,2.7,27c0.1,0.4,0.1,0.8,0.2,1.2c0.2,1.1,1.4,1.8,2.4,1.8c34.4,0,68.9,0,103.3,0c54.6,0,109.3,0,163.9,0
				c12.5,0,25.1,0,37.6,0C406.2,234,406.2,229,403,229z"/>
		</g>
	</g>
	<g>
		
			<linearGradient id="SVGID_1_" gradientUnits="userSpaceOnUse" x1="160.3783" y1="212.637" x2="162.25" y2="212.637" gradientTransform="matrix(-1 0 0 1 552.25 0)">
			<stop  offset="0" style="stop-color:#FFFFFF"/>
			<stop  offset="1" style="stop-color:#000000"/>
		</linearGradient>
		<path fill="url(#SVGID_1_)" d="M390,230.3c0,0,3.4-20.2,1-35.3"/>
		<g>
			<path d="M392.4,231c2-12,2.8-24.6,1-36.7c-0.5-3.2-5.3-1.8-4.8,1.3c1.6,11.1,0.9,22.9-1,34C387.1,232.8,391.9,234.1,392.4,231
				L392.4,231z"/>
		</g>
	</g>
	<g>
		
			<linearGradient id="SVGID_2_" gradientUnits="userSpaceOnUse" x1="490.3783" y1="212.637" x2="492.25" y2="212.637" gradientTransform="matrix(1 0 0 1 -382.3783 0)">
			<stop  offset="0" style="stop-color:#FFFFFF"/>
			<stop  offset="1" style="stop-color:#000000"/>
		</linearGradient>
		<path fill="url(#SVGID_2_)" d="M109.9,230.3c0,0-3.4-20.2-1-35.3"/>
		<g>
			<path d="M112.3,229.6c-1.9-11.1-2.6-22.9-1-34c0.5-3.1-4.4-4.5-4.8-1.3c-1.8,12.1-1,24.6,1,36.7
				C108,234.1,112.8,232.8,112.3,229.6L112.3,229.6z"/>
		</g>
	</g>
</g>
<g>
	<g>
		<path fill="#FFFFFF" d="M125.5,353.2l-35.8,11.6c0,0,12.6,15.4,26.6,11.6S125.5,353.2,125.5,353.2z"/>
		<g>
			<path d="M124.9,350.8c-11.9,3.9-23.9,7.8-35.8,11.6c-1.9,0.6-2.3,2.7-1.1,4.2c7.2,8.7,20.4,16.6,31.8,11.3
				c9.3-4.4,10.3-16.5,8.2-25.3c-0.7-3.1-5.6-1.8-4.8,1.3c1.6,6.8,1.2,16.9-6.4,19.9c-9.2,3.6-19.6-3.8-25.3-10.6
				c-0.4,1.4-0.7,2.8-1.1,4.2c11.9-3.9,23.9-7.8,35.8-11.6C129.3,354.6,127.9,349.8,124.9,350.8z"/>
		</g>
	</g>
	<g>
		<path fill="#5161F2" d="M101,271l-31.4,34.2c-3.6,4-5.1,9.5-4,15.1c0.4,2.1,1.2,4.2,2.4,6.2c0,0,14.1,27.8,12.8,32.1
			s9.2,6.6,9.2,6.6l34.2-11.1c0,0,5.5-6,1.9-9.7c-3.5-3.8-15.6-22.7-15.6-22.7l26.6-29c7.2-7.9,5.2-19.1-4.6-24.9l-0.8-0.5
			C122.1,261.5,108.2,263.2,101,271z"/>
		<g>
			<path d="M99.3,269.2c-8.8,9.6-17.7,19.3-26.5,28.9c-4.1,4.5-8.5,8.6-9.6,14.8c-1.4,7.9,2.6,14.5,5.9,21.3
				c3.3,6.9,8.3,15,9.3,22.7c0.3,2.8-0.2,4.7,2.2,6.8c2.1,1.8,5.9,3.6,8.7,3.9c4.5,0.4,10.5-2.9,14.8-4.3c6.6-2.1,13.6-3.9,20.1-6.5
				c2.3-0.9,3.5-2.6,4.6-4.9c2.1-4.3,0.9-7.2-1.9-10.6c-5.2-6.6-9.6-13.8-14.1-20.9c-0.1,1-0.3,2-0.4,3c9.1-9.9,19.1-19.5,27.5-30
				c7.7-9.6,3.6-22-6.3-28C122.7,259,108.1,260.2,99.3,269.2c-2.3,2.3,1.3,5.8,3.5,3.5c8.5-8.6,24.1-8.7,32.4,0.3
				c6.5,6.9,3.2,14.6-2.2,20.5c-8,8.8-16.1,17.6-24.1,26.3c-0.7,0.8-1,2.1-0.4,3c3.3,5.2,6.7,10.4,10.2,15.5
				c1.6,2.4,4.2,4.8,5.5,7.4c1.3,2.7,0,3.9-1.3,6.2c-0.3,0.6,1.5-0.5-0.1,0c-11,3.6-22,7.2-33.1,10.7c0.2-0.1,1.5,0.5-0.3-0.2
				c-1.3-0.6-2.7-0.8-4-1.5c-2.7-1.5-1.8-3.6-2.5-6.3c-1.7-6.9-5.1-13.6-8.2-20c-2.7-5.7-7.3-12.4-6.9-18.9
				c0.3-6.2,4.8-10.1,8.7-14.4c8.7-9.5,17.5-19.1,26.2-28.6C105,270.4,101.4,266.9,99.3,269.2z"/>
		</g>
	</g>
</g>
<path fill="#FFFFFF" d="M391.7,357.2c-0.3-6.5-2.8-19.4-5.8-34.4l-0.1-0.5c-3.2-16-6.9-35.9-7.1-44.6c-0.1-5.4,0.3-13.2,0.3-21.4
	v-0.4c0-16.9-0.1-40.1-1.7-55.3c-1.3-12.5-6.1-44-20.8-67.6c-13.6-21.8-30.2-35.9-51.9-44.7c-19.9-8-56.3-8.9-57.3-8.9
	c-9.3,0-33.2,0.8-53,8.8c-21.7,8.8-38.1,23-51.8,44.8c-14.7,23.5-19.4,55.1-20.7,67.6c-1.6,15.2-1.5,38.4-1.3,55.3l0,3.9
	c0,6.8,0,13.3-0.1,17.9c-0.2,8.8-4.2,28.6-7.4,44.6l-0.2,0.6c-3,14.9-5.5,27.8-5.8,34.3c-0.6,16.6,4.1,27.8,16.1,38.7
	c7.7,7,15.2,10.2,23.4,10.2c4.5,0,8.5-0.9,12.8-2c1.2-0.3,2.4-0.7,3.7-1.2c4.4,2.4,12.6,6,23.5,6c7.1,0,15.3-1.5,24.2-5.8
	c5.1,4.2,10.5,8.2,10.5,8.2c13.9,7.9,25.9,9.6,27.7,9.6h0.4c1.8,0,13.8-1.1,28.2-9.6c0,0,4.7-3.4,9.5-7.3c8.3,3.7,15.9,5,22.5,5
	c11.8,0,20.5-4.2,24.5-6.6c1.9,0.8,3.6,1.4,5.3,1.8c4.4,1.1,8.4,2,12.8,2c8.4,0,15.6-3.2,23.4-10.2
	C387.7,385.1,392.3,373.9,391.7,357.2z"/>
<path fill="#6E7EE0" d="M374.8,394.7c-6.5,6-12.1,8.5-18.7,8.5c-3.7,0-7.1-0.8-11.3-1.8c-2.2-0.5-4.9-1.8-8.4-3.2l-0.6-0.3
	c-7.7-3.5-18.2-8.2-28.1-8.2c-6.9,0-12.4,2.3-16.9,6.9c-12,12.3-23.9,17.3-31.7,19.2c-0.2,0.1-7.7,2.1-16.6-0.4
	c-8.9-2.5-20.9-6.7-32.7-18.9c-4.5-4.6-10.1-6.9-17-6.9c-9.8,0-20.3,4.6-28.2,8.1l-0.3,0.2c-3.6,1.6-6.3,2.9-8.6,3.4
	c-4.1,1-7.6,1.8-11.3,1.8c-6.5,0-12.3-2.6-18.7-8.5c-10.7-9.8-14.5-18.5-13.9-33.5c0.2-4.6,1.7-13.2,3.7-23.3H385
	c2,10.1,3.5,18.7,3.7,23.3C389.3,376.2,385.4,385,374.8,394.7z"/>
<path fill="#C8C8C8" d="M288.4,401.1c0,0,8.6-6.5,18.1-7.6c9.5-1.1,25.7,5.9,25.7,5.9s-5.3,10.8-15.4,10.5S288.4,401.1,288.4,401.1z
	"/>
<path fill="#C8C8C8" d="M163.1,401.1c0,0,8.6-6.5,18.1-7.6c9.5-1.1,25.7,5.9,25.7,5.9s-5.3,10.8-15.4,10.5
	C181.4,409.8,163.1,401.1,163.1,401.1z"/>
<path fill="#5161F2" d="M385.5,337H113.7c0.6-4,1.4-7.5,2.1-11.2l0.1-1c3.6-17.4,7.6-36.6,7.9-46.3c0.1-2.3,0.1-5.5,0.1-7.5H376
	c-0.1,2-0.2,5-0.2,7.3c0.3,9.6,4,29,7.6,46.5l0,1.1C384.1,329.6,384.8,333,385.5,337z"/>
<g>
	<polyline fill="#3149AF" points="258.7,416.7 250.7,337.7 242.7,418.2 259,417.4 	"/>
	<g>
		<path d="M261.2,416.7c-2.7-26.4-5.3-52.7-8-79.1c-0.3-3.2-4.7-3.2-5,0c-2.7,26.9-5.3,53.7-8,80.6c-0.1,1.3,1.3,2.6,2.5,2.5
			c5.4-0.3,10.9-0.6,16.3-0.9c3.2-0.2,3.2-5.2,0-5c-5.4,0.3-10.9,0.6-16.3,0.9c0.8,0.8,1.7,1.7,2.5,2.5c2.7-26.9,5.3-53.7,8-80.6
			c-1.7,0-3.3,0-5,0c2.7,26.4,5.3,52.7,8,79.1C256.5,419.9,261.5,419.9,261.2,416.7L261.2,416.7z"/>
	</g>
</g>
<g>
	<polyline fill="#3149AF" points="163.7,337.7 157.2,402 170.1,399.8 163.8,337.7 	"/>
	<g>
		<path d="M161.2,337.7c-2.2,21.4-4.3,42.9-6.5,64.3c-0.2,1.8,1.7,2.7,3.2,2.4c4.3-0.7,8.6-1.4,12.9-2.2c1-0.2,1.9-1.4,1.8-2.4
			c-2.1-20.7-4.2-41.4-6.3-62.1c-0.3-3.2-5.3-3.2-5,0c2.1,20.7,4.2,41.4,6.3,62.1c0.6-0.8,1.2-1.6,1.8-2.4
			c-4.3,0.7-8.6,1.4-12.9,2.2c1.1,0.8,2.1,1.6,3.2,2.4c2.2-21.4,4.3-42.9,6.5-64.3C166.5,334.5,161.5,334.5,161.2,337.7L161.2,337.7
			z"/>
	</g>
</g>
<g>
	<polyline fill="#3149AF" points="325.5,337.7 317.9,394.7 333.7,397.6 325.7,337.7 	"/>
	<g>
		<path d="M323,337.7c-2.5,19-5.1,38-7.6,57.1c-0.1,1,0.9,2.2,1.8,2.4c5.3,0.9,10.5,1.9,15.8,2.8c1.4,0.2,3.4-0.7,3.2-2.4
			c-2.7-20-5.3-39.9-8-59.9c-0.4-3.1-5.4-3.2-5,0c2.7,20,5.3,39.9,8,59.9c1.1-0.8,2.1-1.6,3.2-2.4c-5.3-0.9-10.5-1.9-15.8-2.8
			c0.6,0.8,1.2,1.6,1.8,2.4c2.5-19,5.1-38,7.6-57.1C328.4,334.5,323.4,334.5,323,337.7L323,337.7z"/>
	</g>
</g>
<path d="M395.4,359.6c-0.3-6.6-2.9-19.8-5.9-35.1l-0.1-0.6c-3.3-16.3-6.8-36.6-7-45.5c-0.1-5.6,0.6-13.5,0.6-21.9v-0.4
	c0-17.3-0.4-40.9-2-56.5c-1.3-12.7-6.4-44.9-21.4-69c-13.9-22.3-30.9-36.7-53-45.6c-20.3-8.2-57.5-9.1-58.6-9.1
	c-9.5,0-33.9,0.8-54.2,9c-22.1,9-39,23.5-52.9,45.7c-15,24-19.8,56.3-21.1,69c-1.7,15.6-1.5,39.2-1.4,56.5l0,4c0,7,0,13.5-0.1,18.3
	c-0.2,9-4.3,29.2-7.6,45.5l-0.2,0.7c-3,15.3-5.7,28.4-5.9,35c-0.6,17,4.1,28.4,16.4,39.5c7.9,7.1,15.5,10.4,23.9,10.4
	c4.6,0,8.6-0.9,13.1-2c1.2-0.3,2.5-0.7,3.8-1.2c4.4,2.5,12.9,6.1,24,6.1c7.2,0,15.6-1.5,24.8-5.9c5.3,4.3,10.7,8,10.8,8.1
	c14.2,8.1,26.5,9.5,28.3,9.5h0.4c1.8,0,14-0.8,28.8-9.5c0,0,4.8-3.3,9.7-7.3c8.5,3.8,16.2,5.2,23,5.2c12.1,0,21-4.3,25-6.7
	c1.9,0.8,3.7,1.4,5.4,1.8c4.5,1.1,8.5,2,13.1,2c8.6,0,15.9-3.2,23.9-10.4C391.3,388,396.1,376.5,395.4,359.6z M171.4,402.3
	c6.5-2.8,14.7-6,21.7-6c4.7,0,8.2,1.4,11.2,4.4l0.2,0.2C190.3,406.8,178.7,404.9,171.4,402.3z M295.1,401.7c0.3-0.3,0.6-0.6,0.9-0.9
	c3.1-3.1,6.5-4.5,11.2-4.5c6.6,0,14.1,2.7,20.4,5.4C320.7,404.5,309.2,406.9,295.1,401.7z M373.7,393.2c-6.5,5.9-12,8.4-18.6,8.4
	c-3.6,0-7.1-0.8-11.2-1.8c-2.2-0.5-4.9-1.7-8.3-3.2l-0.6-0.3c-7.6-3.4-18.1-8-27.9-8c-6.8,0-12.3,2.2-16.8,6.8
	c-11.9,12.1-23.7,17-31.5,18.9c-0.2,0.1-7.7,2.1-16.5-0.3c-8.8-2.4-20.7-6.6-32.5-18.6c-4.5-4.6-10-6.8-16.8-6.8
	c-9.7,0-20.1,4.6-27.9,8l-0.3,0.2c-3.5,1.6-6.3,2.8-8.6,3.4c-4.1,1-7.5,1.8-11.2,1.8c-6.5,0-12.2-2.6-18.6-8.4
	c-10.6-9.6-14.4-18.7-13.8-33.4c0.2-6,2.8-18.9,5.8-33.8l0.1-0.7c3.5-17.4,7.5-37.2,7.7-46.9c0.1-4.9,0.1-11.5,0.1-18.5l0-4
	c-0.1-17.1-0.3-40.5,1.3-55.6c1.3-12.2,5.8-43,20-65.6c13-20.8,28.6-34.3,49.1-42.6c19-7.7,42.1-8.8,51.2-8.8
	c0.8,0,36.5,0.9,55.5,8.5c20.5,8.3,36.1,22,49.1,42.8c14.2,22.7,19.2,53.5,20.5,65.7c1.6,15.1,1.9,38.6,1.9,55.7v0.4
	c0,8.4-0.7,16.4-0.5,22.1c0.3,9.6,4,29.4,7.5,46.9l0,0.6c3,15,5.5,27.9,5.7,33.9C388.2,374.6,384.4,383.6,373.7,393.2z"/>
<path d="M330.2,187.3c0,11.4-9.3,20.7-20.7,20.7s-20.7-9.3-20.7-20.7c0-1,0.1-1.9,0.2-2.9c1.3,0.9,2.8,1.4,4.4,1.4
	c4.3,0,7.8-3.5,7.8-7.8c0-3.1-1.8-5.8-4.5-7c3.5-2.7,7.9-4.4,12.7-4.4C320.9,166.6,330.2,175.8,330.2,187.3z"/>
<path d="M211.2,187.3c0,11.4-9.3,20.7-20.7,20.7c-11.4,0-20.7-9.3-20.7-20.7c0-1,0.1-1.9,0.2-2.9c1.3,0.9,2.8,1.4,4.4,1.4
	c4.3,0,7.8-3.5,7.8-7.8c0-3.1-1.8-5.8-4.5-7c3.5-2.7,7.9-4.4,12.7-4.4C201.9,166.6,211.2,175.8,211.2,187.3z"/>
<ellipse transform="matrix(0.7169 -0.6971 0.6971 0.7169 -112.9338 175.5088)" fill="#F68694" cx="159.7" cy="226.8" rx="8" ry="3.6"/>
<ellipse transform="matrix(0.7169 -0.6971 0.6971 0.7169 -109.5173 186.4544)" fill="#F68694" cx="174.8" cy="228.1" rx="8" ry="3.6"/>
<ellipse transform="matrix(0.7169 -0.6971 0.6971 0.7169 -105.2185 197.0418)" fill="#F68694" cx="190" cy="228.1" rx="8" ry="3.6"/>
<ellipse transform="matrix(-0.7169 -0.6971 0.6971 -0.7169 425.8532 629.0911)" fill="#F68694" cx="340.6" cy="228.1" rx="8" ry="3.6"/>
<ellipse transform="matrix(-0.7169 -0.6971 0.6971 -0.7169 398.8955 620.6766)" fill="#F68694" cx="325.5" cy="229.4" rx="8" ry="3.6"/>
<ellipse transform="matrix(-0.7169 -0.6971 0.6971 -0.7169 372.8202 610.0892)" fill="#F68694" cx="310.3" cy="229.4" rx="8" ry="3.6"/>
<g>
	<g>
		<path d="M168.3,159.9c14.6,4.7,29.7,5.1,44.3,0c3-1,1.7-5.9-1.3-4.8c-13.8,4.8-27.8,4.5-41.7,0
			C166.6,154.1,165.3,158.9,168.3,159.9L168.3,159.9z"/>
	</g>
</g>
<g>
	<g>
		<path d="M328.3,155.1c-13.9,4.5-27.8,4.8-41.7,0c-3-1.1-4.4,3.8-1.3,4.8c14.6,5.1,29.7,4.7,44.3,0
			C332.7,158.9,331.4,154.1,328.3,155.1L328.3,155.1z"/>
	</g>
</g>
<g>
	<g>
		<path d="M122,273c28.8,0,57.6,0,86.4,0c45.9,0,91.7,0,137.6,0c10.4,0,20.9,0,31.3,0c3.2,0,3.2-5,0-5c-28.8,0-57.6,0-86.4,0
			c-45.9,0-91.7,0-137.6,0c-10.4,0-20.9,0-31.3,0C118.8,268,118.8,273,122,273L122,273z"/>
	</g>
</g>
<g>
	<g>
		<path d="M111,339c31.1,0,62.3,0,93.4,0c49.6,0,99.2,0,148.8,0c11.3,0,22.7,0,34,0c3.2,0,3.2-5,0-5c-31.1,0-62.3,0-93.4,0
			c-49.6,0-99.2,0-148.8,0c-11.3,0-22.7,0-34,0C107.8,334,107.8,339,111,339L111,339z"/>
	</g>
</g>
<g>
	<polygon fill="#FFFFFF" points="278.7,271 249.3,316 221,271 	"/>
	<g>
		<path d="M276.5,269.2c-9.8,15-19.5,30-29.3,45c1.4,0,2.9,0,4.3,0c-9.4-15-18.9-30-28.3-45c-0.7,1.3-1.4,2.5-2.2,3.8
			c19.2,0,38.4,0,57.7,0c3.2,0,3.2-5,0-5c-19.2,0-38.4,0-57.7,0c-1.8,0-3.2,2.1-2.2,3.8c9.4,15,18.9,30,28.3,45c1,1.6,3.3,1.6,4.3,0
			c9.8-15,19.5-30,29.3-45C282.6,269.1,278.3,266.6,276.5,269.2z"/>
	</g>
</g>
<g>
	<polygon fill="#FFFFFF" points="249.7,271 204.6,307.3 203.2,271 	"/>
	<g>
		<path d="M247.9,268.7c-15,12.1-30,24.2-45,36.3c1.4,0.6,2.8,1.2,4.3,1.8c-0.5-12.1-1-24.2-1.5-36.3c-0.8,0.8-1.7,1.7-2.5,2.5
			c15.5,0,31,0,46.5,0c3.2,0,3.2-5,0-5c-15.5,0-31,0-46.5,0c-1.3,0-2.6,1.1-2.5,2.5c0.5,12.1,1,24.2,1.5,36.3
			c0.1,2.3,2.6,3.1,4.3,1.8c15-12.1,30-24.2,45-36.3C253.9,270.3,250.4,266.7,247.9,268.7z"/>
	</g>
</g>
<g>
	<polygon fill="#FFFFFF" points="251.2,271 296.2,307.3 297.7,271 	"/>
	<g>
		<path d="M249.4,272.3c15,12.1,30,24.2,45,36.3c1.7,1.3,4.2,0.5,4.3-1.8c0.5-12.1,1-24.2,1.5-36.3c0.1-1.4-1.2-2.5-2.5-2.5
			c-15.5,0-31,0-46.5,0c-3.2,0-3.2,5,0,5c15.5,0,31,0,46.5,0c-0.8-0.8-1.7-1.7-2.5-2.5c-0.5,12.1-1,24.2-1.5,36.3
			c1.4-0.6,2.8-1.2,4.3-1.8c-15-12.1-30-24.2-45-36.3C250.4,266.7,246.9,270.2,249.4,272.3z"/>
	</g>
</g>
<g>
	<g>
		<path fill="#2F3E93" d="M326.3,379h-55.7c-4.4,0-8-3.6-8-8v-79c0-4.4,3.6-8,8-8h55.7c4.4,0,8,3.6,8,8v79
			C334.3,375.4,330.7,379,326.3,379z"/>
		<g>
			<path d="M326.3,376.5c-9.1,0-18.2,0-27.3,0c-9.2,0-19.1,1-28.3,0c-5.5-0.6-5.6-4.8-5.6-8.9c0-4.6,0-9.2,0-13.9
				c0-13,0-26.1,0-39.1c0-7.4-0.8-15.2,0-22.5c0.7-6,6-5.5,10.5-5.5c5.6,0,11.3,0,16.9,0c10.8,0,21.8-0.6,32.7,0
				c4.5,0.2,6.5,2.8,6.6,7.1c0.1,3.6,0,7.3,0,10.9c0,14.5,0,28.9,0,43.4c0,5.8,0,11.6,0,17.4C331.8,369.8,332.7,376,326.3,376.5
				c-3.2,0.3-3.2,5.3,0,5c12.6-1,10.5-14,10.5-23c0-14.3,0-28.6,0-43c0-5.8,0-11.7,0-17.5c0-2.9,0.4-6.3-0.5-9.1
				c-1.8-5.6-6.9-7.3-12.2-7.3c-5.6,0-11.2,0-16.8,0c-12,0-24-0.4-35.9,0c-11.4,0.4-11.2,10.4-11.2,18.8c0,13.8,0,27.7,0,41.5
				c0,9.6-0.4,19.4,0,29c0.6,14.1,19.1,10.6,28.6,10.6c12.5,0,25.1,0,37.6,0C329.5,381.5,329.5,376.5,326.3,376.5z"/>
		</g>
	</g>
	<g>
		<path fill="#CAD2FF" d="M313.5,314.9H285c-6,0-10.9-4.9-10.9-10.9l0,0c0-6,4.9-10.9,10.9-10.9h28.5c6,0,10.9,4.9,10.9,10.9l0,0
			C324.4,310,319.5,314.9,313.5,314.9z"/>
		<g>
			<path d="M313.5,313.4c-7.1,0-14.3,0-21.4,0c-2.9,0-6.5,0.4-9.4-0.3c-10.7-2.7-8.2-17.9,2.3-18.5c7.1-0.4,14.3,0,21.4,0
				c2.4,0,4.7-0.1,7.1,0C325.7,295.4,325.6,312.7,313.5,313.4c-1.9,0.1-1.9,3.1,0,3c11.5-0.7,17.2-15.6,7-22.6
				c-3.1-2.1-6.6-2.2-10.2-2.2c-4.8,0-9.7,0-14.5,0c-8.1,0-18.5-1.6-22.2,7.7c-3.9,9.6,4.4,17.1,13.5,17.1c8.8,0,17.7,0,26.5,0
				C315.5,316.4,315.5,313.4,313.5,313.4z"/>
		</g>
	</g>
</g>
<g>
	<g>
		<path fill="#FFFFFF" d="M295,329.3l6.6,38c0,0-22.8-0.7-26.2-15.1S295,329.3,295,329.3z"/>
		<g>
			<path d="M292.6,330c2.2,12.7,4.4,25.4,6.6,38c0.8-1.1,1.6-2.1,2.4-3.2c-8.4-0.3-21.1-3.4-23.6-12.7c-2.7-10,9.9-17.4,17.7-20.4
				c3-1.1,1.7-6-1.3-4.8c-10.1,3.9-24.1,12.9-21.5,25.5c2.5,12.4,17.6,17,28.7,17.4c1.8,0.1,2.7-1.6,2.4-3.2
				c-2.2-12.7-4.4-25.4-6.6-38C296.9,325.5,292.1,326.8,292.6,330z"/>
		</g>
	</g>
	<g>
		<path fill="#5161F2" d="M394.3,296.8l-19.5,48.9c-2.3,5.7-7.3,10.5-13.8,13.2c-2.4,1-5,1.7-7.8,2c0,0-36.7,6-40.5,9.9
			c-3.8,3.9-11.7-3.5-11.7-3.5l-6.4-36.3c0,0,3.4-8.5,9.2-8s32.1-1.5,32.1-1.5l16.5-41.4c4.5-11.2,17.3-16.8,28.6-12.3l0.9,0.4
			C393.3,272.7,398.8,285.6,394.3,296.8z"/>
		<g>
			<path d="M391.9,296.2c-4.7,11.9-9.5,23.7-14.2,35.6c-1.8,4.4-3.4,9-5.3,13.3c-4.3,9.7-13.7,12.4-23.3,14.1
				c-8.1,1.4-16.1,2.9-24.1,4.8c-3.5,0.8-7.1,1.7-10.4,3.1c-3.7,1.5-5.1,3.2-9.2,0.6c-0.7-0.4-1.3-1.1-2-1.5c-0.9-0.5-0.4-0.6,0,0.5
				c-0.2-0.6-0.2-1.3-0.3-2c-0.6-3.2-1.1-6.3-1.7-9.5c-1.3-7.4-2.6-14.9-3.9-22.3c-0.1-0.8-0.2-1.7-0.4-2.4c0.4,1.4-0.7,1.6,0.4,0.5
				c0.7-0.7,1-1.9,1.7-2.6c3-3.8,7.9-2.6,12.3-2.8c8.2-0.3,16.4-0.9,24.6-1.5c1.2-0.1,2-0.7,2.4-1.8c5-12.5,10-25.1,15-37.6
				c3.4-8.5,9.1-15.6,19.1-15.8C387,268.5,396.8,282.8,391.9,296.2c-1.1,3,3.7,4.3,4.8,1.3c7.8-21.4-16.1-41.9-36-30.4
				c-6.2,3.6-9.3,9.2-11.9,15.6c-2.8,7.1-5.6,14.1-8.4,21.2c-2.3,5.7-4.5,11.3-6.8,17c0.8-0.6,1.6-1.2,2.4-1.8
				c-8,0.6-16.1,1.2-24.1,1.5c-3.6,0.1-8.3-0.7-11.6,0.6c-3.3,1.3-6.5,5-7.6,8.4c-0.6,1.8-0.1,3.3,0.2,5.2c0.7,4.1,1.4,8.1,2.1,12.2
				c0.8,4.5,1.6,9,2.4,13.5c0.4,2.3,0.4,5.3,1.3,7.5c1,2.4,4.3,4.2,6.5,5.3c3.9,1.9,6.3,1.3,9.8-0.8c3.2-1.9,7.5-2.6,11-3.5
				c4.9-1.2,9.8-2.2,14.7-3.2c7.5-1.5,16.2-2,23.1-5.3c7.9-3.8,12-10.2,15-18c6-15,12-30,17.9-45
				C397.9,294.5,393.1,293.2,391.9,296.2z"/>
		</g>
	</g>
</g>
<g>
	<g>
		<path d="M235.5,223.5c0.9,13.9,32.6,13.9,33.5,0c0.2-3.2-4.8-3.2-5,0c-0.4,7.1-23.1,7.1-23.5,0
			C240.3,220.3,235.3,220.3,235.5,223.5L235.5,223.5z"/>
	</g>
</g>
<g>
	<g>
		<path fill="#7788ED" d="M367.8,145H130.3c0,0,2.4-72.9,118.8-72.9S367.8,145,367.8,145z"/>
		<g>
			<path d="M367.8,142.4c-26.8,0-53.6,0-80.5,0c-42.6,0-85.1,0-127.7,0c-9.8,0-19.6,0-29.4,0c0.8,0.8,1.7,1.7,2.5,2.5
				c0.3-7.2,3.5-16.2,7.3-23.2c10.2-18.9,28.6-31.5,48.5-38.4c16.7-5.8,34.5-8.1,52.2-8.7c19.3-0.6,38.8,0.6,57.6,5.4
				c22.2,5.6,43.8,17,56.6,36.6c5.3,8.2,10,19.2,10.3,28.3c0.1,3.2,5.1,3.2,5,0c-0.3-9.1-3.9-18.4-8.2-26.2
				c-10.9-19.8-30.3-32.9-51.3-40.2c-17.1-5.9-35.4-8.3-53.5-8.9c-19.7-0.6-39.8,0.7-58.9,5.6c-23.3,5.9-45.7,17.9-59.2,38.3
				c-6,9-11,20.4-11.4,31.4c0,1.4,1.2,2.5,2.5,2.5c26.8,0,53.6,0,80.5,0c42.6,0,85.1,0,127.7,0c9.8,0,19.6,0,29.4,0
				C371,147.4,371,142.4,367.8,142.4z"/>
		</g>
	</g>
	<g>
		<linearGradient id="SVGID_3_" gradientUnits="userSpaceOnUse" x1="171.25" y1="127.4688" x2="183" y2="127.4688">
			<stop  offset="0" style="stop-color:#FFFFFF"/>
			<stop  offset="1" style="stop-color:#000000"/>
		</linearGradient>
		<path fill="url(#SVGID_3_)" d="M171.3,144.7c0,0,4.3-24.2,11.8-34.4"/>
		<g>
			<path d="M173.7,145.4c2-11.4,4.8-24.3,11.5-33.8c1.8-2.6-2.5-5.1-4.3-2.5c-6.9,9.9-9.9,23.3-12,35
				C168.3,147.2,173.1,148.5,173.7,145.4L173.7,145.4z"/>
		</g>
	</g>
	<g>
		
			<linearGradient id="SVGID_4_" gradientUnits="userSpaceOnUse" x1="223.25" y1="127.4688" x2="235" y2="127.4688" gradientTransform="matrix(-1 0 0 1 552.25 0)">
			<stop  offset="0" style="stop-color:#FFFFFF"/>
			<stop  offset="1" style="stop-color:#000000"/>
		</linearGradient>
		<path fill="url(#SVGID_4_)" d="M329,144.7c0,0-4.3-24.2-11.8-34.4"/>
		<g>
			<path d="M331.4,144c-2.1-11.8-5.1-25.1-12-35c-1.8-2.6-6.2-0.1-4.3,2.5c6.7,9.6,9.5,22.5,11.5,33.8
				C327.2,148.5,332,147.2,331.4,144L331.4,144z"/>
		</g>
	</g>
	<g>
		
			<linearGradient id="SVGID_5_" gradientUnits="userSpaceOnUse" x1="286.302" y1="129.9063" x2="288.4583" y2="129.9063" gradientTransform="matrix(-1 0 0 1 552.25 0)">
			<stop  offset="0" style="stop-color:#FFFFFF"/>
			<stop  offset="1" style="stop-color:#000000"/>
		</linearGradient>
		<path fill="url(#SVGID_5_)" d="M265.9,144.7c0,0,0-22.9-2.2-29.6"/>
		<g>
			<path d="M268.4,144.7c0-9.8,0.5-20.7-2.2-30.2c-0.9-3.1-5.7-1.8-4.8,1.3c2.6,9,2,19.6,2.1,28.9
				C263.5,147.9,268.5,147.9,268.4,144.7L268.4,144.7z"/>
		</g>
	</g>
</g>
<g>
	<g>
		<g>
			<path fill="#FFFFFF" d="M156,86.3c6.1-5.2,12.8-9.4,20.2-12.5c2.9-1.2,1.6-6.1-1.3-4.8c-8.2,3.5-15.7,8-22.4,13.8
				C150,84.8,153.6,88.3,156,86.3L156,86.3z"/>
		</g>
	</g>
	<g>
		<g>
			<path fill="#FFFFFF" d="M185,70.1c3.2,0,3.2-5,0-5C181.8,65.1,181.8,70.1,185,70.1L185,70.1z"/>
		</g>
	</g>
</g>
</svg>
