<?xml version="1.0" encoding="utf-8"?>
<!-- Generator: Adobe Illustrator 18.1.1, SVG Export Plug-In . SVG Version: 6.00 Build 0)  -->
<svg version="1.1" xmlns="http://www.w3.org/2000/svg" xmlns:xlink="http://www.w3.org/1999/xlink" x="0px" y="0px"
	 viewBox="0 0 500 500" enable-background="new 0 0 500 500" xml:space="preserve">
<g id="Layer_1">
	<path fill="#AD363C" d="M63.3,247.3c0,0,22.3,3.9,32.4-5.9s5.5-76.1,11.7-99.6c6.2-23.5,41.6-69.5,80.9-77.2s99.3-1.7,118.1,2
		c18.8,3.7,51.6,21.2,69.7,47s24.1,44.2,23.6,64.7s-4.4,55.7,6.8,62.5c11.2,6.8,33.1,5.2,33.1,5.2s-14.9,20.2-31.8,20.5
		S380,256,380,256s-4.1-60.7-8.9-77.5c-4.8-16.8-8.2-32-8.2-32s-11.6,4-29.4-1.1c-17.8-5.1-84.1-55.4-84.2-55.3
		c-0.1,0.2-33.6,44.3-61.6,52.6s-51.9,7.7-51.7,7.4s-6.8,12.8-8.7,25.5c-1.9,12.7-5.7,57.3-4.6,65.1s-2.2,18.2-2.2,18.2
		s-14.3,13.6-34.2,6.1s-23.5-17.7-23.5-17.7"/>
	<path fill="#FFFFFF" d="M391.6,356.8c-0.3-6.5-2.8-19.4-5.8-34.4l-0.1-0.5c-3.2-16-6.3-35.8-6.6-44.5c-0.1-5.4,0.8-13.2,0.8-21.4
		v-0.4c0-16.9-0.6-40-2.2-55.2c-1.3-12.4-6.4-43.9-21.1-67.4c-13.6-21.8-30.3-35.9-51.9-44.6c-19.8-8-56.3-8.9-57.3-8.9
		c-9.3,0-33.2,0.8-53,8.8c-21.7,8.8-38.1,22.9-51.7,44.7c-14.7,23.5-19.3,55-20.7,67.4c-1.6,15.2-1.5,38.3-1.3,55.2l0,3.9
		c0,6.8,0,13.2-0.1,17.9c-0.2,8.8-4.2,28.6-7.4,44.5l-0.2,0.6c-3,14.9-5.5,27.8-5.8,34.3c-0.6,16.6,4,27.8,16,38.6
		c7.7,7,15.1,10.2,23.4,10.2c4.5,0,8.4-0.9,12.8-2c1.2-0.3,2.4-0.7,3.7-1.2c4.3,2.4,12.6,6,23.5,6c7.1,0,15.2-1.5,24.2-5.8
		c5.1,4.2,10.5,8,10.5,8c13.9,7.9,25.9,9.4,27.6,9.4h0.4c1.8,0,13.7-0.9,28.2-9.4c0,0,4.7-3.3,9.4-7.2c8.3,3.7,15.9,5,22.5,5
		c11.8,0,20.5-4.2,24.5-6.6c1.9,0.8,3.6,1.4,5.3,1.8c4.4,1.1,8.3,2,12.8,2c8.4,0,15.6-3.1,23.3-10.2
		C387.6,384.6,392.3,373.4,391.6,356.8z"/>
	<path d="M249.4,422H249c-1.6,0-13.7-1.8-27.9-9.9c-0.2,0-8.8-7-10.4-8.3c-8,3.8-16.1,5.7-24.2,5.7c-11,0-19.4-3.7-23.5-6
		c-1.2,0.5-2.4,0.8-3.6,1.1c-4.4,1.1-8.4,2-13,2c-8.4,0-15.9-3.3-23.8-10.3c-12.1-11-16.8-22.3-16.2-39.1c0.3-6.4,2.7-18.9,5.6-33.3
		l0.5-2.3c3.1-15.7,7.1-35.3,7.3-43.9c0.1-4.6,0.1-10.9,0.1-17.5l0-4.3c-0.1-16.9-0.3-40,1.3-55.4c1.3-12.5,6-44.2,20.8-67.8
		c13.6-21.8,30.2-36.1,52-45c19.8-8,43.8-8.8,53.2-8.8c0.4,0,37.3,0.8,57.5,9c21.9,8.9,38.4,23.1,52,44.9
		c14.8,23.7,19.5,55.3,20.8,67.8c1.5,14,1.5,34.6,1.5,51.1l0,4.6c0,3.4,0,6.7-0.1,9.8c0,4.3-0.1,8.4,0,11.6
		c0.3,9.2,4.9,32.2,7.4,44.5l0.1,0.7c3,14.9,5.5,27.8,5.8,34.3c0.6,16.8-4.1,28.1-16.2,39.1c-7.9,7.2-15.2,10.3-23.7,10.3
		c-4.7,0-8.9-1-12.9-2c-1.6-0.4-3.2-0.9-5.1-1.7c-4.3,2.5-13,6.6-24.6,6.6c-7.6,0-15.2-1.6-22.4-4.8c-3.6,2.9-9.1,7.2-9.4,7.3
		C263.9,420.3,251.9,422,249.4,422z M221.6,411.3c14.1,8,25.8,9.7,27.4,9.7h0.4c0.1,0,12.3-0.6,28-9.8c0.2-0.1,4.7-3.6,9.4-7.4
		l0.2-0.2l0.3,0.1c7.2,3.2,14.7,4.9,22.3,4.9c11.5,0,20.2-4.1,24.3-6.6l0.2-0.1l0.2,0.1c2,0.8,3.7,1.4,5.2,1.7
		c4.1,1,8.1,1.9,12.7,1.9c8.3,0,15.4-3.1,23-10.1c11.9-10.8,16.5-21.9,15.9-38.3c-0.3-6.4-2.8-19.3-5.8-34.2l-0.1-0.7
		c-3.4-17.1-7.1-36-7.4-44.6c-0.1-3.2,0-7.3,0-11.6c0-3.1,0.1-6.4,0.1-9.8l0-4.6c0-16.5,0-37.1-1.5-51c-1.3-12.4-5.9-43.8-20.6-67.3
		c-13.5-21.6-29.9-35.7-51.6-44.5c-20-8.1-56.8-8.9-57.1-8.9c-9.4,0-33.2,0.9-52.8,8.8c-21.6,8.8-38,22.9-51.5,44.6
		c-14.6,23.4-19.3,54.9-20.6,67.3c-1.6,15.3-1.5,38.4-1.3,55.2l0,4.3c0,6.7,0,13-0.1,17.6c-0.2,8.7-4.2,28.3-7.3,44.1l-0.5,2.3
		c-2.9,14.4-5.3,26.8-5.6,33.1c-0.6,16.5,4,27.6,15.9,38.3c7.6,6.9,15,10.1,23.1,10.1c4.4,0,8.4-0.9,12.7-1.9
		c1.2-0.3,2.4-0.7,3.7-1.2l0.2-0.1l0.2,0.1c4,2.2,12.3,5.9,23.3,5.9c8,0,16.1-1.9,24-5.8l0.3-0.1l0.2,0.2
		C216.2,407,221.4,411.1,221.6,411.3L221.6,411.3z"/>
	<path fill="#C8C8C8" d="M288.4,401.1c0,0,8.6-6.5,18.1-7.6c9.5-1.1,25.7,5.9,25.7,5.9s-5.3,10.8-15.4,10.5S288.4,401.1,288.4,401.1
		z"/>
	<path fill="#FF9FB8" d="M124.6,268.4l24.1,4.3c0,0,0.8,40.1-30.9,53.1L124.6,268.4z"/>
	<path fill="#FF9FB8" d="M377.2,267.4l-23.4,4.2c0,0-0.7,38.8,29.9,51.4L377.2,267.4z"/>
	<path fill="#C8C8C8" d="M163.1,401.1c0,0,8.6-6.5,18.1-7.6c9.5-1.1,25.7,5.9,25.7,5.9s-5.3,10.8-15.4,10.5
		C181.4,409.8,163.1,401.1,163.1,401.1z"/>
	<path fill="#FF6687" d="M150.8,273.2l16.3,2.2l-3.5,29.2c0,0,25.6,3.9,60.3,4.3c34.7,0.4,96.2-2.9,104.6-3.9s8.4-1,8.4-1l-2.8-29.9
		l18.3-2.5l4.1,29.2c0,0,6.6,9.2,12.3,14.3c5.7,5.1,14.6,8.4,14.6,8.4s11.1,24.7,7.1,43.9s-17.1,37.5-34.6,35.8s-40-15.9-50.4-12.6
		s-22.3,19.5-33.9,21.9s-24.3,8.1-38.9,0s-33.5-21.8-37.9-21.8s-27.1,10-38.8,11.2c-11.6,1.3-26.4,2.8-35-8.3s-11.6-27.1-9-41.8
		s4.8-22.4,4.8-22.4S145.5,317.3,150.8,273.2z"/>
	<path d="M395.4,359.6c-0.3-6.6-2.9-19.8-5.9-35.1l-0.1-0.6c-3.3-16.3-6.8-36.6-7-45.5c-0.1-5.6,0.6-13.5,0.6-21.9v-0.4
		c0-17.3-0.4-40.9-2-56.5c-1.3-12.7-6.4-44.9-21.4-69c-13.9-22.3-30.9-36.7-53-45.6c-20.3-8.2-57.5-9.1-58.6-9.1
		c-9.5,0-33.9,0.8-54.2,9c-22.1,9-39,23.5-52.9,45.7c-15,24-19.8,56.3-21.1,69c-1.7,15.6-1.5,39.2-1.4,56.5l0,4c0,7,0,13.5-0.1,18.3
		c-0.2,9-4.3,29.2-7.6,45.5l-0.2,0.7c-3,15.3-5.7,28.4-5.9,35c-0.6,17,4.1,28.4,16.4,39.5c7.9,7.1,15.5,10.4,23.9,10.4
		c4.6,0,8.6-0.9,13.1-2c1.2-0.3,2.5-0.7,3.8-1.2c4.4,2.5,12.9,6.1,24,6.1c7.2,0,15.6-1.5,24.8-5.9c5.3,4.3,10.7,8,10.8,8.1
		c14.2,8.1,26.5,9.5,28.3,9.5h0.4c1.8,0,14-0.8,28.8-9.5c0,0,4.8-3.3,9.7-7.3c8.5,3.8,16.2,5.2,23,5.2c12.1,0,21-4.3,25-6.7
		c1.9,0.8,3.7,1.4,5.4,1.8c4.5,1.1,8.5,2,13.1,2c8.6,0,15.9-3.2,23.9-10.4C391.3,388,396.1,376.5,395.4,359.6z M171.4,402.3
		c6.5-2.8,14.7-6,21.7-6c4.7,0,8.2,1.4,11.2,4.4l0.2,0.2C190.3,406.8,178.7,404.9,171.4,402.3z M295.1,401.7
		c0.3-0.3,0.6-0.6,0.9-0.9c3.1-3.1,6.5-4.5,11.2-4.5c6.6,0,14.1,2.7,20.4,5.4C320.7,404.5,309.2,406.9,295.1,401.7z M373.7,393.2
		c-6.5,5.9-12,8.4-18.6,8.4c-3.6,0-7.1-0.8-11.2-1.8c-2.2-0.5-4.9-1.7-8.3-3.2l-0.6-0.3c-7.6-3.4-18.1-8-27.9-8
		c-6.8,0-12.3,2.2-16.8,6.8c-11.9,12.1-23.7,17-31.5,18.9c-0.2,0.1-7.7,2.1-16.5-0.3c-8.8-2.4-20.7-6.6-32.5-18.6
		c-4.5-4.6-10-6.8-16.8-6.8c-9.7,0-20.1,4.6-27.9,8l-0.3,0.2c-3.5,1.6-6.3,2.8-8.6,3.4c-4.1,1-7.5,1.8-11.2,1.8
		c-6.5,0-12.2-2.6-18.6-8.4c-10.6-9.6-14.4-18.7-13.8-33.4c0.2-6,2.8-18.9,5.8-33.8l0.1-0.7c3.5-17.4,7.5-37.2,7.7-46.9
		c0.1-4.9,0.1-11.5,0.1-18.5l0-4c-0.1-17.1-0.3-40.5,1.3-55.6c1.3-12.2,5.8-43,20-65.6c13-20.8,28.6-34.3,49.1-42.6
		c19-7.7,42.1-8.8,51.2-8.8c0.8,0,36.5,0.9,55.5,8.5c20.5,8.3,36.1,22,49.1,42.8c14.2,22.7,19.2,53.5,20.5,65.7
		c1.6,15.1,1.9,38.6,1.9,55.7v0.4c0,8.4-0.7,16.4-0.5,22.1c0.3,9.6,4,29.4,7.5,46.9l0,0.6c3,15,5.5,27.9,5.7,33.9
		C388.2,374.6,384.4,383.6,373.7,393.2z"/>
	<path d="M330.2,187.3c0,11.4-9.3,20.7-20.7,20.7s-20.7-9.3-20.7-20.7c0-1,0.1-1.9,0.2-2.9c1.3,0.9,2.8,1.4,4.4,1.4
		c4.3,0,7.8-3.5,7.8-7.8c0-3.1-1.8-5.8-4.5-7c3.5-2.7,7.9-4.4,12.7-4.4C320.9,166.6,330.2,175.8,330.2,187.3z"/>
	<path d="M211.2,187.3c0,11.4-9.3,20.7-20.7,20.7c-11.4,0-20.7-9.3-20.7-20.7c0-1,0.1-1.9,0.2-2.9c1.3,0.9,2.8,1.4,4.4,1.4
		c4.3,0,7.8-3.5,7.8-7.8c0-3.1-1.8-5.8-4.5-7c3.5-2.7,7.9-4.4,12.7-4.4C201.9,166.6,211.2,175.8,211.2,187.3z"/>
	<path d="M230.9,238c12.1,10.6,28.5,10.5,40.5,0c2.8-2.4-1.3-6.4-4-4c-9.6,8.3-22.8,8.4-32.5,0C232.2,231.6,228.1,235.6,230.9,238
		L230.9,238z"/>
	
		<ellipse transform="matrix(0.7169 -0.6971 0.6971 0.7169 -112.9338 175.5088)" fill="#F68694" cx="159.7" cy="226.8" rx="8" ry="3.6"/>
	
		<ellipse transform="matrix(0.7169 -0.6971 0.6971 0.7169 -109.5173 186.4544)" fill="#F68694" cx="174.8" cy="228.1" rx="8" ry="3.6"/>
	
		<ellipse transform="matrix(0.7169 -0.6971 0.6971 0.7169 -105.2185 197.0418)" fill="#F68694" cx="190" cy="228.1" rx="8" ry="3.6"/>
	
		<ellipse transform="matrix(-0.7169 -0.6971 0.6971 -0.7169 425.8532 629.0911)" fill="#F68694" cx="340.6" cy="228.1" rx="8" ry="3.6"/>
	
		<ellipse transform="matrix(-0.7169 -0.6971 0.6971 -0.7169 398.8955 620.6766)" fill="#F68694" cx="325.5" cy="229.4" rx="8" ry="3.6"/>
	
		<ellipse transform="matrix(-0.7169 -0.6971 0.6971 -0.7169 372.8202 610.0892)" fill="#F68694" cx="310.3" cy="229.4" rx="8" ry="3.6"/>
	<path d="M170.2,162.9c17.4,0.7,35.9-1,49-13.8c2.3-2.3-1.2-5.8-3.5-3.5c-12.1,11.9-29.4,13-45.4,12.4
		C167,157.8,167,162.8,170.2,162.9L170.2,162.9z"/>
	<path fill="#FF9FB8" d="M170,275.3c0,0,114.8,6.2,165.4,0.1l1.3,25.9c0,0-132.2,14.6-173,0.5"/>
	<path d="M332.4,157.9c-16.1,0.6-33.3-0.5-45.4-12.4c-2.3-2.3-5.8,1.3-3.5,3.5c13.1,12.8,31.5,14.5,49,13.8
		C335.6,162.8,335.6,157.8,332.4,157.9L332.4,157.9z"/>
	<path d="M125.1,269.9c64.7,12.4,131.1,15,196.5,7.5c18.3-2.1,36.6-5,54.7-8.7c3.2-0.6,1.8-5.5-1.3-4.8
		c-63.5,12.8-128.8,16-193.2,9.4c-18.6-1.9-37-4.7-55.3-8.2C123.3,264.5,121.9,269.3,125.1,269.9L125.1,269.9z"/>
	<path d="M116.7,330.6c6.3-1.7,11.5-7.1,15.9-11.7c5-5.2,9.3-10.9,13-17c1.7-2.8-2.7-5.3-4.3-2.5c-3.2,5.3-6.8,10.3-11.1,14.8
		c-4,4.3-9,10.1-14.8,11.6C112.2,326.6,113.6,331.4,116.7,330.6L116.7,330.6z"/>
	<path d="M355.2,299c5.4,13.9,17.8,21.6,30.4,28.4c2.8,1.5,5.4-2.8,2.5-4.3c-11.2-6-23.3-12.9-28.1-25.4
		C358.8,294.7,354,295.9,355.2,299L355.2,299z"/>
	<path d="M142.6,303.1c71.4,10.2,143.9,9.8,215.1-1.2c3.2-0.5,1.8-5.3-1.3-4.8c-70.3,10.8-142.1,11.2-212.5,1.2
		C140.8,297.8,139.5,302.7,142.6,303.1L142.6,303.1z"/>
	<path d="M147.4,273.7c-1.1,8.6-2.3,17.2-5.8,25.2c-1.3,2.9,3,5.5,4.3,2.5c3.9-8.8,5.3-18.2,6.5-27.7
		C152.8,270.5,147.8,270.5,147.4,273.7L147.4,273.7z"/>
	<path d="M167.2,302.6c1-8.9,2.3-17.8,3.8-26.6c0.5-3.1-4.3-4.5-4.8-1.3c-1.6,9.3-2.9,18.6-3.9,27.9
		C161.8,305.8,166.8,305.8,167.2,302.6L167.2,302.6z"/>
	<path d="M351.5,271.5c-1,11,1,21.7,5.7,31.7c1.4,2.9,5.7,0.4,4.3-2.5c-4.3-9.2-6-19.1-5-29.2C356.8,268.3,351.8,268.3,351.5,271.5
		L351.5,271.5z"/>
	<path d="M332.9,274c0.6,9.1,1.3,18.2,1.9,27.2c0.2,3.2,5.2,3.2,5,0c-0.6-9.1-1.3-18.2-1.9-27.2C337.7,270.8,332.7,270.8,332.9,274
		L332.9,274z"/>
	<g>
		<circle fill="#FFCAD8" cx="150.5" cy="315" r="6.7"/>
		<path d="M155.7,315c-0.4,6.7-10.4,6.7-10.4,0C145.2,308.3,155.3,308.4,155.7,315c0.1,1.9,3.1,1.9,3,0c-0.2-4.5-3.6-8.2-8.2-8.2
			c-4.5,0-8.2,3.8-8.2,8.2c0,4.3,3.5,8,7.9,8.2c4.8,0.2,8.3-3.6,8.6-8.2C158.8,313.1,155.8,313.1,155.7,315z"/>
	</g>
	<g>
		<circle fill="#FFCAD8" cx="349.5" cy="314" r="6.7"/>
		<path d="M354.7,314c-0.4,6.7-10.4,6.7-10.4,0C344.2,307.3,354.3,307.4,354.7,314c0.1,1.9,3.1,1.9,3,0c-0.2-4.5-3.6-8.2-8.2-8.2
			c-4.5,0-8.2,3.8-8.2,8.2c0,4.3,3.5,8,7.9,8.2c4.8,0.2,8.3-3.6,8.6-8.2C357.8,312.1,354.8,312.1,354.7,314z"/>
	</g>
	<path d="M314,329c-42.9,4.9-86.4,4.7-129.3,0c-1.3-0.1-2.8,1.3-2.8,2.5c0,8.6,0,17.2,0,25.8c0,2.6-0.6,6.4,1.5,8.3
		c1.6,1.5,4.6,2.6,6.5,3.6c12,6.5,25,11.9,38.3,14.9c17.4,4,33.9,1.4,50.9-3.7c12.3-3.7,24.4-8.5,35.8-14.7c0.8-0.4,1-1.3,1-2.2
		c0-10.7,0-21.7,0-31.7c0-4-5-4-5,0c0,10,0,20.9,0,31.7c1-0.7,1.1-1.4,1.5-2.2c-7.3,4-14.9,7.2-22.7,10.1
		c-14.7,5.5-31,10.7-46.8,9.8c-19.7-1.2-40.3-9.6-57-20.1c0.4,0.7,1,1.4,1,2.2c0-10.7,0-21.3,0-32c0,0.8-1.4,1.7-2.3,2.5
		c42.9,4.7,86.3,4.9,129.1,0C317,333.6,317.2,328.6,314,329z"/>
	<g>
		<g>
			<g>
				<path fill="#77394A" d="M274.3,370.3h-47.8c-2.2,0-4.2-1.5-4.4-3.3l-5.6-55.1c-0.3-2.6,1.8-4.8,4.5-4.8h58.8
					c2.8,0,4.8,2.2,4.5,4.8l-5.6,55.1C278.5,368.9,276.5,370.3,274.3,370.3z"/>
				<path d="M274.3,367.8c-15.3,0-31,1-46.3,0c-0.9-0.1-1.5,0.1-2.4-0.4c-1.4-0.9-0.7-0.6-1.1-2.1c-0.8-3.1-0.7-6.8-1-10
					c-1-10-2-20-3-30c-0.3-3.2-3.6-14.5,1.1-15.7c2.2-0.6,5.3,0,7.5,0c4.7,0,9.4,0,14.1,0c9.7,0,19.4,0,29.2,0
					c4.6,0,9.9-1.3,9.3,4.9c-1,10.1-2.1,20.2-3.1,30.4c-0.5,5.1-1,10.2-1.6,15.3C276.6,362.6,277.3,367.4,274.3,367.8
					c-3.1,0.4-3.2,5.4,0,5c8.8-1.1,7.5-11.5,8.2-18.3c1.1-11.1,2.2-22.1,3.4-33.2c0.6-6.3,3.2-16.1-6.3-16.7c-8-0.5-16.2,0-24.2,0
					c-10.3,0-20.6,0-30.9,0c-2.6,0-5.4-0.3-7.6,1.4c-3.1,2.3-2.8,5.4-2.5,8.7c1,10.2,2.1,20.4,3.1,30.6c0.7,7.2,0.8,14.9,2.2,22
					c1,4.7,5.3,5.4,9.4,5.4c5.3,0,10.6,0,16,0c9.8,0,19.5,0,29.3,0C277.5,372.8,277.5,367.8,274.3,367.8z"/>
			</g>
			<g>
				<path fill="#77394A" d="M285.4,311.5h-71.3c-2.8,0-5-2.3-5-5v-7.9c0-2.8,2.3-5,5-5h71.3c2.8,0,5,2.3,5,5v7.9
					C290.4,309.3,288.1,311.5,285.4,311.5z"/>
				<path d="M285.4,309c-22.6,0-45.3,0-67.9,0c-1,0-2.3,0.2-3.3,0c-3.4-0.9-3-6.8-2.6-9.8c0.7-4.4,6.3-3.1,9.7-3.1
					c13.9,0,27.8,0,41.7,0c6.4,0,12.7,0,19.1,0c1.4,0,3-0.3,4.2,0.4c2.2,1.1,1.6,3.9,1.6,6.1c0,2.9,0.7,6-3.2,6.5
					c-3.2,0.4-1.8,5.2,1.3,4.8c4.7-0.6,6.7-4.2,6.8-8.6c0.1-3.4,0.7-8-1.4-10.9c-2.9-4.1-8.5-3.2-12.9-3.2c-16.6,0-33.3,0-49.9,0
					c-4.7,0-9.6-0.3-14.3,0c-8.2,0.5-8.5,9.7-7.6,16c1,6.7,6.7,6.8,12,6.8c7.4,0,14.8,0,22.2,0c14.8,0,29.7,0,44.5,0
					C288.6,314,288.6,309,285.4,309z"/>
			</g>
		</g>
		<g>
			<g>
				<path fill="#31A867" d="M250.8,292.9L250.8,292.9L250.8,292.9c0-16,13-28.9,28.9-28.9h0v0C279.7,279.9,266.7,292.9,250.8,292.9z
					"/>
				<path d="M250.8,291.4L250.8,291.4c0.5,0.5,1,1,1.5,1.5c0-15,12.5-27.4,27.4-27.4c-0.5-0.5-1-1-1.5-1.5
					C278.2,279.2,265.7,291,250.8,291.4c-1.9,0-1.9,3,0,3c16.6-0.4,30.4-13.6,30.4-30.4c0-0.8-0.7-1.5-1.5-1.5
					c-16.6,0-30.4,13.9-30.4,30.4c0,0.8,0.7,1.5,1.5,1.5h0C252.7,294.4,252.7,291.4,250.8,291.4z"/>
			</g>
			<path d="M251.8,293.9c9.2-9.2,18.5-18.5,27.7-27.7c1.4-1.4-0.8-3.5-2.1-2.1c-9.2,9.2-18.5,18.5-27.7,27.7
				C248.3,293.2,250.4,295.3,251.8,293.9L251.8,293.9z"/>
		</g>
		<g>
			<g>
				<path fill="#31A867" d="M249.7,292.9L249.7,292.9L249.7,292.9c0-16-13-28.9-28.9-28.9h0v0C220.8,279.9,233.7,292.9,249.7,292.9z
					"/>
				<path d="M249.7,294.4L249.7,294.4c0.8,0,1.5-0.7,1.5-1.5c0-16.6-13.9-30.4-30.4-30.4c-0.8,0-1.5,0.7-1.5,1.5
					C219.3,280.8,233.1,294,249.7,294.4c1.9,0,1.9-3,0-3c-15-0.4-27.4-12.2-27.4-27.4c-0.5,0.5-1,1-1.5,1.5
					c15,0,27.4,12.5,27.4,27.4c0.5-0.5,1-1,1.5-1.5h0C247.8,291.4,247.8,294.4,249.7,294.4z"/>
			</g>
			<path d="M250.7,291.8c-9.2-9.2-18.5-18.5-27.7-27.7c-1.4-1.4-3.5,0.8-2.1,2.1c9.2,9.2,18.5,18.5,27.7,27.7
				C250,295.3,252.1,293.2,250.7,291.8L250.7,291.8z"/>
		</g>
	</g>
	<path fill="#AD363C" d="M127.3,151c0,0,75.6,12.3,123-61.3c0,0,49.6,78.5,126.6,62c0,0-17-75.8-123.5-79.8
		C253.5,72,144.7,66,127.3,151z"/>
	<path d="M125.7,154.2c9.4,1.8,19.4,1.4,28.8,0.3c22.2-2.6,43.4-11.1,61.4-24.4c14.2-10.5,26.2-23.5,36.4-37.9
		c1.9-2.6-2.5-5.1-4.3-2.5c-25.7,36.5-66.3,62.6-112.1,60.5c-3.1-0.1-6.1-0.3-8.8-0.9C123.9,148.8,122.5,153.6,125.7,154.2
		L125.7,154.2z"/>
	<path d="M373.4,149.4c-7.9,1.5-17.5,1.2-25.9,0.3c-21-2.2-41.1-10.2-58.3-22.3c-14.4-10.2-26.6-23.3-36.7-37.7
		c-1.8-2.6-6.2-0.1-4.3,2.5c26.7,37.9,68.8,65.2,116.4,63c3.4-0.2,6.8-0.4,10.2-1.1C377.9,153.6,376.6,148.8,373.4,149.4
		L373.4,149.4z"/>
	<path d="M400.7,181.2c-0.3-44.6-26.4-85.4-65.3-106.6c-18.6-10.2-39.5-15.6-60.6-15.7c-12.4-0.1-24.8,0-37.2,0
		c-14.4,0-28.5-0.1-42.7,3c-20.4,4.5-39.6,14.2-55.3,28c-15.6,13.7-27.4,31.6-33.8,51.3c-7.5,23.1-4.6,46.5-5.5,70.3
		c-0.3,8-0.6,16.9-3.6,24.4c-1.3,3.2-3.1,5.7-6.4,6.8c-8.9,3.1-19.2,1.8-28.8,1.9c-2.2,0-3.3,2.7-1.8,4.3
		c6.4,6.8,14.6,12.5,23.1,16.2c14.9,6.4,29.9,3.8,40.7-8.5c2.1-2.4-1.4-6-3.5-3.5c-10.5,12-24.6,13.1-38.4,6
		c-6.7-3.5-13.2-8.1-18.4-13.7c-0.6,1.4-1.2,2.8-1.8,4.3c8.9-0.2,17.9,0.2,26.7-1.3c7.4-1.3,11.6-5.7,13.9-12.8
		c2.1-6.5,2.6-13.6,3-20.4c0.7-12.3,0.2-24.6,0.1-37c-0.1-22,6.1-43.7,18.2-62.1c22.3-33.9,61-52.3,101.1-52.3c13.5,0,27,0,40.5,0
		c15.7,0,31,0.8,46.1,5.6c48.3,15.3,84.3,60.5,84.6,111.7C395.7,184.4,400.7,184.5,400.7,181.2L400.7,181.2z"/>
	<path d="M395.7,181.2c-0.4,13.3-0.7,26.7,0.6,40c0.6,6.3,1.4,13.3,4.6,19c3.8,6.9,11.1,7.9,18.3,8.6c6.7,0.6,13.6,0.3,20.4,0.4
		c-0.6-1.4-1.2-2.8-1.8-4.3c-5.2,5.5-11.7,10.2-18.4,13.7c-13.8,7.1-27.9,6-38.4-6c-2.1-2.4-5.7,1.1-3.5,3.5
		c10.8,12.3,25.9,14.9,40.7,8.5c8.5-3.7,16.7-9.4,23.1-16.2c1.5-1.6,0.4-4.2-1.8-4.3c-9.3-0.2-18.2,0.4-27-1.4
		c-9-1.9-10.2-12.3-11.1-20.1c-1.5-13.7-1.2-27.7-0.8-41.5C400.8,178,395.8,178,395.7,181.2L395.7,181.2z"/>
	<g>
		<g>
			<path fill="#FF9FB8" d="M255.3,318l96.9-43.9c14.9-6.2,32.5,0.2,39.1,14.3l0,0c6.6,14.1-0.2,30.8-15.1,37l-100.7,35.7"/>
			<path d="M256.6,320.2c31.7-14.3,63.3-28.9,95.1-43c11.9-5.3,26.6-2.9,34.7,7.9c9.8,13.2,3.8,32-11.2,38.1
				c-15.6,6.4-31.9,11.3-47.7,16.9c-17.6,6.2-35.1,12.5-52.7,18.7c-3,1.1-1.7,5.9,1.3,4.8c16.3-5.8,32.6-11.6,49-17.3
				c17.2-6.1,34.7-11.6,51.6-18.3c13.8-5.4,22.3-20.5,18.8-35.1c-3.8-15.8-20.2-25.4-35.9-23.3c-6.7,0.9-12.7,4.2-18.7,7
				c-10.2,4.6-20.5,9.3-30.7,13.9c-18.7,8.5-37.4,16.9-56.1,25.4C251.1,317.2,253.6,321.5,256.6,320.2L256.6,320.2z"/>
		</g>
		<path d="M265,336.8c8-3.4,16.1-6.7,24.1-10.1c-0.6-0.2-1.1-0.5-1.7-0.7c3.8,8,7.5,16.1,11.3,24.1c0.8,1.7,3.4,0.2,2.6-1.5
			c-3.8-8-7.5-16.1-11.3-24.1c-0.2-0.5-1.1-0.9-1.7-0.7c-8,3.4-16.1,6.7-24.1,10.1C262.4,334.6,263.2,337.5,265,336.8L265,336.8z"/>
		<g>
			<path fill="#FFCAD8" d="M287.9,339.7c-0.4,2.4-2.7,4.1-5.3,3.7c-2.5-0.4-4.3-2.6-3.9-5c0.4-2.4,2.7-4.1,5.3-3.7
				C286.5,335.1,288.3,337.3,287.9,339.7z"/>
			<path d="M286.4,339.3c-0.8,3.7-6.9,3.2-6.3-0.7c0.7-3.9,6.6-2.8,6.2,1.1c-0.2,1.9,2.8,1.9,3,0c0.7-7.5-11.1-8.9-12.2-1.5
				c-0.5,3.2,1.9,6.1,5,6.6c3.3,0.6,6.4-1.5,7.1-4.8C289.7,338.3,286.8,337.4,286.4,339.3z"/>
		</g>
		<g>
			<path fill="#FFFFFF" d="M255.3,318.3l18.6,43.5c0,0-29.9,6.7-37-9.9C230.3,336.5,255.3,318.3,255.3,318.3z"/>
			<path d="M253.1,319.6c6.2,14.5,12.4,29,18.6,43.5c0.5-1.2,1-2.4,1.5-3.7c-9.9,2.2-26.1,3.3-32.7-6.1c-8.1-11.6,7.3-26.4,16-32.8
				c2.6-1.9,0.1-6.2-2.5-4.3c-10.9,8-26.9,24.3-18.3,38.8c7.4,12.5,26.5,12,38.9,9.3c1.7-0.4,2.1-2.3,1.5-3.7
				c-6.2-14.5-12.4-29-18.6-43.5C256.2,314.1,251.9,316.7,253.1,319.6z"/>
		</g>
	</g>
	<g>
		<g>
			<path fill="#FF9FB8" d="M247,318.7L150,274.9c-14.9-6.2-32.5,0.2-39.1,14.3l0,0c-6.6,14.1,0.2,30.8,15.1,37l100.7,35.7"/>
			<path d="M248.2,316.6c-32.3-14.6-64.3-29.9-96.8-43.8c-14.3-6.1-31.9-1.5-40.6,11.6c-8.8,13.4-4.8,31.4,8,40.6
				c5.2,3.7,11.6,5.4,17.6,7.5c10.6,3.8,21.3,7.5,31.9,11.3c19.3,6.8,38.6,13.7,57.8,20.5c3,1.1,4.3-3.8,1.3-4.8
				c-32.9-11.6-65.7-23.3-98.6-34.9c-11.7-4.1-19.9-15.7-17.6-28.3c3-16.9,22.4-25.3,37.7-19.1c15.4,6.3,30.4,13.8,45.6,20.6
				c17.1,7.7,34.1,15.4,51.2,23.2C248.6,322.2,251.1,317.9,248.2,316.6L248.2,316.6z"/>
		</g>
		<path d="M238,334.6c-8-3.4-16.1-6.7-24.1-10.1c-0.6-0.2-1.4,0.1-1.7,0.7c-3.8,8-7.5,16.1-11.3,24.1c-0.8,1.7,1.8,3.3,2.6,1.5
			c3.8-8,7.5-16.1,11.3-24.1c-0.6,0.2-1.1,0.5-1.7,0.7c8,3.4,16.1,6.7,24.1,10.1C239,338.2,239.8,335.3,238,334.6L238,334.6z"/>
		<g>
			<path fill="#FFCAD8" d="M214.4,340.4c0.4,2.4,2.7,4.1,5.3,3.7c2.5-0.4,4.3-2.6,3.9-5c-0.4-2.4-2.7-4.1-5.3-3.7
				C215.7,335.8,214,338,214.4,340.4z"/>
			<path d="M212.9,340.8c0.7,3.2,3.9,5.3,7.1,4.8c3.1-0.5,5.5-3.4,5-6.6c-1.1-7.4-12.9-6-12.2,1.5c0.2,1.9,3.2,1.9,3,0
				c-0.4-3.9,5.6-4.9,6.2-1.1c0.7,3.9-5.5,4.4-6.3,0.7C215.4,338.1,212.5,338.9,212.9,340.8z"/>
		</g>
		<g>
			<path fill="#FFFFFF" d="M247,319l-18.6,43.5c0,0,29.9,6.7,37-9.9C271.9,337.2,247,319,247,319z"/>
			<path d="M244.8,317.8c-6.2,14.5-12.4,29-18.6,43.5c-0.6,1.4-0.2,3.3,1.5,3.7c12.4,2.7,31.5,3.3,38.9-9.3
				c8.6-14.5-7.4-30.8-18.3-38.8c-2.6-1.9-5.1,2.4-2.5,4.3c8.7,6.4,24.1,21.2,16,32.8c-6.6,9.4-22.8,8.3-32.7,6.1
				c0.5,1.2,1,2.4,1.5,3.7c6.2-14.5,12.4-29,18.6-43.5C250.4,317.4,246.1,314.8,244.8,317.8z"/>
		</g>
	</g>
	<g>
		<g>
			<path fill="#FFFFFF" d="M145.4,108.2c4.3-5.1,9.1-9.6,14.5-13.4c2.6-1.9,0.1-6.2-2.5-4.3c-5.7,4.1-11,8.8-15.5,14.2
				C139.8,107.1,143.3,110.7,145.4,108.2L145.4,108.2z"/>
		</g>
	</g>
	<g>
		<g>
			<path fill="#FFFFFF" d="M167.3,89.5c3.2,0,3.2-5,0-5C164.1,84.5,164.1,89.5,167.3,89.5L167.3,89.5z"/>
		</g>
	</g>
</g>
<g id="Layer_2">
</g>
</svg>
