<?xml version="1.0" encoding="utf-8"?>
<!-- Generator: Adobe Illustrator 18.1.1, SVG Export Plug-In . SVG Version: 6.00 Build 0)  -->
<svg version="1.1" id="Layer_1" xmlns="http://www.w3.org/2000/svg" xmlns:xlink="http://www.w3.org/1999/xlink" x="0px" y="0px"
	 viewBox="0 0 500 500" enable-background="new 0 0 500 500" xml:space="preserve">
<g>
	<path fill="#AFAF52" d="M336.4,160.4c0,0,17.3-22.9,47.8-14.3c30.5,8.6,12.2,66.4,18.9,78.8c6.6,12.4,11.5-7.7,16.4-7.4
		c4.9,0.4,8.2,50-47.1,23.3C317.1,214.1,324.8,174.7,336.4,160.4z"/>
	<g>
		<path d="M338.6,161.7c-0.8,1,0.8-0.9,1.1-1.3c1.4-1.5,2.9-2.9,4.5-4.2c4.7-3.8,10.3-6.7,16.2-8.3c13.5-3.5,30.7-1.1,36.3,13.2
			c4.5,11.4,3.5,24.8,2.9,36.8c-0.4,8.4-2.7,19.7,1,27.6c1.8,4,5.6,7.5,10,4.9c3.2-1.9,7.1-7.7,8.5-10.4c-0.5,0.9-0.5-1.4-0.5,0.1
			c0,1,0.6,2.2,0.7,3.2c0.3,2.9,0.1,5.9-0.6,8.6c-7,29.1-48.4,6.5-62.1-3.2c-12.7-9-23.9-22-25.8-38c-1.2-9.8,1-20.7,7.3-28.5
			c2-2.5-1.5-6-3.5-3.5c-15.5,19.4-9.3,46.5,6.7,63.4c12.8,13.5,31.9,24.5,50.2,28.2c10.1,2,21.3,1,27.9-7.8c4.3-5.8,6-13.9,4.7-21
			c-0.4-2-1-4.8-3-5.9c-4.1-2.3-7.5,3.5-9.4,6.2c-1.2,1.7-2.9,5.3-5.1,4.1c-1.7-0.9-2.2-4.5-2.4-6.3c-0.7-5.5-0.1-11.2,0.2-16.7
			c0.7-13.5,2.1-28.2-2.2-41.3c-9.7-29.3-52.1-23-67.9-2.3C332.3,161.7,336.6,164.2,338.6,161.7z"/>
	</g>
</g>
<g>
	<g>
		<path fill="#FFFFFF" d="M130.1,317.9l-1.7,0.8c-11.5,5.1-25.9-3.9-31.6-18.9l-34.2-89.9c-3-8,1.3-19.9,8.1-22.9
			c6.7-3,18.5,1.7,22.4,9.3l44,85.5C144.5,296,141.6,312.7,130.1,317.9z"/>
		<g>
			<path d="M128.9,315.7C106,325.9,97.3,294,91.4,278.5c-7.8-20.5-15.6-40.9-23.3-61.4c-2.9-7.6-5.8-14.2-1.6-22.3
				c6.5-12.3,21-4.2,25.8,5.1c9.2,17.8,18.3,35.6,27.5,53.4c4.6,8.9,9.1,17.7,13.7,26.6C139.2,291.1,142.9,308.8,128.9,315.7
				c-2.9,1.4-0.4,5.7,2.5,4.3c15-7.3,14.2-26.9,7.8-39.8c-3.3-6.8-6.9-13.4-10.4-20.1c-10.6-20.6-21.2-41.3-31.9-61.9
				c-4.6-8.9-13.7-16.6-24.5-14.5c-12.2,2.4-15.3,18.5-11.6,28.5c7.8,20.9,15.9,41.7,23.8,62.6c3.2,8.4,6.3,16.8,9.6,25.2
				c5.9,15.2,20.7,27.3,37.1,19.9C134.3,318.7,131.8,314.4,128.9,315.7z"/>
		</g>
	</g>
	<g>
		<path fill="#1AAD55" d="M97.7,308.3l-8.4-18.8l46.7-20.8l8.4,18.8c5.9,13.2,0.5,28.5-11.8,34l-1.6,0.7
			C118.5,327.7,103.5,321.5,97.7,308.3z"/>
		<g>
			<path d="M99.8,307c-2.8-6.3-5.6-12.6-8.4-18.8c-0.3,1.1-0.6,2.3-0.9,3.4c15.6-6.9,31.1-13.9,46.7-20.8c-1.1-0.3-2.3-0.6-3.4-0.9
				c4.6,10.4,12.5,22.5,9.8,34.3c-2.1,8.9-9.5,15.6-18.4,17.2C114.2,323.4,104.4,316.6,99.8,307c-1.4-2.9-5.7-0.4-4.3,2.5
				c4.8,10.1,14.9,17.4,26.4,17.2c9.7-0.2,19.4-5.9,23.9-14.5c8.2-15.4-1.5-30.7-7.8-44.8c-0.6-1.3-2.3-1.4-3.4-0.9
				c-15.6,6.9-31.1,13.9-46.7,20.8c-1.3,0.6-1.4,2.3-0.9,3.4c2.8,6.3,5.6,12.6,8.4,18.8C96.8,312.5,101.1,309.9,99.8,307z"/>
		</g>
	</g>
</g>
<path fill="#FFFFFF" d="M392.7,357.2c-0.3-6.5-2.8-19.4-5.8-34.4l-0.1-0.5c-3.2-16-6.9-35.9-7.1-44.6c-0.1-5.4,0.3-13.2,0.3-21.4
	v-0.4c0-16.9-0.1-40.1-1.7-55.3c-1.3-12.5-6.1-44-20.8-67.6c-13.6-21.8-30.2-35.9-51.9-44.7c-19.9-8-56.3-8.9-57.3-8.9
	c-9.3,0-33.2,0.8-53,8.8c-21.7,8.8-38.1,23-51.8,44.8c-14.7,23.5-19.4,55.1-20.7,67.6c-1.6,15.2-1.5,38.4-1.3,55.3l0,3.9
	c0,6.8,0,13.3-0.1,17.9c-0.2,8.8-4.2,28.6-7.4,44.6l-0.2,0.6c-3,14.9-5.5,27.8-5.8,34.3c-0.6,16.6,4.1,27.8,16.1,38.7
	c7.7,7,15.2,10.2,23.4,10.2c4.5,0,8.5-0.9,12.8-2c1.2-0.3,2.4-0.7,3.7-1.2c4.4,2.4,12.6,6,23.5,6c7.1,0,15.3-1.5,24.2-5.8
	c5.1,4.2,10.5,8.2,10.5,8.2c13.9,7.9,25.9,9.6,27.7,9.6h0.4c1.8,0,13.8-1.1,28.2-9.6c0,0,4.7-3.4,9.5-7.3c8.3,3.7,15.9,5,22.5,5
	c11.8,0,20.5-4.2,24.5-6.6c1.9,0.8,3.6,1.4,5.3,1.8c4.4,1.1,8.4,2,12.8,2c8.4,0,15.6-3.2,23.4-10.2
	C388.7,385.1,393.3,373.9,392.7,357.2z"/>
<g>
	<rect x="111" y="343" fill="#197F53" width="279" height="12"/>
</g>
<path fill="#1AAD55" d="M378,394.7c-6.7,6.3-12.4,8.9-19.2,8.9c-3.7,0-7.3-0.8-11.6-1.9c-2.2-0.6-5-1.8-8.6-3.4l-0.6-0.3
	c-7.9-3.6-18.6-8.6-28.8-8.6c-7,0-12.7,2.4-17.4,7.3c-12.2,12.9-24.5,18.1-32.5,20.1c-0.2,0.1-7.9,2.2-17-0.4
	c-9.1-2.6-21.4-7-33.5-19.8c-4.6-4.9-10.3-7.2-17.4-7.2c-10,0-20.8,4.9-28.8,8.5l-0.3,0.2c-3.6,1.7-6.5,3-8.8,3.6
	c-4.2,1.1-7.8,1.9-11.6,1.9c-6.7,0-12.6-2.7-19.2-8.9c-11-10.2-14.8-19.1-14.3-34.8c0.1-1.5,0.2-2.8,0.6-4.9h282.6
	c0.3,2.1,0.5,3.4,0.5,4.9C392.9,375.6,389,384.4,378,394.7z"/>
<path fill="#1AAD55" stroke="#000000" stroke-miterlimit="10" d="M386.6,341.5H114.2c0.9-5,2.1-11,3.3-16.8l0.1-0.9
	c3.5-17.3,7.5-36.8,7.8-46.4c0-1,0.1-1.9,0.1-2.9h250.4c0,1,0,1.8,0,2.8c0.3,9.5,4,29.1,7.5,46.4l0,1
	C384.5,330.6,385.7,336.5,386.6,341.5z"/>
<g>
	<polygon fill="#197F53" points="251.5,276 272.2,276 261.9,287.9 251.5,300 241.2,288 230.8,276 	"/>
</g>
<path fill="#C8C8C8" d="M288.4,401.1c0,0,8.6-6.5,18.1-7.6c9.5-1.1,25.7,5.9,25.7,5.9s-5.3,10.8-15.4,10.5S288.4,401.1,288.4,401.1z
	"/>
<path fill="#C8C8C8" d="M163.1,401.1c0,0,8.6-6.5,18.1-7.6c9.5-1.1,25.7,5.9,25.7,5.9s-5.3,10.8-15.4,10.5
	C181.4,409.8,163.1,401.1,163.1,401.1z"/>
<path d="M395.4,359.6c-0.3-6.6-2.9-19.8-5.9-35.1l-0.1-0.6c-3.3-16.3-6.8-36.6-7-45.5c-0.1-5.6,0.6-13.5,0.6-21.9v-0.4
	c0-17.3-0.4-40.9-2-56.5c-1.3-12.7-6.4-44.9-21.4-69c-13.9-22.3-30.9-36.7-53-45.6c-20.3-8.2-57.5-9.1-58.6-9.1
	c-9.5,0-33.9,0.8-54.2,9c-22.1,9-39,23.5-52.9,45.7c-15,24-19.8,56.3-21.1,69c-1.7,15.6-1.5,39.2-1.4,56.5l0,4c0,7,0,13.5-0.1,18.3
	c-0.2,9-4.3,29.2-7.6,45.5l-0.2,0.7c-3,15.3-5.7,28.4-5.9,35c-0.6,17,4.1,28.4,16.4,39.5c7.9,7.1,15.5,10.4,23.9,10.4
	c4.6,0,8.6-0.9,13.1-2c1.2-0.3,2.5-0.7,3.8-1.2c4.4,2.5,12.9,6.1,24,6.1c7.2,0,15.6-1.5,24.8-5.9c5.3,4.3,10.7,8,10.8,8.1
	c14.2,8.1,26.5,9.5,28.3,9.5h0.4c1.8,0,14-0.8,28.8-9.5c0,0,4.8-3.3,9.7-7.3c8.5,3.8,16.2,5.2,23,5.2c12.1,0,21-4.3,25-6.7
	c1.9,0.8,3.7,1.4,5.4,1.8c4.5,1.1,8.5,2,13.1,2c8.6,0,15.9-3.2,23.9-10.4C391.3,388,396.1,376.5,395.4,359.6z M171.4,402.3
	c6.5-2.8,14.7-6,21.7-6c4.7,0,8.2,1.4,11.2,4.4l0.2,0.2C190.3,406.8,178.7,404.9,171.4,402.3z M295.1,401.7c0.3-0.3,0.6-0.6,0.9-0.9
	c3.1-3.1,6.5-4.5,11.2-4.5c6.6,0,14.1,2.7,20.4,5.4C320.7,404.5,309.2,406.9,295.1,401.7z M373.7,393.2c-6.5,5.9-12,8.4-18.6,8.4
	c-3.6,0-7.1-0.8-11.2-1.8c-2.2-0.5-4.9-1.7-8.3-3.2l-0.6-0.3c-7.6-3.4-18.1-8-27.9-8c-6.8,0-12.3,2.2-16.8,6.8
	c-11.9,12.1-23.7,17-31.5,18.9c-0.2,0.1-7.7,2.1-16.5-0.3c-8.8-2.4-20.7-6.6-32.5-18.6c-4.5-4.6-10-6.8-16.8-6.8
	c-9.7,0-20.1,4.6-27.9,8l-0.3,0.2c-3.5,1.6-6.3,2.8-8.6,3.4c-4.1,1-7.5,1.8-11.2,1.8c-6.5,0-12.2-2.6-18.6-8.4
	c-10.6-9.6-14.4-18.7-13.8-33.4c0.2-6,2.8-18.9,5.8-33.8l0.1-0.7c3.5-17.4,7.5-37.2,7.7-46.9c0.1-4.9,0.1-11.5,0.1-18.5l0-4
	c-0.1-17.1-0.3-40.5,1.3-55.6c1.3-12.2,5.8-43,20-65.6c13-20.8,28.6-34.3,49.1-42.6c19-7.7,42.1-8.8,51.2-8.8
	c0.8,0,36.5,0.9,55.5,8.5c20.5,8.3,36.1,22,49.1,42.8c14.2,22.7,19.2,53.5,20.5,65.7c1.6,15.1,1.9,38.6,1.9,55.7v0.4
	c0,8.4-0.7,16.4-0.5,22.1c0.3,9.6,4,29.4,7.5,46.9l0,0.6c3,15,5.5,27.9,5.7,33.9C388.2,374.6,384.4,383.6,373.7,393.2z"/>
<path d="M330.2,187.3c0,11.4-9.3,20.7-20.7,20.7s-20.7-9.3-20.7-20.7c0-1,0.1-1.9,0.2-2.9c1.3,0.9,2.8,1.4,4.4,1.4
	c4.3,0,7.8-3.5,7.8-7.8c0-3.1-1.8-5.8-4.5-7c3.5-2.7,7.9-4.4,12.7-4.4C320.9,166.6,330.2,175.8,330.2,187.3z"/>
<path d="M211.2,187.3c0,11.4-9.3,20.7-20.7,20.7c-11.4,0-20.7-9.3-20.7-20.7c0-1,0.1-1.9,0.2-2.9c1.3,0.9,2.8,1.4,4.4,1.4
	c4.3,0,7.8-3.5,7.8-7.8c0-3.1-1.8-5.8-4.5-7c3.5-2.7,7.9-4.4,12.7-4.4C201.9,166.6,211.2,175.8,211.2,187.3z"/>
<ellipse transform="matrix(0.7169 -0.6971 0.6971 0.7169 -112.9338 175.5088)" fill="#F68694" cx="159.7" cy="226.8" rx="8" ry="3.6"/>
<ellipse transform="matrix(0.7169 -0.6971 0.6971 0.7169 -109.5173 186.4544)" fill="#F68694" cx="174.8" cy="228.1" rx="8" ry="3.6"/>
<ellipse transform="matrix(0.7169 -0.6971 0.6971 0.7169 -105.2185 197.0418)" fill="#F68694" cx="190" cy="228.1" rx="8" ry="3.6"/>
<ellipse transform="matrix(-0.7169 -0.6971 0.6971 -0.7169 425.8532 629.0911)" fill="#F68694" cx="340.6" cy="228.1" rx="8" ry="3.6"/>
<ellipse transform="matrix(-0.7169 -0.6971 0.6971 -0.7169 398.8955 620.6766)" fill="#F68694" cx="325.5" cy="229.4" rx="8" ry="3.6"/>
<ellipse transform="matrix(-0.7169 -0.6971 0.6971 -0.7169 372.8202 610.0892)" fill="#F68694" cx="310.3" cy="229.4" rx="8" ry="3.6"/>
<g>
	<path fill="#823636" d="M269.7,223c0,0-3.8,30.3-20,30.3s-20-30.3-20-30.3H269.7z"/>
	<g>
		<path d="M267.2,223.4c0.1-0.9-0.1,0.5-0.1,0.8c-0.2,1-0.3,1.9-0.5,2.9c-0.6,3-1.4,6.1-2.5,9c-2.2,6.3-6.5,15.1-14.3,15.1
			c-7.8,0-12.1-8.8-14.3-15.1c-1-2.8-1.8-5.7-2.4-8.7c-0.2-1-0.3-2.2-0.6-3.2c-0.1-0.3-0.3-1.8-0.1-0.8c-0.8,0.8-1.7,1.7-2.5,2.5
			c13.3,0,26.7,0,40,0c3.2,0,3.2-5,0-5c-13.3,0-26.7,0-40,0c-1.2,0-2.7,1.2-2.5,2.5c1.5,12.1,7.2,32.8,22.5,32.8
			c15.3,0,21-20.7,22.5-32.8C272.7,220.2,267.6,220.2,267.2,223.4z"/>
	</g>
</g>
<g>
	<polygon fill="#1AAD55" points="231.3,276.3 251.5,299.9 209.9,307.3 	"/>
	<g>
		<path d="M229.6,278c6.7,7.9,13.5,15.8,20.2,23.6c0.4-1.4,0.7-2.8,1.1-4.2c-13.9,2.4-27.7,4.9-41.6,7.3c0.9,1.2,1.9,2.4,2.8,3.7
			c7.1-10.3,14.3-20.6,21.4-31c1.8-2.7-2.5-5.2-4.3-2.5c-7.1,10.3-14.3,20.6-21.4,31c-1.4,2,0.9,4,2.8,3.7
			c13.9-2.4,27.7-4.9,41.6-7.3c2-0.4,2.2-2.9,1.1-4.2c-6.7-7.9-13.5-15.8-20.2-23.6C231,272.1,227.5,275.6,229.6,278z"/>
	</g>
</g>
<g>
	<polygon fill="#1AAD55" points="272.1,276.3 251.9,299.9 293.5,307.3 	"/>
	<g>
		<path d="M270.3,274.5c-6.7,7.9-13.5,15.8-20.2,23.6c-1.1,1.3-0.9,3.8,1.1,4.2c13.9,2.4,27.7,4.9,41.6,7.3c1.9,0.3,4.2-1.7,2.8-3.7
			c-7.1-10.3-14.3-20.6-21.4-31c-1.8-2.6-6.2-0.1-4.3,2.5c7.1,10.3,14.3,20.6,21.4,31c0.9-1.2,1.9-2.4,2.8-3.7
			c-13.9-2.4-27.7-4.9-41.6-7.3c0.4,1.4,0.7,2.8,1.1,4.2c6.7-7.9,13.5-15.8,20.2-23.6C275.9,275.6,272.4,272.1,270.3,274.5z"/>
	</g>
</g>
<g>
	<g>
		<path d="M284.1,166.9c7,1.9,13.9-1.9,20-4.9c7.5-3.6,17.9-10.6,26-5.6c2.7,1.7,5.3-2.6,2.5-4.3c-6.5-4-13.5-2.3-20.1,0.4
			c-3.7,1.6-7.3,3.4-10.9,5.1c-4.7,2.3-10.8,5.8-16.2,4.4C282.3,161.2,281,166.1,284.1,166.9L284.1,166.9z"/>
	</g>
</g>
<g>
	<g>
		<path d="M212.7,162.1c-5.4,1.5-11.4-2.1-16.2-4.4c-3.6-1.7-7.2-3.6-10.9-5.1c-6.6-2.8-13.6-4.4-20.1-0.4c-2.7,1.7-0.2,6,2.5,4.3
			c8.2-5,18.5,2,26,5.6c6.1,2.9,13.1,6.7,20,4.9C217.2,166.1,215.9,161.2,212.7,162.1L212.7,162.1z"/>
	</g>
</g>
<g>
	<g>
		<path d="M123.7,278c28.6,0,57.2,0,85.8,0c45.4,0,90.8,0,136.2,0c10.4,0,20.9,0,31.3,0c3.2,0,3.2-5,0-5c-28.6,0-57.2,0-85.8,0
			c-45.4,0-90.8,0-136.2,0c-10.4,0-20.9,0-31.3,0C120.4,273,120.4,278,123.7,278L123.7,278z"/>
	</g>
</g>
<g>
	<g>
		<path d="M249.4,301c0,13.8,0,27.7,0,41.5c0,3.2,5,3.2,5,0c0-13.8,0-27.7,0-41.5C254.4,297.8,249.4,297.8,249.4,301L249.4,301z"/>
	</g>
</g>
<g>
	<g>
		<path d="M110.9,345c31.6,0,63.1,0,94.7,0c49.9,0,99.8,0,149.7,0c11.5,0,22.9,0,34.4,0c3.2,0,3.2-5,0-5c-31.6,0-63.1,0-94.7,0
			c-49.9,0-99.8,0-149.7,0c-11.5,0-22.9,0-34.4,0C107.7,340,107.7,345,110.9,345L110.9,345z"/>
	</g>
</g>
<g>
	<g>
		<path d="M110.9,357c31.6,0,63.1,0,94.7,0c49.9,0,99.8,0,149.7,0c11.5,0,22.9,0,34.4,0c3.2,0,3.2-5,0-5c-31.6,0-63.1,0-94.7,0
			c-49.9,0-99.8,0-149.7,0c-11.5,0-22.9,0-34.4,0C107.7,352,107.7,357,110.9,357L110.9,357z"/>
	</g>
</g>
<g>
	<g>
		<rect x="149.2" y="291.5" fill="#1AAD55" width="43.5" height="37"/>
		<g>
			<path d="M192.7,326c-14.5,0-29,0-43.5,0c0.8,0.8,1.7,1.7,2.5,2.5c0-12.3,0-24.7,0-37c-0.8,0.8-1.7,1.7-2.5,2.5
				c14.5,0,29,0,43.5,0c-0.8-0.8-1.7-1.7-2.5-2.5c0,12.3,0,24.7,0,37c0,3.2,5,3.2,5,0c0-12.3,0-24.7,0-37c0-1.4-1.1-2.5-2.5-2.5
				c-14.5,0-29,0-43.5,0c-1.4,0-2.5,1.1-2.5,2.5c0,12.3,0,24.7,0,37c0,1.4,1.1,2.5,2.5,2.5c14.5,0,29,0,43.5,0
				C195.9,331,195.9,326,192.7,326z"/>
		</g>
	</g>
	<g>
		<polygon fill="#1AAD55" points="170.5,292 191.2,292 180.9,299.2 170.5,306.4 160.2,299.2 149.8,292 		"/>
		<g>
			<path d="M170.5,294.3c6.9,0,13.8,0,20.7,0c-0.4-1.6-0.8-3.1-1.3-4.7c-6.9,4.8-13.8,9.7-20.7,14.5c0.8,0,1.7,0,2.5,0
				c-6.9-4.8-13.8-9.7-20.7-14.5c-0.4,1.6-0.8,3.1-1.3,4.7C156.7,294.3,163.6,294.3,170.5,294.3c3.2,0,3.2-5,0-5
				c-6.9,0-13.8,0-20.7,0c-2.6,0-3.2,3.3-1.3,4.7c6.9,4.8,13.8,9.7,20.7,14.5c0.7,0.5,1.9,0.5,2.5,0c6.9-4.8,13.8-9.7,20.7-14.5
				c1.9-1.4,1.4-4.7-1.3-4.7c-6.9,0-13.8,0-20.7,0C167.3,289.3,167.3,294.3,170.5,294.3z"/>
		</g>
	</g>
</g>
<g>
	<g>
		<rect x="311.2" y="291.5" fill="#1AAD55" width="43.5" height="37"/>
		<g>
			<path d="M354.7,326c-14.5,0-29,0-43.5,0c0.8,0.8,1.7,1.7,2.5,2.5c0-12.3,0-24.7,0-37c-0.8,0.8-1.7,1.7-2.5,2.5
				c14.5,0,29,0,43.5,0c-0.8-0.8-1.7-1.7-2.5-2.5c0,12.3,0,24.7,0,37c0,3.2,5,3.2,5,0c0-12.3,0-24.7,0-37c0-1.4-1.1-2.5-2.5-2.5
				c-14.5,0-29,0-43.5,0c-1.4,0-2.5,1.1-2.5,2.5c0,12.3,0,24.7,0,37c0,1.4,1.1,2.5,2.5,2.5c14.5,0,29,0,43.5,0
				C357.9,331,357.9,326,354.7,326z"/>
		</g>
	</g>
	<g>
		<polygon fill="#1AAD55" points="332.5,292 353.2,292 342.9,299.2 332.5,306.4 322.2,299.2 311.8,292 		"/>
		<g>
			<path d="M332.5,294.3c6.9,0,13.8,0,20.7,0c-0.4-1.6-0.8-3.1-1.3-4.7c-6.9,4.8-13.8,9.7-20.7,14.5c0.8,0,1.7,0,2.5,0
				c-6.9-4.8-13.8-9.7-20.7-14.5c-0.4,1.6-0.8,3.1-1.3,4.7C318.7,294.3,325.6,294.3,332.5,294.3c3.2,0,3.2-5,0-5
				c-6.9,0-13.8,0-20.7,0c-2.6,0-3.2,3.3-1.3,4.7c6.9,4.8,13.8,9.7,20.7,14.5c0.7,0.5,1.9,0.5,2.5,0c6.9-4.8,13.8-9.7,20.7-14.5
				c1.9-1.4,1.4-4.7-1.3-4.7c-6.9,0-13.8,0-20.7,0C329.3,289.3,329.3,294.3,332.5,294.3z"/>
		</g>
	</g>
</g>
<g>
	<rect x="233.6" y="337.5" fill="#C1B244" width="36.7" height="21.2"/>
	<g>
		<path d="M270.3,356.2c-12.2,0-24.5,0-36.7,0c0.8,0.8,1.7,1.7,2.5,2.5c0-7.1,0-14.1,0-21.2c-0.8,0.8-1.7,1.7-2.5,2.5
			c12.2,0,24.5,0,36.7,0c-0.8-0.8-1.7-1.7-2.5-2.5c0,7.1,0,14.1,0,21.2c0,3.2,5,3.2,5,0c0-7.1,0-14.1,0-21.2c0-1.4-1.1-2.5-2.5-2.5
			c-12.2,0-24.5,0-36.7,0c-1.4,0-2.5,1.1-2.5,2.5c0,7.1,0,14.1,0,21.2c0,1.4,1.1,2.5,2.5,2.5c12.2,0,24.5,0,36.7,0
			C273.5,361.2,273.5,356.2,270.3,356.2z"/>
	</g>
</g>
<g>
	<g>
		<path fill="#D6E0AF" d="M251.7,363.7c-17.4,8.1-34.8,8.1-52.3,0v-71.9c17.4,6.4,34.8,6.4,52.3,0V363.7z"/>
		<g>
			<path d="M250.5,361.5c-16.3,7.3-33.4,7.3-49.7,0c0.4,0.7,0.8,1.4,1.2,2.2c0-24,0-48,0-71.9c-1.1,0.8-2.1,1.6-3.2,2.4
				c17.7,6.2,35.9,6.2,53.6,0c-1.1-0.8-2.1-1.6-3.2-2.4c0,24,0,48,0,71.9c0,3.2,5,3.2,5,0c0-24,0-48,0-71.9c0-1.5-1.6-3-3.2-2.4
				c-16.9,6-34,6-50.9,0c-1.6-0.5-3.2,0.9-3.2,2.4c0,24,0,48,0,71.9c0,0.8,0.5,1.8,1.2,2.2c18.1,8.1,36.7,8.1,54.8,0
				C255.9,364.5,253.4,360.2,250.5,361.5z"/>
		</g>
	</g>
	<g>
		<path fill="#D6E0AF" d="M304,363.7c-17.4,8.1-34.8,8.1-52.3,0v-71.9c17.4,6.4,34.8,6.4,52.3,0V363.7z"/>
		<g>
			<path d="M302.7,361.5c-16.3,7.3-33.4,7.3-49.7,0c0.4,0.7,0.8,1.4,1.2,2.2c0-24,0-48,0-71.9c-1.1,0.8-2.1,1.6-3.2,2.4
				c17.7,6.2,35.9,6.2,53.6,0c-1.1-0.8-2.1-1.6-3.2-2.4c0,24,0,48,0,71.9c0,3.2,5,3.2,5,0c0-24,0-48,0-71.9c0-1.5-1.6-3-3.2-2.4
				c-16.9,6-34,6-50.9,0c-1.6-0.5-3.2,0.9-3.2,2.4c0,24,0,48,0,71.9c0,0.8,0.5,1.8,1.2,2.2c18.1,8.1,36.7,8.1,54.8,0
				C308.2,364.5,305.6,360.2,302.7,361.5z"/>
		</g>
	</g>
</g>
<g>
	<g>
		<path fill="#FFFFFF" d="M391,302.3l-16.7,49.2c-2.6,7.7-9.2,12.9-16.5,14.1c0,0,0,0,0,0c-2.3,0.7-4.8,1-7.4,1l-50.7-3.5
			c0,0-21.3-2-21.3-15.9c-0.1-14.1,14.5-15.8,22.6-17.8c8.2-2,37.6-3.9,37.6-3.9l12.5-36.8c3.7-10.9,15.4-16.9,26-13.3l1.4,0.5
			C389.1,279.5,394.7,291.4,391,302.3z"/>
		<g>
			<path d="M388.6,301.6c-4.3,12.6-8.5,25.1-12.8,37.7c-1.7,4.9-2.9,10.5-5.5,15c-4.9,8.4-14.8,10.2-23.7,9.6
				c-14.8-1-29.5-2.1-44.3-3.1c-3.7-0.3-6.9-0.8-10.5-2c-4-1.4-8.3-3.7-10.1-7.7c-2.2-5.1,0-11,4.5-14c7.5-5.1,18.9-5.9,27.7-6.9
				c8.2-0.9,16.5-1.5,24.8-2.1c1.2-0.1,2-0.7,2.4-1.8c3.9-11.4,7.8-22.8,11.6-34.3c2.8-8.2,8.7-15.1,18.1-15.1
				C383.8,276.8,392.3,289.4,388.6,301.6c-0.9,3.1,3.9,4.4,4.8,1.3c3.8-12.4-2.3-25.3-14.6-29.6c-11.4-4-24,1.2-29.1,12.2
				c-2.8,6.2-4.6,13.1-6.8,19.5c-2.2,6.6-4.5,13.2-6.7,19.8c0.8-0.6,1.6-1.2,2.4-1.8c-16.6,1.1-35.4,1-51,7.5
				c-9,3.8-15.2,14.1-10.1,23.5c3.8,7,12.6,10.1,20.1,11.2c13.4,2.1,27.5,2,41,3c6.8,0.5,13,1.2,19.8-0.3c9.8-2.2,15.8-8.8,19-18.1
				c5.3-15.7,10.6-31.3,16-47C394.5,299.9,389.6,298.6,388.6,301.6z"/>
		</g>
	</g>
	<g>
		<path fill="#1AAD55" d="M393.3,306.9l-6.5,19.1l-47.2-16l6.5-19.1c4.5-13.3,18.5-20.8,31-16.5l1.6,0.6
			C391.3,279.2,397.8,293.6,393.3,306.9z"/>
		<g>
			<path d="M390.9,306.2c-2.2,6.4-4.3,12.7-6.5,19.1c1-0.6,2.1-1.2,3.1-1.7c-15.7-5.3-31.5-10.7-47.2-16c0.6,1,1.2,2.1,1.7,3.1
				c3.5-10.2,5.8-24,15-30.7c7.3-5.3,17-5.5,24.7-0.9C391.2,284.7,394,296.2,390.9,306.2c-1,3.1,3.9,4.4,4.8,1.3
				c3.2-10.4,1-22.2-7.2-29.7c-7.3-6.6-18.3-9-27.6-5.6c-15.8,5.8-18.9,22.9-23.7,37c-0.5,1.3,0.5,2.7,1.7,3.1
				c15.7,5.3,31.5,10.7,47.2,16c1.3,0.5,2.7-0.5,3.1-1.7c2.2-6.4,4.3-12.7,6.5-19.1C396.8,304.5,391.9,303.2,390.9,306.2z"/>
		</g>
	</g>
</g>
<g>
	<path fill="#AFAF52" d="M133.8,154.8c0,0,69.3-11.8,118.3-74.5C252,80.3,170.5,64.5,133.8,154.8z"/>
	<g>
		<path d="M134.4,157.2c9.1-1.6,18.1-4.6,26.7-7.9c20.8-7.8,40.3-18.8,57.7-32.4c13-10.2,24.7-21.9,34.9-34.9c1-1.3,0.9-3.8-1.1-4.2
			c-32.4-6.2-68.5,7.1-91.5,29.9c-13.2,13.1-22.8,29.2-29.8,46.4c-1.2,3,3.6,4.3,4.8,1.3c11-26.6,29-50.3,55.3-63.2
			c15.5-7.6,33-11.1,50.2-10.4c3.4,0.1,6.8,0.3,9.7,0.9c-0.4-1.4-0.7-2.8-1.1-4.2c-27.2,34.5-65.6,60.3-108.1,71.7
			c-3,0.8-6,1.6-9.1,2.1C129.9,152.9,131.3,157.7,134.4,157.2z"/>
	</g>
</g>
<g>
	<path fill="#AFAF52" d="M368,154.8c0,0-69.3-11.8-118.3-74.5C249.8,80.3,331.3,64.5,368,154.8z"/>
	<g>
		<path d="M368.7,152.3c-8.7-1.5-17.2-4.3-25.4-7.4c-20.6-7.6-40.1-18.5-57.4-32.1c-12.8-10.1-24.2-21.6-34.3-34.4
			c-0.4,1.4-0.7,2.8-1.1,4.2c29.5-5.6,64.1,6.8,85.8,27.8c13,12.6,22.5,28.3,29.4,45c1.2,2.9,6,1.6,4.8-1.3
			c-11.3-27.5-29.7-52.2-56.8-65.8c-16.3-8.2-34.8-12.1-53-11.6c-3.8,0.1-7.7,0.4-11.5,1.1c-2,0.4-2.2,2.8-1.1,4.2
			c27.6,35,66.9,61.2,110,72.9c3.1,0.8,6.2,1.7,9.4,2.2C370.5,157.7,371.8,152.9,368.7,152.3z"/>
	</g>
</g>
<g>
	<g>
		<path fill="#197F53" d="M357.4,124H144.6c0,0,17.2-62.4,106.4-62.4S357.4,124,357.4,124z"/>
		<g>
			<path d="M357.4,121.7c-24,0-48,0-72.1,0c-38.1,0-76.2,0-114.3,0c-8.8,0-17.6,0-26.4,0c0.8,1.1,1.6,2.1,2.4,3.2
				c2-7.2,6.2-14,10.5-20c11.1-15.5,27.4-26.7,45.3-33C230,62.2,262.1,61.6,290,69c19.7,5.3,37.9,15.7,51.1,31.4
				c5.8,7,11.5,15.5,13.9,24.4c0.9,3.1,5.7,1.8,4.8-1.3c-7.5-27.1-34-47.5-59.2-56.5c-28.1-10-61.2-10.5-89.9-2.9
				c-20.5,5.5-39.6,16.3-53.3,32.7c-6.4,7.7-12.5,16.9-15.2,26.6c-0.4,1.6,0.8,3.2,2.4,3.2c24,0,48,0,72.1,0c38.1,0,76.2,0,114.3,0
				c8.8,0,17.6,0,26.4,0C360.6,126.7,360.6,121.7,357.4,121.7z"/>
		</g>
	</g>
</g>
<g>
	<path fill="#1AAD55" d="M357.4,124H144.8c2.6-7,7.3-15,13.1-23h186.4C349.8,108,354.2,116,357.4,124z"/>
	<g>
		<path d="M357.4,121.7c-24,0-47.9,0-71.9,0c-38.2,0-76.3,0-114.5,0c-8.7,0-17.5,0-26.2,0c0.8,1.1,1.6,2.1,2.4,3.2
			c3.1-8.3,7.8-15.8,12.8-23.1c-0.7,0.4-1.4,0.8-2.2,1.2c20.9,0,41.8,0,62.8,0c33.5,0,67.1,0,100.6,0c7.7,0,15.4,0,23,0
			c-0.7-0.4-1.4-0.8-2.2-1.2c5,7.3,9.5,14.9,12.8,23.1c1.2,2.9,6,1.7,4.8-1.3c-1.5-3.7-3.2-7.4-5.1-10.9c-2.2-4.1-4.8-10.2-8.3-13.4
			c-1.1-1-1.7-1.1-3.1-1.2c-3.6-0.3-7.3,0-10.9,0c-15.7,0-31.4,0-47.2,0c-37.3,0-74.7,0-112,0c-4.7,0-9.3-0.1-14,0
			c-1.3,0-2.1-0.1-3.2,0.7c-1.6,1.2-3,4.3-4,6c-1.4,2.2-2.8,4.5-4.1,6.8c-2.2,3.9-4,7.9-5.6,12c-0.6,1.5,0.9,3.2,2.4,3.2
			c24,0,47.9,0,71.9,0c38.2,0,76.3,0,114.5,0c8.7,0,17.5,0,26.2,0C360.6,126.7,360.6,121.7,357.4,121.7z"/>
	</g>
</g>
<g>
	<path fill="#197F53" d="M428.6,132.4H73.4c-4.5,0-8.2-3.7-8.2-8.2v-0.1c0-4.5,3.7-8.2,8.2-8.2h355.2c4.5,0,8.2,3.7,8.2,8.2v0.1
		C436.7,128.7,433.1,132.4,428.6,132.4z"/>
	<g>
		<path d="M428.6,129.9c-12.2,0-24.4,0-36.6,0c-28.9,0-57.9,0-86.8,0c-34.8,0-69.7,0-104.5,0c-29.4,0-58.7,0-88.1,0
			c-9.3,0-18.5,0-27.8,0c-3.7,0-7.6,0.4-11.3,0c-8-0.8-6.8-10.9,0.6-11.4c1.7-0.1,3.4,0,5,0c7.7,0,15.3,0,23,0c27.5,0,54.9,0,82.4,0
			c34.7,0,69.5,0,104.2,0c30.7,0,61.5,0,92.2,0c15.4,0,31.2-0.9,46.6,0c0.3,0,0.7,0,1,0C435.7,119.2,436,129.3,428.6,129.9
			c-3.2,0.3-3.2,5.3,0,5c10.1-0.8,15-14.1,5.5-19.8c-2.4-1.4-4.8-1.6-7.4-1.6c-6.2-0.1-12.3,0-18.5,0c-27,0-54,0-81,0
			c-36,0-72,0-108,0c-32.3,0-64.7,0-97,0c-16,0-32.1-0.5-48.1,0c-14.3,0.4-14.8,20.8-0.4,21.4c4.6,0.2,9.2,0,13.8,0
			c25,0,50.1,0,75.1,0c35.6,0,71.2,0,106.8,0c33.5,0,66.9,0,100.4,0c18.7,0,37.4,0,56.1,0c0.9,0,1.8,0,2.6,0
			C431.8,134.9,431.8,129.9,428.6,129.9z"/>
	</g>
</g>
</svg>
