<?xml version="1.0" encoding="utf-8"?>
<!-- Generator: Adobe Illustrator 18.1.1, SVG Export Plug-In . SVG Version: 6.00 Build 0)  -->
<svg version="1.1" xmlns="http://www.w3.org/2000/svg" xmlns:xlink="http://www.w3.org/1999/xlink" x="0px" y="0px"
	 viewBox="0 0 500 500" enable-background="new 0 0 500 500" xml:space="preserve">
<g id="Layer_1">
	<g>
		<path fill="#5FAA61" d="M458,371.2c-138.4,25.3-275.4,25.8-411,0c30.4-46.7,44-96.5,40.9-149.5c112.4,23.4,221.1,23.9,326,0
			C404.7,268.2,423.6,318.7,458,371.2z"/>
		<g>
			<path d="M457.3,368.8C351.9,388,244.1,393.2,137.4,382c-30.1-3.1-60-7.6-89.7-13.2c0.5,1.2,1,2.4,1.5,3.7
				c29.1-45.1,44.2-97,41.2-150.7c-1.1,0.8-2.1,1.6-3.2,2.4c84.7,17.6,172,23,257.9,12.2c23.3-2.9,46.5-7,69.4-12.2
				c-1-1-2.1-2.1-3.1-3.1c-10.3,54.1,15.6,107.2,44.4,151.4c1.7,2.7,6.1,0.2,4.3-2.5c-27.9-42.9-53.9-94.9-43.9-147.6
				c0.4-1.9-1.1-3.5-3.1-3.1c-81.9,18.5-166.5,22-249.9,12.2c-25.1-2.9-50-7.1-74.8-12.2c-1.5-0.3-3.3,0.7-3.2,2.4
				c2.9,53-11.8,103.8-40.5,148.2c-0.8,1.3-0.1,3.4,1.5,3.7c106,20.1,214.5,24.3,321.8,13c30.3-3.2,60.5-7.6,90.5-13
				C461.8,373.1,460.5,368.3,457.3,368.8z"/>
		</g>
	</g>
	<g>
		<g>
			<path fill="#FFFFFF" d="M38.5,351.2L38.5,351.2c-7.4-9-6.1-22.5,2.9-30l83.2-68.6c9-7.4,22.5-6.1,30,2.9l0,0
				c7.4,9,6.1,22.5-2.9,30L68.4,354C59.4,361.5,45.9,360.2,38.5,351.2z"/>
			<g>
				<path d="M40.3,349.4c-6.7-8.1-4.7-19.8,2.9-26.4c1.1-0.9,2.2-1.8,3.3-2.7c7.2-6,14.5-11.9,21.7-17.9
					c17.6-14.5,35.2-29,52.8-43.5c7.6-6.2,15.8-11.7,26-6.3c9,4.8,12.4,16.4,7.6,25.4c-1.6,3-4,5.1-6.5,7.2
					c-16.3,13.5-32.7,26.9-49,40.4c-9,7.4-18.1,14.9-27.1,22.3c-1.7,1.4-3.4,2.9-5.2,4.3C58.4,358.6,47.2,357.3,40.3,349.4
					c-2.1-2.4-5.7,1.1-3.5,3.5c9.6,10.9,24.3,10.4,35,1.6c7.4-6.1,14.8-12.2,22.1-18.2c19-15.7,38-31.3,57-47
					c9.5-7.8,14.5-19.9,8.1-31.7c-7.4-13.7-25.1-15.8-36.7-6.4c-17.4,14-34.5,28.4-51.8,42.7c-9.4,7.7-18.7,15.4-28.1,23.1
					c-3.2,2.7-6.3,5.3-8.4,9.1c-4.6,8.6-3.5,19.2,2.7,26.7C38.8,355.4,42.3,351.9,40.3,349.4z"/>
			</g>
		</g>
		<g>
			<path fill="#A0EAA7" d="M56.5,308.8l68.3-56.2c10-8.2,24.4-7.4,32,1.8l0,0c7.6,9.2,5.7,23.5-4.3,31.7l-68.3,56.2L56.5,308.8z"/>
			<g>
				<path d="M58.2,310.5c22.1-18.2,44.3-36.5,66.4-54.7c7.6-6.2,18.2-9.2,26.8-2.9c11.2,8.1,8.3,23.6-1.2,31.7
					c-10.7,9.2-21.8,18-32.7,26.9c-11.8,9.7-23.5,19.4-35.3,29.1c1.2,0,2.4,0,3.5,0c-9.2-11.2-18.4-22.4-27.6-33.5
					c-2-2.5-5.6,1.1-3.5,3.5c9.2,11.2,18.4,22.4,27.6,33.5c0.9,1.1,2.6,0.8,3.5,0c22.7-18.7,45.8-37,68.1-56.1
					c9-7.7,12.9-20.8,7-31.6c-6.3-11.6-21.3-14.8-32.7-9.1c-4.7,2.4-8.9,6.4-12.9,9.8c-7.2,5.9-14.4,11.9-21.6,17.8
					c-13,10.7-26.1,21.5-39.1,32.2C52.2,309,55.8,312.6,58.2,310.5z"/>
			</g>
		</g>
		<g>
			<path fill="#C0F9C0" d="M59.5,301.3c5.8-1.4,7.4,0.1,9.8,10.6c2.4,10.5,10.8,6.5,13.1,12.7c2.3,6.2,0.6,8.6,3.2,10.3
				c2.7,1.7,6.6,1.4,5.3,8.1c0,11.1-7.3,4.6-10.3,7.3c-3.3,3-6.1-0.2-7.4-5.3c-1.3-5.1-7.1-9.5-9.9-11.4c-2.8-1.9-4-7.9-7.1-12.7
				c-3.1-4.8-11.7-5.6-10.3-9.7c1.4-4.1,1.1-7.5,4.9-9.9C54.7,298.9,53.7,302.7,59.5,301.3z"/>
			<g>
				<path d="M60.1,303.7c3.2-0.7,4.1,0.1,5.2,3.1c1.2,3.3,1.4,7,3.1,10c1.2,2.1,2.9,3.6,5,4.7c1.8,1,4.4,1.2,5.9,2.8
					c3.8,3.9,0.4,10.1,5.7,13.1c0.8,0.5,2.2,0.7,2.8,1.3c1.3,1.3,0.8,4,0.5,5.8c-0.6,3.5-1.7,2.7-4.5,2.6c-1.7,0-3,0.9-4.5,1
					c-3.5,0.4-3.2-2.8-4.1-5.1c-0.6-1.5-1.4-2.9-2.4-4.1c-1.9-2.5-4.2-4.5-6.7-6.3c-3.1-2.3-4-5.4-5.7-8.8c-1.4-2.9-2.8-5.5-5.5-7.4
					c-1.5-1.2-6.1-2.6-6.7-4.4c-0.2-0.7,1.1-4.2,1.4-5c0.7-1.7,1.7-3.8,3.6-3.7C55.9,303.3,57.5,304.2,60.1,303.7
					c3.2-0.6,1.8-5.4-1.3-4.8c-2.4,0.4-3.9-1.1-6.2-0.9c-2.7,0.2-5.2,2.5-6.5,4.7c-2.5,4.2-4.4,10.5-0.1,13.9c2.6,2,6,2.8,8,5.5
					c2.6,3.4,3.2,7.9,5.7,11.3c1.7,2.3,4.3,3.5,6.3,5.4c1.5,1.4,3.1,3,4,4.9c1,2.1,1.3,4.5,2.5,6.5c1.1,1.9,2.9,3.6,5.2,3.7
					c2.5,0.1,3.9-1.8,6.3-1.8c4.6,0,7.8-0.5,8.9-5.7c1.3-6,0.6-9.8-4.5-12.9c-2.8-1.7-2.2-3.5-2.9-6.6c-0.6-2.7-1.5-5.2-3.7-6.9
					c-2-1.6-4.7-1.9-6.8-3.2c-3.9-2.5-3.8-7.9-5.3-11.8c-2-5.5-5.5-7.3-11.1-6.1C55.6,299.6,57,304.4,60.1,303.7z"/>
			</g>
		</g>
	</g>
	<g>
		<g>
			<path fill="#FFFFFF" d="M459.5,351.2L459.5,351.2c7.4-9,6.1-22.5-2.9-30l-83.2-68.6c-9-7.4-22.5-6.1-30,2.9l0,0
				c-7.4,9-6.1,22.5,2.9,30l83.2,68.6C438.6,361.5,452.1,360.2,459.5,351.2z"/>
			<g>
				<path d="M461.3,352.9c9-10.9,6.3-25.9-4.2-34.6c-7.2-6-14.4-11.9-21.7-17.8c-19.1-15.8-38.3-31.5-57.4-47.3
					c-9.3-7.6-21.1-11.2-31.8-3.6c-13,9.1-12.9,27.9-1.2,37.9c16.7,14.4,34.1,28.1,51.2,42.2c9.5,7.8,19,15.7,28.5,23.5
					c2.8,2.3,5.5,4.7,8.9,6.2C443.2,363.6,454.4,360.8,461.3,352.9c2.1-2.4-1.4-6-3.5-3.5c-6.9,7.8-18.1,9.3-26.4,2.9
					c-1.3-1-2.4-2-3.7-3c-7.4-6.1-14.8-12.2-22.1-18.2c-17.5-14.4-35-28.8-52.5-43.3c-7.6-6.2-14.6-13.5-11-24.5
					c3.1-9.7,13.9-15.3,23.6-12.1c3.1,1,5.6,2.8,8,4.9c16.5,13.6,33,27.2,49.5,40.8c8.9,7.3,17.8,14.7,26.7,22
					c1.6,1.3,3.3,2.6,4.9,4c7.6,6.6,9.7,18.3,3,26.5C455.7,351.9,459.2,355.4,461.3,352.9z"/>
			</g>
		</g>
		<g>
			<path fill="#A0EAA7" d="M441.5,308.8l-68.3-56.2c-10-8.2-24.4-7.4-32,1.8l0,0c-7.6,9.2-5.7,23.5,4.3,31.7l68.3,56.2L441.5,308.8z
				"/>
			<g>
				<path d="M443.3,307c-22.7-18.7-45.2-37.7-68.1-56.1c-9.4-7.5-23.1-9.1-32.8-1.1c-10.1,8.3-10.5,23.5-2.9,33.6
					c3.2,4.2,7.8,7.4,11.8,10.7c7.2,5.9,14.4,11.9,21.6,17.8c13,10.7,26.1,21.5,39.1,32.2c1,0.8,2.6,1.1,3.5,0
					c9.2-11.2,18.4-22.4,27.6-33.5c2-2.5-1.5-6-3.5-3.5c-9.2,11.2-18.4,22.4-27.6,33.5c1.2,0,2.4,0,3.5,0
					c-22.1-18.2-44.3-36.5-66.4-54.7c-7.1-5.9-12.3-14.5-9.2-24c4.5-13.8,21.4-15.4,31.7-7.3c11.1,8.7,21.8,18,32.7,26.9
					c11.8,9.7,23.5,19.4,35.3,29.1C442.2,312.6,445.8,309,443.3,307z"/>
			</g>
		</g>
		<g>
			<path fill="#C0F9C0" d="M438.5,301.3c-5.8-1.4-7.4,0.1-9.8,10.6c-2.4,10.5-10.8,6.5-13.1,12.7s-0.6,8.6-3.2,10.3
				c-2.7,1.7-6.6,1.4-5.3,8.1c0,11.1,7.3,4.6,10.3,7.3c3.3,3,6.1-0.2,7.4-5.3c1.3-5.1,7.1-9.5,9.9-11.4c2.8-1.9,4-7.9,7.1-12.7
				s11.7-5.6,10.3-9.7c-1.4-4.1-1.1-7.5-4.9-9.9C443.3,298.9,444.3,302.7,438.5,301.3z"/>
			<g>
				<path d="M439.2,298.9c-4.5-1-8.1-0.3-10.3,4c-1.6,3.1-1.7,6.6-2.9,9.7c-1.4,3.7-3.8,4.4-7.1,5.9c-1.8,0.8-3.4,1.7-4.6,3.3
					c-2,2.8-1.6,6.1-2.6,9.1c-0.9,2.6-2.7,2.3-4.7,3.9c-2.1,1.7-2.7,3.9-2.7,6.6c0,4.8,1,10.5,6.7,10.9c1.8,0.1,3.3-0.4,5,0.1
					c2.6,0.9,4.2,2.3,7,0.4c2.4-1.7,3.1-4.6,4.1-7.2c1.5-4.3,4.9-6.9,8.4-9.6c5.9-4.5,5.7-13,12.4-16.9c2.3-1.3,5.3-2.5,6.4-5.1
					c1.1-2.7-0.5-6.5-1.4-9c-1-2.8-3-5.6-6-6.6C444,297.4,442,299.4,439.2,298.9c-3.1-0.6-4.5,4.3-1.3,4.8c2.7,0.5,4.3-0.4,6.7-0.5
					c1.9-0.1,3,2,3.6,3.7c0.3,0.8,1.6,4.3,1.4,5c-0.6,1.8-5.2,3.3-6.7,4.4c-2.6,2-4.1,4.5-5.5,7.4c-1.6,3.4-2.5,6.5-5.7,8.8
					c-2.5,1.9-4.8,3.8-6.7,6.3c-1,1.3-1.8,2.6-2.4,4.1c-0.9,2.3-0.6,5.5-4.1,5.1c-1.5-0.2-2.7-1.1-4.5-1c-2.8,0.1-3.9,0.9-4.5-2.6
					c-0.3-1.7-0.7-4.5,0.5-5.8c0.7-0.7,2-0.9,2.8-1.3c5.3-3,2-9.2,5.7-13.1c1.5-1.5,4.1-1.8,5.9-2.8c2.1-1.1,3.8-2.6,5-4.7
					c1.8-3.1,1.9-6.7,3.1-10c1.1-3,2-3.8,5.2-3.1C441,304.4,442.3,299.6,439.2,298.9z"/>
			</g>
		</g>
	</g>
	<g>
		<path fill="#C0F9C0" d="M91,205.5c10,2,14.6-4.3,31.1,4.8s29.4-2.9,46.3-1.6s18.7,6.8,35.3,4.4s18.1-6.8,33.3-4.6s23.6,6.6,37,4.4
			s32.2-9,47.4-3.1s33.8,7.1,42.5-0.9s15,1,26,1.8c11,0.8,20.4-4.8,24.6,2.6s10.1,9.4,9.7,14.3c-0.4,4.9-2.5,16.1-10.1,20
			s-20.1-5-30.6-2.8s-25.4,5-34.3,2.6s-21.8-4.4-32.4-2.3s-26.4,5.9-36.4,3.4c-10-2.6-10.9-5.5-22.6-5.1s-24.3,6-36.5,5.4
			s-15.9-7.5-27.2-4.6s-23.6,6.8-30.6,3.9s-16.7-7.8-25.8-4.1s-18,5.1-22.2,0.9s-14.1-4.8-22.7-3.8s-17.5-5.2-16.8-15.4
			S81,203.4,91,205.5z"/>
		<g>
			<path d="M90.3,207.9c3.8,0.7,7.3,0.4,11.1,0c5.3-0.5,10.1,0.2,15,2.3c5.9,2.6,10.9,5.6,17.5,5.9c5.9,0.3,11.7-1.3,17.4-2.8
				c6.7-1.7,13.2-2.8,20.2-2c5.3,0.6,10.3,2.3,15.5,3.6c11.1,2.6,22.2-0.3,33-3.2c12.5-3.5,24.6,0.9,36.9,3.1
				c12.7,2.2,24.2-1.3,36.6-3.6c7.3-1.4,15.1-2.3,22.5-0.6c6.8,1.5,13.1,4.4,20,5.5c5.5,0.9,11.2,1.1,16.7,0.2
				c5.5-0.9,9.3-3.3,13.8-6.5c5.3-3.8,10.5-0.2,15.8,1.6c5.7,2,11.3,1.8,17.2,1.1c2.8-0.4,6.3-1.3,9.1-0.7c3.2,0.7,4.4,3.9,6.2,6.3
				c3.2,4.1,7.4,6.3,6.4,12c-0.9,5.1-2.8,11.5-7.5,14.5c-5.1,3.2-12.4-0.3-17.6-1.5c-12.7-3.1-24.8,2.4-37.5,2.6
				c-6.4,0.1-12.3-1.9-18.5-2.9c-6.7-1.1-13.6-1.6-20.4-0.7c-12.6,1.6-25.8,6.9-38.6,3.9c-4.7-1.1-8.9-3.5-13.6-4.5
				c-5.6-1.2-11.5-0.8-17.2,0.1c-8,1.3-15.7,3.9-23.8,4.5c-6.5,0.5-12-1-18-3.3c-12.4-4.6-23.5,2.4-36,3.5
				c-6.9,0.6-11.9-2.6-18.2-4.6c-6.2-1.9-12.1-2.2-18.2,0c-6.6,2.4-13.7,4.9-19.8,0.5c-4.2-3.1-9.3-4-14.4-4.2
				c-6-0.3-12.5,1.9-18-1.4c-6.3-3.8-6.2-11.1-4.7-17.5C80.8,213.7,83.7,206.9,90.3,207.9c3.1,0.5,4.5-4.3,1.3-4.8
				c-11.6-1.7-16.5,9.4-17.8,19.2c-1.4,10.6,4.5,20.4,15.9,21.2c7.1,0.5,14.1-1.7,20.9,1.1c2.4,1,4,3,6.4,4.1c2.7,1.1,5.6,1.2,8.4,1
				c7.8-0.8,14.9-5.6,22.9-4.3c6.5,1.1,12.2,5.2,18.7,6c7,0.8,14.3-1.3,20.9-3c7.3-1.9,12.6-3.1,19.8-0.4c5.9,2.2,11.6,3.6,18,3.3
				c8-0.4,15.6-2.8,23.4-4.3c7-1.3,14.2-1.8,20.9,0.6c5.4,1.9,10.5,3.9,16.3,4.2c14.3,0.7,27.9-5.4,42.2-5
				c7.7,0.2,14.9,2.3,22.4,3.5c6.4,1.1,13,0.3,19.4-0.6c7.5-1.1,14.8-3.7,22.3-2.2c5.8,1.2,11.6,3.8,17.5,3.4
				c10.5-0.6,15-12.5,16.2-21.4c0.6-4.5-1-7.2-4-10.4c-3.6-3.8-6.2-10.1-11.4-11.7c-5.7-1.8-12.2,0.7-17.9,0.8
				c-6.9,0.2-12.1-3.4-18.6-4.8c-5.9-1.2-9.2,1.5-13.7,4.7c-5.3,3.7-12.4,4.1-18.7,3.8c-7.9-0.5-14.9-3.1-22.3-5.3
				c-6.9-2.1-14.3-1.9-21.4-1c-7,0.9-13.9,2.7-20.8,4.1c-7.5,1.5-14.5,1.5-22.1-0.1c-12.6-2.6-24.6-6-37.3-2.4
				c-6.9,1.9-13.8,3.8-21,4c-5.5,0.1-10.5-1.4-15.7-2.8c-6.5-1.7-13.3-2.7-20-2c-6.5,0.7-12.7,2.9-19.1,4.1c-3.2,0.6-6.6,1-9.9,0.6
				c-4.9-0.5-8.8-3-13.1-5c-4.7-2.1-9.6-3.5-14.8-3.4c-4.3,0.1-8.5,1.1-12.9,0.4C88.5,202.5,87.2,207.3,90.3,207.9z"/>
		</g>
	</g>
	<g>
		<path fill="#C0F9C0" d="M132,207.3c-21.8-9-12.8-25.3-21-45.3s-2.5-35.3-2.5-35.3C98.5,128.3,91,123,91,123s20-7.8,29.3-33
			s35.3-30.5,35.3-30.5S167,33.3,209.3,34s67.3-3.5,67.3-3.5s-3.3,7.3-9.8,11.3c0,0,52.3-2.5,79.3,26.8s38.6,34.3,38.6,34.3
			s-7.6,3.5-15.1,3.5c0,0,7.8,8.2,10.8,28.9s12,29.9,12,29.9l-16.8-4.5c0,0,2,19.8-6,40"/>
		<g>
			<path d="M133.3,205.1c-7.2-3.1-12.2-7.6-14.1-15.5c-1.6-6.9-1.7-14.2-3.4-21.1c-2.4-9.5-6.6-17.8-6.7-27.9c0-4.4,0.3-9,1.9-13.1
				c0.5-1.4-0.9-3.3-2.4-3.2c-5.6,0.6-11.5-0.2-16.2-3.4c-0.2,1.5-0.4,3-0.6,4.6c12.5-4.9,22.6-16.5,28.3-28.3
				c2.3-4.8,3.8-10,6.7-14.5c2.7-4.2,6.1-8,10-11.1c5.2-4.1,11.2-7.1,17.6-9c2.4-0.7,3.1-1.3,4.4-3.4c2.2-3.8,5.3-7.1,8.7-10
				c18.1-15,41.9-12.1,63.8-12.6c15.3-0.3,30.9-1,46-3.5c-0.9-1.2-1.9-2.4-2.8-3.7c-1.9,4.2-5,7.8-8.9,10.4
				c-1.9,1.3-1.4,4.8,1.3,4.7c14.8-0.7,30.2,1.7,44.3,6.1c12.2,3.9,23.8,10,32.7,19.4c9.2,9.6,18.2,19.2,28.6,27.5
				c3.4,2.7,7,5.8,11,7.6c0-1.4,0-2.9,0-4.3c-4.3,1.9-9.2,3-13.9,3.2c-2.2,0.1-3.2,2.7-1.8,4.3c7.5,8.1,8.8,21.1,10.7,31.3
				c1.8,9.4,5.2,20.3,12.1,27.5c0.8-1.4,1.6-2.8,2.4-4.2c-5.6-1.5-11.2-3-16.8-4.5c-1.4-0.4-3.3,0.8-3.2,2.4
				c1.3,13.2-1.2,27-5.9,39.3c-1.1,3,3.7,4.3,4.8,1.3c4.8-12.6,7.4-27.1,6.1-40.7c-1.1,0.8-2.1,1.6-3.2,2.4c5.6,1.5,11.2,3,16.8,4.5
				c2.4,0.7,4.1-2.4,2.4-4.2c-15.2-15.9-7.9-42.6-22.8-58.8c-0.6,1.4-1.2,2.8-1.8,4.3c5.7-0.2,11.2-1.5,16.4-3.8
				c1.6-0.7,1.6-3.6,0-4.3c-3.3-1.4-6.2-3.9-9-6c-10.6-8.3-19.9-18.1-29.1-27.8c-16.3-17.2-40.3-24.4-63.3-26.8
				c-5.9-0.6-11.8-1-17.7-0.7c0.4,1.6,0.8,3.1,1.3,4.7c4.5-3,8.4-7.2,10.6-12.1c1-2.1-0.6-4-2.8-3.7c-13.1,2.2-26.6,2.8-39.8,3.2
				c-22.3,0.7-46.1-2.7-66,9.7c-5,3.1-9.6,7.1-13.2,11.8c-0.9,1.2-2,2.5-2.7,3.9c-1.4,2.8,0-0.3,0.6,0.4c-1.1-1.2-11.3,4.2-12.6,4.9
				c-7.6,4-14.3,9.8-19.1,17c-3.6,5.3-5.2,11.4-8.1,17c-2.9,5.6-6.6,10.7-11.1,15.1c-3.7,3.6-9.8,8-13.5,9.5c-2,0.8-2.5,3.3-0.6,4.6
				c5.4,3.7,12.4,4.8,18.8,4.1c-0.8-1.1-1.6-2.1-2.4-3.2c-1.7,4.7-2.1,10.2-2,15.1c0.2,10.7,4.8,19.7,7.2,29.9
				c1.7,7.5,1.5,15.5,4,22.8c2.6,7.6,8.3,12.4,15.6,15.6C133.7,210.7,136.2,206.4,133.3,205.1L133.3,205.1z"/>
		</g>
	</g>
	<path fill="#FFFFFF" d="M381.1,349.2c-0.2-6-2.6-18-5.4-31.8l-0.1-0.5c-3-14.8-6.6-33.2-6.8-41.2c-0.1-5,0.1-12.2,0.1-19.8v-0.4
		c0-15.6,0.1-37.1-1.4-51.2c-1.2-11.5-5.6-40.7-19.2-62.5c-12.6-20.2-27.9-33.2-47.9-41.4c-18.4-7.4-52.1-8.3-53-8.3
		c-8.6,0-30.7,0.7-49.1,8.1c-20.1,8.1-35.3,21.3-47.9,41.5c-13.6,21.8-17.9,51-19.1,62.5c-1.5,14.1-1.4,35.5-1.2,51.2l0,3.6
		c0,6.3,0,12.3-0.1,16.6c-0.2,8.1-3.9,26.5-6.9,41.3l-0.1,0.6c-2.7,13.8-5.1,25.7-5.4,31.7c-0.6,15.4,3.8,25.7,14.9,35.8
		c7.1,6.4,14,9.5,21.7,9.5c4.1,0,7.8-0.8,11.9-1.8c1.1-0.3,2.3-0.6,3.5-1.1c4,2.2,11.7,5.6,21.7,5.6c6.5,0,14.1-1.4,22.4-5.4
		c4.8,3.9,9.7,7.5,9.7,7.5c12.9,7.3,24,8.8,25.6,8.8h0.4c1.6,0,12.7-0.9,26.1-8.8c0,0,4.3-3.1,8.8-6.7c7.7,3.4,14.7,4.6,20.8,4.6
		c10.9,0,19-3.9,22.7-6.1c1.8,0.7,3.3,1.3,4.9,1.7c4,1,7.7,1.8,11.8,1.8c7.8,0,14.4-2.9,21.6-9.5C377.4,375,381.7,364.6,381.1,349.2
		z"/>
	<path fill="#C8C8C8" d="M285.5,389.9c0,0,8-6.1,16.8-7c8.8-1,23.8,5.5,23.8,5.5s-4.9,10-14.2,9.8
		C302.5,397.9,285.5,389.9,285.5,389.9z"/>
	<g>
		<path fill="#A0EAA7" d="M369,246.5c-77.1,17.4-155.4,17.7-235,0c0,0,1.3,20.8-1.8,39.8S121,341.1,121,341.1s53.4,12.5,140,12.4
			s119.1-12.4,119.1-12.4s-11.6-55-12.4-61.8C367,272.5,369,246.5,369,246.5z"/>
	</g>
	<path fill="#C8C8C8" d="M169.6,389.9c0,0,8-6.1,16.8-7s23.8,5.5,23.8,5.5s-4.9,10-14.2,9.8S169.6,389.9,169.6,389.9z"/>
	<path d="M384.6,351.4c-0.2-6.1-2.7-18.4-5.5-32.5l-0.1-0.5c-3-15.1-6.3-33.9-6.5-42.1c-0.1-5.1,0.5-12.5,0.5-20.3v-0.4
		c0-16-0.3-37.9-1.8-52.2c-1.2-11.8-5.9-41.6-19.8-63.8c-12.9-20.6-28.6-33.9-49.1-42.2c-18.8-7.6-53.2-8.4-54.2-8.4
		c-8.8,0-31.4,0.7-50.1,8.3c-20.5,8.3-36,21.7-48.9,42.3c-13.9,22.2-18.3,52.1-19.6,63.8c-1.5,14.4-1.4,36.3-1.3,52.3l0,3.7
		c0,6.5,0,12.5-0.1,16.9c-0.2,8.3-4,27-7,42.1L121,319c-2.8,14.1-5.2,26.3-5.5,32.4c-0.6,15.7,3.8,26.3,15.2,36.6
		c7.3,6.6,14.3,9.7,22.1,9.7c4.2,0,8-0.8,12.1-1.9c1.1-0.3,2.3-0.7,3.5-1.1c4.1,2.3,11.9,5.7,22.2,5.7c6.7,0,14.4-1.4,22.9-5.5
		c4.9,4,9.9,7.4,10,7.4c13.2,7.5,24.5,8.7,26.2,8.7h0.4c1.7,0,13-0.7,26.7-8.7c0,0,4.4-3.1,8.9-6.7c7.8,3.5,15,4.8,21.3,4.8
		c11.2,0,19.4-4,23.2-6.2c1.8,0.7,3.4,1.3,5,1.7c4.1,1,7.9,1.9,12.1,1.9c7.9,0,14.7-3,22.1-9.6C380.8,377.7,385.2,367.1,384.6,351.4
		z M177.2,390.9c6.1-2.6,13.6-5.5,20.1-5.5c4.4,0,7.6,1.3,10.4,4.1l0.2,0.2C194.8,395.1,184,393.4,177.2,390.9z M291.7,390.4
		c0.3-0.3,0.6-0.5,0.8-0.8c2.8-2.8,6-4.2,10.4-4.2c6.1,0,13,2.5,18.9,5C315.4,392.9,304.8,395.2,291.7,390.4z M364.5,382.6
		c-6,5.4-11.1,7.8-17.2,7.8c-3.4,0-6.6-0.7-10.4-1.6c-2-0.5-4.5-1.6-7.7-3l-0.5-0.2c-7-3.2-16.7-7.4-25.8-7.4
		c-6.3,0-11.3,2.1-15.6,6.3c-11,11.2-21.9,15.7-29.1,17.5c-0.1,0-7.1,1.9-15.2-0.3c-8.2-2.3-19.2-6.1-30.1-17.2
		c-4.1-4.2-9.2-6.3-15.6-6.3c-9,0-18.6,4.2-25.9,7.4l-0.3,0.1c-3.3,1.4-5.8,2.6-7.9,3.1c-3.8,0.9-7,1.6-10.4,1.6
		c-6,0-11.3-2.4-17.2-7.8c-9.8-8.9-13.3-17.3-12.8-30.9c0.2-5.5,2.6-17.4,5.4-31.2l0.1-0.6c3.2-16.1,6.9-34.4,7.2-43.4
		c0.1-4.5,0.1-10.6,0.1-17.1l0-3.7c-0.1-15.8-0.3-37.5,1.2-51.4c1.2-11.3,5.4-39.8,18.5-60.7c12-19.3,26.5-31.8,45.4-39.5
		c17.6-7.1,39-8.2,47.4-8.2c0.8,0,33.8,0.8,51.4,7.9c19,7.7,33.4,20.4,45.5,39.6c13.1,21,18,49.5,19.2,60.8
		c1.5,14,1.9,35.7,1.9,51.5v0.4c0,7.8-0.8,15.2-0.7,20.4c0.2,8.9,3.6,27.2,6.8,43.4l-0.1,0.5c2.8,13.8,5.1,25.8,5.3,31.3
		C377.9,365.3,374.3,373.7,364.5,382.6z"/>
	<g>
		<path fill="#A0EAA7" d="M121.7,337.5c0,0-23.5,41.5-21.1,43.3c2.8,2,124.7-9.8,136.3-15.8s12.4-16,12.4-16L121.7,337.5z"/>
		<g>
			<path d="M119.6,336.2c-7,12.4-14.3,24.9-19.8,38c-1.4,3.3-3.5,8.3,1.5,9.2c3.8,0.6,8.2-0.1,12-0.3c35.7-2.2,71.7-5.9,107-11.7
				c13.2-2.2,30.2-5.8,31.7-22.4c0.1-1.4-1.3-2.4-2.5-2.5c-37.3-3.4-74.6-6.7-111.8-10.1c-5.3-0.5-10.6-1-15.8-1.4
				c-3.2-0.3-3.2,4.7,0,5c37.3,3.4,74.6,6.7,111.8,10.1c5.3,0.5,10.6,1,15.8,1.4c-0.8-0.8-1.7-1.7-2.5-2.5
				c-1.1,12.6-15.5,15.4-26.2,17.3c-16.2,2.8-32.6,4.6-48.9,6.4c-16.7,1.8-33.5,3.5-50.3,4.8c-5.3,0.4-10.7,0.8-16,1
				c-0.8,0-3.4-0.4-4,0c0.1-0.1,1.1,1.8,1.5,1.7c0.1,0,0.7-2.2,0.8-2.6c5-13.5,13-26.4,20.1-38.9
				C125.5,335.9,121.1,333.4,119.6,336.2z"/>
		</g>
	</g>
	<g>
		<path fill="#A0EAA7" d="M377.2,337.5c0,0,23.5,41.5,21.1,43.3c-2.8,2-124.7-9.8-136.3-15.8c-11.7-6-12.4-16-12.4-16L377.2,337.5z"
			/>
		<g>
			<path d="M375,338.7c6.4,11.3,12.7,22.6,18.1,34.3c0.3,0.7,2.2,7,2.8,7.1c0.1,0,1.4-1.9,1.6-1.8c-0.2-0.1-1.3,0.1-1.6,0.1
				c-4.4,0-8.9-0.3-13.3-0.6c-33.1-2.3-66.4-5.6-99.2-10.7c-11.8-1.8-30.2-3.6-31.4-18.1c-0.8,0.8-1.7,1.7-2.5,2.5
				c37.3-3.4,74.6-6.7,111.8-10.1c5.3-0.5,10.6-1,15.8-1.4c3.2-0.3,3.2-5.3,0-5c-37.3,3.4-74.6,6.7-111.8,10.1
				c-5.3,0.5-10.6,1-15.8,1.4c-1.3,0.1-2.6,1.1-2.5,2.5c0.7,7.9,6.9,15,13.8,18.3c4,1.9,8.6,2.5,12.9,3.3c17.1,3.1,34.5,5.1,51.8,7
				c18.3,2,36.6,3.9,54.9,5.2c5.1,0.4,10.2,0.9,15.3,0.8c3.7-0.1,5.8-1.5,4.7-5.6c-2.2-8.3-7.4-16.3-11.3-23.8
				c-3.2-6-6.5-12-9.8-17.9C377.7,333.4,373.4,335.9,375,338.7z"/>
		</g>
	</g>
	<path d="M324.2,191.9c0,10.6-8.6,19.1-19.1,19.1c-10.6,0-19.1-8.6-19.1-19.1c0-0.9,0.1-1.8,0.2-2.6c1.2,0.8,2.6,1.3,4.1,1.3
		c4,0,7.2-3.2,7.2-7.2c0-2.9-1.7-5.4-4.1-6.5c3.2-2.5,7.3-4,11.7-4C315.6,172.8,324.2,181.4,324.2,191.9z"/>
	<path d="M214.1,191.9c0,10.6-8.6,19.1-19.1,19.1c-10.6,0-19.1-8.6-19.1-19.1c0-0.9,0.1-1.8,0.2-2.6c1.2,0.8,2.6,1.3,4.1,1.3
		c4,0,7.2-3.2,7.2-7.2c0-2.9-1.7-5.4-4.1-6.5c3.2-2.5,7.3-4,11.7-4C205.5,172.8,214.1,181.4,214.1,191.9z"/>
	
		<ellipse transform="matrix(0.7169 -0.6971 0.6971 0.7169 -112.2272 180.7014)" fill="#F68694" cx="166.4" cy="228.6" rx="7.4" ry="3.4"/>
	
		<ellipse transform="matrix(0.7169 -0.6971 0.6971 0.7169 -109.0657 190.8302)" fill="#F68694" cx="180.5" cy="229.7" rx="7.4" ry="3.4"/>
	
		<ellipse transform="matrix(0.7169 -0.6971 0.6971 0.7169 -105.0878 200.6274)" fill="#F68694" cx="194.5" cy="229.7" rx="7.4" ry="3.4"/>
	
		<ellipse transform="matrix(-0.7169 -0.6971 0.6971 -0.7169 413.1115 627.1812)" fill="#F68694" cx="333.9" cy="229.7" rx="7.4" ry="3.4"/>
	
		<ellipse transform="matrix(-0.7169 -0.6971 0.6971 -0.7169 388.1657 619.3947)" fill="#F68694" cx="319.8" cy="230.9" rx="7.4" ry="3.4"/>
	
		<ellipse transform="matrix(-0.7169 -0.6971 0.6971 -0.7169 364.0363 609.5975)" fill="#F68694" cx="305.8" cy="230.9" rx="7.4" ry="3.4"/>
	<g>
		<g>
			<path d="M225.7,217.5c11.2,10.8,24.6,13.4,38.1,5.1c2.7-1.7,0.2-6-2.5-4.3c-11.6,7.1-22.4,5-32-4.3
				C227,211.7,223.4,215.2,225.7,217.5L225.7,217.5z"/>
		</g>
	</g>
	<g>
		<g>
			<path d="M173.8,162.3c5.8-5.2,12.7-9.8,20.7-9.8c8.1,0,15,4.5,20.7,9.8c2.4,2.2,5.9-1.4,3.5-3.5c-6.8-6.1-14.8-11.2-24.3-11.2
				c-9.4,0-17.5,5.1-24.3,11.2C167.8,160.9,171.4,164.4,173.8,162.3L173.8,162.3z"/>
		</g>
	</g>
	<g>
		<g>
			<path d="M290.8,162.3c5.8-5.2,12.7-9.8,20.7-9.8c8.1,0,15,4.5,20.7,9.8c2.4,2.2,5.9-1.4,3.5-3.5c-6.8-6.1-14.8-11.2-24.3-11.2
				c-9.4,0-17.5,5.1-24.3,11.2C284.8,160.9,288.4,164.4,290.8,162.3L290.8,162.3z"/>
		</g>
	</g>
	<g>
		<path fill="#C0F9C0" d="M285.1,56.3c60.2,23,88.2,96.9,88.2,96.9l-46.2-3l41.4,15c-46.8,23-76.6-8.1-86.3-20.8
			S255.8,93.8,236,95.8S203.3,113,203.3,113s-18.4-12.3-29.6,11s-8.4,51.5-47.4,47.3c0,0,24.3-17.5,24.8-44.3s22.7-38.5,38.7-26.5
			C189.7,100.5,224.9,33.4,285.1,56.3z"/>
	</g>
	<g>
		<g>
			<path d="M192,98.3c-7.5-5.4-17.1-6.6-25.5-2.5c-9.5,4.6-14.9,14.6-16.4,24.7c-1,6.6-0.7,13-2.8,19.4c-1.8,5.7-4.8,11-8.3,15.7
				c-3.6,4.9-8.3,10-13,13.4c-2.1,1.5-1.3,4.4,1.3,4.7c10.5,1,21.8,0.3,30.1-6.9c6.7-5.8,9.8-14.6,12.6-22.8
				c3.3-10,6.2-24.2,16-29.9c5.2-3,12.1-2.3,17.1,0.9c0.9,0.6,2.3,0.4,3-0.4c7.6-8.8,20.6-16.5,32.3-16.6
				c13.6-0.1,23.7,17.6,30,27.5c5.9,9.3,11.1,19,18.7,27.1c8.2,8.7,18.2,15.8,29.5,19.7c18.2,6.4,37.2,3,54.2-5.1
				c2.3-1.1,1.1-4.6-1.3-4.7c-4.9,0-9.9-1.5-14.5-2.9c-14.4-4.5-27.5-12.2-39.7-21c-2.6-1.9-5.1,2.5-2.5,4.3
				c12.5,9,26.1,16.8,40.9,21.5c5,1.6,10.5,3.1,15.8,3.1c-0.4-1.6-0.8-3.1-1.3-4.7c-16.6,8-35.1,10.8-52.5,3.8
				c-11.1-4.4-20.7-12.2-28.4-21.3c-8-9.5-13.4-21.2-20.6-31.3c-6.6-9.3-16.2-21.5-28.9-21.2c-13,0.4-27,8.3-35.4,18
				c1-0.1,2-0.3,3-0.4c-4.6-3-10.9-4.3-16.3-3.2c-11.3,2.3-16.6,13.6-20.2,23.4c-3.4,9.2-5.4,19.3-11,27.5
				c-7.1,10.3-19.3,11.3-30.8,10.2c0.4,1.6,0.8,3.1,1.3,4.7c12-8.8,21.9-22.7,24.9-37.3c1.2-6,0.7-12.2,2.2-18.2
				c1.3-5.3,3.9-10.3,7.9-14c7.5-6.9,17.7-7,25.9-1.2C192.1,104.5,194.6,100.2,192,98.3L192,98.3z"/>
		</g>
	</g>
	<g>
		<g>
			<path d="M327.4,152.7c15.1,4.7,32,5.4,47.5,3c2.5-0.4,2.2-4.2,0-4.8c-22.9-6-45.9-19-61.4-36.9c-2.1-2.4-5.6,1.1-3.5,3.5
				c16.1,18.5,40,31.9,63.6,38.1c0-1.6,0-3.2,0-4.8c-14.6,2.2-30.6,1.5-44.9-3C325.7,146.9,324.3,151.7,327.4,152.7L327.4,152.7z"/>
		</g>
	</g>
	<g>
		<g>
			<path d="M206.7,111c4.2-9.2,10.7-17.9,18.4-24.4c6.3-5.4,14.2-9.1,22.6-9.1c12.4,0,23.2,7.4,31.9,15.4c2.4,2.2,5.9-1.3,3.5-3.5
				c-9.2-8.5-20.2-16-33.1-16.8c-9.2-0.6-18,2.7-25.3,8.1c-9.5,7-17.4,17.2-22.3,27.9C201,111.4,205.3,113.9,206.7,111L206.7,111z"
				/>
		</g>
	</g>
	<g>
		<g>
			<polygon fill="#B19AE8" points="146.8,86.6 120,41.5 168.8,67.7 			"/>
			<g>
				<path d="M148.9,85.4c-8.9-15-17.9-30.1-26.8-45.1c-1.1,1.1-2.3,2.3-3.4,3.4c16.3,8.7,32.5,17.4,48.8,26.2
					c-0.2-1.3-0.3-2.6-0.5-3.9c-7.3,6.3-14.7,12.6-22,19c-2.4,2.1,1.1,5.6,3.5,3.5c7.3-6.3,14.7-12.6,22-19c1.2-1,0.8-3.2-0.5-3.9
					c-16.3-8.7-32.5-17.4-48.8-26.2c-2.2-1.2-4.7,1.2-3.4,3.4c8.9,15,17.9,30.1,26.8,45.1C146.3,90.7,150.6,88.1,148.9,85.4z"/>
			</g>
		</g>
		<g>
			<polygon fill="#B19AE8" points="182.4,55.9 141.8,22.8 160.4,74.9 			"/>
			<g>
				<path d="M184.2,54.2C170.6,43.1,157.1,32,143.5,21c-1.7-1.4-5.1-0.2-4.2,2.4c6.2,17.4,12.4,34.8,18.7,52.1
					c0.7,1.8,2.7,2.4,4.2,1.1c7.3-6.3,14.7-12.6,22-19c2.4-2.1-1.1-5.6-3.5-3.5c-7.3,6.3-14.7,12.6-22,19c1.4,0.4,2.8,0.7,4.2,1.1
					c-6.2-17.4-12.4-34.8-18.7-52.1c-1.4,0.8-2.8,1.6-4.2,2.4c13.6,11.1,27.1,22.1,40.7,33.2C183.1,59.7,186.7,56.2,184.2,54.2z"/>
			</g>
		</g>
		<g>
			<polygon fill="#CFB6FF" points="153.6,12.6 182.5,55.8 147,86.4 108.3,51.6 137.7,54.6 131,32 152.2,41.8 			"/>
			<g>
				<path d="M151.4,13.8c9.6,14.4,19.3,28.8,28.9,43.3c0.1-1,0.3-2,0.4-3c-11.8,10.2-23.6,20.4-35.5,30.6c1.2,0,2.4,0,3.5,0
					C135.9,73,123,61.5,110,49.9c-0.6,1.4-1.2,2.8-1.8,4.3c9.8,1,19.6,2,29.4,3c1.6,0.2,2.8-1.7,2.4-3.2c-2.2-7.6-4.4-15.1-6.7-22.7
					c-1.2,0.9-2.4,1.9-3.7,2.8c7.1,3.3,14.1,6.5,21.2,9.8c1.7,0.8,3.7-0.2,3.8-2.2c0.4-9.7,0.9-19.5,1.3-29.2c0.1-3.2-4.9-3.2-5,0
					c-0.4,9.7-0.9,19.5-1.3,29.2c1.3-0.7,2.5-1.4,3.8-2.2c-7.1-3.3-14.1-6.5-21.2-9.8c-1.9-0.9-4.3,0.6-3.7,2.8
					c2.2,7.6,4.4,15.1,6.7,22.7c0.8-1.1,1.6-2.1,2.4-3.2c-9.8-1-19.6-2-29.4-3c-2.2-0.2-3.3,2.9-1.8,4.3
					c12.9,11.6,25.9,23.2,38.8,34.8c1.1,1,2.5,0.9,3.5,0c11.8-10.2,23.6-20.4,35.5-30.6c0.8-0.7,1-2.2,0.4-3
					c-9.6-14.4-19.3-28.8-28.9-43.3C153.9,8.6,149.6,11.1,151.4,13.8z"/>
			</g>
		</g>
	</g>
	<polyline fill="#C0F9C0" points="196,258 303,258 284.2,345.8 214.3,344.9 	"/>
	<g>
		<path fill="#5FAA61" d="M119.3,347.5c87.7,17.8,176.5,17.5,261.4,0l-1.4-14.1c-85,17.5-170.6,17.1-258.3-0.7L119.3,347.5z"/>
		<g>
			<path d="M118.7,349.9c67.8,13.7,137.6,17,206.3,9.1c18.9-2.2,37.8-5.2,56.4-9.1c1-0.2,1.9-1.4,1.8-2.4c-0.5-4.7-0.9-9.4-1.4-14.1
				c-0.2-1.7-1.5-2.8-3.2-2.4c-65.3,13.4-132.3,16.2-198.5,8.6c-19.6-2.2-39.1-5.4-58.5-9.3c-1.7-0.3-3,0.7-3.2,2.4
				c-0.6,4.9-1.1,9.9-1.7,14.8c-0.4,3.2,4.6,3.2,5,0c0.6-4.9,1.1-9.9,1.7-14.8c-1.1,0.8-2.1,1.6-3.2,2.4
				c66.8,13.5,135.4,17.4,203.2,9.7c18.9-2.2,37.8-5.2,56.5-9c-1.1-0.8-2.1-1.6-3.2-2.4c0.5,4.7,0.9,9.4,1.4,14.1
				c0.6-0.8,1.2-1.6,1.8-2.4c-66.2,13.6-134.4,16.6-201.6,9.2c-19.6-2.2-39.1-5.3-58.5-9.2C116.9,344.5,115.5,349.3,118.7,349.9z"/>
		</g>
	</g>
	<g>
		<g>
			<path d="M191.8,257.3c5.5,25.6,11.1,51.2,16.6,76.8c0.8,3.7,1.6,7.4,2.4,11.1c0.7,3.1,5.5,1.8,4.8-1.3
				c-5.5-25.6-11.1-51.2-16.6-76.8c-0.8-3.7-1.6-7.4-2.4-11.1C195.9,252.9,191.1,254.2,191.8,257.3L191.8,257.3z"/>
		</g>
	</g>
	<g>
		<g>
			<path d="M301.7,257c-5.5,25.6-11.1,51.2-16.6,76.8c-0.8,3.7-1.6,7.4-2.4,11.1c-0.7,3.1,4.1,4.5,4.8,1.3
				c5.5-25.6,11.1-51.2,16.6-76.8c0.8-3.7,1.6-7.4,2.4-11.1C307.2,255.2,302.4,253.9,301.7,257L301.7,257z"/>
		</g>
	</g>
	<g>
		<g>
			<path d="M248.4,259.7c0,25,0,50.1,0,75.1c0,3.6,0,7.1,0,10.7c0,3.2,5,3.2,5,0c0-25,0-50.1,0-75.1c0-3.6,0-7.1,0-10.7
				C253.4,256.4,248.4,256.4,248.4,259.7L248.4,259.7z"/>
		</g>
	</g>
	<g>
		<g>
			<path d="M206.9,300.6c14.7-13,29.5-26.1,44.2-39.1c2.4-2.1-1.1-5.7-3.5-3.5c-14.7,13-29.5,26.1-44.2,39.1
				C201,299.2,204.5,302.7,206.9,300.6L206.9,300.6z"/>
		</g>
	</g>
	<g>
		<g>
			<path d="M296.5,294.7c-13.9-12.3-27.7-24.5-41.6-36.8c-2.4-2.1-6,1.4-3.5,3.5c13.9,12.3,27.7,24.5,41.6,36.8
				C295.4,300.4,298.9,296.9,296.5,294.7L296.5,294.7z"/>
		</g>
	</g>
	<g>
		<g>
			<path d="M370.3,244.1c-77,17.3-156.6,17-233.7,0c-3.1-0.7-4.5,4.1-1.3,4.8c78,17.2,158.4,17.5,236.3,0
				C374.8,248.2,373.5,243.4,370.3,244.1L370.3,244.1z"/>
		</g>
	</g>
	<g>
		<g>
			<path fill="#C0F9C0" d="M144.5,92.3c0,0,6.2-17,20.7-18.8c0,0,3.2-17.8,23.2-17.2"/>
			<g>
				<path d="M146.9,93c3.1-8.3,10-15.7,18.9-17.1c0.8-0.1,1.6-1,1.7-1.7c1.9-10.1,11-15.4,20.8-15.3c3.2,0,3.2-5,0-5
					c-11.8-0.1-23.3,6.8-25.6,19c0.6-0.6,1.2-1.2,1.7-1.7c-10.7,1.7-18.8,10.8-22.4,20.6C141,94.7,145.8,96,146.9,93L146.9,93z"/>
			</g>
		</g>
	</g>
</g>
<g id="Layer_2">
	<g>
		<g id="ENFJ_4_1_">
			<g>
				<polygon fill="#CFB6FF" points="256.8,135.1 250,102.1 267.3,135.1 				"/>
				<g>
					<path d="M258.2,134.7c-2.3-11-4.5-22-6.8-33c-0.9,0.4-1.8,0.8-2.7,1.2c5.8,11,11.6,22,17.3,33c0.4-0.8,0.9-1.5,1.3-2.3
						c-3.5,0-7,0-10.6,0c-1.9,0-1.9,3,0,3c3.5,0,7,0,10.6,0c1.2,0,1.8-1.3,1.3-2.3c-5.8-11-11.6-22-17.3-33
						c-0.8-1.6-3.1-0.4-2.7,1.2c2.3,11,4.5,22,6.8,33C255.7,137.4,258.6,136.6,258.2,134.7z"/>
				</g>
			</g>
			<g>
				<polygon fill="#EAE1FF" points="250,168.1 256.8,135.1 267.3,135.1 				"/>
				<g>
					<path d="M251.4,168.5c2.3-11,4.5-22,6.8-33c-0.5,0.4-1,0.7-1.4,1.1c3.5,0,7,0,10.6,0c-0.4-0.8-0.9-1.5-1.3-2.3
						c-5.8,11-11.6,22-17.3,33c-0.9,1.7,1.7,3.2,2.6,1.5c5.8-11,11.6-22,17.3-33c0.5-1-0.1-2.3-1.3-2.3c-3.5,0-7,0-10.6,0
						c-0.6,0-1.3,0.5-1.4,1.1c-2.3,11-4.5,22-6.8,33C248.2,169.6,251,170.4,251.4,168.5z"/>
				</g>
			</g>
			<g>
				<polygon fill="#A0EAA7" points="232.7,135.1 250,102.1 256.8,135.1 				"/>
				<g>
					<path d="M234,135.8c5.8-11,11.6-22,17.3-33c-0.9-0.1-1.8-0.2-2.7-0.4c2.2,11,4.5,22,6.7,33c0.5-0.6,1-1.3,1.4-1.9
						c-8,0-16,0-24.1,0c-1.9,0-1.9,3,0,3c8,0,16,0,24.1,0c1,0,1.6-1,1.4-1.9c-2.2-11-4.5-22-6.7-33c-0.3-1.3-2.2-1.5-2.7-0.4
						c-5.8,11-11.6,22-17.3,33C230.5,136,233.1,137.6,234,135.8z"/>
				</g>
			</g>
			<g>
				<polygon fill="#D9FFDA" points="250,168.1 232.7,135.1 256.8,135.1 				"/>
				<g>
					<path d="M251.3,167.3c-5.8-11-11.6-22-17.3-33c-0.4,0.8-0.9,1.5-1.3,2.3c8,0,16,0,24.1,0c-0.5-0.6-1-1.3-1.4-1.9
						c-2.2,11-4.5,22-6.7,33c-0.4,1.9,2.5,2.7,2.9,0.8c2.2-11,4.5-22,6.7-33c0.2-0.9-0.4-1.9-1.4-1.9c-8,0-16,0-24.1,0
						c-1.2,0-1.8,1.3-1.3,2.3c5.8,11,11.6,22,17.3,33C249.6,170.6,252.2,169,251.3,167.3z"/>
				</g>
			</g>
		</g>
	</g>
</g>
</svg>
