<?xml version="1.0" encoding="utf-8"?>
<!-- Generator: Adobe Illustrator 18.1.1, SVG Export Plug-In . SVG Version: 6.00 Build 0)  -->
<svg version="1.1" xmlns="http://www.w3.org/2000/svg" xmlns:xlink="http://www.w3.org/1999/xlink" x="0px" y="0px"
	 viewBox="0 0 500 500" enable-background="new 0 0 500 500" xml:space="preserve">
<g id="Layer_1">
	<g>
		<g>
			<line fill="#C5FFFD" x1="430.5" y1="186.9" x2="446.9" y2="187.9"/>
		</g>
		<g>
			<g>
				<path fill="#C5FFFD" d="M312.5,276.1c0,0,6.1-105.5,155.1-131.7C467.6,144.4,440.3,259.3,312.5,276.1z"/>
				<g>
					<path d="M315,276.1c0.7-11.4,5.4-25,10.6-36c13.6-28.7,36.9-51.4,64.5-66.9c24.2-13.5,51-21.6,78.1-26.4c-1-1-2.1-2.1-3.1-3.1
						c-3.2,13.5-9.5,26.7-16.3,38.8c-15.9,28.1-38.7,52.1-66.8,68.2c-21.6,12.4-45.6,19.6-70.1,23c-3.2,0.4-1.8,5.2,1.3,4.8
						c40.8-5.5,79.3-22.7,108.6-52c18.9-18.9,33.6-41.8,43.3-66.7c1.9-4.8,3.7-9.7,4.9-14.8c0.5-2-1.2-3.4-3.1-3.1
						c-43.5,7.8-87.1,24.4-118.4,56.6c-17.1,17.6-30.1,39.5-36,63.4c-1.1,4.6-2.2,9.4-2.5,14.1C309.8,279.3,314.9,279.3,315,276.1z"
						/>
				</g>
			</g>
			<g>
				<line fill="#C5FFFD" x1="314" y1="274.1" x2="464.7" y2="147.1"/>
				<g>
					<path d="M315,275.2c17-14.3,34-28.6,50.9-42.9c27.1-22.8,54.1-45.6,81.2-68.4c6.2-5.2,12.4-10.5,18.6-15.7
						c1.5-1.2-0.7-3.4-2.1-2.1c-17,14.3-34,28.6-50.9,42.9c-27.1,22.8-54.1,45.6-81.2,68.4c-6.2,5.2-12.4,10.5-18.6,15.7
						C311.4,274.3,313.6,276.4,315,275.2L315,275.2z"/>
				</g>
			</g>
			<g>
				<line fill="#C5FFFD" x1="413" y1="191.1" x2="450.7" y2="181.6"/>
				<g>
					<path d="M413.4,192.6c12.5-3.2,25.1-6.3,37.6-9.5c1.9-0.5,1.1-3.4-0.8-2.9c-12.5,3.2-25.1,6.3-37.6,9.5
						C410.8,190.1,411.5,193,413.4,192.6L413.4,192.6z"/>
				</g>
			</g>
			<g>
				<line fill="#C5FFFD" x1="396.3" y1="204.5" x2="404.3" y2="164.8"/>
				<g>
					<path d="M397.7,204.9c2.7-13.2,5.4-26.5,8-39.7c0.4-1.9-2.5-2.7-2.9-0.8c-2.7,13.2-5.4,26.5-8,39.7
						C394.4,206,397.3,206.8,397.7,204.9L397.7,204.9z"/>
				</g>
			</g>
			<g>
				<line fill="#C5FFFD" x1="400.1" y1="183" x2="394.4" y2="169"/>
				<g>
					<path d="M401.5,182.6c-1.9-4.7-3.8-9.3-5.7-14c-0.7-1.8-3.6-1-2.9,0.8c1.9,4.7,3.8,9.3,5.7,14
						C399.3,185.2,402.2,184.4,401.5,182.6L401.5,182.6z"/>
				</g>
			</g>
			<g>
				<line fill="#C5FFFD" x1="365.9" y1="230.4" x2="421.2" y2="221.9"/>
				<g>
					<path d="M366.3,231.8c18.4-2.8,36.9-5.7,55.3-8.5c1.9-0.3,1.1-3.2-0.8-2.9c-18.4,2.8-36.9,5.7-55.3,8.5
						C363.6,229.2,364.4,232.1,366.3,231.8L366.3,231.8z"/>
				</g>
			</g>
			<g>
				<line fill="#C5FFFD" x1="384.8" y1="227.2" x2="435.2" y2="205.8"/>
				<g>
					<path d="M385.5,228.5c16.8-7.1,33.6-14.2,50.4-21.3c1.8-0.7,0.2-3.3-1.5-2.6c-16.8,7.1-33.6,14.2-50.4,21.3
						C382.2,226.6,383.8,229.2,385.5,228.5L385.5,228.5z"/>
				</g>
			</g>
			<g>
				<line fill="#C5FFFD" x1="398.7" y1="225.6" x2="412.9" y2="231.5"/>
				<g>
					<path d="M398.3,227.1c4.7,2,9.5,3.9,14.2,5.9c1.8,0.7,2.6-2.2,0.8-2.9c-4.7-2-9.5-3.9-14.2-5.9
						C397.3,223.4,396.5,226.3,398.3,227.1L398.3,227.1z"/>
				</g>
			</g>
			<g>
				<line fill="#C5FFFD" x1="342.4" y1="249.6" x2="350.2" y2="202.4"/>
				<g>
					<path d="M343.8,250c2.6-15.7,5.2-31.5,7.9-47.2c0.3-1.9-2.6-2.7-2.9-0.8c-2.6,15.7-5.2,31.5-7.9,47.2
						C340.6,251.1,343.5,251.9,343.8,250L343.8,250z"/>
				</g>
			</g>
			<g>
				<line fill="#C5FFFD" x1="345.7" y1="229.6" x2="366.5" y2="187.3"/>
				<g>
					<path d="M347,230.4c6.9-14.1,13.8-28.2,20.8-42.2c0.8-1.7-1.7-3.2-2.6-1.5c-6.9,14.1-13.8,28.2-20.8,42.2
						C343.6,230.6,346.2,232.1,347,230.4L347,230.4z"/>
				</g>
			</g>
			<g>
				<line fill="#C5FFFD" x1="333.1" y1="258" x2="380.7" y2="253.1"/>
				<g>
					<path d="M333.1,259.5c15.9-1.6,31.7-3.3,47.6-4.9c1.9-0.2,1.9-3.2,0-3c-15.9,1.6-31.7,3.3-47.6,4.9
						C331.2,256.7,331.2,259.7,333.1,259.5L333.1,259.5z"/>
				</g>
			</g>
			<g>
				<line fill="#C5FFFD" x1="359.1" y1="255.5" x2="366.8" y2="260.2"/>
				<g>
					<path d="M358.4,256.8c2.6,1.5,5.1,3.1,7.7,4.6c1.7,1,3.2-1.6,1.5-2.6c-2.6-1.5-5.1-3.1-7.7-4.6
						C358.2,253.2,356.7,255.8,358.4,256.8L358.4,256.8z"/>
				</g>
			</g>
		</g>
	</g>
	<g>
		<g>
			<g>
				<path d="M72.7,185.4c-5.5,0.3-11,0.7-16.4,1c-1.9,0.1-1.9,3.1,0,3c5.5-0.3,11-0.7,16.4-1C74.6,188.3,74.6,185.3,72.7,185.4
					L72.7,185.4z"/>
			</g>
		</g>
		<g>
			<g>
				<path fill="#C5FFFD" d="M190.6,276.1c0,0-6.1-105.5-155.1-131.7C35.5,144.4,62.9,259.3,190.6,276.1z"/>
				<g>
					<path d="M193.1,276.1c-0.8-13.2-5.7-26.7-11.3-38.5C168,208.3,144,185,116,169.2C91.4,155.3,64,147,36.2,142
						c-1.9-0.3-3.5,1.1-3.1,3.1c3.4,14.2,10,28,17.2,40.6c16.3,28.7,39.9,53.3,68.8,69.6c21.8,12.4,46,19.8,70.8,23.2
						c3.1,0.4,4.5-4.4,1.3-4.8c-40.4-5.5-78.3-22.3-107.1-51.4c-18.1-18.3-32.4-40.5-41.6-64.5c-1.8-4.6-3.5-9.3-4.6-14.1
						c-1,1-2.1,2.1-3.1,3.1c42.7,7.6,85.4,23.7,116.2,55.3c16.5,17,29.1,38.3,34.8,61.4c1.1,4.4,2,8.6,2.2,12.6
						C188.3,279.3,193.3,279.4,193.1,276.1z"/>
				</g>
			</g>
			<g>
				<line fill="#3AD8D0" x1="189.1" y1="274.1" x2="38.5" y2="147.1"/>
				<g>
					<path d="M190.2,273c-17-14.3-34-28.6-50.9-42.9c-27.1-22.8-54.1-45.6-81.2-68.4c-6.2-5.2-12.4-10.5-18.6-15.7
						c-1.5-1.2-3.6,0.9-2.1,2.1c17,14.3,34,28.6,50.9,42.9c27.1,22.8,54.1,45.6,81.2,68.4c6.2,5.2,12.4,10.5,18.6,15.7
						C189.6,276.4,191.7,274.3,190.2,273L190.2,273z"/>
				</g>
			</g>
			<g>
				<line fill="#3AD8D0" x1="90.1" y1="191.1" x2="52.5" y2="181.6"/>
				<g>
					<path d="M90.5,189.7c-12.5-3.2-25.1-6.3-37.6-9.5c-1.9-0.5-2.7,2.4-0.8,2.9c12.5,3.2,25.1,6.3,37.6,9.5
						C91.6,193,92.4,190.1,90.5,189.7L90.5,189.7z"/>
				</g>
			</g>
			<g>
				<line fill="#3AD8D0" x1="106.9" y1="204.5" x2="98.8" y2="164.8"/>
				<g>
					<path d="M108.3,204.1c-2.7-13.2-5.4-26.5-8-39.7c-0.4-1.9-3.3-1.1-2.9,0.8c2.7,13.2,5.4,26.5,8,39.7
						C105.8,206.8,108.7,206,108.3,204.1L108.3,204.1z"/>
				</g>
			</g>
			<g>
				<line fill="#3AD8D0" x1="103.1" y1="183" x2="108.7" y2="169"/>
				<g>
					<path d="M104.5,183.4c1.9-4.7,3.8-9.3,5.7-14c0.7-1.8-2.2-2.6-2.9-0.8c-1.9,4.7-3.8,9.3-5.7,14
						C100.9,184.4,103.8,185.2,104.5,183.4L104.5,183.4z"/>
				</g>
			</g>
			<g>
				<line fill="#3AD8D0" x1="137.3" y1="230.4" x2="82" y2="221.9"/>
				<g>
					<path d="M137.7,228.9c-18.4-2.8-36.9-5.7-55.3-8.5c-1.9-0.3-2.7,2.6-0.8,2.9c18.4,2.8,36.9,5.7,55.3,8.5
						C138.8,232.1,139.6,229.2,137.7,228.9L137.7,228.9z"/>
				</g>
			</g>
			<g>
				<line fill="#3AD8D0" x1="118.4" y1="227.2" x2="68" y2="205.8"/>
				<g>
					<path d="M119.1,225.9c-16.8-7.1-33.6-14.2-50.4-21.3c-1.8-0.7-3.3,1.8-1.5,2.6c16.8,7.1,33.6,14.2,50.4,21.3
						C119.4,229.2,120.9,226.6,119.1,225.9L119.1,225.9z"/>
				</g>
			</g>
			<g>
				<line fill="#3AD8D0" x1="104.5" y1="225.6" x2="90.2" y2="231.5"/>
				<g>
					<path d="M104.1,224.2c-4.7,2-9.5,3.9-14.2,5.9c-1.8,0.7-1,3.6,0.8,2.9c4.7-2,9.5-3.9,14.2-5.9
						C106.6,226.3,105.8,223.4,104.1,224.2L104.1,224.2z"/>
				</g>
			</g>
			<g>
				<line fill="#3AD8D0" x1="160.8" y1="249.6" x2="152.9" y2="202.4"/>
				<g>
					<path d="M162.2,249.2c-2.6-15.7-5.2-31.5-7.9-47.2c-0.3-1.9-3.2-1.1-2.9,0.8c2.6,15.7,5.2,31.5,7.9,47.2
						C159.6,251.9,162.5,251.1,162.2,249.2L162.2,249.2z"/>
				</g>
			</g>
			<g>
				<line fill="#3AD8D0" x1="157.4" y1="229.6" x2="136.7" y2="187.3"/>
				<g>
					<path d="M158.7,228.8c-6.9-14.1-13.8-28.2-20.8-42.2c-0.9-1.7-3.4-0.2-2.6,1.5c6.9,14.1,13.8,28.2,20.8,42.2
						C157,232.1,159.6,230.6,158.7,228.8L158.7,228.8z"/>
				</g>
			</g>
			<g>
				<line fill="#3AD8D0" x1="170" y1="258" x2="122.4" y2="253.1"/>
				<g>
					<path d="M170,256.5c-15.9-1.6-31.7-3.3-47.6-4.9c-1.9-0.2-1.9,2.8,0,3c15.9,1.6,31.7,3.3,47.6,4.9
						C171.9,259.7,171.9,256.7,170,256.5L170,256.5z"/>
				</g>
			</g>
			<g>
				<line fill="#3AD8D0" x1="144" y1="255.5" x2="136.3" y2="260.2"/>
				<g>
					<path d="M143.3,254.3c-2.6,1.5-5.1,3.1-7.7,4.6c-1.6,1-0.1,3.6,1.5,2.6c2.6-1.5,5.1-3.1,7.7-4.6
						C146.4,255.8,144.9,253.2,143.3,254.3L143.3,254.3z"/>
				</g>
			</g>
		</g>
	</g>
	<g>
		<path fill="#4EDADD" d="M96.7,338.1l1.5,0.9c9.5,6.1,22.3,3.3,28.4-6.3l40.6-63.5c6.1-9.5,3.3-22.3-6.3-28.4l-1.5-0.9
			c-9.5-6.1-22.3-3.3-28.4,6.3l-40.6,63.5C84.3,319.2,87.1,332,96.7,338.1z"/>
		<g>
			<path d="M95.4,340.2c11.4,7.3,25.6,5.2,33.3-6.3c3.3-4.9,6.4-10,9.6-14.9c10.1-15.8,20.3-31.5,30.3-47.4c6-9.5,5.7-21.8-2.7-30
				c-9.7-9.5-25.8-10.1-35,0.5c-3.8,4.5-6.7,10-9.8,15c-5.8,9-11.5,18-17.3,27c-4.9,7.7-9.9,15.4-14.8,23.2
				C81.8,318.6,84.2,332.5,95.4,340.2c2.7,1.8,5.2-2.5,2.5-4.3c-9.6-6.6-9.9-17.9-4.1-27c3.7-5.8,7.5-11.7,11.2-17.5
				c8.9-14,17.8-27.9,26.8-41.9c5.5-8.6,15.4-13.5,25.2-8.2c10.5,5.7,13.8,17.4,7.5,27.6c-8.3,13.2-16.8,26.4-25.3,39.5
				c-4.4,6.9-8.9,13.9-13.3,20.8c-6.5,10.2-17.4,13.5-27.9,6.7C95.2,334.2,92.7,338.5,95.4,340.2z"/>
		</g>
	</g>
	<g>
		<path fill="#074A4F" d="M371.8,231c7.3,0,7.6-55.6,7.6-55.6l13,9.3l-12-38c14.3,3,26.3-7,26.3-7s-16.7-2.7-28.3-21
			c-11.7-18.3-39.6-29.8-39.6-29.8c12.4,0.6,25-10.9,25-10.9s-31.7-1-58.2-14.3s-56.8-1.3-56.8-1.3s-26.6-12-53.1,1.3
			S137.3,78,137.3,78s12.6,11.5,25,10.9c0,0-28,11.4-39.6,29.8c-11.7,18.3-28.3,21-28.3,21s12,10,26.3,7l-12,38l13-9.3
			c0,0,0.3,37.6,7.6,55.6H372"/>
	</g>
	<g>
		<path fill="#4EDADD" d="M405.1,337.3l-1.5,0.9c-9.5,6.1-22.3,3.3-28.4-6.3l-40.6-63.5c-6.1-9.5-3.3-22.3,6.3-28.4l1.5-0.9
			c9.5-6.1,22.3-3.3,28.4,6.3l40.6,63.5C417.4,318.4,414.6,331.2,405.1,337.3z"/>
		<g>
			<path d="M403.8,335.1c-9.7,6.2-20.8,4.2-27.2-5.6c-3.5-5.3-6.9-10.7-10.3-16.1c-9.2-14.4-18.4-28.7-27.5-43.1
				c-4.7-7.3-7.2-15.5-1.7-23.4c7.7-11.1,24.1-11.2,31.7,0c8.3,12.3,16,25.1,24.1,37.6c4.7,7.4,9.4,14.7,14.1,22.1
				c1,1.5,2,3,2.9,4.6C414.4,319.6,411.5,329.8,403.8,335.1c-2.6,1.8-0.1,6.1,2.5,4.3c10.7-7.4,13.7-21,6.9-32.2
				c-3.5-5.7-7.2-11.2-10.8-16.9c-9.8-15.3-19.3-30.6-29.3-45.8c-6.8-10.3-19.9-14.4-31-8.4c-12.3,6.6-17.1,21.3-9.8,33.5
				c8.4,14.1,17.8,27.8,26.6,41.6c4.6,7.1,9,14.3,13.7,21.4c7.7,11.8,22,14.2,33.6,6.7C409,337.7,406.5,333.4,403.8,335.1z"/>
		</g>
	</g>
	<g>
		<g>
			<path fill="#078C85" d="M356.5,249.4c1-1.3,33.5-10.1,52.7,35.9C406.2,288.3,367,293.2,356.5,249.4z"/>
			<g>
				<path d="M358.3,251.1c-0.7,0.7,0,0.1,1.1-0.2c1.2-0.3,2.5-0.5,3.7-0.5c4.3-0.3,8.6,0.3,12.7,1.7c15.6,5.1,25.2,20.1,31.3,34.5
					c0.1-1,0.3-2,0.4-3c0.3-0.2-1.1,0.4-1.9,0.6c-1.6,0.4-3.2,0.5-4.8,0.6c-4.9,0.2-9.8-0.6-14.4-2.2c-15.2-5.1-23.7-18.9-27.4-33.8
					c-0.8-3.1-5.6-1.8-4.8,1.3c4.2,16.7,14.1,31.6,30.9,37.3c5.3,1.8,11,2.6,16.6,2.3c3-0.2,7-0.4,9.3-2.5c0.9-0.8,0.8-2,0.4-3
					c-6.8-15.9-17.7-31.7-35-37c-4.6-1.4-9.6-2-14.5-1.5c-2.1,0.2-5.5,0.4-7.1,2.1C352.5,249.9,356,253.4,358.3,251.1z"/>
			</g>
		</g>
		<g>
			<g>
				<g>
					<path d="M356,251.5c17,11.7,33.9,23.3,50.9,35c1.6,1.1,3.1-1.5,1.5-2.6c-17-11.7-33.9-23.3-50.9-35
						C355.9,247.9,354.4,250.5,356,251.5L356,251.5z"/>
				</g>
			</g>
			<g>
				<g>
					<path d="M389.2,274.4c2.4,4.1,4.8,8.2,7.3,12.3c1,1.7,3.6,0.2,2.6-1.5c-2.4-4.1-4.8-8.2-7.2-12.3
						C390.8,271.3,388.2,272.8,389.2,274.4L389.2,274.4z"/>
				</g>
			</g>
			<g>
				<g>
					<path d="M384.2,270.3c4.6-0.3,9.3-0.7,13.9-1c1.9-0.1,1.9-3.1,0-3c-4.6,0.3-9.3,0.7-13.9,1
						C382.2,267.4,382.2,270.4,384.2,270.3L384.2,270.3z"/>
				</g>
			</g>
			<g>
				<g>
					<path d="M372.9,263.2c3.1,6.6,6.3,13.2,9.4,19.8c0.8,1.7,3.4,0.2,2.6-1.5c-3.1-6.6-6.3-13.2-9.4-19.8
						C374.7,260,372.1,261.5,372.9,263.2L372.9,263.2z"/>
				</g>
			</g>
			<g>
				<g>
					<path d="M366.4,258.1c6.1-0.7,12.1-1.3,18.2-2c1.9-0.2,1.9-3.2,0-3c-6.1,0.7-12.1,1.3-18.2,2
						C364.5,255.3,364.5,258.3,366.4,258.1L366.4,258.1z"/>
				</g>
			</g>
		</g>
	</g>
	<g>
		<g>
			<path fill="#078C85" d="M146.2,244.4c-1-1.3-33.5-10.1-52.7,35.9C96.5,283.3,135.7,288.2,146.2,244.4z"/>
			<g>
				<path d="M147.9,242.6c-1.6-1.7-5-1.9-7.1-2.1c-4.8-0.5-9.8,0.1-14.5,1.5c-17.3,5.3-28.3,21.1-35,37c-0.4,1-0.5,2.2,0.4,3
					c2.3,2.1,6.2,2.3,9.1,2.5c5.7,0.4,11.5-0.5,16.9-2.3c16.9-5.7,26.7-20.6,30.9-37.3c0.8-3.1-4-4.5-4.8-1.3
					c-3.7,14.9-12.3,28.7-27.4,33.8c-4.5,1.5-9.3,2.3-14.1,2.2c-1.6,0-3.3-0.2-4.9-0.5c-0.9-0.2-2.3-0.8-2.1-0.6c0.1,1,0.3,2,0.4,3
					c6.1-14.4,15.7-29.3,31.3-34.5c4-1.3,8.2-1.9,12.4-1.7c1.4,0.1,2.7,0.2,4,0.6c1.1,0.3,1.7,0.8,1.1,0.2
					C146.7,248.4,150.2,244.9,147.9,242.6z"/>
			</g>
		</g>
		<g>
			<g>
				<g>
					<path d="M145.2,244c-17,11.7-33.9,23.3-50.9,35c-1.6,1.1-0.1,3.7,1.5,2.6c17-11.7,33.9-23.3,50.9-35
						C148.3,245.5,146.8,242.9,145.2,244L145.2,244z"/>
				</g>
			</g>
			<g>
				<g>
					<path d="M110.9,267.9c-2.4,4.1-4.8,8.2-7.2,12.3c-1,1.7,1.6,3.2,2.6,1.5c2.4-4.1,4.8-8.2,7.2-12.3
						C114.5,267.8,111.9,266.3,110.9,267.9L110.9,267.9z"/>
				</g>
			</g>
			<g>
				<g>
					<path d="M118.5,262.3c-4.6-0.3-9.3-0.7-13.9-1c-1.9-0.1-1.9,2.9,0,3c4.6,0.3,9.3,0.7,13.9,1
						C120.4,265.4,120.4,262.4,118.5,262.3L118.5,262.3z"/>
				</g>
			</g>
			<g>
				<g>
					<path d="M127.1,256.7c-3.1,6.6-6.3,13.2-9.4,19.8c-0.8,1.7,1.8,3.3,2.6,1.5c3.1-6.6,6.3-13.2,9.4-19.8
						C130.6,256.5,128,255,127.1,256.7L127.1,256.7z"/>
				</g>
			</g>
			<g>
				<g>
					<path d="M136.2,250.1c-6.1-0.7-12.1-1.3-18.2-2c-1.9-0.2-1.9,2.8,0,3c6.1,0.7,12.1,1.3,18.2,2
						C138.2,253.3,138.1,250.3,136.2,250.1L136.2,250.1z"/>
				</g>
			</g>
		</g>
	</g>
	<path fill="#FFFFFF" d="M381.1,349.2c-0.2-6-2.6-18-5.4-31.8l-0.1-0.5c-3-14.8-6.6-33.2-6.8-41.2c-0.1-5,0.1-12.2,0.1-19.8v-0.4
		c0-15.6,0.1-37.1-1.4-51.2c-1.2-11.5-5.6-40.7-19.2-62.5c-12.6-20.2-27.9-33.2-47.9-41.4c-18.4-7.4-52.1-8.3-53-8.3
		c-8.6,0-30.7,0.7-49.1,8.1c-20.1,8.1-35.3,21.3-47.9,41.5c-13.6,21.8-17.9,51-19.1,62.5c-1.5,14.1-1.4,35.5-1.2,51.2l0,3.6
		c0,6.3,0,12.3-0.1,16.6c-0.2,8.1-3.9,26.5-6.9,41.3l-0.1,0.6c-2.7,13.8-5.1,25.7-5.4,31.7c-0.6,15.4,3.8,25.7,14.9,35.8
		c7.1,6.4,14,9.5,21.7,9.5c4.1,0,7.8-0.8,11.9-1.8c1.1-0.3,2.3-0.6,3.5-1.1c4,2.2,11.7,5.6,21.7,5.6c6.5,0,14.1-1.4,22.4-5.4
		c4.8,3.9,9.7,7.5,9.7,7.5c12.9,7.3,24,8.8,25.6,8.8h0.4c1.6,0,12.7-0.9,26.1-8.8c0,0,4.3-3.1,8.8-6.7c7.7,3.4,14.7,4.6,20.8,4.6
		c10.9,0,19-3.9,22.7-6.1c1.8,0.7,3.3,1.3,4.9,1.7c4,1,7.7,1.8,11.8,1.8c7.8,0,14.4-2.9,21.6-9.5C377.4,375,381.7,364.6,381.1,349.2
		z"/>
	<g>
		<path fill="#074A4F" d="M126,325.5c85.3,12.2,169.7,12.5,253,0l-2.1-10c-82.3,12.5-164.5,12.2-248.8,0L126,325.5z"/>
	</g>
	<path fill="#4EDADD" d="M125,326.9c0,0,103,9.6,128.9,9.1s121.1-9.6,121.1-9.6s14.2,27.3,4.1,44.1s-26.5,26.8-47.4,19.9
		c-20.9-6.9-22.6-14.2-46.1,0c-23.5,14.2-36.8,21.5-54.7,11s-26.4-23-37.1-20.3s-36.9,20.6-60.8,5.3S125,326.9,125,326.9z"/>
	<g>
		<path fill="#4EDADD" d="M125,315.5c84.3,12.2,167.6,12.5,249.9,0c-9.6-26.3-8-63.5-8-63.5c-34.2,4.7-68.3,7.3-102.4,7.9
			l-11.7,24.8l-12.6-24.7c-35.2-0.4-70.4-3.1-105.5-7.9C134.7,252,136.5,292,125,315.5z"/>
	</g>
	<g>
		<g>
			<path d="M368.2,251.5c-11.1,5.7-22.3,11.1-33.7,16.2c-8.8,3.9-17.6,7.7-26.7,10.9c-5.1,1.7-12.5,5.1-18,3.8
				c-5.9-1.4-11.3-8-15-12.4c-2.5-3-4.9-6.3-7-9.7c-1.7-2.7-6-0.2-4.3,2.5c4.9,8,11.2,15.9,19,21.2c6.5,4.4,12.1,3.6,19.4,1.6
				c18.7-5.2,36.7-14,54.1-22.5c5-2.4,9.9-4.8,14.8-7.4C373.6,254.4,371.1,250,368.2,251.5L368.2,251.5z"/>
		</g>
	</g>
	<g>
		<g>
			<path d="M133.4,256.8c12.6,6.5,25.5,12.6,38.5,18.3c8.9,3.9,18,7.7,27.3,10.6c5.6,1.7,12.6,4.2,18.3,1.7
				c9.9-4.3,17.7-14.7,23.2-23.7c1.7-2.8-2.6-5.3-4.3-2.5c-4.7,7.7-10.9,15.8-18.7,20.5c-5.6,3.3-12.1,0.8-17.9-1.1
				c-17.5-5.6-34.3-13.7-50.9-21.7c-4.3-2.1-8.7-4.2-12.9-6.4C133.1,251,130.5,255.3,133.4,256.8L133.4,256.8z"/>
		</g>
	</g>
	<path fill="#C8C8C8" d="M285.5,389.9c0,0,8-6.1,16.8-7c8.8-1,23.8,5.5,23.8,5.5s-4.9,10-14.2,9.8
		C302.5,397.9,285.5,389.9,285.5,389.9z"/>
	<path fill="#C8C8C8" d="M169.6,389.9c0,0,8-6.1,16.8-7s23.8,5.5,23.8,5.5s-4.9,10-14.2,9.8S169.6,389.9,169.6,389.9z"/>
	<path d="M384.6,351.4c-0.2-6.1-2.7-18.4-5.5-32.5l-0.1-0.5c-3-15.1-6.3-33.9-6.5-42.1c-0.1-5.1,0.5-12.5,0.5-20.3v-0.4
		c0-16-0.3-37.9-1.8-52.2c-1.2-11.8-5.9-41.6-19.8-63.8c-12.9-20.6-28.6-33.9-49.1-42.2c-18.8-7.6-53.2-8.4-54.2-8.4
		c-8.8,0-31.4,0.7-50.1,8.3c-20.5,8.3-36,21.7-48.9,42.3c-13.9,22.2-18.3,52.1-19.6,63.8c-1.5,14.4-1.4,36.3-1.3,52.3l0,3.7
		c0,6.5,0,12.5-0.1,16.9c-0.2,8.3-4,27-7,42.1L121,319c-2.8,14.1-5.2,26.3-5.5,32.4c-0.6,15.7,3.8,26.3,15.2,36.6
		c7.3,6.6,14.3,9.7,22.1,9.7c4.2,0,8-0.8,12.1-1.9c1.1-0.3,2.3-0.7,3.5-1.1c4.1,2.3,11.9,5.7,22.2,5.7c6.7,0,14.4-1.4,22.9-5.5
		c4.9,4,9.9,7.4,10,7.4c13.2,7.5,24.5,8.7,26.2,8.7h0.4c1.7,0,13-0.7,26.7-8.7c0,0,4.4-3.1,8.9-6.7c7.8,3.5,15,4.8,21.3,4.8
		c11.2,0,19.4-4,23.2-6.2c1.8,0.7,3.4,1.3,5,1.7c4.1,1,7.9,1.9,12.1,1.9c7.9,0,14.7-3,22.1-9.6C380.8,377.7,385.2,367.1,384.6,351.4
		z M177.2,390.9c6.1-2.6,13.6-5.5,20.1-5.5c4.4,0,7.6,1.3,10.4,4.1l0.2,0.2C194.8,395.1,184,393.4,177.2,390.9z M291.7,390.4
		c0.3-0.3,0.6-0.5,0.8-0.8c2.8-2.8,6-4.2,10.4-4.2c6.1,0,13,2.5,18.9,5C315.4,392.9,304.8,395.2,291.7,390.4z M364.5,382.6
		c-6,5.4-11.1,7.8-17.2,7.8c-3.4,0-6.6-0.7-10.4-1.6c-2-0.5-4.5-1.6-7.7-3l-0.5-0.2c-7-3.2-16.7-7.4-25.8-7.4
		c-6.3,0-11.3,2.1-15.6,6.3c-11,11.2-21.9,15.7-29.1,17.5c-0.1,0-7.1,1.9-15.2-0.3c-8.2-2.3-19.2-6.1-30.1-17.2
		c-4.1-4.2-9.2-6.3-15.6-6.3c-9,0-18.6,4.2-25.9,7.4l-0.3,0.1c-3.3,1.4-5.8,2.6-7.9,3.1c-3.8,0.9-7,1.6-10.4,1.6
		c-6,0-11.3-2.4-17.2-7.8c-9.8-8.9-13.3-17.3-12.8-30.9c0.2-5.5,2.6-17.4,5.4-31.2l0.1-0.6c3.2-16.1,6.9-34.4,7.2-43.4
		c0.1-4.5,0.1-10.6,0.1-17.1l0-3.7c-0.1-15.8-0.3-37.5,1.2-51.4c1.2-11.3,5.4-39.8,18.5-60.7c12-19.3,26.5-31.8,45.4-39.5
		c17.6-7.1,39-8.2,47.4-8.2c0.8,0,33.8,0.8,51.4,7.9c19,7.7,33.4,20.4,45.5,39.6c13.1,21,18,49.5,19.2,60.8
		c1.5,14,1.9,35.7,1.9,51.5v0.4c0,7.8-0.8,15.2-0.7,20.4c0.2,8.9,3.6,27.2,6.8,43.4l-0.1,0.5c2.8,13.8,5.1,25.8,5.3,31.3
		C377.9,365.3,374.3,373.7,364.5,382.6z"/>
	<path fill="#074A4F" d="M140.2,140.4c0,0-0.9,9,0.8,18.3s5.8,15.4,5.8,15.4s10.9-28.8,13.9-35.4s7.4-11.1,7.4-11.1l4.9,18.7
		l11.2-20.4c0,0-0.1,10.5,4,18.2c4.1,7.7,13.6,14.8,13.6,14.8s-3.2-16.9-1.1-28.3c0,0,9.3,16.9,24.5,30.5
		c15.3,13.6,22.7,17.5,22.7,17.5s16.2-21.3,9.5-55.5c0,0,13.2,18.6,14.3,33.2c0,0,25.3-18.3,22.9-44.9l17.9,28.8l2.7-18.7
		c0,0,17.8,15.5,25.4,26.3c7.6,10.8,13.3,23.5,13.3,23.5s8.9-5.4,1.5-33.9c0,0-25.1-60.3-108.4-53.8S140.2,140.4,140.2,140.4z"/>
	<path d="M324.2,191.9c0,10.6-8.6,19.1-19.1,19.1c-10.6,0-19.1-8.6-19.1-19.1c0-0.9,0.1-1.8,0.2-2.6c1.2,0.8,2.6,1.3,4.1,1.3
		c4,0,7.2-3.2,7.2-7.2c0-2.9-1.7-5.4-4.1-6.5c3.2-2.5,7.3-4,11.7-4C315.6,172.8,324.2,181.4,324.2,191.9z"/>
	<path d="M214.1,191.9c0,10.6-8.6,19.1-19.1,19.1c-10.6,0-19.1-8.6-19.1-19.1c0-0.9,0.1-1.8,0.2-2.6c1.2,0.8,2.6,1.3,4.1,1.3
		c4,0,7.2-3.2,7.2-7.2c0-2.9-1.7-5.4-4.1-6.5c3.2-2.5,7.3-4,11.7-4C205.5,172.8,214.1,181.4,214.1,191.9z"/>
	
		<ellipse transform="matrix(0.7169 -0.6971 0.6971 0.7169 -112.2272 180.7014)" fill="#F68694" cx="166.4" cy="228.6" rx="7.4" ry="3.4"/>
	
		<ellipse transform="matrix(0.7169 -0.6971 0.6971 0.7169 -109.0657 190.8302)" fill="#F68694" cx="180.5" cy="229.7" rx="7.4" ry="3.4"/>
	
		<ellipse transform="matrix(0.7169 -0.6971 0.6971 0.7169 -105.0878 200.6274)" fill="#F68694" cx="194.5" cy="229.7" rx="7.4" ry="3.4"/>
	
		<ellipse transform="matrix(-0.7169 -0.6971 0.6971 -0.7169 413.1115 627.1812)" fill="#F68694" cx="333.9" cy="229.7" rx="7.4" ry="3.4"/>
	
		<ellipse transform="matrix(-0.7169 -0.6971 0.6971 -0.7169 388.1657 619.3947)" fill="#F68694" cx="319.8" cy="230.9" rx="7.4" ry="3.4"/>
	
		<ellipse transform="matrix(-0.7169 -0.6971 0.6971 -0.7169 364.0363 609.5975)" fill="#F68694" cx="305.8" cy="230.9" rx="7.4" ry="3.4"/>
	<g>
		<g>
			<path d="M233.8,81.3c-13.3,0.4-27.7,5-38,13.5c-17.2,14.1-19.8,40-6.3,57.5c3.7,4.8,8.5,9.4,13.9,12.4c1.8,1,4.4-0.7,3.7-2.8
				c-3.2-9.7-5.3-20.4-4.1-30.6c-1.6,0.4-3.1,0.8-4.7,1.3c10.1,20.9,29.4,38.2,48.8,50.1c1.1,0.7,2.8,0.3,3.4-0.9
				c9-17.8,13.1-39.2,10.3-58.9c-1.5,0.6-3,1.3-4.6,1.9c5.8,10.6,11.1,22.9,11.9,35c0.2,2.2,2.6,3.2,4.3,1.8
				c9-7.7,16.8-17.9,21.6-28.6c3.5-8,5.3-16.7,3.7-25.3c-2.1-11-9.6-19.4-18.3-26c-2.6-1.9-5.1,2.4-2.5,4.3
				c8.4,6.4,15.5,15,16.3,25.9c0.6,8-1.9,16-5.7,23c-4.7,8.7-11.2,16.8-18.6,23.2c1.4,0.6,2.8,1.2,4.3,1.8
				c-0.9-13.1-6.4-26.1-12.6-37.5c-1.5-2.7-4.9-0.7-4.6,1.9c2.6,18.3-1.4,38.6-9.7,55.1c1.1-0.3,2.3-0.6,3.4-0.9
				c-18.7-11.5-37.3-28.2-47-48.4c-1.2-2.5-4.4-0.9-4.7,1.3c-1.3,10.6,0.9,21.9,4.3,31.9c1.2-0.9,2.4-1.9,3.7-2.8
				c-11.4-6.4-20-19.3-20.2-32.4c-0.3-21.1,15.7-34.8,34.7-39.6c4.4-1.1,8.9-2,13.4-2.1C237,86.2,237,81.2,233.8,81.3L233.8,81.3z"
				/>
		</g>
	</g>
	<g>
		<g>
			<path d="M293.1,111c5.2,12.1,11.2,24.2,18.8,35c1.4,2,4.5,1.3,4.7-1.3c0.4-7.3,0.8-14.5,1.2-21.8c-1.4,0.6-2.8,1.2-4.3,1.8
				c6.1,5,11.7,10.7,16.9,16.5c9.2,10.3,18.5,22.4,20.9,36.4c0.4,2.1,3.7,2.5,4.6,0.6c6.1-12.5,8-28.1,2.3-41
				c-1.3-2.9-5.6-0.4-4.3,2.5c5,11.1,3,25.2-2.3,36c1.5,0.2,3,0.4,4.6,0.6c-2.4-14-11.5-26.3-20.6-36.7
				c-5.7-6.5-11.9-12.8-18.6-18.4c-1.7-1.4-4.1-0.5-4.3,1.8c-0.4,7.3-0.8,14.5-1.2,21.8c1.6-0.4,3.1-0.8,4.7-1.3
				c-7.5-10.8-13.6-22.9-18.8-35C296.1,105.5,291.8,108.1,293.1,111L293.1,111z"/>
		</g>
	</g>
	<g>
		<g>
			<path d="M180.7,124.6c-0.9,7.9-5.7,17.7-10.6,24.9c1.5,0.2,3,0.4,4.6,0.6c-1.4-7.3-2.8-14.5-4.2-21.8c-0.4-2.3-3.4-2.2-4.6-0.6
				c-10.3,14.5-18.1,32.1-21,49.6c1.5-0.2,3-0.4,4.6-0.6c-5.9-9.4-8.3-21.3-7.2-32.3c0.3-3.2-4.7-3.2-5,0
				c-1.2,11.8,1.5,24.7,7.8,34.8c1,1.7,4.2,1.6,4.6-0.6c2.9-17.2,10.4-34.2,20.5-48.4c-1.5-0.2-3-0.4-4.6-0.6
				c1.4,7.3,2.8,14.5,4.2,21.8c0.4,2.3,3.5,2.2,4.6,0.6c5.5-8,10.2-17.6,11.3-27.4C186.1,121.4,181.1,121.5,180.7,124.6L180.7,124.6
				z"/>
		</g>
	</g>
	<g>
		<g>
			<path d="M249.9,60.2c-17.5-8.1-38.4-6.5-55.4,1.7c-17.2,8.3-37.1,13-56.2,13.6c-2,0.1-3.5,2.8-1.8,4.3
				c7.2,6.5,16.9,11.7,26.7,11.6c-0.2-1.6-0.4-3.3-0.7-4.9c-12.3,5.1-24.4,12.4-33.8,21.8c-7.4,7.5-11.8,17-20.8,23
				c-4,2.7-8.6,5.1-13.4,5.9c-1.8,0.3-2.5,3-1.1,4.2c8,6.5,18.6,9.4,28.8,7.6c-1-1-2.1-2.1-3.1-3.1c-4,12.7-8,25.3-12,38
				c-0.6,2,1.9,4.1,3.7,2.8c4.3-3.1,8.7-6.2,13-9.3c-1.3-0.7-2.5-1.4-3.8-2.2c0.2,18.4,0.9,38.9,7.7,56.2c1.2,3,6,1.7,4.8-1.3
				c-6.6-17-7.3-36.9-7.5-54.9c0-1.8-2.2-3.3-3.8-2.2c-4.3,3.1-8.7,6.2-13,9.3c1.2,0.9,2.4,1.9,3.7,2.8c4-12.7,8-25.3,12-38
				c0.6-2-1.3-3.4-3.1-3.1c-8.2,1.5-17.4-1.1-23.9-6.4c-0.4,1.4-0.7,2.8-1.1,4.2c4.3-0.7,8.5-2.7,12.2-4.9c3.8-2.2,7.3-5,10.4-8.1
				c4-4.1,6.7-9,10.3-13.3C137.7,105,152,96.3,164,91.3c2.4-1,2.4-4.9-0.7-4.9c-8.5,0.1-17-4.6-23.2-10.2c-0.6,1.4-1.2,2.8-1.8,4.3
				c17-0.6,34.6-4.3,50.3-10.6c6.4-2.6,12.4-6,19-7.9c6.5-1.8,13.3-2.4,20.1-2c6.5,0.4,13.7,1.7,19.6,4.5
				C250.3,65.8,252.9,61.5,249.9,60.2L249.9,60.2z"/>
		</g>
	</g>
	<g>
		<g>
			<path d="M249.3,64.7c6.1-2.5,12.8-3.8,19.3-4.5c6.5-0.7,13.2-0.6,19.7,0.6c7.6,1.4,14.1,4.8,21.1,7.8
				c16.5,7.1,35.2,11.2,53.3,11.8c-0.6-1.4-1.2-2.8-1.8-4.3c-6.2,5.6-14.7,10.3-23.2,10.2c-3,0-3.1,3.9-0.7,4.9
				c12,4.9,26.3,13.7,35.1,24.4c3.4,4.2,6,8.8,9.8,12.8c3.1,3.2,6.6,6.1,10.4,8.4c3.8,2.3,8.2,4.4,12.7,5.2
				c-0.4-1.4-0.7-2.8-1.1-4.2c-6.5,5.3-15.7,7.8-23.9,6.4c-1.8-0.3-3.7,1.1-3.1,3.1c4,12.7,8,25.3,12,38c1.2-0.9,2.4-1.9,3.7-2.8
				c-4.3-3.1-8.7-6.2-13-9.3c-1.6-1.1-3.7,0.4-3.8,2.2c-0.2,18-0.9,37.9-7.5,54.9c-1.2,3,3.7,4.3,4.8,1.3
				c6.7-17.3,7.5-37.8,7.7-56.2c-1.3,0.7-2.5,1.4-3.8,2.2c4.3,3.1,8.7,6.2,13,9.3c1.8,1.3,4.3-0.8,3.7-2.8c-4-12.7-8-25.3-12-38
				c-1,1-2.1,2.1-3.1,3.1c10.1,1.8,20.8-1.1,28.8-7.6c1.4-1.1,0.7-3.9-1.1-4.2c-4.6-0.8-9.1-3-12.9-5.6c-9.3-6-13.7-15.8-21.3-23.4
				c-9.4-9.4-21.5-16.8-33.8-21.8c-0.2,1.6-0.4,3.3-0.7,4.9c9.9,0.1,19.5-5.2,26.7-11.6c1.7-1.5,0.3-4.2-1.8-4.3
				c-20.4-0.7-40.2-6.3-58.5-14.8c-17.1-7.8-38.7-7.8-56.1-0.8C245.1,61.1,246.3,66,249.3,64.7L249.3,64.7z"/>
		</g>
	</g>
	<g>
		<g>
			<path d="M285.8,159.1c6-14.1,32.7-13.9,38.8,0c1.3,2.9,5.6,0.4,4.3-2.5c-7.5-17.2-40-17.4-47.5,0
				C280.3,159.5,284.6,162,285.8,159.1L285.8,159.1z"/>
		</g>
	</g>
	<g>
		<g>
			<path d="M175.8,159.1c6-14.1,32.7-13.9,38.8,0c1.3,2.9,5.6,0.4,4.3-2.5c-7.5-17.2-40-17.4-47.5,0
				C170.3,159.5,174.6,162,175.8,159.1L175.8,159.1z"/>
		</g>
	</g>
	<g>
		<path fill="#843131" d="M234,208c0,0,17.7,6.5,31.5,0C265.5,208,248,288.7,234,208z"/>
		<g>
			<path d="M233.3,210.4c10.6,3.8,23,4.2,33.4-0.3c-1.2-0.9-2.4-1.9-3.7-2.8c-2,9.3-4.6,19.1-9.1,27.6c-1.3,2.6-4.1,8.4-7.4,5.3
				c-2.7-2.5-3.9-7-5-10.3c-2.4-7.4-3.9-15-5.2-22.6c-0.6-3.2-5.4-1.8-4.8,1.3c1.8,10.4,3.5,22.4,9,31.7c2.1,3.6,5.6,7.2,10.1,5.6
				c4.2-1.5,6.7-6.4,8.5-10.2c2.5-5.3,4.4-11,6.1-16.7c1-3.5,1.9-6.9,2.7-10.4c0.5-2.3-1.7-3.7-3.7-2.8c-9.1,3.9-20.3,3.1-29.6-0.3
				C231.6,204.5,230.3,209.3,233.3,210.4z"/>
		</g>
	</g>
	<g>
		<g>
			<path d="M133,254.4c35.2,4.8,70.6,7.5,106.2,8c-0.7-0.4-1.4-0.8-2.2-1.2c4.2,8.2,8.4,16.5,12.6,24.7c0.8,1.6,3.5,1.7,4.3,0
				c3.9-8.3,7.8-16.5,11.7-24.8c-0.7,0.4-1.4,0.8-2.2,1.2c34.5-0.6,68.9-3.3,103.1-8c3.2-0.4,1.8-5.3-1.3-4.8
				c-33.7,4.6-67.7,7.2-101.8,7.8c-0.8,0-1.8,0.5-2.2,1.2c-3.9,8.3-7.8,16.5-11.7,24.8c1.4,0,2.9,0,4.3,0
				c-4.2-8.2-8.4-16.5-12.6-24.7c-0.4-0.8-1.3-1.2-2.2-1.2c-35.1-0.5-70.1-3.1-104.8-7.8C131.2,249.2,129.8,254,133,254.4L133,254.4
				z"/>
		</g>
	</g>
	<g>
		<g>
			<path d="M122.3,327.9c65.8,9.3,132.5,11.9,198.7,6.5c18.6-1.5,37.1-3.7,55.6-6.5c3.2-0.5,1.8-5.3-1.3-4.8
				c-83.4,12.4-168.3,11.8-251.7,0C120.5,322.6,119.2,327.5,122.3,327.9L122.3,327.9z"/>
		</g>
	</g>
	<g>
		<g>
			<path d="M124.3,317.9c65,9.3,130.9,11.9,196.4,6.5c18.3-1.5,36.6-3.7,54.8-6.5c3.2-0.5,1.8-5.3-1.3-4.8
				c-82.4,12.4-166.2,11.8-248.6,0C122.5,312.6,121.2,317.5,124.3,317.9L124.3,317.9z"/>
		</g>
	</g>
	<g>
		<path fill="#C5FFFD" d="M372.8,272.7c0,0-0.9,4.1,0.8,14.9c0,0-126.6,58.4-258.1,71.4l2.1-12C117.6,347,244.2,334,372.8,272.7z"/>
		<g>
			<path d="M370.4,272c-1,5.3,0.1,11,0.8,16.2c0.4-0.9,0.8-1.9,1.1-2.8c-16.6,7.6-33.7,14.2-50.8,20.6c-39.5,14.6-80,27-121.1,36.4
				c-28,6.4-56.4,11.3-84.9,14.2c0.8,1.1,1.6,2.1,2.4,3.2c0.7-4,1.4-8,2.1-12c-0.8,0.6-1.6,1.2-2.4,1.8c16.9-1.7,33.8-4.8,50.5-8
				c41.7-8.1,82.9-19.1,123.1-32.9c28.2-9.7,55.9-20.9,82.8-33.8c2.9-1.4,0.4-5.7-2.5-4.3C297,305.9,216.2,330,134.7,342.2
				c-5.7,0.9-11.3,1.7-17,2.3c-1,0.1-2.2,0.7-2.4,1.8c-0.7,4-1.4,8-2.1,12c-0.3,1.4,0.6,3.3,2.4,3.2c83.1-8.3,165.1-32.3,242-64.3
				c5.8-2.4,11.6-4.8,17.3-7.5c1.1-0.5,1.3-1.8,1.1-2.8c-0.6-4.1-1.5-9.8-0.8-13.6C375.8,270.2,371,268.8,370.4,272z"/>
		</g>
	</g>
	<g>
		<g>
			<circle fill="#E6FCFC" cx="295.8" cy="310.5" r="10.8"/>
			<g>
				<path d="M305.1,310.5c-0.6,11.9-18.6,12-18.6,0C286.5,298.4,304.5,298.6,305.1,310.5c0.1,1.9,3.1,1.9,3,0
					c-0.4-6.7-5.3-12.3-12.3-12.3c-6.7,0-12.3,5.6-12.3,12.3c0,6.5,5.2,12,11.7,12.3c7.2,0.3,12.5-5.4,12.9-12.3
					C308.2,308.5,305.2,308.5,305.1,310.5z"/>
			</g>
		</g>
		<g>
			<path fill="#4EDADD" d="M302.1,310.2c0,3.6-2.9,6.6-6.6,6.6c-3.6,0-6.6-2.9-6.6-6.6"/>
		</g>
	</g>
	<g>
		<g>
			<circle fill="#E6FCFC" cx="267.8" cy="320.5" r="10.8"/>
			<g>
				<path d="M277.1,320.5c-0.6,11.9-18.6,12-18.6,0C258.5,308.4,276.5,308.6,277.1,320.5c0.1,1.9,3.1,1.9,3,0
					c-0.4-6.7-5.3-12.3-12.3-12.3c-6.7,0-12.3,5.6-12.3,12.3c0,6.5,5.2,12,11.7,12.3c7.2,0.3,12.5-5.4,12.9-12.3
					C280.2,318.5,277.2,318.5,277.1,320.5z"/>
			</g>
		</g>
		<g>
			<path fill="#4EDADD" d="M274.1,320.2c0,3.6-2.9,6.6-6.6,6.6c-3.6,0-6.6-2.9-6.6-6.6"/>
		</g>
	</g>
	<g>
		<g>
			<circle fill="#E6FCFC" cx="325.8" cy="299.5" r="10.8"/>
			<g>
				<path d="M335.1,299.5c-0.6,11.9-18.6,12-18.6,0C316.5,287.4,334.5,287.6,335.1,299.5c0.1,1.9,3.1,1.9,3,0
					c-0.4-6.7-5.3-12.3-12.3-12.3c-6.7,0-12.3,5.6-12.3,12.3c0,6.5,5.2,12,11.7,12.3c7.2,0.3,12.5-5.4,12.9-12.3
					C338.2,297.5,335.2,297.5,335.1,299.5z"/>
			</g>
		</g>
		<g>
			<path fill="#4EDADD" d="M332.1,299.2c0,3.6-2.9,6.6-6.6,6.6c-3.6,0-6.6-2.9-6.6-6.6"/>
		</g>
	</g>
	<g>
		<g>
			<g>
				<polygon fill="#6B3428" points="299.7,271.7 289.1,273.6 285.6,260.8 298.7,258.5 				"/>
				<g>
					<path d="M299.3,270.3c-3.6,0.6-7.1,1.2-10.7,1.9c0.6,0.3,1.2,0.7,1.8,1c-1.2-4.3-2.3-8.5-3.5-12.8c-0.3,0.6-0.7,1.2-1,1.8
						c4.3-0.8,8.7-1.5,13-2.3c-0.6-0.5-1.3-1-1.9-1.4c0.4,4.4,0.7,8.8,1.1,13.2c0.2,1.9,3.2,1.9,3,0c-0.4-4.4-0.7-8.8-1.1-13.2
						c-0.1-1-0.9-1.6-1.9-1.4c-4.3,0.8-8.7,1.5-13,2.3c-0.8,0.1-1.2,1.1-1,1.8c1.2,4.3,2.3,8.5,3.5,12.8c0.2,0.8,1,1.2,1.8,1
						c3.6-0.6,7.1-1.2,10.7-1.9C302,272.8,301.2,269.9,299.3,270.3z"/>
				</g>
			</g>
			<g>
				<path fill="#E6FCFC" d="M322.5,310.8c2,11.5-5.7,22.4-17.1,24.4s-22.4-5.7-24.4-17.1c-1.6-9.2,3-18,10.7-22.2l-2.7-15.6
					c-0.1-0.4-0.1-0.8,0-1.2l-0.8,0.1c-0.9,0.2-1.7-0.4-1.8-1.3l-0.5-2.9c-0.2-0.9,0.4-1.7,1.3-1.8l14.4-2.5
					c0.9-0.2,1.7,0.4,1.8,1.3l0.5,2.9c0.2,0.9-0.4,1.7-1.3,1.8l-0.8,0.1c0.2,0.3,0.4,0.7,0.4,1.1l2.7,15.6
					C313.6,294.9,320.9,301.7,322.5,310.8z"/>
				<g>
					<path d="M321.1,311.2c2.1,14.9-12.7,27.3-26.9,21.3c-15.2-6.4-15.5-27.2-1.8-35.3c0.6-0.4,0.8-1,0.7-1.7
						c-0.9-5.2-2.8-11.1-2.6-16.4c0-1.1-1-1.6-1.9-1.4c-0.9,0.2-1.2-1.3-1.1-2c0.2-1.4-0.1-0.5,0.8-1.1c1.2-0.9,4.9-0.9,6.4-1.1
						c1.4-0.2,5.1-1.6,6.4-1.1c0.8,0.3,2.1,2.8,0.2,3.2c-0.7,0.1-1.3,1.1-1,1.8c2,5.1,2.2,11.3,3.2,16.7c0.1,0.5,0.6,1,1,1
						C313.2,296.7,319.3,302.6,321.1,311.2c0.4,1.9,3.3,1.1,2.9-0.8c-1-4.9-3.3-9.3-7-12.7c-1.6-1.5-3.4-2.7-5.4-3.6
						c-0.9-0.5-1.9-0.8-2.9-1.2c-0.5-0.2-3-0.6-2.3,0c-1.2-1.1-1.2-7-1.5-8.6c-0.5-2.6-0.6-5.4-1.6-7.9c-0.3,0.6-0.7,1.2-1,1.8
						c3.6-0.6,4.2-5.7,1.8-8.1c-2.1-2.2-7.5-0.1-10.1,0.3c-2.7,0.5-8.4,0.3-9.4,3.5c-1,3.4,1.2,7.2,4.9,6.5c-0.6-0.5-1.3-1-1.9-1.4
						c-0.2,5.6,1.8,11.6,2.7,17.2c0.2-0.6,0.5-1.1,0.7-1.7c-15.9,9.3-15.4,33.3,2.1,40.7c16.7,7.1,33.4-7.7,31-24.9
						C323.7,308.5,320.8,309.3,321.1,311.2z"/>
				</g>
			</g>
			<path fill="#3AD8D0" d="M317.5,314.4c-0.2,8.3-7.1,15-15.4,14.8c-8.3-0.2-15-7.1-14.8-15.4"/>
		</g>
		<g>
			<g>
				<path fill="#FFFFFF" d="M330.5,336.3c-0.3-0.1-0.6-0.1-0.9-0.2c-9.9-2.1-26-10.6-23.8-23.6c2.2-13,18.3-16.6,28.7-16.3
					L330.5,336.3z"/>
				<g>
					<path d="M331.1,333.9c-9.2-1.8-24.2-8.7-23-20.1c1.2-12.2,16.5-15.2,26.4-15c-0.8-0.8-1.7-1.7-2.5-2.5
						c-1.3,13.4-2.7,26.7-4,40.1c-0.3,3.2,4.7,3.2,5,0c1.3-13.4,2.7-26.7,4-40.1c0.1-1.4-1.3-2.5-2.5-2.5
						c-12.5-0.3-29.2,4.3-31.2,18.8c-2.1,14.5,14.5,23.9,26.5,26.2C332.9,339.3,334.3,334.5,331.1,333.9z"/>
				</g>
			</g>
			<g>
				<path fill="#4EDADD" d="M396.7,301.7c0,0-48.6-7.9-51.9-9.1c-3.3-1.2-11,4.1-11,4.1v-0.1l-3.5,37.1c0,0,1.9,7.1,9.9,5.9
					c7.9-1.2,54.2,1.4,54.2,1.4"/>
				<g>
					<path d="M397.4,299.3c-11.3-1.8-22.5-3.7-33.8-5.6c-5.6-1-11.3-1.8-16.9-3.1c-5.3-1.2-9.8,1-14.2,4c1.3,0.7,2.5,1.4,3.8,2.2
						c0,0,0-0.1,0-0.1c0-3.3-4.7-3.2-5,0c-0.6,6.5-1.2,13-1.8,19.5c-0.4,4.2-0.8,8.3-1.2,12.5c-0.2,1.8-0.7,4-0.4,5.8
						c1.6,8.2,10.5,7.5,16.7,7.4c9.2-0.2,18.5,0.2,27.8,0.6c7.3,0.3,14.7,0.7,22,1.1c3.2,0.2,3.2-4.8,0-5
						c-14.3-0.8-28.6-1.5-42.9-1.7c-5-0.1-16.8,2.5-18.8-3.5c0.2,0.6,0.1,0.1,0.1-0.7c0.1-1.2,0.2-2.4,0.3-3.5
						c0.4-3.9,0.7-7.9,1.1-11.8c0.6-6.8,1.3-13.7,1.9-20.5c-1.7,0-3.3,0-5,0c0,0,0,0.1,0,0.1c0,1.8,2.2,3.2,3.8,2.2
						c2.2-1.5,5.3-3.8,8-3.9c1.4-0.1,3,0.5,4.4,0.8c5.9,1.2,11.8,2.2,17.8,3.2c10.3,1.8,20.5,3.5,30.8,5.1
						C399.2,304.6,400.6,299.8,397.4,299.3L397.4,299.3z"/>
				</g>
			</g>
		</g>
	</g>
	<g>
		<g>
			<path d="M248,336c0,22.3,0,44.7,0,67c0,3.2,5,3.2,5,0c0-22.3,0-44.7,0-67C253,332.8,248,332.8,248,336L248,336z"/>
		</g>
	</g>
	<g>
		<circle fill="#175654" cx="263.1" cy="348.1" r="5.8"/>
		<g>
			<path d="M267.3,348.1c-0.3,5.4-8.5,5.5-8.5,0C258.8,342.6,267,342.6,267.3,348.1c0.1,1.9,3.1,1.9,3,0c-0.2-3.9-3.1-7.3-7.3-7.3
				c-3.9,0-7.3,3.3-7.3,7.3c0,3.8,3.1,7.1,6.9,7.2c4.2,0.2,7.3-3.2,7.6-7.2C270.4,346.2,267.4,346.2,267.3,348.1z"/>
		</g>
	</g>
	<g>
		<circle fill="#175654" cx="252.1" cy="297.1" r="5.8"/>
		<g>
			<path d="M256.3,297.1c-0.3,5.4-8.5,5.5-8.5,0C247.8,291.6,256,291.6,256.3,297.1c0.1,1.9,3.1,1.9,3,0c-0.2-3.9-3.1-7.3-7.3-7.3
				c-3.9,0-7.3,3.3-7.3,7.3c0,3.8,3.1,7.1,6.9,7.2c4.2,0.2,7.3-3.2,7.6-7.2C259.4,295.2,256.4,295.2,256.3,297.1z"/>
		</g>
	</g>
	<g>
		<circle fill="#175654" cx="263.1" cy="368.1" r="5.8"/>
		<g>
			<path d="M267.3,368.1c-0.3,5.4-8.5,5.5-8.5,0C258.8,362.6,267,362.6,267.3,368.1c0.1,1.9,3.1,1.9,3,0c-0.2-3.9-3.1-7.3-7.3-7.3
				c-3.9,0-7.3,3.3-7.3,7.3c0,3.8,3.1,7.1,6.9,7.2c4.2,0.2,7.3-3.2,7.6-7.2C270.4,366.2,267.4,366.2,267.3,368.1z"/>
		</g>
	</g>
	<g>
		<g>
			<circle fill="#E6FCFC" cx="147.8" cy="348.5" r="10.8"/>
			<g>
				<path d="M157.1,348.5c-0.6,11.9-18.6,12-18.6,0C138.5,336.4,156.5,336.6,157.1,348.5c0.1,1.9,3.1,1.9,3,0
					c-0.4-6.7-5.3-12.3-12.3-12.3c-6.7,0-12.3,5.6-12.3,12.3c0,6.5,5.2,12,11.7,12.3c7.2,0.3,12.5-5.4,12.9-12.3
					C160.2,346.5,157.2,346.5,157.1,348.5z"/>
			</g>
		</g>
		<g>
			<path fill="#4EDADD" d="M154.1,348.2c0,3.6-2.9,6.6-6.6,6.6s-6.6-2.9-6.6-6.6"/>
		</g>
	</g>
	<g>
		<g>
			<circle fill="#E6FCFC" cx="178.8" cy="342.5" r="10.8"/>
			<g>
				<path d="M188.1,342.5c-0.6,11.9-18.6,12-18.6,0C169.5,330.4,187.5,330.6,188.1,342.5c0.1,1.9,3.1,1.9,3,0
					c-0.4-6.7-5.3-12.3-12.3-12.3c-6.7,0-12.3,5.6-12.3,12.3c0,6.5,5.2,12,11.7,12.3c7.2,0.3,12.5-5.4,12.9-12.3
					C191.2,340.5,188.2,340.5,188.1,342.5z"/>
			</g>
		</g>
		<g>
			<path fill="#4EDADD" d="M185.1,342.2c0,3.6-2.9,6.6-6.6,6.6s-6.6-2.9-6.6-6.6"/>
		</g>
	</g>
	<g>
		<g>
			<path fill="#FFFFFF" d="M163.5,351.8c0.3,0,0.5,0.1,0.8,0.1c9,1.2,25.2-1.2,27.3-12.9c2-11.7-10.5-19.6-19.5-22.4L163.5,351.8z"
				/>
			<g>
				<path d="M162.8,354.2c10.4,1.6,26-0.5,30.3-11.8c5.4-13.9-9-24.4-20.4-28.2c-1.3-0.4-2.8,0.5-3.1,1.7
					c-2.9,11.7-5.7,23.5-8.6,35.2c-0.8,3.1,4.1,4.5,4.8,1.3c2.9-11.7,5.7-23.5,8.6-35.2c-1,0.6-2.1,1.2-3.1,1.7
					c8.5,2.8,22.2,11.3,16.8,22.2c-3.9,8-16.3,9.3-24.1,8.1C161,349,159.6,353.8,162.8,354.2z"/>
			</g>
		</g>
		<g>
			<path fill="#4EDADD" d="M111.1,301.9c0,0,48.4,8.7,52,8.7c3.5-0.1,9,7.5,9,7.5l0-0.1l-9,36.1c0,0-4.2,6-11.3,2.3
				s-51.6-16.7-51.6-16.7"/>
			<g>
				<path d="M110.5,304.3c10.2,1.8,20.5,3.7,30.8,5.4c5.8,1,11.7,2,17.6,2.9c1.3,0.2,3,0.1,4.3,0.5c2.8,0.8,5.2,4,6.9,6.3
					c1.3,1.8,3.8,1.5,4.6-0.6c0,0,0-0.1,0-0.1c-1.6-0.4-3.2-0.9-4.8-1.3c-2.9,11.8-5.1,24.1-8.9,35.6c-0.1,0.3-0.3,0.8,0.1,0.1
					c0.5-0.8-0.6,0.5-0.9,0.7c-2.8,1.6-4.5,1.4-7.6,0.1c-2.7-1.1-5.3-2.2-8-3.1c-8.6-3-17.2-5.6-25.9-8.3
					c-5.9-1.8-11.7-3.5-17.6-5.2c-3.1-0.9-4.4,3.9-1.3,4.8c14.8,4.3,29.7,8.6,44.3,13.8c6.7,2.4,14.5,7.4,20.4,0.7
					c1.2-1.4,1.5-2.8,1.9-4.6c0.9-3.7,1.8-7.3,2.7-11c1.9-7.5,3.7-14.9,5.6-22.4c0.8-3.2-3.8-4.3-4.8-1.3c0,0,0,0.1,0,0.1
					c1.5-0.2,3-0.4,4.6-0.6c-3.2-4.3-6.7-8.2-12.1-8.8c-5.6-0.6-11.1-1.7-16.6-2.6c-11.3-1.9-22.5-3.9-33.7-5.9
					C108.6,299,107.3,303.8,110.5,304.3L110.5,304.3z"/>
			</g>
		</g>
	</g>
	<g>
		<g>
			<circle fill="#E6FCFC" cx="208.8" cy="336.5" r="10.8"/>
			<g>
				<path d="M218.1,336.5c-0.6,11.9-18.6,12-18.6,0C199.5,324.4,217.5,324.6,218.1,336.5c0.1,1.9,3.1,1.9,3,0
					c-0.4-6.7-5.3-12.3-12.3-12.3c-6.7,0-12.3,5.6-12.3,12.3c0,6.5,5.2,12,11.7,12.3c7.2,0.3,12.5-5.4,12.9-12.3
					C221.2,334.5,218.2,334.5,218.1,336.5z"/>
			</g>
		</g>
		<g>
			<path fill="#4EDADD" d="M215.1,336.2c0,3.6-2.9,6.6-6.6,6.6s-6.6-2.9-6.6-6.6"/>
		</g>
	</g>
	<g>
		<g>
			<circle fill="#E6FCFC" cx="238.8" cy="328.5" r="10.8"/>
			<g>
				<path d="M248.1,328.5c-0.6,11.9-18.6,12-18.6,0C229.5,316.4,247.5,316.6,248.1,328.5c0.1,1.9,3.1,1.9,3,0
					c-0.4-6.7-5.3-12.3-12.3-12.3c-6.7,0-12.3,5.6-12.3,12.3c0,6.5,5.2,12,11.7,12.3c7.2,0.3,12.5-5.4,12.9-12.3
					C251.2,326.5,248.2,326.5,248.1,328.5z"/>
			</g>
		</g>
		<g>
			<path fill="#4EDADD" d="M245.1,328.2c0,3.6-2.9,6.6-6.6,6.6s-6.6-2.9-6.6-6.6"/>
		</g>
	</g>
	<g>
		<g>
			<circle fill="#E6FCFC" cx="354.8" cy="288.5" r="10.8"/>
			<g>
				<path d="M364.1,288.5c-0.6,11.9-18.6,12-18.6,0C345.5,276.4,363.5,276.6,364.1,288.5c0.1,1.9,3.1,1.9,3,0
					c-0.4-6.7-5.3-12.3-12.3-12.3c-6.7,0-12.3,5.6-12.3,12.3c0,6.5,5.2,12,11.7,12.3c7.2,0.3,12.5-5.4,12.9-12.3
					C367.2,286.5,364.2,286.5,364.1,288.5z"/>
			</g>
		</g>
		<g>
			<path fill="#4EDADD" d="M361.1,288.2c0,3.6-2.9,6.6-6.6,6.6c-3.6,0-6.6-2.9-6.6-6.6"/>
		</g>
	</g>
	<g>
		<g>
			<g>
				<path d="M319.7,93.4c9.3-19.3,27.8-35.7,48.9-40c3.2-0.6,1.8-5.5-1.3-4.8c-22.3,4.6-42.1,21.9-51.9,42.3
					C314,93.8,318.3,96.3,319.7,93.4L319.7,93.4z"/>
			</g>
		</g>
		<g>
			<circle fill="#F789A3" cx="365.8" cy="48.9" r="14.4"/>
			<g>
				<path d="M377.7,48.9c-0.3,6.5-5.2,11.9-11.9,11.9c-6.5,0-11.9-5.4-11.9-11.9c0-6.5,5.4-11.9,11.9-11.9
					C372.5,37,377.4,42.4,377.7,48.9c0.2,3.2,5.2,3.2,5,0c-0.4-9.2-7.4-16.9-16.9-16.9c-9.2,0-16.9,7.7-16.9,16.9
					c0,9.2,7.7,16.9,16.9,16.9c9.5,0,16.5-7.7,16.9-16.9C382.8,45.7,377.8,45.7,377.7,48.9z"/>
			</g>
		</g>
	</g>
	<g>
		<g>
			<g>
				<path d="M187.4,90.9c-9.8-20.4-29.6-37.8-51.9-42.3c-3.1-0.6-4.5,4.2-1.3,4.8c21.1,4.3,39.6,20.7,48.9,40
					C184.4,96.3,188.7,93.8,187.4,90.9L187.4,90.9z"/>
			</g>
		</g>
		<g>
			<circle fill="#F789A3" cx="136.9" cy="48.9" r="14.4"/>
			<g>
				<path d="M120,48.9c0.4,9.2,7.4,16.9,16.9,16.9c9.2,0,16.9-7.7,16.9-16.9c0-9.2-7.7-16.9-16.9-16.9C127.4,32,120.4,39.7,120,48.9
					c-0.2,3.2,4.8,3.2,5,0c0.3-6.5,5.2-11.9,11.9-11.9c6.5,0,11.9,5.4,11.9,11.9c0,6.5-5.4,11.9-11.9,11.9
					c-6.7,0-11.6-5.4-11.9-11.9C124.8,45.7,119.8,45.7,120,48.9z"/>
			</g>
		</g>
	</g>
</g>
<g id="Layer_2">
	<g>
		<g id="ENFJ_4_1_">
			<g>
				<polygon fill="#F789A3" points="256.8,135.1 250,102.1 267.3,135.1 				"/>
				<g>
					<path d="M258.2,134.7c-2.3-11-4.5-22-6.8-33c-0.9,0.4-1.8,0.8-2.7,1.2c5.8,11,11.6,22,17.3,33c0.4-0.8,0.9-1.5,1.3-2.3
						c-3.5,0-7,0-10.6,0c-1.9,0-1.9,3,0,3c3.5,0,7,0,10.6,0c1.2,0,1.8-1.3,1.3-2.3c-5.8-11-11.6-22-17.3-33
						c-0.8-1.6-3.1-0.4-2.7,1.2c2.3,11,4.5,22,6.8,33C255.7,137.4,258.6,136.6,258.2,134.7z"/>
				</g>
			</g>
			<g>
				<polygon fill="#FFCCDD" points="250,168.1 256.8,135.1 267.3,135.1 				"/>
				<g>
					<path d="M251.4,168.5c2.3-11,4.5-22,6.8-33c-0.5,0.4-1,0.7-1.4,1.1c3.5,0,7,0,10.6,0c-0.4-0.8-0.9-1.5-1.3-2.3
						c-5.8,11-11.6,22-17.3,33c-0.9,1.7,1.7,3.2,2.6,1.5c5.8-11,11.6-22,17.3-33c0.5-1-0.1-2.3-1.3-2.3c-3.5,0-7,0-10.6,0
						c-0.6,0-1.3,0.5-1.4,1.1c-2.3,11-4.5,22-6.8,33C248.2,169.6,251,170.4,251.4,168.5z"/>
				</g>
			</g>
			<g>
				<polygon fill="#4EDADD" points="232.7,135.1 250,102.1 256.8,135.1 				"/>
				<g>
					<path d="M234,135.8c5.8-11,11.6-22,17.3-33c-0.9-0.1-1.8-0.2-2.7-0.4c2.2,11,4.5,22,6.7,33c0.5-0.6,1-1.3,1.4-1.9
						c-8,0-16,0-24.1,0c-1.9,0-1.9,3,0,3c8,0,16,0,24.1,0c1,0,1.6-1,1.4-1.9c-2.2-11-4.5-22-6.7-33c-0.3-1.3-2.2-1.5-2.7-0.4
						c-5.8,11-11.6,22-17.3,33C230.5,136,233.1,137.6,234,135.8z"/>
				</g>
			</g>
			<g>
				<polygon fill="#92FFFF" points="250,168.1 232.7,135.1 256.8,135.1 				"/>
				<g>
					<path d="M251.3,167.3c-5.8-11-11.6-22-17.3-33c-0.4,0.8-0.9,1.5-1.3,2.3c8,0,16,0,24.1,0c-0.5-0.6-1-1.3-1.4-1.9
						c-2.2,11-4.5,22-6.7,33c-0.4,1.9,2.5,2.7,2.9,0.8c2.2-11,4.5-22,6.7-33c0.2-0.9-0.4-1.9-1.4-1.9c-8,0-16,0-24.1,0
						c-1.2,0-1.8,1.3-1.3,2.3c5.8,11,11.6,22,17.3,33C249.6,170.6,252.2,169,251.3,167.3z"/>
				</g>
			</g>
		</g>
	</g>
</g>
</svg>
