<?xml version="1.0" encoding="utf-8"?>
<!-- Generator: Adobe Illustrator 18.1.1, SVG Export Plug-In . SVG Version: 6.00 Build 0)  -->
<svg version="1.1" xmlns="http://www.w3.org/2000/svg" xmlns:xlink="http://www.w3.org/1999/xlink" x="0px" y="0px"
	 viewBox="0 0 500 500" enable-background="new 0 0 500 500" xml:space="preserve">
<g id="Layer_1">
	<g>
		<path fill="#7F0909" d="M344.9,143.3c0,0,50.8-15.3,84.1-52.9c0,0-34,97.9-60.4,130.5L344.9,143.3z"/>
		<g>
			<path d="M345.6,145.7c31.8-9.6,63.1-28.9,85.2-53.6c-1.4-0.8-2.8-1.6-4.2-2.4c-11.8,34-25.2,67.9-41.7,99.9
				c-5.2,10.2-10.8,20.5-18,29.4c1.4,0.4,2.8,0.7,4.2,1.1c-7.9-25.8-15.8-51.7-23.7-77.5c-0.9-3.1-5.8-1.8-4.8,1.3
				c7.9,25.8,15.8,51.7,23.7,77.5c0.5,1.6,2.9,2.6,4.2,1.1c13.8-17.3,23.2-38.3,32.1-58.3c8.8-19.8,16.8-40,24.3-60.3
				c1.6-4.3,3.2-8.6,4.7-12.9c0.8-2.3-2.5-4.3-4.2-2.4c-21.5,24.1-52,42.9-83,52.3C341.2,141.8,342.5,146.6,345.6,145.7z"/>
		</g>
	</g>
	<g>
		<path fill="#7F0909" d="M164,143.3c0,0-50.8-15.3-84.1-52.9c0,0,34,97.9,60.4,130.5L164,143.3z"/>
		<g>
			<path d="M164.7,140.9c-31-9.4-61.4-28.2-83-52.3c-1.6-1.8-5,0.1-4.2,2.4c12.1,34.8,25.7,69.5,42.7,102.2
				c5.3,10.2,11,20.4,18.3,29.4c1.2,1.5,3.7,0.5,4.2-1.1c7.9-25.8,15.8-51.7,23.7-77.5c0.9-3.1-3.9-4.4-4.8-1.3
				c-7.9,25.8-15.8,51.7-23.7,77.5c1.4-0.4,2.8-0.7,4.2-1.1c-13.6-17-22.8-38.1-31.5-57.9c-8.6-19.4-16.4-39.2-23.8-59.2
				c-1.5-4.1-3-8.2-4.4-12.3c-1.4,0.8-2.8,1.6-4.2,2.4c22.1,24.7,53.4,44,85.2,53.6C166.4,146.6,167.7,141.8,164.7,140.9z"/>
		</g>
	</g>
	<path fill="#FFFFFF" d="M381.1,349.2c-0.2-6-2.6-18-5.4-31.8l-0.1-0.5c-3-14.8-6.6-33.2-6.8-41.2c-0.1-5,0.1-12.2,0.1-19.8v-0.4
		c0-15.6,0.1-37.1-1.4-51.2c-1.2-11.5-5.6-40.7-19.2-62.5c-12.6-20.2-27.9-33.2-47.9-41.4c-18.4-7.4-52.1-8.3-53-8.3
		c-8.6,0-30.7,0.7-49.1,8.1c-20.1,8.1-35.3,21.3-47.9,41.5c-13.6,21.8-17.9,51-19.1,62.5c-1.5,14.1-1.4,35.5-1.2,51.2l0,3.6
		c0,6.3,0,12.3-0.1,16.6c-0.2,8.1-3.9,26.5-6.9,41.3l-0.1,0.6c-2.7,13.8-5.1,25.7-5.4,31.7c-0.6,15.4,3.8,25.7,14.9,35.8
		c7.1,6.4,14,9.5,21.7,9.5c4.1,0,7.8-0.8,11.9-1.8c1.1-0.3,2.3-0.6,3.5-1.1c4,2.2,11.7,5.6,21.7,5.6c6.5,0,14.1-1.4,22.4-5.4
		c4.8,3.9,9.7,7.5,9.7,7.5c12.9,7.3,24,8.8,25.6,8.8h0.4c1.6,0,12.7-0.9,26.1-8.8c0,0,4.3-3.1,8.8-6.7c7.7,3.4,14.7,4.6,20.8,4.6
		c10.9,0,19-3.9,22.7-6.1c1.8,0.7,3.3,1.3,4.9,1.7c4,1,7.7,1.8,11.8,1.8c7.8,0,14.4-2.9,21.6-9.5C377.4,375,381.7,364.6,381.1,349.2
		z"/>
	<path fill="#C8C8C8" d="M285.5,389.9c0,0,8-6.1,16.8-7c8.8-1,23.8,5.5,23.8,5.5s-4.9,10-14.2,9.8
		C302.5,397.9,285.5,389.9,285.5,389.9z"/>
	<path fill="#C8C8C8" d="M169.6,389.9c0,0,8-6.1,16.8-7s23.8,5.5,23.8,5.5s-4.9,10-14.2,9.8S169.6,389.9,169.6,389.9z"/>
	<path d="M384.6,351.4c-0.2-6.1-2.7-18.4-5.5-32.5l-0.1-0.5c-3-15.1-6.3-33.9-6.5-42.1c-0.1-5.1,0.5-12.5,0.5-20.3v-0.4
		c0-16-0.3-37.9-1.8-52.2c-1.2-11.8-5.9-41.6-19.8-63.8c-12.9-20.6-28.6-33.9-49.1-42.2c-18.8-7.6-53.2-8.4-54.2-8.4
		c-8.8,0-31.4,0.7-50.1,8.3c-20.5,8.3-36,21.7-48.9,42.3c-13.9,22.2-18.3,52.1-19.6,63.8c-1.5,14.4-1.4,36.3-1.3,52.3l0,3.7
		c0,6.5,0,12.5-0.1,16.9c-0.2,8.3-4,27-7,42.1L121,319c-2.8,14.1-5.2,26.3-5.5,32.4c-0.6,15.7,3.8,26.3,15.2,36.6
		c7.3,6.6,14.3,9.7,22.1,9.7c4.2,0,8-0.8,12.1-1.9c1.1-0.3,2.3-0.7,3.5-1.1c4.1,2.3,11.9,5.7,22.2,5.7c6.7,0,14.4-1.4,22.9-5.5
		c4.9,4,9.9,7.4,10,7.4c13.2,7.5,24.5,8.7,26.2,8.7h0.4c1.7,0,13-0.7,26.7-8.7c0,0,4.4-3.1,8.9-6.7c7.8,3.5,15,4.8,21.3,4.8
		c11.2,0,19.4-4,23.2-6.2c1.8,0.7,3.4,1.3,5,1.7c4.1,1,7.9,1.9,12.1,1.9c7.9,0,14.7-3,22.1-9.6C380.8,377.7,385.2,367.1,384.6,351.4
		z M177.2,390.9c6.1-2.6,13.6-5.5,20.1-5.5c4.4,0,7.6,1.3,10.4,4.1l0.2,0.2C194.8,395.1,184,393.4,177.2,390.9z M291.7,390.4
		c0.3-0.3,0.6-0.5,0.8-0.8c2.8-2.8,6-4.2,10.4-4.2c6.1,0,13,2.5,18.9,5C315.4,392.9,304.8,395.2,291.7,390.4z M364.5,382.6
		c-6,5.4-11.1,7.8-17.2,7.8c-3.4,0-6.6-0.7-10.4-1.6c-2-0.5-4.5-1.6-7.7-3l-0.5-0.2c-7-3.2-16.7-7.4-25.8-7.4
		c-6.3,0-11.3,2.1-15.6,6.3c-11,11.2-21.9,15.7-29.1,17.5c-0.1,0-7.1,1.9-15.2-0.3c-8.2-2.3-19.2-6.1-30.1-17.2
		c-4.1-4.2-9.2-6.3-15.6-6.3c-9,0-18.6,4.2-25.9,7.4l-0.3,0.1c-3.3,1.4-5.8,2.6-7.9,3.1c-3.8,0.9-7,1.6-10.4,1.6
		c-6,0-11.3-2.4-17.2-7.8c-9.8-8.9-13.3-17.3-12.8-30.9c0.2-5.5,2.6-17.4,5.4-31.2l0.1-0.6c3.2-16.1,6.9-34.4,7.2-43.4
		c0.1-4.5,0.1-10.6,0.1-17.1l0-3.7c-0.1-15.8-0.3-37.5,1.2-51.4c1.2-11.3,5.4-39.8,18.5-60.7c12-19.3,26.5-31.8,45.4-39.5
		c17.6-7.1,39-8.2,47.4-8.2c0.8,0,33.8,0.8,51.4,7.9c19,7.7,33.4,20.4,45.5,39.6c13.1,21,18,49.5,19.2,60.8
		c1.5,14,1.9,35.7,1.9,51.5v0.4c0,7.8-0.8,15.2-0.7,20.4c0.2,8.9,3.6,27.2,6.8,43.4l-0.1,0.5c2.8,13.8,5.1,25.8,5.3,31.3
		C377.9,365.3,374.3,373.7,364.5,382.6z"/>
	<path d="M324.2,191.9c0,10.6-8.6,19.1-19.1,19.1c-10.6,0-19.1-8.6-19.1-19.1c0-0.9,0.1-1.8,0.2-2.6c1.2,0.8,2.6,1.3,4.1,1.3
		c4,0,7.2-3.2,7.2-7.2c0-2.9-1.7-5.4-4.1-6.5c3.2-2.5,7.3-4,11.7-4C315.6,172.8,324.2,181.4,324.2,191.9z"/>
	<path d="M214.1,191.9c0,10.6-8.6,19.1-19.1,19.1c-10.6,0-19.1-8.6-19.1-19.1c0-0.9,0.1-1.8,0.2-2.6c1.2,0.8,2.6,1.3,4.1,1.3
		c4,0,7.2-3.2,7.2-7.2c0-2.9-1.7-5.4-4.1-6.5c3.2-2.5,7.3-4,11.7-4C205.5,172.8,214.1,181.4,214.1,191.9z"/>
	
		<ellipse transform="matrix(0.7169 -0.6971 0.6971 0.7169 -112.2272 180.7014)" fill="#F68694" cx="166.4" cy="228.6" rx="7.4" ry="3.4"/>
	
		<ellipse transform="matrix(0.7169 -0.6971 0.6971 0.7169 -109.0657 190.8302)" fill="#F68694" cx="180.5" cy="229.7" rx="7.4" ry="3.4"/>
	
		<ellipse transform="matrix(0.7169 -0.6971 0.6971 0.7169 -105.0878 200.6274)" fill="#F68694" cx="194.5" cy="229.7" rx="7.4" ry="3.4"/>
	
		<ellipse transform="matrix(-0.7169 -0.6971 0.6971 -0.7169 413.1115 627.1812)" fill="#F68694" cx="333.9" cy="229.7" rx="7.4" ry="3.4"/>
	
		<ellipse transform="matrix(-0.7169 -0.6971 0.6971 -0.7169 388.1657 619.3947)" fill="#F68694" cx="319.8" cy="230.9" rx="7.4" ry="3.4"/>
	
		<ellipse transform="matrix(-0.7169 -0.6971 0.6971 -0.7169 364.0363 609.5975)" fill="#F68694" cx="305.8" cy="230.9" rx="7.4" ry="3.4"/>
	<g>
		<path fill="#7F0909" d="M133.5,225.2c0,0,26.3,24.2,69.2,31.5l-41.3,112.5c-37-5.6-67.3-18.1-85.2-43.7L133.5,225.2z"/>
		<g>
			<path d="M131.7,226.9c18.9,17.3,45.5,27.7,70.3,32.1c-0.6-1-1.2-2.1-1.7-3.1c-12,32.8-24.1,65.5-36.1,98.3
				c-1.7,4.7-3.5,9.5-5.2,14.2c1-0.6,2.1-1.2,3.1-1.7c-31.5-4.8-64.4-15.4-83.7-42.5c0,0.8,0,1.7,0,2.5
				c16.7-29.3,33.4-58.5,50.2-87.8c2.4-4.2,4.8-8.4,7.2-12.6c1.6-2.8-2.7-5.3-4.3-2.5c-16.7,29.3-33.4,58.5-50.2,87.8
				c-2.4,4.2-4.8,8.4-7.2,12.6c-0.4,0.7-0.5,1.8,0,2.5c20.1,28.2,53.7,39.8,86.7,44.8c1.4,0.2,2.6-0.4,3.1-1.7
				c12-32.8,24.1-65.5,36.1-98.3c1.7-4.7,3.5-9.5,5.2-14.2c0.4-1.2-0.5-2.9-1.7-3.1c-24-4.3-49.8-14.2-68.1-30.9
				C132.9,221.2,129.3,224.8,131.7,226.9z"/>
		</g>
	</g>
	<g>
		
			<rect x="85" y="235.4" transform="matrix(0.6841 -0.7294 0.7294 0.6841 -143.3897 163.4585)" fill="#BA4A4A" width="64.1" height="23.8"/>
		<g>
			<path d="M145.9,230.3c-14.6,15.6-29.2,31.2-43.8,46.7c1.2,0,2.4,0,3.5,0c-5.8-5.4-11.6-10.9-17.4-16.3c0,1.2,0,2.4,0,3.5
				c14.6-15.6,29.2-31.2,43.8-46.7c-1.2,0-2.4,0-3.5,0c5.8,5.4,11.6,10.9,17.4,16.3c2.3,2.2,5.9-1.3,3.5-3.5
				c-5.8-5.4-11.6-10.9-17.4-16.3c-1-0.9-2.6-1-3.5,0c-14.6,15.6-29.2,31.2-43.8,46.7c-0.9,1-1,2.6,0,3.5
				c5.8,5.4,11.6,10.9,17.4,16.3c1,0.9,2.6,1,3.5,0c14.6-15.6,29.2-31.2,43.8-46.7C151.6,231.5,148.1,227.9,145.9,230.3z"/>
		</g>
	</g>
	<g>
		<path fill="#7F0909" d="M365.3,225.2c0,0-26.3,24.2-69.2,31.5l41.3,112.5c0,0,123.9-14.5,128.3-61.8L365.3,225.2z"/>
		<g>
			<path d="M363.5,223.4c-18.3,16.7-44.1,26.6-68.1,30.9c-1.3,0.2-2.2,1.9-1.7,3.1c12,32.8,24.1,65.5,36.1,98.3
				c1.7,4.7,3.5,9.5,5.2,14.2c0.3,0.9,1.3,2,2.4,1.8c14.5-1.7,28.9-4.5,43.1-7.9c23.7-5.6,49.2-12.9,69-27.8
				c7.8-5.9,15-13.5,17.7-23.1c0.7-2.6,1.7-5.6-0.2-7.7c-1.4-1.6-3.5-2.9-5.1-4.2c-17.2-14.1-34.3-28.1-51.5-42.2
				c-14.4-11.8-28.9-23.6-43.3-35.4c-2.5-2-6,1.5-3.5,3.5c29.1,23.8,58.3,47.7,87.4,71.5c4.1,3.3,9.2,6.5,12.8,10.4
				c0.1,0.1,0.2,0.1,0.3,0.2c-1.3-1.8-0.9-0.1-1.2,1.1c-0.5,2.3-1.3,4.6-2.4,6.7c-2.2,4.2-5.3,7.8-8.7,11
				c-17.4,16-42.7,23.5-65,29.3c-16,4.1-32.9,7.6-49.1,9.5c0.8,0.6,1.6,1.2,2.4,1.8c-12-32.8-24.1-65.5-36.1-98.3
				c-1.7-4.7-3.5-9.5-5.2-14.2c-0.6,1-1.2,2.1-1.7,3.1c24.8-4.4,51.4-14.9,70.3-32.1C369.4,224.8,365.9,221.2,363.5,223.4z"/>
		</g>
	</g>
	<g>
		
			<rect x="349.7" y="234.4" transform="matrix(-0.6841 -0.7294 0.7294 -0.6841 463.2598 693.175)" fill="#BA4A4A" width="64.1" height="23.8"/>
		<g>
			<path d="M349.4,232.8c14.6,15.6,29.2,31.2,43.8,46.7c0.9,1,2.6,0.9,3.5,0c5.8-5.4,11.6-10.9,17.4-16.3c1-0.9,0.9-2.6,0-3.5
				c-14.6-15.6-29.2-31.2-43.8-46.7c-0.9-1-2.6-0.9-3.5,0c-5.8,5.4-11.6,10.9-17.4,16.3c-2.4,2.2,1.2,5.7,3.5,3.5
				c5.8-5.4,11.6-10.9,17.4-16.3c-1.2,0-2.4,0-3.5,0c14.6,15.6,29.2,31.2,43.8,46.7c0-1.2,0-2.4,0-3.5c-5.8,5.4-11.6,10.9-17.4,16.3
				c1.2,0,2.4,0,3.5,0c-14.6-15.6-29.2-31.2-43.8-46.7C350.7,226.9,347.2,230.5,349.4,232.8z"/>
		</g>
	</g>
	<g>
		<g>
			<path d="M248.5,224.6c9.8,4.8,18.5,2.5,24.7-6.5c1.8-2.7-2.5-5.2-4.3-2.5c-4.6,6.7-10.6,8.3-17.8,4.7
				C248.1,218.8,245.6,223.1,248.5,224.6L248.5,224.6z"/>
		</g>
	</g>
	<g>
		<g>
			<path d="M215.7,262.5c22.1,10.5,45.2,10.7,67.1,0c2.9-1.4,0.4-5.7-2.5-4.3c-20.2,9.9-41.8,9.6-62.1,0
				C215.4,256.8,212.8,261.2,215.7,262.5L215.7,262.5z"/>
		</g>
	</g>
	<g>
		<g>
			<path d="M159,177.5c10.7,0.4,21.4,0.6,32.2,0.7c7.2,0.1,14.4,0.1,21.6-0.3c3.3-0.2,9.2,0.3,11.8-2.5c3.1-3.3-1.9-8.3-4.9-4.9
				c0.6-0.7,0.9-0.2-0.3-0.2c-0.6,0-1.3,0.2-1.9,0.3c-2.6,0.3-5.2,0.4-7.7,0.4c-7.1,0.2-14.3,0.2-21.4,0.1
				c-9.7-0.1-19.4-0.3-29.1-0.7C154.5,170.3,154.5,177.3,159,177.5L159,177.5z"/>
		</g>
	</g>
	<g>
		<g>
			<path d="M340,170.5c-9.7,0.4-19.4,0.6-29.1,0.7c-7,0.1-14,0.1-21-0.1c-2.6-0.1-5.3-0.2-7.9-0.4c-0.7-0.1-1.5-0.3-2.2-0.3
				c-1.1,0-0.9-0.5-0.3,0.2c-3.1-3.3-8,1.6-4.9,4.9c2.5,2.7,8.4,2.3,11.8,2.5c7.2,0.4,14.4,0.3,21.6,0.3c10.7-0.1,21.4-0.3,32.2-0.7
				C344.5,177.3,344.5,170.3,340,170.5L340,170.5z"/>
		</g>
	</g>
	<g>
		<g>
			<circle fill="#CFB6FF" cx="202.7" cy="261.1" r="14.4"/>
			<g>
				<path d="M214.6,261.1c-0.3,6.5-5.2,11.9-11.9,11.9c-6.5,0-11.9-5.4-11.9-11.9c0-6.5,5.4-11.9,11.9-11.9
					C209.4,249.2,214.3,254.6,214.6,261.1c0.2,3.2,5.2,3.2,5,0c-0.4-9.2-7.4-16.9-16.9-16.9c-9.2,0-16.9,7.7-16.9,16.9
					c0,9.2,7.7,16.9,16.9,16.9c9.5,0,16.5-7.7,16.9-16.9C219.7,257.9,214.7,257.9,214.6,261.1z"/>
			</g>
		</g>
		<circle fill="#FCEEFF" cx="200.6" cy="256.4" r="4.7"/>
	</g>
	<g>
		<g>
			<circle fill="#CFB6FF" cx="296.3" cy="261.1" r="14.4"/>
			<g>
				<path d="M279.4,261.1c0.4,9.2,7.4,16.9,16.9,16.9c9.2,0,16.9-7.7,16.9-16.9c0-9.2-7.7-16.9-16.9-16.9
					C286.8,244.2,279.9,251.9,279.4,261.1c-0.2,3.2,4.8,3.2,5,0c0.3-6.5,5.2-11.9,11.9-11.9c6.5,0,11.9,5.4,11.9,11.9
					c0,6.5-5.4,11.9-11.9,11.9c-6.7,0-11.6-5.4-11.9-11.9C284.3,257.9,279.3,257.9,279.4,261.1z"/>
			</g>
		</g>
		<circle fill="#FCEEFF" cx="293.9" cy="256.4" r="4.7"/>
	</g>
</g>
<g id="Layer_2">
	<g>
		<g id="ENFJ_4_1_">
			<g>
				<polygon fill="#CFB6FF" points="256.8,135.1 250,102.1 267.3,135.1 				"/>
				<g>
					<path d="M258.2,134.7c-2.3-11-4.5-22-6.8-33c-0.9,0.4-1.8,0.8-2.7,1.2c5.8,11,11.6,22,17.3,33c0.4-0.8,0.9-1.5,1.3-2.3
						c-3.5,0-7,0-10.6,0c-1.9,0-1.9,3,0,3c3.5,0,7,0,10.6,0c1.2,0,1.8-1.3,1.3-2.3c-5.8-11-11.6-22-17.3-33
						c-0.8-1.6-3.1-0.4-2.7,1.2c2.3,11,4.5,22,6.8,33C255.7,137.4,258.6,136.6,258.2,134.7z"/>
				</g>
			</g>
			<g>
				<polygon fill="#EFE9FF" points="250,168.1 256.8,135.1 267.3,135.1 				"/>
				<g>
					<path d="M251.4,168.5c2.3-11,4.5-22,6.8-33c-0.5,0.4-1,0.7-1.4,1.1c3.5,0,7,0,10.6,0c-0.4-0.8-0.9-1.5-1.3-2.3
						c-5.8,11-11.6,22-17.3,33c-0.9,1.7,1.7,3.2,2.6,1.5c5.8-11,11.6-22,17.3-33c0.5-1-0.1-2.3-1.3-2.3c-3.5,0-7,0-10.6,0
						c-0.6,0-1.3,0.5-1.4,1.1c-2.3,11-4.5,22-6.8,33C248.2,169.6,251,170.4,251.4,168.5z"/>
				</g>
			</g>
			<g>
				<polygon fill="#7F0909" points="232.7,135.1 250,102.1 256.8,135.1 				"/>
				<g>
					<path d="M234,135.8c5.8-11,11.6-22,17.3-33c-0.9-0.1-1.8-0.2-2.7-0.4c2.2,11,4.5,22,6.7,33c0.5-0.6,1-1.3,1.4-1.9
						c-8,0-16,0-24.1,0c-1.9,0-1.9,3,0,3c8,0,16,0,24.1,0c1,0,1.6-1,1.4-1.9c-2.2-11-4.5-22-6.7-33c-0.3-1.3-2.2-1.5-2.7-0.4
						c-5.8,11-11.6,22-17.3,33C230.5,136,233.1,137.6,234,135.8z"/>
				</g>
			</g>
			<g>
				<polygon fill="#BC0808" points="250,168.1 232.7,135.1 256.8,135.1 				"/>
				<g>
					<path d="M251.3,167.3c-5.8-11-11.6-22-17.3-33c-0.4,0.8-0.9,1.5-1.3,2.3c8,0,16,0,24.1,0c-0.5-0.6-1-1.3-1.4-1.9
						c-2.2,11-4.5,22-6.7,33c-0.4,1.9,2.5,2.7,2.9,0.8c2.2-11,4.5-22,6.7-33c0.2-0.9-0.4-1.9-1.4-1.9c-8,0-16,0-24.1,0
						c-1.2,0-1.8,1.3-1.3,2.3c5.8,11,11.6,22,17.3,33C249.6,170.6,252.2,169,251.3,167.3z"/>
				</g>
			</g>
		</g>
	</g>
</g>
</svg>
