<?xml version="1.0" encoding="utf-8"?>
<!-- Generator: Adobe Illustrator 18.1.1, SVG Export Plug-In . SVG Version: 6.00 Build 0)  -->
<svg version="1.1" xmlns="http://www.w3.org/2000/svg" xmlns:xlink="http://www.w3.org/1999/xlink" x="0px" y="0px"
	 viewBox="0 0 500 500" enable-background="new 0 0 500 500" xml:space="preserve">
<g id="Layer_1">
	<g>
		<path fill="#074A4F" d="M129.8,221.7c-10-13-12.2-43.5-12.2-43.5l-7.6,10.7c0,0-7-31.3-6.3-56.2c0.7-24.8,11.8-39.5,11.8-39.5
			l-22.3,4c0,0,5.8-2.5,29.3-29.5s65.7-27.2,65.7-27.2c-8.7-4.2-17.5-16-17.5-16s7.3,4.5,45.2,4.7c37.8,0.2,51.3,14.5,51.3,14.5
			S318.5,20,364.5,72H350c0,0,45,27.8,42.7,112.1l-10-15.1c0,0,1,21.6-13.2,41.1"/>
		<g>
			<path d="M132,220.4c-8.5-11.5-10.8-28.3-11.9-42.2c-0.2-2.5-3.2-3.3-4.7-1.3c-2.5,3.6-5.1,7.1-7.6,10.7c1.5,0.2,3,0.4,4.6,0.6
				c-3.5-15.9-5.9-32.3-6.2-48.5c-0.4-15.2,2.1-32.7,11.5-45.2c1.5-1.9-0.9-4-2.8-3.7c-7.4,1.3-14.9,2.7-22.3,4
				c0.6,1.5,1.3,3,1.9,4.6c3.2-1.4,6.1-4.7,8.5-7c10.6-10.1,19.2-23,30.9-31.8c15-11.3,35.5-17.4,54.3-17.5c2.4,0,3.5-3.5,1.3-4.7
				c-6.6-3.4-12.2-9.3-16.6-15.1c-1.1,1.1-2.3,2.3-3.4,3.4c2.6,1.5,6.1,2,9,2.5c11.7,2.1,23.7,2.3,35.5,2.5
				c13.6,0.1,27.5,1.3,40.1,6.7c3.9,1.7,8.4,3.8,11.4,6.9c0.8,0.9,2,0.9,3,0.4c8-3.7,20-5.4,29.7-5.1c25.7,0.6,47.9,14.2,64.7,33
				c0.6-1.4,1.2-2.8,1.8-4.3c-4.8,0-9.7,0-14.5,0c-2.5,0-3.3,3.4-1.3,4.7c5.4,3.3,10.2,8.7,14.3,13.7c11.5,14.1,18.7,31.3,22.8,48.9
				c3.6,15.6,4.7,31.6,4.4,47.5c1.6-0.4,3.1-0.8,4.7-1.3c-3.3-5-6.7-10-10-15c-1.3-1.9-4.8-1.4-4.7,1.3c0.6,14-4.9,28.6-12.8,39.9
				c-1.9,2.6,2.5,5.1,4.3,2.5c8.4-12,14.1-27.6,13.5-42.4c-1.6,0.4-3.1,0.8-4.7,1.3c3.3,5,6.7,10,10,15c1.4,2,4.6,1.3,4.7-1.3
				c0.9-38.5-7.7-82.7-37.7-109.6c-1.9-1.7-4-3.5-6.2-4.8c-0.4,1.6-0.8,3.1-1.3,4.7c4.8,0,9.7,0,14.5,0c2.3,0,3.2-2.7,1.8-4.3
				c-17.4-19.5-40.6-33.5-67.2-34.4c-11-0.4-23.1,1.1-33.2,5.8c1,0.1,2,0.3,3,0.4c-2.9-3-7-5.2-10.8-7c-11-5.1-23.1-7.2-35.1-7.9
				c-14-0.8-28-0.1-41.8-2.3c-2.6-0.4-5.2-0.9-7.7-1.7c-1.1-0.3-1.1-0.3-1.6-0.6c-2-1.2-5,1.3-3.4,3.4c5,6.6,11,13.1,18.4,16.9
				c0.4-1.6,0.8-3.1,1.3-4.7c-13.1,0.1-26.6,3.2-38.7,8.1c-10,4.1-19.4,9.8-26.9,17.7c-7.9,8.3-15.1,17.3-23.5,25.2
				c-2.1,2-4.5,4.8-7.2,6c-2.8,1.2-0.7,5,1.9,4.6c7.4-1.3,14.9-2.7,22.3-4c-0.9-1.2-1.9-2.4-2.8-3.7c-9.6,12.8-12.4,30.7-12.2,46.2
				c0.2,17.2,2.7,34.6,6.5,51.4c0.5,2.3,3.4,2.2,4.6,0.6c2.5-3.6,5.1-7.1,7.6-10.7c-1.6-0.4-3.1-0.8-4.7-1.3
				c1.1,14.8,3.6,32.6,12.6,44.8C129.6,225.5,133.9,223,132,220.4L132,220.4z"/>
		</g>
	</g>
	<g>
		<path fill="#FFFFFF" d="M146.5,296.9L146.5,296.9c-5.9,10.5-19.4,14.2-30.2,8.2l-79.2-44.3c-10.8-6-23.7-21.4-16.5-34.3
			c7.2-12.9,27.1-9.9,37.8-3.9l79.2,44.3C148.5,272.9,152.4,286.3,146.5,296.9z"/>
		<g>
			<path d="M144.4,295.6c-6.4,11.3-19.3,11.4-29.4,5.8c-7.4-4.1-14.7-8.3-22.1-12.4c-17.4-9.8-34.9-19.5-52.3-29.3
				c-9.5-5.3-21.8-15.9-19.2-28.2c3.4-16.2,25.5-12.5,36-6.7c15.4,8.4,30.6,17.1,45.9,25.7c9.4,5.2,18.7,10.5,28.1,15.7
				c1.7,0.9,3.4,1.8,5,2.8C145.7,274.6,149.4,285.8,144.4,295.6c-1.5,2.9,2.8,5.4,4.3,2.5c6.6-12.8,1.5-27-10.7-34
				c-7.6-4.3-15.3-8.6-23-12.9c-18.3-10.2-36.4-20.7-54.8-30.7c-10.6-5.8-26.3-9.1-36.8-1.2c-15.8,12.1-3.2,32.7,9.2,41.4
				c5.5,3.9,11.8,6.9,17.7,10.2c11.1,6.2,22.1,12.4,33.2,18.6c9.8,5.5,19.6,11,29.4,16.5c12.3,6.9,28.2,5.4,35.6-7.9
				C150.2,295.3,145.9,292.8,144.4,295.6z"/>
		</g>
	</g>
	<g>
		<path fill="#4EDADD" d="M132.2,254.6c0,0-35.4-25.6-41.4-21.1s-10.8,35-11.5,44.8c-0.7,9.8-7.8,41.5-5,43.7
			c2.8,2.2,45.2,9.7,45.2,9.7"/>
		<g>
			<path d="M133.5,252.4c-9.6-6.9-19.7-13.8-30.4-18.8c-3.8-1.8-9.7-4.8-13.7-2.1c-5.1,3.5-6.7,13.3-8,18.7
				c-3.7,15.6-4.8,31.7-7.5,47.4c-1.2,7.1-3.3,15-2.7,22.3c0.4,4.5,3.7,5.1,7.5,6.1c13.2,3.4,26.7,5.6,40.1,8
				c3.1,0.6,4.5-4.3,1.3-4.8c-10.3-1.8-20.7-3.8-30.9-5.9c-2.8-0.6-5.6-1.2-8.4-1.9c-1.4-0.4-3.9-0.6-5-1.5c1.1,0.9,0.3,0.2,0.4-1.1
				c0.1-1.3,0.1-2.5,0.2-3.8c0.4-4,1-7.9,1.6-11.9c2.2-13.5,3.6-27.2,5.9-40.7c1.4-7.8,2.8-16.1,6.1-23.3c0.7-1.6,1.4-3.3,3.1-3.6
				c2.2-0.4,5.5,1.6,7.4,2.4c10.8,5,20.8,11.9,30.4,18.8C133.5,258.6,136,254.3,133.5,252.4L133.5,252.4z"/>
		</g>
	</g>
	<g>
		<path fill="#175654" d="M77.4,231.6c-18.7-10.5-48.5-23.8-58.3-6.2s17.1,36,35.8,46.5L77.4,231.6z"/>
		<g>
			<path d="M78.7,229.5c-14.8-8.2-47.5-26.4-60.9-6.8C2.9,244.6,38.6,265.5,53.6,274c1.2,0.7,2.8,0.3,3.4-0.9
				c7.5-13.4,15-26.8,22.5-40.3c1.6-2.8-2.7-5.3-4.3-2.5c-7.5,13.4-15,26.8-22.5,40.3c1.1-0.3,2.3-0.6,3.4-0.9
				c-12-6.8-47.5-26.5-33.9-44.7c5.8-7.8,17-6.1,25.2-3.9c10.1,2.8,19.6,7.5,28.7,12.6C79,235.3,81.5,231,78.7,229.5z"/>
		</g>
	</g>
	<path fill="#FFFFFF" d="M381.1,349.2c-0.2-6-2.6-18-5.4-31.8l-0.1-0.5c-3-14.8-6.6-33.2-6.8-41.2c-0.1-5,0.1-12.2,0.1-19.8v-0.4
		c0-15.6,0.1-37.1-1.4-51.2c-1.2-11.5-5.6-40.7-19.2-62.5c-12.6-20.2-27.9-33.2-47.9-41.4c-18.4-7.4-52.1-8.3-53-8.3
		c-8.6,0-30.7,0.7-49.1,8.1c-20.1,8.1-35.3,21.3-47.9,41.5c-13.6,21.8-17.9,51-19.1,62.5c-1.5,14.1-1.4,35.5-1.2,51.2l0,3.6
		c0,6.3,0,12.3-0.1,16.6c-0.2,8.1-3.9,26.5-6.9,41.3l-0.1,0.6c-2.7,13.8-5.1,25.7-5.4,31.7c-0.6,15.4,3.8,25.7,14.9,35.8
		c7.1,6.4,14,9.5,21.7,9.5c4.1,0,7.8-0.8,11.9-1.8c1.1-0.3,2.3-0.6,3.5-1.1c4,2.2,11.7,5.6,21.7,5.6c6.5,0,14.1-1.4,22.4-5.4
		c4.8,3.9,9.7,7.5,9.7,7.5c12.9,7.3,24,8.8,25.6,8.8h0.4c1.6,0,12.7-0.9,26.1-8.8c0,0,4.3-3.1,8.8-6.7c7.7,3.4,14.7,4.6,20.8,4.6
		c10.9,0,19-3.9,22.7-6.1c1.8,0.7,3.3,1.3,4.9,1.7c4,1,7.7,1.8,11.8,1.8c7.8,0,14.4-2.9,21.6-9.5C377.4,375,381.7,364.6,381.1,349.2
		z"/>
	<g>
		<g>
			<path d="M285.8,179.6c14.7-13.9,32.7-19.6,52.5-14.3c3.1,0.8,4.4-4,1.3-4.8c-21.5-5.8-41.4,0.4-57.4,15.6
				C280,178.3,283.5,181.8,285.8,179.6L285.8,179.6z"/>
		</g>
	</g>
	<g>
		<g>
			<path d="M176.4,169.8c19.2-6.3,38-3.9,53.6,9.4c2.4,2.1,6-1.4,3.5-3.5c-17-14.4-37.5-17.6-58.5-10.7
				C172,166,173.3,170.8,176.4,169.8L176.4,169.8z"/>
		</g>
	</g>
	<path fill="#C8C8C8" d="M285.5,389.9c0,0,8-6.1,16.8-7c8.8-1,23.8,5.5,23.8,5.5s-4.9,10-14.2,9.8
		C302.5,397.9,285.5,389.9,285.5,389.9z"/>
	<path fill="#C8C8C8" d="M169.6,389.9c0,0,8-6.1,16.8-7s23.8,5.5,23.8,5.5s-4.9,10-14.2,9.8S169.6,389.9,169.6,389.9z"/>
	<path d="M384.6,351.4c-0.2-6.1-2.7-18.4-5.5-32.5l-0.1-0.5c-3-15.1-6.3-33.9-6.5-42.1c-0.1-5.1,0.5-12.5,0.5-20.3v-0.4
		c0-16-0.3-37.9-1.8-52.2c-1.2-11.8-5.9-41.6-19.8-63.8c-12.9-20.6-28.6-33.9-49.1-42.2c-18.8-7.6-53.2-8.4-54.2-8.4
		c-8.8,0-31.4,0.7-50.1,8.3c-20.5,8.3-36,21.7-48.9,42.3c-13.9,22.2-18.3,52.1-19.6,63.8c-1.5,14.4-1.4,36.3-1.3,52.3l0,3.7
		c0,6.5,0,12.5-0.1,16.9c-0.2,8.3-4,27-7,42.1L121,319c-2.8,14.1-5.2,26.3-5.5,32.4c-0.6,15.7,3.8,26.3,15.2,36.6
		c7.3,6.6,14.3,9.7,22.1,9.7c4.2,0,8-0.8,12.1-1.9c1.1-0.3,2.3-0.7,3.5-1.1c4.1,2.3,11.9,5.7,22.2,5.7c6.7,0,14.4-1.4,22.9-5.5
		c4.9,4,9.9,7.4,10,7.4c13.2,7.5,24.5,8.7,26.2,8.7h0.4c1.7,0,13-0.7,26.7-8.7c0,0,4.4-3.1,8.9-6.7c7.8,3.5,15,4.8,21.3,4.8
		c11.2,0,19.4-4,23.2-6.2c1.8,0.7,3.4,1.3,5,1.7c4.1,1,7.9,1.9,12.1,1.9c7.9,0,14.7-3,22.1-9.6C380.8,377.7,385.2,367.1,384.6,351.4
		z M177.2,390.9c6.1-2.6,13.6-5.5,20.1-5.5c4.4,0,7.6,1.3,10.4,4.1l0.2,0.2C194.8,395.1,184,393.4,177.2,390.9z M291.7,390.4
		c0.3-0.3,0.6-0.5,0.8-0.8c2.8-2.8,6-4.2,10.4-4.2c6.1,0,13,2.5,18.9,5C315.4,392.9,304.8,395.2,291.7,390.4z M364.5,382.6
		c-6,5.4-11.1,7.8-17.2,7.8c-3.4,0-6.6-0.7-10.4-1.6c-2-0.5-4.5-1.6-7.7-3l-0.5-0.2c-7-3.2-16.7-7.4-25.8-7.4
		c-6.3,0-11.3,2.1-15.6,6.3c-11,11.2-21.9,15.7-29.1,17.5c-0.1,0-7.1,1.9-15.2-0.3c-8.2-2.3-19.2-6.1-30.1-17.2
		c-4.1-4.2-9.2-6.3-15.6-6.3c-9,0-18.6,4.2-25.9,7.4l-0.3,0.1c-3.3,1.4-5.8,2.6-7.9,3.1c-3.8,0.9-7,1.6-10.4,1.6
		c-6,0-11.3-2.4-17.2-7.8c-9.8-8.9-13.3-17.3-12.8-30.9c0.2-5.5,2.6-17.4,5.4-31.2l0.1-0.6c3.2-16.1,6.9-34.4,7.2-43.4
		c0.1-4.5,0.1-10.6,0.1-17.1l0-3.7c-0.1-15.8-0.3-37.5,1.2-51.4c1.2-11.3,5.4-39.8,18.5-60.7c12-19.3,26.5-31.8,45.4-39.5
		c17.6-7.1,39-8.2,47.4-8.2c0.8,0,33.8,0.8,51.4,7.9c19,7.7,33.4,20.4,45.5,39.6c13.1,21,18,49.5,19.2,60.8
		c1.5,14,1.9,35.7,1.9,51.5v0.4c0,7.8-0.8,15.2-0.7,20.4c0.2,8.9,3.6,27.2,6.8,43.4l-0.1,0.5c2.8,13.8,5.1,25.8,5.3,31.3
		C377.9,365.3,374.3,373.7,364.5,382.6z"/>
	<path d="M324.2,191.9c0,10.6-8.6,19.1-19.1,19.1c-10.6,0-19.1-8.6-19.1-19.1c0-0.9,0.1-1.8,0.2-2.6c1.2,0.8,2.6,1.3,4.1,1.3
		c4,0,7.2-3.2,7.2-7.2c0-2.9-1.7-5.4-4.1-6.5c3.2-2.5,7.3-4,11.7-4C315.6,172.8,324.2,181.4,324.2,191.9z"/>
	<path d="M214.1,191.9c0,10.6-8.6,19.1-19.1,19.1c-10.6,0-19.1-8.6-19.1-19.1c0-0.9,0.1-1.8,0.2-2.6c1.2,0.8,2.6,1.3,4.1,1.3
		c4,0,7.2-3.2,7.2-7.2c0-2.9-1.7-5.4-4.1-6.5c3.2-2.5,7.3-4,11.7-4C205.5,172.8,214.1,181.4,214.1,191.9z"/>
	
		<ellipse transform="matrix(0.7169 -0.6971 0.6971 0.7169 -112.2272 180.7014)" fill="#F68694" cx="166.4" cy="228.6" rx="7.4" ry="3.4"/>
	
		<ellipse transform="matrix(0.7169 -0.6971 0.6971 0.7169 -109.0657 190.8302)" fill="#F68694" cx="180.5" cy="229.7" rx="7.4" ry="3.4"/>
	
		<ellipse transform="matrix(0.7169 -0.6971 0.6971 0.7169 -105.0878 200.6274)" fill="#F68694" cx="194.5" cy="229.7" rx="7.4" ry="3.4"/>
	
		<ellipse transform="matrix(-0.7169 -0.6971 0.6971 -0.7169 413.1115 627.1812)" fill="#F68694" cx="333.9" cy="229.7" rx="7.4" ry="3.4"/>
	<g>
		<path fill="#074A4F" d="M365.5,171c-0.2,27.3-9.6,38.2-9.6,38.2c-2.7-12.8-11.9-29.7-11.9-29.7v17.7c-10-11-19.6-39.7-19.6-39.7
			l-1.3,15.3c0,0-5.9-10-7.1-27.3s8-45.5,2.5-47.7c-5.5-2.2-8.5,3.8-8.5,3.8l-16.2-6.2c0,0-15.2-36.9-26,5.1S236,172.8,236,172.8
			s-3.7,3.6-0.7,20.4c0,0-17.2-16.3-20.6-59.3c0,0-1.2,39,5.3,59.3c0,0-29.5-26.8-38.5-59.3c0,0-17.2,21.8-13.5,49
			c0,0-10.4-7.8-10-32.8c0,0-19.2,20-14.2,51c0,0-14-4.3-16.7-32.5c0,0-1-122.3,111-118.8S365.5,171,365.5,171z"/>
	</g>
	
		<ellipse transform="matrix(-0.7169 -0.6971 0.6971 -0.7169 388.1657 619.3947)" fill="#F68694" cx="319.8" cy="230.9" rx="7.4" ry="3.4"/>
	
		<ellipse transform="matrix(-0.7169 -0.6971 0.6971 -0.7169 364.0363 609.5975)" fill="#F68694" cx="305.8" cy="230.9" rx="7.4" ry="3.4"/>
	<g>
		<g>
			<path d="M231.3,228.9c8.1-0.2,16.2-1,24.1-2.4c5.6-1,14.7-2.2,17.3-8.2c1.2-3-3.6-4.3-4.8-1.3c-0.8,1.8-5,2.7-6.5,3.1
				c-3.5,1-7.1,1.6-10.6,2.2c-6.4,0.9-12.9,1.5-19.4,1.6C228,224,228,229,231.3,228.9L231.3,228.9z"/>
		</g>
	</g>
	<g>
		<path fill="#4EDADD" d="M381.2,373.2c-10.5,5.8-71.1,17.9-101.9,15.1S224,356.8,191.3,368s-68.8,10.5-77.1,1.5s2.8-29.2,8.3-57.5
			c5.1-26.2,7.2-58,7.2-58c69.7,52.2,154,50.2,239.3,1.5c0,0-1.3,22.9,2.7,40.7C375.7,314,391.7,367.4,381.2,373.2z"/>
		<g>
			<path d="M379.9,371.1c-6.9,3.7-15.5,5.1-23.1,6.7c-12.7,2.8-25.5,5-38.4,6.5c-12.1,1.4-24.4,2.5-36.5,1.7
				c-14.1-0.9-26.8-7.2-39.5-13c-12-5.5-24.7-10.8-38.2-10.1c-7.5,0.4-14.3,3-21.4,5.1c-8.5,2.4-17.1,4.1-25.9,5
				c-11.7,1.2-28.1,2.8-38.7-3.6c-9.4-5.6-2.5-21.8-0.3-29.7c8-28.1,12.3-56.7,14.2-85.8c-1.3,0.7-2.5,1.4-3.8,2.2
				c26.2,19.4,56.4,32.7,88.8,37.1c32.4,4.5,65.5,0.1,96.4-10.1c19.7-6.5,38.6-15.3,56.6-25.5c-1.3-0.7-2.5-1.4-3.8-2.2
				c-0.6,10.4-0.2,20.9,1,31.2c1.3,10,4.1,19.7,6.5,29.4c2.7,10.8,5.3,21.8,7,32.8c0.7,4.6,1.3,9.3,1.1,14
				C382.2,365.2,382.2,369.6,379.9,371.1c-2.7,1.7-0.2,6,2.5,4.3c6-3.8,5-13.8,4.4-19.7c-1.1-11.5-3.7-22.9-6.4-34.1
				c-2.5-10.2-5.6-20.4-7.4-30.7c-2-11.6-2.3-23.6-1.7-35.3c0.1-1.9-2.2-3.1-3.8-2.2c-57.2,32.4-125.2,49-188.7,25.2
				c-17.3-6.5-33.4-15.7-48.1-26.7c-1.6-1.2-3.7,0.5-3.8,2.2c-1.8,27.3-5.4,54.5-13,80.8c-2.7,9.5-9,23.9-3.7,33.7
				c4.6,8.6,17.5,9.6,26,10.1c16.6,1,33.6-1.6,49.4-6.3c8-2.4,15.4-4.9,23.9-4.3c7.3,0.5,14.4,2.7,21.1,5.4
				c13.6,5.4,26.4,13.2,40.9,16.3c12.1,2.6,25,1.7,37.3,0.6c14.9-1.3,29.8-3.6,44.5-6.7c9.5-2,20.2-3.6,28.9-8.2
				C385.3,373.9,382.8,369.6,379.9,371.1z"/>
		</g>
	</g>
	<g>
		<path fill="#FFFFFF" d="M370.6,335.9l-27.9,16.5c-10.8,6.1-26.7,5.3-34-7.6s1.6-24.4,12.4-30.5l29.7-16.8L370.6,335.9z"/>
		<g>
			<path d="M369.4,333.7c-5.8,3.4-11.6,6.9-17.3,10.3c-6.5,3.9-13.1,8.8-20.9,9.5c-14.8,1.4-28.8-13.5-19.4-27.5
				c4.7-7,12.9-10.7,20.1-14.8c6.8-3.8,13.5-7.7,20.3-11.5c-1.1-0.3-2.3-0.6-3.4-0.9c6.6,12.8,13.2,25.6,19.8,38.4
				c1.5,2.9,5.8,0.3,4.3-2.5c-6.6-12.8-13.2-25.6-19.8-38.4c-0.6-1.2-2.3-1.5-3.4-0.9c-6.9,3.9-13.8,7.8-20.7,11.7
				c-8.2,4.7-17.3,9-22.2,17.5c-7.3,12.6,0.1,28.2,13.5,32.7c9.9,3.3,19.2,0,27.7-5c8-4.7,16-9.5,24-14.2
				C374.7,336.4,372.2,332.1,369.4,333.7z"/>
		</g>
	</g>
	<g>
		<g>
			<path d="M297.2,98.6c-2.7-7.2-10.6-24.6-20.8-18.3c-3.6,2.2-5.6,6.6-7.1,10.3c-3.1,7.7-4.6,16-7.2,23.8
				c-4.4,13.6-10.1,26.8-16.8,39.4c-3.2,6.1-6.6,12.1-10.5,17.8c-1.8,2.7,2.5,5.2,4.3,2.5c8.3-12,14.8-25.5,20.5-38.9
				c5.6-13.3,8.8-27.1,13.5-40.6c1-2.9,3-9.6,6.7-10.5c2.2-0.5,4.2,1.7,5.5,3.2c3.1,3.6,5.3,8.2,7,12.6
				C293.5,102.9,298.3,101.6,297.2,98.6L297.2,98.6z"/>
		</g>
	</g>
	<g>
		<g>
			<path d="M239.6,138.7c-1.7,7.2-3.1,14.5-4.2,21.8c-1.7,10.9-3.4,22.4-1.6,33.4c1.4-0.8,2.8-1.6,4.2-2.4
				c-3.6-3.4-6.2-8.2-8.4-12.6c-7-13.9-10.1-29.5-11.4-44.9c-0.3-3.2-4.9-3.3-5,0c-0.6,19.6-0.4,41,5.4,59.9
				c1.4-0.8,2.8-1.6,4.2-2.4c-16.9-15.4-31.5-36.1-37.9-58.1c-0.5-1.6-3-2.6-4.2-1.1c-11,14-16.4,33.2-14.2,50.8
				c1.3-0.7,2.5-1.4,3.8-2.2c1,0.7-0.7-0.8-1-1.1c-1.3-1.5-2.3-3.2-3.2-5c-3.8-7.5-4.6-16.2-4.5-24.5c0-2.1-2.8-3.3-4.3-1.8
				c-13.2,13.9-17.6,35-14.9,53.4c1-1,2.1-2.1,3.1-3.1c-10-3.2-13.9-20.6-14.9-30.1c-0.3-3.2-5.3-3.2-5,0
				c1.3,11.6,5.3,30.7,18.6,34.9c2,0.6,3.3-1.3,3.1-3.1c-2.5-16.6,1.7-36.1,13.6-48.6c-1.4-0.6-2.8-1.2-4.3-1.8
				c-0.1,11.2,1.4,27.3,11.2,34.9c1.4,1.1,4-0.4,3.8-2.2c-1.4-11.7,0.5-23.3,5.2-34c1.4-3.3,3.1-6.4,5-9.5c0.6-1,1.5-2,2-3
				c0.1-0.3,1.1-1.4,0.6-0.8c-1.4-0.4-2.8-0.7-4.2-1.1c6.6,22.8,21.6,44.4,39.1,60.4c1.8,1.6,5,0.1,4.2-2.4
				c-5.7-18.5-5.8-39.4-5.2-58.6c-1.7,0-3.3,0-5,0c1.3,16,4.5,32.1,11.7,46.6c2.5,5,5.5,10.5,9.6,14.4c1.9,1.8,4.6-0.1,4.2-2.4
				c-1.8-10.8,0.2-22.4,1.9-33.1c1.1-6.5,2.3-13,3.8-19.4C245.1,136.9,240.3,135.6,239.6,138.7L239.6,138.7z"/>
		</g>
	</g>
	<g>
		<g>
			<path d="M310.6,105.3c1.1-1.7,4.5-5.9,6.8-5.4c2.2,0.5,1.3,4.3,1.2,6.3c-0.7,8.6-2.6,17.2-3.6,25.8c-1.5,13.8-0.3,29.8,7,42
				c1.3,2.3,4.4,1.1,4.7-1.3c0.5-5.1,1-10.2,1.5-15.3c-1.6,0.2-3.3,0.4-4.9,0.7c4.8,14,10.5,29.6,20.5,40.8c1.5,1.6,4.3,0.3,4.3-1.8
				c0-5.9,0-11.8,0-17.7c-1.6,0.4-3.1,0.8-4.7,1.3c4.9,9.1,9.2,18.9,11.4,29.1c0.4,1.7,3,2.5,4.2,1.1c8.6-10.4,9.9-27.1,10.1-39.9
				c0-3.2-5-3.2-5,0c-0.1,9.6-1.1,19.2-4.5,28.2c-0.8,2.2-1.8,4.3-3,6.3c-0.3,0.5-1.6,2.3-1.2,1.8c1.4,0.4,2.8,0.7,4.2,1.1
				c-2.3-10.5-6.9-20.8-11.9-30.3c-1.2-2.2-4.7-1.2-4.7,1.3c0,5.9,0,11.8,0,17.7c1.4-0.6,2.8-1.2,4.3-1.8
				c-9.3-10.5-14.8-25.4-19.2-38.6c-0.9-2.8-4.6-2.1-4.9,0.7c-0.5,5.1-1,10.2-1.5,15.3c1.6-0.4,3.1-0.8,4.7-1.3
				c-10.1-17.1-6.6-37.7-3.9-56.2c0.7-4.9,3.6-15-0.7-19c-5.2-4.8-12.6,2.3-15.4,6.4C304.5,105.5,308.9,108,310.6,105.3L310.6,105.3
				z"/>
		</g>
	</g>
	<g>
		<path fill="#175654" d="M369,254.3c-74,23.4-154,23.9-238,0v-22c84,23.9,164,23.4,238,0V254.3z"/>
		<g>
			<path d="M368.2,251.9c-58.8,18.6-121.4,22.1-182.2,12.2c-18.3-3-36.3-7.1-54.1-12.2c0.6,0.8,1.2,1.6,1.8,2.4c0-7.3,0-14.7,0-22
				c-1.1,0.8-2.1,1.6-3.2,2.4c61.1,17.3,125.4,23,188.2,12.3c17.2-2.9,34.1-7.1,50.7-12.3c-1.1-0.8-2.1-1.6-3.2-2.4
				c0,7.3,0,14.7,0,22c0,3.2,5,3.2,5,0c0-7.3,0-14.7,0-22c0-1.6-1.6-2.9-3.2-2.4c-58.8,18.6-121.4,22.1-182.2,12.2
				c-18.3-3-36.3-7.1-54.1-12.2c-1.6-0.4-3.2,0.8-3.2,2.4c0,7.3,0,14.7,0,22c0,1.1,0.8,2.1,1.8,2.4c61.1,17.3,125.4,23,188.2,12.3
				c17.2-2.9,34.1-7.1,50.7-12.3C372.6,255.8,371.3,250.9,368.2,251.9z"/>
		</g>
	</g>
	<g>
		<rect x="230.4" y="255.8" fill="#1E2120" width="34" height="9.6"/>
		<g>
			<path d="M264.4,262.9c-11.3,0-22.7,0-34,0c0.8,0.8,1.7,1.7,2.5,2.5c0-3.2,0-6.4,0-9.6c-0.8,0.8-1.7,1.7-2.5,2.5
				c11.3,0,22.7,0,34,0c-0.8-0.8-1.7-1.7-2.5-2.5c0,3.2,0,6.4,0,9.6c0,3.2,5,3.2,5,0c0-3.2,0-6.4,0-9.6c0-1.4-1.1-2.5-2.5-2.5
				c-11.3,0-22.7,0-34,0c-1.4,0-2.5,1.1-2.5,2.5c0,3.2,0,6.4,0,9.6c0,1.4,1.1,2.5,2.5,2.5c11.3,0,22.7,0,34,0
				C267.6,267.9,267.6,262.9,264.4,262.9z"/>
		</g>
	</g>
	<g>
		<circle fill="#83FFFF" cx="282.5" cy="260.1" r="5.3"/>
		<g>
			<path d="M286.3,260.1c-0.3,4.8-7.5,4.8-7.5,0C278.8,255.3,286,255.3,286.3,260.1c0.1,1.9,3.1,1.9,3,0c-0.2-3.7-2.9-6.8-6.8-6.8
				c-3.7,0-6.8,3.1-6.8,6.8c0,3.6,2.9,6.6,6.5,6.7c3.9,0.2,6.8-3,7-6.7C289.4,258.2,286.4,258.2,286.3,260.1z"/>
		</g>
	</g>
	<g>
		<circle fill="#83FFFF" cx="211.5" cy="259.1" r="5.3"/>
		<g>
			<path d="M215.3,259.1c-0.3,4.8-7.5,4.8-7.5,0C207.8,254.3,215,254.3,215.3,259.1c0.1,1.9,3.1,1.9,3,0c-0.2-3.7-2.9-6.8-6.8-6.8
				c-3.7,0-6.8,3.1-6.8,6.8c0,3.6,2.9,6.6,6.5,6.7c3.9,0.2,6.8-3,7-6.7C218.4,257.2,215.4,257.2,215.3,259.1z"/>
		</g>
	</g>
	<g>
		<path fill="#175654" d="M321.3,361.7c9.6-2.9,18.8-7.1,26.7-11.6l-22.7-40.1c-7.4,4.2-15.4,9-22.5,15.1c0,0,4.3,20.8,8.4,26.4
			S321.3,361.7,321.3,361.7z"/>
		<g>
			<path d="M322,364.1c9.5-3,18.6-7,27.3-11.9c1.2-0.7,1.6-2.3,0.9-3.4c-7.6-13.4-15.2-26.8-22.7-40.1c-0.7-1.2-2.3-1.6-3.4-0.9
				c-8.1,4.6-15.9,9.5-23,15.4c-0.7,0.6-0.8,1.6-0.6,2.4c1.4,6.5,3,13.1,5.2,19.4c2.7,7.7,7.7,13.4,14.1,18.4c2.5,2,6.1-1.6,3.5-3.5
				c-6.4-5-11-10.6-13.5-18.4c-1.8-5.6-3.2-11.4-4.5-17.2c-0.2,0.8-0.4,1.6-0.6,2.4c6.8-5.7,14.3-10.3,22-14.7
				c-1.1-0.3-2.3-0.6-3.4-0.9c7.6,13.4,15.2,26.8,22.7,40.1c0.3-1.1,0.6-2.3,0.9-3.4c-8.3,4.6-17,8.5-26.1,11.4
				C317.6,360.2,318.9,365.1,322,364.1z"/>
		</g>
	</g>
	<g>
		<g>
			<path fill="#1E2120" d="M246.5,259.1L230,284h32.9L246.5,259.1z M246.1,269l7,10.6h-14L246.1,269z"/>
		</g>
		<g>
			<path d="M245.2,258.4c-5.5,8.3-11,16.6-16.5,24.9c-0.6,1,0.2,2.3,1.3,2.3c11,0,21.9,0,32.9,0c1.1,0,1.9-1.3,1.3-2.3
				c-5.5-8.3-11-16.6-16.5-24.9c-1.1-1.6-3.7-0.1-2.6,1.5c5.5,8.3,11,16.6,16.5,24.9c0.4-0.8,0.9-1.5,1.3-2.3c-11,0-21.9,0-32.9,0
				c0.4,0.8,0.9,1.5,1.3,2.3c5.5-8.3,11-16.6,16.5-24.9C248.8,258.3,246.2,256.8,245.2,258.4z"/>
			<path d="M244.8,269.8c2.3,3.5,4.7,7.1,7,10.6c0.4-0.8,0.9-1.5,1.3-2.3c-4.7,0-9.4,0-14,0c0.4,0.8,0.9,1.5,1.3,2.3
				c2.3-3.5,4.7-7.1,7-10.6c1.1-1.6-1.5-3.1-2.6-1.5c-2.3,3.5-4.7,7.1-7,10.6c-0.6,1,0.2,2.3,1.3,2.3c4.7,0,9.4,0,14,0
				c1.1,0,1.9-1.3,1.3-2.3c-2.3-3.5-4.7-7.1-7-10.6C246.3,266.7,243.7,268.2,244.8,269.8z"/>
		</g>
	</g>
	<g>
		<g>
			<path d="M128.2,268.7c26,19.1,56,32.3,88.1,36.6c32.4,4.3,65.4-0.4,96.3-10.8c19.8-6.7,38.7-15.5,56.9-25.8
				c2.8-1.6,0.3-5.9-2.5-4.3c-57,32-124.4,50-188,26.5c-17.3-6.4-33.5-15.6-48.3-26.5C128.2,262.4,125.7,266.8,128.2,268.7
				L128.2,268.7z"/>
		</g>
	</g>
	<g>
		<path fill="#4EDADD" d="M373.5,274.4c0,0-42.8,18.3-42.2,21.1s33,57.2,38.6,57.7s24.2-17.2,24.2-17.2"/>
		<g>
			<path d="M372.2,272.3c-9.6,4.1-19.1,8.3-28.5,12.9c-4.3,2.1-9.6,4.1-13.2,7.3c-2.3,2.1-1.7,3.8-0.5,6.3
				c5.5,10.7,12.2,21,18.7,31.1c3.6,5.5,7.2,11,11.1,16.3c2.1,2.9,4.6,7,7.9,8.8c4.8,2.6,11.1-3.1,14.6-5.8
				c4.7-3.6,9.1-7.4,13.4-11.5c2.3-2.2-1.2-5.8-3.5-3.5c-3.1,2.9-6.3,5.8-9.6,8.5c-2.2,1.8-9.8,8.7-12.3,8.1
				c-2.4-0.6-5.4-5.9-6.7-7.7c-3.5-4.8-6.8-9.8-10.1-14.8c-6.1-9.4-12-19-17.5-28.9c-0.6-1.1-1.2-2.8-2.1-3.8
				c-0.5-0.5-0.2-0.7-0.3-0.7c-0.6,0.1,0,1.6-0.2,1.5c-0.1,0,0.8-0.6,0.7-0.6c4.3-1.7,8.6-4.8,12.8-6.8c9.1-4.4,18.3-8.5,27.6-12.5
				C377.7,275.3,375.2,271,372.2,272.3L372.2,272.3z"/>
		</g>
	</g>
	<g>
		<path fill="#4EDADD" d="M375.2,336.5c0,0,29.9,8.2,35.9-22.4S371,254.9,371,254.9"/>
		<g>
			<path d="M374.6,338.9c13.7,3.7,29.3-1.2,35.8-14.4c11-22.4-4.7-44.1-21-58.7c-5.3-4.7-11-9.3-17.1-13c-2.7-1.7-5.3,2.6-2.5,4.3
				c12,7.5,23.6,17.7,31.5,29.4c5.8,8.6,9.6,18.6,7,29.1c-2.3,9.4-8.3,16.8-18,18.9c-4.6,1-9.8,1-14.4-0.3
				C372.8,333.2,371.5,338.1,374.6,338.9L374.6,338.9z"/>
		</g>
	</g>
	<g>
		<g>
			<path d="M299,317.3c2.1,19.1,10.3,41.5,27.7,51.5c2.8,1.6,5.3-2.7,2.5-4.3c-15.8-9-23.4-30.2-25.3-47.2
				C303.6,314.2,298.6,314.1,299,317.3L299,317.3z"/>
		</g>
	</g>
	<g>
		<path fill="#83FFFF" d="M159.9,92.2c0,0-17.9-15.4-12.4-39.3s5.6-5.5,11.6-1.4s22.5,1,31.3,12.3"/>
		<g>
			<path d="M161.6,90.4c-4.1-3.6-7.4-8.6-9.6-13.6c-2.4-5.6-3.5-11.7-3-17.8c0.3-3.6,1.2-7.1,2.1-10.5c0.3-1.2,0.6-2.4,1.1-3.5
				c0.5-1.2,1.7-2.3-0.1-2.1c-1.7,0.2-0.4,1.2,0.2,2.6c0.6,1.2,1.1,2.5,1.8,3.7c1.5,2.6,3.3,4.4,6.1,5.5c10,4,20.8,1.6,28.4,10.8
				c2.1,2.5,5.6-1.1,3.5-3.5c-4.3-5.1-10.1-7.9-16.6-9.3c-4.4-1-11.5-0.6-15.2-3.5c-2.8-2.1-5.4-15.1-10.9-9.8
				c-3.5,3.3-4.3,11.4-5,15.8c-1.1,6.7-0.5,13.7,1.7,20.1c2.4,6.8,6.4,13.7,11.9,18.5C160.5,96,164.1,92.5,161.6,90.4L161.6,90.4z"
				/>
		</g>
	</g>
	<g>
		<path fill="#83FFFF" d="M339.1,92.2c0,0,17.9-15.4,12.4-39.3s-5.6-5.5-11.6-1.4s-22.5,1-31.3,12.3"/>
		<g>
			<path d="M340.8,93.9c5.5-4.8,9.5-11.7,11.9-18.5c2.2-6.5,2.8-13.4,1.7-20.1c-0.7-4.5-1.5-12.5-5-15.8c-5.5-5.2-8.1,7.7-10.9,9.8
				c-3.7,2.9-10.8,2.5-15.2,3.5c-6.4,1.4-12.3,4.1-16.6,9.3c-2,2.5,1.5,6,3.5,3.5c7.5-9,18.1-7,28.1-10.6c3-1.1,4.9-3,6.4-5.7
				c0.7-1.2,1.2-2.5,1.8-3.7c0.6-1.4,2-2.4,0.2-2.6c-2-0.2-0.5,0.5-0.3,1.6c0.2,1.3,0.9,2.7,1.2,4c0.9,3.4,1.8,6.9,2.1,10.5
				c0.4,5.8-0.5,11.6-2.7,17c-2.2,5.3-5.5,10.6-9.9,14.4C334.9,92.5,338.4,96,340.8,93.9L340.8,93.9z"/>
		</g>
	</g>
	<g>
		<g>
			<path d="M261.4,224.6c3.7,0.5,6.2,3.8,7.4,7.1c0.4,1,1.7,1.5,2.5,0.7c3.6-3.6,2.2-10.4,1-14.6c-0.6-1.8-3.5-1.1-2.9,0.8
				c0.9,3.1,2.4,9.1-0.2,11.7c0.8,0.2,1.7,0.4,2.5,0.7c-1.5-4.2-4.7-8.6-9.5-9.2C260.3,221.5,259.5,224.3,261.4,224.6L261.4,224.6z"
				/>
		</g>
	</g>
	<g>
		<g>
			<path d="M302.8,66.2c4.1,1.2,7.9,3.8,11.3,6.2c10.7,7.6,19,18.1,25.9,29.1c1.7,2.7,6,0.2,4.3-2.5c-7.2-11.5-15.9-22.3-26.9-30.4
				c-4-2.9-8.5-5.9-13.3-7.3C301,60.5,299.7,65.3,302.8,66.2L302.8,66.2z"/>
		</g>
	</g>
	<g>
		<g>
			<path d="M194.8,61.4c-4.8,1.4-9.3,4.4-13.3,7.3c-11,8.1-19.7,18.8-26.9,30.4c-1.7,2.7,2.6,5.3,4.3,2.5
				c6.9-11,15.2-21.5,25.9-29.1c3.4-2.4,7.2-5,11.3-6.2C199.2,65.3,197.9,60.5,194.8,61.4L194.8,61.4z"/>
		</g>
	</g>
	<g id="Layer_4">
		<path fill="#26918E" d="M272.7,342.4c-4.7-4.8-0.7-4.8-3.5-18.9c-2.8-14.1-19.4-13.8-19.4-13.8s-16.5-0.8-19.7,13.3
			c-3.2,14,1,14.2-3.8,18.8c-4.8,4.7-8.8,8.6-8.1,14.6c0.8,6,9.8,7.2,16.1,5.1c6.3-2.1,8,3.8,14.8,4.8c7.9-0.8,8.7-6.7,14.9-4.4
			c6.2,2.3,15.5,1.3,16.5-4.7C281.4,351.2,277.5,347.2,272.7,342.4z M241.8,331c-2.7,0-4.9-2.3-4.9-5c0-2.7,2.3-4.9,5-4.9
			c2.7,0,4.9,2.3,4.9,5C246.8,328.8,244.5,331,241.8,331z M257.8,332.2c-3,0-5.5-2.5-5.4-5.6c0-3,2.5-5.5,5.6-5.4
			c3,0,5.5,2.5,5.4,5.6C263.4,329.8,260.9,332.2,257.8,332.2z"/>
	</g>
</g>
<g id="Layer_3">
	<g>
		<g id="ENFJ_4_1_">
			<g>
				<polygon fill="#1E2120" points="256.8,135.1 250,102.1 267.3,135.1 				"/>
				<g>
					<path d="M258.2,134.7c-2.3-11-4.5-22-6.8-33c-0.9,0.4-1.8,0.8-2.7,1.2c5.8,11,11.6,22,17.3,33c0.4-0.8,0.9-1.5,1.3-2.3
						c-3.5,0-7,0-10.6,0c-1.9,0-1.9,3,0,3c3.5,0,7,0,10.6,0c1.2,0,1.8-1.3,1.3-2.3c-5.8-11-11.6-22-17.3-33
						c-0.8-1.6-3.1-0.4-2.7,1.2c2.3,11,4.5,22,6.8,33C255.7,137.4,258.6,136.6,258.2,134.7z"/>
				</g>
			</g>
			<g>
				<polygon fill="#575958" points="250,168.1 256.8,135.1 267.3,135.1 				"/>
				<g>
					<path d="M251.4,168.5c2.3-11,4.5-22,6.8-33c-0.5,0.4-1,0.7-1.4,1.1c3.5,0,7,0,10.6,0c-0.4-0.8-0.9-1.5-1.3-2.3
						c-5.8,11-11.6,22-17.3,33c-0.9,1.7,1.7,3.2,2.6,1.5c5.8-11,11.6-22,17.3-33c0.5-1-0.1-2.3-1.3-2.3c-3.5,0-7,0-10.6,0
						c-0.6,0-1.3,0.5-1.4,1.1c-2.3,11-4.5,22-6.8,33C248.2,169.6,251,170.4,251.4,168.5z"/>
				</g>
			</g>
			<g>
				<polygon fill="#4EDADD" points="232.7,135.1 250,102.1 256.8,135.1 				"/>
				<g>
					<path d="M234,135.8c5.8-11,11.6-22,17.3-33c-0.9-0.1-1.8-0.2-2.7-0.4c2.2,11,4.5,22,6.7,33c0.5-0.6,1-1.3,1.4-1.9
						c-8,0-16,0-24.1,0c-1.9,0-1.9,3,0,3c8,0,16,0,24.1,0c1,0,1.6-1,1.4-1.9c-2.2-11-4.5-22-6.7-33c-0.3-1.3-2.2-1.5-2.7-0.4
						c-5.8,11-11.6,22-17.3,33C230.5,136,233.1,137.6,234,135.8z"/>
				</g>
			</g>
			<g>
				<polygon fill="#92FFFF" points="250,168.1 232.7,135.1 256.8,135.1 				"/>
				<g>
					<path d="M251.3,167.3c-5.8-11-11.6-22-17.3-33c-0.4,0.8-0.9,1.5-1.3,2.3c8,0,16,0,24.1,0c-0.5-0.6-1-1.3-1.4-1.9
						c-2.2,11-4.5,22-6.7,33c-0.4,1.9,2.5,2.7,2.9,0.8c2.2-11,4.5-22,6.7-33c0.2-0.9-0.4-1.9-1.4-1.9c-8,0-16,0-24.1,0
						c-1.2,0-1.8,1.3-1.3,2.3c5.8,11,11.6,22,17.3,33C249.6,170.6,252.2,169,251.3,167.3z"/>
				</g>
			</g>
		</g>
	</g>
</g>
</svg>
