<?xml version="1.0" encoding="utf-8"?>
<!-- Generator: Adobe Illustrator 18.1.1, SVG Export Plug-In . SVG Version: 6.00 Build 0)  -->
<svg version="1.1" xmlns="http://www.w3.org/2000/svg" xmlns:xlink="http://www.w3.org/1999/xlink" x="0px" y="0px"
	 viewBox="0 0 500 500" enable-background="new 0 0 500 500" xml:space="preserve">
<g id="Layer_1">
	<g>
		<g>
			<path fill="#FFFFFF" d="M354,272.4L354,272.4c-10.8-7.5-12-24-2.9-36.2l60.2-81.4c6.7-9.1,20.6-15.7,30.7-8.7s8.7,22.3,2.5,31.8
				L389,262.6C380.6,275.3,364.9,279.9,354,272.4z"/>
			<g>
				<path d="M355.3,270.2c-12.2-8.5-8-24.8-0.6-34.8c5-6.7,9.9-13.4,14.9-20.1c13.4-18.1,26.8-36.2,40.2-54.3
					c6.2-8.3,14.8-18.1,26.5-14.9c15,4.1,11.3,22.6,5,32.3c-11.4,17.4-22.8,34.8-34.2,52.2c-5.9,9-11.9,18.1-17.8,27.1
					c-1.7,2.6-3.4,5.3-5.6,7.7C376.3,273.1,364.7,276.3,355.3,270.2c-2.7-1.8-5.2,2.6-2.5,4.3c13.8,9,30.3,1.4,38.7-11.2
					c4.7-7,9.2-14,13.8-21c13.2-20.2,26.5-40.4,39.7-60.6c6.2-9.4,10.2-22.1,3.6-32.5c-10-15.5-30.6-7.5-39.6,4.4
					c-13.3,17.6-26.2,35.4-39.3,53.1c-6.6,8.9-13.1,17.7-19.7,26.6c-9.1,12.3-11.3,31.3,2.7,41.1C355.4,276.4,357.9,272,355.3,270.2
					z"/>
			</g>
		</g>
		<g>
			<g>
				<path fill="#A0EAA7" d="M356.8,220.1c-5.1,6.2-28.9,39-5.9,54.1s40.1-8.2,51.2-23.3L356.8,220.1z"/>
				<g>
					<path d="M355.1,218.3c-10.9,13.4-24.7,37.9-10.7,53.6c8.5,9.4,22.3,12.2,33.6,6.6c11.2-5.6,19-16.5,26.3-26.3
						c0.8-1.1,0.1-2.7-0.9-3.4c-15.1-10.3-30.2-20.6-45.3-30.8c-2.7-1.8-5.2,2.5-2.5,4.3c15.1,10.3,30.2,20.6,45.3,30.8
						c-0.3-1.1-0.6-2.3-0.9-3.4c-6.2,8.4-12.7,17.5-21.8,23.1c-10.1,6.2-24,4.5-31.2-5.6c-9.8-13.6,2.8-34.3,11.7-45.3
						C360.6,219.3,357.1,215.8,355.1,218.3z"/>
				</g>
			</g>
			<g>
				
					<rect x="353.1" y="227.9" transform="matrix(-0.8269 -0.5624 0.5624 -0.8269 565.4701 639.3842)" fill="#5FAA61" width="56.1" height="9.5"/>
				<g>
					<path d="M359.4,215.1c15.5,10.5,30.9,21,46.4,31.5c-0.3-1.1-0.6-2.3-0.9-3.4c-1.8,2.6-3.6,5.2-5.3,7.9c1.1-0.3,2.3-0.6,3.4-0.9
						c-15.5-10.5-30.9-21-46.4-31.5c0.3,1.1,0.6,2.3,0.9,3.4c1.8-2.6,3.6-5.2,5.3-7.9c1.8-2.7-2.5-5.2-4.3-2.5
						c-1.8,2.6-3.6,5.2-5.3,7.9c-0.8,1.2-0.2,2.7,0.9,3.4c15.5,10.5,30.9,21,46.4,31.5c1.2,0.8,2.7,0.2,3.4-0.9
						c1.8-2.6,3.6-5.2,5.3-7.9c0.8-1.2,0.2-2.7-0.9-3.4c-15.5-10.5-30.9-21-46.4-31.5C359.2,209,356.7,213.3,359.4,215.1z"/>
				</g>
			</g>
		</g>
	</g>
	<g>
		<g>
			<path fill="#FFFFFF" d="M34.4,332.8c2.8,12.2,20.2,16.1,33.5,13.4l48-9.7c9-1.8,16.9-7.3,21.7-15.2l20.6-33.6
				c3.7-6,5.4-12.6,5.3-18.6c-0.2-8.2-3.7-15.5-10.3-19.4c-11.6-6.7-27.6,0.1-35.4,14.7l-17,31.3l-41.8,10.6
				C45.6,309.6,31.6,320.6,34.4,332.8z"/>
			<g>
				<path d="M32,333.5c4.1,15.3,23.7,17.6,36.8,15.1c10.2-1.9,20.3-4.1,30.5-6.2c10.4-2.1,22.1-3.1,30.9-9.5
					c9-6.5,14.2-17.8,19.8-27.1c6-9.9,14.2-20.3,15.6-32.1c2.1-17.9-12.2-33.9-30.6-27.7c-12.8,4.3-18.7,15.4-24.6,26.4
					c-3,5.6-6.1,11.2-9.1,16.8c-0.6,1.2-2.5,3.4-2.6,4.7c-0.1,1.4-1.6-1.8,1.2-0.6c-0.3-0.1-1,0.3-1.3,0.3c-5.6,0.5-11.7,3-17.2,4.3
					c-6.5,1.6-13.1,3.3-19.6,4.9C47.8,306.5,28.8,316,32,333.5c0.6,3.2,5.4,1.8,4.8-1.3c-2.7-14.9,16.3-21.9,27.7-24.7
					c10.4-2.6,20.8-5.3,31.2-7.9c2.2-0.6,5.6-0.7,7.2-2.6c1.9-2.1,3.1-5.6,4.4-8.1c4.2-7.7,8.3-15.5,12.6-23.2
					c4.2-7.5,10.9-13.9,19.6-15.6c9.5-1.9,18.2,3.7,20.7,13.1c3.5,12.9-4.3,23.6-10.6,34c-4.7,7.6-9.2,15.3-14,22.8
					c-6.7,10.5-16.8,13.4-28.1,15.7c-11.7,2.4-23.4,4.7-35,7.1c-11.6,2.4-31.6,4.1-35.6-10.6C36,329,31.1,330.4,32,333.5z"/>
			</g>
		</g>
		<g>
			<path fill="#A0EAA7" d="M156.6,296.3c4.1-6.9,22.7-42.9-2.3-54.4s-38.4,14.1-47.1,30.7L156.6,296.3z"/>
			<g>
				<path d="M158.8,297.5c7.1-12.1,13.8-28.9,9.7-43c-2.6-9-10.1-14.7-18.9-17c-9.3-2.5-18.3,0.2-25.5,6.3
					c-8.6,7.3-14,17.7-19.1,27.5c-0.6,1.1-0.4,2.8,0.9,3.4c16.5,7.9,32.9,15.8,49.4,23.6c2.9,1.4,5.4-2.9,2.5-4.3
					c-16.5-7.9-32.9-15.8-49.4-23.6c0.3,1.1,0.6,2.3,0.9,3.4c4.9-9.3,9.9-19.2,17.9-26.2c9.1-7.9,22.9-8.4,31.8,0.3
					c12.2,11.9,2.6,34.7-4.6,47C152.8,297.8,157.2,300.3,158.8,297.5z"/>
			</g>
		</g>
		<g>
			
				<rect x="102.7" y="282.7" transform="matrix(0.9023 0.4311 -0.4311 0.9023 136.6973 -28.2564)" fill="#5FAA61" width="56.1" height="9.5"/>
			<g>
				<path d="M155.2,301.7c-16.9-8.1-33.7-16.1-50.6-24.2c0.3,1.1,0.6,2.3,0.9,3.4c1.4-2.9,2.7-5.7,4.1-8.6c-1.1,0.3-2.3,0.6-3.4,0.9
					c16.9,8.1,33.7,16.1,50.6,24.2c-0.3-1.1-0.6-2.3-0.9-3.4c-1.4,2.9-2.7,5.7-4.1,8.6c-1.4,2.9,2.9,5.4,4.3,2.5
					c1.4-2.9,2.7-5.7,4.1-8.6c0.5-1.1,0.4-2.8-0.9-3.4c-16.9-8.1-33.7-16.1-50.6-24.2c-1.1-0.5-2.8-0.4-3.4,0.9
					c-1.4,2.9-2.7,5.7-4.1,8.6c-0.5,1.1-0.4,2.8,0.9,3.4c16.9,8.1,33.7,16.1,50.6,24.2C155.6,307.4,158.1,303.1,155.2,301.7z"/>
			</g>
		</g>
	</g>
	<g>
		<path fill="#C0F9C0" d="M137,171.3c0,0-7.1-59.8,13.3-68c0,0,1.3-27.7,27.3-22.9c0,0,44.9-33.6,76.7-18.8s47.5,0.1,52.5-2.8
			l-3.3,14.6c0,0,20.1-2,27.8,14.4c0,0,14.5-0.4,23.3,24.1s7.7,60.8,7.7,60.8"/>
		<g>
			<path d="M139.5,171.3c-1.1-9.6-1.4-19.3-1.1-28.9c0.4-11.1,0.9-31.6,13.1-36.9c0.8-0.4,1.2-1.4,1.2-2.2c0.4-7,3.6-15,9.8-18.6
				c2.6-1.5,5.6-2.2,8.6-2.3c2.5-0.1,5.4,1.1,7.7,0.1c2.6-1.1,5.1-3.5,7.5-5c11.8-7.3,24.8-13.4,38.5-16c7.5-1.4,15.5-1.6,22.9,0.5
				c9.2,2.6,17.2,7.3,27,8.4c7.5,0.8,15.1,0,22.1-3c4-1.7,7.4-4.1,11.1-6.3c-1.2-0.9-2.4-1.9-3.7-2.8c-1.1,4.9-2.2,9.7-3.3,14.6
				c-0.3,1.4,0.7,3.3,2.4,3.2c10.4-1,20.9,3.7,25.6,13.2c0.4,0.8,1.3,1.3,2.2,1.2c3.4-0.1,7.4,2.4,10,4.7c8.4,7.4,12,19.2,14.4,29.8
				c3.4,15.5,4.6,31.9,4.1,47.9c-0.1,3.2,4.9,3.2,5,0c0.6-18.2-0.8-37.2-5.7-54.8c-3.3-12.1-12.1-32.9-27.8-32.6
				c0.7,0.4,1.4,0.8,2.2,1.2c-5.5-11-17.9-16.8-30-15.7c0.8,1.1,1.6,2.1,2.4,3.2c1.1-4.9,2.2-9.7,3.3-14.6c0.5-2.1-1.7-4-3.7-2.8
				c-3.6,2.1-6.8,4.6-10.7,6.2c-7,2.9-14.7,3.4-22.1,2.1c-9.9-1.7-18.4-7.3-28.3-9c-7.5-1.2-15.2-0.6-22.7,1
				c-13.7,2.9-26.7,9.2-38.5,16.6c-1.8,1.2-4.9,4.2-7,4.7c1.5-0.3-3.4-0.9-3.9-0.9c-1.5,0-3.1,0.1-4.6,0.3c-3.2,0.5-6.2,1.6-8.9,3.4
				c-7.1,4.8-10.8,13.9-11.2,22.3c0.4-0.7,0.8-1.4,1.2-2.2c-13,5.6-14.6,25.1-15.4,37.2c-0.7,10.9-0.4,22.1,0.9,33
				C134.9,174.5,139.9,174.5,139.5,171.3L139.5,171.3z"/>
		</g>
	</g>
	<path fill="#FFFFFF" d="M367.2,386c-6.1,5.6-11.4,7.9-17.6,7.9c-3.4,0-6.7-0.7-10.6-1.7c-2.1-0.5-4.6-1.6-7.9-3l-0.6-0.3
		c-7.2-3.2-17.1-7.6-26.5-7.6c-6.4,0-11.6,2.1-15.9,6.5c-11.2,11.5-22.5,16.1-29.8,17.9c-0.1,0-7.3,2-15.6-0.3
		c-8.3-2.3-19.6-6.3-30.8-17.7c-4.2-4.3-9.5-6.4-15.9-6.4c-9.2,0-19.1,4.3-26.5,7.6l-0.3,0.2c-3.3,1.5-6,2.7-8.1,3.2
		c-3.9,0.9-7.1,1.7-10.6,1.7c-6.1,0-11.6-2.4-17.6-7.9c-10.1-9.1-13.6-17.7-13.1-31.6c0.2-5.7,2.7-17.9,5.5-32l0.1-0.6
		c3.3-16.5,7.1-35.3,7.3-44.4c0.1-4.6,0.1-10.9,0.1-17.5l0-3.8c-0.1-16.2-0.3-38.3,1.2-52.7c1.2-11.5,5.5-40.7,18.9-62.2
		c12.3-19.7,27.1-32.5,46.5-40.4c18-7.3,39.9-8.4,48.5-8.4c0.8,0,34.6,0.8,52.6,8.1c19.4,7.9,34.2,20.9,46.5,40.6
		c13.4,21.5,18.5,50.7,19.7,62.3c1.5,14.3,2.1,36.6,2.1,52.8v0.4c0,8-0.9,15.6-0.8,20.9c0.3,9.1,3.6,27.8,6.9,44.4l-0.1,0.6
		c2.8,14.2,5.2,26.4,5.4,32.1C380.9,368.3,377.3,376.9,367.2,386z"/>
	<path fill="#A0EAA7" d="M132.8,244.7c0,0,66.5,11.3,105.3,12c38.8,0.7,130.3-12,130.3-12s0,37.2,3.5,60.8s15.3,56.2,0,74.5
		s-29.3,11.7-51.7,6.5c-22.3-5.2-16.8-6.5-42.5,11.6s-50,6.3-58.7-3.4c-8.7-9.7-8.8-16-42.8-6.8c-34,9.2-46.4-0.5-53.8-12.2
		C115.2,364,134,253.2,132.8,244.7z"/>
	<path fill="#A0EAA7" d="M376.8,333.3c11.4,28.3-10.6,51.5-10.6,51.5L355,365.3l2.6-27.6"/>
	<path fill="#A0EAA7" d="M123.3,333.3c-11.4,28.3,10.6,51.5,10.6,51.5l11.2-19.4l-2.6-27.6"/>
	<path fill="#A0EAA7" d="M133,246v10l115.3,38.5L370,252.3V244C370,244,294,268.7,133,246z"/>
	<g>
		<path fill="#5FAA61" d="M377.9,331.6c-113.9,27.9-255.3,0-255.3,0l4-9c0,0,137.9,27.9,249,0L377.9,331.6z"/>
		<g>
			<path d="M377.2,329.2c-44.3,10.7-90.3,13.3-135.7,12c-33.5-0.9-67-3.9-100.1-9c-6.1-0.9-12.2-1.9-18.2-3.1c0.5,1.2,1,2.4,1.5,3.7
				c1.3-3,2.7-6,4-9c-0.9,0.4-1.9,0.8-2.8,1.1c17.9,3.6,36.1,5.9,54.2,7.9c40.1,4.4,80.7,6,121,3.3c25.3-1.7,50.5-5.1,75.1-11.2
				c-1-0.6-2.1-1.2-3.1-1.7c0.8,3,1.6,6,2.3,9c0.8,3.1,5.6,1.8,4.8-1.3c-0.8-3-1.6-6-2.3-9c-0.3-1.3-1.8-2.1-3.1-1.7
				c-43.1,10.7-88,13.3-132.2,12c-32.7-0.9-65.3-3.9-97.6-9c-5.9-0.9-11.9-1.9-17.8-3.1c-1-0.2-2.4,0.1-2.8,1.1c-1.3,3-2.7,6-4,9
				c-0.6,1.4-0.2,3.3,1.5,3.7c18.2,3.6,36.6,5.9,55,7.8c41.4,4.4,83.2,6.1,124.8,3.4c25.8-1.7,51.6-5.1,76.8-11.2
				C381.7,333.2,380.3,328.4,377.2,329.2z"/>
		</g>
	</g>
	<path fill="#C8C8C8" d="M285.5,389.9c0,0,8-6.1,16.8-7c8.8-1,23.8,5.5,23.8,5.5s-4.9,10-14.2,9.8
		C302.5,397.9,285.5,389.9,285.5,389.9z"/>
	<g>
		<polygon fill="#C0F9C0" points="132,290.6 174.6,305 180,316 190.5,316 182.1,298.9 132,280.9 		"/>
		<g>
			<path d="M131.1,293c9.9,3.4,19.8,6.7,29.7,10.1c2.7,0.9,5.4,1.8,8.1,2.7c1,0.3,3.5,1.8,4.6,1.6c0.6-0.1-0.7-1.1-0.8-0.5
				c-0.1,0.8,1.5,3,1.8,3.7c1.1,2.3,2.3,4.6,3.4,6.9c0.4,0.8,1.3,1.2,2.2,1.2c3.5,0,7,0,10.5,0c2,0,3-2.1,2.2-3.8
				c-1.3-2.7-2.7-5.5-4-8.2c-1.3-2.7-2.5-6.6-4.4-9c-2.4-2.9-9.2-4-12.5-5.2c-13.1-4.7-26.2-9.4-39.2-14.1c-1.6-0.6-3.2,0.9-3.2,2.4
				c0,3.2,0,6.5,0,9.7c0,3.2,5,3.2,5,0c0-3.2,0-6.5,0-9.7c-1.1,0.8-2.1,1.6-3.2,2.4c12.5,4.5,25.1,9,37.6,13.5
				c3,1.1,6.1,2.2,9.1,3.3c0.8,0.3,1.8,0.9,2.7,1c1.9,0.2-1.3,0.7-0.6-0.7c-0.5,1.2,3.8,7.6,4.4,8.9c1.3,2.7,2.7,5.5,4,8.2
				c0.7-1.3,1.4-2.5,2.2-3.8c-3.5,0-7,0-10.5,0c0.7,0.4,1.4,0.8,2.2,1.2c-1.7-3.5-3.5-10.3-7-12.3c-3.3-1.8-7.8-2.6-11.3-3.9
				c-10.5-3.6-20.9-7.1-31.4-10.7C129.4,287.2,128.1,292,131.1,293z"/>
		</g>
	</g>
	<path fill="#C8C8C8" d="M169.6,389.9c0,0,8-6.1,16.8-7s23.8,5.5,23.8,5.5s-4.9,10-14.2,9.8S169.6,389.9,169.6,389.9z"/>
	<path d="M384.6,351.4c-0.2-6.1-2.7-18.4-5.5-32.5l-0.1-0.5c-3-15.1-6.3-33.9-6.5-42.1c-0.1-5.1,0.5-12.5,0.5-20.3v-0.4
		c0-16-0.3-37.9-1.8-52.2c-1.2-11.8-5.9-41.6-19.8-63.8c-12.9-20.6-28.6-33.9-49.1-42.2c-18.8-7.6-53.2-8.4-54.2-8.4
		c-8.8,0-31.4,0.7-50.1,8.3c-20.5,8.3-36,21.7-48.9,42.3c-13.9,22.2-18.3,52.1-19.6,63.8c-1.5,14.4-1.4,36.3-1.3,52.3l0,3.7
		c0,6.5,0,12.5-0.1,16.9c-0.2,8.3-4,27-7,42.1L121,319c-2.8,14.1-5.2,26.3-5.5,32.4c-0.6,15.7,3.8,26.3,15.2,36.6
		c7.3,6.6,14.3,9.7,22.1,9.7c4.2,0,8-0.8,12.1-1.9c1.1-0.3,2.3-0.7,3.5-1.1c4.1,2.3,11.9,5.7,22.2,5.7c6.7,0,14.4-1.4,22.9-5.5
		c4.9,4,9.9,7.4,10,7.4c13.2,7.5,24.5,8.7,26.2,8.7h0.4c1.7,0,13-0.7,26.7-8.7c0,0,4.4-3.1,8.9-6.7c7.8,3.5,15,4.8,21.3,4.8
		c11.2,0,19.4-4,23.2-6.2c1.8,0.7,3.4,1.3,5,1.7c4.1,1,7.9,1.9,12.1,1.9c7.9,0,14.7-3,22.1-9.6C380.8,377.7,385.2,367.1,384.6,351.4
		z M177.2,390.9c6.1-2.6,13.6-5.5,20.1-5.5c4.4,0,7.6,1.3,10.4,4.1l0.2,0.2C194.8,395.1,184,393.4,177.2,390.9z M291.7,390.4
		c0.3-0.3,0.6-0.5,0.8-0.8c2.8-2.8,6-4.2,10.4-4.2c6.1,0,13,2.5,18.9,5C315.4,392.9,304.8,395.2,291.7,390.4z M364.5,382.6
		c-6,5.4-11.1,7.8-17.2,7.8c-3.4,0-6.6-0.7-10.4-1.6c-2-0.5-4.5-1.6-7.7-3l-0.5-0.2c-7-3.2-16.7-7.4-25.8-7.4
		c-6.3,0-11.3,2.1-15.6,6.3c-11,11.2-21.9,15.7-29.1,17.5c-0.1,0-7.1,1.9-15.2-0.3c-8.2-2.3-19.2-6.1-30.1-17.2
		c-4.1-4.2-9.2-6.3-15.6-6.3c-9,0-18.6,4.2-25.9,7.4l-0.3,0.1c-3.3,1.4-5.8,2.6-7.9,3.1c-3.8,0.9-7,1.6-10.4,1.6
		c-6,0-11.3-2.4-17.2-7.8c-9.8-8.9-13.3-17.3-12.8-30.9c0.2-5.5,2.6-17.4,5.4-31.2l0.1-0.6c3.2-16.1,6.9-34.4,7.2-43.4
		c0.1-4.5,0.1-10.6,0.1-17.1l0-3.7c-0.1-15.8-0.3-37.5,1.2-51.4c1.2-11.3,5.4-39.8,18.5-60.7c12-19.3,26.5-31.8,45.4-39.5
		c17.6-7.1,39-8.2,47.4-8.2c0.8,0,33.8,0.8,51.4,7.9c19,7.7,33.4,20.4,45.5,39.6c13.1,21,18,49.5,19.2,60.8
		c1.5,14,1.9,35.7,1.9,51.5v0.4c0,7.8-0.8,15.2-0.7,20.4c0.2,8.9,3.6,27.2,6.8,43.4l-0.1,0.5c2.8,13.8,5.1,25.8,5.3,31.3
		C377.9,365.3,374.3,373.7,364.5,382.6z"/>
	<path d="M324.2,191.9c0,10.6-8.6,19.1-19.1,19.1c-10.6,0-19.1-8.6-19.1-19.1c0-0.9,0.1-1.8,0.2-2.6c1.2,0.8,2.6,1.3,4.1,1.3
		c4,0,7.2-3.2,7.2-7.2c0-2.9-1.7-5.4-4.1-6.5c3.2-2.5,7.3-4,11.7-4C315.6,172.8,324.2,181.4,324.2,191.9z"/>
	<path d="M214.1,191.9c0,10.6-8.6,19.1-19.1,19.1c-10.6,0-19.1-8.6-19.1-19.1c0-0.9,0.1-1.8,0.2-2.6c1.2,0.8,2.6,1.3,4.1,1.3
		c4,0,7.2-3.2,7.2-7.2c0-2.9-1.7-5.4-4.1-6.5c3.2-2.5,7.3-4,11.7-4C205.5,172.8,214.1,181.4,214.1,191.9z"/>
	
		<ellipse transform="matrix(0.7169 -0.6971 0.6971 0.7169 -112.2272 180.7014)" fill="#F68694" cx="166.4" cy="228.6" rx="7.4" ry="3.4"/>
	
		<ellipse transform="matrix(0.7169 -0.6971 0.6971 0.7169 -109.0657 190.8302)" fill="#F68694" cx="180.5" cy="229.7" rx="7.4" ry="3.4"/>
	
		<ellipse transform="matrix(0.7169 -0.6971 0.6971 0.7169 -105.0878 200.6274)" fill="#F68694" cx="194.5" cy="229.7" rx="7.4" ry="3.4"/>
	
		<ellipse transform="matrix(-0.7169 -0.6971 0.6971 -0.7169 413.1115 627.1812)" fill="#F68694" cx="333.9" cy="229.7" rx="7.4" ry="3.4"/>
	
		<ellipse transform="matrix(-0.7169 -0.6971 0.6971 -0.7169 388.1657 619.3947)" fill="#F68694" cx="319.8" cy="230.9" rx="7.4" ry="3.4"/>
	
		<ellipse transform="matrix(-0.7169 -0.6971 0.6971 -0.7169 364.0363 609.5975)" fill="#F68694" cx="305.8" cy="230.9" rx="7.4" ry="3.4"/>
	<path fill="#C0F9C0" d="M149.1,130.5c0,0,23.8-1.4,42.9-15.3c0,0,53.2,17.9,101.3,2.6c0,0,14.2,1.5,13,12.7l11.6-6.5
		c0,0,18.9,18.5,34.9,18.6c0,0-20.6-64.4-105.6-58.4S149.1,130.5,149.1,130.5z"/>
	<g>
		<g>
			<path d="M282,172.9c3.3-2.7,9-5.5,13.6-6.9c11.8-3.6,23.4-0.9,32.9,6.9c2.5,2,6-1.5,3.5-3.5c-10.2-8.4-22.5-12-35.5-8.8
				c-6.4,1.6-12.9,4.6-18.1,8.8C276,171.4,279.5,174.9,282,172.9L282,172.9z"/>
		</g>
	</g>
	<g>
		<g>
			<path d="M222,152.4c-5.2-4.2-11.6-7.2-18.1-8.8c-13-3.2-25.3,0.4-35.5,8.8c-2.5,2,1.1,5.6,3.5,3.5c9.5-7.8,21.1-10.5,32.9-6.9
				c4.6,1.4,10.3,4.2,13.6,6.9C221,157.9,224.5,154.4,222,152.4L222,152.4z"/>
		</g>
	</g>
	<g>
		<g>
			<path d="M132.9,246c16.5,3.6,33.3,5.9,50,7.8c37.6,4.4,75.7,6.1,113.5,3.4c23.7-1.7,47.2-5.1,70.2-11.2c3.1-0.8,1.8-5.7-1.3-4.8
				c-40.1,10.7-82,13.3-123.4,12c-30.5-0.9-61-3.9-91.1-9c-5.6-0.9-11.1-1.9-16.6-3.1C131.1,240.5,129.7,245.3,132.9,246L132.9,246z
				"/>
		</g>
	</g>
	<path fill="none" stroke="#000000" stroke-miterlimit="10" d="M188.9,290.9"/>
	<path fill="#AFEAF5" stroke="#000000" stroke-miterlimit="10" d="M240.5,258.5"/>
	<g>
		<path fill="#FFFFFF" d="M230.1,208.6l47.5,5.2C272,239.1,224.4,233.9,230.1,208.6z"/>
		<g>
			<path d="M230.1,211.1c15.8,1.7,31.7,3.5,47.5,5.2c-0.8-1.1-1.6-2.1-2.4-3.2c-2.7,11.1-14.1,15.5-24.7,14.6
				c-10-0.9-20.2-7.2-18-18.5c0.6-3.1-4.2-4.5-4.8-1.3c-5.9,29.9,45.7,33.4,52.3,6.5c0.4-1.7-0.8-3-2.4-3.2
				c-15.8-1.7-31.7-3.5-47.5-5.2C226.9,205.7,226.9,210.8,230.1,211.1z"/>
		</g>
	</g>
	<g>
		<polygon fill="#5FAA61" points="365.6,387.2 353.6,365.4 356,337.3 347.5,338.6 345.8,367.6 357.5,391.6 		"/>
		<g>
			<path d="M367.8,386c-2.2-3.9-4.3-7.8-6.5-11.8c-1.4-2.5-2.8-5-4.2-7.6c-0.4-0.7-0.8-1.4-1.2-2.1c-0.6-1,0.1,1.5,0.2,0.5
				c0.9-9.2,1.6-18.5,2.3-27.8c0.2-1.8-1.7-2.6-3.2-2.4c-2.9,0.5-5.7,0.9-8.6,1.4c-1.1,0.2-1.8,1.4-1.8,2.4
				c-0.3,4.8-0.5,9.6-0.8,14.5c-0.3,4.5-1.4,10-0.8,14.4c0.6,4,3.8,8.4,5.5,12c2.2,4.5,4.3,8.9,6.5,13.4c0.6,1.2,2.3,1.5,3.4,0.9
				c2.7-1.5,5.4-2.9,8.1-4.4c2.8-1.5,0.3-5.9-2.5-4.3c-2.7,1.5-5.4,2.9-8.1,4.4c1.1,0.3,2.3,0.6,3.4,0.9c-2-4.2-4-8.3-6.1-12.5
				c-1.3-2.8-2.7-5.5-4-8.3c-0.4-0.8-0.7-1.8-1.2-2.5c-0.8-1.2,0-0.2,0,0.3c0.9-9.5,1.1-19.2,1.6-28.7c-0.6,0.8-1.2,1.6-1.8,2.4
				c2.9-0.5,5.7-0.9,8.6-1.4c-1.1-0.8-2.1-1.6-3.2-2.4c-0.4,4.5-0.8,9.1-1.1,13.6c-0.4,4.5-1.8,10-1.2,14.5
				c0.4,3.6,3.7,7.5,5.4,10.6c2.3,4.2,4.6,8.4,6.9,12.6C365,391.3,369.3,388.8,367.8,386z"/>
		</g>
	</g>
	<g>
		<polygon fill="#5FAA61" points="132.8,386.2 144.8,364.4 142.4,336.3 151,337.6 152.6,366.6 140.9,390.6 		"/>
		<g>
			<path d="M135,387.5c2.3-4.2,4.6-8.4,6.9-12.6c1.7-3.1,4.9-7,5.4-10.6c0.6-4.5-0.8-10-1.2-14.5c-0.4-4.5-0.8-9.1-1.1-13.6
				c-1.1,0.8-2.1,1.6-3.2,2.4c2.9,0.5,5.7,0.9,8.6,1.4c-0.6-0.8-1.2-1.6-1.8-2.4c0.5,9.6,0.7,19.2,1.6,28.7c0-0.3,0.8-1.6,0-0.4
				c-0.5,0.7-0.8,1.6-1.1,2.3c-1.3,2.7-2.7,5.5-4,8.2c-2.1,4.3-4.2,8.6-6.3,12.9c1.1-0.3,2.3-0.6,3.4-0.9c-2.7-1.5-5.4-2.9-8.1-4.4
				c-2.8-1.5-5.4,2.8-2.5,4.3c2.7,1.5,5.4,2.9,8.1,4.4c1.1,0.6,2.8,0.4,3.4-0.9c2.2-4.5,4.3-8.9,6.5-13.4c1.7-3.6,4.9-8,5.5-12
				c0.7-4.5-0.6-10-0.8-14.4c-0.3-4.8-0.5-9.6-0.8-14.5c-0.1-1-0.7-2.2-1.8-2.4c-2.9-0.5-5.7-0.9-8.6-1.4c-1.5-0.2-3.3,0.6-3.2,2.4
				c0.8,9.2,1,18.6,2.3,27.8c0.2,1.1,0.7-1.6,0.2-0.5c-0.4,0.7-0.8,1.4-1.2,2.1c-1.3,2.4-2.6,4.8-3.9,7.1c-2.2,4.1-4.5,8.1-6.7,12.2
				C129.1,387.8,133.4,390.3,135,387.5z"/>
		</g>
	</g>
	<path fill="none" stroke="#000000" stroke-miterlimit="10" d="M231.9,334.8"/>
	<g>
		<polygon fill="#5FAA61" points="368,264.7 248.8,307.3 132,265.5 132,255.3 248.8,295.8 368,254.5 		"/>
		<g>
			<path d="M367.8,262.3c-34.6,12.4-69.1,24.7-103.7,37.1c-4.8,1.7-10.7,2.9-15.1,5.4c-0.9,0.5,0.2-0.1,0.8,0.1
				c-0.5-0.2-1-0.3-1.5-0.5c-2.2-1-4.7-1.7-7-2.5c-20-7.2-40.1-14.3-60.1-21.5c-16.1-5.7-32.1-11.5-48.2-17.2
				c0.6,0.8,1.2,1.6,1.8,2.4c0-3.4,0-6.8,0-10.3c-1.1,0.8-2.1,1.6-3.2,2.4c34.6,12,69.3,24,103.9,36c3.9,1.4,8.8,4,12.9,4.5
				c3.4,0.4,7.8-2.2,10.9-3.3c20.4-7.1,40.9-14.1,61.3-21.2c16.1-5.6,32.2-11.2,48.4-16.7c-1.1-0.8-2.1-1.6-3.2-2.4
				c0,3.4,0,6.8,0,10.2c0,3.2,5,3.2,5,0c0-3.4,0-6.8,0-10.2c0-1.5-1.6-2.9-3.2-2.4c-34.4,11.9-68.9,23.8-103.3,35.8
				c-4.9,1.7-10.9,2.8-15.4,5.3c-0.9,0.5,0.4,0,0.8,0.1c-0.4-0.2-0.9-0.3-1.3-0.5c-2.2-1-4.7-1.6-7-2.4c-20-6.9-39.9-13.8-59.9-20.8
				c-16.2-5.6-32.4-11.2-48.6-16.8c-1.6-0.5-3.2,0.9-3.2,2.4c0,3.4,0,6.8,0,10.3c0,1.2,0.8,2,1.8,2.4
				c34.6,12.4,69.1,24.7,103.7,37.1c4,1.4,8.8,4.2,13.1,4.7c3.3,0.4,7.9-2.3,10.9-3.4c20.4-7.3,40.9-14.6,61.3-21.9
				c16.1-5.8,32.2-11.5,48.4-17.3C372.2,266,370.9,261.2,367.8,262.3z"/>
		</g>
	</g>
	<g>
		<g>
			<path d="M150,134.5c8.2-0.2,16.6-3.6,24-6.8c4.4-1.9,8.6-4.1,12.8-6.4c1-0.6,2.2-1.2,3.2-1.8c0.5-0.3,1.1-0.7,1.6-1
				c-0.1-0.3-0.2-0.5-0.2-0.8c0.2,0,0.5,0.2,0.8,0.2c3.1-0.1,7.3,1.8,10.3,2.5c13.7,3.1,27.7,5.4,41.8,6.2
				c7.9,0.5,15.8,0.5,23.7-0.5c7.8-1,15.2-4.1,23.1-4.5c6.8-0.4,13.5,2.7,11.7,9.7c-0.5,1.8,1.2,3.7,3.1,3.1
				c9.3-3,14.4-11.1,10.5-20.4c-1.3-3-5.6-0.4-4.3,2.5c2.7,6.3-1.6,11.2-7.5,13.1c1,1,2.1,2.1,3.1,3.1c1.2-4.8-0.2-10.4-4.3-13.4
				c-4.3-3.1-10.2-3-15.2-2.4c-8.5,1.1-16.5,4.1-25.1,4.7c-16.4,1.2-33.1-0.9-49.3-4c-5.6-1.1-11.1-2.3-16.6-3.7
				c-3.9-1-4.9-1.7-8.7,0.6c-11,6.6-25,14.5-38.3,14.9C146.8,129.6,146.8,134.6,150,134.5L150,134.5z"/>
		</g>
	</g>
	<g>
		<g>
			<path d="M314,123.9c11,10.1,25.4,21,40.7,22.6c3.2,0.3,3.2-4.7,0-5c-13.7-1.4-27.2-12.1-37.1-21.1
				C315.1,118.2,311.6,121.7,314,123.9L314,123.9z"/>
		</g>
	</g>
	<g>
		<line fill="#FFFFFF" x1="231.3" y1="218.1" x2="250.5" y2="219.6"/>
		<g>
			<path d="M231.3,219.6c6.4,0.5,12.8,1,19.2,1.5c1.9,0.1,1.9-2.9,0-3c-6.4-0.5-12.8-1-19.2-1.5
				C229.4,216.4,229.4,219.4,231.3,219.6L231.3,219.6z"/>
		</g>
	</g>
	<g>
		<line fill="#FFFFFF" x1="273.4" y1="221.7" x2="260.3" y2="220.4"/>
		<g>
			<path d="M273.4,220.2c-4.4-0.4-8.7-0.9-13.1-1.3c-1.9-0.2-1.9,2.8,0,3c4.4,0.4,8.7,0.9,13.1,1.3
				C275.3,223.4,275.3,220.4,273.4,220.2L273.4,220.2z"/>
		</g>
	</g>
	<g>
		<polygon fill="#C0F9C0" points="368,290.6 325.5,305 320.3,316 309.8,316 318,298.9 368,280.9 		"/>
		<g>
			<path d="M367.8,288.2c-10.5,3.6-20.9,7.1-31.4,10.7c-3.6,1.2-8,2-11.3,3.8c-3.6,1.9-5.3,8.8-7,12.3c0.7-0.4,1.4-0.8,2.2-1.2
				c-3.5,0-7,0-10.5,0c0.7,1.3,1.4,2.5,2.2,3.8c1.3-2.7,2.7-5.5,4-8.2c0.4-0.9,4.8-8.2,4.4-8.8c0.6,0.9-2.5,0.8-0.6,0.6
				c0.8-0.1,1.9-0.7,2.7-1c3-1.1,6.1-2.2,9.1-3.3c12.5-4.5,25.1-9,37.6-13.5c-1.1-0.8-2.1-1.6-3.2-2.4c0,3.2,0,6.5,0,9.7
				c0,3.2,5,3.2,5,0c0-3.2,0-6.5,0-9.7c0-1.5-1.6-3-3.2-2.4c-13.1,4.7-26.2,9.4-39.2,14.1c-3.4,1.2-10.1,2.2-12.5,5.1
				c-1.9,2.3-3,6-4.2,8.6c-1.4,2.9-2.8,5.8-4.3,8.6c-0.8,1.7,0.2,3.8,2.2,3.8c3.5,0,7,0,10.5,0c0.8,0,1.8-0.5,2.2-1.2
				c1.1-2.3,2.3-4.6,3.4-6.9c0.5-0.9,1.6-2.5,1.7-3.5c0.2-1.5-1.2,0.2-0.8,0.3c0.9,0.2,3.5-1.2,4.4-1.5c2.8-0.9,5.6-1.9,8.4-2.8
				c9.9-3.4,19.8-6.7,29.7-10.1C372.2,292,370.9,287.2,367.8,288.2z"/>
		</g>
	</g>
	<g>
		<g>
			<g>
				<path fill="#0C4589" d="M479.3,173.5c-16-5.2-32.4-5.3-49.2,0v-9.2c16.4-4.7,32.8-4.7,49.2,0V173.5z"/>
				<g>
					<path d="M479.7,172c-16.5-5.2-33.4-5.1-50,0c0.6,0.5,1.3,1,1.9,1.4c0-3.1,0-6.1,0-9.2c-0.4,0.5-0.7,1-1.1,1.4
						c16.1-4.4,32.3-4.4,48.4,0c-0.4-0.5-0.7-1-1.1-1.4c0,3.1,0,6.1,0,9.2c0,1.9,3,1.9,3,0c0-3.1,0-6.1,0-9.2c0-0.7-0.5-1.3-1.1-1.4
						c-16.6-4.5-33.4-4.6-50,0c-0.6,0.2-1.1,0.8-1.1,1.4c0,3.1,0,6.1,0,9.2c0,1,1,1.7,1.9,1.4c16.1-4.9,32.3-5,48.4,0
						C480.7,175.5,481.5,172.6,479.7,172z"/>
				</g>
			</g>
			<g>
				<path fill="#0C4589" d="M475.4,187.5c-13.9-9.5-29.6-14.2-47.2-13.9l2.6-8.8c17.1,0.1,32.8,4.8,47.2,13.9L475.4,187.5z"/>
				<g>
					<path d="M476.2,186.2c-14.4-9.6-30.7-14.3-48-14.1c0.5,0.6,0.9,1.3,1.4,1.9c0.9-2.9,1.7-5.9,2.6-8.8c-0.5,0.4-1,0.7-1.5,1.1
						c16.7,0.3,32.2,4.9,46.4,13.6c-0.2-0.6-0.4-1.1-0.6-1.7c-0.9,2.9-1.7,5.9-2.6,8.8c-0.5,1.9,2.3,2.7,2.9,0.8
						c0.9-2.9,1.7-5.9,2.6-8.8c0.2-0.6-0.1-1.4-0.6-1.7c-14.6-9-30.8-13.8-48-14.1c-0.7,0-1.3,0.4-1.5,1.1c-0.9,2.9-1.7,5.9-2.6,8.8
						c-0.3,0.9,0.4,1.9,1.4,1.9c16.8-0.2,32.5,4.3,46.4,13.6C476.3,189.9,477.8,187.3,476.2,186.2z"/>
				</g>
			</g>
			<g>
				<path fill="#0C4589" d="M467.8,199.9c-10.7-13.1-24.4-22-41.4-26.6l5-7.7c16.3,4.9,30.1,13.8,41.4,26.6L467.8,199.9z"/>
				<g>
					<path d="M468.9,198.9c-11.1-13.3-25.4-22.3-42-27c0.3,0.7,0.5,1.5,0.8,2.2c1.7-2.6,3.3-5.2,5-7.7c-0.6,0.2-1.1,0.4-1.7,0.6
						c15.9,5,29.6,13.8,40.7,26.2c0-0.6-0.1-1.2-0.1-1.8c-1.7,2.6-3.3,5.2-5,7.7c-1,1.6,1.5,3.2,2.5,1.6c1.7-2.6,3.3-5.2,5-7.7
						c0.4-0.6,0.3-1.3-0.1-1.8c-11.5-12.8-25.7-21.9-42-27c-0.6-0.2-1.4,0.1-1.7,0.6c-1.7,2.6-3.3,5.2-5,7.7c-0.5,0.8-0.1,2,0.8,2.2
						c16.2,4.5,29.9,13.2,40.7,26.2C467.9,202.4,470.2,200.4,468.9,198.9z"/>
				</g>
			</g>
			<g>
				<path fill="#0C4589" d="M457,209.6c-6.5-15.5-17.2-28-32.2-37.2l7-6c14.3,9.3,25,21.7,32.2,37.2L457,209.6z"/>
				<g>
					<path d="M458.4,209c-6.9-15.9-18.1-28.6-32.7-37.8c0.1,0.8,0.1,1.6,0.2,2.4c2.3-2,4.6-4,7-6c-0.6,0-1.2,0.1-1.8,0.1
						c13.9,9.3,24.5,21.5,31.7,36.6c0.1-0.6,0.2-1.2,0.4-1.8c-2.3,2-4.6,4-7,6c-1.5,1.3,0.5,3.5,2,2.3c2.3-2,4.6-4,7-6
						c0.5-0.4,0.7-1.2,0.4-1.8c-7.4-15.5-18.4-28.2-32.7-37.8c-0.5-0.4-1.3-0.3-1.8,0.1c-2.3,2-4.6,4-7,6c-0.7,0.6-0.7,1.9,0.2,2.4
						c14.2,8.9,25,21.1,31.7,36.6C456.4,212,459.1,210.7,458.4,209z"/>
				</g>
			</g>
			<g>
				<path fill="#0C4589" d="M443.9,215.9c-1.9-16.8-8.6-31.7-20.4-44.7l8.4-3.8c11.1,13,17.9,27.9,20.4,44.7L443.9,215.9z"/>
				<g>
					<path d="M445.4,215.7c-2.1-17.2-9.3-32.5-20.8-45.5c-0.2,0.8-0.4,1.6-0.5,2.3c2.8-1.3,5.6-2.5,8.4-3.8
						c-0.6-0.1-1.2-0.3-1.8-0.4c10.7,12.8,17.4,27.6,20.1,44c0.3-0.5,0.6-1.1,0.9-1.6c-2.8,1.3-5.6,2.5-8.4,3.8
						c-1.8,0.8-0.5,3.5,1.2,2.7c2.8-1.3,5.6-2.5,8.4-3.8c0.6-0.3,1-1,0.9-1.6c-2.8-16.9-9.7-32.3-20.8-45.5
						c-0.4-0.5-1.2-0.7-1.8-0.4c-2.8,1.3-5.6,2.5-8.4,3.8c-0.9,0.4-1.2,1.6-0.5,2.3c11.1,12.6,18,27.3,20.1,44
						C442.7,218.1,445.6,217.6,445.4,215.7z"/>
				</g>
			</g>
			<g>
				<path fill="#0C4589" d="M429.6,218.3c2.9-16.6,0.7-32.8-7-48.7l9.1-1.3c7,15.6,9.3,31.8,7,48.7L429.6,218.3z"/>
				<g>
					<path d="M431.1,218.5c2.8-17.1,0.3-33.8-7.1-49.5c-0.4,0.7-0.8,1.4-1.2,2.1c3-0.4,6.1-0.9,9.1-1.3c-0.5-0.3-1.1-0.6-1.6-0.9
						c6.7,15.3,8.9,31.4,6.9,47.9c0.4-0.4,0.8-0.9,1.3-1.3c-3,0.4-6.1,0.9-9.1,1.3c-1.9,0.3-1.5,3.2,0.4,3c3-0.4,6.1-0.9,9.1-1.3
						c0.7-0.1,1.2-0.6,1.3-1.3c2.1-17-0.2-33.7-7.1-49.5c-0.3-0.6-0.9-1-1.6-0.9c-3,0.4-6.1,0.9-9.1,1.3c-0.9,0.1-1.6,1.2-1.2,2.1
						c7.1,15.2,9.6,31.3,6.9,47.9C427.8,220,430.8,220.4,431.1,218.5z"/>
				</g>
			</g>
			<g>
				<path fill="#0C4589" d="M415.2,216.5c7.5-15.1,9.9-31.3,7-48.7l9.1,1.3c2.3,16.9-0.1,33.1-7,48.7L415.2,216.5z"/>
				<g>
					<path d="M416.5,217.1c7.5-15.6,9.8-32.4,7.1-49.5c-0.6,0.6-1.1,1.1-1.7,1.7c3,0.4,6.1,0.9,9.1,1.3c-0.4-0.4-0.8-0.9-1.3-1.3
						c2.1,16.5-0.3,32.6-6.9,47.9c0.5-0.3,1.1-0.6,1.6-0.9c-3-0.4-6.1-0.9-9.1-1.3c-1.9-0.3-2.3,2.7-0.4,3c3,0.4,6.1,0.9,9.1,1.3
						c0.7,0.1,1.3-0.3,1.6-0.9c6.8-15.8,9.3-32.4,7.1-49.5c-0.1-0.7-0.6-1.2-1.3-1.3c-3-0.4-6.1-0.9-9.1-1.3
						c-0.9-0.1-1.9,0.7-1.7,1.7c2.6,16.6,0.4,32.7-6.9,47.9C412.9,217.6,415.7,218.8,416.5,217.1z"/>
				</g>
			</g>
			<g>
				<path fill="#0C4589" d="M401.8,210.7c11.4-12.4,18.3-27.3,20.4-44.7l8.4,3.8c-2.5,16.9-9.4,31.8-20.4,44.7L401.8,210.7z"/>
				<g>
					<path d="M403,211.7c11.6-12.9,18.5-28.3,20.8-45.5c-0.7,0.4-1.4,0.8-2.1,1.1c2.8,1.3,5.6,2.5,8.4,3.8c-0.3-0.5-0.6-1.1-0.9-1.6
						c-2.7,16.5-9.4,31.2-20.1,44c0.6-0.1,1.2-0.3,1.8-0.4c-2.8-1.3-5.6-2.5-8.4-3.8c-1.8-0.8-3,1.9-1.2,2.7
						c2.8,1.3,5.6,2.5,8.4,3.8c0.6,0.3,1.4,0.1,1.8-0.4c11-13.2,18-28.5,20.8-45.5c0.1-0.7-0.3-1.3-0.9-1.6
						c-2.8-1.3-5.6-2.5-8.4-3.8c-0.9-0.4-2,0.2-2.1,1.1c-2.2,16.6-8.8,31.5-20.1,44C399.4,211.2,401.7,213.1,403,211.7z"/>
				</g>
			</g>
			<g>
				<path fill="#0C4589" d="M390.6,201.4c14.5-8.7,25.3-21,32.2-37.2l7,6c-7.2,15.5-18,27.8-32.2,37.2L390.6,201.4z"/>
				<g>
					<path d="M391.5,202.7c14.7-9.1,25.7-22,32.7-37.8c-0.8,0.2-1.6,0.3-2.3,0.5c2.3,2,4.6,4,7,6c-0.1-0.6-0.2-1.2-0.4-1.8
						c-7.2,15-17.8,27.3-31.7,36.6c0.6,0,1.2,0.1,1.8,0.1c-2.3-2-4.6-4-7-6c-1.5-1.3-3.4,1-2,2.3c2.3,2,4.6,4,7,6
						c0.5,0.4,1.3,0.5,1.8,0.1c14.3-9.6,25.3-22.3,32.7-37.8c0.3-0.6,0.1-1.3-0.4-1.8c-2.3-2-4.6-4-7-6c-0.7-0.6-1.9-0.4-2.3,0.5
						c-6.8,15.4-17.4,27.8-31.7,36.6C388.2,201.2,389.8,203.7,391.5,202.7z"/>
				</g>
			</g>
			<g>
				<path fill="#0C4589" d="M382.5,189.3c16.3-4.3,30.2-13,41.4-26.6l5,7.7c-11.3,12.8-25.1,21.6-41.4,26.6L382.5,189.3z"/>
				<g>
					<path d="M383,190.8c16.7-4.6,30.9-13.8,42-27c-0.8-0.1-1.6-0.1-2.4-0.2c1.7,2.6,3.3,5.2,5,7.7c0-0.6,0.1-1.2,0.1-1.8
						c-11.1,12.4-24.8,21.2-40.7,26.2c0.6,0.2,1.1,0.4,1.7,0.6c-1.7-2.6-3.3-5.2-5-7.7c-1-1.6-3.6,0-2.5,1.6c1.7,2.6,3.3,5.2,5,7.7
						c0.4,0.6,1.1,0.8,1.7,0.6c16.4-5.1,30.6-14.2,42-27c0.4-0.5,0.5-1.3,0.1-1.8c-1.7-2.6-3.3-5.2-5-7.7c-0.5-0.8-1.7-0.9-2.4-0.2
						c-10.9,12.8-24.5,21.7-40.7,26.2C380.2,188.4,381.1,191.3,383,190.8z"/>
				</g>
			</g>
			<g>
				<path fill="#0C4589" d="M378.2,175.5c16.9,0.5,32.6-4,47.2-13.9l2.6,8.8c-14.4,9.1-30.1,13.7-47.2,13.9L378.2,175.5z"/>
				<g>
					<path d="M378.2,177c17.3,0.3,33.5-4.6,48-14.1c-0.7-0.3-1.5-0.6-2.2-0.9c0.9,2.9,1.7,5.9,2.6,8.8c0.2-0.6,0.4-1.1,0.6-1.7
						c-14.2,8.8-29.8,13.3-46.4,13.6c0.5,0.4,1,0.7,1.5,1.1c-0.9-2.9-1.7-5.9-2.6-8.8c-0.5-1.9-3.4-1-2.9,0.8
						c0.9,2.9,1.7,5.9,2.6,8.8c0.2,0.6,0.8,1.1,1.5,1.1c17.2-0.3,33.4-5,48-14.1c0.6-0.3,0.8-1.1,0.6-1.7c-0.9-2.9-1.7-5.9-2.6-8.8
						c-0.3-0.9-1.4-1.4-2.2-0.9c-14,9.2-29.6,14-46.4,13.6C376.2,173.9,376.3,176.9,378.2,177z"/>
				</g>
			</g>
			<g>
				<path fill="#0C4589" d="M377.9,160.9c16,5.2,32.4,5.3,49.2,0v9.2c-16.4,4.7-32.8,4.7-49.2,0V160.9z"/>
				<g>
					<path d="M377.5,162.4c16.5,5.2,33.4,5.1,50,0c-0.6-0.5-1.3-1-1.9-1.4c0,3.1,0,6.1,0,9.2c0.4-0.5,0.7-1,1.1-1.4
						c-16.1,4.4-32.3,4.4-48.4,0c0.4,0.5,0.7,1,1.1,1.4c0-3.1,0-6.1,0-9.2c0-1.9-3-1.9-3,0c0,3.1,0,6.1,0,9.2c0,0.7,0.5,1.3,1.1,1.4
						c16.6,4.5,33.4,4.6,50,0c0.6-0.2,1.1-0.8,1.1-1.4c0-3.1,0-6.1,0-9.2c0-1-1-1.7-1.9-1.4c-16.1,4.9-32.3,5-48.4,0
						C376.4,158.9,375.6,161.8,377.5,162.4z"/>
				</g>
			</g>
			<g>
				<path fill="#0C4589" d="M381.7,146.9c13.9,9.5,29.6,14.2,47.2,13.9l-2.6,8.8c-17.1-0.1-32.8-4.8-47.2-13.9L381.7,146.9z"/>
				<g>
					<path d="M380.9,148.2c14.4,9.6,30.7,14.3,48,14.1c-0.5-0.6-0.9-1.3-1.4-1.9c-0.9,2.9-1.7,5.9-2.6,8.8c0.5-0.4,1-0.7,1.5-1.1
						c-16.7-0.3-32.2-4.9-46.4-13.6c0.2,0.6,0.4,1.1,0.6,1.7c0.9-2.9,1.7-5.9,2.6-8.8c0.5-1.9-2.3-2.7-2.9-0.8
						c-0.9,2.9-1.7,5.9-2.6,8.8c-0.2,0.6,0.1,1.4,0.6,1.7c14.6,9,30.8,13.8,48,14.1c0.7,0,1.3-0.4,1.5-1.1c0.9-2.9,1.7-5.9,2.6-8.8
						c0.3-0.9-0.4-1.9-1.4-1.9c-16.8,0.2-32.5-4.3-46.4-13.6C380.9,144.6,379.3,147.1,380.9,148.2z"/>
				</g>
			</g>
			<g>
				<path fill="#0C4589" d="M389.3,134.5c10.7,13.1,24.4,22,41.4,26.6l-5,7.7c-16.3-4.9-30.1-13.8-41.4-26.6L389.3,134.5z"/>
				<g>
					<path d="M388.2,135.5c11.1,13.3,25.4,22.3,42,27c-0.3-0.7-0.5-1.5-0.8-2.2c-1.7,2.6-3.3,5.2-5,7.7c0.6-0.2,1.1-0.4,1.7-0.6
						c-15.9-5-29.6-13.8-40.7-26.2c0,0.6,0.1,1.2,0.1,1.8c1.7-2.6,3.3-5.2,5-7.7c1-1.6-1.5-3.2-2.5-1.6c-1.7,2.6-3.3,5.2-5,7.7
						c-0.4,0.6-0.3,1.3,0.1,1.8c11.5,12.8,25.7,21.9,42,27c0.6,0.2,1.4-0.1,1.7-0.6c1.7-2.6,3.3-5.2,5-7.7c0.5-0.8,0.1-2-0.8-2.2
						c-16.2-4.5-29.9-13.2-40.7-26.2C389.2,132.1,387,134.1,388.2,135.5z"/>
				</g>
			</g>
			<g>
				<path fill="#0C4589" d="M400.1,124.8c6.5,15.5,17.2,28,32.2,37.2l-7,6c-14.3-9.3-25-21.7-32.2-37.2L400.1,124.8z"/>
				<g>
					<path d="M398.8,125.5c6.9,15.9,18.1,28.6,32.7,37.8c-0.1-0.8-0.1-1.6-0.2-2.4c-2.3,2-4.6,4-7,6c0.6,0,1.2-0.1,1.8-0.1
						c-13.9-9.3-24.5-21.5-31.7-36.6c-0.1,0.6-0.2,1.2-0.4,1.8c2.3-2,4.6-4,7-6c1.5-1.3-0.5-3.5-2-2.3c-2.3,2-4.6,4-7,6
						c-0.5,0.4-0.7,1.2-0.4,1.8c7.4,15.5,18.4,28.2,32.7,37.8c0.5,0.4,1.3,0.3,1.8-0.1c2.3-2,4.6-4,7-6c0.7-0.6,0.7-1.9-0.2-2.4
						c-14.2-8.9-25-21.1-31.7-36.6C400.7,122.4,398,123.7,398.8,125.5z"/>
				</g>
			</g>
			<g>
				<path fill="#0C4589" d="M413.2,118.5c1.9,16.8,8.6,31.7,20.4,44.7l-8.4,3.8c-11.1-13-17.9-27.9-20.4-44.7L413.2,118.5z"/>
				<g>
					<path d="M411.7,118.7c2.1,17.2,9.3,32.5,20.8,45.5c0.2-0.8,0.4-1.6,0.5-2.3c-2.8,1.3-5.6,2.5-8.4,3.8c0.6,0.1,1.2,0.3,1.8,0.4
						c-10.7-12.8-17.4-27.6-20.1-44c-0.3,0.5-0.6,1.1-0.9,1.6c2.8-1.3,5.6-2.5,8.4-3.8c1.8-0.8,0.5-3.5-1.2-2.7
						c-2.8,1.3-5.6,2.5-8.4,3.8c-0.6,0.3-1,1-0.9,1.6c2.8,16.9,9.7,32.3,20.8,45.5c0.4,0.5,1.2,0.7,1.8,0.4c2.8-1.3,5.6-2.5,8.4-3.8
						c0.9-0.4,1.2-1.6,0.5-2.3c-11.1-12.6-18-27.3-20.1-44C414.5,116.3,411.5,116.8,411.7,118.7z"/>
				</g>
			</g>
			<g>
				<path fill="#0C4589" d="M427.6,116.2c-2.9,16.6-0.7,32.8,7,48.7l-9.1,1.3c-7-15.6-9.3-31.8-7-48.7L427.6,116.2z"/>
				<g>
					<path d="M426.1,116c-2.8,17.1-0.3,33.8,7.1,49.5c0.4-0.7,0.8-1.4,1.2-2.1c-3,0.4-6.1,0.9-9.1,1.3c0.5,0.3,1.1,0.6,1.6,0.9
						c-6.7-15.3-8.9-31.4-6.9-47.9c-0.4,0.4-0.8,0.9-1.3,1.3c3-0.4,6.1-0.9,9.1-1.3c1.9-0.3,1.5-3.2-0.4-3c-3,0.4-6.1,0.9-9.1,1.3
						c-0.7,0.1-1.2,0.6-1.3,1.3c-2.1,17,0.2,33.7,7.1,49.5c0.3,0.6,0.9,1,1.6,0.9c3-0.4,6.1-0.9,9.1-1.3c0.9-0.1,1.6-1.2,1.2-2.1
						c-7.1-15.2-9.6-31.3-6.9-47.9C429.4,114.4,426.4,114.1,426.1,116z"/>
				</g>
			</g>
			<g>
				<path fill="#0C4589" d="M442,117.9c-7.5,15.1-9.9,31.3-7,48.7l-9.1-1.3c-2.3-16.9,0.1-33.1,7-48.7L442,117.9z"/>
				<g>
					<path d="M440.6,117.3c-7.5,15.6-9.8,32.4-7.1,49.5c0.6-0.6,1.1-1.1,1.7-1.7c-3-0.4-6.1-0.9-9.1-1.3c0.4,0.4,0.8,0.9,1.3,1.3
						c-2.1-16.5,0.3-32.6,6.9-47.9c-0.5,0.3-1.1,0.6-1.6,0.9c3,0.4,6.1,0.9,9.1,1.3c1.9,0.3,2.3-2.7,0.4-3c-3-0.4-6.1-0.9-9.1-1.3
						c-0.7-0.1-1.3,0.3-1.6,0.9c-6.8,15.8-9.3,32.4-7.1,49.5c0.1,0.7,0.6,1.2,1.3,1.3c3,0.4,6.1,0.9,9.1,1.3
						c0.9,0.1,1.9-0.7,1.7-1.7c-2.6-16.6-0.4-32.7,6.9-47.9C444.2,116.8,441.4,115.6,440.6,117.3z"/>
				</g>
			</g>
			<g>
				<path fill="#0C4589" d="M455.3,123.7c-11.4,12.4-18.3,27.3-20.4,44.7l-8.4-3.8c2.5-16.9,9.4-31.8,20.4-44.7L455.3,123.7z"/>
				<g>
					<path d="M454.2,122.7c-11.6,12.9-18.5,28.3-20.8,45.5c0.7-0.4,1.4-0.8,2.1-1.1c-2.8-1.3-5.6-2.5-8.4-3.8
						c0.3,0.5,0.6,1.1,0.9,1.6c2.7-16.5,9.4-31.2,20.1-44c-0.6,0.1-1.2,0.3-1.8,0.4c2.8,1.3,5.6,2.5,8.4,3.8c1.8,0.8,3-1.9,1.2-2.7
						c-2.8-1.3-5.6-2.5-8.4-3.8c-0.6-0.3-1.4-0.1-1.8,0.4c-11,13.2-18,28.5-20.8,45.5c-0.1,0.7,0.3,1.3,0.9,1.6
						c2.8,1.3,5.6,2.5,8.4,3.8c0.9,0.4,2-0.2,2.1-1.1c2.2-16.6,8.8-31.5,20.1-44C457.8,123.2,455.5,121.3,454.2,122.7z"/>
				</g>
			</g>
			<g>
				<path fill="#0C4589" d="M466.5,133c-14.5,8.7-25.3,21-32.2,37.2l-7-6c7.2-15.5,18-27.8,32.2-37.2L466.5,133z"/>
				<g>
					<path d="M465.7,131.8c-14.7,9.1-25.7,22-32.7,37.8c0.8-0.2,1.6-0.3,2.3-0.5c-2.3-2-4.6-4-7-6c0.1,0.6,0.2,1.2,0.4,1.8
						c7.2-15,17.8-27.3,31.7-36.6c-0.6,0-1.2-0.1-1.8-0.1c2.3,2,4.6,4,7,6c1.5,1.3,3.4-1,2-2.3c-2.3-2-4.6-4-7-6
						c-0.5-0.4-1.3-0.5-1.8-0.1c-14.3,9.6-25.3,22.3-32.7,37.8c-0.3,0.6-0.1,1.3,0.4,1.8c2.3,2,4.6,4,7,6c0.7,0.6,1.9,0.4,2.3-0.5
						c6.8-15.4,17.4-27.8,31.7-36.6C469,133.2,467.3,130.8,465.7,131.8z"/>
				</g>
			</g>
			<g>
				<path fill="#0C4589" d="M474.6,145.1c-16.3,4.3-30.2,13-41.4,26.6l-5-7.7c11.3-12.8,25.1-21.6,41.4-26.6L474.6,145.1z"/>
				<g>
					<path d="M474.1,143.6c-16.7,4.6-30.9,13.8-42,27c0.8,0.1,1.6,0.1,2.4,0.2c-1.7-2.6-3.3-5.2-5-7.7c0,0.6-0.1,1.2-0.1,1.8
						c11.1-12.4,24.8-21.2,40.7-26.2c-0.6-0.2-1.1-0.4-1.7-0.6c1.7,2.6,3.3,5.2,5,7.7c1,1.6,3.6,0,2.5-1.6c-1.7-2.6-3.3-5.2-5-7.7
						c-0.4-0.6-1.1-0.8-1.7-0.6c-16.4,5.1-30.6,14.2-42,27c-0.4,0.5-0.5,1.3-0.1,1.8c1.7,2.6,3.3,5.2,5,7.7c0.5,0.8,1.7,0.9,2.4,0.2
						c10.9-12.8,24.5-21.7,40.7-26.2C476.9,146,476,143.1,474.1,143.6z"/>
				</g>
			</g>
			<g>
				<path fill="#0C4589" d="M479,158.9c-16.9-0.5-32.6,4-47.2,13.9l-2.6-8.8c14.4-9.1,30.1-13.7,47.2-13.9L479,158.9z"/>
				<g>
					<path d="M478.9,157.4c-17.3-0.3-33.5,4.6-48,14.1c0.7,0.3,1.5,0.6,2.2,0.9c-0.9-2.9-1.7-5.9-2.6-8.8c-0.2,0.6-0.4,1.1-0.6,1.7
						c14.2-8.8,29.8-13.3,46.4-13.6c-0.5-0.4-1-0.7-1.5-1.1c0.9,2.9,1.7,5.9,2.6,8.8c0.5,1.9,3.4,1,2.9-0.8
						c-0.9-2.9-1.7-5.9-2.6-8.8c-0.2-0.6-0.8-1.1-1.5-1.1c-17.2,0.3-33.4,5-48,14.1c-0.6,0.3-0.8,1.1-0.6,1.7
						c0.9,2.9,1.7,5.9,2.6,8.8c0.3,0.9,1.4,1.4,2.2,0.9c14-9.2,29.6-14,46.4-13.6C480.9,160.5,480.9,157.5,478.9,157.4z"/>
				</g>
			</g>
			<g>
				<path fill="#0C4589" d="M479.3,173.5c-16-5.2-32.4-5.3-49.2,0v-9.2c16.4-4.7,32.8-4.7,49.2,0V173.5z"/>
				<g>
					<path d="M479.7,172c-16.5-5.2-33.4-5.1-50,0c0.6,0.5,1.3,1,1.9,1.4c0-3.1,0-6.1,0-9.2c-0.4,0.5-0.7,1-1.1,1.4
						c16.1-4.4,32.3-4.4,48.4,0c-0.4-0.5-0.7-1-1.1-1.4c0,3.1,0,6.1,0,9.2c0,1.9,3,1.9,3,0c0-3.1,0-6.1,0-9.2c0-0.7-0.5-1.3-1.1-1.4
						c-16.6-4.5-33.4-4.6-50,0c-0.6,0.2-1.1,0.8-1.1,1.4c0,3.1,0,6.1,0,9.2c0,1,1,1.7,1.9,1.4c16.1-4.9,32.3-5,48.4,0
						C480.7,175.5,481.5,172.6,479.7,172z"/>
				</g>
			</g>
		</g>
		<g>
			<g>
				<path fill="#0C4589" d="M458.5,174c-9.3-4.9-18.7-4.9-28.4,0v-11c9.7-3.5,19.2-3.5,28.4,0V174z"/>
				<g>
					<path d="M459.2,172.7c-10-4.9-19.9-4.8-29.9,0c0.8,0.4,1.5,0.9,2.3,1.3c0-3.7,0-7.3,0-11c-0.4,0.5-0.7,1-1.1,1.4
						c9.3-3.2,18.3-3.3,27.6,0c-0.4-0.5-0.7-1-1.1-1.4c0,3.7,0,7.3,0,11c0,1.9,3,1.9,3,0c0-3.7,0-7.3,0-11c0-0.7-0.5-1.2-1.1-1.4
						c-9.7-3.5-19.5-3.3-29.2,0c-0.6,0.2-1.1,0.8-1.1,1.4c0,3.7,0,7.3,0,11c0,1.2,1.3,1.8,2.3,1.3c9-4.3,17.9-4.4,26.9,0
						C459.5,176.1,461,173.5,459.2,172.7z"/>
				</g>
			</g>
			<g>
				<path fill="#0C4589" d="M448.8,190.2c-4.6-9.4-12.3-15-23-16.7l6.5-8.9c9.9,2.9,17.6,8.4,23,16.7L448.8,190.2z"/>
				<g>
					<path d="M450.2,189.6c-5.2-9.8-13.3-15.6-24.2-17.6c0.4,0.8,0.7,1.6,1.1,2.4c2.2-3,4.3-5.9,6.5-8.9c-0.6,0.2-1.2,0.3-1.7,0.5
						c9.4,2.9,16.8,8.1,22.3,16.2c0-0.6,0-1.2,0-1.8c-2.2,3-4.3,5.9-6.5,8.9c-1.1,1.6,1.3,3.3,2.4,1.8c2.2-3,4.3-5.9,6.5-8.9
						c0.4-0.6,0.3-1.3,0-1.8c-5.8-8.5-13.8-14.1-23.6-17.2c-0.6-0.2-1.3,0-1.7,0.5c-2.2,3-4.3,5.9-6.5,8.9c-0.7,1,0,2.2,1.1,2.4
						c9.8,1.8,17.1,7,21.8,15.8C448.3,192.5,451.1,191.3,450.2,189.6z"/>
				</g>
			</g>
			<g>
				<path fill="#0C4589" d="M431.4,197.7c1.8-10.3-1.1-19.3-8.8-27l10.5-3.4c6.3,8.1,9.3,17.1,8.8,27L431.4,197.7z"/>
				<g>
					<path d="M432.8,198c1.6-11-1.6-20.4-9.2-28.5c-0.2,0.8-0.4,1.7-0.5,2.5c3.5-1.1,7-2.3,10.5-3.4c-0.6-0.2-1.1-0.4-1.7-0.6
						c5.9,7.9,8.8,16.4,8.5,26.3c0.3-0.5,0.7-1,1-1.5c-3.5,1.1-7,2.3-10.5,3.4c-1.8,0.6-0.9,3.5,0.9,2.9c3.5-1.1,7-2.3,10.5-3.4
						c0.7-0.2,1-0.8,1-1.5c0.3-10.3-2.9-19.5-9-27.8c-0.4-0.5-1.1-0.8-1.7-0.6c-3.5,1.1-7,2.3-10.5,3.4c-1.1,0.4-1.3,1.7-0.5,2.5
						c6.9,7.2,9.7,15.7,8.3,25.6C429.6,199.3,432.6,200,432.8,198z"/>
				</g>
			</g>
			<g>
				<path fill="#0C4589" d="M412.9,193.5c7.5-7.3,10.5-16.3,8.8-27l10.5,3.4c0.3,10.3-2.6,19.3-8.8,27L412.9,193.5z"/>
				<g>
					<path d="M413.9,194.7c7.8-8,10.7-17.5,9.2-28.5c-0.6,0.6-1.3,1.2-1.9,1.7c3.5,1.1,7,2.3,10.5,3.4c-0.3-0.5-0.7-1-1-1.5
						c0.1,9.8-2.5,18.5-8.5,26.3c0.6-0.2,1.1-0.4,1.7-0.6c-3.5-1.1-7-2.3-10.5-3.4c-1.8-0.6-2.8,2.3-0.9,2.9c3.5,1.1,7,2.3,10.5,3.4
						c0.7,0.2,1.3-0.1,1.7-0.6c6.3-8.2,9.2-17.5,9-27.8c0-0.7-0.4-1.3-1-1.5c-3.5-1.1-7-2.3-10.5-3.4c-1.1-0.4-2.1,0.6-1.9,1.7
						c1.3,9.9-1.3,18.4-8.3,25.6C410.5,193.8,412.5,196,413.9,194.7z"/>
				</g>
			</g>
			<g>
				<path fill="#0C4589" d="M400.4,179.3c10.3-1.5,18-7,23-16.7l6.5,8.9c-5.8,8.5-13.4,14.1-23,16.7L400.4,179.3z"/>
				<g>
					<path d="M400.5,180.8c11-1.9,18.9-7.8,24.2-17.6c-0.9,0.1-1.7,0.2-2.6,0.3c2.2,3,4.3,5.9,6.5,8.9c0-0.6,0-1.2,0-1.8
						c-5.7,8-12.9,13.5-22.3,16.2c0.6,0.2,1.2,0.3,1.7,0.5c-2.2-3-4.3-5.9-6.5-8.9c-1.1-1.6-3.6,0.2-2.4,1.8c2.2,3,4.3,5.9,6.5,8.9
						c0.4,0.6,1.1,0.7,1.7,0.5c9.9-2.9,17.7-8.8,23.6-17.2c0.4-0.5,0.4-1.3,0-1.8c-2.2-3-4.3-5.9-6.5-8.9c-0.7-1-2.1-0.7-2.6,0.3
						c-4.7,8.8-11.9,14.1-21.8,15.8C398.3,178.1,398.6,181.1,400.5,180.8z"/>
				</g>
			</g>
			<g>
				<path fill="#0C4589" d="M398.7,160.4c9.3,4.9,18.7,4.9,28.4,0v11c-9.7,3.5-19.2,3.5-28.4,0V160.4z"/>
				<g>
					<path d="M397.9,161.7c10,4.9,19.9,4.8,29.9,0c-0.8-0.4-1.5-0.9-2.3-1.3c0,3.7,0,7.3,0,11c0.4-0.5,0.7-1,1.1-1.4
						c-9.3,3.2-18.3,3.3-27.6,0c0.4,0.5,0.7,1,1.1,1.4c0-3.7,0-7.3,0-11c0-1.9-3-1.9-3,0c0,3.7,0,7.3,0,11c0,0.7,0.5,1.2,1.1,1.4
						c9.7,3.5,19.5,3.3,29.2,0c0.6-0.2,1.1-0.8,1.1-1.4c0-3.7,0-7.3,0-11c0-1.2-1.3-1.8-2.3-1.3c-9,4.3-17.9,4.4-26.9,0
						C397.7,158.3,396.2,160.9,397.9,161.7z"/>
				</g>
			</g>
			<g>
				<path fill="#0C4589" d="M408.3,144.1c4.6,9.4,12.3,15,23,16.7l-6.5,8.9c-9.9-2.9-17.6-8.4-23-16.7L408.3,144.1z"/>
				<g>
					<path d="M407,144.7c5.2,9.8,13.3,15.6,24.2,17.6c-0.4-0.8-0.7-1.6-1.1-2.4c-2.2,3-4.3,5.9-6.5,8.9c0.6-0.2,1.2-0.3,1.7-0.5
						c-9.4-2.9-16.8-8.1-22.3-16.2c0,0.6,0,1.2,0,1.8c2.2-3,4.3-5.9,6.5-8.9c1.1-1.6-1.3-3.3-2.4-1.8c-2.2,3-4.3,5.9-6.5,8.9
						c-0.4,0.6-0.3,1.3,0,1.8c5.8,8.5,13.8,14.1,23.6,17.2c0.6,0.2,1.3,0,1.7-0.5c2.2-3,4.3-5.9,6.5-8.9c0.7-1,0-2.2-1.1-2.4
						c-9.8-1.8-17.1-7-21.8-15.8C408.8,141.8,406.1,143,407,144.7z"/>
				</g>
			</g>
			<g>
				<path fill="#0C4589" d="M425.8,136.6c-1.8,10.3,1.1,19.3,8.8,27l-10.5,3.4c-6.3-8.1-9.3-17.1-8.8-27L425.8,136.6z"/>
				<g>
					<path d="M424.3,136.3c-1.6,11,1.6,20.4,9.2,28.5c0.2-0.8,0.4-1.7,0.5-2.5c-3.5,1.1-7,2.3-10.5,3.4c0.6,0.2,1.1,0.4,1.7,0.6
						c-5.9-7.9-8.8-16.4-8.5-26.3c-0.3,0.5-0.7,1-1,1.5c3.5-1.1,7-2.3,10.5-3.4c1.8-0.6,0.9-3.5-0.9-2.9c-3.5,1.1-7,2.3-10.5,3.4
						c-0.7,0.2-1,0.8-1,1.5c-0.3,10.3,2.9,19.5,9,27.8c0.4,0.5,1.1,0.8,1.7,0.6c3.5-1.1,7-2.3,10.5-3.4c1.1-0.4,1.3-1.7,0.5-2.5
						c-6.9-7.2-9.7-15.7-8.3-25.6C427.5,135.1,424.6,134.4,424.3,136.3z"/>
				</g>
			</g>
			<g>
				<path fill="#0C4589" d="M444.3,140.8c-7.5,7.3-10.5,16.3-8.8,27l-10.5-3.4c-0.3-10.3,2.6-19.3,8.8-27L444.3,140.8z"/>
				<g>
					<path d="M443.3,139.7c-7.8,8-10.7,17.5-9.2,28.5c0.6-0.6,1.3-1.2,1.9-1.7c-3.5-1.1-7-2.3-10.5-3.4c0.3,0.5,0.7,1,1,1.5
						c-0.1-9.8,2.5-18.5,8.5-26.3c-0.6,0.2-1.1,0.4-1.7,0.6c3.5,1.1,7,2.3,10.5,3.4c1.8,0.6,2.8-2.3,0.9-2.9
						c-3.5-1.1-7-2.3-10.5-3.4c-0.7-0.2-1.3,0.1-1.7,0.6c-6.3,8.2-9.2,17.5-9,27.8c0,0.7,0.4,1.3,1,1.5c3.5,1.1,7,2.3,10.5,3.4
						c1.1,0.4,2.1-0.6,1.9-1.7c-1.3-9.9,1.3-18.4,8.3-25.6C446.6,140.6,444.6,138.3,443.3,139.7z"/>
				</g>
			</g>
			<g>
				<path fill="#0C4589" d="M456.8,155.1c-10.3,1.5-18,7-23,16.7l-6.5-8.9c5.8-8.5,13.4-14.1,23-16.7L456.8,155.1z"/>
				<g>
					<path d="M456.6,153.6c-11,1.9-18.9,7.8-24.2,17.6c0.9-0.1,1.7-0.2,2.6-0.3c-2.2-3-4.3-5.9-6.5-8.9c0,0.6,0,1.2,0,1.8
						c5.7-8,12.9-13.5,22.3-16.2c-0.6-0.2-1.2-0.3-1.7-0.5c2.2,3,4.3,5.9,6.5,8.9c1.1,1.6,3.6-0.2,2.4-1.8c-2.2-3-4.3-5.9-6.5-8.9
						c-0.4-0.6-1.1-0.7-1.7-0.5c-9.9,2.9-17.7,8.8-23.6,17.2c-0.4,0.5-0.4,1.3,0,1.8c2.2,3,4.3,5.9,6.5,8.9c0.7,1,2.1,0.7,2.6-0.3
						c4.7-8.8,11.9-14.1,21.8-15.8C458.8,156.2,458.5,153.3,456.6,153.6z"/>
				</g>
			</g>
			<g>
				<path fill="#0C4589" d="M458.5,174c-9.3-4.9-18.7-4.9-28.4,0v-11c9.7-3.5,19.2-3.5,28.4,0V174z"/>
				<g>
					<path d="M459.2,172.7c-10-4.9-19.9-4.8-29.9,0c0.8,0.4,1.5,0.9,2.3,1.3c0-3.7,0-7.3,0-11c-0.4,0.5-0.7,1-1.1,1.4
						c9.3-3.2,18.3-3.3,27.6,0c-0.4-0.5-0.7-1-1.1-1.4c0,3.7,0,7.3,0,11c0,1.9,3,1.9,3,0c0-3.7,0-7.3,0-11c0-0.7-0.5-1.2-1.1-1.4
						c-9.7-3.5-19.5-3.3-29.2,0c-0.6,0.2-1.1,0.8-1.1,1.4c0,3.7,0,7.3,0,11c0,1.2,1.3,1.8,2.3,1.3c9-4.3,17.9-4.4,26.9,0
						C459.5,176.1,461,173.5,459.2,172.7z"/>
				</g>
			</g>
		</g>
	</g>
	<g>
		<g>
			<g>
				<path fill="#0C4589" d="M110,328.9c-16-5.2-32.4-5.3-49.2,0v-9.2c16.4-4.7,32.8-4.7,49.2,0V328.9z"/>
				<g>
					<path d="M110.4,327.5c-16.5-5.2-33.4-5.1-50,0c0.6,0.5,1.3,1,1.9,1.4c0-3.1,0-6.1,0-9.2c-0.4,0.5-0.7,1-1.1,1.4
						c16.1-4.4,32.3-4.4,48.4,0c-0.4-0.5-0.7-1-1.1-1.4c0,3.1,0,6.1,0,9.2c0,1.9,3,1.9,3,0c0-3.1,0-6.1,0-9.2c0-0.7-0.5-1.3-1.1-1.4
						c-16.6-4.5-33.4-4.6-50,0c-0.6,0.2-1.1,0.8-1.1,1.4c0,3.1,0,6.1,0,9.2c0,1,1,1.7,1.9,1.4c16.1-4.9,32.3-5,48.4,0
						C111.5,330.9,112.3,328.1,110.4,327.5z"/>
				</g>
			</g>
			<g>
				<path fill="#0C4589" d="M106.2,342.9c-13.9-9.5-29.6-14.2-47.2-13.9l2.6-8.8c17.1,0.1,32.8,4.8,47.2,13.9L106.2,342.9z"/>
				<g>
					<path d="M107,341.7c-14.4-9.6-30.7-14.3-48-14.1c0.5,0.6,0.9,1.3,1.4,1.9c0.9-2.9,1.7-5.9,2.6-8.8c-0.5,0.4-1,0.7-1.5,1.1
						c16.7,0.3,32.2,4.9,46.4,13.6c-0.2-0.6-0.4-1.1-0.6-1.7c-0.9,2.9-1.7,5.9-2.6,8.8c-0.5,1.9,2.3,2.7,2.9,0.8
						c0.9-2.9,1.7-5.9,2.6-8.8c0.2-0.6-0.1-1.4-0.6-1.7c-14.6-9-30.8-13.8-48-14.1c-0.7,0-1.3,0.4-1.5,1.1c-0.9,2.9-1.7,5.9-2.6,8.8
						c-0.3,0.9,0.4,1.9,1.4,1.9c16.8-0.2,32.5,4.3,46.4,13.6C107,345.3,108.6,342.7,107,341.7z"/>
				</g>
			</g>
			<g>
				<path fill="#0C4589" d="M98.6,355.3c-10.7-13.1-24.4-22-41.4-26.6l5-7.7c16.3,4.9,30.1,13.8,41.4,26.6L98.6,355.3z"/>
				<g>
					<path d="M99.7,354.3c-11.1-13.3-25.4-22.3-42-27c0.3,0.7,0.5,1.5,0.8,2.2c1.7-2.6,3.3-5.2,5-7.7c-0.6,0.2-1.1,0.4-1.7,0.6
						c15.9,5,29.6,13.8,40.7,26.2c0-0.6-0.1-1.2-0.1-1.8c-1.7,2.6-3.3,5.2-5,7.7c-1,1.6,1.5,3.2,2.5,1.6c1.7-2.6,3.3-5.2,5-7.7
						c0.4-0.6,0.3-1.3-0.1-1.8c-11.5-12.8-25.7-21.9-42-27c-0.6-0.2-1.4,0.1-1.7,0.6c-1.7,2.6-3.3,5.2-5,7.7c-0.5,0.8-0.1,2,0.8,2.2
						c16.2,4.5,29.9,13.2,40.7,26.2C98.7,357.8,101,355.8,99.7,354.3z"/>
				</g>
			</g>
			<g>
				<path fill="#0C4589" d="M87.8,365.1c-6.5-15.5-17.2-28-32.2-37.2l7-6c14.3,9.3,25,21.7,32.2,37.2L87.8,365.1z"/>
				<g>
					<path d="M89.2,364.4c-6.9-15.9-18.1-28.6-32.7-37.8c0.1,0.8,0.1,1.6,0.2,2.4c2.3-2,4.6-4,7-6c-0.6,0-1.2,0.1-1.8,0.1
						c13.9,9.3,24.5,21.5,31.7,36.6c0.1-0.6,0.2-1.2,0.4-1.8c-2.3,2-4.6,4-7,6c-1.5,1.3,0.5,3.5,2,2.3c2.3-2,4.6-4,7-6
						c0.5-0.4,0.7-1.2,0.4-1.8c-7.4-15.5-18.4-28.2-32.7-37.8c-0.5-0.4-1.3-0.3-1.8,0.1c-2.3,2-4.6,4-7,6c-0.7,0.6-0.7,1.9,0.2,2.4
						c14.2,8.9,25,21.1,31.7,36.6C87.2,367.5,89.9,366.2,89.2,364.4z"/>
				</g>
			</g>
			<g>
				<path fill="#0C4589" d="M74.7,371.4c-1.9-16.8-8.6-31.7-20.4-44.7l8.4-3.8c11.1,13,17.9,27.9,20.4,44.7L74.7,371.4z"/>
				<g>
					<path d="M76.2,371.1c-2.1-17.2-9.3-32.5-20.8-45.5c-0.2,0.8-0.4,1.6-0.5,2.3c2.8-1.3,5.6-2.5,8.4-3.8c-0.6-0.1-1.2-0.3-1.8-0.4
						c10.7,12.8,17.4,27.6,20.1,44c0.3-0.5,0.6-1.1,0.9-1.6c-2.8,1.3-5.6,2.5-8.4,3.8c-1.8,0.8-0.5,3.5,1.2,2.7
						c2.8-1.3,5.6-2.5,8.4-3.8c0.6-0.3,1-1,0.9-1.6c-2.8-16.9-9.7-32.3-20.8-45.5c-0.4-0.5-1.2-0.7-1.8-0.4
						c-2.8,1.3-5.6,2.5-8.4,3.8c-0.9,0.4-1.2,1.6-0.5,2.3c11.1,12.6,18,27.3,20.1,44C73.5,373.5,76.4,373,76.2,371.1z"/>
				</g>
			</g>
			<g>
				<path fill="#0C4589" d="M60.4,373.7c2.9-16.6,0.7-32.8-7-48.7l9.1-1.3c7,15.6,9.3,31.8,7,48.7L60.4,373.7z"/>
				<g>
					<path d="M61.9,373.9c2.8-17.1,0.3-33.8-7.1-49.5c-0.4,0.7-0.8,1.4-1.2,2.1c3-0.4,6.1-0.9,9.1-1.3c-0.5-0.3-1.1-0.6-1.6-0.9
						c6.7,15.3,8.9,31.4,6.9,47.9c0.4-0.4,0.8-0.9,1.3-1.3c-3,0.4-6.1,0.9-9.1,1.3c-1.9,0.3-1.5,3.2,0.4,3c3-0.4,6.1-0.9,9.1-1.3
						c0.7-0.1,1.2-0.6,1.3-1.3c2.1-17-0.2-33.7-7.1-49.5c-0.3-0.6-0.9-1-1.6-0.9c-3,0.4-6.1,0.9-9.1,1.3c-0.9,0.1-1.6,1.2-1.2,2.1
						c7.1,15.2,9.6,31.3,6.9,47.9C58.6,375.4,61.5,375.8,61.9,373.9z"/>
				</g>
			</g>
			<g>
				<path fill="#0C4589" d="M45.9,371.9c7.5-15.1,9.9-31.3,7-48.7l9.1,1.3c2.3,16.9-0.1,33.1-7,48.7L45.9,371.9z"/>
				<g>
					<path d="M47.3,372.5c7.5-15.6,9.8-32.4,7.1-49.5c-0.6,0.6-1.1,1.1-1.7,1.7c3,0.4,6.1,0.9,9.1,1.3c-0.4-0.4-0.8-0.9-1.3-1.3
						c2.1,16.5-0.3,32.6-6.9,47.9c0.5-0.3,1.1-0.6,1.6-0.9c-3-0.4-6.1-0.9-9.1-1.3c-1.9-0.3-2.3,2.7-0.4,3c3,0.4,6.1,0.9,9.1,1.3
						c0.7,0.1,1.3-0.3,1.6-0.9c6.8-15.8,9.3-32.4,7.1-49.5c-0.1-0.7-0.6-1.2-1.3-1.3c-3-0.4-6.1-0.9-9.1-1.3
						c-0.9-0.1-1.9,0.7-1.7,1.7c2.6,16.6,0.4,32.7-6.9,47.9C43.7,373.1,46.5,374.3,47.3,372.5z"/>
				</g>
			</g>
			<g>
				<path fill="#0C4589" d="M32.6,366.2C44,353.8,50.9,338.9,53,321.4l8.4,3.8C58.9,342.1,52,357,41,370L32.6,366.2z"/>
				<g>
					<path d="M33.8,367.1c11.6-12.9,18.5-28.3,20.8-45.5c-0.7,0.4-1.4,0.8-2.1,1.1c2.8,1.3,5.6,2.5,8.4,3.8
						c-0.3-0.5-0.6-1.1-0.9-1.6c-2.7,16.5-9.4,31.2-20.1,44c0.6-0.1,1.2-0.3,1.8-0.4c-2.8-1.3-5.6-2.5-8.4-3.8
						c-1.8-0.8-3,1.9-1.2,2.7c2.8,1.3,5.6,2.5,8.4,3.8c0.6,0.3,1.4,0.1,1.8-0.4c11-13.2,18-28.5,20.8-45.5c0.1-0.7-0.3-1.3-0.9-1.6
						c-2.8-1.3-5.6-2.5-8.4-3.8c-0.9-0.4-2,0.2-2.1,1.1c-2.2,16.6-8.8,31.5-20.1,44C30.2,366.6,32.5,368.6,33.8,367.1z"/>
				</g>
			</g>
			<g>
				<path fill="#0C4589" d="M21.4,356.9c14.5-8.7,25.3-21,32.2-37.2l7,6c-7.2,15.5-18,27.8-32.2,37.2L21.4,356.9z"/>
				<g>
					<path d="M22.3,358.1C37,349,48,336.1,55,320.3c-0.8,0.2-1.6,0.3-2.3,0.5c2.3,2,4.6,4,7,6c-0.1-0.6-0.2-1.2-0.4-1.8
						c-7.2,15-17.8,27.3-31.7,36.6c0.6,0,1.2,0.1,1.8,0.1c-2.3-2-4.6-4-7-6c-1.5-1.3-3.4,1-2,2.3c2.3,2,4.6,4,7,6
						c0.5,0.4,1.3,0.5,1.8,0.1c14.3-9.6,25.3-22.3,32.7-37.8c0.3-0.6,0.1-1.3-0.4-1.8c-2.3-2-4.6-4-7-6c-0.7-0.6-1.9-0.4-2.3,0.5
						c-6.8,15.4-17.4,27.8-31.7,36.6C18.9,356.6,20.6,359.1,22.3,358.1z"/>
				</g>
			</g>
			<g>
				<path fill="#0C4589" d="M13.3,344.8c16.3-4.3,30.2-13,41.4-26.6l5,7.7c-11.3,12.8-25.1,21.6-41.4,26.6L13.3,344.8z"/>
				<g>
					<path d="M13.8,346.2c16.7-4.6,30.9-13.8,42-27c-0.8-0.1-1.6-0.1-2.4-0.2c1.7,2.6,3.3,5.2,5,7.7c0-0.6,0.1-1.2,0.1-1.8
						c-11.1,12.4-24.8,21.2-40.7,26.2c0.6,0.2,1.1,0.4,1.7,0.6c-1.7-2.6-3.3-5.2-5-7.7c-1-1.6-3.6,0-2.5,1.6c1.7,2.6,3.3,5.2,5,7.7
						c0.4,0.6,1.1,0.8,1.7,0.6c16.4-5.1,30.6-14.2,42-27c0.4-0.5,0.5-1.3,0.1-1.8c-1.7-2.6-3.3-5.2-5-7.7c-0.5-0.8-1.7-0.9-2.4-0.2
						c-10.9,12.8-24.5,21.7-40.7,26.2C11,343.9,11.9,346.7,13.8,346.2z"/>
				</g>
			</g>
			<g>
				<path fill="#0C4589" d="M9,330.9c16.9,0.5,32.6-4,47.2-13.9l2.6,8.8c-14.4,9.1-30.1,13.7-47.2,13.9L9,330.9z"/>
				<g>
					<path d="M9,332.4c17.3,0.3,33.5-4.6,48-14.1c-0.7-0.3-1.5-0.6-2.2-0.9c0.9,2.9,1.7,5.9,2.6,8.8c0.2-0.6,0.4-1.1,0.6-1.7
						c-14.2,8.8-29.8,13.3-46.4,13.6c0.5,0.4,1,0.7,1.5,1.1c-0.9-2.9-1.7-5.9-2.6-8.8c-0.5-1.9-3.4-1-2.9,0.8
						c0.9,2.9,1.7,5.9,2.6,8.8c0.2,0.6,0.8,1.1,1.5,1.1c17.2-0.3,33.4-5,48-14.1c0.6-0.3,0.8-1.1,0.6-1.7c-0.9-2.9-1.7-5.9-2.6-8.8
						c-0.3-0.9-1.4-1.4-2.2-0.9c-14,9.2-29.6,14-46.4,13.6C7,329.4,7.1,332.4,9,332.4z"/>
				</g>
			</g>
			<g>
				<path fill="#0C4589" d="M8.7,316.4c16,5.2,32.4,5.3,49.2,0v9.2c-16.4,4.7-32.8,4.7-49.2,0V316.4z"/>
				<g>
					<path d="M8.3,317.8c16.5,5.2,33.4,5.1,50,0c-0.6-0.5-1.3-1-1.9-1.4c0,3.1,0,6.1,0,9.2c0.4-0.5,0.7-1,1.1-1.4
						c-16.1,4.4-32.3,4.4-48.4,0c0.4,0.5,0.7,1,1.1,1.4c0-3.1,0-6.1,0-9.2c0-1.9-3-1.9-3,0c0,3.1,0,6.1,0,9.2c0,0.7,0.5,1.3,1.1,1.4
						c16.6,4.5,33.4,4.6,50,0c0.6-0.2,1.1-0.8,1.1-1.4c0-3.1,0-6.1,0-9.2c0-1-1-1.7-1.9-1.4c-16.1,4.9-32.3,5-48.4,0
						C7.2,314.4,6.4,317.3,8.3,317.8z"/>
				</g>
			</g>
			<g>
				<path fill="#0C4589" d="M12.5,302.4c13.9,9.5,29.6,14.2,47.2,13.9l-2.6,8.8c-17.1-0.1-32.8-4.8-47.2-13.9L12.5,302.4z"/>
				<g>
					<path d="M11.7,303.6c14.4,9.6,30.7,14.3,48,14.1c-0.5-0.6-0.9-1.3-1.4-1.9c-0.9,2.9-1.7,5.9-2.6,8.8c0.5-0.4,1-0.7,1.5-1.1
						c-16.7-0.3-32.2-4.9-46.4-13.6c0.2,0.6,0.4,1.1,0.6,1.7c0.9-2.9,1.7-5.9,2.6-8.8c0.5-1.9-2.3-2.7-2.9-0.8
						c-0.9,2.9-1.7,5.9-2.6,8.8c-0.2,0.6,0.1,1.4,0.6,1.7c14.6,9,30.8,13.8,48,14.1c0.7,0,1.3-0.4,1.5-1.1c0.9-2.9,1.7-5.9,2.6-8.8
						c0.3-0.9-0.4-1.9-1.4-1.9c-16.8,0.2-32.5-4.3-46.4-13.6C11.7,300,10.1,302.6,11.7,303.6z"/>
				</g>
			</g>
			<g>
				<path fill="#0C4589" d="M20.1,290c10.7,13.1,24.4,22,41.4,26.6l-5,7.7c-16.3-4.9-30.1-13.8-41.4-26.6L20.1,290z"/>
				<g>
					<path d="M19,291c11.1,13.3,25.4,22.3,42,27c-0.3-0.7-0.5-1.5-0.8-2.2c-1.7,2.6-3.3,5.2-5,7.7c0.6-0.2,1.1-0.4,1.7-0.6
						c-15.9-5-29.6-13.8-40.7-26.2c0,0.6,0.1,1.2,0.1,1.8c1.7-2.6,3.3-5.2,5-7.7c1-1.6-1.5-3.2-2.5-1.6c-1.7,2.6-3.3,5.2-5,7.7
						c-0.4,0.6-0.3,1.3,0.1,1.8c11.5,12.8,25.7,21.9,42,27c0.6,0.2,1.4-0.1,1.7-0.6c1.7-2.6,3.3-5.2,5-7.7c0.5-0.8,0.1-2-0.8-2.2
						C45.8,310.6,32,301.9,21.2,289C20,287.5,17.8,289.5,19,291z"/>
				</g>
			</g>
			<g>
				<path fill="#0C4589" d="M30.9,280.2c6.5,15.5,17.2,28,32.2,37.2l-7,6c-14.3-9.3-25-21.7-32.2-37.2L30.9,280.2z"/>
				<g>
					<path d="M29.5,280.9c6.9,15.9,18.1,28.6,32.7,37.8c-0.1-0.8-0.1-1.6-0.2-2.4c-2.3,2-4.6,4-7,6c0.6,0,1.2-0.1,1.8-0.1
						c-13.9-9.3-24.5-21.5-31.7-36.6c-0.1,0.6-0.2,1.2-0.4,1.8c2.3-2,4.6-4,7-6c1.5-1.3-0.5-3.5-2-2.3c-2.3,2-4.6,4-7,6
						c-0.5,0.4-0.7,1.2-0.4,1.8c7.4,15.5,18.4,28.2,32.7,37.8c0.5,0.4,1.3,0.3,1.8-0.1c2.3-2,4.6-4,7-6c0.7-0.6,0.7-1.9-0.2-2.4
						c-14.2-8.9-25-21.1-31.7-36.6C31.5,277.8,28.8,279.1,29.5,280.9z"/>
				</g>
			</g>
			<g>
				<path fill="#0C4589" d="M44,273.9c1.9,16.8,8.6,31.7,20.4,44.7l-8.4,3.8c-11.1-13-17.9-27.9-20.4-44.7L44,273.9z"/>
				<g>
					<path d="M42.5,274.2c2.1,17.2,9.3,32.5,20.8,45.5c0.2-0.8,0.4-1.6,0.5-2.3c-2.8,1.3-5.6,2.5-8.4,3.8c0.6,0.1,1.2,0.3,1.8,0.4
						c-10.7-12.8-17.4-27.6-20.1-44c-0.3,0.5-0.6,1.1-0.9,1.6c2.8-1.3,5.6-2.5,8.4-3.8c1.8-0.8,0.5-3.5-1.2-2.7
						c-2.8,1.3-5.6,2.5-8.4,3.8c-0.6,0.3-1,1-0.9,1.6c2.8,16.9,9.7,32.3,20.8,45.5c0.4,0.5,1.2,0.7,1.8,0.4c2.8-1.3,5.6-2.5,8.4-3.8
						c0.9-0.4,1.2-1.6,0.5-2.3c-11.1-12.6-18-27.3-20.1-44C45.2,271.8,42.3,272.3,42.5,274.2z"/>
				</g>
			</g>
			<g>
				<path fill="#0C4589" d="M58.3,271.6c-2.9,16.6-0.7,32.8,7,48.7l-9.1,1.3c-7-15.6-9.3-31.8-7-48.7L58.3,271.6z"/>
				<g>
					<path d="M56.9,271.4c-2.8,17.1-0.3,33.8,7.1,49.5c0.4-0.7,0.8-1.4,1.2-2.1c-3,0.4-6.1,0.9-9.1,1.3c0.5,0.3,1.1,0.6,1.6,0.9
						c-6.7-15.3-8.9-31.4-6.9-47.9c-0.4,0.4-0.8,0.9-1.3,1.3c3-0.4,6.1-0.9,9.1-1.3c1.9-0.3,1.5-3.2-0.4-3c-3,0.4-6.1,0.9-9.1,1.3
						c-0.7,0.1-1.2,0.6-1.3,1.3c-2.1,17,0.2,33.7,7.1,49.5c0.3,0.6,0.9,1,1.6,0.9c3-0.4,6.1-0.9,9.1-1.3c0.9-0.1,1.6-1.2,1.2-2.1
						c-7.1-15.2-9.6-31.3-6.9-47.9C60.1,269.9,57.2,269.5,56.9,271.4z"/>
				</g>
			</g>
			<g>
				<path fill="#0C4589" d="M72.8,273.4c-7.5,15.1-9.9,31.3-7,48.7l-9.1-1.3c-2.3-16.9,0.1-33.1,7-48.7L72.8,273.4z"/>
				<g>
					<path d="M71.4,272.8c-7.5,15.6-9.8,32.4-7.1,49.5c0.6-0.6,1.1-1.1,1.7-1.7c-3-0.4-6.1-0.9-9.1-1.3c0.4,0.4,0.8,0.9,1.3,1.3
						C56.1,304,58.4,288,65,272.7c-0.5,0.3-1.1,0.6-1.6,0.9c3,0.4,6.1,0.9,9.1,1.3c1.9,0.3,2.3-2.7,0.4-3c-3-0.4-6.1-0.9-9.1-1.3
						c-0.7-0.1-1.3,0.3-1.6,0.9c-6.8,15.8-9.3,32.4-7.1,49.5c0.1,0.7,0.6,1.2,1.3,1.3c3,0.4,6.1,0.9,9.1,1.3
						c0.9,0.1,1.9-0.7,1.7-1.7c-2.6-16.6-0.4-32.7,6.9-47.9C75,272.2,72.2,271,71.4,272.8z"/>
				</g>
			</g>
			<g>
				<path fill="#0C4589" d="M86.1,279.2c-11.4,12.4-18.3,27.3-20.4,44.7l-8.4-3.8c2.5-16.9,9.4-31.8,20.4-44.7L86.1,279.2z"/>
				<g>
					<path d="M85,278.2c-11.6,12.9-18.5,28.3-20.8,45.5c0.7-0.4,1.4-0.8,2.1-1.1c-2.8-1.3-5.6-2.5-8.4-3.8c0.3,0.5,0.6,1.1,0.9,1.6
						c2.7-16.5,9.4-31.2,20.1-44c-0.6,0.1-1.2,0.3-1.8,0.4c2.8,1.3,5.6,2.5,8.4,3.8c1.8,0.8,3-1.9,1.2-2.7c-2.8-1.3-5.6-2.5-8.4-3.8
						c-0.6-0.3-1.4-0.1-1.8,0.4c-11,13.2-18,28.5-20.8,45.5c-0.1,0.7,0.3,1.3,0.9,1.6c2.8,1.3,5.6,2.5,8.4,3.8
						c0.9,0.4,2-0.2,2.1-1.1c2.2-16.6,8.8-31.5,20.1-44C88.6,278.7,86.2,276.8,85,278.2z"/>
				</g>
			</g>
			<g>
				<path fill="#0C4589" d="M97.3,288.5c-14.5,8.7-25.3,21-32.2,37.2l-7-6c7.2-15.5,18-27.8,32.2-37.2L97.3,288.5z"/>
				<g>
					<path d="M96.4,287.2c-14.7,9.1-25.7,22-32.7,37.8c0.8-0.2,1.6-0.3,2.3-0.5c-2.3-2-4.6-4-7-6c0.1,0.6,0.2,1.2,0.4,1.8
						c7.2-15,17.8-27.3,31.7-36.6c-0.6,0-1.2-0.1-1.8-0.1c2.3,2,4.6,4,7,6c1.5,1.3,3.4-1,2-2.3c-2.3-2-4.6-4-7-6
						c-0.5-0.4-1.3-0.5-1.8-0.1c-14.3,9.6-25.3,22.3-32.7,37.8c-0.3,0.6-0.1,1.3,0.4,1.8c2.3,2,4.6,4,7,6c0.7,0.6,1.9,0.4,2.3-0.5
						c6.8-15.4,17.4-27.8,31.7-36.6C99.8,288.7,98.1,286.2,96.4,287.2z"/>
				</g>
			</g>
			<g>
				<path fill="#0C4589" d="M105.4,300.5c-16.3,4.3-30.2,13-41.4,26.6l-5-7.7c11.3-12.8,25.1-21.6,41.4-26.6L105.4,300.5z"/>
				<g>
					<path d="M104.9,299.1c-16.7,4.6-30.9,13.8-42,27c0.8,0.1,1.6,0.1,2.4,0.2c-1.7-2.6-3.3-5.2-5-7.7c0,0.6-0.1,1.2-0.1,1.8
						c11.1-12.4,24.8-21.2,40.7-26.2c-0.6-0.2-1.1-0.4-1.7-0.6c1.7,2.6,3.3,5.2,5,7.7c1,1.6,3.6,0,2.5-1.6c-1.7-2.6-3.3-5.2-5-7.7
						c-0.4-0.6-1.1-0.8-1.7-0.6c-16.4,5.1-30.6,14.2-42,27c-0.4,0.5-0.5,1.3-0.1,1.8c1.7,2.6,3.3,5.2,5,7.7c0.5,0.8,1.7,0.9,2.4,0.2
						c10.9-12.8,24.5-21.7,40.7-26.2C107.7,301.4,106.8,298.6,104.9,299.1z"/>
				</g>
			</g>
			<g>
				<path fill="#0C4589" d="M109.8,314.4c-16.9-0.5-32.6,4-47.2,13.9l-2.6-8.8c14.4-9.1,30.1-13.7,47.2-13.9L109.8,314.4z"/>
				<g>
					<path d="M109.7,312.9c-17.3-0.3-33.5,4.6-48,14.1c0.7,0.3,1.5,0.6,2.2,0.9c-0.9-2.9-1.7-5.9-2.6-8.8c-0.2,0.6-0.4,1.1-0.6,1.7
						c14.2-8.8,29.8-13.3,46.4-13.6c-0.5-0.4-1-0.7-1.5-1.1c0.9,2.9,1.7,5.9,2.6,8.8c0.5,1.9,3.4,1,2.9-0.8
						c-0.9-2.9-1.7-5.9-2.6-8.8c-0.2-0.6-0.8-1.1-1.5-1.1c-17.2,0.3-33.4,5-48,14.1c-0.6,0.3-0.8,1.1-0.6,1.7
						c0.9,2.9,1.7,5.9,2.6,8.8c0.3,0.9,1.4,1.4,2.2,0.9c14-9.2,29.6-14,46.4-13.6C111.7,315.9,111.7,312.9,109.7,312.9z"/>
				</g>
			</g>
			<g>
				<path fill="#0C4589" d="M110,328.9c-16-5.2-32.4-5.3-49.2,0v-9.2c16.4-4.7,32.8-4.7,49.2,0V328.9z"/>
				<g>
					<path d="M110.4,327.5c-16.5-5.2-33.4-5.1-50,0c0.6,0.5,1.3,1,1.9,1.4c0-3.1,0-6.1,0-9.2c-0.4,0.5-0.7,1-1.1,1.4
						c16.1-4.4,32.3-4.4,48.4,0c-0.4-0.5-0.7-1-1.1-1.4c0,3.1,0,6.1,0,9.2c0,1.9,3,1.9,3,0c0-3.1,0-6.1,0-9.2c0-0.7-0.5-1.3-1.1-1.4
						c-16.6-4.5-33.4-4.6-50,0c-0.6,0.2-1.1,0.8-1.1,1.4c0,3.1,0,6.1,0,9.2c0,1,1,1.7,1.9,1.4c16.1-4.9,32.3-5,48.4,0
						C111.5,330.9,112.3,328.1,110.4,327.5z"/>
				</g>
			</g>
		</g>
		<g>
			<g>
				<path fill="#0C4589" d="M89.3,329.4c-9.3-4.9-18.7-4.9-28.4,0v-11c9.7-3.5,19.2-3.5,28.4,0V329.4z"/>
				<g>
					<path d="M90,328.1c-10-4.9-19.9-4.8-29.9,0c0.8,0.4,1.5,0.9,2.3,1.3c0-3.7,0-7.3,0-11c-0.4,0.5-0.7,1-1.1,1.4
						c9.3-3.2,18.3-3.3,27.6,0c-0.4-0.5-0.7-1-1.1-1.4c0,3.7,0,7.3,0,11c0,1.9,3,1.9,3,0c0-3.7,0-7.3,0-11c0-0.7-0.5-1.2-1.1-1.4
						c-9.7-3.5-19.5-3.3-29.2,0c-0.6,0.2-1.1,0.8-1.1,1.4c0,3.7,0,7.3,0,11c0,1.2,1.3,1.8,2.3,1.3c9-4.3,17.9-4.4,26.9,0
						C90.2,331.5,91.8,329,90,328.1z"/>
				</g>
			</g>
			<g>
				<path fill="#0C4589" d="M79.6,345.7c-4.6-9.4-12.3-15-23-16.7l6.5-8.9c9.9,2.9,17.6,8.4,23,16.7L79.6,345.7z"/>
				<g>
					<path d="M81,345.1c-5.2-9.8-13.3-15.6-24.2-17.6c0.4,0.8,0.7,1.6,1.1,2.4c2.2-3,4.3-5.9,6.5-8.9c-0.6,0.2-1.2,0.3-1.7,0.5
						c9.4,2.9,16.8,8.1,22.3,16.2c0-0.6,0-1.2,0-1.8c-2.2,3-4.3,5.9-6.5,8.9c-1.1,1.6,1.3,3.3,2.4,1.8c2.2-3,4.3-5.9,6.5-8.9
						c0.4-0.6,0.3-1.3,0-1.8c-5.8-8.5-13.8-14.1-23.6-17.2c-0.6-0.2-1.3,0-1.7,0.5c-2.2,3-4.3,5.9-6.5,8.9c-0.7,1,0,2.2,1.1,2.4
						c9.8,1.8,17.1,7,21.8,15.8C79.1,348,81.9,346.8,81,345.1z"/>
				</g>
			</g>
			<g>
				<path fill="#0C4589" d="M62.2,353.2c1.8-10.3-1.1-19.3-8.8-27l10.5-3.4c6.3,8.1,9.3,17.1,8.8,27L62.2,353.2z"/>
				<g>
					<path d="M63.6,353.5c1.6-11-1.6-20.4-9.2-28.5c-0.2,0.8-0.4,1.7-0.5,2.5c3.5-1.1,7-2.3,10.5-3.4c-0.6-0.2-1.1-0.4-1.7-0.6
						c5.9,7.9,8.8,16.4,8.5,26.3c0.3-0.5,0.7-1,1-1.5c-3.5,1.1-7,2.3-10.5,3.4c-1.8,0.6-0.9,3.5,0.9,2.9c3.5-1.1,7-2.3,10.5-3.4
						c0.7-0.2,1-0.8,1-1.5c0.3-10.3-2.9-19.5-9-27.8c-0.4-0.5-1.1-0.8-1.7-0.6c-3.5,1.1-7,2.3-10.5,3.4c-1.1,0.4-1.3,1.7-0.5,2.5
						c6.9,7.2,9.7,15.7,8.3,25.6C60.4,354.8,63.3,355.4,63.6,353.5z"/>
				</g>
			</g>
			<g>
				<path fill="#0C4589" d="M43.7,349c7.5-7.3,10.5-16.3,8.8-27l10.5,3.4c0.3,10.3-2.6,19.3-8.8,27L43.7,349z"/>
				<g>
					<path d="M44.7,350.1c7.8-8,10.7-17.5,9.2-28.5c-0.6,0.6-1.3,1.2-1.9,1.7c3.5,1.1,7,2.3,10.5,3.4c-0.3-0.5-0.7-1-1-1.5
						c0.1,9.8-2.5,18.5-8.5,26.3c0.6-0.2,1.1-0.4,1.7-0.6c-3.5-1.1-7-2.3-10.5-3.4c-1.8-0.6-2.8,2.3-0.9,2.9c3.5,1.1,7,2.3,10.5,3.4
						c0.7,0.2,1.3-0.1,1.7-0.6c6.3-8.2,9.2-17.5,9-27.8c0-0.7-0.4-1.3-1-1.5c-3.5-1.1-7-2.3-10.5-3.4c-1.1-0.4-2.1,0.6-1.9,1.7
						c1.3,9.9-1.3,18.4-8.3,25.6C41.3,349.2,43.3,351.5,44.7,350.1z"/>
				</g>
			</g>
			<g>
				<path fill="#0C4589" d="M31.2,334.7c10.3-1.5,18-7,23-16.7l6.5,8.9c-5.8,8.5-13.4,14.1-23,16.7L31.2,334.7z"/>
				<g>
					<path d="M31.3,336.2c11-1.9,18.9-7.8,24.2-17.6c-0.9,0.1-1.7,0.2-2.6,0.3c2.2,3,4.3,5.9,6.5,8.9c0-0.6,0-1.2,0-1.8
						c-5.7,8-12.9,13.5-22.3,16.2c0.6,0.2,1.2,0.3,1.7,0.5c-2.2-3-4.3-5.9-6.5-8.9c-1.1-1.6-3.6,0.2-2.4,1.8c2.2,3,4.3,5.9,6.5,8.9
						c0.4,0.6,1.1,0.7,1.7,0.5c9.9-2.9,17.7-8.8,23.6-17.2c0.4-0.5,0.4-1.3,0-1.8c-2.2-3-4.3-5.9-6.5-8.9c-0.7-1-2.1-0.7-2.6,0.3
						c-4.7,8.8-11.9,14.1-21.8,15.8C29.1,333.6,29.4,336.6,31.3,336.2z"/>
				</g>
			</g>
			<g>
				<path fill="#0C4589" d="M29.4,315.9c9.3,4.9,18.7,4.9,28.4,0v11c-9.7,3.5-19.2,3.5-28.4,0V315.9z"/>
				<g>
					<path d="M28.7,317.1c10,4.9,19.9,4.8,29.9,0c-0.8-0.4-1.5-0.9-2.3-1.3c0,3.7,0,7.3,0,11c0.4-0.5,0.7-1,1.1-1.4
						c-9.3,3.2-18.3,3.3-27.6,0c0.4,0.5,0.7,1,1.1,1.4c0-3.7,0-7.3,0-11c0-1.9-3-1.9-3,0c0,3.7,0,7.3,0,11c0,0.7,0.5,1.2,1.1,1.4
						c9.7,3.5,19.5,3.3,29.2,0c0.6-0.2,1.1-0.8,1.1-1.4c0-3.7,0-7.3,0-11c0-1.2-1.3-1.8-2.3-1.3c-9,4.3-17.9,4.4-26.9,0
						C28.5,313.7,26.9,316.3,28.7,317.1z"/>
				</g>
			</g>
			<g>
				<path fill="#0C4589" d="M39.1,299.6c4.6,9.4,12.3,15,23,16.7l-6.5,8.9c-9.9-2.9-17.6-8.4-23-16.7L39.1,299.6z"/>
				<g>
					<path d="M37.8,300.2c5.2,9.8,13.3,15.6,24.2,17.6c-0.4-0.8-0.7-1.6-1.1-2.4c-2.2,3-4.3,5.9-6.5,8.9c0.6-0.2,1.2-0.3,1.7-0.5
						c-9.4-2.9-16.8-8.1-22.3-16.2c0,0.6,0,1.2,0,1.8c2.2-3,4.3-5.9,6.5-8.9c1.1-1.6-1.3-3.3-2.4-1.8c-2.2,3-4.3,5.9-6.5,8.9
						c-0.4,0.6-0.3,1.3,0,1.8c5.8,8.5,13.8,14.1,23.6,17.2c0.6,0.2,1.3,0,1.7-0.5c2.2-3,4.3-5.9,6.5-8.9c0.7-1,0-2.2-1.1-2.4
						c-9.8-1.8-17.1-7-21.8-15.8C39.6,297.3,36.9,298.5,37.8,300.2z"/>
				</g>
			</g>
			<g>
				<path fill="#0C4589" d="M56.5,292.1c-1.8,10.3,1.1,19.3,8.8,27l-10.5,3.4c-6.3-8.1-9.3-17.1-8.8-27L56.5,292.1z"/>
				<g>
					<path d="M55.1,291.8c-1.6,11,1.6,20.4,9.2,28.5c0.2-0.8,0.4-1.7,0.5-2.5c-3.5,1.1-7,2.3-10.5,3.4c0.6,0.2,1.1,0.4,1.7,0.6
						c-5.9-7.9-8.8-16.4-8.5-26.3c-0.3,0.5-0.7,1-1,1.5c3.5-1.1,7-2.3,10.5-3.4c1.8-0.6,0.9-3.5-0.9-2.9c-3.5,1.1-7,2.3-10.5,3.4
						c-0.7,0.2-1,0.8-1,1.5c-0.3,10.3,2.9,19.5,9,27.8c0.4,0.5,1.1,0.8,1.7,0.6c3.5-1.1,7-2.3,10.5-3.4c1.1-0.4,1.3-1.7,0.5-2.5
						c-6.9-7.2-9.7-15.7-8.3-25.6C58.3,290.5,55.4,289.8,55.1,291.8z"/>
				</g>
			</g>
			<g>
				<path fill="#0C4589" d="M75,296.3c-7.5,7.3-10.5,16.3-8.8,27l-10.5-3.4c-0.3-10.3,2.6-19.3,8.8-27L75,296.3z"/>
				<g>
					<path d="M74,295.1c-7.8,8-10.7,17.5-9.2,28.5c0.6-0.6,1.3-1.2,1.9-1.7c-3.5-1.1-7-2.3-10.5-3.4c0.3,0.5,0.7,1,1,1.5
						c-0.1-9.8,2.5-18.5,8.5-26.3c-0.6,0.2-1.1,0.4-1.7,0.6c3.5,1.1,7,2.3,10.5,3.4c1.8,0.6,2.8-2.3,0.9-2.9
						c-3.5-1.1-7-2.3-10.5-3.4c-0.7-0.2-1.3,0.1-1.7,0.6c-6.3,8.2-9.2,17.5-9,27.8c0,0.7,0.4,1.3,1,1.5c3.5,1.1,7,2.3,10.5,3.4
						c1.1,0.4,2.1-0.6,1.9-1.7c-1.3-9.9,1.3-18.4,8.3-25.6C77.4,296,75.4,293.8,74,295.1z"/>
				</g>
			</g>
			<g>
				<path fill="#0C4589" d="M87.5,310.5c-10.3,1.5-18,7-23,16.7l-6.5-8.9c5.8-8.5,13.4-14.1,23-16.7L87.5,310.5z"/>
				<g>
					<path d="M87.4,309c-11,1.9-18.9,7.8-24.2,17.6c0.9-0.1,1.7-0.2,2.6-0.3c-2.2-3-4.3-5.9-6.5-8.9c0,0.6,0,1.2,0,1.8
						c5.7-8,12.9-13.5,22.3-16.2c-0.6-0.2-1.2-0.3-1.7-0.5c2.2,3,4.3,5.9,6.5,8.9c1.1,1.6,3.6-0.2,2.4-1.8c-2.2-3-4.3-5.9-6.5-8.9
						c-0.4-0.6-1.1-0.7-1.7-0.5c-9.9,2.9-17.7,8.8-23.6,17.2c-0.4,0.5-0.4,1.3,0,1.8c2.2,3,4.3,5.9,6.5,8.9c0.7,1,2.1,0.7,2.6-0.3
						c4.7-8.8,11.9-14.1,21.8-15.8C89.6,311.7,89.3,308.7,87.4,309z"/>
				</g>
			</g>
			<g>
				<path fill="#0C4589" d="M89.3,329.4c-9.3-4.9-18.7-4.9-28.4,0v-11c9.7-3.5,19.2-3.5,28.4,0V329.4z"/>
				<g>
					<path d="M90,328.1c-10-4.9-19.9-4.8-29.9,0c0.8,0.4,1.5,0.9,2.3,1.3c0-3.7,0-7.3,0-11c-0.4,0.5-0.7,1-1.1,1.4
						c9.3-3.2,18.3-3.3,27.6,0c-0.4-0.5-0.7-1-1.1-1.4c0,3.7,0,7.3,0,11c0,1.9,3,1.9,3,0c0-3.7,0-7.3,0-11c0-0.7-0.5-1.2-1.1-1.4
						c-9.7-3.5-19.5-3.3-29.2,0c-0.6,0.2-1.1,0.8-1.1,1.4c0,3.7,0,7.3,0,11c0,1.2,1.3,1.8,2.3,1.3c9-4.3,17.9-4.4,26.9,0
						C90.2,331.5,91.8,329,90,328.1z"/>
				</g>
			</g>
		</g>
	</g>
</g>
<g id="Layer_2">
	<g>
		<g id="ENFJ_4_1_">
			<g>
				<polygon fill="#0C4589" points="256.8,135.1 250,102.1 267.3,135.1 				"/>
				<g>
					<path d="M258.2,134.7c-2.3-11-4.5-22-6.8-33c-0.9,0.4-1.8,0.8-2.7,1.2c5.8,11,11.6,22,17.3,33c0.4-0.8,0.9-1.5,1.3-2.3
						c-3.5,0-7,0-10.6,0c-1.9,0-1.9,3,0,3c3.5,0,7,0,10.6,0c1.2,0,1.8-1.3,1.3-2.3c-5.8-11-11.6-22-17.3-33
						c-0.8-1.6-3.1-0.4-2.7,1.2c2.3,11,4.5,22,6.8,33C255.7,137.4,258.6,136.6,258.2,134.7z"/>
				</g>
			</g>
			<g>
				<polygon fill="#308DD8" points="250,168.1 256.8,135.1 267.3,135.1 				"/>
				<g>
					<path d="M251.4,168.5c2.3-11,4.5-22,6.8-33c-0.5,0.4-1,0.7-1.4,1.1c3.5,0,7,0,10.6,0c-0.4-0.8-0.9-1.5-1.3-2.3
						c-5.8,11-11.6,22-17.3,33c-0.9,1.7,1.7,3.2,2.6,1.5c5.8-11,11.6-22,17.3-33c0.5-1-0.1-2.3-1.3-2.3c-3.5,0-7,0-10.6,0
						c-0.6,0-1.3,0.5-1.4,1.1c-2.3,11-4.5,22-6.8,33C248.2,169.6,251,170.4,251.4,168.5z"/>
				</g>
			</g>
			<g>
				<polygon fill="#A0EAA7" points="232.7,135.1 250,102.1 256.8,135.1 				"/>
				<g>
					<path d="M234,135.8c5.8-11,11.6-22,17.3-33c-0.9-0.1-1.8-0.2-2.7-0.4c2.2,11,4.5,22,6.7,33c0.5-0.6,1-1.3,1.4-1.9
						c-8,0-16,0-24.1,0c-1.9,0-1.9,3,0,3c8,0,16,0,24.1,0c1,0,1.6-1,1.4-1.9c-2.2-11-4.5-22-6.7-33c-0.3-1.3-2.2-1.5-2.7-0.4
						c-5.8,11-11.6,22-17.3,33C230.5,136,233.1,137.6,234,135.8z"/>
				</g>
			</g>
			<g>
				<polygon fill="#D9FFDA" points="250,168.1 232.7,135.1 256.8,135.1 				"/>
				<g>
					<path d="M251.3,167.3c-5.8-11-11.6-22-17.3-33c-0.4,0.8-0.9,1.5-1.3,2.3c8,0,16,0,24.1,0c-0.5-0.6-1-1.3-1.4-1.9
						c-2.2,11-4.5,22-6.7,33c-0.4,1.9,2.5,2.7,2.9,0.8c2.2-11,4.5-22,6.7-33c0.2-0.9-0.4-1.9-1.4-1.9c-8,0-16,0-24.1,0
						c-1.2,0-1.8,1.3-1.3,2.3c5.8,11,11.6,22,17.3,33C249.6,170.6,252.2,169,251.3,167.3z"/>
				</g>
			</g>
		</g>
	</g>
</g>
</svg>
