<?xml version="1.0" encoding="utf-8"?>
<!-- Generator: Adobe Illustrator 18.1.1, SVG Export Plug-In . SVG Version: 6.00 Build 0)  -->
<svg version="1.1" xmlns="http://www.w3.org/2000/svg" xmlns:xlink="http://www.w3.org/1999/xlink" x="0px" y="0px"
	 viewBox="0 0 500 500" enable-background="new 0 0 500 500" xml:space="preserve">
<g id="Layer_1">
	<g>
		<g>
			<g>
				<path fill="#FFFFFF" d="M457.4,195.4c10.9,10.3,0.4,30.2-8.4,40l-68.4,75.1c-9.1,10-23.8,11.5-32.4,3.3l-2.7-2.5
					c-8.7-8.2-8-22.9,1.4-32.6L418,206C427.2,196.6,446.5,185.1,457.4,195.4z"/>
				<g>
					<path d="M455.6,197.1c10.6,10.8-1.5,28.8-9.4,37.5c-5.7,6.2-11.4,12.5-17,18.7c-15.6,17.1-31.1,34.2-46.7,51.3
						c-7.5,8.2-18,16.2-29.4,9.6c-13.8-7.9-13.8-24.2-3.3-35c14.8-15.2,29.7-30.3,44.5-45.4c7.7-7.9,15.4-15.7,23.1-23.6
						C425.9,201.6,443.6,186.7,455.6,197.1c2.4,2.1,6-1.4,3.5-3.5c-13.5-11.7-32.9,0.6-43.2,10.9c-5.9,5.9-11.7,12-17.6,18
						c-17.2,17.6-34.4,35.1-51.6,52.7c-9.3,9.5-14.3,24.5-4.9,35.9c10.9,13.3,28.8,13.5,40.6,1c15.3-16.2,30-32.9,45-49.4
						c7.5-8.2,15-16.4,22.5-24.7c9.8-10.8,22-31.4,9.3-44.4C456.9,191.3,453.4,194.8,455.6,197.1z"/>
				</g>
			</g>
		</g>
		<g>
			<g>
				<path fill="#FFDB53" d="M426.2,264.4l-43.1,46.9c-10.1,11.1-26.4,12.7-36.2,3.5l-3-2.8c-9.7-9.2-9.1-25.6,1.5-36.3l43.8-44.8
					L426.2,264.4z"/>
				<g>
					<path d="M424.4,262.6c-14.4,15.6-28.5,31.6-43.1,46.9c-8.6,9-22.6,12.3-32.6,3.5c-7.3-6.4-11-14.8-8.1-24.6
						c1.8-6,5.8-10.2,10-14.5c4.6-4.7,9.1-9.3,13.7-14c8.9-9.1,17.8-18.2,26.8-27.3c-1.2,0-2.4,0-3.5,0c12.3,11.2,24.7,22.3,37,33.5
						c2.4,2.2,5.9-1.4,3.5-3.5c-12.3-11.2-24.7-22.3-37-33.5c-1-0.9-2.6-1-3.5,0c-8.6,8.8-17.1,17.5-25.7,26.3
						c-5,5.1-9.9,10.1-14.9,15.2c-4.4,4.5-8.5,9.1-10.6,15.2c-6.9,19.6,10.7,40.6,31.3,37c13.7-2.5,22.8-15.6,31.7-25.3
						c9.6-10.5,19.2-20.9,28.9-31.4C430.2,263.8,426.6,260.2,424.4,262.6z"/>
				</g>
			</g>
		</g>
		<g>
			
				<rect x="381.2" y="242.1" transform="matrix(-0.7254 -0.6883 0.6883 -0.7254 530.6699 708.7158)" fill="#FFDB53" width="51" height="12.8"/>
			<g>
				<path d="M382,237.4c12.3,11.7,24.7,23.4,37,35.1c1,0.9,2.6,1,3.5,0c2.9-3.1,5.9-6.2,8.8-9.3c0.9-1,1-2.6,0-3.5
					c-12.3-11.7-24.7-23.4-37-35.1c-1-0.9-2.6-1-3.5,0c-2.9,3.1-5.9,6.2-8.8,9.3c-2.2,2.3,1.3,5.9,3.5,3.5c2.9-3.1,5.9-6.2,8.8-9.3
					c-1.2,0-2.4,0-3.5,0c12.3,11.7,24.7,23.4,37,35.1c0-1.2,0-2.4,0-3.5c-2.9,3.1-5.9,6.2-8.8,9.3c1.2,0,2.4,0,3.5,0
					c-12.3-11.7-24.7-23.4-37-35.1C383.2,231.6,379.7,235.1,382,237.4z"/>
			</g>
		</g>
		<g>
			
				<rect x="402.2" y="220.8" transform="matrix(-0.7254 -0.6883 0.6883 -0.7254 581.5497 686.4561)" fill="#F789A3" width="51" height="12.8"/>
			<g>
				<path d="M403.7,215.4c12.3,11.7,24.7,23.4,37,35.1c0.6,0.5,1.6,0.6,2.1,0c2.9-3.1,5.9-6.2,8.8-9.3c0.5-0.6,0.6-1.6,0-2.1
					c-12.3-11.7-24.7-23.4-37-35.1c-0.6-0.5-1.6-0.6-2.1,0c-2.9,3.1-5.9,6.2-8.8,9.3c-1.3,1.4,0.8,3.5,2.1,2.1
					c2.9-3.1,5.9-6.2,8.8-9.3c-0.7,0-1.4,0-2.1,0c12.3,11.7,24.7,23.4,37,35.1c0-0.7,0-1.4,0-2.1c-2.9,3.1-5.9,6.2-8.8,9.3
					c0.7,0,1.4,0,2.1,0c-12.3-11.7-24.7-23.4-37-35.1C404.4,211.9,402.3,214,403.7,215.4z"/>
			</g>
		</g>
		<g>
			
				<rect x="396.6" y="204.2" transform="matrix(0.6986 -0.7155 0.7155 0.6986 -26.3174 353.6948)" fill="#FFDB53" width="20.2" height="7.7"/>
			<g>
				<path d="M415.4,202.5c-4.7,4.8-9.4,9.6-14.1,14.4c0.7,0,1.4,0,2.1,0c-1.8-1.8-3.7-3.6-5.5-5.4c0,0.7,0,1.4,0,2.1
					c4.7-4.8,9.4-9.6,14.1-14.4c-0.7,0-1.4,0-2.1,0c1.8,1.8,3.7,3.6,5.5,5.4c1.4,1.3,3.5-0.8,2.1-2.1c-1.8-1.8-3.7-3.6-5.5-5.4
					c-0.6-0.6-1.5-0.6-2.1,0c-4.7,4.8-9.4,9.6-14.1,14.4c-0.6,0.6-0.6,1.5,0,2.1c1.8,1.8,3.7,3.6,5.5,5.4c0.6,0.6,1.5,0.6,2.1,0
					c4.7-4.8,9.4-9.6,14.1-14.4C418.9,203.2,416.8,201.1,415.4,202.5z"/>
			</g>
		</g>
	</g>
	<g>
		<path fill="#875222" d="M130,232.9c-4.9,0.1-11.5-100.1,0-110.9c9.3-8.8,16.5-11,16.5-11s2.8-24.3,41.8-24.8s46-28.8,46-28.8
			s4.8,4.3,4,15.8c0,0,10.1-16.5,10.5-28.5c0,0,10.5,13.3,15.5,30l4.6-20c0,0,10.1,20.3,39.6,31s50.3,17.7,58,31
			c8.4,14.5,5.1,121.1,2.5,121.1"/>
		<g>
			<path d="M130,230.4c2.4,0.3,1.2,1.2,1.2-0.1c-0.1-1-0.6-2.3-0.8-3.3c-0.7-3.1-1.1-6.3-1.5-9.5c-1.1-9.5-1.8-19.1-2.2-28.7
				c-0.9-18.8-2.2-39.5,2.2-58c2-8.6,10-14.8,18.3-17.5c1.2-0.4,1.7-1.3,1.8-2.4c-0.1,1.1,0.4-1.7,0.6-2.3c0.7-2.1,1.8-4.2,3.1-6
				c5.3-7.3,14-11.1,22.6-12.8c12.6-2.5,25.1-0.8,37.2-6c7.4-3.2,13.8-8.2,18.5-14.8c2.4-3.3,4.5-7.1,5.5-11
				c-1.4,0.4-2.8,0.7-4.2,1.1c3.5,3.3,3.4,9.7,3.3,14c-0.1,2.5,3.4,3.3,4.7,1.3c5.4-8.9,10.2-19.3,10.9-29.8
				c-1.4,0.6-2.8,1.2-4.3,1.8c6.1,7.8,11.7,18.8,14.8,28.9c0.7,2.3,4.2,2.5,4.8,0c1.5-6.7,3.1-13.3,4.6-20c-1.5,0.2-3,0.4-4.6,0.6
				c6.3,12.4,19.3,22,31.4,28c12.3,6.1,25.8,9.7,38.5,15c9.2,3.8,20,8.4,26.2,16.7c2.9,3.8,3.6,8.4,4.2,13c1,7.2,1.4,14.5,1.8,21.8
				c0.8,17.2,0.7,34.5,0.3,51.8c-0.2,7.8-0.5,15.7-1,23.5c-0.2,2.6-0.3,5.2-0.6,7.7c-0.1,0.6-0.3,1.5-0.3,2.1
				c0.1,1.8-1.3,0.5,1.2-0.2c-3.1,0.8-1.8,5.6,1.3,4.8c2.8-0.7,2.7-5.5,2.9-7.6c0.6-5.9,0.9-11.9,1.1-17.9
				c0.7-17.7,0.9-35.4,0.5-53.1c-0.3-13.7,0.1-29.2-4-42.4c-2.1-6.6-7.5-11.5-13-15.2c-10.1-6.9-22.1-11-33.4-15.2
				c-19.4-7.2-42.6-15.3-52.7-35.2c-1-1.9-4.1-1.4-4.6,0.6c-1.5,6.7-3.1,13.3-4.6,20c1.6,0,3.2,0,4.8,0
				c-3.5-11.1-8.9-21.9-16.1-31.1c-1.5-1.9-4.1-0.2-4.3,1.8c-0.6,9.6-5.3,19.1-10.2,27.2c1.6,0.4,3.1,0.8,4.7,1.3
				c0.2-5.7-0.2-13.3-4.7-17.5c-1.3-1.3-3.7-0.8-4.2,1.1c-3,11.9-14.6,20.7-25.7,24.2c-12.6,4-26,1.6-38.6,5.8
				c-7.5,2.5-14.4,6.8-19,13.3c-2.2,3.2-4,6.9-4.5,10.8c0.6-0.8,1.2-1.6,1.8-2.4c-4.5,1.4-8.6,4.3-12.3,7.1
				c-3.7,2.9-6.7,5.4-8.3,9.8c-3,8.2-3.3,17.6-3.7,26.1c-1.1,22.6-0.2,45.7,2.7,68.1c0.5,3.7,0.5,15.1,5.9,15.7
				C133.2,235.8,133.2,230.8,130,230.4L130,230.4z"/>
		</g>
	</g>
	<g>
		<path fill="#FFDB53" d="M137.2,307.3l8.2-9.7c8.2-8.6,6.4-22.2-2.1-30.3l-1-0.9c-8.6-8.2-22.2-7.8-30.3,0.7l-30.2,31.7
			c-12.5,13.1-13.7,29.4-3.3,44.1"/>
		<g>
			<path d="M138.9,309.1c7.1-8.4,15.6-16.1,14-28.1c-1.9-14.6-16.6-25.9-31.2-22.3c-9.1,2.2-15.1,10.4-21.3,16.9
				c-6.7,7-13.4,13.9-20,21c-13,13.8-14.9,31.8-4.2,47.7c1.8,2.7,6.1,0.2,4.3-2.5c-9.3-13.8-8.3-29.2,3.1-41.4
				c4.9-5.2,9.9-10.4,14.8-15.6c4.9-5.2,9.7-10.5,14.8-15.5c10.1-10,25.7-6.9,32.3,5.4c3.9,7.3,2.9,15.3-2.4,21.5
				c-2.6,3.1-5.3,6.2-7.9,9.4C133.3,308,136.9,311.5,138.9,309.1L138.9,309.1z"/>
		</g>
	</g>
	<path fill="#FFFFFF" d="M381.1,349.2c-0.2-6-2.6-18-5.4-31.8l-0.1-0.5c-3-14.8-6.6-33.2-6.8-41.2c-0.1-5,0.1-12.2,0.1-19.8v-0.4
		c0-15.6,0.1-37.1-1.4-51.2c-1.2-11.5-5.6-40.7-19.2-62.5c-12.6-20.2-27.9-33.2-47.9-41.4c-18.4-7.4-52.1-8.3-53-8.3
		c-8.6,0-30.7,0.7-49.1,8.1c-20.1,8.1-35.3,21.3-47.9,41.5c-13.6,21.8-17.9,51-19.1,62.5c-1.5,14.1-1.4,35.5-1.2,51.2l0,3.6
		c0,6.3,0,12.3-0.1,16.6c-0.2,8.1-3.9,26.5-6.9,41.3l-0.1,0.6c-2.7,13.8-5.1,25.7-5.4,31.7c-0.6,15.4,3.8,25.7,14.9,35.8
		c7.1,6.4,14,9.5,21.7,9.5c4.1,0,7.8-0.8,11.9-1.8c1.1-0.3,2.3-0.6,3.5-1.1c4,2.2,11.7,5.6,21.7,5.6c6.5,0,14.1-1.4,22.4-5.4
		c4.8,3.9,9.7,7.5,9.7,7.5c12.9,7.3,24,8.8,25.6,8.8h0.4c1.6,0,12.7-0.9,26.1-8.8c0,0,4.3-3.1,8.8-6.7c7.7,3.4,14.7,4.6,20.8,4.6
		c10.9,0,19-3.9,22.7-6.1c1.8,0.7,3.3,1.3,4.9,1.7c4,1,7.7,1.8,11.8,1.8c7.8,0,14.4-2.9,21.6-9.5C377.4,375,381.7,364.6,381.1,349.2
		z"/>
	<path fill="#FFDE83" d="M374.6,326.1H121.9l7.9-66.7c77.6,11.2,157.5,11.4,239.9,0L374.6,326.1z"/>
	<g>
		<path fill="#E29542" d="M373.3,334.5c-86.3,11.3-170.1,11.4-251.3,0l1-15c81.2,11.4,165,11.3,251.3,0L373.3,334.5z"/>
		<g>
			<path d="M373.3,332c-64.7,8.4-130.1,10.9-195.1,6c-18.6-1.4-37.1-3.4-55.5-5.9c0.6,0.8,1.2,1.6,1.8,2.4c0.3-5,0.7-10,1-15
				c-1.1,0.8-2.1,1.6-3.2,2.4c64.3,8.9,129.4,10.7,194.1,6c19.4-1.4,38.7-3.4,57.9-5.9c-0.8-0.8-1.7-1.7-2.5-2.5c-0.3,5-0.7,10-1,15
				c-0.2,3.2,4.8,3.2,5,0c0.3-5,0.7-10,1-15c0.1-1.2-1.2-2.7-2.5-2.5c-64.7,8.4-130.1,10.9-195.1,6c-18.6-1.4-37.1-3.4-55.5-5.9
				c-1.7-0.2-3,0.6-3.2,2.4c-0.3,5-0.7,10-1,15c-0.1,1,0.8,2.3,1.8,2.4c64.3,8.9,129.4,10.7,194.1,6c19.4-1.4,38.7-3.4,57.9-5.9
				C376.5,336.6,376.5,331.6,373.3,332z"/>
		</g>
	</g>
	<path fill="#FFDB53" d="M120.5,334.5c0,0,142.6,16.5,256.5,0c0,0,13.1,46.6-18.8,55.9c-31.9,9.3-38.6-14.8-57.3-9.1
		c-18.6,5.8-30.6,26.2-54,26.6s-38-26.6-51.7-27.9c-13.7-1.3-18.1,15.6-48.8,13S121.6,365.1,120.5,334.5z"/>
	<path fill="#C8C8C8" d="M285.5,389.9c0,0,8-6.1,16.8-7c8.8-1,23.8,5.5,23.8,5.5s-4.9,10-14.2,9.8
		C302.5,397.9,285.5,389.9,285.5,389.9z"/>
	<path fill="#C8C8C8" d="M169.6,389.9c0,0,8-6.1,16.8-7s23.8,5.5,23.8,5.5s-4.9,10-14.2,9.8S169.6,389.9,169.6,389.9z"/>
	<path d="M383.3,351.5c-0.2-6.1-2.7-18.4-5.5-32.5l-0.1-0.5c-3-15.1-6.1-33.9-6.4-42.1c-0.1-5.1,0.7-12.5,0.7-20.3v-0.4
		c0-16-0.4-37.9-2-52.2c-1.2-11.8-6-41.6-19.9-63.8c-12.9-20.6-28.6-33.9-49.1-42.2c-18.8-7.6-53.2-8.4-54.2-8.4
		c-8.8,0-31.4,0.7-50.1,8.3c-20.5,8.3-36.1,21.7-48.9,42.3c-13.9,22.2-18.3,52.1-19.6,63.8c-1.5,14.4-1.4,36.3-1.3,52.3l0,3.7
		c0,6.5,0,12.5-0.1,16.9c-0.2,8.3-4,27-7,42.1l-0.2,0.6c-2.8,14.1-5.2,26.3-5.5,32.4c-0.6,15.7,3.8,26.3,15.2,36.6
		c7.3,6.6,14.3,9.7,22.1,9.7c4.2,0,8-0.8,12.1-1.9c1.1-0.3,2.3-0.7,3.5-1.1c4.1,2.3,11.9,5.7,22.2,5.7c6.7,0,14.4-1.4,22.9-5.5
		c4.9,4,9.9,7.4,10,7.4c13.2,7.5,24.5,8.7,26.2,8.7h0.4c1.7,0,13-0.7,26.7-8.7c0,0,4.4-3,8.9-6.7c7.8,3.5,15,4.8,21.3,4.8
		c11.2,0,19.4-4,23.2-6.2c1.8,0.7,3.4,1.3,5,1.7c4.1,1,7.9,1.9,12.1,1.9c7.9,0,14.7-3,22.1-9.6C379.5,377.8,383.9,367.2,383.3,351.5
		z M176,391c6.1-2.6,13.6-5.5,20.1-5.5c4.4,0,7.6,1.3,10.4,4.1l0.2,0.2C193.5,395.3,182.7,393.5,176,391z M290.5,390.5
		c0.3-0.3,0.6-0.5,0.8-0.8c2.8-2.8,6-4.2,10.4-4.2c6.1,0,13,2.5,18.9,5C314.1,393.1,303.5,395.3,290.5,390.5z M363.2,382.7
		c-6,5.4-11.1,7.8-17.2,7.8c-3.4,0-6.6-0.7-10.4-1.6c-2-0.5-4.5-1.6-7.7-3l-0.5-0.2c-7-3.2-16.7-7.4-25.8-7.4
		c-6.3,0-11.3,2.1-15.6,6.3c-11,11.2-21.9,15.7-29.1,17.5c-0.1,0-7.1,1.9-15.2-0.3c-8.2-2.3-19.2-6.1-30.1-17.2
		c-4.1-4.2-9.2-6.3-15.6-6.3c-9,0-18.6,4.2-25.9,7.4l-0.3,0.1c-3.3,1.4-5.8,2.6-7.9,3.1c-3.8,0.9-7,1.6-10.4,1.6
		c-6,0-11.3-2.4-17.2-7.8c-9.8-8.9-13.3-17.3-12.8-30.9c0.2-5.5,2.6-17.4,5.4-31.2l0.1-0.6c3.2-16.1,6.9-34.4,7.2-43.4
		c0.1-4.5,0.1-10.6,0.1-17.1l0-3.7c-0.1-15.8-0.3-37.5,1.2-51.4c1.2-11.3,5.4-39.8,18.5-60.7c12-19.3,26.5-31.8,45.4-39.5
		c17.6-7.1,39-8.2,47.4-8.2c0.8,0,33.8,0.8,51.4,7.9c19,7.7,33.4,20.4,45.5,39.6c13.1,21,18.1,49.5,19.3,60.8
		c1.5,14,2.1,35.7,2.1,51.5v0.4c0,7.8-0.9,15.2-0.8,20.4c0.2,8.9,3.5,27.2,6.8,43.4l-0.1,0.5c2.8,13.8,5.1,25.8,5.3,31.3
		C376.6,365.4,373,373.8,363.2,382.7z"/>
	<path d="M324.2,191.9c0,10.6-8.6,19.1-19.1,19.1c-10.6,0-19.1-8.6-19.1-19.1c0-0.9,0.1-1.8,0.2-2.6c1.2,0.8,2.6,1.3,4.1,1.3
		c4,0,7.2-3.2,7.2-7.2c0-2.9-1.7-5.4-4.1-6.5c3.2-2.5,7.3-4,11.7-4C315.6,172.8,324.2,181.4,324.2,191.9z"/>
	<path d="M214.1,191.9c0,10.6-8.6,19.1-19.1,19.1c-10.6,0-19.1-8.6-19.1-19.1c0-0.9,0.1-1.8,0.2-2.6c1.2,0.8,2.6,1.3,4.1,1.3
		c4,0,7.2-3.2,7.2-7.2c0-2.9-1.7-5.4-4.1-6.5c3.2-2.5,7.3-4,11.7-4C205.5,172.8,214.1,181.4,214.1,191.9z"/>
	
		<ellipse transform="matrix(0.7169 -0.6971 0.6971 0.7169 -112.2272 180.7014)" fill="#F68694" cx="166.4" cy="228.6" rx="7.4" ry="3.4"/>
	
		<ellipse transform="matrix(0.7169 -0.6971 0.6971 0.7169 -109.0657 190.8302)" fill="#F68694" cx="180.5" cy="229.7" rx="7.4" ry="3.4"/>
	
		<ellipse transform="matrix(0.7169 -0.6971 0.6971 0.7169 -105.0878 200.6274)" fill="#F68694" cx="194.5" cy="229.7" rx="7.4" ry="3.4"/>
	
		<ellipse transform="matrix(-0.7169 -0.6971 0.6971 -0.7169 413.1115 627.1812)" fill="#F68694" cx="333.9" cy="229.7" rx="7.4" ry="3.4"/>
	
		<ellipse transform="matrix(-0.7169 -0.6971 0.6971 -0.7169 388.1657 619.3947)" fill="#F68694" cx="319.8" cy="230.9" rx="7.4" ry="3.4"/>
	
		<ellipse transform="matrix(-0.7169 -0.6971 0.6971 -0.7169 364.0363 609.5975)" fill="#F68694" cx="305.8" cy="230.9" rx="7.4" ry="3.4"/>
	<g>
		<g>
			<path d="M129.6,270.9c79.5,11.6,160.2,10.9,239.8,0c1.9-0.3,1.1-3.2-0.8-2.9c-79,10.8-159.3,11.5-238.2,0
				C128.5,267.8,127.7,270.7,129.6,270.9L129.6,270.9z"/>
		</g>
	</g>
	<g>
		<g>
			<path d="M129.3,261.9c79.7,11.6,160.6,10.9,240.3,0c3.2-0.4,1.8-5.3-1.3-4.8c-78.8,10.8-158.9,11.5-237.7,0
				C127.5,256.6,126.2,261.4,129.3,261.9L129.3,261.9z"/>
		</g>
	</g>
	<g>
		<g>
			<path d="M122.3,321.9c64.3,8.9,129.4,10.7,194.1,6c19.4-1.4,38.7-3.4,57.9-5.9c3.1-0.4,3.2-5.4,0-5c-64.7,8.4-130.1,10.9-195.1,6
				c-18.6-1.4-37.1-3.4-55.5-5.9C120.5,316.7,119.2,321.5,122.3,321.9L122.3,321.9z"/>
		</g>
	</g>
	<g>
		<g>
			<path d="M350.5,339.1c0.7,14.5,6.5,38.8,25.7,35.1c3.2-0.6,1.8-5.4-1.3-4.8c-15,2.9-18.8-19.6-19.3-30.3
				C355.3,335.9,350.3,335.9,350.5,339.1L350.5,339.1z"/>
		</g>
	</g>
	<g>
		<g>
			<path d="M121.3,336.9c64.3,8.9,129.4,10.7,194.1,6c19.4-1.4,38.7-3.4,57.9-5.9c3.1-0.4,3.2-5.4,0-5c-64.7,8.4-130.1,10.9-195.1,6
				c-18.6-1.4-37.1-3.4-55.5-5.9C119.5,331.7,118.2,336.5,121.3,336.9L121.3,336.9z"/>
		</g>
	</g>
	<g>
		<g>
			<path d="M143,339.1c-0.5,10.7-4.4,33.2-19.3,30.3c-3.1-0.6-4.5,4.2-1.3,4.8c19.2,3.7,25-20.6,25.7-35.1
				C148.2,335.9,143.2,335.9,143,339.1L143,339.1z"/>
		</g>
	</g>
	<g>
		<path fill="#FFDB53" d="M205,263.6l-79.4-9c0,0,1.2,29-0.3,41.3c-1.5,12.3-8.4,64.5-8.4,64.5l88.1-0.2V263.6z"/>
		<g>
			<path d="M204.7,261.1c-26.4-3-52.8-6-79.2-9c-1.3-0.1-2.6,1.3-2.5,2.5c0.8,18.3,0.4,36.2-1.9,54.4c-2.2,17.1-4.5,34.3-6.8,51.4
				c-0.2,1.3,1.3,2.5,2.5,2.5c25.6-0.1,51.2-0.1,76.8-0.2c3.7,0,7.5,0,11.2,0c1.4,0,2.5-1.1,2.5-2.5c0-28.2,0-56.4,0-84.6
				c0-4,0-8,0-12c0-3.2-5-3.2-5,0c0,28.2,0,56.4,0,84.6c0,4,0,8,0,12c0.8-0.8,1.7-1.7,2.5-2.5c-25.6,0.1-51.2,0.1-76.8,0.2
				c-3.7,0-7.5,0-11.2,0c0.8,0.8,1.7,1.7,2.5,2.5c2.3-17.1,4.6-34.3,6.8-51.4c2.4-18.1,2.7-36.1,1.9-54.4c-0.8,0.8-1.7,1.7-2.5,2.5
				c26.4,3,52.8,6,79.2,9C207.9,266.4,207.9,261.4,204.7,261.1z"/>
		</g>
	</g>
	<g>
		<g>
			<path d="M201.7,262.2c-7.3,8.9-14.5,17.9-21.8,26.8c1.3,0.2,2.6,0.3,3.9,0.5c-9.4-17.1-26.7-32.1-46.1-35.9
				c-3.1-0.6-4.5,4.2-1.3,4.8c18.2,3.5,34.2,17.5,43.1,33.6c0.7,1.3,2.9,1.8,3.9,0.5c7.3-8.9,14.5-17.9,21.8-26.8
				C207.2,263.2,203.7,259.7,201.7,262.2L201.7,262.2z"/>
		</g>
	</g>
	<g>
		<g>
			<path d="M137.4,297c9.7,0,19.5,0,29.2,0c1.4,0,2.5-1.1,2.5-2.5c0-7.5,0-14.9,0-22.4c0-1.4-1.1-2.5-2.5-2.5c-9.7,0-19.5,0-29.2,0
				c-1.4,0-2.5,1.1-2.5,2.5c0,7.5,0,14.9,0,22.4c0,3.2,5,3.2,5,0c0-7.5,0-14.9,0-22.4c-0.8,0.8-1.7,1.7-2.5,2.5c9.7,0,19.5,0,29.2,0
				c-0.8-0.8-1.7-1.7-2.5-2.5c0,7.5,0,14.9,0,22.4c0.8-0.8,1.7-1.7,2.5-2.5c-9.7,0-19.5,0-29.2,0C134.1,292,134.1,297,137.4,297z"/>
		</g>
	</g>
	<g>
		<g>
			<path d="M185.5,283.2c0,25.7,0,51.4,0,77c0,1.9,3,1.9,3,0c0-25.7,0-51.4,0-77C188.5,281.3,185.5,281.3,185.5,283.2L185.5,283.2z"
				/>
		</g>
	</g>
	<g>
		<g>
			<path d="M147,283.2c0.1,2.7,2.1,4.9,4.9,4.9c2.7,0,4.9-2.3,4.9-4.9c0-2.6-2.2-4.8-4.8-4.9C149.3,278.1,147.1,280.5,147,283.2
				c-0.1,1.9,2.9,1.9,3,0c0.1-2.5,3.9-2.5,3.9,0c0,2.5-3.7,2.5-3.9,0C149.9,281.3,146.9,281.3,147,283.2z"/>
		</g>
	</g>
	<g>
		<rect x="233.2" y="323.8" fill="#FFDB53" width="34.9" height="23.2"/>
		<g>
			<path d="M268.1,344.5c-11.6,0-23.3,0-34.9,0c0.8,0.8,1.7,1.7,2.5,2.5c0-7.8,0-15.5,0-23.3c-0.8,0.8-1.7,1.7-2.5,2.5
				c11.6,0,23.3,0,34.9,0c-0.8-0.8-1.7-1.7-2.5-2.5c0,7.8,0,15.5,0,23.3c0,3.2,5,3.2,5,0c0-7.8,0-15.5,0-23.3c0-1.4-1.1-2.5-2.5-2.5
				c-11.6,0-23.3,0-34.9,0c-1.4,0-2.5,1.1-2.5,2.5c0,7.8,0,15.5,0,23.3c0,1.4,1.1,2.5,2.5,2.5c11.6,0,23.3,0,34.9,0
				C271.3,349.5,271.3,344.5,268.1,344.5z"/>
		</g>
	</g>
	<g>
		<g>
			<path d="M247,349c0,18.7,0,37.3,0,56c0,3.2,5,3.2,5,0c0-18.7,0-37.3,0-56C252,345.8,247,345.8,247,349L247,349z"/>
		</g>
	</g>
	<g>
		<g>
			<path d="M235,348c0,9.3,0,18.7,0,28c0,1.4,1.1,2.5,2.5,2.5c3.9,0,7.8,0,11.7,0c3.2,0,3.2-5,0-5c-3.9,0-7.8,0-11.7,0
				c0.8,0.8,1.7,1.7,2.5,2.5c0-9.3,0-18.7,0-28C240,344.8,235,344.8,235,348L235,348z"/>
		</g>
	</g>
	<g>
		<g>
			<path d="M172,177c15,0,30,0,45,0c3.2,0,3.2-5,0-5c-15,0-30,0-45,0C168.8,172,168.8,177,172,177L172,177z"/>
		</g>
	</g>
	<g>
		<g>
			<path d="M284.3,168.7c6.2-4.6,13.2-8.1,21.1-8.1c7.9,0,15,3.6,21.4,8.1c2.6,1.9,5.1-2.5,2.5-4.3c-7.1-5-15.1-8.7-23.9-8.8
				c-8.8,0-16.7,3.6-23.6,8.8C279.2,166.2,281.7,170.6,284.3,168.7L284.3,168.7z"/>
		</g>
	</g>
	<g>
		<g>
			<path d="M259.3,223.2c-2.7-0.1-3.6-0.3-6.4-0.9c-1.1-0.2-2.3-0.7-3.5-0.8c-1.3-0.1-2,0.5-3.2,0.6c-3.8,0.4-6-2.7-9.5-3.4
				c-3.8-0.8-6.4-0.2-8.2-4.1c-1.4-2.9-5.7-0.4-4.3,2.5c1.8,3.8,4.1,5.2,8.1,5.8c1.3,0.2,2.6,0.5,3.9,0.7c1.5,0.2-1.3-0.9,0.3,0
				c2,1.1,3.6,2.6,5.9,3.2c2,0.6,4.7,0.8,6.6-0.4c1.6-1-1.3-0.3-0.5-0.1c0.9,0.2,1.7,0.4,2.6,0.6c2.8,0.6,5.3,1,8.2,1.2
				C262.6,228.3,262.5,223.3,259.3,223.2L259.3,223.2z"/>
		</g>
	</g>
	<g>
		<g>
			<path d="M228.9,229c3.8,5.9,17.9,11.4,23.3,4.9c1.2-1.5-0.9-3.6-2.1-2.1c-4,4.8-15.7,0.1-18.6-4.3
				C230.5,225.9,227.9,227.4,228.9,229L228.9,229z"/>
		</g>
	</g>
	<g>
		<g>
			<path d="M231.8,213.8c4.6-0.8,8.9-1.7,12.1,2.6c0.5,0.7,1.3,1,2.1,0.5c4.5-2.6,7.5-0.3,11.1,2.6c1.5,1.2,3.6-0.9,2.1-2.1
				c-4.8-4-8.8-6.5-14.7-3c0.7,0.2,1.4,0.4,2.1,0.5c-4.1-5.7-9-5.1-15.4-4C229.1,211.2,229.9,214.1,231.8,213.8L231.8,213.8z"/>
		</g>
	</g>
	<g>
		<path fill="#875222" d="M364.8,168.1c-12.3-4.4-42.9-42.8-42.9-42.8L314,130l-0.3-9.7l-42,11.7l2.3-9.8l-24.9,12.9l-19.6-13.8
			l1.8,9.7l-43.9-9.5l-5.2,8.7l-2.9-9.8c1.4,1.2-43.9,53-45.3,51.8c0,0,2.6-83.5,112.7-87.5C356.9,80.7,364.8,168.1,364.8,168.1z"/>
	</g>
	<g>
		<g>
			<path d="M133.3,174.5c3,1.2,7.7-5.3,9.3-7c5.9-6.2,11.5-12.6,17.2-19c5.5-6.3,10.9-12.6,16.1-19.1c1.7-2.1,7.3-7.3,5.6-10.4
				c-1.4-2.5-5.4-0.8-4.6,1.9c1,3.3,2,6.5,2.9,9.8c0.6,2.1,3.5,2.5,4.6,0.6c1.7-2.9,3.4-5.8,5.2-8.7c-0.9,0.4-1.9,0.8-2.8,1.1
				c14.6,3.2,29.3,6.3,43.9,9.5c2,0.4,3.4-1.2,3.1-3.1c-0.6-3.2-1.2-6.4-1.8-9.7c-1.2,0.9-2.4,1.9-3.7,2.8
				c6.5,4.6,13.1,9.2,19.6,13.8c0.7,0.5,1.8,0.4,2.5,0c8.3-4.3,16.6-8.6,24.9-12.9c-1.2-0.9-2.4-1.9-3.7-2.8
				c-0.8,3.3-1.5,6.6-2.3,9.8c-0.4,1.8,1.2,3.6,3.1,3.1c14-3.9,28-7.8,42-11.7c-1.1-0.8-2.1-1.6-3.2-2.4c0.1,3.2,0.2,6.5,0.3,9.7
				c0,1.9,2.1,3.2,3.8,2.2c2.6-1.6,5.2-3.1,7.8-4.7c-1-0.1-2-0.3-3-0.4c5.6,7.1,11.5,13.9,17.6,20.6c7.3,8.1,15.9,18.8,26.4,22.9
				c3,1.2,4.3-3.7,1.3-4.8c-4.5-1.8-8.4-5.7-11.9-8.9c-4.8-4.5-9.4-9.4-13.8-14.3c-5.5-6.2-10.9-12.5-16.1-18.9
				c-0.7-0.8-2.2-0.9-3-0.4c-2.6,1.6-5.2,3.1-7.8,4.7c1.3,0.7,2.5,1.4,3.8,2.2c-0.1-3.2-0.2-6.5-0.3-9.7c0-1.6-1.6-2.9-3.2-2.4
				c-14,3.9-28,7.8-42,11.7c1,1,2.1,2.1,3.1,3.1c0.8-3.3,1.5-6.6,2.3-9.8c0.5-2.2-1.7-3.8-3.7-2.8c-8.3,4.3-16.6,8.6-24.9,12.9
				c0.8,0,1.7,0,2.5,0c-6.5-4.6-13.1-9.2-19.6-13.8c-2-1.4-4,0.9-3.7,2.8c0.6,3.2,1.2,6.4,1.8,9.7c1-1,2.1-2.1,3.1-3.1
				c-14.6-3.2-29.3-6.3-43.9-9.5c-1.1-0.2-2.2,0.2-2.8,1.1c-1.7,2.9-3.4,5.8-5.2,8.7c1.5,0.2,3,0.4,4.6,0.6c-1-3.3-2-6.5-2.9-9.8
				c-1.5,0.6-3,1.3-4.6,1.9c-1.3-2.4,0.7-2.2-0.6-1.1c-0.5,0.4-1,1.4-1.4,2c-1.5,2.1-3.2,4.1-4.8,6.1c-4.7,5.7-9.5,11.3-14.4,16.8
				c-4.9,5.5-9.8,11.1-14.8,16.5c-1.7,1.9-3.5,3.7-5.3,5.5c-0.6,0.5-1.5,1.2-1.9,1.9c-0.8,1.3-1.3-0.3,0.8,0.5
				C131.7,168.5,130.4,173.4,133.3,174.5L133.3,174.5z"/>
		</g>
	</g>
	<g>
		<path fill="#FFFFFF" d="M78.4,342.5c0,0,7.3,8.1,17.4,8.6c10,0.5,40.2,2.2,40.2,2.2c11.8,0.6,41.2-1.9,41.3-21.8
			c0.1-19.9-27-21.7-38.9-22.4L99.2,307"/>
		<g>
			<path d="M76.6,344.3c11.3,12.3,30.1,10,45.3,10.8c13,0.7,26.1,1.9,38.8-2.1c7-2.2,14.1-6.2,17.3-13.2c3-6.6,2.2-14.8-2.3-20.5
				c-8.5-11-25.4-11.9-38.2-12.6c-12.8-0.7-25.6-1.4-38.4-2.1c-3.2-0.2-3.2,4.8,0,5c10.4,0.6,20.9,1.1,31.3,1.7
				c10.6,0.6,21.6,0.6,31.6,4.5c7.4,2.9,13.2,8.5,12.6,16.9c-0.6,8-7.4,12.7-14.4,15.1c-10.8,3.7-22,3.2-33.2,2.6
				c-8.5-0.5-17.1-1-25.6-1.4c-8.2-0.4-15.6-1.9-21.4-8.2C78,338.4,74.4,341.9,76.6,344.3L76.6,344.3z"/>
		</g>
	</g>
	<g>
		<path fill="#FFDB53" d="M99.2,307.1l39.2,2.2l-2.4,44.2c0,0-30.2-1.7-40.2-2.2s-17.4-8.6-17.4-8.6"/>
		<g>
			<path d="M99.2,309.6c13.1,0.7,26.1,1.4,39.2,2.2c-0.8-0.8-1.7-1.7-2.5-2.5c-0.8,14.7-1.6,29.5-2.4,44.2c0.8-0.8,1.7-1.7,2.5-2.5
				c-8.8-0.5-17.5-1-26.3-1.5c-10.7-0.6-21.6-0.1-29.5-8.7c-2.2-2.4-5.7,1.2-3.5,3.5c8.1,8.8,18.6,9.3,29.7,9.9
				c9.9,0.5,19.8,1.1,29.7,1.7c1.4,0.1,2.4-1.2,2.5-2.5c0.8-14.7,1.6-29.5,2.4-44.2c0.1-1.4-1.2-2.4-2.5-2.5
				c-13.1-0.7-26.1-1.4-39.2-2.2C96,304.4,96,309.4,99.2,309.6L99.2,309.6z"/>
		</g>
	</g>
	<g>
		<rect x="126.8" y="306.9" fill="#FFDB53" width="12.8" height="46.8"/>
		<g>
			<path d="M124.3,306.9c0,15.6,0,31.2,0,46.8c0,1.4,1.1,2.5,2.5,2.5c4.3,0,8.5,0,12.8,0c1.4,0,2.5-1.1,2.5-2.5
				c0-15.6,0-31.2,0-46.8c0-1.4-1.1-2.5-2.5-2.5c-4.3,0-8.5,0-12.8,0c-3.2,0-3.2,5,0,5c4.3,0,8.5,0,12.8,0c-0.8-0.8-1.7-1.7-2.5-2.5
				c0,15.6,0,31.2,0,46.8c0.8-0.8,1.7-1.7,2.5-2.5c-4.3,0-8.5,0-12.8,0c0.8,0.8,1.7,1.7,2.5,2.5c0-15.6,0-31.2,0-46.8
				C129.3,303.6,124.3,303.6,124.3,306.9z"/>
		</g>
	</g>
	<g>
		<path fill="#FFDB53" d="M118.7,360.7c0,0,21.6-14.7,22.1-56.7H186v56.4L118.7,360.7z"/>
		<g>
			<path d="M120.1,362.6c17.7-12.5,22.8-39.2,23.2-59.1c-0.8,0.8-1.7,1.7-2.5,2.5c15.2,0,30.4,0,45.6,0c-0.8-0.8-1.7-1.7-2.5-2.5
				c0,19,0,37.9,0,56.9c0.8-0.8,1.7-1.7,2.5-2.5c-22.5,0-45,0.1-67.5,0.1c-3.2,0-3.2,5,0,5c22.5,0,45-0.1,67.5-0.1
				c1.4,0,2.5-1.1,2.5-2.5c0-19,0-37.9,0-56.9c0-1.4-1.1-2.5-2.5-2.5c-15.2,0-30.4,0-45.6,0c-1.4,0-2.5,1.1-2.5,2.5
				c-0.3,14.9-3,30.1-10.8,43c-2,3.3-4.3,6.4-6.9,9.1c-0.7,0.7-1.5,1.5-2.3,2.2c-0.7,0.6-0.5,0.4-0.7,0.5
				C115,360.1,117.5,364.5,120.1,362.6z"/>
		</g>
	</g>
	<g>
		<g>
			<path fill="#FFDB53" d="M290,263.6l79.1-9c0,0-1.3,29,0.2,41.3c1.5,12.3,8.6,64.5,8.6,64.5l-87.9-0.2V263.6z"/>
			<g>
				<path d="M289.8,266.1c26.4-3,52.8-6,79.2-9c-0.8-0.8-1.7-1.7-2.5-2.5c-0.8,18.3-0.4,36.2,1.9,54.4c2.2,17.1,4.5,34.3,6.8,51.4
					c0.8-0.8,1.7-1.7,2.5-2.5c-25.6-0.1-51.2-0.1-76.8-0.2c-3.7,0-7.5,0-11.2,0c0.8,0.8,1.7,1.7,2.5,2.5c0-28.2,0-56.4,0-84.6
					c0-4,0-8,0-12c0-3.2-5-3.2-5,0c0,28.2,0,56.4,0,84.6c0,4,0,8,0,12c0,1.4,1.1,2.5,2.5,2.5c25.6,0.1,51.2,0.1,76.8,0.2
					c3.7,0,7.5,0,11.2,0c1.2,0,2.7-1.2,2.5-2.5c-2.3-17.1-4.6-34.3-6.8-51.4c-2.4-18.1-2.7-36.1-1.9-54.4c0.1-1.2-1.2-2.6-2.5-2.5
					c-26.4,3-52.8,6-79.2,9C286.6,261.4,286.6,266.4,289.8,266.1z"/>
			</g>
		</g>
		<g>
			<g>
				<path d="M289.3,265.7c7.3,8.9,14.5,17.9,21.8,26.8c1,1.3,3.2,0.8,3.9-0.5c8.9-16.1,24.9-30.1,43.1-33.6c3.2-0.6,1.8-5.4-1.3-4.8
					c-19.4,3.7-36.6,18.7-46.1,35.9c1.3-0.2,2.6-0.3,3.9-0.5c-7.3-8.9-14.5-17.9-21.8-26.8C290.8,259.7,287.3,263.2,289.3,265.7
					L289.3,265.7z"/>
			</g>
		</g>
		<g>
			<g>
				<path d="M357.1,292c-9.7,0-19.5,0-29.2,0c0.8,0.8,1.7,1.7,2.5,2.5c0-7.5,0-14.9,0-22.4c-0.8,0.8-1.7,1.7-2.5,2.5
					c9.7,0,19.5,0,29.2,0c-0.8-0.8-1.7-1.7-2.5-2.5c0,7.5,0,14.9,0,22.4c0,3.2,5,3.2,5,0c0-7.5,0-14.9,0-22.4c0-1.4-1.1-2.5-2.5-2.5
					c-9.7,0-19.5,0-29.2,0c-1.4,0-2.5,1.1-2.5,2.5c0,7.5,0,14.9,0,22.4c0,1.4,1.1,2.5,2.5,2.5c9.7,0,19.5,0,29.2,0
					C360.4,297,360.4,292,357.1,292z"/>
			</g>
		</g>
		<g>
			<g>
				<path d="M306,283.2c0,25.7,0,51.4,0,77c0,1.9,3,1.9,3,0c0-25.7,0-51.4,0-77C309,281.3,306,281.3,306,283.2L306,283.2z"/>
			</g>
		</g>
		<g>
			<g>
				<path d="M344.5,283.2c-0.1,2.5-3.9,2.5-3.9,0C340.6,280.7,344.4,280.7,344.5,283.2c0.1,1.9,3.1,1.9,3,0
					c-0.1-2.7-2.1-4.9-4.9-4.9c-2.7,0-4.9,2.3-4.9,4.9c0,2.6,2.2,4.8,4.8,4.9c2.9,0.1,5-2.2,5.1-4.9
					C347.6,281.3,344.6,281.3,344.5,283.2z"/>
			</g>
		</g>
		<g>
			<path fill="#FFDB53" d="M375.6,360.7c0,0-21.3-14.7-21.9-56.7H308v56.4L375.6,360.7z"/>
			<g>
				<path d="M376.9,358.3c-0.2-0.2,0.1,0.1-0.5-0.4c-0.8-0.7-1.5-1.4-2.2-2.1c-2.8-2.8-5.1-6-7.1-9.3c-7.8-12.9-10.5-28.1-10.8-43
					c0-1.4-1.1-2.5-2.5-2.5c-15.2,0-30.4,0-45.6,0c-1.4,0-2.5,1.1-2.5,2.5c0,19,0,37.9,0,56.9c0,1.4,1.1,2.5,2.5,2.5
					c22.5,0,45,0.1,67.5,0.1c3.2,0,3.2-5,0-5c-22.5,0-45-0.1-67.5-0.1c0.8,0.8,1.7,1.7,2.5,2.5c0-19,0-37.9,0-56.9
					c-0.8,0.8-1.7,1.7-2.5,2.5c15.2,0,30.4,0,45.6,0c-0.8-0.8-1.7-1.7-2.5-2.5c0.4,19.9,5.5,46.6,23.2,59.1
					C377,364.5,379.5,360.1,376.9,358.3z"/>
			</g>
		</g>
	</g>
	<g>
		<g>
			<g opacity="0.5">
				<path d="M340.6,154.1l-39.9-18.6c-4.9-2.3-8.2-6.6-7.4-9.8l4.5-17.6c1-4,6.6-5.3,12.3-2.6l47.3,22c5.8,2.7,8.4,7.7,6,11.1
					l-10.6,14.8C350.9,156.1,345.4,156.4,340.6,154.1z"/>
			</g>
			<g opacity="0.5">
				<path d="M441.9,201.2l-39.9-18.6c-4.9-2.3-8.2-6.6-7.4-9.8l4.5-17.6c1-4,6.6-5.3,12.3-2.6l47.3,22c5.8,2.7,8.4,7.7,6,11.1
					l-10.6,14.8C452.1,203.2,446.7,203.5,441.9,201.2z"/>
			</g>
			<g>
				<g>
					<path d="M442.9,199.5c-9.5-4.4-19.1-8.9-28.6-13.3c-3.7-1.7-7.5-3.3-11.2-5.2c-3.2-1.6-6.5-3.9-6.1-7.9c0.4-3,1.6-6.2,2.3-9.1
						c1.7-6.5,2.2-12.7,11.1-9c3.9,1.6,7.8,3.6,11.6,5.4c11.1,5.1,22.1,10.3,33.2,15.4c1.8,0.8,3.8,1.6,5.3,3
						c3.7,3.3,1.9,5.7-0.3,8.7c-2.2,3-4.3,6-6.5,9.1c-0.6,0.9-1.2,2.1-2,2.8c-2.6,2.3-6.7,0.9-9.5-0.3c-3-1.2-4.3,3.6-1.3,4.8
						c4.3,1.7,10.2,2.7,14-0.7c1.9-1.7,3.3-4.3,4.7-6.4c3.5-4.9,10.4-11.3,7.4-17.8c-2.4-5.2-8.2-7.2-13.1-9.5
						c-7.1-3.3-14.2-6.6-21.3-9.9c-6.1-2.8-12.1-5.6-18.2-8.5c-5.6-2.6-14.3-4.9-17.5,2.3c-2.5,5.5-3.6,12.5-4.8,18.3
						c-1.4,6.9,4.3,11.3,9.9,14c12.7,6,25.6,11.9,38.3,17.8C443.3,205.2,445.8,200.9,442.9,199.5z"/>
				</g>
			</g>
			<g>
				<g>
					<path d="M341.6,152.4c-9.5-4.4-19.1-8.9-28.6-13.3c-3.7-1.7-7.5-3.3-11.2-5.2c-3.2-1.6-6.5-3.9-6.1-7.9c0.4-3,1.6-6.2,2.3-9.1
						c1.7-6.5,2.2-12.7,11.1-9c3.9,1.6,7.8,3.6,11.6,5.4c11.1,5.1,22.1,10.3,33.2,15.4c1.8,0.8,3.8,1.6,5.3,3
						c3.7,3.3,1.9,5.7-0.3,8.7c-2.2,3-4.3,6-6.5,9.1c-0.6,0.9-1.2,2.1-2,2.8c-2.6,2.3-6.7,0.9-9.5-0.3c-3-1.2-4.3,3.6-1.3,4.8
						c4.3,1.7,10.2,2.7,14-0.7c1.9-1.7,3.3-4.3,4.7-6.4c3.5-4.9,10.4-11.3,7.4-17.8c-2.4-5.2-8.2-7.2-13.1-9.5
						c-7.1-3.3-14.2-6.6-21.3-9.9c-6.1-2.8-12.1-5.6-18.2-8.5c-5.6-2.6-14.3-4.9-17.5,2.3c-2.5,5.5-3.6,12.5-4.8,18.3
						c-1.4,6.9,4.3,11.3,9.9,14c12.7,6,25.6,11.9,38.3,17.8C342,158.1,344.5,153.8,341.6,152.4z"/>
				</g>
			</g>
			<g>
				<g>
					<path d="M364.3,142c12.5-1,24.7,6.6,32.8,15.3c2.2,2.4,5.7-1.2,3.5-3.5c-8.9-9.6-22.6-17.9-36.3-16.8
						C361.1,137.2,361.1,142.2,364.3,142L364.3,142z"/>
				</g>
			</g>
		</g>
	</g>
	<g>
		<g>
			<path d="M140.6,202.1c1.5,7.7,8.2,14.3,14.2,18.7c1.6,1.1,3.1-1.5,1.5-2.6c-5.4-4-11.5-10-12.8-16.9
				C143.1,199.4,140.2,200.2,140.6,202.1L140.6,202.1z"/>
		</g>
	</g>
	<g>
		<g>
			<path d="M355.1,201.3c-1.3,7-7.4,12.9-12.8,16.9c-1.5,1.1,0,3.7,1.5,2.6c6-4.4,12.7-11,14.2-18.7
				C358.3,200.2,355.4,199.4,355.1,201.3L355.1,201.3z"/>
		</g>
	</g>
</g>
<g id="Layer_2">
	<g>
		<g id="ENFJ_4_1_">
			<g>
				<polygon fill="#F789A3" points="256.8,135.1 250,102.1 267.3,135.1 				"/>
				<g>
					<path d="M258.2,134.7c-2.3-11-4.5-22-6.8-33c-0.9,0.4-1.8,0.8-2.7,1.2c5.8,11,11.6,22,17.3,33c0.4-0.8,0.9-1.5,1.3-2.3
						c-3.5,0-7,0-10.6,0c-1.9,0-1.9,3,0,3c3.5,0,7,0,10.6,0c1.2,0,1.8-1.3,1.3-2.3c-5.8-11-11.6-22-17.3-33
						c-0.8-1.6-3.1-0.4-2.7,1.2c2.3,11,4.5,22,6.8,33C255.7,137.4,258.6,136.6,258.2,134.7z"/>
				</g>
			</g>
			<g>
				<polygon fill="#FFCCDD" points="250,168.1 256.8,135.1 267.3,135.1 				"/>
				<g>
					<path d="M251.4,168.5c2.3-11,4.5-22,6.8-33c-0.5,0.4-1,0.7-1.4,1.1c3.5,0,7,0,10.6,0c-0.4-0.8-0.9-1.5-1.3-2.3
						c-5.8,11-11.6,22-17.3,33c-0.9,1.7,1.7,3.2,2.6,1.5c5.8-11,11.6-22,17.3-33c0.5-1-0.1-2.3-1.3-2.3c-3.5,0-7,0-10.6,0
						c-0.6,0-1.3,0.5-1.4,1.1c-2.3,11-4.5,22-6.8,33C248.2,169.6,251,170.4,251.4,168.5z"/>
				</g>
			</g>
			<g>
				<polygon fill="#FFD140" points="232.7,135.1 250,102.1 256.8,135.1 				"/>
				<g>
					<path d="M234,135.8c5.8-11,11.6-22,17.3-33c-0.9-0.1-1.8-0.2-2.7-0.4c2.2,11,4.5,22,6.7,33c0.5-0.6,1-1.3,1.4-1.9
						c-8,0-16,0-24.1,0c-1.9,0-1.9,3,0,3c8,0,16,0,24.1,0c1,0,1.6-1,1.4-1.9c-2.2-11-4.5-22-6.7-33c-0.3-1.3-2.2-1.5-2.7-0.4
						c-5.8,11-11.6,22-17.3,33C230.5,136,233.1,137.6,234,135.8z"/>
				</g>
			</g>
			<g>
				<polygon fill="#FFE197" points="250,168.1 232.7,135.1 256.8,135.1 				"/>
				<g>
					<path d="M251.3,167.3c-5.8-11-11.6-22-17.3-33c-0.4,0.8-0.9,1.5-1.3,2.3c8,0,16,0,24.1,0c-0.5-0.6-1-1.3-1.4-1.9
						c-2.2,11-4.5,22-6.7,33c-0.4,1.9,2.5,2.7,2.9,0.8c2.2-11,4.5-22,6.7-33c0.2-0.9-0.4-1.9-1.4-1.9c-8,0-16,0-24.1,0
						c-1.2,0-1.8,1.3-1.3,2.3c5.8,11,11.6,22,17.3,33C249.6,170.6,252.2,169,251.3,167.3z"/>
				</g>
			</g>
		</g>
	</g>
</g>
</svg>
