<?xml version="1.0" encoding="utf-8"?>
<!-- Generator: Adobe Illustrator 18.1.1, SVG Export Plug-In . SVG Version: 6.00 Build 0)  -->
<svg version="1.1" xmlns="http://www.w3.org/2000/svg" xmlns:xlink="http://www.w3.org/1999/xlink" x="0px" y="0px"
	 viewBox="0 0 500 500" enable-background="new 0 0 500 500" xml:space="preserve">
<g id="Layer_1">
	<g>
		<path fill="#FFFFFF" d="M344.6,166.9c14.4-10.6,33.5,12.6,33.5,12.6l29.5,41.4c1.7,5.1,2.6,10.8,0.5,15.8l-15.4,39.9
			c-6.2,14.5-15.9,23.7-28.1,19c-12.2-4.7-10.8-19.2-4.2-33.5l9.2-34.4l-22.5-27.3C347.1,200.4,330.2,177.4,344.6,166.9z"/>
		<g>
			<path d="M345.9,169c10.6-7.2,23.5,4,30.2,11.9c0,0-0.2-0.3,0.5,0.7c0.9,1.3,1.9,2.6,2.8,3.9c3.1,4.3,6.2,8.7,9.3,13
				c3.5,4.9,7,9.8,10.4,14.6c2,2.7,4.4,5.5,6,8.5c4.8,8.7-1.7,20-4.9,28.3c-3.3,8.6-6.4,17.3-9.9,25.8c-3.1,7.3-8.5,16.5-16.9,18.2
				c-10.5,2.1-16.5-6.6-15.4-16.1c0.7-6.2,3.8-11.5,5.4-17.4c1.3-5,2.7-9.9,4-14.9c1.4-5.1,2.7-10.1,4.1-15.2
				c0.7-2.5,0.5-3.7-1.1-5.7c-6.9-8.4-14-16.8-20.8-25.3c-1-1.2,0,0.2-1.1-1.5c-1.4-2.2-2.8-4.5-3.9-6.9c-3.5-7.5-5.4-16.6,1.9-22.3
				c2.5-2-1-5.5-3.5-3.5c-12,9.5-5.1,27.2,2.6,37.2c7.2,9.3,14.9,18.1,22.4,27.1c-0.2-0.8-0.4-1.6-0.6-2.4c-2,7.5-4,14.9-6,22.4
				c-1,3.7-1.8,7.4-3,11c-1.7,5.3-4.1,10.2-5,15.8c-0.9,5.9-0.4,12.4,3.6,17c3.8,4.4,10.3,6.6,16.1,5.9
				c11.4-1.4,18.5-12.9,22.4-22.6c3.2-7.9,6.1-15.9,9.2-23.8c2.6-6.8,7.1-14.9,7.3-22.3c0.2-8.9-4.1-13.7-8.9-20.4
				c-5.8-8.1-11.5-16.2-17.3-24.3c-8.8-12.4-25.7-32.3-42.3-21.1C340.7,166.5,343.2,170.8,345.9,169z"/>
		</g>
	</g>
	<g>
		<path fill="#7F0909" d="M347.3,203.5l21.2,26.1l-10.1,31.8c-6.8,14.3-7.8,28.9,5.9,34.1c13.6,5.2,23.9-3.8,30.2-18.2l15.4-42.5
			c2.2-5,2-13.6-0.1-18.9L379.7,180L347.3,203.5z"/>
		<g>
			<path d="M345.5,205.3c7.1,8.7,14.2,17.4,21.2,26.1c-0.2-0.8-0.4-1.6-0.6-2.4c-4,12.7-8.3,25.4-12.6,38c-3.3,9.5-4.1,21.6,5,28.3
				c8.8,6.4,20.5,5.2,28.4-2c5.8-5.3,9-12.4,11.6-19.6c2.8-7.8,5.6-15.6,8.4-23.4c4.1-11.3,12.1-27.1,3.1-37.9
				c-9.5-11.4-19.1-22.7-28.6-34.1c-0.6-0.8-2.2-1-3-0.4c-10.8,7.8-21.6,15.7-32.4,23.5c-2.6,1.9-0.1,6.2,2.5,4.3
				c10.8-7.8,21.6-15.7,32.4-23.5c-1-0.1-2-0.3-3-0.4c9.3,11.1,18.6,22.2,27.9,33.3c4.6,5.5,3.5,13.7,1.1,20.2
				c-2.7,7.4-5.4,14.9-8.1,22.3c-2.3,6.2-4.3,12.7-6.8,18.8c-2.5,6-6.5,12.4-12.3,15.8c-6.2,3.6-15,2.7-20.1-2.5
				c-8.2-8.4-1-21.1,1.9-30.1c2.6-8.2,5.2-16.5,7.8-24.7c0.8-2.5,2.1-4.7,0.8-7.1c-1.4-2.5-3.9-4.8-5.8-7.1
				c-5.1-6.3-10.3-12.6-15.4-19C347,199.2,343.5,202.8,345.5,205.3z"/>
		</g>
	</g>
	<g>
		<path fill="#BC0808" d="M369.8,227.3l2.8-123.8c0,0-40.5-30.3-80.3-33S212,80.8,174.7,78s-27.9-5.3-31.7-3s0,40,0,40h-16.3
			c-5.3,10.5,4.3,110.2,4.3,110.2L369.8,227.3z"/>
		<g>
			<path d="M372.3,227.3c0.4-19.1,0.9-38.3,1.3-57.4c0.3-13.8,0.6-27.7,0.9-41.5c0.2-7.9,1-16.1,0.5-24c-0.1-2.1-1.2-3-2.9-4.2
				c-5.1-3.6-10.4-6.9-15.8-10C338.1,79.7,318,71,297,68.5c-27-3.2-54.3,2.3-81,5.4c-22,2.5-44.6,3.1-66.4-1
				c-5.4-1-8.8-1.9-10.1,4.4c-1.5,7.1-0.6,15.1-0.1,22.2c0.3,5.2,0.7,10.4,1.2,15.6c0.8-0.8,1.7-1.7,2.5-2.5c-5.4,0-10.9,0-16.3,0
				c-0.8,0-1.8,0.5-2.2,1.2c-2.1,4.5-1.8,10.3-1.9,15.1c-0.2,8.8,0.2,17.7,0.6,26.5c0.9,19,2.4,37.9,4.1,56.8
				c0.4,4.3,0.8,8.7,1.2,13c0.1,1.4,1,2.5,2.5,2.5c26.9,0.2,53.7,0.5,80.6,0.7c42.8,0.4,85.7,0.7,128.5,1.1
				c9.9,0.1,19.7,0.2,29.6,0.3c3.2,0,3.2-5,0-5c-26.9-0.2-53.7-0.5-80.6-0.7c-42.8-0.4-85.7-0.7-128.5-1.1
				c-9.9-0.1-19.7-0.2-29.6-0.3c0.8,0.8,1.7,1.7,2.5,2.5c-2.9-30.1-5.7-60.6-5.9-90.9c0-5.2-0.9-13.6,1.3-18.1
				c-0.7,0.4-1.4,0.8-2.2,1.2c5.4,0,10.9,0,16.3,0c1.3,0,2.6-1.1,2.5-2.5c-1.2-11.7-3.2-24.8-1.3-36.5c0-0.1,1.1-2.8,1.3-2.3
				c0.2,0.5-1.7,0-1.4,0.5c0.5,0.6,2.8,0.7,3.5,0.8c3,0.6,6,1,9,1.3c13,1.6,26.1,2.5,39.2,1.8c14.7-0.8,29.4-3,44-4.8
				c14.9-1.9,29.8-3.5,44.8-3.1c13.5,0.3,26.4,3,39,7.6c16.7,6.1,33.1,14.8,47.4,25.4c-0.4-0.7-0.8-1.4-1.2-2.2
				c-0.8,36.1-1.6,72.2-2.4,108.4c-0.1,5.1-0.2,10.3-0.3,15.4C367.2,230.5,372.2,230.5,372.3,227.3z"/>
		</g>
	</g>
	<g>
		<path fill="#FFFFFF" d="M136.3,374.3c-16.6,6.7-29.3-20.5-29.3-20.5l-18.3-47.4c-0.4-5.4,0.2-11.1,3.5-15.4l24.8-34.9
			c9.6-12.5,21.3-19,32-11.5c10.7,7.5,5.7,21.2-4.2,33.5l-17.5,31.1l15.1,32C142.2,341.2,152.9,367.6,136.3,374.3z"/>
		<g>
			<path d="M135.6,371.8c-12,4.3-21.3-9.4-26.1-18.6c-0.8-1.5,0.1,0.3-0.4-0.8c-0.5-1.3-1-2.6-1.5-3.8c-1.8-4.7-3.7-9.5-5.5-14.2
				c-3.5-9.1-8.2-18.5-10.8-27.9c-2.6-9.5,5.4-17.9,10.5-25c5.7-8,11.1-16.1,17-23.9c5.1-6.8,13.6-15.4,23-13.4
				c12.4,2.6,11.6,14.9,6.7,23.7c-2.5,4.5-5.9,8.4-8.4,12.9c-2.8,5-5.6,10-8.5,15c-2.1,3.8-4.9,7.6-6.5,11.6c-1,2.4,0.2,3.9,1.2,6.2
				c4.5,9.6,9.4,19.1,13.5,28.8c-0.5-1.1,0.7,2,0.9,2.6c0.8,2.7,1.5,5.4,1.9,8.2c1,7.6,0,15.5-7.7,18.9c-2.9,1.3-0.4,5.6,2.5,4.3
				c13.9-6.1,11.8-24.9,6.8-36.5c-4.6-10.8-10-21.4-15.1-32c0,0.8,0,1.7,0,2.5c3.7-6.6,7.4-13.2,11.1-19.8c1.9-3.4,3.7-6.9,5.7-10.2
				c2.9-4.8,6.5-8.9,8.8-14.1c2.4-5.7,3.7-12.5,0.5-18.2c-3-5.4-9.3-8.9-15.3-9.2c-11.4-0.5-20.6,9.2-26.6,17.7
				c-5.3,7.4-10.6,14.9-15.8,22.3c-4.6,6.4-10.4,12.8-11.3,20.9c-0.9,7.6,2.5,13.6,5.2,20.6c3.5,9.1,7.1,18.3,10.6,27.4
				c5.3,13.7,17.1,35.2,34.9,28.8C140,375.6,138.7,370.7,135.6,371.8z"/>
		</g>
	</g>
	<g>
		<path fill="#7F0909" d="M142.8,338.1l-14.1-30.5l17.6-28.3c10.1-12.1,14.7-26.1,2.8-34.5c-11.9-8.4-24.1-2.3-33.8,10.2l-25.4,37.4
			c-3.3,4.3-5.3,12.7-4.6,18.3l20.2,42.1L142.8,338.1z"/>
		<g>
			<path d="M145,336.9c-4.7-10.2-9.4-20.4-14.1-30.5c0,0.8,0,1.7,0,2.5c6.9-11.1,13.8-22.1,21.1-32.9c6-8.8,10.2-21.1,2.2-30
				c-8.3-9.3-21.3-9.2-30.9-2.3c-5.9,4.2-9.9,9.8-13.9,15.6c-4.7,6.9-9.4,13.8-14.1,20.8c-6.7,9.8-16.8,22.1-10.9,34.4
				c6.3,13.2,12.7,26.4,19,39.7c0.4,0.9,1.9,1.5,2.8,1.1c12.4-4.9,24.8-9.8,37.3-14.7c3-1.2,1.7-6-1.3-4.8
				c-12.4,4.9-24.8,9.8-37.3,14.7c0.9,0.4,1.9,0.8,2.8,1.1c-6.2-12.8-12.3-25.6-18.5-38.4c-1.2-2.4-1.6-3.3-1.6-5.7
				c0.1-5.3,1.8-10.1,4.7-14.4c4.1-6.1,8.2-12.1,12.3-18.1c4.1-6.1,8.1-12.3,12.4-18.2c3.5-4.8,8.1-9.3,13.6-11.7
				c7.5-3.3,17.3-0.8,21.4,6.6c5.9,10.6-4.7,21.3-9.9,29.7c-4.5,7.3-9.1,14.6-13.6,21.8c-1.3,2-2.7,3.4-2,5.8c0.9,2.9,2.7,5.9,4,8.6
				c3.4,7.3,6.7,14.5,10.1,21.8C142,342.3,146.3,339.8,145,336.9z"/>
		</g>
	</g>
	<g>
		<g>
			<polygon fill="#440606" points="143.8,337.4 117.9,349.2 111,321.1 132.5,312.5 			"/>
			<g>
				<path d="M142.6,335.3c-8.6,3.9-17.3,7.9-25.9,11.8c1.2,0.5,2.4,1,3.7,1.5c-2.3-9.4-4.6-18.7-6.9-28.1c-0.6,1-1.2,2.1-1.7,3.1
					c7.2-2.9,14.3-5.8,21.5-8.7c-0.9-0.4-1.9-0.8-2.8-1.1c3.8,8.3,7.6,16.7,11.4,25c1.3,2.9,5.6,0.4,4.3-2.5
					c-3.8-8.3-7.6-16.7-11.4-25c-0.4-0.9-1.9-1.5-2.8-1.1c-7.2,2.9-14.3,5.8-21.5,8.7c-1.3,0.5-2.1,1.6-1.7,3.1
					c2.3,9.4,4.6,18.7,6.9,28.1c0.4,1.7,2.3,2.1,3.7,1.5c8.6-3.9,17.3-7.9,25.9-11.8C148,338.3,145.5,334,142.6,335.3z"/>
			</g>
		</g>
		<g>
			<polygon fill="#440606" points="118.6,348.7 103.4,355.7 92.4,327.7 101.8,324.4 			"/>
			<g>
				<path d="M117.4,346.6c-5.1,2.3-10.2,4.7-15.3,7c1.2,0.5,2.4,1,3.7,1.5c-3.6-9.3-7.3-18.7-10.9-28c-0.6,1-1.2,2.1-1.7,3.1
					c3.1-1.1,6.3-2.2,9.4-3.3c-0.9-0.4-1.9-0.8-2.8-1.1c5.6,8.1,11.2,16.2,16.8,24.4c1.8,2.6,6.2,0.1,4.3-2.5
					c-5.6-8.1-11.2-16.2-16.8-24.4c-0.6-0.9-1.7-1.5-2.8-1.1c-3.1,1.1-6.3,2.2-9.4,3.3c-1.2,0.4-2.3,1.7-1.7,3.1
					c3.6,9.3,7.3,18.7,10.9,28c0.6,1.6,2.1,2.2,3.7,1.5c5.1-2.3,10.2-4.7,15.3-7C122.8,349.6,120.3,345.2,117.4,346.6z"/>
			</g>
		</g>
		<g>
			<circle fill="#7F0909" cx="127.9" cy="331.3" r="4.5"/>
			<g>
				<path d="M127.3,337.2c3.2,0.3,6.2-2,6.5-5.3c0.3-3.2-1.9-6.1-5.1-6.5c-3.1-0.4-6.1,1.7-6.7,4.9c-0.6,3.2,1.7,6.3,4.8,6.9
					c1.9,0.4,2.7-2.5,0.8-2.9c-3.8-0.8-3.3-6.5,0.7-5.9c1.6,0.2,2.7,1.7,2.5,3.3c-0.3,1.8-1.9,2.6-3.5,2.5
					C125.4,334,125.4,337.1,127.3,337.2z"/>
			</g>
		</g>
	</g>
	<path fill="#FFFFFF" d="M381.1,350.2c-0.2-6-2.6-18-5.4-31.8l-0.1-0.5c-3-14.8-6.6-33.2-6.8-41.2c-0.1-5,0.1-12.2,0.1-19.8v-0.4
		c0-15.6,0.1-37.1-1.4-51.2c-1.2-11.5-5.6-40.7-19.2-62.5c-12.6-20.2-27.9-33.2-47.9-41.4c-18.4-7.4-52.1-8.3-53-8.3
		c-8.6,0-30.7,0.7-49.1,8.1c-20.1,8.1-35.3,21.3-47.9,41.5c-13.6,21.8-17.9,51-19.1,62.5c-1.5,14.1-1.4,35.5-1.2,51.2l0,3.6
		c0,6.3,0,12.3-0.1,16.6c-0.2,8.1-3.9,26.5-6.9,41.3l-0.1,0.6c-2.7,13.8-5.1,25.7-5.4,31.7c-0.6,15.4,3.8,25.7,14.9,35.8
		c7.1,6.4,14,9.5,21.7,9.5c4.1,0,7.8-0.8,11.9-1.8c1.1-0.3,2.3-0.6,3.5-1.1c4,2.2,11.7,5.6,21.7,5.6c6.5,0,14.1-1.4,22.4-5.4
		c4.8,3.9,9.7,7.5,9.7,7.5c12.9,7.3,24,8.8,25.6,8.8h0.4c1.6,0,12.7-0.9,26.1-8.8c0,0,4.3-3.1,8.8-6.7c7.7,3.4,14.7,4.6,20.8,4.6
		c10.9,0,19-3.9,22.7-6.1c1.8,0.7,3.3,1.3,4.9,1.7c4,1,7.7,1.8,11.8,1.8c7.8,0,14.4-2.9,21.6-9.5C377.4,376,381.7,365.6,381.1,350.2
		z"/>
	<path fill="#7F0909" d="M133.2,246.3c0,0,76.7,10,116.2,8.4c39.6-1.6,118.4-8.4,118.4-8.4l7.8,76.2c0,0-167.6,16.2-248.9,0
		C126.7,322.5,136.3,266.2,133.2,246.3z"/>
	<path fill="#7F0909" stroke="#000000" stroke-miterlimit="10" d="M125,330.8c0,0,26,3.9,68.5,6.6c42.5,2.7,182.1-6.6,182.1-6.6
		s10.1,24.3,1.6,43.3s-26.5,23.5-37,19.8s-32.6-12.6-42.8-11c-10.2,1.6-23.3,22.8-40.8,22.8s-43.8-14.7-50.3-21s-38.5,7-48.5,8.3
		S105,384.3,125,330.8z"/>
	<g>
		<g>
			<path d="M248,297c0,8.7,0,17.3,0,26c0,3.2,5,3.2,5,0c0-8.7,0-17.3,0-26C253,293.8,248,293.8,248,297L248,297z"/>
		</g>
	</g>
	<g>
		<path fill="#7F0909" d="M250.4,329H123.9c0,0-5.3,22.7-4.3,28.5s4.3,17.4,4.3,17.4l61,2.6l59.7-2.7L250.4,329z"/>
		<g>
			<path d="M250.4,327c-36.9,0-73.8,0-110.7,0c-5.3,0-10.5,0-15.8,0c-1.1,0-2.2,0.8-2.4,1.8c-1.7,7.3-3.3,14.8-4.2,22.3
				c-1,8.4,1.8,16.5,4.2,24.5c0.3,1.1,1.3,1.8,2.4,1.8c17.7,0.7,35.3,1.4,53,2.2c14.3,0.6,28.6-0.5,42.9-1.1
				c8.3-0.3,16.6-0.7,24.9-1c1.5-0.1,2.3-1.1,2.5-2.5c1.9-15.2,3.8-30.3,5.7-45.5c0.4-3.2-4.6-3.2-5,0c-1.9,15.2-3.8,30.3-5.7,45.5
				c0.8-0.8,1.7-1.7,2.5-2.5c-17.6,0.7-35.3,1.5-52.9,2.2c-14.4,0.6-28.9-0.6-43.3-1.2c-8.2-0.3-16.4-0.7-24.6-1
				c0.8,0.6,1.6,1.2,2.4,1.8c-2.2-7.6-4.9-15.3-4-23.2c0.8-7,2.4-14.1,4-21c-0.8,0.6-1.6,1.2-2.4,1.8c36.9,0,73.8,0,110.7,0
				c5.3,0,10.5,0,15.8,0C253.6,332,253.6,327,250.4,327z"/>
		</g>
	</g>
	<g>
		<polyline fill="#FFFFFF" points="226.5,253.6 249.9,295.4 273.1,253.8 		"/>
	</g>
	<g>
		<path fill="#7F0909" d="M250.5,329H377c0,0,5.3,22.7,4.3,28.5s-4.3,17.4-4.3,17.4l-61,2.6l-59.7-2.7L250.5,329z"/>
		<g>
			<path d="M250.5,332c36.9,0,73.8,0,110.7,0c5.3,0,10.5,0,15.8,0c-0.8-0.6-1.6-1.2-2.4-1.8c1.6,6.9,3.1,13.9,4,21
				c1,8-1.8,15.6-4,23.2c0.8-0.6,1.6-1.2,2.4-1.8c-17.7,0.7-35.3,1.4-53,2.2c-14.3,0.6-28.6-0.5-42.9-1.1c-8.3-0.3-16.6-0.7-24.9-1
				c0.8,0.8,1.7,1.7,2.5,2.5c-1.9-15.2-3.8-30.3-5.7-45.5c-0.4-3.2-5.4-3.2-5,0c1.9,15.2,3.8,30.3,5.7,45.5c0.2,1.4,1,2.4,2.5,2.5
				c17.6,0.7,35.3,1.5,52.9,2.2c14.4,0.6,28.9-0.6,43.3-1.2c8.2-0.3,16.4-0.7,24.6-1c1.1,0,2.1-0.7,2.4-1.8c2.3-8,5.1-16.1,4.2-24.5
				c-0.9-7.5-2.4-14.9-4.2-22.3c-0.2-1.1-1.3-1.8-2.4-1.8c-36.9,0-73.8,0-110.7,0c-5.3,0-10.5,0-15.8,0
				C247.3,327,247.3,332,250.5,332z"/>
		</g>
	</g>
	<g>
		<g>
			<rect x="154" y="331.5" fill="#7F0909" width="42.2" height="38.3"/>
			<g>
				<path d="M196.2,367.2c-14.1,0-28.1,0-42.2,0c0.8,0.8,1.7,1.7,2.5,2.5c0-12.8,0-25.5,0-38.3c-0.8,0.8-1.7,1.7-2.5,2.5
					c14.1,0,28.1,0,42.2,0c-0.8-0.8-1.7-1.7-2.5-2.5c0,12.8,0,25.5,0,38.3c0,3.2,5,3.2,5,0c0-12.8,0-25.5,0-38.3
					c0-1.4-1.1-2.5-2.5-2.5c-14.1,0-28.1,0-42.2,0c-1.4,0-2.5,1.1-2.5,2.5c0,12.8,0,25.5,0,38.3c0,1.4,1.1,2.5,2.5,2.5
					c14.1,0,28.1,0,42.2,0C199.4,372.2,199.4,367.2,196.2,367.2z"/>
			</g>
		</g>
		<g>
			<polygon fill="#7F0909" points="195.8,350.5 174.7,354 153.6,350.5 153.6,331.3 195.8,331.3 			"/>
			<g>
				<path d="M195.2,348c-3.4,0.6-6.7,1.1-10.1,1.7c-2.4,0.4-4.8,0.8-7.2,1.2c-0.8,0.1-1.7,0.2-2.5,0.4c-0.4,0.1-2,0.2-0.6,0.2
					c1.3,0-2.2-0.5-2.8-0.6c-2.4-0.4-4.7-0.8-7.1-1.2c-3.5-0.6-7-1.2-10.6-1.8c0.6,0.8,1.2,1.6,1.8,2.4c0-6.4,0-12.8,0-19.1
					c-0.8,0.8-1.7,1.7-2.5,2.5c14.1,0,28.1,0,42.2,0c-0.8-0.8-1.7-1.7-2.5-2.5c0,6.4,0,12.8,0,19.1c0,3.2,5,3.2,5,0
					c0-6.4,0-12.8,0-19.1c0-1.4-1.1-2.5-2.5-2.5c-14.1,0-28.1,0-42.2,0c-1.4,0-2.5,1.1-2.5,2.5c0,6.4,0,12.8,0,19.1
					c0,1,0.8,2.2,1.8,2.4c3.7,0.6,7.4,1.2,11,1.9c3.4,0.6,7.2,1.8,10.7,1.8c3.3,0,7-1.1,10.3-1.7c3.8-0.6,7.7-1.3,11.5-1.9
					C199.7,352.3,198.3,347.5,195.2,348z"/>
			</g>
		</g>
		<g>
			<circle fill="#440606" cx="174.5" cy="343.3" r="4.2"/>
			<g>
				<path d="M177.2,343.3c-0.2,3.5-5.5,3.5-5.5,0C171.8,339.8,177,339.8,177.2,343.3c0.1,1.9,3.1,1.9,3,0c-0.2-3.1-2.5-5.7-5.7-5.7
					c-3.1,0-5.7,2.6-5.7,5.7c0,3,2.5,5.6,5.5,5.7c3.3,0.1,5.8-2.5,6-5.7C180.3,341.4,177.3,341.4,177.2,343.3z"/>
			</g>
		</g>
	</g>
	<g>
		<g>
			<rect x="302" y="331.5" fill="#7F0909" width="42.2" height="38.3"/>
			<g>
				<path d="M344.2,367.2c-14.1,0-28.1,0-42.2,0c0.8,0.8,1.7,1.7,2.5,2.5c0-12.8,0-25.5,0-38.3c-0.8,0.8-1.7,1.7-2.5,2.5
					c14.1,0,28.1,0,42.2,0c-0.8-0.8-1.7-1.7-2.5-2.5c0,12.8,0,25.5,0,38.3c0,3.2,5,3.2,5,0c0-12.8,0-25.5,0-38.3
					c0-1.4-1.1-2.5-2.5-2.5c-14.1,0-28.1,0-42.2,0c-1.4,0-2.5,1.1-2.5,2.5c0,12.8,0,25.5,0,38.3c0,1.4,1.1,2.5,2.5,2.5
					c14.1,0,28.1,0,42.2,0C347.4,372.2,347.4,367.2,344.2,367.2z"/>
			</g>
		</g>
		<g>
			<polygon fill="#7F0909" points="343.8,350.5 322.7,354 301.6,350.5 301.6,331.3 343.8,331.3 			"/>
			<g>
				<path d="M343.2,348c-3.4,0.6-6.7,1.1-10.1,1.7c-2.4,0.4-4.8,0.8-7.2,1.2c-0.8,0.1-1.7,0.2-2.5,0.4c-0.4,0.1-2,0.2-0.6,0.2
					c1.3,0-2.2-0.5-2.8-0.6c-2.4-0.4-4.7-0.8-7.1-1.2c-3.5-0.6-7-1.2-10.6-1.8c0.6,0.8,1.2,1.6,1.8,2.4c0-6.4,0-12.8,0-19.1
					c-0.8,0.8-1.7,1.7-2.5,2.5c14.1,0,28.1,0,42.2,0c-0.8-0.8-1.7-1.7-2.5-2.5c0,6.4,0,12.8,0,19.1c0,3.2,5,3.2,5,0
					c0-6.4,0-12.8,0-19.1c0-1.4-1.1-2.5-2.5-2.5c-14.1,0-28.1,0-42.2,0c-1.4,0-2.5,1.1-2.5,2.5c0,6.4,0,12.8,0,19.1
					c0,1,0.8,2.2,1.8,2.4c3.7,0.6,7.4,1.2,11,1.9c3.4,0.6,7.2,1.8,10.7,1.8c3.3,0,7-1.1,10.3-1.7c3.8-0.6,7.7-1.3,11.5-1.9
					C347.7,352.3,346.3,347.5,343.2,348z"/>
			</g>
		</g>
		<g>
			<circle fill="#440606" cx="322.5" cy="343.3" r="4.2"/>
			<g>
				<path d="M325.2,343.3c-0.2,3.5-5.5,3.5-5.5,0C319.8,339.8,325,339.8,325.2,343.3c0.1,1.9,3.1,1.9,3,0c-0.2-3.1-2.5-5.7-5.7-5.7
					c-3.1,0-5.7,2.6-5.7,5.7c0,3,2.5,5.6,5.5,5.7c3.3,0.1,5.8-2.5,6-5.7C328.3,341.4,325.3,341.4,325.2,343.3z"/>
			</g>
		</g>
	</g>
	<g id="Layer_2">
	</g>
	<path fill="#C8C8C8" d="M285.5,389.9c0,0,8-6.1,16.8-7c8.8-1,23.8,5.5,23.8,5.5s-4.9,10-14.2,9.8
		C302.5,397.9,285.5,389.9,285.5,389.9z"/>
	<g>
		<path fill="#440606" d="M374.6,333c-81.5,5.8-164.7,5.7-249.6,0l2-11c83.4,5.7,165,5.8,245,0L374.6,333z"/>
		<g>
			<path d="M374.6,330.5c-83.1,5.8-166.5,5.6-249.6,0c0.8,1.1,1.6,2.1,2.4,3.2c0.7-3.7,1.3-7.3,2-11c-0.8,0.6-1.6,1.2-2.4,1.8
				c81.6,5.6,163.5,5.8,245,0c-0.8-0.6-1.6-1.2-2.4-1.8c0.9,3.7,1.7,7.3,2.6,11c0.7,3.1,5.5,1.8,4.8-1.3c-0.9-3.7-1.7-7.3-2.6-11
				c-0.2-1-1.4-1.9-2.4-1.8c-81.6,5.8-163.5,5.6-245,0c-1-0.1-2.2,0.8-2.4,1.8c-0.7,3.7-1.3,7.3-2,11c-0.3,1.7,0.7,3,2.4,3.2
				c83.1,5.6,166.5,5.8,249.6,0C377.8,335.3,377.8,330.3,374.6,330.5z"/>
		</g>
	</g>
	<path fill="#C8C8C8" d="M169.6,389.9c0,0,8-6.1,16.8-7s23.8,5.5,23.8,5.5s-4.9,10-14.2,9.8S169.6,389.9,169.6,389.9z"/>
	<path d="M384.6,351.4c-0.2-6.1-2.7-18.4-5.5-32.5l-0.1-0.5c-3-15.1-6.3-33.9-6.5-42.1c-0.1-5.1,0.5-12.5,0.5-20.3v-0.4
		c0-16-0.3-37.9-1.8-52.2c-1.2-11.8-5.9-41.6-19.8-63.8c-12.9-20.6-28.6-33.9-49.1-42.2c-18.8-7.6-53.2-8.4-54.2-8.4
		c-8.8,0-31.4,0.7-50.1,8.3c-20.5,8.3-36,21.7-48.9,42.3c-13.9,22.2-18.3,52.1-19.6,63.8c-1.5,14.4-1.4,36.3-1.3,52.3l0,3.7
		c0,6.5,0,12.5-0.1,16.9c-0.2,8.3-4,27-7,42.1L121,319c-2.8,14.1-5.2,26.3-5.5,32.4c-0.6,15.7,3.8,26.3,15.2,36.6
		c7.3,6.6,14.3,9.7,22.1,9.7c4.2,0,8-0.8,12.1-1.9c1.1-0.3,2.3-0.7,3.5-1.1c4.1,2.3,11.9,5.7,22.2,5.7c6.7,0,14.4-1.4,22.9-5.5
		c4.9,4,9.9,7.4,10,7.4c13.2,7.5,24.5,8.7,26.2,8.7h0.4c1.7,0,13-0.7,26.7-8.7c0,0,4.4-3.1,8.9-6.7c7.8,3.5,15,4.8,21.3,4.8
		c11.2,0,19.4-4,23.2-6.2c1.8,0.7,3.4,1.3,5,1.7c4.1,1,7.9,1.9,12.1,1.9c7.9,0,14.7-3,22.1-9.6C380.8,377.7,385.2,367.1,384.6,351.4
		z M177.2,390.9c6.1-2.6,13.6-5.5,20.1-5.5c4.4,0,7.6,1.3,10.4,4.1l0.2,0.2C194.8,395.1,184,393.4,177.2,390.9z M291.7,390.4
		c0.3-0.3,0.6-0.5,0.8-0.8c2.8-2.8,6-4.2,10.4-4.2c6.1,0,13,2.5,18.9,5C315.4,392.9,304.8,395.2,291.7,390.4z M364.5,382.6
		c-6,5.4-11.1,7.8-17.2,7.8c-3.4,0-6.6-0.7-10.4-1.6c-2-0.5-4.5-1.6-7.7-3l-0.5-0.2c-7-3.2-16.7-7.4-25.8-7.4
		c-6.3,0-11.3,2.1-15.6,6.3c-11,11.2-21.9,15.7-29.1,17.5c-0.1,0-7.1,1.9-15.2-0.3c-8.2-2.3-19.2-6.1-30.1-17.2
		c-4.1-4.2-9.2-6.3-15.6-6.3c-9,0-18.6,4.2-25.9,7.4l-0.3,0.1c-3.3,1.4-5.8,2.6-7.9,3.1c-3.8,0.9-7,1.6-10.4,1.6
		c-6,0-11.3-2.4-17.2-7.8c-9.8-8.9-13.3-17.3-12.8-30.9c0.2-5.5,2.6-17.4,5.4-31.2l0.1-0.6c3.2-16.1,6.9-34.4,7.2-43.4
		c0.1-4.5,0.1-10.6,0.1-17.1l0-3.7c-0.1-15.8-0.3-37.5,1.2-51.4c1.2-11.3,5.4-39.8,18.5-60.7c12-19.3,26.5-31.8,45.4-39.5
		c17.6-7.1,39-8.2,47.4-8.2c0.8,0,33.8,0.8,51.4,7.9c19,7.7,33.4,20.4,45.5,39.6c13.1,21,18,49.5,19.2,60.8
		c1.5,14,1.9,35.7,1.9,51.5v0.4c0,7.8-0.8,15.2-0.7,20.4c0.2,8.9,3.6,27.2,6.8,43.4l-0.1,0.5c2.8,13.8,5.1,25.8,5.3,31.3
		C377.9,365.3,374.3,373.7,364.5,382.6z"/>
	<path d="M324.2,191.9c0,10.6-8.6,19.1-19.1,19.1c-10.6,0-19.1-8.6-19.1-19.1c0-0.9,0.1-1.8,0.2-2.6c1.2,0.8,2.6,1.3,4.1,1.3
		c4,0,7.2-3.2,7.2-7.2c0-2.9-1.7-5.4-4.1-6.5c3.2-2.5,7.3-4,11.7-4C315.6,172.8,324.2,181.4,324.2,191.9z"/>
	<path d="M214.1,191.9c0,10.6-8.6,19.1-19.1,19.1c-10.6,0-19.1-8.6-19.1-19.1c0-0.9,0.1-1.8,0.2-2.6c1.2,0.8,2.6,1.3,4.1,1.3
		c4,0,7.2-3.2,7.2-7.2c0-2.9-1.7-5.4-4.1-6.5c3.2-2.5,7.3-4,11.7-4C205.5,172.8,214.1,181.4,214.1,191.9z"/>
	<path d="M239.9,222.1c13.8,5.7,28.1,0.6,35.5-12.2c1.7-2.9-3-5.2-4.7-2.3c-5.9,10.2-17.4,14.3-28.4,9.8
		C239.1,216.1,236.7,220.8,239.9,222.1L239.9,222.1z"/>
	
		<ellipse transform="matrix(0.7169 -0.6971 0.6971 0.7169 -112.2272 180.7014)" fill="#F68694" cx="166.4" cy="228.6" rx="7.4" ry="3.4"/>
	
		<ellipse transform="matrix(0.7169 -0.6971 0.6971 0.7169 -109.0657 190.8302)" fill="#F68694" cx="180.5" cy="229.7" rx="7.4" ry="3.4"/>
	
		<ellipse transform="matrix(0.7169 -0.6971 0.6971 0.7169 -105.0878 200.6274)" fill="#F68694" cx="194.5" cy="229.7" rx="7.4" ry="3.4"/>
	
		<ellipse transform="matrix(-0.7169 -0.6971 0.6971 -0.7169 413.1115 627.1812)" fill="#F68694" cx="333.9" cy="229.7" rx="7.4" ry="3.4"/>
	
		<ellipse transform="matrix(-0.7169 -0.6971 0.6971 -0.7169 388.1657 619.3947)" fill="#F68694" cx="319.8" cy="230.9" rx="7.4" ry="3.4"/>
	
		<ellipse transform="matrix(-0.7169 -0.6971 0.6971 -0.7169 364.0363 609.5975)" fill="#F68694" cx="305.8" cy="230.9" rx="7.4" ry="3.4"/>
	<g>
		<path fill="#FFFFFF" d="M171.7,153c13.6,6.3,28.2,14.6,45.1,23.8"/>
		<g>
			<path d="M170.4,155.2c15.4,7.2,30.2,15.7,45.1,23.8c2.8,1.5,5.4-2.8,2.5-4.3c-14.9-8.1-29.7-16.6-45.1-23.8
				C170.1,149.5,167.5,153.8,170.4,155.2L170.4,155.2z"/>
		</g>
	</g>
	<g>
		<polyline fill="#FFFFFF" points="278.8,171.6 281.7,175 332,175 		"/>
		<g>
			<path d="M277,173.2c2.8,3.3,3.7,4.1,7.8,4.1c5.7,0,11.4,0,17.1,0c10,0,20,0,30,0c3.2,0,3.2-5,0-5c-9.4,0-18.7,0-28.1,0
				c-5.7,0-11.4,0-17,0c-1.1,0-3.6-0.5-4.6,0c-1.1,0.5,0.9,0.4,0.9,0.3c0-0.5-2.1-2.5-2.5-3C278.4,167.2,274.9,170.7,277,173.2
				L277,173.2z"/>
		</g>
	</g>
	<g>
		<g>
			<path fill="#BA4A4A" d="M238.4,323.2v17.2h26.8v-17.2H238.4z M258.6,335h-13.5v-6.6h13.5V335z"/>
		</g>
		<g>
			<path d="M236.9,323.2c0,5.7,0,11.4,0,17.2c0,0.8,0.7,1.5,1.5,1.5c8.9,0,17.9,0,26.8,0c0.8,0,1.5-0.7,1.5-1.5c0-5.7,0-11.4,0-17.2
				c0-0.8-0.7-1.5-1.5-1.5c-8.9,0-17.9,0-26.8,0c-1.9,0-1.9,3,0,3c8.9,0,17.9,0,26.8,0c-0.5-0.5-1-1-1.5-1.5c0,5.7,0,11.4,0,17.2
				c0.5-0.5,1-1,1.5-1.5c-8.9,0-17.9,0-26.8,0c0.5,0.5,1,1,1.5,1.5c0-5.7,0-11.4,0-17.2C239.9,321.2,236.9,321.2,236.9,323.2z"/>
			<path d="M258.6,333.5c-4.5,0-9,0-13.5,0c0.5,0.5,1,1,1.5,1.5c0-2.2,0-4.4,0-6.6c-0.5,0.5-1,1-1.5,1.5c4.5,0,9,0,13.5,0
				c-0.5-0.5-1-1-1.5-1.5c0,2.2,0,4.4,0,6.6c0,1.9,3,1.9,3,0c0-2.2,0-4.4,0-6.6c0-0.8-0.7-1.5-1.5-1.5c-4.5,0-9,0-13.5,0
				c-0.8,0-1.5,0.7-1.5,1.5c0,2.2,0,4.4,0,6.6c0,0.8,0.7,1.5,1.5,1.5c4.5,0,9,0,13.5,0C260.5,336.5,260.5,333.5,258.6,333.5z"/>
		</g>
	</g>
	<g>
		<g>
			<path d="M133.3,247.9c77.4,10.8,155.9,11,233.3,0c3.2-0.5,1.8-5.3-1.3-4.8c-76.5,10.9-154.2,10.7-230.7,0
				C131.5,242.6,130.2,247.5,133.3,247.9L133.3,247.9z"/>
		</g>
	</g>
	<g>
		<g>
			<path d="M224.3,254.8c7.8,14,15.6,27.9,23.4,41.9c0.9,1.6,3.4,1.6,4.3,0c7.7-13.9,15.5-27.8,23.2-41.6c1.6-2.8-2.7-5.3-4.3-2.5
				c-7.7,13.9-15.5,27.8-23.2,41.6c1.4,0,2.9,0,4.3,0c-7.8-14-15.6-27.9-23.4-41.9C227.1,249.5,222.7,252,224.3,254.8L224.3,254.8z"
				/>
		</g>
	</g>
	<g>
		<g>
			<path d="M236.4,271.1c4.9-5,9.8-10.1,14.7-15.1c-0.7,0-1.4,0-2.1,0c4.9,5,9.7,10,14.6,15c1.3,1.4,3.5-0.7,2.1-2.1
				c-4.9-5-9.7-10-14.6-15c-0.6-0.6-1.6-0.6-2.1,0c-4.9,5-9.8,10.1-14.7,15.1C233,270.3,235.1,272.5,236.4,271.1L236.4,271.1z"/>
		</g>
	</g>
	<g>
		<polygon fill="#BA4A4A" points="255.9,261.3 250.1,264.5 244.9,261.2 250,254.8 		"/>
		<g>
			<path d="M255.1,260c-1.9,1.1-3.8,2.2-5.7,3.3c0.5,0,1,0,1.5,0c-1.7-1.1-3.5-2.2-5.2-3.3c0.1,0.8,0.2,1.6,0.3,2.4
				c1.7-2.1,3.4-4.3,5.1-6.4c-0.7,0-1.4,0-2.1,0c2,2.1,3.9,4.3,5.9,6.4c1.3,1.4,3.4-0.7,2.1-2.1c-2-2.1-3.9-4.3-5.9-6.4
				c-0.5-0.5-1.6-0.6-2.1,0c-1.7,2.1-3.4,4.3-5.1,6.4c-0.6,0.8-0.6,1.8,0.3,2.4c1.7,1.1,3.5,2.2,5.2,3.3c0.5,0.3,1.1,0.3,1.5,0
				c1.9-1.1,3.8-2.2,5.7-3.3C258.3,261.6,256.8,259,255.1,260z"/>
		</g>
	</g>
	<g>
		<polygon fill="#BA4A4A" points="248.4,264 252.4,264 257.5,282 250.8,293.8 244,282.8 		"/>
		<g>
			<path d="M248.4,265.6c1.3,0,2.7,0,4,0c-0.5-0.4-1-0.7-1.4-1.1c1.6,5.6,2.7,11.6,4.8,17c0.6,1.5,0.6-0.4,0.1,0.5
				c-0.8,1.3-1.5,2.6-2.3,4c-1.4,2.4-2.7,4.7-4.1,7.1c0.9,0,1.7,0,2.6,0c-1.5-2.4-2.9-4.7-4.4-7.1c-0.7-1.2-1.6-2.3-2.2-3.5
				c-0.4-0.8,0,1.3,0,0.6c0-0.3,0.2-0.9,0.3-1.2c1.9-5.5,2.7-11.6,4.1-17.3c0.4-1.9-2.4-2.7-2.9-0.8c-1.4,5.8-3.9,12.2-4.3,18.2
				c-0.3,4.1,4.7,9.2,6.8,12.7c0.6,0.9,2,1,2.6,0c1.5-2.6,3-5.3,4.5-7.9c1-1.7,2.3-3.3,2.3-5.2c0-3-1.9-6.8-2.7-9.7
				c-0.8-2.7-1.5-5.3-2.3-8c-0.2-0.6-0.8-1.1-1.4-1.1c-1.3,0-2.7,0-4,0C246.5,262.6,246.5,265.6,248.4,265.6z"/>
		</g>
	</g>
	<g>
		<g>
			<path d="M222.5,254.2c-1.9,6.7-3.8,13.4-5.6,20.2c-0.3,1.1,0.2,2.2,1.1,2.8c10.2,6.8,20.4,13.6,30.5,20.3
				c2.7,1.8,5.2-2.5,2.5-4.3c-10.2-6.8-20.4-13.6-30.5-20.3c0.4,0.9,0.8,1.9,1.1,2.8c1.8-6.8,3.6-13.5,5.6-20.2
				C228.2,252.5,223.4,251.1,222.5,254.2L222.5,254.2z"/>
		</g>
	</g>
	<g>
		<g>
			<path d="M272.6,255.6c1.9,6.7,3.8,13.4,5.6,20.2c0.4-0.9,0.8-1.9,1.1-2.8c-10.2,6.8-20.4,13.6-30.5,20.3
				c-2.7,1.8-0.2,6.1,2.5,4.3c10.2-6.8,20.4-13.6,30.5-20.3c0.9-0.6,1.4-1.7,1.1-2.8c-1.8-6.8-3.6-13.5-5.6-20.2
				C276.5,251.2,271.7,252.5,272.6,255.6L272.6,255.6z"/>
		</g>
	</g>
	<g>
		<rect x="155" y="269.5" fill="#7F0909" width="42.2" height="38.3"/>
		<g>
			<path d="M197.2,305.2c-14.1,0-28.1,0-42.2,0c0.8,0.8,1.7,1.7,2.5,2.5c0-12.8,0-25.5,0-38.3c-0.8,0.8-1.7,1.7-2.5,2.5
				c14.1,0,28.1,0,42.2,0c-0.8-0.8-1.7-1.7-2.5-2.5c0,12.8,0,25.5,0,38.3c0,3.2,5,3.2,5,0c0-12.8,0-25.5,0-38.3
				c0-1.4-1.1-2.5-2.5-2.5c-14.1,0-28.1,0-42.2,0c-1.4,0-2.5,1.1-2.5,2.5c0,12.8,0,25.5,0,38.3c0,1.4,1.1,2.5,2.5,2.5
				c14.1,0,28.1,0,42.2,0C200.4,310.2,200.4,305.2,197.2,305.2z"/>
		</g>
	</g>
	<g>
		<polygon fill="#7F0909" points="196.8,288.5 175.7,292 154.6,288.5 154.6,269.3 196.8,269.3 		"/>
		<g>
			<path d="M196.2,286c-3.4,0.6-6.7,1.1-10.1,1.7c-2.4,0.4-4.8,0.8-7.2,1.2c-0.8,0.1-1.7,0.2-2.5,0.4c-0.4,0.1-2,0.2-0.6,0.2
				c1.3,0-2.2-0.5-2.8-0.6c-2.4-0.4-4.7-0.8-7.1-1.2c-3.5-0.6-7-1.2-10.6-1.8c0.6,0.8,1.2,1.6,1.8,2.4c0-6.4,0-12.8,0-19.1
				c-0.8,0.8-1.7,1.7-2.5,2.5c14.1,0,28.1,0,42.2,0c-0.8-0.8-1.7-1.7-2.5-2.5c0,6.4,0,12.8,0,19.1c0,3.2,5,3.2,5,0
				c0-6.4,0-12.8,0-19.1c0-1.4-1.1-2.5-2.5-2.5c-14.1,0-28.1,0-42.2,0c-1.4,0-2.5,1.1-2.5,2.5c0,6.4,0,12.8,0,19.1
				c0,1,0.8,2.2,1.8,2.4c3.7,0.6,7.4,1.2,11,1.9c3.4,0.6,7.2,1.8,10.7,1.8c3.3,0,7-1.1,10.3-1.7c3.8-0.6,7.7-1.3,11.5-1.9
				C200.7,290.3,199.3,285.5,196.2,286z"/>
		</g>
	</g>
	<g>
		<circle fill="#440606" cx="175.5" cy="281.3" r="4.2"/>
		<g>
			<path d="M178.2,281.3c-0.2,3.5-5.5,3.5-5.5,0C172.8,277.8,178,277.8,178.2,281.3c0.1,1.9,3.1,1.9,3,0c-0.2-3.1-2.5-5.7-5.7-5.7
				c-3.1,0-5.7,2.6-5.7,5.7c0,3,2.5,5.6,5.5,5.7c3.3,0.1,5.8-2.5,6-5.7C181.3,279.4,178.3,279.4,178.2,281.3z"/>
		</g>
	</g>
	<g>
		<circle fill="#440606" cx="261.5" cy="300.3" r="4.2"/>
		<g>
			<path d="M264.2,300.3c-0.2,3.5-5.5,3.5-5.5,0C258.8,296.8,264,296.8,264.2,300.3c0.1,1.9,3.1,1.9,3,0c-0.2-3.1-2.5-5.7-5.7-5.7
				c-3.1,0-5.7,2.6-5.7,5.7c0,3,2.5,5.6,5.5,5.7c3.3,0.1,5.8-2.5,6-5.7C267.3,298.4,264.3,298.4,264.2,300.3z"/>
		</g>
	</g>
	<g>
		<circle fill="#440606" cx="261.5" cy="314.3" r="4.2"/>
		<g>
			<path d="M264.2,314.3c-0.2,3.5-5.5,3.5-5.5,0C258.8,310.8,264,310.8,264.2,314.3c0.1,1.9,3.1,1.9,3,0c-0.2-3.1-2.5-5.7-5.7-5.7
				c-3.1,0-5.7,2.6-5.7,5.7c0,3,2.5,5.6,5.5,5.7c3.3,0.1,5.8-2.5,6-5.7C267.3,312.4,264.3,312.4,264.2,314.3z"/>
		</g>
	</g>
	<g>
		<g>
			<polygon fill="#FFFFFF" points="302.2,301.7 295.1,303.3 288,301.7 288,289.7 302.2,289.7 			"/>
			<g>
				<path d="M301.8,300.2c-1.2,0.3-2.4,0.6-3.5,0.8c-0.7,0.2-1.5,0.3-2.2,0.5c-0.2,0.1-1.7,0.3-0.9,0.3c0.8,0-0.5-0.2-0.7-0.2
					c-0.8-0.2-1.6-0.4-2.4-0.6c-1.2-0.3-2.4-0.6-3.5-0.8c0.4,0.5,0.7,1,1.1,1.4c0-4,0-8,0-12c-0.5,0.5-1,1-1.5,1.5
					c4.7,0,9.4,0,14.2,0c-0.5-0.5-1-1-1.5-1.5c0,4,0,8,0,12c0,1.9,3,1.9,3,0c0-4,0-8,0-12c0-0.8-0.7-1.5-1.5-1.5
					c-4.7,0-9.4,0-14.2,0c-0.8,0-1.5,0.7-1.5,1.5c0,4,0,8,0,12c0,0.6,0.5,1.3,1.1,1.4c2.3,0.5,5.1,1.7,7.5,1.7
					c2.4,0,5.1-1.2,7.5-1.7C304.4,302.7,303.6,299.8,301.8,300.2z"/>
			</g>
		</g>
		<g>
			<polygon fill="#C30000" points="297.2,302.6 294.8,303.3 292.4,302.5 292.4,289.7 297.2,289.7 			"/>
			<g>
				<path d="M296.8,301.2c-0.5,0.1-1,0.2-1.5,0.4c-0.5,0.2-1.3,0-0.3,0.2c-0.8-0.2-1.6-0.6-2.3-0.8c0.4,0.5,0.7,1,1.1,1.4
					c0-4.3,0-8.5,0-12.8c-0.5,0.5-1,1-1.5,1.5c1.6,0,3.2,0,4.8,0c-0.5-0.5-1-1-1.5-1.5c0,4.3,0,8.6,0,13c0,1.9,3,1.9,3,0
					c0-4.3,0-8.6,0-13c0-0.8-0.7-1.5-1.5-1.5c-1.6,0-3.2,0-4.8,0c-0.8,0-1.5,0.7-1.5,1.5c0,4.3,0,8.5,0,12.8c0,0.7,0.5,1.2,1.1,1.4
					c0.8,0.3,1.8,0.8,2.6,0.9c1,0.1,2.1-0.4,3-0.7C299.5,303.6,298.7,300.7,296.8,301.2z"/>
			</g>
		</g>
		<g>
			<ellipse fill="#BA4A4A" cx="294.8" cy="309.8" rx="6.4" ry="6.2"/>
			<g>
				<path d="M299.7,309.8c-0.3,6-9.8,6.1-9.8,0C289.9,303.7,299.4,303.8,299.7,309.8c0.1,1.9,3.1,1.9,3,0c-0.2-4.3-3.5-7.7-7.9-7.7
					c-4.2,0-7.9,3.4-7.9,7.7c0,4.1,3.5,7.5,7.6,7.7c4.5,0.2,8-3.3,8.3-7.7C302.8,307.9,299.8,307.9,299.7,309.8z"/>
			</g>
		</g>
	</g>
	<g>
		<g>
			<polygon fill="#FFFFFF" points="321.2,301.7 314.1,303.3 307,301.7 307,289.7 321.2,289.7 			"/>
			<g>
				<path d="M320.8,300.2c-1.2,0.3-2.4,0.6-3.5,0.8c-0.7,0.2-1.5,0.3-2.2,0.5c-0.2,0.1-1.7,0.3-0.9,0.3c0.8,0-0.5-0.2-0.7-0.2
					c-0.8-0.2-1.6-0.4-2.4-0.6c-1.2-0.3-2.4-0.6-3.5-0.8c0.4,0.5,0.7,1,1.1,1.4c0-4,0-8,0-12c-0.5,0.5-1,1-1.5,1.5
					c4.7,0,9.4,0,14.2,0c-0.5-0.5-1-1-1.5-1.5c0,4,0,8,0,12c0,1.9,3,1.9,3,0c0-4,0-8,0-12c0-0.8-0.7-1.5-1.5-1.5
					c-4.7,0-9.4,0-14.2,0c-0.8,0-1.5,0.7-1.5,1.5c0,4,0,8,0,12c0,0.6,0.5,1.3,1.1,1.4c2.3,0.5,5.1,1.7,7.5,1.7
					c2.4,0,5.1-1.2,7.5-1.7C323.4,302.7,322.6,299.8,320.8,300.2z"/>
			</g>
		</g>
		<g>
			<polygon fill="#440606" points="316.2,302.6 313.8,303.3 311.4,302.5 311.4,289.7 316.2,289.7 			"/>
			<g>
				<path d="M315.8,301.2c-0.5,0.1-1,0.2-1.5,0.4c-0.5,0.2-1.3,0-0.3,0.2c-0.8-0.2-1.6-0.6-2.3-0.8c0.4,0.5,0.7,1,1.1,1.4
					c0-4.3,0-8.5,0-12.8c-0.5,0.5-1,1-1.5,1.5c1.6,0,3.2,0,4.8,0c-0.5-0.5-1-1-1.5-1.5c0,4.3,0,8.6,0,13c0,1.9,3,1.9,3,0
					c0-4.3,0-8.6,0-13c0-0.8-0.7-1.5-1.5-1.5c-1.6,0-3.2,0-4.8,0c-0.8,0-1.5,0.7-1.5,1.5c0,4.3,0,8.5,0,12.8c0,0.7,0.5,1.2,1.1,1.4
					c0.8,0.3,1.8,0.8,2.6,0.9c1,0.1,2.1-0.4,3-0.7C318.5,303.6,317.7,300.7,315.8,301.2z"/>
			</g>
		</g>
		<g>
			<ellipse fill="#BA4A4A" cx="313.8" cy="309.8" rx="6.4" ry="6.2"/>
			<g>
				<path d="M318.7,309.8c-0.3,6-9.8,6.1-9.8,0C308.9,303.7,318.4,303.8,318.7,309.8c0.1,1.9,3.1,1.9,3,0c-0.2-4.3-3.5-7.7-7.9-7.7
					c-4.2,0-7.9,3.4-7.9,7.7c0,4.1,3.5,7.5,7.6,7.7c4.5,0.2,8-3.3,8.3-7.7C321.8,307.9,318.8,307.9,318.7,309.8z"/>
			</g>
		</g>
	</g>
	<g>
		<g>
			<polygon fill="#FFFFFF" points="340.2,301.7 333.1,303.3 326,301.7 326,289.7 340.2,289.7 			"/>
			<g>
				<path d="M339.8,300.2c-1.2,0.3-2.4,0.6-3.5,0.8c-0.7,0.2-1.5,0.3-2.2,0.5c-0.2,0.1-1.7,0.3-0.9,0.3c0.8,0-0.5-0.2-0.7-0.2
					c-0.8-0.2-1.6-0.4-2.4-0.6c-1.2-0.3-2.4-0.6-3.5-0.8c0.4,0.5,0.7,1,1.1,1.4c0-4,0-8,0-12c-0.5,0.5-1,1-1.5,1.5
					c4.7,0,9.4,0,14.2,0c-0.5-0.5-1-1-1.5-1.5c0,4,0,8,0,12c0,1.9,3,1.9,3,0c0-4,0-8,0-12c0-0.8-0.7-1.5-1.5-1.5
					c-4.7,0-9.4,0-14.2,0c-0.8,0-1.5,0.7-1.5,1.5c0,4,0,8,0,12c0,0.6,0.5,1.3,1.1,1.4c2.3,0.5,5.1,1.7,7.5,1.7
					c2.4,0,5.1-1.2,7.5-1.7C342.4,302.7,341.6,299.8,339.8,300.2z"/>
			</g>
		</g>
		<g>
			<polygon fill="#440606" points="335.2,302.6 332.8,303.3 330.4,302.5 330.4,289.7 335.2,289.7 			"/>
			<g>
				<path d="M334.8,301.2c-0.5,0.1-1,0.2-1.5,0.4c-0.5,0.2-1.3,0-0.3,0.2c-0.8-0.2-1.6-0.6-2.3-0.8c0.4,0.5,0.7,1,1.1,1.4
					c0-4.3,0-8.5,0-12.8c-0.5,0.5-1,1-1.5,1.5c1.6,0,3.2,0,4.8,0c-0.5-0.5-1-1-1.5-1.5c0,4.3,0,8.6,0,13c0,1.9,3,1.9,3,0
					c0-4.3,0-8.6,0-13c0-0.8-0.7-1.5-1.5-1.5c-1.6,0-3.2,0-4.8,0c-0.8,0-1.5,0.7-1.5,1.5c0,4.3,0,8.5,0,12.8c0,0.7,0.5,1.2,1.1,1.4
					c0.8,0.3,1.8,0.8,2.6,0.9c1,0.1,2.1-0.4,3-0.7C337.5,303.6,336.7,300.7,334.8,301.2z"/>
			</g>
		</g>
		<g>
			<ellipse fill="#BA4A4A" cx="332.8" cy="309.8" rx="6.4" ry="6.2"/>
			<g>
				<path d="M337.7,309.8c-0.3,6-9.8,6.1-9.8,0C327.9,303.7,337.4,303.8,337.7,309.8c0.1,1.9,3.1,1.9,3,0c-0.2-4.3-3.5-7.7-7.9-7.7
					c-4.2,0-7.9,3.4-7.9,7.7c0,4.1,3.5,7.5,7.6,7.7c4.5,0.2,8-3.3,8.3-7.7C340.8,307.9,337.8,307.9,337.7,309.8z"/>
			</g>
		</g>
	</g>
	<g>
		<g>
			<polygon fill="#FFFFFF" points="359.2,301.7 352.1,303.3 345,301.7 345,289.7 359.2,289.7 			"/>
			<g>
				<path d="M358.8,300.2c-1.2,0.3-2.4,0.6-3.5,0.8c-0.7,0.2-1.5,0.3-2.2,0.5c-0.2,0.1-1.7,0.3-0.9,0.3c0.8,0-0.5-0.2-0.7-0.2
					c-0.8-0.2-1.6-0.4-2.4-0.6c-1.2-0.3-2.4-0.6-3.5-0.8c0.4,0.5,0.7,1,1.1,1.4c0-4,0-8,0-12c-0.5,0.5-1,1-1.5,1.5
					c4.7,0,9.4,0,14.2,0c-0.5-0.5-1-1-1.5-1.5c0,4,0,8,0,12c0,1.9,3,1.9,3,0c0-4,0-8,0-12c0-0.8-0.7-1.5-1.5-1.5
					c-4.7,0-9.4,0-14.2,0c-0.8,0-1.5,0.7-1.5,1.5c0,4,0,8,0,12c0,0.6,0.5,1.3,1.1,1.4c2.3,0.5,5.1,1.7,7.5,1.7
					c2.4,0,5.1-1.2,7.5-1.7C361.4,302.7,360.6,299.8,358.8,300.2z"/>
			</g>
		</g>
		<g>
			<polygon fill="#C30000" points="354.2,302.6 351.8,303.3 349.4,302.5 349.4,289.7 354.2,289.7 			"/>
			<g>
				<path d="M353.8,301.2c-0.5,0.1-1,0.2-1.5,0.4c-0.5,0.2-1.3,0-0.3,0.2c-0.8-0.2-1.6-0.6-2.3-0.8c0.4,0.5,0.7,1,1.1,1.4
					c0-4.3,0-8.5,0-12.8c-0.5,0.5-1,1-1.5,1.5c1.6,0,3.2,0,4.8,0c-0.5-0.5-1-1-1.5-1.5c0,4.3,0,8.6,0,13c0,1.9,3,1.9,3,0
					c0-4.3,0-8.6,0-13c0-0.8-0.7-1.5-1.5-1.5c-1.6,0-3.2,0-4.8,0c-0.8,0-1.5,0.7-1.5,1.5c0,4.3,0,8.5,0,12.8c0,0.7,0.5,1.2,1.1,1.4
					c0.8,0.3,1.8,0.8,2.6,0.9c1,0.1,2.1-0.4,3-0.7C356.5,303.6,355.7,300.7,353.8,301.2z"/>
			</g>
		</g>
		<g>
			<ellipse fill="#BA4A4A" cx="351.8" cy="309.8" rx="6.4" ry="6.2"/>
			<g>
				<path d="M356.7,309.8c-0.3,6-9.8,6.1-9.8,0C346.9,303.7,356.4,303.8,356.7,309.8c0.1,1.9,3.1,1.9,3,0c-0.2-4.3-3.5-7.7-7.9-7.7
					c-4.2,0-7.9,3.4-7.9,7.7c0,4.1,3.5,7.5,7.6,7.7c4.5,0.2,8-3.3,8.3-7.7C359.8,307.9,356.8,307.9,356.7,309.8z"/>
			</g>
		</g>
	</g>
	<g>
		<g>
			<path fill="#BA4A4A" d="M339.9,261.1c-1.6,2.1-10.9,2.9-10.9,2.9v-5.8h12.7C341.8,258.3,341.5,259,339.9,261.1z"/>
			<g>
				<path d="M338.8,260.1c-1.2,1.4-3.9,1.6-5.6,1.9c-1.4,0.2-2.8,0.4-4.1,0.5c0.5,0.5,1,1,1.5,1.5c0-1.9,0-3.8,0-5.8
					c-0.5,0.5-1,1-1.5,1.5c4.2,0,8.5,0,12.7,0c-0.5-0.6-1-1.3-1.4-1.9c0.2-0.6-0.2,0.3-0.3,0.5c-0.5,0.5-1,1.4-1.4,2
					c-1.2,1.6,1.5,3,2.6,1.5c0.7-1,1.6-2,2-3.2c0.4-0.9-0.6-1.9-1.4-1.9c-4.2,0-8.5,0-12.7,0c-0.8,0-1.5,0.7-1.5,1.5
					c0,1.9,0,3.8,0,5.8c0,0.8,0.7,1.6,1.5,1.5c3.6-0.3,9.3-0.5,11.9-3.3C342.2,260.8,340.1,258.6,338.8,260.1z"/>
			</g>
		</g>
		<g>
			<path fill="#BA4A4A" d="M310.5,261.4c1.6,2.1,10.9,2.9,10.9,2.9v-5.8h-12.7C308.6,258.6,308.9,259.3,310.5,261.4z"/>
			<g>
				<path d="M309.4,262.5c2.6,2.8,8.3,3,11.9,3.3c0.8,0.1,1.5-0.7,1.5-1.5c0-1.9,0-3.8,0-5.8c0-0.8-0.7-1.5-1.5-1.5
					c-4.2,0-8.5,0-12.7,0c-0.9,0-1.8,1-1.4,1.9c0.5,1.2,1.3,2.2,2,3.2c1.1,1.5,3.7,0,2.6-1.5c-0.4-0.6-0.9-1.5-1.4-2
					c-0.1-0.1-0.5-1-0.3-0.5c-0.5,0.6-1,1.3-1.4,1.9c4.2,0,8.5,0,12.7,0c-0.5-0.5-1-1-1.5-1.5c0,1.9,0,3.8,0,5.8
					c0.5-0.5,1-1,1.5-1.5c-1.4-0.1-2.8-0.3-4.1-0.5c-1.7-0.3-4.4-0.6-5.6-1.9C310.3,258.9,308.1,261,309.4,262.5z"/>
			</g>
		</g>
		<g>
			<circle fill="#BA4A4A" cx="325.2" cy="261.4" r="6.3"/>
			<g>
				<path d="M330,261.4c-0.3,6.2-9.6,6.2-9.6,0C320.4,255.2,329.7,255.3,330,261.4c0.1,1.9,3.1,1.9,3,0c-0.2-4.2-3.4-7.8-7.8-7.8
					c-4.2,0-7.8,3.6-7.8,7.8c0,4.1,3.4,7.6,7.5,7.8c4.6,0.2,7.9-3.4,8.2-7.8C333.1,259.5,330.1,259.5,330,261.4z"/>
			</g>
		</g>
	</g>
	<g>
		<rect x="289.1" y="272.2" fill="#440606" width="11.8" height="12.5"/>
		<g>
			<path d="M300.9,283.2c-3.9,0-7.9,0-11.8,0c0.5,0.5,1,1,1.5,1.5c0-4.2,0-8.3,0-12.5c-0.5,0.5-1,1-1.5,1.5c3.9,0,7.9,0,11.8,0
				c-0.5-0.5-1-1-1.5-1.5c0,4.2,0,8.3,0,12.5c0,1.9,3,1.9,3,0c0-4.2,0-8.3,0-12.5c0-0.8-0.7-1.5-1.5-1.5c-3.9,0-7.9,0-11.8,0
				c-0.8,0-1.5,0.7-1.5,1.5c0,4.2,0,8.3,0,12.5c0,0.8,0.7,1.5,1.5,1.5c3.9,0,7.9,0,11.8,0C302.8,286.2,302.9,283.2,300.9,283.2z"/>
		</g>
	</g>
	<g>
		<rect x="300.9" y="272.2" fill="#E59C9C" width="6.2" height="12.5"/>
		<g>
			<path d="M307.1,283.2c-2.1,0-4.1,0-6.2,0c0.5,0.5,1,1,1.5,1.5c0-4.2,0-8.3,0-12.5c-0.5,0.5-1,1-1.5,1.5c2.1,0,4.1,0,6.2,0
				c-0.5-0.5-1-1-1.5-1.5c0,4.2,0,8.3,0,12.5c0,1.9,3,1.9,3,0c0-4.2,0-8.3,0-12.5c0-0.8-0.7-1.5-1.5-1.5c-2.1,0-4.1,0-6.2,0
				c-0.8,0-1.5,0.7-1.5,1.5c0,4.2,0,8.3,0,12.5c0,0.8,0.7,1.5,1.5,1.5c2.1,0,4.1,0,6.2,0C309.1,286.2,309.1,283.2,307.1,283.2z"/>
		</g>
	</g>
	<g>
		<g>
			<path d="M315.3,283.2c-2.7,0-5.4,0-8.2,0c0.5,0.5,1,1,1.5,1.5c0-4.2,0-8.3,0-12.5c-0.5,0.5-1,1-1.5,1.5c2.7,0,5.4,0,8.2,0
				c-0.5-0.5-1-1-1.5-1.5c0,4.2,0,8.3,0,12.5c0,1.9,3,1.9,3,0c0-4.2,0-8.3,0-12.5c0-0.8-0.7-1.5-1.5-1.5c-2.7,0-5.4,0-8.2,0
				c-0.8,0-1.5,0.7-1.5,1.5c0,4.2,0,8.3,0,12.5c0,0.8,0.7,1.5,1.5,1.5c2.7,0,5.4,0,8.2,0C317.2,286.2,317.2,283.2,315.3,283.2z"/>
		</g>
	</g>
	<g>
		<rect x="315.3" y="272.2" fill="#FFFFFF" width="11.8" height="12.5"/>
		<g>
			<path d="M327.1,283.2c-3.9,0-7.9,0-11.8,0c0.5,0.5,1,1,1.5,1.5c0-4.2,0-8.3,0-12.5c-0.5,0.5-1,1-1.5,1.5c3.9,0,7.9,0,11.8,0
				c-0.5-0.5-1-1-1.5-1.5c0,4.2,0,8.3,0,12.5c0,1.9,3,1.9,3,0c0-4.2,0-8.3,0-12.5c0-0.8-0.7-1.5-1.5-1.5c-3.9,0-7.9,0-11.8,0
				c-0.8,0-1.5,0.7-1.5,1.5c0,4.2,0,8.3,0,12.5c0,0.8,0.7,1.5,1.5,1.5c3.9,0,7.9,0,11.8,0C329,286.2,329,283.2,327.1,283.2z"/>
		</g>
	</g>
	<g>
		<rect x="327.1" y="272.2" fill="#E59C9C" width="6.2" height="12.5"/>
		<g>
			<path d="M333.3,283.2c-2.1,0-4.1,0-6.2,0c0.5,0.5,1,1,1.5,1.5c0-4.2,0-8.3,0-12.5c-0.5,0.5-1,1-1.5,1.5c2.1,0,4.1,0,6.2,0
				c-0.5-0.5-1-1-1.5-1.5c0,4.2,0,8.3,0,12.5c0,1.9,3,1.9,3,0c0-4.2,0-8.3,0-12.5c0-0.8-0.7-1.5-1.5-1.5c-2.1,0-4.1,0-6.2,0
				c-0.8,0-1.5,0.7-1.5,1.5c0,4.2,0,8.3,0,12.5c0,0.8,0.7,1.5,1.5,1.5c2.1,0,4.1,0,6.2,0C335.2,286.2,335.2,283.2,333.3,283.2z"/>
		</g>
	</g>
	<g>
		<rect x="341.5" y="272.2" fill="#FFFFFF" width="11.8" height="12.5"/>
		<g>
			<path d="M353.3,283.2c-3.9,0-7.9,0-11.8,0c0.5,0.5,1,1,1.5,1.5c0-4.2,0-8.3,0-12.5c-0.5,0.5-1,1-1.5,1.5c3.9,0,7.9,0,11.8,0
				c-0.5-0.5-1-1-1.5-1.5c0,4.2,0,8.3,0,12.5c0,1.9,3,1.9,3,0c0-4.2,0-8.3,0-12.5c0-0.8-0.7-1.5-1.5-1.5c-3.9,0-7.9,0-11.8,0
				c-0.8,0-1.5,0.7-1.5,1.5c0,4.2,0,8.3,0,12.5c0,0.8,0.7,1.5,1.5,1.5c3.9,0,7.9,0,11.8,0C355.2,286.2,355.2,283.2,353.3,283.2z"/>
		</g>
	</g>
	<g>
		<g>
			<path d="M359.5,283.2c-2.1,0-4.1,0-6.2,0c0.5,0.5,1,1,1.5,1.5c0-4.2,0-8.3,0-12.5c-0.5,0.5-1,1-1.5,1.5c2.1,0,4.1,0,6.2,0
				c-0.5-0.5-1-1-1.5-1.5c0,4.2,0,8.3,0,12.5c0,1.9,3,1.9,3,0c0-4.2,0-8.3,0-12.5c0-0.8-0.7-1.5-1.5-1.5c-2.1,0-4.1,0-6.2,0
				c-0.8,0-1.5,0.7-1.5,1.5c0,4.2,0,8.3,0,12.5c0,0.8,0.7,1.5,1.5,1.5c2.1,0,4.1,0,6.2,0C361.4,286.2,361.4,283.2,359.5,283.2z"/>
		</g>
	</g>
	<g>
		<path fill="#BC0808" d="M368.6,185.3l-13.2-6.5C339,128.8,311,116.5,311,116.5c-38.6,6.7-81.4,6-124.5,0c0,0-36.8,25.3-41.7,62.3
			l-13.2,6.5c0,0,6.1-95.7,104.9-99.5S367.4,137,368.6,185.3z"/>
	</g>
	<g>
		<rect x="333.3" y="272.2" fill="#C30000" width="8.2" height="12.5"/>
		<g>
			<path d="M341.5,283.2c-2.7,0-5.4,0-8.2,0c0.5,0.5,1,1,1.5,1.5c0-4.2,0-8.3,0-12.5c-0.5,0.5-1,1-1.5,1.5c2.7,0,5.4,0,8.2,0
				c-0.5-0.5-1-1-1.5-1.5c0,4.2,0,8.3,0,12.5c0,1.9,3,1.9,3,0c0-4.2,0-8.3,0-12.5c0-0.8-0.7-1.5-1.5-1.5c-2.7,0-5.4,0-8.2,0
				c-0.8,0-1.5,0.7-1.5,1.5c0,4.2,0,8.3,0,12.5c0,0.8,0.7,1.5,1.5,1.5c2.7,0,5.4,0,8.2,0C343.4,286.2,343.4,283.2,341.5,283.2z"/>
		</g>
	</g>
	<g>
		<g>
			<path d="M135.3,187.4c2.9-1.4,5.8-2.9,8.7-4.3c3.3-1.6,5.2-1.9,5.8-5.8c1.9-12,7.3-23.1,14.3-33c5.5-7.7,12-14.6,19.2-20.8
				c1.5-1.3,3.4-3.5,5.2-4.2c0.6-0.2,0.7-0.3,0.8-0.3c0.4,0,3.9,0.8,4.6,0.9c2.3,0.3,4.6,0.6,6.8,0.8c32.8,3.8,66.1,4.5,98.9,0.1
				c2.1-0.3,4.2-0.6,6.2-0.9c0.9-0.1,1.8-0.2,2.7-0.4c-0.5,0.1,1.7-0.6,0.7-0.7c0.2,0,0.4,0.3,0.7,0.3c1.3,0.3,2.8,1.6,3.9,2.4
				c5.5,3.7,10.3,8.5,14.6,13.6c8.8,10.4,15.3,22.7,20.2,35.3c1.1,2.8,1.8,8,3.9,10.2c0.8,0.8,2.3,1.3,3.3,1.8
				c3.4,1.7,6.8,3.4,10.3,5.1c2.9,1.4,5.4-2.9,2.5-4.3c-3-1.5-6.1-3-9.1-4.5c-0.9-0.5-3.1-1.1-3.7-1.9c0.2,0.3-0.3-2.3-0.5-2.9
				c-0.8-2.2-1.6-4.3-2.4-6.4c-4.5-11.4-10.3-22.4-17.8-32.2c-4.6-6-9.8-11.5-15.8-16.1c-2.1-1.6-4.8-4-7.4-4.8
				c-2.3-0.7-4.9,0.3-7.2,0.6c-4.8,0.8-9.7,1.4-14.6,1.9c-8.3,0.9-16.6,1.4-24.9,1.7c-17.6,0.6-35.1-0.1-52.6-1.7
				c-4.2-0.4-8.4-0.8-12.7-1.3c-3.7-0.4-8.9-2.4-12.4-1.4c-1.2,0.3-2.5,1.6-3.4,2.4c-5.9,4.6-11.4,9.9-16.4,15.5
				c-8.4,9.5-15.5,20.4-19.7,32.5c-1.1,3.3-2,6.7-2.7,10.1c-0.1,0.7-0.2,1.4-0.4,2.1c-0.1,0.3,1.2-0.7,0.5,0.2
				c-0.3,0.4-1.4,0.7-1.9,0.9c-3.5,1.8-7.1,3.5-10.6,5.3C129.9,184.5,132.4,188.8,135.3,187.4L135.3,187.4z"/>
		</g>
	</g>
	<g>
		<path fill="#FFFFFF" d="M380.1,181c0,0-19.1-23.2-33.5-12.6c-14.4,10.6,2.5,33.5,2.5,33.5L380.1,181z"/>
		<g>
			<path d="M381.8,179.3c-7.8-9.5-23-21.4-35.6-13.7c-13.8,8.5-6.9,27.2,0.6,37.6c0.8,1,2.2,1.7,3.4,0.9c10.3-7,20.7-13.9,31-20.9
				c2.7-1.8,0.2-6.1-2.5-4.3c-10.3,7-20.7,13.9-31,20.9c1.1,0.3,2.3,0.6,3.4,0.9c-5.9-8.1-13.8-25.1-1.5-31.3
				c10.2-5.1,22.5,6.1,28.5,13.4C380.4,185.3,383.9,181.7,381.8,179.3z"/>
		</g>
	</g>
	<g>
		<g>
			<polygon fill="#6B0E0E" points="346.4,204.4 368.6,186.6 382.3,212.1 363.6,225.8 			"/>
			<g>
				<path d="M348.2,206.2c7.4-5.9,14.8-11.9,22.2-17.8c-1.3-0.2-2.6-0.3-3.9-0.5c4.5,8.5,9.1,17,13.6,25.5c0.3-1.1,0.6-2.3,0.9-3.4
					c-6.2,4.6-12.4,9.2-18.6,13.7c1,0.1,2,0.3,3,0.4c-5.7-7.1-11.5-14.3-17.2-21.4c-2-2.5-5.5,1-3.5,3.5
					c5.7,7.1,11.5,14.3,17.2,21.4c0.6,0.8,2.2,1,3,0.4c6.2-4.6,12.4-9.2,18.6-13.7c1.1-0.8,1.6-2.1,0.9-3.4
					c-4.5-8.5-9.1-17-13.6-25.5c-0.8-1.5-2.7-1.5-3.9-0.5c-7.4,5.9-14.8,11.9-22.2,17.8C342.2,204.7,345.7,208.2,348.2,206.2z"/>
			</g>
		</g>
		<g>
			<polygon fill="#6B0E0E" points="368.1,187.2 381.1,176.7 398.6,201.1 390.4,206.7 			"/>
			<g>
				<path d="M369.8,189c4.4-3.5,8.7-7,13.1-10.6c-1.3-0.2-2.6-0.3-3.9-0.5c5.8,8.1,11.7,16.3,17.5,24.4c0.3-1.1,0.6-2.3,0.9-3.4
					c-2.8,1.8-5.5,3.7-8.3,5.5c1,0.1,2,0.3,3,0.4c-7.4-6.5-14.9-13-22.3-19.4c-2.4-2.1-6,1.4-3.5,3.5c7.4,6.5,14.9,13,22.3,19.4
					c0.8,0.7,2.1,1,3,0.4c2.8-1.8,5.5-3.7,8.3-5.5c1-0.7,1.7-2.3,0.9-3.4c-5.8-8.1-11.7-16.3-17.5-24.4c-1-1.4-2.6-1.6-3.9-0.5
					c-4.4,3.5-8.7,7-13.1,10.6C363.8,187.5,367.3,191,369.8,189z"/>
			</g>
		</g>
		<g>
			<circle fill="#11BEE5" cx="363.4" cy="206.4" r="4.5"/>
			<g>
				<path d="M362.5,200.5c-3.2,0.5-5.5,3.5-5,6.8c0.5,3.1,3.4,5.4,6.6,5c3.2-0.4,5.5-3.2,5.3-6.4c-0.3-3.3-3.2-5.6-6.4-5.5
					c-1.9,0.1-1.9,3.1,0,3c3.9-0.2,4.7,5.5,0.8,5.9c-1.6,0.2-3.1-1-3.2-2.7c-0.2-1.8,1.2-3,2.9-3.3
					C365.2,203.1,364.4,200.2,362.5,200.5z"/>
			</g>
		</g>
	</g>
	<g>
		<polyline fill="#7F0909" points="409.8,216.4 379.7,180 347.3,203.5 375.6,238 		"/>
		<g>
			<path d="M411.5,214.6c-10-12.1-20-24.3-30.1-36.4c-0.6-0.8-2.2-1-3-0.4c-10.8,7.8-21.6,15.7-32.4,23.5c-1.4,1-1.6,2.6-0.5,3.9
				c9.4,11.5,18.9,23,28.3,34.5c2,2.5,5.6-1.1,3.5-3.5c-9.4-11.5-18.9-23-28.3-34.5c-0.2,1.3-0.3,2.6-0.5,3.9
				c10.8-7.8,21.6-15.7,32.4-23.5c-1-0.1-2-0.3-3-0.4c10,12.1,20,24.3,30.1,36.4C410,220.7,413.6,217.1,411.5,214.6L411.5,214.6z"/>
		</g>
	</g>
	<g>
		<polygon fill="#440606" points="346.4,204.4 368.6,186.6 382.3,212.1 363.6,225.8 		"/>
		<g>
			<path d="M348.2,206.2c7.4-5.9,14.8-11.9,22.2-17.8c-1.3-0.2-2.6-0.3-3.9-0.5c4.5,8.5,9.1,17,13.6,25.5c0.3-1.1,0.6-2.3,0.9-3.4
				c-6.2,4.6-12.4,9.2-18.6,13.7c1,0.1,2,0.3,3,0.4c-5.7-7.1-11.5-14.3-17.2-21.4c-2-2.5-5.5,1-3.5,3.5c5.7,7.1,11.5,14.3,17.2,21.4
				c0.6,0.8,2.2,1,3,0.4c6.2-4.6,12.4-9.2,18.6-13.7c1.1-0.8,1.6-2.1,0.9-3.4c-4.5-8.5-9.1-17-13.6-25.5c-0.8-1.5-2.7-1.5-3.9-0.5
				c-7.4,5.9-14.8,11.9-22.2,17.8C342.2,204.7,345.7,208.2,348.2,206.2z"/>
		</g>
	</g>
	<g>
		<polygon fill="#440606" points="368.1,187.2 381.1,176.7 398.6,201.1 390.4,206.7 		"/>
		<g>
			<path d="M369.8,189c4.4-3.5,8.7-7,13.1-10.6c-1.3-0.2-2.6-0.3-3.9-0.5c5.8,8.1,11.7,16.3,17.5,24.4c0.3-1.1,0.6-2.3,0.9-3.4
				c-2.8,1.8-5.5,3.7-8.3,5.5c1,0.1,2,0.3,3,0.4c-7.4-6.5-14.9-13-22.3-19.4c-2.4-2.1-6,1.4-3.5,3.5c7.4,6.5,14.9,13,22.3,19.4
				c0.8,0.7,2.1,1,3,0.4c2.8-1.8,5.5-3.7,8.3-5.5c1-0.7,1.7-2.3,0.9-3.4c-5.8-8.1-11.7-16.3-17.5-24.4c-1-1.4-2.6-1.6-3.9-0.5
				c-4.4,3.5-8.7,7-13.1,10.6C363.8,187.5,367.3,191,369.8,189z"/>
		</g>
	</g>
	<g>
		<circle fill="#7F0909" cx="363.4" cy="206.4" r="4.5"/>
		<g>
			<path d="M362.5,200.5c-3.2,0.5-5.5,3.5-5,6.8c0.5,3.1,3.4,5.4,6.6,5c3.2-0.4,5.5-3.2,5.3-6.4c-0.3-3.3-3.2-5.6-6.4-5.5
				c-1.9,0.1-1.9,3.1,0,3c3.9-0.2,4.7,5.5,0.8,5.9c-1.6,0.2-3.1-1-3.2-2.7c-0.2-1.8,1.2-3,2.9-3.3
				C365.2,203.1,364.4,200.2,362.5,200.5z"/>
		</g>
	</g>
	<g>
		<path fill="#440606" d="M248.3,123.7c-92.7,0-70.1-23-70.1-23h140.2C318.4,100.7,341,123.7,248.3,123.7z"/>
		<g>
			<path d="M248.3,121.2c-19.2,0-40.2,0.2-58.7-5.9c-3.3-1.1-7.1-2.5-9.6-5.1c-1.4-1.5-1.9-2.7-1.7-4.4c0.1-0.7,0.8-1.4,1.2-2.8
				c0.1-0.3,0.3-0.5,0.3-0.4c0.3,0.2-2.1,0-1.2,0.6c1.1,0.8,6,0,7.3,0c4.8,0,9.6,0,14.4,0c29.1,0,58.2,0,87.3,0c9.3,0,18.7,0,28,0
				c0.5,0,2,0.3,2.4,0c1-0.6-1.5-0.4-1.2-0.6c0.1,0,1,1.5,1,1.6c0.7,1.7,0.7,2.8,0.1,4c-1.5,2.8-4.6,4.5-7.5,5.7
				c-6.7,2.9-14.1,4.1-21.3,5C275.7,120.8,261.9,121.2,248.3,121.2c-3.2,0-3.2,5,0,5c19.9,0,42.2,0.4,61.3-6.5
				c5.8-2.1,13.6-5.9,13.7-13c0-2.4-1.1-6.2-3.1-7.7c-1.6-1.2-4.3-0.7-6.2-0.7c-4.7,0-9.4,0-14,0c-31.1,0-62.3,0-93.4,0
				c-9.1,0-18.4-0.7-27.5,0c-3,0.2-4.6,2.6-5.4,5.4c-1.7,5.7,2.1,10.3,6.7,13.1c12.9,7.7,31,8.2,45.5,8.9c7.5,0.4,14.9,0.5,22.4,0.5
				C251.5,126.2,251.5,121.2,248.3,121.2z"/>
		</g>
	</g>
	<g>
		<rect x="170.4" y="82.7" fill="#440606" width="155.4" height="18"/>
		<g>
			<path d="M325.8,98.2c-45.4,0-90.7,0-136.1,0c-6.4,0-12.8,0-19.3,0c0.8,0.8,1.7,1.7,2.5,2.5c0-6,0-12,0-18
				c-0.8,0.8-1.7,1.7-2.5,2.5c45.4,0,90.7,0,136.1,0c6.4,0,12.8,0,19.3,0c-0.8-0.8-1.7-1.7-2.5-2.5c0,6,0,12,0,18c0,3.2,5,3.2,5,0
				c0-6,0-12,0-18c0-1.4-1.1-2.5-2.5-2.5c-45.4,0-90.7,0-136.1,0c-6.4,0-12.8,0-19.3,0c-1.4,0-2.5,1.1-2.5,2.5c0,6,0,12,0,18
				c0,1.4,1.1,2.5,2.5,2.5c45.4,0,90.7,0,136.1,0c6.4,0,12.8,0,19.3,0C329,103.2,329,98.2,325.8,98.2z"/>
		</g>
	</g>
	<g>
		<rect x="170.4" y="88.4" fill="#BA4A4A" width="154.7" height="6.6"/>
		<g>
			<path d="M325.1,93.5c-45.2,0-90.5,0-135.7,0c-6.3,0-12.7,0-19,0c0.5,0.5,1,1,1.5,1.5c0-2.2,0-4.4,0-6.6c-0.5,0.5-1,1-1.5,1.5
				c45.2,0,90.5,0,135.7,0c6.3,0,12.7,0,19,0c-0.5-0.5-1-1-1.5-1.5c0,2.2,0,4.4,0,6.6c0,1.9,3,1.9,3,0c0-2.2,0-4.4,0-6.6
				c0-0.8-0.7-1.5-1.5-1.5c-45.2,0-90.5,0-135.7,0c-6.3,0-12.7,0-19,0c-0.8,0-1.5,0.7-1.5,1.5c0,2.2,0,4.4,0,6.6
				c0,0.8,0.7,1.5,1.5,1.5c45.2,0,90.5,0,135.7,0c6.3,0,12.7,0,19,0C327,96.5,327,93.5,325.1,93.5z"/>
		</g>
	</g>
	<g>
		<path fill="#7F0909" d="M325.8,82.7H170.4l-12.8-10.9c-2.7-2.3-2.7-5.1,0-7.3l8.7-7.4c2.6-2.2,7.3-3.7,12.6-3.9l68.5-16.5
			c1.1-0.1,69.4,16.5,69.4,16.5c5.6,0.3,10.4,1.9,12.9,4.2l7.8,7.5c2.2,2.1,2.2,4.6,0,6.7L325.8,82.7z"/>
		<g>
			<path d="M325.8,80.2c-22.4,0-44.8,0-67.3,0c-28.2,0-56.4,0-84.6,0c-0.7,0-2.4-0.3-3.1,0c-0.1,0-0.4-0.1-0.5,0
				c0.6-0.7,1.9,1.7,1.3,0.3c-0.2-0.5-1.4-1.2-1.8-1.5c-2.9-2.5-5.9-5-8.8-7.5c-1.6-1.3-1.7-1.1-1.7-3.4c0-2.5,0.7-2.5,2.6-4.1
				c2.7-2.3,5.3-5.2,8.6-6.6c3.2-1.4,6.7-1.5,10.1-2.2c5.3-1.1,10.6-2.6,15.9-3.8c15.4-3.7,30.8-7.4,46.2-11.2
				c1.6-0.4,3.2-0.7,4.8-1.2c1.1-0.3-1.1-0.2-0.6-0.1c0.6,0.1,1.2,0.3,1.9,0.4c5.9,1.3,11.9,2.8,17.8,4.2
				c15.2,3.6,30.3,7.3,45.5,10.9c5.6,1.4,11.9,1.2,16.4,5.2c2,1.8,5.9,4.5,7.1,6.8c1.7,3.4-3.2,6.3-5.2,8.2
				c-2.2,2.1-4.4,4.2-6.6,6.3c-2.3,2.2,1.2,5.8,3.5,3.5c2.4-2.3,4.9-4.6,7.3-7c2.2-2.1,5.4-4.4,6.5-7.3c1.4-4-1.6-6.9-4.2-9.4
				c-2.5-2.4-4.9-5.2-7.9-7c-5.1-3.1-12-3.2-17.9-4.6c-7.8-1.9-15.6-3.8-23.3-5.6c-8.8-2.1-17.6-4.2-26.4-6.3
				c-4.3-1-9.1-2.8-13.6-3.1c-3.7-0.2-7.9,1.6-11.4,2.4c-8.4,2-16.8,4.1-25.2,6.1c-8.2,2-16.5,4-24.7,6c-5.3,1.3-11.5,1.8-16.6,3.5
				c-3.7,1.3-6.4,3.7-9.3,6.2c-2.7,2.3-6.9,4.8-7.6,8.5c-0.8,3.8,1.9,6.2,4.6,8.5c3.2,2.7,6.4,5.5,9.6,8.2c2.2,1.9,3.6,1.8,6.4,1.8
				c4.7,0,9.5,0,14.2,0c16.4,0,32.8,0,49.2,0c29,0,58,0.5,87,0c0.5,0,1.1,0,1.6,0C329,85.2,329,80.2,325.8,80.2z"/>
		</g>
	</g>
	<g>
		<g>
			<g>
				<path fill="#0C4589" d="M276.9,62.7c-3.2,4.2-21.4,5.7-21.4,5.7V57.1h25.1C280.5,57.1,280.1,58.5,276.9,62.7z"/>
				<g>
					<path d="M275.8,61.7c-4.1,4.6-14.6,4.8-20.3,5.3c0.5,0.5,1,1,1.5,1.5c0-3.8,0-7.6,0-11.4c-0.5,0.5-1,1-1.5,1.5
						c8.4,0,16.7,0,25.1,0c-0.5-0.6-1-1.3-1.4-1.9c-0.6,1.6-2.4,3.7-3.5,5.3c-1.2,1.6,1.5,3,2.6,1.5c1.4-1.9,3-3.8,3.8-6
						c0.4-0.9-0.6-1.9-1.4-1.9c-8.4,0-16.7,0-25.1,0c-0.8,0-1.5,0.7-1.5,1.5c0,3.8,0,7.6,0,11.4c0,0.8,0.7,1.6,1.5,1.5
						c6.6-0.6,17.7-0.9,22.4-6.2C279.2,62.4,277.1,60.2,275.8,61.7z"/>
				</g>
			</g>
			<g>
				<path fill="#0C4589" d="M218.9,63.3c3.2,4.2,21.4,5.7,21.4,5.7V57.6h-25.1C215.3,57.6,215.7,59,218.9,63.3z"/>
				<g>
					<path d="M217.9,64.3c4.8,5.3,15.8,5.6,22.4,6.2c0.8,0.1,1.5-0.7,1.5-1.5c0-3.8,0-7.6,0-11.4c0-0.8-0.7-1.5-1.5-1.5
						c-8.4,0-16.7,0-25.1,0c-0.9,0-1.8,1-1.4,1.9c0.8,2.2,2.5,4.1,3.8,6c1.1,1.5,3.7,0,2.6-1.5c-1.1-1.5-2.9-3.7-3.5-5.3
						c-0.5,0.6-1,1.3-1.4,1.9c8.4,0,16.7,0,25.1,0c-0.5-0.5-1-1-1.5-1.5c0,3.8,0,7.6,0,11.4c0.5-0.5,1-1,1.5-1.5
						c-5.7-0.5-16.2-0.7-20.3-5.3C218.7,60.8,216.6,62.9,217.9,64.3z"/>
				</g>
			</g>
			<g>
				<circle fill="#0C4589" cx="248" cy="63.3" r="12.4"/>
				<g>
					<path d="M258.9,63.3c-0.8,14-21.9,14.1-21.9,0C237,49.2,258.1,49.3,258.9,63.3c0.1,1.9,3.1,1.9,3,0c-0.4-7.6-6-13.9-13.9-13.9
						c-7.6,0-14,6.4-13.9,13.9c0,7.3,5.9,13.6,13.3,13.9c8.2,0.4,14.2-6.1,14.6-13.9C262,61.4,259,61.4,258.9,63.3z"/>
				</g>
			</g>
		</g>
		<g>
			<polygon fill="#0C4589" points="247.9,53.8 250.7,59.4 256.9,60.3 252.4,64.7 253.4,70.8 247.9,67.9 242.4,70.8 243.4,64.7 
				239,60.3 245.2,59.4 			"/>
			<g>
				<path d="M246.6,54.6c0.8,1.7,1.6,4.9,3.2,6c1.5,1.1,4.9,0.9,6.7,1.2c-0.2-0.8-0.4-1.7-0.7-2.5c-1.3,1.3-4.3,3.2-4.9,5
					c-0.6,1.9,0.7,5.1,1.1,7c0.7-0.6,1.5-1.1,2.2-1.7c-1.7-0.9-4.3-3.1-6.3-3.1s-4.6,2.2-6.3,3.1c0.7,0.6,1.5,1.1,2.2,1.7
					c0.3-1.9,1.6-5.1,1.1-7c-0.6-1.9-3.5-3.7-4.9-5c-0.2,0.8-0.4,1.7-0.7,2.5c1.8-0.3,5.2,0,6.7-1.2c1.5-1.1,2.3-4.4,3.2-6
					c0.9-1.7-1.7-3.2-2.6-1.5c-0.5,0.9-0.9,1.9-1.4,2.8c-0.3,0.5-0.6,1.1-0.8,1.7c-0.2,0.4-1,1.3-0.1,0.7c0.9-0.6-0.4-0.1-0.8-0.1
					c-0.6,0-1.3,0.2-1.9,0.3c-1,0.1-2.1,0.3-3.1,0.4c-1.1,0.2-1.4,1.8-0.7,2.5c1.5,1.5,3,2.9,4.5,4.4c-0.1-0.5-0.3-1-0.4-1.5
					c-0.4,2.1-0.7,4.1-1.1,6.2c-0.2,1.3,1,2.3,2.2,1.7c1.8-1,3.7-1.9,5.5-2.9c-0.5,0-1,0-1.5,0c1.8,1,3.7,1.9,5.5,2.9
					c1.2,0.6,2.4-0.4,2.2-1.7c-0.4-2.1-0.7-4.1-1.1-6.2c-0.1,0.5-0.3,1-0.4,1.5c1.5-1.5,3-2.9,4.5-4.4c0.7-0.7,0.5-2.3-0.7-2.5
					c-1-0.1-2.1-0.3-3.1-0.4c-0.6-0.1-1.3-0.3-1.9-0.3c-0.3,0-1.7-0.5-0.8,0.1c0.8,0.6,0-0.3-0.1-0.7c-0.2-0.6-0.6-1.1-0.8-1.7
					c-0.5-0.9-0.9-1.9-1.4-2.8C248.4,51.3,245.8,52.9,246.6,54.6z"/>
			</g>
		</g>
	</g>
</g>
<g id="Layer_3">
	<g>
		<g id="ENFJ_4_1_">
			<g>
				<polygon fill="#0C4589" points="256.8,135.1 250,102.1 267.3,135.1 				"/>
				<g>
					<path d="M258.2,134.7c-2.3-11-4.5-22-6.8-33c-0.9,0.4-1.8,0.8-2.7,1.2c5.8,11,11.6,22,17.3,33c0.4-0.8,0.9-1.5,1.3-2.3
						c-3.5,0-7,0-10.6,0c-1.9,0-1.9,3,0,3c3.5,0,7,0,10.6,0c1.2,0,1.8-1.3,1.3-2.3c-5.8-11-11.6-22-17.3-33
						c-0.8-1.6-3.1-0.4-2.7,1.2c2.3,11,4.5,22,6.8,33C255.7,137.4,258.6,136.6,258.2,134.7z"/>
				</g>
			</g>
			<g>
				<polygon fill="#308DD8" points="250,168.1 256.8,135.1 267.3,135.1 				"/>
				<g>
					<path d="M251.4,168.5c2.3-11,4.5-22,6.8-33c-0.5,0.4-1,0.7-1.4,1.1c3.5,0,7,0,10.6,0c-0.4-0.8-0.9-1.5-1.3-2.3
						c-5.8,11-11.6,22-17.3,33c-0.9,1.7,1.7,3.2,2.6,1.5c5.8-11,11.6-22,17.3-33c0.5-1-0.1-2.3-1.3-2.3c-3.5,0-7,0-10.6,0
						c-0.6,0-1.3,0.5-1.4,1.1c-2.3,11-4.5,22-6.8,33C248.2,169.6,251,170.4,251.4,168.5z"/>
				</g>
			</g>
			<g>
				<polygon fill="#7F0909" points="232.7,135.1 250,102.1 256.8,135.1 				"/>
				<g>
					<path d="M234,135.8c5.8-11,11.6-22,17.3-33c-0.9-0.1-1.8-0.2-2.7-0.4c2.2,11,4.5,22,6.7,33c0.5-0.6,1-1.3,1.4-1.9
						c-8,0-16,0-24.1,0c-1.9,0-1.9,3,0,3c8,0,16,0,24.1,0c1,0,1.6-1,1.4-1.9c-2.2-11-4.5-22-6.7-33c-0.3-1.3-2.2-1.5-2.7-0.4
						c-5.8,11-11.6,22-17.3,33C230.5,136,233.1,137.6,234,135.8z"/>
				</g>
			</g>
			<g>
				<polygon fill="#BC0808" points="250,168.1 232.7,135.1 256.8,135.1 				"/>
				<g>
					<path d="M251.3,167.3c-5.8-11-11.6-22-17.3-33c-0.4,0.8-0.9,1.5-1.3,2.3c8,0,16,0,24.1,0c-0.5-0.6-1-1.3-1.4-1.9
						c-2.2,11-4.5,22-6.7,33c-0.4,1.9,2.5,2.7,2.9,0.8c2.2-11,4.5-22,6.7-33c0.2-0.9-0.4-1.9-1.4-1.9c-8,0-16,0-24.1,0
						c-1.2,0-1.8,1.3-1.3,2.3c5.8,11,11.6,22,17.3,33C249.6,170.6,252.2,169,251.3,167.3z"/>
				</g>
			</g>
		</g>
	</g>
</g>
</svg>
