<?xml version="1.0" encoding="utf-8"?>
<!-- Generator: Adobe Illustrator 18.1.1, SVG Export Plug-In . SVG Version: 6.00 Build 0)  -->
<svg version="1.1" xmlns="http://www.w3.org/2000/svg" xmlns:xlink="http://www.w3.org/1999/xlink" x="0px" y="0px"
	 viewBox="0 0 500 500" enable-background="new 0 0 500 500" xml:space="preserve">
<g id="Layer_1">
	<g>
		<path fill="#FFFFFF" d="M423.4,204.5c0.2-0.3,0.4-0.5,0.7-0.8c7.7-8.3,25-18.9,36.2-9.4s5.6,27-0.7,36.8L423.4,204.5z"/>
		<g>
			<path d="M425.1,206.2c7.4-8.3,23.4-18.9,33.8-9.7c9.7,8.6,4.1,24.1-1.6,33.3c1.1-0.3,2.3-0.6,3.4-0.9
				c-12-8.9-24.1-17.8-36.1-26.7c-2.6-1.9-5.1,2.4-2.5,4.3c12,8.9,24.1,17.8,36.1,26.7c1.1,0.8,2.8,0.2,3.4-0.9
				c7.2-11.6,12.4-30.2-0.2-40.3c-12.6-10-30.8,0.4-39.8,10.6C419.5,205.1,423,208.6,425.1,206.2z"/>
		</g>
	</g>
	<g>
		<path fill="#FFDB53" d="M362.3,249.6c0,0,39.1-19.7,60.2-47.3c0,0,27.5,5.7,37.6,32.1c0,0-20.7,48.3-75.6,73.3L362.3,249.6z"/>
	</g>
	<g>
		<path fill="#E29542" d="M418.9,282.6c0,0-1.3-30.4-27-51.6l23.3-20.2c27.3,10.2,37,34.9,37,34.9S441.8,260.3,418.9,282.6z"/>
	</g>
	<g>
		<path fill="#FFDB53" d="M121.8,252.2c0,0-5.9,2.1-14.1,6.9c-13.1,7.7-32,22.5-42.7,47.4c-17.3,40.5,32.1,49.7,80.7,28
			c0,0,13-28.5-6-45.8c0,0-10.8-3-23.3,0.3"/>
	</g>
	<g>
		<path fill="#E29542" d="M116.5,290c-8.3-11.7-43.8,3.2-43.8,3.2c8.2-15.6,17-20,17-20s18.6-12.9,29.9-3.2c0,0,4.1,9.6-2.6,21.2"/>
	</g>
	<g>
		<g>
			<path d="M119.2,250.8c-17.9,6.4-34.5,19.6-46,34.6c-10.1,13.1-23.8,36.2-11.2,52c11.5,14.4,35,13.2,51.1,10.3
				c6-1.1,11.9-2.6,17.7-4.5c3.1-1,6.1-2.1,9.1-3.3c1.9-0.8,4.8-1.4,6-3.1c2.8-3.6,3.5-10.6,4.1-14.9c1.5-10.4-0.1-21.3-6.7-29.7
				c-3.1-3.9-4.9-5-9.5-5.7c-6.7-0.9-13.4-0.5-20,1.1c-3.1,0.7-1.8,5.6,1.3,4.8c5.5-1.3,11.2-1.8,16.9-1.1c4.2,0.5,5,0.8,7.6,4.2
				c5.4,7.1,6.7,16.1,5.7,24.7c-0.4,3.5-1.3,11.3-3.6,13.8c-0.6,0.6-3.5,1.2-4.7,1.7c-2.5,1-5,1.9-7.6,2.7
				c-4.8,1.6-9.8,2.9-14.8,3.9c-14.4,2.9-35.9,5-47.4-6.5c-12.7-12.8,0.1-34,8.4-45.4c10.8-15,27.3-28.5,44.9-34.8
				C123.5,254.5,122.2,249.7,119.2,250.8L119.2,250.8z"/>
		</g>
	</g>
	<g>
		<g>
			<path d="M363.5,250.7c22.6-11.4,45.1-27.6,60.7-47.7c-0.8,0.2-1.6,0.4-2.4,0.6c6.2,1.3,12.2,4.1,17.5,7.4
				c5.5,3.5,10.5,8,14.2,13.4c0.9,1.3,1.7,2.6,2.4,3.9c0.4,0.6,0.8,1.8,1.3,2.4c-0.9-1.1,1.8,2.6,1.7,1.4c0,0.3-0.4,0.6-0.4,0.9
				c-0.2,1.7-2.2,4.2-3.1,5.7c-1.8,3.2-3.8,6.4-5.9,9.4c-6.5,9.5-14,18.3-22.3,26.3c-12.9,12.4-27.8,22.5-44.1,30
				c1.2,0.5,2.4,1,3.7,1.5c-7.4-19.4-14.7-38.7-22.1-58.1c-1.1-3-6-1.7-4.8,1.3c7.4,19.4,14.7,38.7,22.1,58.1
				c0.6,1.6,2.1,2.2,3.7,1.5c27-12.5,50.2-32.3,67.1-56.7c3.6-5.2,7.6-10.9,10.1-16.8c1.4-3.4-1.2-7.1-2.9-10.1
				c-3.4-5.9-8-10.9-13.3-15.1c-6.7-5.2-15.1-9.6-23.5-11.3c-0.8-0.2-1.9-0.1-2.4,0.6c-15.4,19.8-37.3,35.7-59.7,46.9
				C358.1,247.8,360.6,252.2,363.5,250.7z"/>
		</g>
	</g>
	<path fill="#FFFFFF" d="M381.1,349.2c-0.2-6-2.6-18-5.4-31.8l-0.1-0.5c-3-14.8-6.6-33.2-6.8-41.2c-0.1-5,0.1-12.2,0.1-19.8v-0.4
		c0-15.6,0.1-37.1-1.4-51.2c-1.2-11.5-5.6-40.7-19.2-62.5c-12.6-20.2-27.9-33.2-47.9-41.4c-18.4-7.4-52.1-8.3-53-8.3
		c-8.6,0-30.7,0.7-49.1,8.1c-20.1,8.1-35.3,21.3-47.9,41.5c-13.6,21.8-17.9,51-19.1,62.5c-1.5,14.1-1.4,35.5-1.2,51.2l0,3.6
		c0,6.3,0,12.3-0.1,16.6c-0.2,8.1-3.9,26.5-6.9,41.3l-0.1,0.6c-2.7,13.8-5.1,25.7-5.4,31.7c-0.6,15.4,3.8,25.7,14.9,35.8
		c7.1,6.4,14,9.5,21.7,9.5c4.1,0,7.8-0.8,11.9-1.8c1.1-0.3,2.3-0.6,3.5-1.1c4,2.2,11.7,5.6,21.7,5.6c6.5,0,14.1-1.4,22.4-5.4
		c4.8,3.9,9.7,7.5,9.7,7.5c12.9,7.3,24,8.8,25.6,8.8h0.4c1.6,0,12.7-0.9,26.1-8.8c0,0,4.3-3.1,8.8-6.7c7.7,3.4,14.7,4.6,20.8,4.6
		c10.9,0,19-3.9,22.7-6.1c1.8,0.7,3.3,1.3,4.9,1.7c4,1,7.7,1.8,11.8,1.8c7.8,0,14.4-2.9,21.6-9.5C377.4,375,381.7,364.6,381.1,349.2
		z"/>
	<g>
		<path fill="#FFDE83" d="M382.8,367.5c-85.9,12.5-172.9,12.2-260.8,0c0,0-3.3-6.8,0-27.8s11.3-68.2,11.3-68.2
			c80,12.2,159,12.5,237.1,0c0,0,3.9,42.5,10.2,62.1C386.9,353.3,382.8,367.5,382.8,367.5z"/>
	</g>
	<path fill="#C8C8C8" d="M285.5,389.9c0,0,8-6.1,16.8-7c8.8-1,23.8,5.5,23.8,5.5s-4.9,10-14.2,9.8
		C302.5,397.9,285.5,389.9,285.5,389.9z"/>
	<path fill="#FFDB53" d="M121.5,366.5c0,0,155.5,20.8,257.2,1.8c0,0-7.2,18.2-23.3,25.2c-16.2,7-40.5-15-53.2-12.5
		c-12.7,2.5-26.8,21.9-44,25.2c-17.2,3.3-48-20.3-48-20.3s-1-8.6-38.6,4.4S121.5,366.5,121.5,366.5z"/>
	<path fill="#C8C8C8" d="M169.6,389.9c0,0,8-6.1,16.8-7s23.8,5.5,23.8,5.5s-4.9,10-14.2,9.8S169.6,389.9,169.6,389.9z"/>
	<path d="M384.6,351.4c-0.2-6.1-2.7-18.4-5.5-32.5l-0.1-0.5c-3-15.1-6.3-33.9-6.5-42.1c-0.1-5.1,0.5-12.5,0.5-20.3v-0.4
		c0-16-0.3-37.9-1.8-52.2c-1.2-11.8-5.9-41.6-19.8-63.8c-12.9-20.6-28.6-33.9-49.1-42.2c-18.8-7.6-53.2-8.4-54.2-8.4
		c-8.8,0-31.4,0.7-50.1,8.3c-20.5,8.3-36,21.7-48.9,42.3c-13.9,22.2-18.3,52.1-19.6,63.8c-1.5,14.4-1.4,36.3-1.3,52.3l0,3.7
		c0,6.5,0,12.5-0.1,16.9c-0.2,8.3-4,27-7,42.1L121,319c-2.8,14.1-5.2,26.3-5.5,32.4c-0.6,15.7,3.8,26.3,15.2,36.6
		c7.3,6.6,14.3,9.7,22.1,9.7c4.2,0,8-0.8,12.1-1.9c1.1-0.3,2.3-0.7,3.5-1.1c4.1,2.3,11.9,5.7,22.2,5.7c6.7,0,14.4-1.4,22.9-5.5
		c4.9,4,9.9,7.4,10,7.4c13.2,7.5,24.5,8.7,26.2,8.7h0.4c1.7,0,13-0.7,26.7-8.7c0,0,4.4-3.1,8.9-6.7c7.8,3.5,15,4.8,21.3,4.8
		c11.2,0,19.4-4,23.2-6.2c1.8,0.7,3.4,1.3,5,1.7c4.1,1,7.9,1.9,12.1,1.9c7.9,0,14.7-3,22.1-9.6C380.8,377.7,385.2,367.1,384.6,351.4
		z M177.2,390.9c6.1-2.6,13.6-5.5,20.1-5.5c4.4,0,7.6,1.3,10.4,4.1l0.2,0.2C194.8,395.1,184,393.4,177.2,390.9z M291.7,390.4
		c0.3-0.3,0.6-0.5,0.8-0.8c2.8-2.8,6-4.2,10.4-4.2c6.1,0,13,2.5,18.9,5C315.4,392.9,304.8,395.2,291.7,390.4z M364.5,382.6
		c-6,5.4-11.1,7.8-17.2,7.8c-3.4,0-6.6-0.7-10.4-1.6c-2-0.5-4.5-1.6-7.7-3l-0.5-0.2c-7-3.2-16.7-7.4-25.8-7.4
		c-6.3,0-11.3,2.1-15.6,6.3c-11,11.2-21.9,15.7-29.1,17.5c-0.1,0-7.1,1.9-15.2-0.3c-8.2-2.3-19.2-6.1-30.1-17.2
		c-4.1-4.2-9.2-6.3-15.6-6.3c-9,0-18.6,4.2-25.9,7.4l-0.3,0.1c-3.3,1.4-5.8,2.6-7.9,3.1c-3.8,0.9-7,1.6-10.4,1.6
		c-6,0-11.3-2.4-17.2-7.8c-9.8-8.9-13.3-17.3-12.8-30.9c0.2-5.5,2.6-17.4,5.4-31.2l0.1-0.6c3.2-16.1,6.9-34.4,7.2-43.4
		c0.1-4.5,0.1-10.6,0.1-17.1l0-3.7c-0.1-15.8-0.3-37.5,1.2-51.4c1.2-11.3,5.4-39.8,18.5-60.7c12-19.3,26.5-31.8,45.4-39.5
		c17.6-7.1,39-8.2,47.4-8.2c0.8,0,33.8,0.8,51.4,7.9c19,7.7,33.4,20.4,45.5,39.6c13.1,21,18,49.5,19.2,60.8
		c1.5,14,1.9,35.7,1.9,51.5v0.4c0,7.8-0.8,15.2-0.7,20.4c0.2,8.9,3.6,27.2,6.8,43.4l-0.1,0.5c2.8,13.8,5.1,25.8,5.3,31.3
		C377.9,365.3,374.3,373.7,364.5,382.6z"/>
	<path d="M324.2,191.9c0,10.6-8.6,19.1-19.1,19.1c-10.6,0-19.1-8.6-19.1-19.1c0-0.9,0.1-1.8,0.2-2.6c1.2,0.8,2.6,1.3,4.1,1.3
		c4,0,7.2-3.2,7.2-7.2c0-2.9-1.7-5.4-4.1-6.5c3.2-2.5,7.3-4,11.7-4C315.6,172.8,324.2,181.4,324.2,191.9z"/>
	<path d="M214.1,191.9c0,10.6-8.6,19.1-19.1,19.1c-10.6,0-19.1-8.6-19.1-19.1c0-0.9,0.1-1.8,0.2-2.6c1.2,0.8,2.6,1.3,4.1,1.3
		c4,0,7.2-3.2,7.2-7.2c0-2.9-1.7-5.4-4.1-6.5c3.2-2.5,7.3-4,11.7-4C205.5,172.8,214.1,181.4,214.1,191.9z"/>
	
		<ellipse transform="matrix(0.7169 -0.6971 0.6971 0.7169 -112.2272 180.7014)" fill="#F68694" cx="166.4" cy="228.6" rx="7.4" ry="3.4"/>
	
		<ellipse transform="matrix(0.7169 -0.6971 0.6971 0.7169 -109.0657 190.8302)" fill="#F68694" cx="180.5" cy="229.7" rx="7.4" ry="3.4"/>
	
		<ellipse transform="matrix(0.7169 -0.6971 0.6971 0.7169 -105.0878 200.6274)" fill="#F68694" cx="194.5" cy="229.7" rx="7.4" ry="3.4"/>
	<g>
		<path fill="#1E2120" d="M381.2,277c0,40.8-251.1,40.8-251.1,0v-6c0,41.4,251.1,41.4,251.1,0V277z"/>
		<g>
			<path d="M379.7,277c-0.2,11.3-18.4,16.2-26.7,18.6c-19.8,5.8-40.8,8-61.3,9.3c-24,1.6-48.1,1.6-72,0c-20.6-1.3-41.5-3.5-61.3-9.3
				c-7.2-2.1-14.8-4.6-20.8-9.2c-5.7-4.3-5.9-8.6-5.9-15.4c-1,0-2,0-3,0c0.2,11.7,15.4,17.4,24.5,20.4c19.5,6.5,40.5,8.9,60.9,10.5
				c24.9,1.9,49.9,2.1,74.8,0.6c21.2-1.3,42.8-3.5,63.4-9.3c10.3-2.9,30.3-8.6,30.5-22.3c-1,0-2,0-3,0
				C379.7,273.1,379.7,275,379.7,277c0,1.9,3,1.9,3,0c0-2,0-4,0-6c0-1.9-3-1.9-3,0c-0.2,11-17.2,16-25.4,18.5
				c-19.1,5.9-39.4,8.2-59.3,9.6c-23.3,1.7-46.8,1.9-70.1,0.6c-20.7-1.2-41.8-3.2-61.9-8.5c-7.7-2-15.6-4.4-22.5-8.6
				c-4.2-2.5-8.8-6.3-8.9-11.6c0-1.9-3-1.9-3,0c0,6-0.2,10.6,4.2,15.2c4.3,4.6,10.5,7.3,16.3,9.5c18.9,7.2,39.8,9.6,59.8,11.4
				c25.3,2.2,50.8,2.5,76.1,1.2c22-1.2,44.5-3.3,65.9-9c10.4-2.8,31.6-8.3,31.8-22.3C382.7,275.1,379.7,275.1,379.7,277z"/>
		</g>
	</g>
	
		<ellipse transform="matrix(-0.7169 -0.6971 0.6971 -0.7169 413.1115 627.1812)" fill="#F68694" cx="333.9" cy="229.7" rx="7.4" ry="3.4"/>
	
		<ellipse transform="matrix(-0.7169 -0.6971 0.6971 -0.7169 388.1657 619.3947)" fill="#F68694" cx="319.8" cy="230.9" rx="7.4" ry="3.4"/>
	
		<ellipse transform="matrix(-0.7169 -0.6971 0.6971 -0.7169 364.0363 609.5975)" fill="#F68694" cx="305.8" cy="230.9" rx="7.4" ry="3.4"/>
	<g>
		<g>
			<path d="M286.8,164.1c6-14.1,32.7-13.9,38.8,0c1.3,2.9,5.6,0.4,4.3-2.5c-7.5-17.2-40-17.4-47.5,0
				C281.3,164.5,285.6,167,286.8,164.1L286.8,164.1z"/>
		</g>
	</g>
	<g>
		<g>
			<path d="M170.7,175.3c7.9,0.9,15.8,1.6,23.7,2c5,0.2,10.2,0.4,15.2-0.1c2.6-0.3,6.8-0.6,8.1-3.4c1.4-2.9-3-5.4-4.3-2.5
				c-0.2,0.4,0.4-0.1-0.4,0.2c-0.6,0.3-1.4,0.4-2.1,0.5c-2,0.4-4,0.4-6,0.5c-4.8,0.1-9.6-0.1-14.4-0.4c-6.6-0.4-13.2-1-19.7-1.8
				C167.5,170,167.5,175,170.7,175.3L170.7,175.3z"/>
		</g>
	</g>
	<g>
		<g>
			<path d="M130.7,272.9c79.1,12,159.4,12.5,238.4,0c3.2-0.5,1.8-5.3-1.3-4.8c-78.1,12.4-157.7,11.8-235.8,0
				C128.9,267.6,127.5,272.4,130.7,272.9L130.7,272.9z"/>
		</g>
	</g>
	<g>
		<g>
			<path d="M119.3,368.9c68.1,9.4,137,12,205.5,6.4c18.9-1.5,37.8-3.7,56.6-6.4c3.2-0.5,1.8-5.3-1.3-4.8
				c-66.3,9.6-133.5,11.5-200.2,6.4c-19.8-1.5-39.6-3.7-59.2-6.4C117.5,363.7,116.2,368.5,119.3,368.9L119.3,368.9z"/>
		</g>
	</g>
	<g>
		<path fill="#FFDB53" d="M277.3,270.5c0,0-3,13.5,3.8,32.4c6.8,18.9,3.3,34.4,8,44.9s25.5,13.8,39.3,14s26,0.8,34,6s28,16,32.5,9.3
			s8-28.3,0-48s-11.8-36.7-12.3-49.2c-0.5-12.5-4.8-39.2-16.6-39.2s-35.6,16-49.6,18S281.5,261.6,277.3,270.5z"/>
	</g>
	<g>
		<path fill="#FFDB53" d="M221.9,270.5c0,0,3,13.5-3.8,32.4c-6.8,18.9-3.3,34.4-8,44.9s-25.5,13.8-39.3,14s-26,0.8-34,6
			s-28,16-32.5,9.3s-8-28.3,0-48s11.8-36.7,12.3-49.2c0.5-12.5,4.8-39.2,16.6-39.2s35.6,16,49.6,18S217.6,261.6,221.9,270.5z"/>
	</g>
	<g>
		<path fill="#E29542" d="M380.8,268.3c0,0-21.5,3.5-37.8,11.5c-16.3,8-34.7,5.7-36.2,9.7c-1.5,4,0.7,32.3,5.2,42.5
			s7.5,11.5,18.3,10.3s32.6,7.5,39.2,10.8s25.6,1.3,30.1-1"/>
	</g>
	<g>
		<path fill="#E29542" d="M120,268.3c0,0,21.5,3.5,37.7,11.5c16.3,8,34.7,5.7,36.2,9.7c1.5,4-0.7,32.3-5.2,42.5s-7.5,11.5-18.3,10.3
			s-32.6,7.5-39.2,10.8c-6.6,3.3-25.6,1.3-30.1-1"/>
	</g>
	<g>
		<g>
			<path d="M274.8,269.8c-2.9,13.4,2,26.4,5.4,39.1c2.6,9.4,2.6,18.9,3.7,28.5c0.7,6,1.9,12.3,6.6,16.6c10.9,10.1,29.1,10,43,10.4
				c9.3,0.3,19.3,0.6,27.4,5.5c5.7,3.4,11.4,6.7,17.6,9.2c4.5,1.8,11.3,4.2,15.9,1.5c4.3-2.5,5.5-9.3,6.4-13.7
				c1.6-8.5,1.4-17.2-0.1-25.7c-1.9-10.5-6.8-20.2-9.9-30.4c-2.7-8.9-4.9-18-5.6-27.3c-0.5-6.5-0.9-12.8-2.1-19.2
				c-1.7-9.1-5.6-26.3-17.7-26.1c-7.3,0.1-14.6,3.9-21,6.8c-8.2,3.7-16.4,8.2-25.2,10.5c-8.5,2.2-17.5,2.2-26.1,4
				c-6.6,1.4-14.6,3.5-18,9.9c-1.5,2.8,2.8,5.4,4.3,2.5c3-5.6,11.3-6.9,17-8c6.9-1.3,14-1.7,21-2.9c13.2-2.3,25.1-10.3,37.5-15.1
				c4.4-1.7,10.8-4.6,15-1.1c4.4,3.7,6.2,10.7,7.5,16.1c3,12.2,2.5,24.8,5.1,37c1.8,8.7,4.4,17.2,7.5,25.5
				c3.4,9.1,6.6,17.7,7.1,27.6c0.3,7.1-0.1,14.6-2.6,21.2c-0.8,2.2-1.4,4.1-3.9,4.5c-2.7,0.4-5.8-0.7-8.3-1.6
				c-6-2.1-11.8-5.2-17.2-8.5c-5.7-3.5-11.4-5.4-18-6.2c-15-2-30.4,0.1-44.8-5.4c-7.8-2.9-11.7-7.5-12.9-15.7
				c-1.3-8.5-1.2-17.1-2.8-25.6c-2.6-14-9.9-27.8-6.8-42.5C280.3,268,275.5,266.7,274.8,269.8z"/>
		</g>
	</g>
	<g>
		<g>
			<path d="M379.1,265.8c-5.9,1-11.7,2.4-17.4,4c-10.3,2.9-19.6,8.2-29.9,11.1c-5,1.4-10.2,2.2-15.4,2.9c-3.2,0.4-6.9,0.6-9.9,1.9
				c-4.3,2-3.8,6.7-3.7,10.8c0.2,7.9,1.1,15.8,2.5,23.6c1.2,6.9,3,14.2,7.3,19.9c4.3,5.6,10.2,5.1,16.6,4.7
				c8.6-0.6,17.4,2.4,25.5,5.3c7.2,2.6,13.7,6.5,21.4,7.1c7.5,0.5,16.7,0.2,23.6-2.9c2.9-1.3,0.4-5.6-2.5-4.3
				c-5.8,2.6-13.7,2.6-19.9,2.3c-6.2-0.3-11-3-16.7-5.2c-7.2-2.8-14.6-5.3-22.2-6.6c-2.9-0.5-5.8-0.8-8.7-0.6
				c-3.2,0.2-7.2,1.2-10.3-0.3c-5.4-2.5-7.3-11.3-8.5-16.5c-1.6-7.1-2.4-14.4-2.9-21.6c-0.2-2.7-0.3-5.4-0.2-8.1
				c0.1-2.7-0.1-2.7,2.4-3.3c7.8-2,15.9-2,23.7-4.3c10.2-3,19.5-8.2,29.7-11.1c5.5-1.5,11.1-2.9,16.8-3.8
				C383.6,270.1,382.2,265.3,379.1,265.8L379.1,265.8z"/>
		</g>
	</g>
	<g>
		<g>
			<path d="M219.5,271.2c2.6,12.1-1.9,24.1-5.2,35.5c-2.2,7.8-3,15.9-3.6,23.9c-0.5,6.2-0.4,14.3-4.9,19.1
				c-4.6,4.9-12.2,6.7-18.5,7.9c-7.8,1.5-15.5,1.5-23.4,1.8c-7.3,0.3-14.9,0.7-21.8,3.1c-5.6,1.9-10.3,5.7-15.5,8.4
				c-4.9,2.5-11.6,6.3-17.3,5.7c-5-0.4-5.8-9.2-6.4-13.1c-1.3-8.7-0.7-17.7,1.5-26.2c2.4-9.2,6.6-17.9,9.3-27
				c2.2-7.6,4-15.3,4.9-23.1c0.7-5.9,0.7-11.8,1.6-17.7c1.2-8,3.9-28.1,15.5-26.4c14.8,2.2,27.6,12.5,41.9,16.6
				c7.2,2.1,15,2.2,22.4,3.4c6.3,1,16.4,2.2,19.8,8.5c1.5,2.8,5.9,0.3,4.3-2.5c-2.9-5.4-9.1-7.7-14.8-9.1c-7.8-2-15.9-2.7-23.9-3.8
				c-15.4-2.1-28.6-11.8-43.2-16.6c-4.9-1.6-10.4-2.9-15,0.2c-4.5,3.1-6.9,8.7-8.6,13.7c-4.7,13.9-3.8,28.6-6.7,42.8
				c-4.1,19.8-15,37.9-14.8,58.4c0.1,9.4,0.9,28.1,14.3,26.7c14.4-1.5,24.8-13.4,38.8-15.9c16.8-3,34,0.2,50.2-6.7
				c6.7-2.8,11.5-7.1,13.5-14.3c2.5-9.1,1.8-18.8,3.3-28c2.6-15.6,10.6-30.5,7.1-46.8C223.6,266.7,218.8,268,219.5,271.2z"/>
		</g>
	</g>
	<g>
		<g>
			<path d="M118.7,270.7c14.2,2.3,27.2,7.1,40.3,12.7c8.1,3.4,16.7,4.6,25.4,5.8c1.4,0.2,5.9,0.4,6.7,1.5c0.6,0.8,0.2,4.7,0.2,6.1
				c-0.1,7.2-0.9,14.5-2.2,21.6c-1.1,6.3-2.5,13.2-6.4,18.5c-4.2,5.6-11.5,2.6-17.4,3c-7.4,0.5-14.7,2.8-21.7,5.3
				c-6.1,2.2-12.4,6.1-18.8,6.9c-6.9,0.9-16.5,0.8-23-2.1c-2.9-1.3-5.5,3-2.5,4.3c6.3,2.8,14.4,3.2,21.2,3c6.9-0.1,11.9-2.5,18.2-5
				c8.3-3.3,17.2-6.6,26.1-7.4c6.2-0.6,13.2,2.1,18.8-1.8c5.2-3.6,7.6-11.2,9.1-17.1c1.9-7.8,2.9-16,3.4-24
				c0.3-3.8,1.6-11.2-1.1-14.5c-1.4-1.7-4-2.2-6-2.6c-4.6-0.9-9.2-1.2-13.8-2.1c-12.2-2.2-22.9-8.5-34.8-12.1
				c-6.6-2-13.4-3.7-20.3-4.8C116.9,265.3,115.5,270.1,118.7,270.7L118.7,270.7z"/>
		</g>
	</g>
	<g>
		<path fill="#FFFFFF" d="M224.4,219.1l53.8-8.8c0,0-1.9,23.4-22.9,27.7C234.3,242.2,224.4,219.1,224.4,219.1z"/>
		<g>
			<path d="M225.1,221.5c17.9-2.9,35.9-5.9,53.8-8.8c-1.1-0.8-2.1-1.6-3.2-2.4c-1,11.1-8.8,22.5-20.4,25.1
				c-12.7,2.8-23.8-6.4-28.7-17.6c-1.3-2.9-5.6-0.4-4.3,2.5c5.8,13.3,19.5,23.2,34.3,19.9c13.8-3.1,22.9-16.3,24.1-30
				c0.2-1.8-1.7-2.6-3.2-2.4c-17.9,2.9-35.9,5.9-53.8,8.8C220.6,217.2,222,222,225.1,221.5z"/>
		</g>
	</g>
	<g>
		<line fill="#FFFFFF" x1="230.1" y1="228.5" x2="247.1" y2="226"/>
		<g>
			<path d="M230.5,229.9c5.7-0.8,11.3-1.7,17-2.5c1.9-0.3,1.1-3.2-0.8-2.9c-5.7,0.8-11.3,1.7-17,2.5
				C227.8,227.3,228.6,230.2,230.5,229.9L230.5,229.9z"/>
		</g>
	</g>
	<g>
		<line fill="#FFFFFF" x1="262.1" y1="223.5" x2="275.1" y2="221"/>
		<g>
			<path d="M262.5,224.9c4.3-0.8,8.7-1.7,13-2.5c1.9-0.4,1.1-3.3-0.8-2.9c-4.3,0.8-8.7,1.7-13,2.5
				C259.8,222.4,260.6,225.3,262.5,224.9L262.5,224.9z"/>
		</g>
	</g>
	<g>
		<circle fill="#FFDB53" cx="278.4" cy="238.9" r="3.6"/>
		<g>
			<path d="M280.5,238.9c-0.1,2.7-4.3,2.7-4.3,0C276.3,236.1,280.4,236.2,280.5,238.9c0.1,1.9,3.1,1.9,3,0c-0.1-2.8-2.2-5.1-5.1-5.1
				c-2.8,0-5.1,2.3-5.1,5.1c0,2.7,2.2,5,4.9,5.1c3,0.1,5.2-2.3,5.3-5.1C283.6,236.9,280.6,237,280.5,238.9z"/>
		</g>
	</g>
	<g>
		<g>
			<path d="M142.2,325c-0.2,6-2.3,12.3-6.4,16.7c-2.2,2.4,1.4,5.9,3.5,3.5c4.9-5.4,7.6-12.9,7.8-20.3
				C147.3,321.8,142.3,321.8,142.2,325L142.2,325z"/>
		</g>
	</g>
	<g>
		<g>
			<path d="M128.9,285.5c5,3.3,9.2,8.5,10.8,14.3c0.9,3.1,5.7,1.8,4.8-1.3c-2-7-7-13.3-13.1-17.3
				C128.8,279.4,126.2,283.8,128.9,285.5L128.9,285.5z"/>
		</g>
	</g>
	<g>
		<circle fill="#FFDB53" cx="285.4" cy="224.9" r="3.6"/>
		<g>
			<path d="M287.5,224.9c-0.1,2.7-4.3,2.7-4.3,0C283.3,222.1,287.4,222.2,287.5,224.9c0.1,1.9,3.1,1.9,3,0c-0.1-2.8-2.2-5.1-5.1-5.1
				c-2.8,0-5.1,2.3-5.1,5.1c0,2.7,2.2,5,4.9,5.1c3,0.1,5.2-2.3,5.3-5.1C290.6,222.9,287.6,223,287.5,224.9z"/>
		</g>
	</g>
	<g>
		<path fill="#FFDB53" d="M71.4,342.2c15.5,8.4,43.1,5.9,71.4-6.7c0,0,13-28.5-6-45.8c0,0-18.8,0.3-31.3,3.5"/>
		<g>
			<path d="M70.1,344.3c11.1,5.7,24.1,6,36.2,4.4c7.8-1,15.4-2.8,22.8-5.3c3.7-1.2,7.4-2.6,11-4.1c1.8-0.7,3.7-1.2,4.9-2.8
				c1.3-1.8,1.9-4.9,2.4-6.9c1.2-4.3,1.9-8.8,2.1-13.3c0.2-5.3-0.5-10.8-2.4-15.8c-1.5-4-5.1-11.4-9.4-13.1c-3-1.2-8.2,0-11.3,0.3
				c-7.3,0.5-14.5,1.4-21.6,3.1c-3.1,0.8-1.8,5.6,1.3,4.8c7.1-1.7,14.3-2.5,21.5-3c2.3-0.2,4.6-0.3,6.9-0.3c0.4,0,1.5-0.2,1.9-0.1
				c-0.7-0.3,0.3,0.8,0.5,1.3c1.6,3.1,4.2,5.5,5.5,8.9c1.2,3.2,1.8,6.5,2,9.9c0.3,5-0.4,9.9-1.6,14.7c-0.5,1.9-1.3,5.8-2.3,7
				c-0.5,0.6-4.4,1.5-5.8,2c-2.1,0.8-4.1,1.5-6.2,2.3c-4.3,1.4-8.6,2.7-13,3.7c-13.7,3.1-30,4.7-43-2
				C69.8,338.5,67.2,342.8,70.1,344.3L70.1,344.3z"/>
		</g>
	</g>
	<g>
		<g>
			<path d="M71.3,295.6c5.4-2.2,11.1-4.1,16.8-5.5c6.9-1.7,19.4-5,24.6,1.7c2,2.5,5.5-1,3.5-3.5c-5.7-7.3-17.6-5.5-25.4-3.9
				c-7.1,1.4-14.2,3.6-20.9,6.4C67.1,292,68.4,296.8,71.3,295.6L71.3,295.6z"/>
		</g>
	</g>
	<g>
		<path fill="#FFDB53" d="M315,57.4c0,0,12.3-10.5,9.8-16.9s-73-1.8-96,5.5s-53.9,51.6-53.9,51.6l174.1,3.8
			c-20.5-32-36.6-41.7-36.6-41.7L315,57.4z"/>
	</g>
	<g>
		<g>
			<path d="M88.9,275.3c7.3-5,19-9.7,26.9-3.6c2.5,2,6.1-1.6,3.5-3.5c-9.9-7.7-23.5-3.8-33,2.8C83.8,272.8,86.3,277.2,88.9,275.3
				L88.9,275.3z"/>
		</g>
	</g>
	<g>
		<g>
			<path d="M302.2,55c17.1,12.4,31.2,30.1,42.6,47.6c1.7,2.7,6.1,0.2,4.3-2.5c-11.9-18.3-26.6-36.5-44.4-49.4
				C302.2,48.8,299.7,53.1,302.2,55L302.2,55z"/>
		</g>
	</g>
	<g>
		<g>
			<path d="M421.4,282.6c-0.9-20.3-12.5-40.5-27.7-53.4c-2.4-2.1-6,1.5-3.5,3.5c14.3,12,25.4,30.8,26.3,49.9
				C416.5,285.8,421.5,285.8,421.4,282.6L421.4,282.6z"/>
		</g>
	</g>
	<g>
		<g>
			<path d="M175,98.8c5.4-7.7,11.3-15.1,17.6-22.1C202,66,213.4,53,227.4,48.4c12.4-4.1,26.1-5.3,39-6.5c14.1-1.4,28.3-2.4,42.5-1.8
				c2.3,0.1,10.4-0.2,11.7,1.7c2.2,3.1-6.9,11.7-9.4,13.9c-2.4,2.1,1.1,5.6,3.5,3.5c5.1-4.4,17.9-19.2,5.8-22.7
				c-4.8-1.4-10.3-1.4-15.3-1.5c-7.8-0.1-15.7,0.2-23.5,0.7c-16.1,1-32.4,2.5-48.2,6c-15.2,3.3-26.6,12.6-37.3,23.6
				c-9.4,9.6-18,20.1-25.7,31.1C168.8,98.9,173.2,101.4,175,98.8L175,98.8z"/>
		</g>
	</g>
	<g>
		<g>
			<path d="M454.6,245.1c-6.7-16.9-22.1-30.2-38.8-36.6c-3-1.2-4.3,3.7-1.3,4.8c10.9,4.2,20.5,11.4,27.6,20.6
				c2.2,2.9,4.2,5.9,5.9,9.1c0.5,0.9,0.9,1.7,1.3,2.6c0.2,0.4,0.6,1.3,0.4,0.8C451,249.3,455.8,248,454.6,245.1L454.6,245.1z"/>
		</g>
	</g>
	<g>
		<path fill="#875222" d="M365,196c-20.2-38.7-49.5-59-49.5-59c-26.2-5.8-134,1.5-134,1.5c-28,18-47.5,59-47.5,59
			s1.4-36.8,27.1-68.3c0,0,110.5-33.1,182.9,5.8c0,0,10.6,11.2,16.3,33.2S365,196,365,196z"/>
		<g>
			<path d="M367.2,194.7c-11.7-22.1-27.9-42.5-47.7-57.9c-4.2-3.2-9-3.3-14.2-3.7c-9.6-0.8-19.2-0.9-28.7-0.8
				c-22.3,0-44.6,0.9-66.8,2.1c-7.6,0.4-15.1,0.8-22.7,1.3c-1.6,0.1-3.3,0-4.8,0.3c-3.4,0.6-6.2,3.4-8.9,5.5
				c-17.6,14.1-31.7,34.5-41.3,54.8c1.6,0.4,3.1,0.8,4.7,1.3c0.8-20.2,9-41.2,20-57.8c1.8-2.7,3.6-6.9,6.3-8.3
				c1.5-0.8,3.6-1,5.2-1.4c7-1.8,14-3.3,21.1-4.7c23.7-4.6,47.9-7.1,72-6.6c14,0.3,28.1,1.6,41.8,4.5c6.9,1.5,13.7,3.3,20.4,5.6
				c3.3,1.2,6.6,2.4,9.9,3.8c2.8,1.2,6.6,2.4,9,4.2c2.5,1.9,4.3,5.7,5.9,8.3c4.3,7.1,7.4,14.9,9.6,22.9c2,7.2,3.8,14.6,4.6,22
				c0.2,1.4,0.3,2.9,0.3,4.3c0,0.4-0.2,2.2,0,1c-0.5,3.1,4.3,4.5,4.8,1.3c1-6.6-1.2-14.3-2.7-20.6c-3.1-13.9-7.7-27.7-16.3-39.3
				c-2.2-2.9-3.6-4.1-7-5.8c-6.7-3.3-13.7-6.1-20.8-8.3c-14.1-4.5-28.8-7-43.5-8.2c-26.9-2.2-54-0.1-80.6,4.4
				c-8.9,1.5-17.7,3.3-26.4,5.4c-3.1,0.7-7.3,1.1-10.1,2.7c-3.2,1.8-5.9,7.2-7.9,10.2c-2.7,4.1-5.1,8.3-7.3,12.7
				c-3.7,7.3-6.6,15-8.9,22.9c-2.3,8-4.1,16.4-4.5,24.7c-0.1,2.4,3.6,3.5,4.7,1.3c8-16.7,18.9-32.8,31.9-45.9
				c2.3-2.3,4.6-4.5,7.1-6.5c1.6-1.4,4.9-4.7,6.4-5.3c0.9-0.3,2.3-0.2,3.3-0.2c6.2-0.4,12.4-0.8,18.6-1.1c20.9-1.1,41.8-2,62.7-2.3
				c10-0.1,20-0.2,30,0.2c5.2,0.2,13.9-0.3,18.3,1.7c2.2,1,4.3,3.3,6.2,4.9c4.1,3.5,8.1,7.3,11.9,11.2c12,12.4,22.2,26.5,30.3,41.8
				C364.3,200.1,368.7,197.6,367.2,194.7z"/>
		</g>
	</g>
	<g>
		<path fill="#FFD13E" d="M164.8,101.8c0,0-16.8,9-17,21s-12.3,22.2-14.5,30.3c-2.3,8.2,1,22.4,5.8,18.7s7.5-19.8,36.5-23
			s124.1-9.3,150.7-1.4c26.6,7.9,31.5,13.1,36.6,24.4s17.5-7.1,16-12.9S367.5,138.8,368,128s-6-24.8-34.3-30.3s-106.2,1.3-117.7,0
			S173.9,95.1,164.8,101.8z"/>
		<g>
			<path d="M163.5,99.6c-7.1,3.9-14.6,10.2-17.3,18c-1,3-0.8,6.2-1.5,9.2c-0.9,3.6-2.8,6.9-4.8,10.1c-3.1,5-7.4,9.7-9,15.5
				c-1.3,4.7-1.5,25.6,8.2,22.1c2.4-0.9,3.9-3.5,5.3-5.5c2-3,4.1-5.9,6.9-8.4c8.7-7.7,20.6-9.1,31.7-10.2c9.9-0.9,19.9-1.7,29.8-2.3
				c24.7-1.6,49.6-2.6,74.4-2.2c21,0.4,42.9,1.7,61.5,12.6c3.6,2.1,6.7,4.8,8.9,8.4c2,3.2,3,7.8,6.3,9.8c7.5,4.5,15-7.3,16.8-13
				c1.4-4.4,0-7.6-1.9-11.6c-3-6.4-6.7-12.8-7.9-19.8c-0.8-4.3-0.1-8.6-1.4-12.9c-1.2-3.9-3.3-7.4-6.1-10.4
				c-15-16.3-42.1-16-62.5-16.1c-23.3-0.1-46.5,1.3-69.7,2.1c-18.2,0.6-36.5-2.5-54.6,0.2C172.1,96,167.3,97,163.5,99.6
				c-2.6,1.8-0.1,6.1,2.5,4.3c8.3-5.6,21.6-4.8,31.2-4.7c7.6,0.1,15.2,1.1,22.9,1.2c18.7,0.1,37.4-1.5,56-2
				c20.5-0.6,42.8-2.2,62.8,3.1c9.9,2.6,21.3,7.7,25.2,18c1.4,3.7,1.1,7.2,1.4,11.1c0.4,5.8,2.8,11.4,5.2,16.6
				c1.8,3.9,6.1,9.5,5.5,13.9c-0.5,3.8-3.9,9.2-7.2,11.1c-3.9,2.1-5-3.9-6.6-6.6c-1.8-3-4-5.8-6.8-8c-8.3-6.7-19.8-10.2-30-12.9
				c-7.2-1.9-14.9-2.5-22.3-2.9c-22.3-1.4-44.7-0.7-66.9,0.3c-19.4,0.9-38.7,2-58,4c-10.2,1.1-20.4,3.1-28.7,9.5c-3,2.3-5.4,5-7.6,8
				c-0.8,1-3,5.8-4.3,6.1c-2.8,0.5-2.8-11.8-2.5-13.8c0.9-5.9,5.4-10.8,8.5-15.7c3.3-5.2,5.8-10.4,6.4-16.6c0.6-6,3.8-10.4,8.3-14.3
				c2.3-2,4.8-3.8,7.5-5.3C168.8,102.4,166.3,98,163.5,99.6z"/>
		</g>
	</g>
	<g>
		<g>
			<path d="M145.4,128.7C145.4,128.7,145.4,128.7,145.4,128.7c0.1,0.6,0.6,1,1.1,1.1c1.8,0.6,5.3-2.9,6.7-3.6
				c7.4-4,15.9-5.1,24.2-4.9c1.9,0,1.9-3,0-3c-7.5-0.2-15.1,0.7-22.1,3.6c-2.1,0.9-4.1,1.9-6.1,3.2c-0.5,0.3-1.5,0.8-1.9,1.3
				c-0.1,0.2-0.6,0.3-0.7,0.5c-0.1,0-0.1,0.1-0.2,0.1c-0.7,0.4-0.1,0.7,1.8,1C147.9,126,145,126.8,145.4,128.7L145.4,128.7z"/>
		</g>
	</g>
	<g>
		<g>
			<path d="M344.7,133C344.7,133,344.7,133,344.7,133c-0.4,0.7-0.2,1.3,0.2,1.9c1.1,1.4,5.7,1.2,7.3,1.7c8.1,2.2,15,7,20.9,12.8
				c1.4,1.4,3.5-0.8,2.1-2.1c-5.5-5.3-11.6-9.9-18.8-12.5c-2.2-0.8-4.5-1.4-6.8-1.8c-0.6-0.1-1.5-0.4-2.1-0.3
				c-0.8,0.1-1.1-0.6-0.5,0.1c0.1,0.6,0.2,1.2,0.2,1.8c0,0,0,0,0-0.1C348.3,132.8,345.7,131.3,344.7,133L344.7,133z"/>
		</g>
	</g>
</g>
<g id="Layer_2">
	<g>
		<g id="ENFJ_4_1_">
			<g>
				<polygon fill="#1E2120" points="256.8,135.1 250,102.1 267.3,135.1 				"/>
				<g>
					<path d="M258.2,134.7c-2.3-11-4.5-22-6.8-33c-0.9,0.4-1.8,0.8-2.7,1.2c5.8,11,11.6,22,17.3,33c0.4-0.8,0.9-1.5,1.3-2.3
						c-3.5,0-7,0-10.6,0c-1.9,0-1.9,3,0,3c3.5,0,7,0,10.6,0c1.2,0,1.8-1.3,1.3-2.3c-5.8-11-11.6-22-17.3-33
						c-0.8-1.6-3.1-0.4-2.7,1.2c2.3,11,4.5,22,6.8,33C255.7,137.4,258.6,136.6,258.2,134.7z"/>
				</g>
			</g>
			<g>
				<polygon fill="#575958" points="250,168.1 256.8,135.1 267.3,135.1 				"/>
				<g>
					<path d="M251.4,168.5c2.3-11,4.5-22,6.8-33c-0.5,0.4-1,0.7-1.4,1.1c3.5,0,7,0,10.6,0c-0.4-0.8-0.9-1.5-1.3-2.3
						c-5.8,11-11.6,22-17.3,33c-0.9,1.7,1.7,3.2,2.6,1.5c5.8-11,11.6-22,17.3-33c0.5-1-0.1-2.3-1.3-2.3c-3.5,0-7,0-10.6,0
						c-0.6,0-1.3,0.5-1.4,1.1c-2.3,11-4.5,22-6.8,33C248.2,169.6,251,170.4,251.4,168.5z"/>
				</g>
			</g>
			<g>
				<polygon fill="#FFD140" points="232.7,135.1 250,102.1 256.8,135.1 				"/>
				<g>
					<path d="M234,135.8c5.8-11,11.6-22,17.3-33c-0.9-0.1-1.8-0.2-2.7-0.4c2.2,11,4.5,22,6.7,33c0.5-0.6,1-1.3,1.4-1.9
						c-8,0-16,0-24.1,0c-1.9,0-1.9,3,0,3c8,0,16,0,24.1,0c1,0,1.6-1,1.4-1.9c-2.2-11-4.5-22-6.7-33c-0.3-1.3-2.2-1.5-2.7-0.4
						c-5.8,11-11.6,22-17.3,33C230.5,136,233.1,137.6,234,135.8z"/>
				</g>
			</g>
			<g>
				<polygon fill="#FFE197" points="250,168.1 232.7,135.1 256.8,135.1 				"/>
				<g>
					<path d="M251.3,167.3c-5.8-11-11.6-22-17.3-33c-0.4,0.8-0.9,1.5-1.3,2.3c8,0,16,0,24.1,0c-0.5-0.6-1-1.3-1.4-1.9
						c-2.2,11-4.5,22-6.7,33c-0.4,1.9,2.5,2.7,2.9,0.8c2.2-11,4.5-22,6.7-33c0.2-0.9-0.4-1.9-1.4-1.9c-8,0-16,0-24.1,0
						c-1.2,0-1.8,1.3-1.3,2.3c5.8,11,11.6,22,17.3,33C249.6,170.6,252.2,169,251.3,167.3z"/>
				</g>
			</g>
		</g>
	</g>
</g>
</svg>
