<?xml version="1.0" encoding="utf-8"?>
<!-- Generator: Adobe Illustrator 25.0.0, SVG Export Plug-In . SVG Version: 6.00 Build 0)  -->
<svg version="1.1" xmlns="http://www.w3.org/2000/svg" xmlns:xlink="http://www.w3.org/1999/xlink" x="0px" y="0px"
	 viewBox="0 0 500 500" enable-background="new 0 0 500 500" xml:space="preserve">
<g id="Layer_1">
	<g>
		<g>
			<path fill="#FFFFFF" d="M150.3,324.9L150.3,324.9c-10.1,8.6-25.2,7.5-33.8-2.6l-74.3-86.5c-8.6-10.1-7.5-25.2,2.6-33.8l0,0
				c10.1-8.6,25.2-7.5,33.8,2.6l74.3,86.5C161.5,301.2,160.3,316.3,150.3,324.9z"/>
			<g>
				<path d="M148.5,323.2c-7.3,6.3-18.2,6.6-26.1,1.3c-2.5-1.7-4.4-4.1-6.4-6.3c-6.5-7.5-12.9-15-19.4-22.6
					c-9.3-10.8-18.5-21.6-27.8-32.4c-7.1-8.3-14.2-16.5-21.3-24.8c-1.2-1.4-2.4-2.8-3.6-4.2c-5.9-6.9-6.7-17.2-2-25
					c4.9-8.2,15-12.2,24.2-9.6c4.2,1.2,7.8,3.6,10.7,6.9c0.4,0.4,0.7,0.8,1.1,1.2c5.8,6.8,11.6,13.5,17.4,20.3
					c9.2,10.7,18.4,21.4,27.6,32.1c7.6,8.8,15.2,17.7,22.8,26.5c1.7,2,3.4,3.9,5.1,5.9c4.5,5.2,6.4,12.3,4.8,19
					C154.5,316.1,152.1,320.1,148.5,323.2c-1,0.9-0.9,2.6,0,3.5c1,1,2.5,0.9,3.5,0c8.1-7.1,11.3-18.9,7.5-29.1
					c-1.5-4-4-7.2-6.7-10.4c-6.5-7.6-13.1-15.2-19.6-22.8c-9.5-11-19-22.1-28.4-33.1c-7.1-8.3-14.2-16.6-21.4-24.9
					c-1.5-1.7-2.9-3.6-4.5-5.1c-7.8-7.6-19.6-9.5-29.5-5.1c-9.8,4.4-16.2,14.9-15.5,25.6c0.3,5.5,2.4,10.7,5.8,15
					c0.5,0.6,1,1.2,1.5,1.8c5.8,6.8,11.6,13.5,17.4,20.3c9.4,10.9,18.8,21.9,28.2,32.8c7.7,9,15.4,17.9,23.1,26.9
					c1.6,1.8,3.1,3.6,4.7,5.4c5.8,6.8,14.8,10.2,23.6,9c5.2-0.7,9.9-2.9,13.9-6.3c1-0.9,0.9-2.6,0-3.5
					C151,322.2,149.5,322.3,148.5,323.2z"/>
			</g>
		</g>
		<g>
			<path fill="#CFB6FF" d="M93.4,221.9c10.6,1.8,36.8,40,59.1,68.7c8.9,10.3,7.9,25.7-2.2,34.3l0,0c-10.1,8.6-25.4,7.3-34.2-3
				c-24.8-26-59.7-58.4-58.8-68.5L93.4,221.9z"/>
			<g>
				<path d="M92.7,224.3c0.4,0.1,0.7,0.2,1.1,0.3c0.1,0,0.2,0.1,0.3,0.1c0.3,0.1-0.6-0.3-0.1-0.1c0.2,0.1,0.5,0.2,0.7,0.3
					c1,0.5,1.9,1.2,2.8,1.8c-0.4-0.3,0.2,0.1,0.3,0.2c0.3,0.2,0.6,0.5,0.8,0.7c0.6,0.5,1.1,1,1.6,1.5c1.2,1.1,2.3,2.2,3.4,3.4
					c5.9,6.1,11.1,12.7,16.3,19.3c6.2,7.9,12.2,16,18.2,24c3.1,4.1,6.1,8.2,9.2,12.2c2.8,3.6,5.9,7,7.4,11.4
					c2.6,7.8,0.9,16.6-5,22.4c-5.8,5.8-14.5,7.6-22.2,4.9c-4.2-1.4-7.2-4-10.2-7.2c-3.4-3.5-6.8-7-10.2-10.5c-7-7.1-14-14.2-21-21.4
					c-6-6.3-12.1-12.6-17.6-19.3c-2.1-2.6-3.9-4.8-5.8-7.7c-0.7-1.1-1.4-2.2-2-3.3c-0.1-0.2-0.2-0.4-0.3-0.6c-0.1-0.1-0.4-1-0.2-0.3
					c-0.2-0.4-0.3-0.9-0.5-1.4c-0.1-0.2-0.1-0.4-0.2-0.6c0-0.1-0.1-0.8-0.1-0.3c0.1,0.5,0-0.1,0-0.3c0-0.2,0-0.4,0-0.5
					c-0.2,0.6-0.5,1.2-0.7,1.8c4.1-3.6,8.2-7.1,12.3-10.7c6.5-5.7,13-11.3,19.4-17c1.5-1.3,3-2.6,4.5-3.9c1-0.9,0.9-2.6,0-3.5
					c-1-1-2.5-0.9-3.5,0c-3.7,3.3-7.5,6.5-11.2,9.8c-6.3,5.5-12.6,11-18.9,16.5c-1.8,1.6-3.6,3.2-5.5,4.8c-0.8,0.7-1.3,1.3-1.3,2.5
					c-0.1,1.4,0.3,2.8,0.8,4c1.5,3.7,3.8,7,6.3,10.2c3.5,4.5,7.2,8.8,11,13c9.4,10.2,19.2,20,28.9,29.9c2.5,2.5,4.9,5,7.4,7.5
					c2.4,2.4,4.6,5,7.1,7.4c4.7,4.4,10.9,7.1,17.4,7.4c12.9,0.7,24.9-8.7,27-21.5c1.1-6.4-0.1-13-3.3-18.5c-1.7-2.9-4-5.4-6-8.1
					c-2.2-2.9-4.4-5.9-6.6-8.8c-8.6-11.4-17.1-22.9-26.1-34.1c-3.6-4.5-7.3-8.9-11.3-13c-2.8-2.9-5.9-5.9-9.4-8.1
					c-1.2-0.7-2.5-1.3-3.8-1.6c-1.3-0.2-2.7,0.4-3.1,1.7C90.7,222.5,91.4,224.1,92.7,224.3z"/>
			</g>
		</g>
		<g>
			
				<rect x="47.3" y="230.2" transform="matrix(0.7585 -0.6516 0.6516 0.7585 -135.8942 104.5834)" fill="#A185D6" width="51.7" height="11"/>
			<g>
				<path d="M94.6,221.2c-4.4,3.8-8.9,7.6-13.3,11.4c-7,6-14,12.1-21.1,18.1c-1.6,1.4-3.2,2.8-4.9,4.2c1.2,0,2.4,0,3.5,0
					c-2.4-2.8-4.8-5.6-7.2-8.3c0,1.2,0,2.4,0,3.5c4.4-3.8,8.9-7.6,13.3-11.4c7-6,14-12.1,21.1-18.1c1.6-1.4,3.2-2.8,4.9-4.2
					c-1.2,0-2.4,0-3.5,0c2.4,2.8,4.8,5.6,7.2,8.3c0.9,1,2.6,0.9,3.5,0c1-1,0.9-2.5,0-3.5c-2.4-2.8-4.8-5.6-7.2-8.3
					c-0.9-1.1-2.6-0.8-3.5,0c-4.4,3.8-8.9,7.6-13.3,11.4c-7,6-14,12.1-21.1,18.1c-1.6,1.4-3.2,2.8-4.9,4.2c-1.1,0.9-0.8,2.6,0,3.5
					c2.4,2.8,4.8,5.6,7.2,8.3c0.9,1.1,2.6,0.8,3.5,0c4.4-3.8,8.9-7.6,13.3-11.4c7-6,14-12.1,21.1-18.1c1.6-1.4,3.2-2.8,4.9-4.2
					c1-0.9,0.9-2.6,0-3.5C97.1,220.2,95.6,220.3,94.6,221.2z"/>
			</g>
		</g>
	</g>
	<g>
		<g>
			<path fill="#FFFFFF" d="M331.7,258.6L331.7,258.6c7-11.2,21.8-14.6,33.1-7.6l96.6,60.5c11.2,7,14.6,21.8,7.6,33.1l0,0
				c-7,11.2-21.8,14.6-33.1,7.6l-96.6-60.5C328.1,284.7,324.7,269.9,331.7,258.6z"/>
			<g>
				<path d="M333.9,259.9c5-8,14.9-11.8,24-9.2c3.1,0.9,5.7,2.6,8.4,4.2c8.4,5.3,16.9,10.6,25.3,15.8c12.1,7.6,24.1,15.1,36.2,22.7
					c9.3,5.8,18.6,11.6,27.8,17.4c1.5,1,3,1.9,4.6,2.9c7.7,4.9,11.6,14.4,9.4,23.3c-2.3,9.2-10.5,16-19.9,16.4
					c-4.4,0.2-8.7-1-12.5-3.3c-0.4-0.3-0.9-0.5-1.3-0.8c-7.6-4.7-15.1-9.5-22.7-14.2c-12-7.5-24-15-36-22.5
					c-9.9-6.2-19.8-12.4-29.8-18.6c-2.2-1.4-4.4-2.7-6.6-4.1c-5.8-3.6-9.8-9.7-10.3-16.6C330.3,268.5,331.4,263.9,333.9,259.9
					c1.7-2.7-2.6-5.3-4.3-2.5c-5.6,9-5.3,21,1.1,29.6c2.6,3.5,6,6,9.7,8.3c8.5,5.3,17,10.6,25.4,15.9c12.4,7.8,24.8,15.5,37.2,23.3
					c9.3,5.8,18.6,11.6,27.9,17.5c2,1.2,4,2.6,6.1,3.6c9.7,4.8,21.4,3.2,29.5-3.9c7.9-7,10.9-18.7,7.3-28.6
					c-2.2-6.1-6.4-10.8-11.9-14.2c-7.5-4.7-15-9.4-22.5-14.1c-12.3-7.7-24.6-15.4-36.9-23.1c-10-6.3-20.1-12.6-30.1-18.9
					c-2-1.2-4-2.5-6-3.7c-7.7-4.8-17.2-5.3-25.4-1.5c-4.6,2.1-8.5,5.7-11.2,10C327.9,260.1,332.2,262.6,333.9,259.9z"/>
			</g>
		</g>
		<g>
			<path fill="#CFB6FF" d="M416.7,340.1c-10.7,1.4-47.1-27.2-76.8-48.1c-11.5-7.2-15.1-22.2-8.1-33.4v0c7-11.2,22.1-14.5,33.6-7.3
				c31.4,17.5,74.4,38,76.5,47.9L416.7,340.1z"/>
			<g>
				<path d="M416.7,337.6c-0.4,0-0.7,0.1-1.1,0c-0.2,0-0.5,0-0.7-0.1c0.8,0,0,0-0.2,0c-1.1-0.2-2.2-0.5-3.2-0.9
					c-0.3-0.1-0.6-0.2-0.9-0.3c-0.1-0.1-1-0.4-0.5-0.2c-0.7-0.3-1.4-0.6-2.1-1c-1.5-0.7-2.9-1.5-4.4-2.3
					c-7.4-4.1-14.5-8.9-21.4-13.7c-8.4-5.8-16.6-11.8-24.9-17.8c-4.2-3-8.4-6.1-12.6-9c-3.6-2.5-7.3-4.8-9.9-8.4
					c-4.6-6.5-5.6-15.1-1.9-22.3c3.7-7.3,11.3-11.8,19.4-11.7c4.3,0,8.1,1.4,11.8,3.5c4.2,2.4,8.5,4.7,12.8,7
					c8.9,4.8,17.8,9.5,26.6,14.3c7.7,4.2,15.5,8.6,22.9,13.4c1.5,1,3,2,4.4,3c1.4,1,2.1,1.6,3.3,2.5c1,0.8,2,1.7,2.9,2.6
					c0.4,0.4,0.7,0.8,1.1,1.2c0.1,0.1,0.6,0.8,0.2,0.2c0.1,0.2,0.3,0.4,0.4,0.6c0.2,0.4,0.4,0.7,0.6,1.1c0.3,0.4-0.1-0.6,0,0
					c0,0.2,0.1,0.4,0.1,0.5c0.1-0.6,0.2-1.3,0.3-1.9c-2.8,4.6-5.7,9.2-8.5,13.9c-4.5,7.3-9,14.6-13.5,22c-1,1.7-2.1,3.4-3.1,5.1
					c-1.7,2.7,2.6,5.3,4.3,2.5c2.6-4.3,5.2-8.5,7.9-12.8c4.4-7.2,8.8-14.3,13.2-21.5c1.2-2,2.5-4.1,3.7-6.1c0.6-0.9,0.8-1.8,0.5-2.9
					c-0.4-1.5-1.4-2.8-2.3-4c-2.5-3.1-5.9-5.5-9.1-7.8c-4.6-3.3-9.5-6.2-14.4-9c-12.1-7-24.5-13.5-36.8-20.1c-3.1-1.7-6.2-3.3-9.2-5
					c-2.9-1.6-5.8-3.5-8.8-4.8c-5.9-2.6-12.5-3.2-18.7-1.5c-12.4,3.5-20.5,15.8-18.8,28.6c0.8,6.2,3.8,12,8.3,16.2
					c2.5,2.3,5.5,4.1,8.3,6.1c3,2.1,6,4.3,8.9,6.4c11.6,8.3,23,16.8,34.8,24.7c4.8,3.2,9.7,6.4,14.8,9.2c3.6,2,7.4,4,11.4,5
					c1.4,0.3,2.8,0.6,4.2,0.4c1.3-0.2,2.5-1,2.5-2.5C419.2,338.9,418,337.5,416.7,337.6z"/>
			</g>
		</g>
		<g>
			
				<rect x="406.1" y="315.5" transform="matrix(0.5306 -0.8476 0.8476 0.5306 -69.3386 516.7537)" fill="#A185D6" width="51.7" height="11"/>
			<g>
				<path d="M415.7,341.2c3.1-4.9,6.2-9.9,9.3-14.8c4.9-7.8,9.8-15.7,14.7-23.5c1.1-1.8,2.3-3.6,3.4-5.4c-1.1,0.3-2.3,0.6-3.4,0.9
					c3.1,1.9,6.2,3.9,9.3,5.8c-0.3-1.1-0.6-2.3-0.9-3.4c-3.1,4.9-6.2,9.9-9.3,14.8c-4.9,7.8-9.8,15.7-14.7,23.5
					c-1.1,1.8-2.3,3.6-3.4,5.4c1.1-0.3,2.3-0.6,3.4-0.9c-3.1-1.9-6.2-3.9-9.3-5.8c-2.7-1.7-5.2,2.6-2.5,4.3c3.1,1.9,6.2,3.9,9.3,5.8
					c1.2,0.7,2.7,0.2,3.4-0.9c3.1-4.9,6.2-9.9,9.3-14.8c4.9-7.8,9.8-15.7,14.7-23.5c1.1-1.8,2.3-3.6,3.4-5.4
					c0.7-1.2,0.2-2.7-0.9-3.4c-3.1-1.9-6.2-3.9-9.3-5.8c-1.2-0.7-2.7-0.2-3.4,0.9c-3.1,4.9-6.2,9.9-9.3,14.8
					c-4.9,7.8-9.8,15.7-14.7,23.5c-1.1,1.8-2.3,3.6-3.4,5.4C409.7,341.4,414,344,415.7,341.2z"/>
			</g>
		</g>
	</g>
	<path fill="#CFB6FF" d="M144.5,88.2c0,0,33.9-10.5,63.2-13s66.6-1.5,79,0s37.2,5.5,50.5,9.9s32.2,13.2,32.2,13.2l-17.6-20.2
		c0,0,19.9,0,31.4-2.2s21.6-10,18-11.1s-25.4,1.1-53-21.7s-90.5-28.3-106.7-26.8S175.5,40.2,144.5,88.2z"/>
	<g>
		<ellipse fill="#CFB6FF" cx="245.8" cy="124.3" rx="140.2" ry="50.3"/>
		<g>
			<path d="M383.5,124.3c-0.2,13.7-15.4,22.5-26.2,27.8c-20.2,9.8-43,14.5-65.1,17.3c-27.3,3.4-55.1,3.7-82.4,1.1
				c-23.1-2.2-46.7-6.4-68.3-15.2c-12-4.9-29.2-13-32.8-26.9c-3.3-13.1,10-23.1,19.8-28.7c18.3-10.4,39.7-15.4,60.2-18.8
				c27.3-4.4,55.2-5.4,82.7-3.5c26.6,1.8,54,6,78.8,16.1C362.9,98.6,383.2,108.2,383.5,124.3c0.1,3.2,5.1,3.2,5,0
				c-0.3-14.4-13.7-24.2-25.2-30.3c-20.7-11-44.5-16.1-67.5-19.2c-29.6-4-59.8-4.4-89.5-1.3c-24.2,2.6-48.9,7.2-71.2,17.2
				c-12.4,5.6-28.4,14.6-31.4,29.2c-2.8,13.9,8.5,24.7,19.2,31.4c18.7,11.8,41.4,17.3,63,20.9c29.4,4.9,59.5,6,89.2,3.7
				c25.3-1.9,51.1-6,74.8-15.3c13.7-5.4,31.1-13.5,37-28.2c1.1-2.6,1.6-5.4,1.7-8.2C388.6,121.1,383.6,121.1,383.5,124.3z"/>
		</g>
	</g>
	<path fill="#FFFFFF" d="M381.1,349.2c-0.2-6-2.6-18-5.4-31.8l-0.1-0.5c-3-14.8-6.6-33.2-6.8-41.2c-0.1-5,0.1-12.2,0.1-19.8v-0.4
		c0-15.6,0.1-37.1-1.4-51.2c-1.2-11.5-5.6-40.7-19.2-62.5c-12.6-20.2-27.9-33.2-47.9-41.4c-18.4-7.4-52.1-8.3-53-8.3
		c-8.6,0-30.7,0.7-49.1,8.1c-20.1,8.1-35.3,21.3-47.9,41.5c-13.6,21.8-17.9,51-19.1,62.5c-1.5,14.1-1.4,35.5-1.2,51.2l0,3.6
		c0,6.3,0,12.3-0.1,16.6c-0.2,8.1-3.9,26.5-6.9,41.3l-0.1,0.6c-2.7,13.8-5.1,25.7-5.4,31.7c-0.6,15.4,3.8,25.7,14.9,35.8
		c7.1,6.4,14,9.5,21.7,9.5c4.1,0,7.8-0.8,11.9-1.8c1.1-0.3,2.3-0.6,3.5-1.1c4,2.2,11.7,5.6,21.7,5.6c6.5,0,14.1-1.4,22.4-5.4
		c4.8,3.9,9.7,7.5,9.7,7.5c12.9,7.3,24,8.8,25.6,8.8h0.4c1.6,0,12.7-0.9,26.1-8.8c0,0,4.3-3.1,8.8-6.7c7.7,3.4,14.7,4.6,20.8,4.6
		c10.9,0,19-3.9,22.7-6.1c1.8,0.7,3.3,1.3,4.9,1.7c4,1,7.7,1.8,11.8,1.8c7.8,0,14.4-2.9,21.6-9.5C377.4,375,381.7,364.6,381.1,349.2
		z"/>
	<path fill="#8066BF" d="M145.9,160c0,0,15.4-1.9,24.9-7.8s21.1-14.8,21.1-14.8l-2.5,13.6c0,0,8.9-1.8,21.2-5.6s29.1-20,29.1-20
		l-79.5,4L145.9,160z"/>
	<path fill="#8066BF" d="M354.8,160c0,0-15.4-1.9-24.9-7.8s-21.1-14.8-21.1-14.8l2.5,13.6c0,0-8.9-1.8-21.2-5.6s-29.1-20-29.1-20
		l79.5,4L354.8,160z"/>
	<path fill="#C8C8C8" d="M285.5,389.9c0,0,8-6.1,16.8-7c8.8-1,23.8,5.5,23.8,5.5s-4.9,10-14.2,9.8
		C302.5,397.9,285.5,389.9,285.5,389.9z"/>
	<path fill="#C8C8C8" d="M169.6,389.9c0,0,8-6.1,16.8-7s23.8,5.5,23.8,5.5s-4.9,10-14.2,9.8S169.6,389.9,169.6,389.9z"/>
	<path d="M384.6,351.4c-0.2-6.1-2.7-18.4-5.5-32.5l-0.1-0.5c-3-15.1-6.3-33.9-6.5-42.1c-0.1-5.1,0.5-12.5,0.5-20.3v-0.4
		c0-16-0.3-37.9-1.8-52.2c-1.2-11.8-5.9-41.6-19.8-63.8c-12.9-20.6-28.6-33.9-49.1-42.2c-18.8-7.6-53.2-8.4-54.2-8.4
		c-8.8,0-31.4,0.7-50.1,8.3c-20.5,8.3-36,21.7-48.9,42.3c-13.9,22.2-18.3,52.1-19.6,63.8c-1.5,14.4-1.4,36.3-1.3,52.3l0,3.7
		c0,6.5,0,12.5-0.1,16.9c-0.2,8.3-4,27-7,42.1L121,319c-2.8,14.1-5.2,26.3-5.5,32.4c-0.6,15.7,3.8,26.3,15.2,36.6
		c7.3,6.6,14.3,9.7,22.1,9.7c4.2,0,8-0.8,12.1-1.9c1.1-0.3,2.3-0.7,3.5-1.1c4.1,2.3,11.9,5.7,22.2,5.7c6.7,0,14.4-1.4,22.9-5.5
		c4.9,4,9.9,7.4,10,7.4c13.2,7.5,24.5,8.7,26.2,8.7h0.4c1.7,0,13-0.7,26.7-8.7c0,0,4.4-3.1,8.9-6.7c7.8,3.5,15,4.8,21.3,4.8
		c11.2,0,19.4-4,23.2-6.2c1.8,0.7,3.4,1.3,5,1.7c4.1,1,7.9,1.9,12.1,1.9c7.9,0,14.7-3,22.1-9.6C380.8,377.7,385.2,367.1,384.6,351.4
		z M177.2,390.9c6.1-2.6,13.6-5.5,20.1-5.5c4.4,0,7.6,1.3,10.4,4.1l0.2,0.2C194.8,395.1,184,393.4,177.2,390.9z M291.7,390.4
		c0.3-0.3,0.6-0.5,0.8-0.8c2.8-2.8,6-4.2,10.4-4.2c6.1,0,13,2.5,18.9,5C315.4,392.9,304.8,395.2,291.7,390.4z M364.5,382.6
		c-6,5.4-11.1,7.8-17.2,7.8c-3.4,0-6.6-0.7-10.4-1.6c-2-0.5-4.5-1.6-7.7-3l-0.5-0.2c-7-3.2-16.7-7.4-25.8-7.4
		c-6.3,0-11.3,2.1-15.6,6.3c-11,11.2-21.9,15.7-29.1,17.5c-0.1,0-7.1,1.9-15.2-0.3c-8.2-2.3-19.2-6.1-30.1-17.2
		c-4.1-4.2-9.2-6.3-15.6-6.3c-9,0-18.6,4.2-25.9,7.4l-0.3,0.1c-3.3,1.4-5.8,2.6-7.9,3.1c-3.8,0.9-7,1.6-10.4,1.6
		c-6,0-11.3-2.4-17.2-7.8c-9.8-8.9-13.3-17.3-12.8-30.9c0.2-5.5,2.6-17.4,5.4-31.2l0.1-0.6c3.2-16.1,6.9-34.4,7.2-43.4
		c0.1-4.5,0.1-10.6,0.1-17.1l0-3.7c-0.1-15.8-0.3-37.5,1.2-51.4c1.2-11.3,5.4-39.8,18.5-60.7c12-19.3,26.5-31.8,45.4-39.5
		c17.6-7.1,39-8.2,47.4-8.2c0.8,0,33.8,0.8,51.4,7.9c19,7.7,33.4,20.4,45.5,39.6c13.1,21,18,49.5,19.2,60.8
		c1.5,14,1.9,35.7,1.9,51.5v0.4c0,7.8-0.8,15.2-0.7,20.4c0.2,8.9,3.6,27.2,6.8,43.4l-0.1,0.5c2.8,13.8,5.1,25.8,5.3,31.3
		C377.9,365.3,374.3,373.7,364.5,382.6z"/>
	<path fill="#FCEEFF" d="M196.6,270.1c0,0,28.2,2.5,56.6,2.9s55.6-3.8,55.6-3.8s-28.5,15.1-37.1,20.7c-8.6,5.6-12.5,4.8-12.9,18.9
		s-0.3,58.8-0.3,58.8l-16.1,0.7c0,0,2.5-64.2,0-69.1S197.9,274.6,196.6,270.1z"/>
	<path d="M324.2,191.9c0,10.6-8.6,19.1-19.1,19.1c-10.6,0-19.1-8.6-19.1-19.1c0-0.9,0.1-1.8,0.2-2.6c1.2,0.8,2.6,1.3,4.1,1.3
		c4,0,7.2-3.2,7.2-7.2c0-2.9-1.7-5.4-4.1-6.5c3.2-2.5,7.3-4,11.7-4C315.6,172.8,324.2,181.4,324.2,191.9z"/>
	<path d="M214.1,191.9c0,10.6-8.6,19.1-19.1,19.1c-10.6,0-19.1-8.6-19.1-19.1c0-0.9,0.1-1.8,0.2-2.6c1.2,0.8,2.6,1.3,4.1,1.3
		c4,0,7.2-3.2,7.2-7.2c0-2.9-1.7-5.4-4.1-6.5c3.2-2.5,7.3-4,11.7-4C205.5,172.8,214.1,181.4,214.1,191.9z"/>
	<path d="M232.3,224.9c11.2,9.8,26.3,9.7,37.5,0c2.6-2.2-1.2-5.9-3.7-3.7c-8.9,7.7-21.1,7.8-30,0
		C233.5,218.9,229.8,222.7,232.3,224.9L232.3,224.9z"/>
	
		<ellipse transform="matrix(0.7169 -0.6971 0.6971 0.7169 -112.2272 180.7014)" fill="#F68694" cx="166.4" cy="228.6" rx="7.4" ry="3.4"/>
	
		<ellipse transform="matrix(0.7169 -0.6971 0.6971 0.7169 -109.0657 190.8302)" fill="#F68694" cx="180.5" cy="229.7" rx="7.4" ry="3.4"/>
	
		<ellipse transform="matrix(0.7169 -0.6971 0.6971 0.7169 -105.0878 200.6274)" fill="#F68694" cx="194.5" cy="229.7" rx="7.4" ry="3.4"/>
	
		<ellipse transform="matrix(0.6971 -0.7169 0.7169 0.6971 -63.5756 308.9521)" fill="#F68694" cx="333.9" cy="229.7" rx="3.4" ry="7.4"/>
	<path fill="#CFB6FF" d="M153.4,129.2c0,0,86.2-5,132.5-5s63.8,5,63.8,5s-17.8-45.5-98.2-44.5S153.4,129.2,153.4,129.2z"/>
	
		<ellipse transform="matrix(0.6971 -0.7169 0.7169 0.6971 -68.6717 299.231)" fill="#F68694" cx="319.8" cy="230.9" rx="3.4" ry="7.4"/>
	
		<ellipse transform="matrix(0.6971 -0.7169 0.7169 0.6971 -72.9281 289.1553)" fill="#F68694" cx="305.8" cy="230.9" rx="3.4" ry="7.4"/>
	<g>
		<g>
			<path d="M151,132c65.6-6.9,131.7-7,197.2,0c3.2,0.3,3.2-4.7,0-5c-65.6-7-131.7-6.9-197.2,0C147.8,127.3,147.8,132.3,151,132
				L151,132z"/>
		</g>
	</g>
	<g>
		<g>
			<path d="M298.2,37.3c9.9,8.1,19.6,16.5,29.2,25c7.7,6.8,15.3,13.7,22.7,20.8c5.7,5.6,11.7,11.2,16.4,17.7
				c1.9,2.6,6.2,0.1,4.3-2.5c-10.6-14.7-25.5-26.9-39-38.8c-9.9-8.7-19.9-17.3-30.1-25.7C299.3,31.7,295.7,35.2,298.2,37.3
				L298.2,37.3z"/>
		</g>
	</g>
	<g>
		<g>
			<path d="M144.2,90.7c7.9-11.4,17.5-21.9,27.4-31.6c18.3-17.9,40.4-34.7,65.9-40.2c16-3.4,32.2-0.3,48,3
				c14.1,2.9,28.2,6.9,41.4,12.7c8.6,3.8,16.9,8.4,24.6,13.7c10,6.9,19.2,14.4,31.4,17.1c3.7,0.8,7.5,1.2,11.2,1.1
				c1,0,4.6-0.3,4.6-0.4c0.1-0.3-1.1-1.3-0.7-1.3c-0.1,0-0.8,1-0.9,1c-1.4,1.1-2.7,2.1-4.3,3c-13.6,7.3-31.1,6.9-46,5.2
				c-3.2-0.4-3.2,4.6,0,5c14.9,1.6,31,1.6,45.1-4.3c3.3-1.4,14-6.4,10.6-11.8c-1.9-3-6.8-1.4-9.6-1.4c-9.9,0-19.3-3.8-27.4-9.3
				c-7.5-5-14.4-10.7-22.3-15.1c-11.2-6.3-23.2-11.1-35.5-14.8c-17.1-5.1-35.8-9.6-53.7-10c-28.4-0.6-54.4,15.5-75.2,33.5
				c-14.4,12.4-27.9,26.8-38.8,42.4C138,90.8,142.3,93.3,144.2,90.7L144.2,90.7z"/>
		</g>
	</g>
	<g>
		<g>
			<path d="M284.3,167.2c14-8.8,29.2-7.4,43.5,0c2.9,1.5,5.4-2.8,2.5-4.3c-15.9-8.2-33-9.8-48.5,0
				C279,164.6,281.5,168.9,284.3,167.2L284.3,167.2z"/>
		</g>
	</g>
	<g>
		<g>
			<path d="M219.3,162.8c-15.5-9.8-32.7-8.2-48.5,0c-2.9,1.5-0.3,5.8,2.5,4.3c14.3-7.4,29.5-8.8,43.5,0
				C219.5,168.9,222,164.6,219.3,162.8L219.3,162.8z"/>
		</g>
	</g>
	<g>
		<g>
			<path d="M240.1,123.1c0.7-0.9-0.4,0.5-0.6,0.7c-0.8,0.9-1.7,1.9-2.6,2.8c-3,3.1-6.3,5.8-9.8,8.3c-11.8,8.5-25.6,13.5-40,15.1
				c0.8,1.1,1.6,2.1,2.4,3.2c1.8-4.7,3.6-9.4,5.4-14.1c1-2.5-2.5-3.9-4.2-2.4c-12.7,11.3-29.8,21.2-47,22.5c-3.2,0.2-3.2,5.2,0,5
				c18.6-1.4,36.8-11.7,50.5-23.9c-1.4-0.8-2.8-1.6-4.2-2.4c-1.8,4.7-3.6,9.4-5.4,14.1c-0.5,1.4,0.9,3.3,2.4,3.2
				c21.2-2.3,44-12,57.3-29.4C246.4,123,242,120.5,240.1,123.1L240.1,123.1z"/>
		</g>
	</g>
	<g>
		<g>
			<path d="M255.6,125.6c13.3,17.4,36.1,27.1,57.3,29.4c1.5,0.2,3-1.7,2.4-3.2c-1.8-4.7-3.6-9.4-5.4-14.1c-1.4,0.8-2.8,1.6-4.2,2.4
				c13.7,12.3,31.9,22.6,50.5,23.9c3.2,0.2,3.2-4.8,0-5c-17.2-1.3-34.3-11.1-47-22.5c-1.7-1.5-5.1-0.1-4.2,2.4
				c1.8,4.7,3.6,9.4,5.4,14.1c0.8-1.1,1.6-2.1,2.4-3.2c-14.4-1.6-28.2-6.6-40-15.1c-3.5-2.5-6.8-5.3-9.8-8.3
				c-0.9-0.9-1.7-1.8-2.6-2.8c-0.2-0.2-1.3-1.6-0.6-0.7C258,120.5,253.6,123,255.6,125.6L255.6,125.6z"/>
		</g>
	</g>
	<g>
		<path fill="#CFB6FF" d="M387.5,368.5c-90.4,4.2-181.1,4.2-272,0C126,324.7,134,284,133,254c78.4,19.8,157.4,19.9,237,0
			C371.3,287.1,379,327.3,387.5,368.5z"/>
	</g>
	<g>
		<path fill="#A185D6" d="M364.7,255.6c0,0-33.1,53.4-36.7,53.7c-3.5,0.2-50.5-9.8-50.3-5.5s18.8,27.5,15.8,29.2s-22.8,1.5-23.2,3.2
			s0,30.8,0,30.8h-11.5c0,0-1-59.2,1.2-66.5s58.4-34.2,58.4-34.2S342.4,262.1,364.7,255.6z"/>
	</g>
	<g>
		<path fill="#A185D6" d="M135.6,255.6c0,0,33.1,53.4,36.7,53.7s50.5-9.8,50.3-5.5s-18.8,27.5-15.8,29.2s22.8,1.2,23.2,3
			s0,30.5,0,30.5h11.5c0,0,1-59-1.2-66.2s-58.4-34.1-58.4-34.1S157.8,262.1,135.6,255.6z"/>
	</g>
	<g>
		<g>
			<path d="M133.4,257.8c2.3,3.7,4.6,7.4,7,11.1c4.8,7.6,9.6,15.1,14.6,22.6c4.1,6.2,8.2,12.5,12.9,18.2c1.2,1.4,2.6,3,4.6,3
				c2.5,0,5.1-0.7,7.5-1.1c8.7-1.5,17.4-3.1,26.1-4.3c0.5-0.1,1-0.1,1.5-0.2c0.1,0,0.5-0.1,0,0c0.1,0,0.2,0,0.3,0
				c0.3,0,0.6-0.1,0.9-0.1c1-0.1,2-0.2,3-0.4c1.7-0.2,3.5-0.4,5.3-0.4c0.7,0,1.4,0,2.1,0c0.3,0,0.5,0,0.8,0c0.1,0,0.3,0,0.4,0
				c0.5,0-0.2,0-0.2,0c0.1,0.1,0.5,0.1,0.6,0.1c0.1,0,0.1,0.1,0.2,0.1c0.4,0-0.6-0.3-0.3-0.1c0.5,0.3-0.4-0.4-0.2-0.2
				c-0.4-0.4-0.6-1-0.6-1.3c0-0.5,0.1-0.5,0,0c-0.1,0.3-0.4,1-0.1,0.3c-0.3,0.7-0.6,1.3-1,2c-1,1.8-2.1,3.5-3.2,5.2
				c-2.5,4-5.2,7.8-7.7,11.8c-1,1.6-2,3.3-2.8,5c-0.6,1.3-1.3,2.7-1.3,4.2c0.1,4.2,6.5,4.1,9.4,4.3c2.5,0.2,5,0.3,7.5,0.5
				c1.1,0.1,2.3,0.1,3.4,0.2c0.5,0,1.1,0.1,1.6,0.1c0.2,0,0.4,0,0.6,0.1c0.1,0,0.9,0.1,0.5,0.1c-0.4-0.1,0.2,0,0.4,0.1
				c0.2,0,0.3,0.1,0.5,0.1c0.2,0,0.7,0.3,0.9,0.2c-0.2,0-0.4-0.2-0.5-0.3c0.1,0.1-0.7-1.3-0.5-0.9c0.1,0.3-0.1-0.8-0.1-0.4
				c0,1.2,0.1,2.4,0.1,3.5c0.1,8.2,0,16.5-0.2,24.7c0,0.6,0,1.3,0,1.9c-0.1,3.2,4.9,3.2,5,0c0.1-7,0.2-13.9,0.2-20.9
				c0-3.1,0.2-6.2-0.2-9.3c-0.4-4.1-6-3.8-9.1-4c-2.5-0.2-5-0.3-7.4-0.5c-1.2-0.1-2.4-0.2-3.6-0.3c-0.5,0-1-0.1-1.5-0.1
				c-0.2,0-0.5-0.1-0.7-0.1c-0.3,0,0.1,0,0.2,0c-0.1,0-0.3,0-0.4-0.1c-0.7-0.1-1.4-0.4-2.1-0.5c-0.4-0.1,0.5,0.3,0.2,0.1
				c0.2,0.1,0.5,0.4,0.7,0.7c-0.2-0.3,0.2,0.7,0.2,0.4c-0.1-0.3,0.1,0.8,0.1,0.3c0-0.4-0.1,0.3,0,0.3c0.1-0.1,0.1-0.3,0.1-0.4
				c0.1-0.3,0.2-0.6,0.3-0.8c0.2-0.5,0,0.1,0,0c0.1-0.1,0.1-0.3,0.2-0.4c0.2-0.4,0.4-0.8,0.6-1.2c4-7.7,9.7-14.3,13.7-22
				c0.6-1.2,1.3-2.6,1.3-4c0-1.6-1.3-2.7-2.8-3.1c-2.6-0.7-5.7-0.3-8.4-0.1c-9,0.8-18,2.5-26.9,4c-3.7,0.6-7.4,1.3-11.2,1.9
				c-0.6,0.1-1.2,0.2-1.8,0.3c-0.5,0.1,0.6-0.1-0.2,0c-0.2,0-0.4,0.1-0.6,0.1c-0.2,0-0.7,0-0.8,0c0.2-0.1,0.8,0.2,1,0.3
				c-0.1,0-0.2-0.1-0.3-0.2c0.8,0.6,0-0.1-0.3-0.3c-0.3-0.3-0.7-0.7-1-1.1c-0.4-0.4-0.7-0.9-1.1-1.3c-0.1-0.1-0.2-0.3-0.3-0.4
				c-0.3-0.4,0,0,0,0c-0.2-0.3-0.5-0.6-0.7-0.9c-2.2-3-4.4-6.1-6.5-9.1c-5.2-7.6-10.1-15.3-15.1-23c-3.3-5.1-6.5-10.3-9.8-15.5
				c-0.2-0.3-0.3-0.5-0.5-0.8C136,252.6,131.7,255.1,133.4,257.8L133.4,257.8z"/>
		</g>
	</g>
	<g>
		<g>
			<path d="M244,366.5c0.1-7.3,0.2-14.5,0.2-21.8c0-11.9,0.1-23.9-0.5-35.9c-0.1-2-0.2-4-0.4-6c-0.1-1.4-0.2-2.8-0.7-4.1
				c-1.1-3.2-4.8-5.5-7.4-7.3c-9.4-6.7-19.8-12.1-29.9-17.5c-7.3-3.9-14.7-7.7-22.2-11.3c-0.1-0.1-0.2-0.1-0.4-0.2
				c-1.2-0.6-2.7-0.3-3.4,0.9c-0.6,1.1-0.3,2.8,0.9,3.4c6.1,3,12.2,6.1,18.3,9.3c10.4,5.5,20.9,11,30.8,17.4c1,0.6,2,1.3,3,2
				c0.4,0.3,0.9,0.6,1.3,0.9c0.2,0.1,0.4,0.3,0.5,0.4c0.1,0.1,0.9,0.7,0.3,0.2c1.2,1,2.2,2.1,3.4,3.1c-0.5-0.5-0.2-0.2,0.1,0.2
				c0.4,0.6-0.1-0.5,0,0.1c0.1,0.5,0.2,1,0.3,1.5c0,0.2,0,0.3,0.1,0.5c-0.1-0.4-0.1-0.5,0-0.1c0,0.4,0.1,0.8,0.1,1.3
				c0.1,0.9,0.2,1.8,0.2,2.8c0.7,11.5,0.7,23,0.6,34.5c0,8.5-0.2,17-0.2,25.5c0,0.1,0,0.3,0,0.4C238.9,369.7,243.9,369.7,244,366.5
				L244,366.5z"/>
		</g>
	</g>
	<g>
		<g>
			<path d="M363.6,254.3c-7.2,11.5-14.4,23-22,34.3c-3.9,5.9-7.9,11.8-12.4,17.3c-0.5,0.6-1.6,1.2-0.7,1c0.8-0.2-1.1-0.3-1.6-0.3
				c-3.5-0.5-7.1-1.2-10.6-1.8c-8.8-1.5-17.6-3.1-26.5-4.1c-3.2-0.4-13-2.4-13.5,2.9c-0.2,2.5,2,5.4,3.2,7.4c2.4,4,5.1,7.9,7.6,11.8
				c1.2,1.8,2.4,3.7,3.4,5.6c0.4,0.8,0.8,1.6,1.2,2.3c0.1,0.2,0.2,0.6,0.3,0.8c0.9,0.9-0.8,0.7,0.6,0.2c1.8-0.6-1.2-0.4-1.2-0.4
				c-1,0-2.2,0.3-3.2,0.4c-2.6,0.2-5.3,0.3-7.9,0.5c-2.8,0.2-8.6-0.3-10.7,2c-1.7,1.8-1,6-1.1,8.3c0,8.1,0.1,16.1,0.2,24.2
				c0.1,3.2,5.1,3.2,5,0c-0.1-6.9-0.2-13.7-0.2-20.6c0-1,0.9-9,0.2-9.5c1.2,0.9-2.7,1.1,0.2,1.2c0.9,0,2-0.2,2.9-0.3
				c2.4-0.2,4.8-0.3,7.3-0.5c5-0.3,15.4,0.4,12.6-7.3c-2.8-7.9-9.1-14.7-13.4-21.9c-0.4-0.7-1.3-3.4-2-3.7c-0.5-0.3,0.5-1.9-0.6,0.4
				c1.4-3-0.3,1.3-0.5,1c0,0.1,1.2-0.2,1.3-0.2c3,0.7,6.8,0.3,9.9,0.7c9,1.1,18,2.8,26.9,4.3c3.7,0.6,9.9,3,13.2,0.3
				c4.4-3.5,7.7-9.7,10.8-14.3c8.8-12.9,17.2-26.1,25.4-39.4C369.6,254.1,365.3,251.6,363.6,254.3L363.6,254.3z"/>
		</g>
	</g>
	<g>
		<g>
			<path d="M318.1,261.8c-6.5,3.3-12.9,6.8-19.3,10.2c-10.6,5.8-21.4,11.7-31.3,18.7c-2.9,2.1-6.6,4.4-8.4,7.7
				c-0.7,1.3-0.8,2.8-1,4.2c-0.2,1.9-0.3,3.7-0.5,5.6c-0.7,12-0.6,24.1-0.6,36.2c0,8.7,0,17.4,0.2,26.1c0,0.1,0,0.3,0,0.4
				c0.1,3.2,5.1,3.2,5,0c-0.1-7.2-0.2-14.4-0.2-21.6c-0.1-12.3-0.1-24.7,0.4-37c0.1-2.2,0.2-4.5,0.4-6.7c0.1-0.9,0.1-1.7,0.2-2.6
				c0-0.2,0-0.3,0.1-0.5c0-0.3-0.1,0.7,0,0.1c0-0.3,0.1-0.6,0.2-0.9c0-0.2,0.1-0.4,0.2-0.7c0.1-0.6-0.4,0.5,0-0.1
				c0.1-0.2,0.3-0.4,0.4-0.6c0.1-0.2-0.5,0.5,0,0.1c0.1-0.1,0.3-0.3,0.4-0.5c0.5-0.6,1.1-1.1,1.7-1.6c0.3-0.3,0.7-0.6,1.1-0.9
				c0.2-0.1,0.3-0.3,0.5-0.4c0.1-0.1,0.2-0.2,0.3-0.3c0.2-0.1-0.4,0.3,0,0c9.3-7,19.7-12.7,29.8-18.4c7.5-4.1,15.1-8,22.6-12.1
				c0.1-0.1,0.2-0.1,0.4-0.2C323.5,264.7,321,260.4,318.1,261.8L318.1,261.8z"/>
		</g>
	</g>
	<g>
		<path fill="#CFB6FF" d="M381,368.3V380c-128.8,7.1-265.5-1.7-265.5,0v-11C204.7,368.6,293.2,368.2,381,368.3z"/>
		<g>
			<path d="M378.5,368.3c0,3.9,0,7.8,0,11.7c0.8-0.8,1.7-1.7,2.5-2.5c-25.3,1.4-50.6,2.2-75.9,2.5c-23.7,0.3-47.4,0.3-71.1,0.1
				c-19.9-0.2-39.7-0.7-59.5-1.2c-13.9-0.4-27.7-0.9-41.6-1.3c-4-0.1-8-0.2-12-0.3c-1.8,0-4-0.3-5.7,0.2c-1.2,0.3-1.8,1.3-2,2.5
				c1.7,0,3.3,0,5,0c0-3.7,0-7.3,0-11c-0.8,0.8-1.7,1.7-2.5,2.5c34.8-0.2,69.5-0.3,104.3-0.4c34.4-0.1,68.7-0.2,103.1-0.2
				c19.4,0,38.7,0,58.1,0c3.2,0,3.2-5,0-5c-34.4,0-68.9,0-103.3,0.1c-34.5,0.1-68.9,0.2-103.4,0.3c-19.6,0.1-39.2,0.2-58.8,0.3
				c-1.4,0-2.5,1.1-2.5,2.5c0,3.7,0,7.3,0,11c0,1.4,1.1,2.5,2.5,2.5c1.5,0,2.3-1.2,2.5-2.5c-0.2,1.3-0.9,2-1.7,2.3
				c0.4-0.1,0,0.3-0.4,0c0.1,0.1,0.7-0.1,0.9-0.1c1,0,2,0,3,0c3.7,0,7.4,0.1,11.2,0.3c13.2,0.4,26.5,0.9,39.7,1.2
				c19.2,0.6,38.4,1,57.6,1.3c23.1,0.3,46.1,0.4,69.2,0.1c24.8-0.3,49.5-0.9,74.3-2.2c3.1-0.2,6.2-0.3,9.2-0.5
				c1.3-0.1,2.5-1.1,2.5-2.5c0-3.9,0-7.8,0-11.7C383.5,365.1,378.5,365.1,378.5,368.3z"/>
		</g>
	</g>
	<g>
		<rect x="452" y="153.6" fill="#817A89" width="11.5" height="236.5"/>
		<g>
			<path d="M463.5,387.6c-3.8,0-7.7,0-11.5,0c0.8,0.8,1.7,1.7,2.5,2.5c0-2.1,0-4.2,0-6.4c0-5.7,0-11.4,0-17.2c0-8.5,0-17,0-25.5
				c0-10.3,0-20.6,0-30.9c0-11.4,0-22.7,0-34.1c0-11.4,0-22.8,0-34.2c0-10.7,0-21.4,0-32.1c0-9,0-18,0-26.9c0-6.5,0-13,0-19.5
				c0-3,0.1-6.1,0-9.2c0-0.1,0-0.3,0-0.4c-0.8,0.8-1.7,1.7-2.5,2.5c3.8,0,7.7,0,11.5,0c-0.8-0.8-1.7-1.7-2.5-2.5c0,2.1,0,4.2,0,6.4
				c0,5.7,0,11.4,0,17.2c0,8.5,0,17,0,25.5c0,10.3,0,20.6,0,30.9c0,11.4,0,22.7,0,34.1c0,11.4,0,22.8,0,34.2c0,10.7,0,21.4,0,32.1
				c0,9,0,18,0,26.9c0,6.5,0,13,0,19.5c0,3.1-0.1,6.1,0,9.2c0,0.1,0,0.3,0,0.4c0,3.2,5,3.2,5,0c0-2.1,0-4.2,0-6.4
				c0-5.7,0-11.4,0-17.2c0-8.5,0-17,0-25.5c0-10.3,0-20.6,0-30.9c0-11.4,0-22.7,0-34.1c0-11.4,0-22.8,0-34.2c0-10.7,0-21.4,0-32.1
				c0-9,0-18,0-26.9c0-6.5,0-13,0-19.5c0-3.1,0.1-6.1,0-9.2c0-0.1,0-0.3,0-0.4c0-1.4-1.1-2.5-2.5-2.5c-3.8,0-7.7,0-11.5,0
				c-1.4,0-2.5,1.1-2.5,2.5c0,2.1,0,4.2,0,6.4c0,5.7,0,11.4,0,17.2c0,8.5,0,17,0,25.5c0,10.3,0,20.6,0,30.9c0,11.4,0,22.7,0,34.1
				c0,11.4,0,22.8,0,34.2c0,10.7,0,21.4,0,32.1c0,9,0,18,0,26.9c0,6.5,0,13,0,19.5c0,3.1-0.1,6.1,0,9.2c0,0.1,0,0.3,0,0.4
				c0,1.4,1.1,2.5,2.5,2.5c3.8,0,7.7,0,11.5,0C466.7,392.6,466.7,387.6,463.5,387.6z"/>
		</g>
	</g>
	<g>
		<path fill="#817A89" d="M490.1,116.8c-5.2-6.5-13.9-10.8-23.7-10.8c-16,0-28.9,11.4-28.9,25.5c0,10.5,7.2,19.5,17.5,23.4v11.9
			c-0.5,0-1,0-1.5,0c-22.2,0-40.2-15.9-40.2-35.4c0-19.6,18-35.4,40.2-35.4C469.8,96,483.8,104.5,490.1,116.8z"/>
		<g>
			<path d="M491.9,115c-12.7-15-38.1-15.5-50.8-0.1c-12.6,15.3-3.8,35.4,13.2,42.4c-0.6-0.8-1.2-1.6-1.8-2.4c0,4,0,7.9,0,11.9
				c0.8-0.8,1.7-1.7,2.5-2.5c-13.1,0.2-26.5-5.1-34-16.3c-6.7-10.1-6.8-23.2,0-33.2c15.5-23.1,53.9-21.1,67,3.3
				c1.5,2.8,5.8,0.3,4.3-2.5c-11.8-21.9-41.8-28.1-62.6-15.6c-19.3,11.6-25,37.1-9.9,54.6c8.8,10.1,22.1,15,35.3,14.7
				c1.4,0,2.5-1.1,2.5-2.5c0-4,0-7.9,0-11.9c0-1.2-0.8-2-1.8-2.4c-14.7-6-21.1-23.8-9.3-35.9c11.5-11.7,31.6-10.3,42,2
				C490.4,121,494,117.5,491.9,115z"/>
		</g>
	</g>
	<g>
		<circle fill="#A0EAA7" cx="465.6" cy="131.4" r="12.1"/>
		<g>
			<path d="M475.3,131.4c-0.7,12.3-19.3,12.4-19.3,0C456,118.9,474.6,119,475.3,131.4c0.2,3.2,5.2,3.2,5,0
				c-0.4-7.9-6.3-14.6-14.6-14.6c-8,0-14.6,6.7-14.6,14.6c0,7.7,6.3,14.2,14,14.6c8.5,0.4,14.8-6.4,15.3-14.6
				C480.4,128.2,475.4,128.2,475.3,131.4z"/>
		</g>
	</g>
	<g>
		<rect x="454.9" y="164.1" fill="#A185D6" width="11.6" height="8.8"/>
		<g>
			<path d="M466.5,170.4c-3.4,0-6.8,0-10.1,0c-0.5,0-1,0-1.4,0c0.8,0.8,1.7,1.7,2.5,2.5c0-2.9,0-5.8,0-8.8c-0.8,0.8-1.7,1.7-2.5,2.5
				c3.4,0,6.8,0,10.1,0c0.5,0,1,0,1.4,0c-0.8-0.8-1.7-1.7-2.5-2.5c0,2.9,0,5.8,0,8.8c0,1.3,1.1,2.6,2.5,2.5c1.4-0.1,2.5-1.1,2.5-2.5
				c0-2.9,0-5.8,0-8.8c0-1.4-1.1-2.5-2.5-2.5c-3.4,0-6.8,0-10.1,0c-0.5,0-1,0-1.4,0c-1.4,0-2.5,1.1-2.5,2.5c0,2.9,0,5.8,0,8.8
				c0,1.4,1.1,2.5,2.5,2.5c3.4,0,6.8,0,10.1,0c0.5,0,1,0,1.4,0c1.3,0,2.6-1.1,2.5-2.5C468.9,171.5,467.9,170.4,466.5,170.4z"/>
		</g>
	</g>
	<g>
		<rect x="454.9" y="172.9" fill="#A185D6" width="11.6" height="8.8"/>
		<g>
			<path d="M466.5,179.2c-3.4,0-6.8,0-10.1,0c-0.5,0-1,0-1.4,0c0.8,0.8,1.7,1.7,2.5,2.5c0-2.9,0-5.8,0-8.8c-0.8,0.8-1.7,1.7-2.5,2.5
				c3.4,0,6.8,0,10.1,0c0.5,0,1,0,1.4,0c-0.8-0.8-1.7-1.7-2.5-2.5c0,2.9,0,5.8,0,8.8c0,1.3,1.1,2.6,2.5,2.5c1.4-0.1,2.5-1.1,2.5-2.5
				c0-2.9,0-5.8,0-8.8c0-1.4-1.1-2.5-2.5-2.5c-3.4,0-6.8,0-10.1,0c-0.5,0-1,0-1.4,0c-1.4,0-2.5,1.1-2.5,2.5c0,2.9,0,5.8,0,8.8
				c0,1.4,1.1,2.5,2.5,2.5c3.4,0,6.8,0,10.1,0c0.5,0,1,0,1.4,0c1.3,0,2.6-1.1,2.5-2.5C468.9,180.3,467.9,179.2,466.5,179.2z"/>
		</g>
	</g>
	<g>
		<g>
			<path fill="#CFB6FF" d="M21.7,105.9c0,0-13.2,43.2,8.3,66.1s60.1,8.4,65.2-15.7S93,118,93,118s-4.3,21.8-13.3,14.9
				c-9.1-6.9,9.7-25.6,2.3-51.2S55,55,55,55s17.7,24.3,12.8,34.3S47.5,86.9,55,72c0,0-15.1,1.2-14.1,18.8s5,25,3.3,31.4
				C42.6,128.6,25.4,136.9,21.7,105.9z"/>
			<g>
				<path d="M19.3,105.2c-6.4,21.3-7.4,49.9,8.1,67.5c19,21.7,61.1,15.1,69.7-13.7c3.8-12.7,4.2-30.1-1.9-42.3
					c-0.9-1.9-4.2-1.5-4.6,0.6c-0.6,2.9-1.5,5.9-2.7,8.7c-1.3,2.9-5.8,9.3-8.1,3.1c-1.5-4.1,1.6-10.3,2.7-14.1
					c1.9-6.4,3.5-12.9,3.6-19.6c0.4-17.9-11-41.5-31.3-42.8c-1.8-0.1-3.3,2.3-2.2,3.8c4.9,6.7,9.5,14.3,12,22.2
					c1,3.1,3.2,12.5-2.9,12c-7.7-0.7-6.9-12.6-4.8-17.1c0.7-1.5-0.1-3.9-2.2-3.8c-5.3,0.5-10.4,3.4-13.4,7.8
					c-6.3,9.4-2.5,23.2-0.5,33.5c1,5.2,3,12.7-3.8,14.6c-9.6,2.8-12.3-13.6-13.1-19.6c-0.4-3.1-5.4-3.2-5,0
					c1.1,8.5,3.4,21.8,13.3,24.5c5.1,1.4,11.2-1.2,13.6-6c1.6-3.2,1.1-7.1,0.6-10.5c-1-6.5-2.5-12.9-3-19.5
					c-0.5-6.2-0.6-13.1,4.9-17.2c1.8-1.3,5.2-2.5,6.5-2.7c-0.7-1.3-1.4-2.5-2.2-3.8c-3.4,7.4-3.4,17,3.6,22.4
					c5.2,4,12.1,2.3,14.1-4.2c2.2-6.8-1.7-14.9-4.7-20.9c-2.5-5-5.4-9.8-8.7-14.4c-0.7,1.3-1.4,2.5-2.2,3.8
					c17.9,1.2,27.4,24.7,26.2,40.6c-0.8,9.8-6.2,18.9-6.4,28.6c-0.2,6,5.6,12.5,11.9,9.1c5.5-3,7.7-11.5,8.9-17.2
					c-1.5,0.2-3,0.4-4.6,0.6c4.5,9,4.3,21.2,2.9,30.9c-2,14.2-10.8,24.5-24.6,28.9c-13.4,4.3-28.2,1.4-37.8-9.3
					c-9.3-10.3-11.5-24.9-11.1-38.2c0.3-8.3,1.4-16.9,3.9-24.9C25.1,103.5,20.3,102.2,19.3,105.2z"/>
			</g>
		</g>
		<g>
			<path fill="#FCEEFF" d="M31.3,135.4c0,0-6.2,21.3,9,37.6s41.5,4.9,45.1-12.1c3.6-17.1,1.5-17.9,1.5-17.9s-8.5,10.6-14.9,5.7
				c-6.4-4.9-1.1-29.8,1.8-36.6s0.5-16.5,0.5-16.5s-1.1,13.4-8.3,17.9c-7.2,4.5-16.5-2.4-11.2-13c0,0-5,1.6-4.2,14.1
				c0.7,12.5,0,17.7-1.2,22.2C48.1,141.2,33.8,157.4,31.3,135.4z"/>
		</g>
	</g>
	<g>
		<g>
			<path d="M385.5,366c-35.1-0.1-70.3-0.1-105.4-0.1c-35.5,0-71,0-106.5,0c-20.1,0-40.1,0-60.2,0.1c0.8,1.1,1.6,2.1,2.4,3.2
				c7.4-30.8,14.6-62,17-93.7c0.6-7.1,0.8-14.3,0.6-21.4c-1.1,0.8-2.1,1.6-3.2,2.4c30.7,7.7,62.1,12.6,93.8,14.3
				c31.5,1.7,63,0.3,94.3-4c17.8-2.5,35.4-5.9,52.8-10.3c-1.1-0.8-2.1-1.6-3.2-2.4c1.2,29.6,4.9,59,10,88.2c1.6,9,3.3,18,5.1,26.9
				c0.7,3.1,5.5,1.8,4.8-1.3c-6.2-30-11-60.4-13.5-91c-0.6-7.6-1.1-15.2-1.4-22.8c-0.1-1.6-1.5-2.8-3.2-2.4
				c-30.6,7.6-61.8,12.4-93.2,14.1c-31.1,1.7-62.4,0.4-93.2-4c-17.4-2.5-34.7-5.9-51.7-10.1c-1.5-0.4-3.2,0.8-3.2,2.4
				c0.4,13.2-0.8,26.4-2.5,39.4c-2.1,15.5-5.1,31-8.4,46.3c-2,9.4-4.2,18.7-6.4,28.1c-0.4,1.6,0.7,3.2,2.4,3.2
				c35.7-0.1,71.4-0.1,107.1-0.1c35.3,0,70.7,0,106,0c19.7,0,39.3,0,59,0.1C388.7,371,388.7,366,385.5,366z"/>
		</g>
	</g>
</g>
<g id="Layer_2">
	<g>
		<g id="ENFJ_4_1_">
			<g>
				<polygon fill="#A0EAA7" points="256.8,135.1 250,102.1 267.3,135.1 				"/>
				<g>
					<path d="M258.2,134.7c-2.3-11-4.5-22-6.8-33c-0.9,0.4-1.8,0.8-2.7,1.2c5.8,11,11.6,22,17.3,33c0.4-0.8,0.9-1.5,1.3-2.3
						c-3.5,0-7,0-10.6,0c-1.9,0-1.9,3,0,3c3.5,0,7,0,10.6,0c1.2,0,1.8-1.3,1.3-2.3c-5.8-11-11.6-22-17.3-33
						c-0.8-1.6-3.1-0.4-2.7,1.2c2.3,11,4.5,22,6.8,33C255.7,137.4,258.6,136.6,258.2,134.7z"/>
				</g>
			</g>
			<g>
				<polygon fill="#D9FFDA" points="250,168.1 256.8,135.1 267.3,135.1 				"/>
				<g>
					<path d="M251.4,168.5c2.3-11,4.5-22,6.8-33c-0.5,0.4-1,0.7-1.4,1.1c3.5,0,7,0,10.6,0c-0.4-0.8-0.9-1.5-1.3-2.3
						c-5.8,11-11.6,22-17.3,33c-0.9,1.7,1.7,3.2,2.6,1.5c5.8-11,11.6-22,17.3-33c0.5-1-0.1-2.3-1.3-2.3c-3.5,0-7,0-10.6,0
						c-0.6,0-1.3,0.5-1.4,1.1c-2.3,11-4.5,22-6.8,33C248.2,169.6,251,170.4,251.4,168.5z"/>
				</g>
			</g>
			<g>
				<polygon fill="#CFB6FF" points="232.7,135.1 250,102.1 256.8,135.1 				"/>
				<g>
					<path d="M234,135.8c5.8-11,11.6-22,17.3-33c-0.9-0.1-1.8-0.2-2.7-0.4c2.2,11,4.5,22,6.7,33c0.5-0.6,1-1.3,1.4-1.9
						c-8,0-16,0-24.1,0c-1.9,0-1.9,3,0,3c8,0,16,0,24.1,0c1,0,1.6-1,1.4-1.9c-2.2-11-4.5-22-6.7-33c-0.3-1.3-2.2-1.5-2.7-0.4
						c-5.8,11-11.6,22-17.3,33C230.5,136,233.1,137.6,234,135.8z"/>
				</g>
			</g>
			<g>
				<polygon fill="#EAE1FF" points="250,168.1 232.7,135.1 256.8,135.1 				"/>
				<g>
					<path d="M251.3,167.3c-5.8-11-11.6-22-17.3-33c-0.4,0.8-0.9,1.5-1.3,2.3c8,0,16,0,24.1,0c-0.5-0.6-1-1.3-1.4-1.9
						c-2.2,11-4.5,22-6.7,33c-0.4,1.9,2.5,2.7,2.9,0.8c2.2-11,4.5-22,6.7-33c0.2-0.9-0.4-1.9-1.4-1.9c-8,0-16,0-24.1,0
						c-1.2,0-1.8,1.3-1.3,2.3c5.8,11,11.6,22,17.3,33C249.6,170.6,252.2,169,251.3,167.3z"/>
				</g>
			</g>
		</g>
	</g>
</g>
</svg>
