<?xml version="1.0" encoding="utf-8"?>
<!-- Generator: Adobe Illustrator 18.1.1, SVG Export Plug-In . SVG Version: 6.00 Build 0)  -->
<svg version="1.1" xmlns="http://www.w3.org/2000/svg" xmlns:xlink="http://www.w3.org/1999/xlink" x="0px" y="0px"
	 viewBox="0 0 500 500" enable-background="new 0 0 500 500" xml:space="preserve">
<g id="Layer_1">
	<g>
		<path fill="#FFFFFF" d="M57.5,367.5c-7.5-7.8-7.9-20.1-0.7-27.5l34-34.9l29-29.7l16.7-17.1c10.7-11,27.6-12.1,37.3-2
			c0.2,0.2,0.4,0.4,0.6,0.6c8.9,10.1,6.9,26.5-4.3,36.5l-18,16l-33.2,29.7L85,369.4C77.2,376.3,65,375.3,57.5,367.5z"/>
		<g>
			<path d="M59.3,365.7c-6.4-7.2-6.9-17.3-0.2-24.4c3-3.2,6.1-6.3,9.2-9.4c7.9-8.1,15.8-16.2,23.8-24.3c11.7-12,23.5-24.1,35.2-36.1
				c10.2-10.5,22.5-25.4,39-17.6c9.8,4.6,13.3,16.1,10,25.9c-2.3,6.8-7.2,11.2-12.3,15.8c-15,13.4-30.1,26.8-45.1,40.3
				c-7.1,6.3-14.1,12.6-21.2,18.9c-4.4,3.9-8.7,7.9-13.1,11.7C76.8,373.1,66.7,372.9,59.3,365.7c-2.3-2.2-5.8,1.3-3.5,3.5
				c7.2,7,18,9.6,27.1,4.7c3.8-2.1,7-5.6,10.2-8.4c9.1-8.1,18.2-16.3,27.3-24.4c15-13.4,30-26.8,45-40.2c4.8-4.3,10-8.4,13.2-14.1
				c4.5-8.2,5.4-18.4,1-26.8c-9.4-17.8-32.8-15.5-45.3-2.8c-15.1,15.3-30,30.7-45,46.1c-8.6,8.8-17.1,17.6-25.7,26.3
				c-3.2,3.3-6.7,6.4-9.6,9.9c-7.4,9-5.6,21.5,1.8,29.8C57.9,371.7,61.4,368.1,59.3,365.7z"/>
		</g>
	</g>
	<g>
		<g>
			<path fill="#FFAEC5" d="M148.1,322.2c26.1-23.5,44.2-50.3,28.4-67.3s-43.9-0.9-69.2,23.4L148.1,322.2z"/>
			<g>
				<path d="M149.8,324c15.9-14.5,49.5-47.2,28.8-70.3c-21.2-23.8-57.4,8-73.1,22.9c-1,1-0.9,2.6,0,3.5
					c13.6,14.6,27.2,29.2,40.7,43.9c2.2,2.4,5.7-1.2,3.5-3.5c-13.6-14.6-27.2-29.2-40.7-43.9c0,1.2,0,2.4,0,3.5
					c10.4-9.9,21.8-19.6,35-25.6c10.2-4.7,22.8-6.7,31,2.7c7.8,8.9,4.5,20.9-0.6,30.2c-7,12.7-17.5,23.4-28.2,33.1
					C143.9,322.6,147.4,326.1,149.8,324z"/>
			</g>
		</g>
		<g>
			<line fill="#FFAEC5" x1="155.2" y1="313.7" x2="116.4" y2="271.9"/>
			<g>
				<path d="M157,311.9c-12.9-13.9-25.9-27.8-38.8-41.8c-2.2-2.4-5.7,1.2-3.5,3.5c12.9,13.9,25.9,27.8,38.8,41.8
					C155.6,317.8,159.2,314.3,157,311.9L157,311.9z"/>
			</g>
		</g>
		<g>
			<line fill="#FFAEC5" x1="139.7" y1="311" x2="146.3" y2="304.9"/>
			<g>
				<path d="M140.8,312.1c2.2-2,4.4-4.1,6.6-6.1c1.4-1.3-0.7-3.4-2.1-2.1c-2.2,2-4.4,4.1-6.6,6.1
					C137.3,311.3,139.4,313.4,140.8,312.1L140.8,312.1z"/>
			</g>
		</g>
		<g>
			<line fill="#FFAEC5" x1="128.8" y1="299.3" x2="135.4" y2="293.2"/>
			<g>
				<path d="M129.9,300.3c2.2-2,4.4-4.1,6.6-6.1c1.4-1.3-0.7-3.4-2.1-2.1c-2.2,2-4.4,4.1-6.6,6.1
					C126.4,299.5,128.5,301.7,129.9,300.3L129.9,300.3z"/>
			</g>
		</g>
		<g>
			<line fill="#FFAEC5" x1="118" y1="287.6" x2="124.6" y2="281.4"/>
			<g>
				<path d="M119,288.6c2.2-2,4.4-4.1,6.6-6.1c1.4-1.3-0.7-3.4-2.1-2.1c-2.2,2-4.4,4.1-6.6,6.1C115.5,287.8,117.6,289.9,119,288.6
					L119,288.6z"/>
			</g>
		</g>
	</g>
	<g>
		<path fill="#FFFFFF" d="M355.5,336.5c11.1,18.6,34.1,26.2,54.1,17.9l6.4-2.7l40.1-16.6c11.3-4.7,16.7-17.2,12.6-28.1
			c-4.2-10.9-16.6-16.6-28.1-12.6l-46.1,16.2l-20.4-38.9c-7.4-14.2-23.6-20.6-35.9-13.8c-3.5,2-6.3,4.8-8.2,8.1
			c-4.9,8.3-4.7,19.8,1.1,29.7l18.3,30.7L355.5,336.5z"/>
		<g>
			<path d="M353.1,337.9c12.1,19.5,36.2,27.7,57.6,19.1c11.4-4.6,22.7-9.4,34.1-14.1c4.4-1.8,9-3.5,13.3-5.6
				c9.6-4.5,15.8-14.8,14.5-25.5c-1.3-10.7-9.8-19.3-20.3-21c-6.5-1.1-12.1,0.9-18,3c-13.5,4.7-27,9.5-40.5,14.2
				c1,0.4,2.1,0.8,3.1,1.3c-4.6-8.8-9.2-17.6-13.8-26.4c-5.5-10.4-10.1-21.7-21.3-27.3c-16.4-8.2-35.2,1.4-37.6,19.8
				c-1.8,13.7,6.5,24.7,13.1,35.8C342.5,320,347.8,328.9,353.1,337.9c1.8,3,6.6,0.3,4.8-2.8c-8.4-14-17.6-27.8-25.1-42.3
				c-4.8-9.2-5-21.7,2.8-29.4c6.6-6.6,16.7-6.8,24.6-2.5c9.4,5.2,13.5,15.6,18.2,24.7c4.6,8.8,9.2,17.6,13.8,26.4
				c0.5,1,2,1.7,3.1,1.3c10.1-3.6,20.3-7.1,30.4-10.7c12.3-4.3,28.1-12.4,38.1,1c6.9,9.3,3.3,22.4-6.5,28c-3.8,2.2-8.2,3.6-12.2,5.2
				c-9.9,4.1-19.8,8.2-29.7,12.3c-8.5,3.5-16.7,6.6-26.1,5.7c-13-1.2-24.4-8.7-31.3-19.7C356,332.1,351.2,334.8,353.1,337.9z"/>
		</g>
	</g>
	<path fill="none" stroke="#000000" stroke-width="0.9829" stroke-miterlimit="10" d="M365.2,293.1"/>
	<g>
		<g>
			<path fill="#FFAEC5" d="M395.5,297.5c-15.3-31.5-36.1-56.4-56.8-45.9c-20.7,10.5-12.9,41.9,3.4,72.9L395.5,297.5z"/>
			<g>
				<path d="M397.7,296.2c-9.6-19.4-32.1-61.1-60.2-46.8c-28,14.3-7.5,57.2,2.5,76.4c0.7,1.2,2.3,1.5,3.4,0.9
					c17.8-9,35.6-18,53.4-27c2.9-1.5,0.3-5.8-2.5-4.3c-17.8,9-35.6,18-53.4,27c1.1,0.3,2.3,0.6,3.4,0.9c-6.7-12.9-13-26.7-15-41.2
					c-1.5-10.7,0-23,10.7-28.4c10.6-5.3,21.2,0.8,28.9,8.3c10.6,10.3,18,23.6,24.5,36.8C394.8,301.6,399.1,299.1,397.7,296.2z"/>
			</g>
		</g>
		<g>
			<line fill="#FFAEC5" x1="389.3" y1="288.3" x2="338.5" y2="314"/>
			<g>
				<path d="M388.1,286.1c-17,8.6-33.9,17.2-50.9,25.8c-2.9,1.5-0.3,5.8,2.5,4.3c17-8.6,33.9-17.2,50.9-25.8
					C393.5,289,390.9,284.6,388.1,286.1L388.1,286.1z"/>
			</g>
		</g>
		<g>
			<line fill="#FFAEC5" x1="382.5" y1="302.4" x2="378.4" y2="294.4"/>
			<g>
				<path d="M383.8,301.6c-1.4-2.7-2.7-5.4-4.1-8c-0.9-1.7-3.5-0.2-2.6,1.5c1.4,2.7,2.7,5.4,4.1,8
					C382.1,304.9,384.6,303.3,383.8,301.6L383.8,301.6z"/>
			</g>
		</g>
		<g>
			<line fill="#FFAEC5" x1="368.2" y1="309.6" x2="364.1" y2="301.6"/>
			<g>
				<path d="M369.5,308.9c-1.4-2.7-2.7-5.4-4.1-8c-0.9-1.7-3.5-0.2-2.6,1.5c1.4,2.7,2.7,5.4,4.1,8
					C367.8,312.1,370.4,310.6,369.5,308.9L369.5,308.9z"/>
			</g>
		</g>
		<g>
			<line fill="#FFAEC5" x1="353.9" y1="316.8" x2="349.9" y2="308.8"/>
			<g>
				<path d="M355.2,316.1c-1.4-2.7-2.7-5.4-4.1-8c-0.9-1.7-3.5-0.2-2.6,1.5c1.4,2.7,2.7,5.4,4.1,8
					C353.5,319.3,356.1,317.8,355.2,316.1L355.2,316.1z"/>
			</g>
		</g>
	</g>
	<g>
		<path fill="#FFB6CB" d="M128.1,237.4c-9.1-18.1-13.7-53.2-13.7-53.2l-9.8,15.9c-4.1-28.2,12.8-61,12.8-61
			C94.4,140.7,85,125,85,125s26-2.5,49.2-23.9s61.5-29.8,61.5-29.8c-7.1-5-12.9-18-12.9-18s25.2,9.6,72.1,8.7
			c46.9-0.9,55.6,19.8,55.6,19.8l2.7-12.3C323.9,82.6,328,96.5,328,96.5s27-3.8,41,20.5s10.9,96.8,0,126.7"/>
		<g>
			<path d="M130.2,236.2c-7.7-15.6-11.2-35.7-13.3-52c-0.3-2.3-3.2-3.6-4.7-1.3c-3.3,5.3-6.5,10.6-9.8,15.9c1.6,0.4,3.1,0.8,4.7,1.3
				c-2.6-20,3.3-41.9,12.4-59.8c0.8-1.6-0.2-3.9-2.2-3.8c-10.9,0.6-24.1-2.9-30.2-12.9c-0.7,1.3-1.4,2.5-2.2,3.8
				c7-0.7,14-2.9,20.6-5.5c6.1-2.5,12-5.5,17.5-9.1c6.9-4.5,12.5-10.3,19.1-15.2c15.6-11.7,35.2-19.8,54.2-24.1
				c2.3-0.5,2.2-3.4,0.6-4.6c-5.4-4.2-9.2-10.9-12-17.1c-0.9,1.2-1.9,2.4-2.8,3.7c14,5.3,30,6.9,44.7,8c24,1.8,53.7-4,74.4,11.5
				c2.7,2,5.6,4.6,7,7.8c0.9,2,4.1,1.4,4.6-0.6c0.9-4.1,1.8-8.2,2.7-12.3c-1.4,0.4-2.8,0.7-4.2,1.1c6.1,7.7,11.3,16.6,14.1,26
				c0.3,0.9,1.3,2,2.4,1.8c19.2-2.6,36.9,10,42.5,28.1c7.5,24.3,6.3,52.2,3.8,77.1c-1.3,13-3.3,26.4-7.7,38.7
				c-1.1,3,3.7,4.3,4.8,1.3c4.2-11.6,6.1-24,7.5-36.2c1.7-14.8,2.3-29.7,1.8-44.5c-0.9-23.8-3.6-53.5-27.9-65.2
				c-7.4-3.5-16.5-5.5-24.7-4.4c0.8,0.6,1.6,1.2,2.4,1.8c-3.1-10.3-8.8-19.9-15.4-28.2c-1.2-1.5-3.8-0.6-4.2,1.1
				c-0.9,4.1-1.8,8.2-2.7,12.3c1.5-0.2,3-0.4,4.6-0.6c-4.2-9.7-17.3-15.2-26.6-17.7c-15.1-4.1-30.5-2.9-45.9-3.4
				c-13.6-0.4-27.2-1.6-40.6-4.3c-5.4-1.1-10.9-2.3-16-4.2c-2.3-0.9-3.6,1.9-2.8,3.7c3.2,7,7.6,14.1,13.8,18.9
				c0.2-1.5,0.4-3,0.6-4.6c-18.1,4-36.6,11.6-51.9,22c-5.8,3.9-10.7,8.8-16.2,13.1c-6.3,5-13.4,9.2-20.9,12.4
				c-6.5,2.8-14.3,5.4-21.1,6.1c-1.8,0.2-3.2,2-2.2,3.8c7,11.5,21.8,16,34.5,15.4c-0.7-1.3-1.4-2.5-2.2-3.8
				c-9.5,18.6-15.8,41.4-13.1,62.3c0.3,2.3,3.2,3.6,4.7,1.3c3.3-5.3,6.5-10.6,9.8-15.9c-1.6-0.4-3.1-0.8-4.7-1.3
				c2.4,18.3,5.8,37.8,14,54.5C127.3,241.6,131.7,239,130.2,236.2L130.2,236.2z"/>
		</g>
	</g>
	<path fill="#FFFFFF" d="M381.1,349.2c-0.2-6-2.6-18-5.4-31.8l-0.1-0.5c-3-14.8-6.6-33.2-6.8-41.2c-0.1-5,0.1-12.2,0.1-19.8v-0.4
		c0-15.6,0.1-37.1-1.4-51.2c-1.2-11.5-5.6-40.7-19.2-62.5c-12.6-20.2-27.9-33.2-47.9-41.4c-18.4-7.4-52.1-8.3-53-8.3
		c-8.6,0-30.7,0.7-49.1,8.1c-20.1,8.1-35.3,21.3-47.9,41.5c-13.6,21.8-17.9,51-19.1,62.5c-1.5,14.1-1.4,35.5-1.2,51.2l0,3.6
		c0,6.3,0,12.3-0.1,16.6c-0.2,8.1-3.9,26.5-6.9,41.3l-0.1,0.6c-2.7,13.8-5.1,25.7-5.4,31.7c-0.6,15.4,3.8,25.7,14.9,35.8
		c7.1,6.4,14,9.5,21.7,9.5c4.1,0,7.8-0.8,11.9-1.8c1.1-0.3,2.3-0.6,3.5-1.1c4,2.2,11.7,5.6,21.7,5.6c6.5,0,14.1-1.4,22.4-5.4
		c4.8,3.9,9.7,7.5,9.7,7.5c12.9,7.3,24,8.8,25.6,8.8h0.4c1.6,0,12.7-0.9,26.1-8.8c0,0,4.3-3.1,8.8-6.7c7.7,3.4,14.7,4.6,20.8,4.6
		c10.9,0,19-3.9,22.7-6.1c1.8,0.7,3.3,1.3,4.9,1.7c4,1,7.7,1.8,11.8,1.8c7.8,0,14.4-2.9,21.6-9.5C377.4,375,381.7,364.6,381.1,349.2
		z"/>
	<path fill="#FFAEC5" d="M133,261.8l-4.4,40.3c0,0,65.9,6.6,73.4,6.9s32.7,0,32.7,0l79.3,13.8l64,6.3l-9.8-66
		C368.4,263,271.5,285.9,133,261.8z"/>
	<path fill="#F789A3" d="M128,303.8l106.3,7.3L339,364l39.2-33.5c0,0,6.9,28.5,0,41c-6.9,12.5-18.8,25.5-43.9,19.9
		s-26.5-16.2-46.5-3.2s-33.6,21.3-53.5,13.8c-19.8-7.5-21-21.6-38.3-20.5c-16.9,1.1-43.9,19.9-61.8,5.8
		C119.5,375.5,112.2,338.3,128,303.8z"/>
	<path fill="#C8C8C8" d="M282.5,391.9c0,0,8-6.1,16.8-7c8.8-1,23.8,5.5,23.8,5.5s-4.9,10-14.2,9.8
		C299.5,399.9,282.5,391.9,282.5,391.9z"/>
	<path fill="#C8C8C8" d="M170.6,389.9c0,0,8-6.1,16.8-7s23.8,5.5,23.8,5.5s-4.9,10-14.2,9.8S170.6,389.9,170.6,389.9z"/>
	<path d="M383.3,351.6c-0.2-6.1-2.7-18.4-5.5-32.5l-0.1-0.5c-3-15.1-6.1-33.9-6.4-42.1c-0.1-5.1,0.7-12.5,0.7-20.3v-0.4
		c0-16-0.4-37.9-2-52.2c-1.2-11.8-5.9-41.6-19.9-63.8c-12.9-20.6-28.6-33.9-49.1-42.2c-18.8-7.6-53.2-8.4-54.2-8.4
		c-8.8,0-31.4,0.7-50.1,8.3c-20.5,8.3-36,21.7-48.9,42.3c-13.9,22.2-18.3,52.1-19.6,63.8c-1.5,14.4-1.4,36.3-1.3,52.3l0,3.7
		c0,6.5,0,12.5-0.1,16.9c-0.2,8.3-4,27-7,42.1l-0.2,0.6c-2.8,14.1-5.2,26.3-5.5,32.4c-0.6,15.7,3.8,26.3,15.2,36.6
		c7.3,6.6,14.3,9.7,22.1,9.7c4.2,0,8-0.8,12.1-1.9c1.1-0.3,2.3-0.7,3.5-1.1c4.1,2.3,11.9,5.7,22.2,5.7c6.7,0,14.4-1.4,22.9-5.5
		c4.9,4,9.9,7.3,10,7.4c13.2,7.5,24.5,8.7,26.2,8.7h0.4c1.7,0,13-0.7,26.7-8.7c0,0,4.4-3,8.9-6.7c7.8,3.5,15,4.8,21.3,4.8
		c11.2,0,19.4-4,23.2-6.2c1.8,0.7,3.4,1.3,5,1.7c4.1,1,7.9,1.9,12.1,1.9c7.9,0,14.7-3,22.1-9.6C379.5,377.9,383.9,367.3,383.3,351.6
		z M176,391.1c6.1-2.6,13.6-5.5,20.1-5.5c4.4,0,7.6,1.3,10.4,4.1l0.2,0.2C193.5,395.3,182.7,393.5,176,391.1z M290.5,390.6
		c0.3-0.3,0.6-0.5,0.8-0.8c2.8-2.8,6-4.2,10.4-4.2c6.1,0,13,2.5,18.9,5C314.1,393.1,303.5,395.4,290.5,390.6z M363.2,382.7
		c-6,5.4-11.1,7.8-17.2,7.8c-3.4,0-6.6-0.7-10.4-1.6c-2-0.5-4.5-1.6-7.7-3l-0.5-0.2c-7-3.2-16.7-7.4-25.8-7.4
		c-6.3,0-11.3,2.1-15.6,6.3c-11,11.2-21.9,15.7-29.1,17.5c-0.1,0-7.1,1.9-15.2-0.3c-8.2-2.3-19.2-6.1-30.1-17.2
		c-4.1-4.2-9.2-6.3-15.6-6.3c-9,0-18.6,4.2-25.9,7.4l-0.3,0.1c-3.3,1.4-5.8,2.6-7.9,3.1c-3.8,0.9-7,1.6-10.4,1.6
		c-6,0-11.3-2.4-17.2-7.8c-9.8-8.9-13.3-17.3-12.8-30.9c0.2-5.5,2.6-17.4,5.4-31.2l0.1-0.6c3.2-16.1,6.9-34.4,7.2-43.4
		c0.1-4.5,0.1-10.6,0.1-17.1l0-3.7c-0.1-15.8-0.3-37.5,1.2-51.4c1.2-11.3,5.4-39.8,18.5-60.7c12-19.3,26.5-31.8,45.4-39.5
		c17.6-7.1,39-8.2,47.4-8.2c0.8,0,33.8,0.8,51.4,7.9c19,7.7,33.4,20.4,45.5,39.6c13.1,21,18.1,49.5,19.3,60.8
		c1.5,14,2.1,35.7,2.1,51.5v0.4c0,7.8-0.9,15.2-0.8,20.4c0.2,8.9,3.5,27.2,6.8,43.4l-0.1,0.5c2.8,13.8,5.1,25.8,5.3,31.3
		C376.6,365.5,373.1,373.8,363.2,382.7z"/>
	<path d="M321.2,193.9c0,10.6-8.6,19.1-19.1,19.1c-10.6,0-19.1-8.6-19.1-19.1c0-0.9,0.1-1.8,0.2-2.6c1.2,0.8,2.6,1.3,4.1,1.3
		c4,0,7.2-3.2,7.2-7.2c0-2.9-1.7-5.4-4.1-6.5c3.2-2.5,7.3-4,11.7-4C312.6,174.8,321.2,183.4,321.2,193.9z"/>
	<path d="M211.1,193.9c0,10.6-8.6,19.1-19.1,19.1c-10.6,0-19.1-8.6-19.1-19.1c0-0.9,0.1-1.8,0.2-2.6c1.2,0.8,2.6,1.3,4.1,1.3
		c4,0,7.2-3.2,7.2-7.2c0-2.9-1.7-5.4-4.1-6.5c3.2-2.5,7.3-4,11.7-4C202.5,174.8,211.1,183.4,211.1,193.9z"/>
	
		<ellipse transform="matrix(0.7169 -0.6971 0.6971 0.7169 -114.4706 179.1762)" fill="#F68694" cx="163.4" cy="230.6" rx="7.4" ry="3.4"/>
	
		<ellipse transform="matrix(0.7169 -0.6971 0.6971 0.7169 -111.3091 189.3049)" fill="#F68694" cx="177.5" cy="231.7" rx="7.4" ry="3.4"/>
	
		<ellipse transform="matrix(0.7169 -0.6971 0.6971 0.7169 -107.3312 199.1021)" fill="#F68694" cx="191.5" cy="231.7" rx="7.4" ry="3.4"/>
	
		<ellipse transform="matrix(-0.7169 -0.6971 0.6971 -0.7169 406.5665 628.5236)" fill="#F68694" cx="330.9" cy="231.7" rx="7.4" ry="3.4"/>
	
		<ellipse transform="matrix(-0.7169 -0.6971 0.6971 -0.7169 381.6206 620.7372)" fill="#F68694" cx="316.8" cy="232.9" rx="7.4" ry="3.4"/>
	
		<ellipse transform="matrix(-0.7169 -0.6971 0.6971 -0.7169 357.4911 610.9399)" fill="#F68694" cx="302.8" cy="232.9" rx="7.4" ry="3.4"/>
	<g>
		<g>
			<path d="M279.5,161.2c15.4-0.9,34.1,2.1,45.4,13.5c2.3,2.3,5.8-1.3,3.5-3.5c-12.2-12.3-32.2-15.9-48.9-14.9
				C276.3,156.4,276.3,161.4,279.5,161.2L279.5,161.2z"/>
		</g>
	</g>
	<g>
		<g>
			<path d="M214.7,156.2c-16.8-1-36.7,2.7-48.9,14.9c-2.3,2.3,1.3,5.8,3.5,3.5c11.3-11.3,30-14.4,45.4-13.5
				C217.9,161.4,217.9,156.4,214.7,156.2L214.7,156.2z"/>
		</g>
	</g>
	<g>
		<g>
			<path d="M230.7,224.3c11.1,5.1,22.1,5,33-0.3c2.9-1.4,0.4-5.7-2.5-4.3c-9.3,4.5-18.6,4.7-28,0.3
				C230.3,218.7,227.8,223,230.7,224.3L230.7,224.3z"/>
		</g>
	</g>
	<g>
		<g>
			<path d="M131.3,262.9c78.9,13.1,159.4,13.3,238.3,0c3.2-0.5,1.8-5.4-1.3-4.8c-78,13.1-157.7,13-235.7,0
				C129.5,257.6,128.2,262.4,131.3,262.9L131.3,262.9z"/>
		</g>
	</g>
	<g>
		<g>
			<path d="M129.3,274.9c78.9,13.1,159.4,13.3,238.3,0c3.2-0.5,1.8-5.4-1.3-4.8c-78,13.1-157.7,13-235.7,0
				C127.5,269.6,126.2,274.4,129.3,274.9L129.3,274.9z"/>
		</g>
	</g>
	<g>
		<g>
			<path d="M130,306c34.6,3.8,69.4,5.9,104.3,6.4c3.2,0,3.2-5,0-5c-34.8-0.5-69.6-2.6-104.3-6.4C126.8,300.7,126.8,305.7,130,306
				L130,306z"/>
		</g>
	</g>
	<g>
		<path fill="#C95079" d="M281.3,365c0,0-9.8,17.5-34.3,17.5s-34.3-18-34.3-18v-43h68.5V365z"/>
		<g>
			<path d="M279.1,363.7c-9.9,17.5-36.6,20.5-52.7,10.8c-3.6-2.2-6.9-5-9.5-8.3c-0.6-0.7-1.1-1.8-1.7-2.4c-1-0.9,0,0.7,0,0.3
				c0.6-6.8,0-13.8,0-20.6c0-7.3,0-14.7,0-22c-0.8,0.8-1.7,1.7-2.5,2.5c22.8,0,45.7,0,68.5,0c-0.8-0.8-1.7-1.7-2.5-2.5
				c0,14.5,0,29,0,43.5c0,3.2,5,3.2,5,0c0-14.5,0-29,0-43.5c0-1.4-1.1-2.5-2.5-2.5c-22.8,0-45.7,0-68.5,0c-1.4,0-2.5,1.1-2.5,2.5
				c0,7.2,0,14.3,0,21.5c0,5,0,10,0,15c0,2-0.4,4.5,0,6.5c1.1,5.9,9,11.5,13.7,14.3c11.8,7.1,27.2,8.1,40,3.1
				c7.6-3,15.4-8.4,19.5-15.7C285,363.5,280.7,360.9,279.1,363.7z"/>
		</g>
	</g>
	<g>
		<path fill="#F789A3" d="M376.3,330.8c-42.5-3.8-142-20.7-142-20.7s91.8,44.7,104.5,53.7L376.3,330.8z"/>
		<g>
			<path d="M376.3,328.3c-43-3.9-85.9-11.4-128.5-18.5c-4.3-0.7-8.6-1.4-12.8-2.2c-2.6-0.4-4.7,3.2-1.9,4.6
				c28.9,14.1,57.9,28.3,86.3,43.4c6.1,3.2,12.5,6.4,18.2,10.3c0.9,0.7,2.2,0.3,3-0.4c12.5-11,25-22,37.5-33
				c2.4-2.1-1.1-5.7-3.5-3.5c-12.5,11-25,22-37.5,33c1-0.1,2-0.3,3-0.4c-12.6-8.7-27.2-15.1-40.8-22c-17.3-8.8-34.7-17.5-52.1-26
				c-3.9-1.9-7.7-3.8-11.6-5.7c-0.6,1.5-1.3,3-1.9,4.6c35.9,6.1,71.8,11.9,107.9,16.7c11.6,1.6,23.2,3.1,34.8,4.1
				C379.5,333.5,379.4,328.5,376.3,328.3z"/>
		</g>
	</g>
	<g>
		<circle fill="#C95079" cx="165.4" cy="322.9" r="7.6"/>
		<g>
			<path d="M170.5,322.9c-0.4,6.5-10.2,6.6-10.2,0C160.3,316.3,170.1,316.3,170.5,322.9c0.2,3.2,5.2,3.2,5,0
				c-0.3-5.5-4.4-10.1-10.1-10.1c-5.5,0-10.1,4.6-10.1,10.1c0,5.3,4.4,9.9,9.7,10.1c5.9,0.2,10.2-4.4,10.5-10.1
				C175.7,319.6,170.7,319.7,170.5,322.9z"/>
		</g>
	</g>
	<g>
		<g>
			<g>
				<path d="M145.1,263.1c0,3.3-0.1,6.7-0.1,10c0,1.9,3,1.9,3,0c0-3.3,0.1-6.7,0.1-10C148.1,261.2,145.1,261.2,145.1,263.1
					L145.1,263.1z"/>
			</g>
		</g>
		<g>
			<g>
				<path d="M168,268.3c0,3.3-0.1,6.7-0.1,10c0,1.9,3,1.9,3,0c0-3.3,0.1-6.7,0.1-10C171.1,266.4,168.1,266.4,168,268.3L168,268.3z"
					/>
			</g>
		</g>
		<g>
			<g>
				<path d="M191,268.5c0,3.3-0.1,6.7-0.1,10c0,1.9,3,1.9,3,0c0-3.3,0.1-6.7,0.1-10C194.1,266.6,191.1,266.6,191,268.5L191,268.5z"
					/>
			</g>
		</g>
		<g>
			<g>
				<path d="M214,270.7c0,3.3-0.1,6.7-0.1,10c0,1.9,3,1.9,3,0c0-3.3,0.1-6.7,0.1-10C217,268.8,214,268.8,214,270.7L214,270.7z"/>
			</g>
		</g>
		<g>
			<g>
				<path d="M237,271.9c0,3.3-0.1,6.7-0.1,10c0,1.9,3,1.9,3,0c0-3.3,0.1-6.7,0.1-10C240,270,237,270,237,271.9L237,271.9z"/>
			</g>
		</g>
		<g>
			<g>
				<path d="M260,272.1c0,3.3-0.1,6.7-0.1,10c0,1.9,3,1.9,3,0c0-3.3,0.1-6.7,0.1-10C263,270.2,260,270.2,260,272.1L260,272.1z"/>
			</g>
		</g>
		<g>
			<g>
				<path d="M283,271.3c0,3.3-0.1,6.7-0.1,10c0,1.9,3,1.9,3,0c0-3.3,0.1-6.7,0.1-10C286,269.4,283,269.4,283,271.3L283,271.3z"/>
			</g>
		</g>
		<g>
			<g>
				<path d="M306,269.5c0,3.3-0.1,6.7-0.1,10c0,1.9,3,1.9,3,0c0-3.3,0.1-6.7,0.1-10C309,267.5,306,267.5,306,269.5L306,269.5z"/>
			</g>
		</g>
		<g>
			<g>
				<path d="M329,266.7c0,3.3-0.1,6.7-0.1,10c0,1.9,3,1.9,3,0c0-3.3,0.1-6.7,0.1-10C332,264.7,329,264.7,329,266.7L329,266.7z"/>
			</g>
		</g>
		<g>
			<g>
				<path d="M352.1,264.9c0,3.3-0.1,6.7-0.1,10c0,1.9,3,1.9,3,0c0-3.3,0.1-6.7,0.1-10C355.1,262.9,352.1,262.9,352.1,264.9
					L352.1,264.9z"/>
			</g>
		</g>
	</g>
	<g>
		<path fill="#FFB6CB" d="M136,148.3c-7.3,19-7.4,30.8-7.4,30.8c32.4-7,76.6-43.3,76.6-43.3l-5.6,15.8c27.3-9.5,34.4-27.3,34.4-27.3
			v14.5c15-12.8,14.1-21.4,14.1-21.4s7.5,23.3,28,27.6c2.3,1.8-2.2-11.7-2.2-11.7c13.5,10.7,26.2,19,37.2,22.7l-3.7-15.6
			c0,0,8.7,9.3,28.7,25.5s32.8,19.4,32.8,19.4S372.7,89,253.7,86S136,148.3,136,148.3z"/>
	</g>
	<g>
		<polygon fill="#F789A3" points="175.1,309.9 158,308.2 157.8,262.6 175.1,264.7 		"/>
		<g>
			<path d="M175.1,307.4c-5.7-0.6-11.4-1.1-17.1-1.7c0.8,0.8,1.7,1.7,2.5,2.5c-0.1-15.2-0.2-30.4-0.3-45.6c-0.8,0.8-1.7,1.7-2.5,2.5
				c5.8,0.7,11.6,1.3,17.3,2c-0.8-0.8-1.7-1.7-2.5-2.5c0,15.1,0,30.2,0,45.2c0,3.2,5,3.2,5,0c0-15.1,0-30.2,0-45.2
				c0-1.5-1.2-2.3-2.5-2.5c-5.8-0.7-11.6-1.3-17.3-2c-1.3-0.2-2.5,1.3-2.5,2.5c0.1,15.2,0.2,30.4,0.3,45.6c0,1.4,1.1,2.4,2.5,2.5
				c5.7,0.6,11.4,1.1,17.1,1.7C178.3,312.7,178.3,307.7,175.1,307.4z"/>
		</g>
	</g>
	<g>
		<g>
			<path d="M133.6,147.6c-3.7,9.9-7.3,20.8-7.5,31.4c0,1.7,1.6,2.8,3.2,2.4c18.4-4.2,35.4-14.2,51.1-24.5c9.2-6,18.2-12.4,26.7-19.4
				c-1.4-0.8-2.8-1.6-4.2-2.4c-1.8,5.3-3.7,10.5-5.5,15.8c-0.6,1.7,1.3,3.7,3.1,3.1c14.1-5.1,30.2-14.4,36.2-29
				c-1.6-0.2-3.3-0.4-4.9-0.7c0,4.8,0,9.7,0,14.5c0,1.8,2.2,3.3,3.8,2.2c8.3-5.8,12.6-14.4,14.9-24.1c-1.6-0.2-3.3-0.4-4.9-0.7
				c1.5,16.1,16.7,27,30.8,31.5c1.8,0.6,3.6-1.3,3.1-3.1c-1.6-5-3.2-10-4.8-15c-1.5,0.6-3,1.3-4.6,1.9c2,3.5,5.3,6.5,8.4,9
				c9.4,7.7,20.5,12.8,31.9,16.9c1.9,0.7,3.5-1.4,3.1-3.1c-1.2-5-2.4-10-3.6-15c-1.4,0.8-2.8,1.6-4.2,2.4c6.7,7,13.8,13.6,21.2,19.9
				c11.9,10.2,24.7,20.3,39.5,25.9c3,1.1,4.3-3.7,1.3-4.8c-14.6-5.5-27.5-16.1-39.2-26.2c-6.7-5.8-13.2-11.9-19.3-18.3
				c-1.8-1.9-4.7,0.1-4.2,2.4c1.2,5,2.4,10,3.6,15c1-1,2.1-2.1,3.1-3.1c-10.7-3.8-21.5-8.7-30.3-16.1c-2.5-2.1-5.3-4.6-7-7.5
				c-1.4-2.4-5.4-0.8-4.6,1.9c1.6,5,3.2,10,4.8,15c1-1,2.1-2.1,3.1-3.1c-9.4-3-18.3-8.2-23.4-16.8c-1.3-2.2-2.4-4.6-3.1-7.1
				c-0.2-0.9-0.6-2.8-0.6-2.7c-0.2-2.6-4.2-3.6-4.9-0.7c-1.9,8.3-5.4,16.1-12.6,21.1c1.3,0.7,2.5,1.4,3.8,2.2c0-4.8,0-9.7,0-14.5
				c0-3-3.9-3.1-4.9-0.7c0.5-1.1-1,1.7-1.2,2.2c-1.5,2.4-3.2,4.7-5.2,6.7c-7.2,7.7-16.5,13-26.4,16.5c1,1,2.1,2.1,3.1,3.1
				c1.8-5.3,3.7-10.5,5.5-15.8c0.9-2.6-2.4-3.9-4.2-2.4c-8.2,6.7-16.9,12.8-25.7,18.6c-15.3,10-31.8,19.9-49.9,24
				c1.1,0.8,2.1,1.6,3.2,2.4c0.2-10.2,3.8-20.7,7.3-30.1C139.5,145.9,134.7,144.6,133.6,147.6L133.6,147.6z"/>
		</g>
	</g>
	<path fill="none" stroke="#000000" stroke-width="0.9829" stroke-miterlimit="10" d="M72.1,296.1"/>
	<g>
		<g>
			<path d="M451.4,316.8c-0.1-9.3-0.5-18.6-1.2-27.9c-1.1-14.5-2.4-29.9-7.7-43.6c-1.2-3-6-1.7-4.8,1.3c5.3,13.7,6.5,29,7.6,43.5
				c0.7,8.9,1.1,17.8,1.2,26.7C446.5,320,451.5,320,451.4,316.8L451.4,316.8z"/>
		</g>
	</g>
	<g>
		<ellipse fill="#4EDADD" cx="437.7" cy="224.9" rx="6.7" ry="10"/>
		<g>
			<path d="M442.9,224.9c-0.1,2.9-1.2,8.5-5.2,8.5c-3.9,0-5.2-5.6-5.2-8.5c0-3,1.3-8.5,5.2-8.5C441.7,216.4,442.8,222,442.9,224.9
				c0.1,1.9,3.1,1.9,3,0c-0.2-4.7-2.4-11.5-8.2-11.5c-5.7,0-8.2,6.8-8.2,11.5c0,4.6,2.4,11.1,7.8,11.5c6,0.4,8.4-6.7,8.6-11.5
				C446,223,443,223,442.9,224.9z"/>
		</g>
	</g>
	<g>
		
			<ellipse transform="matrix(0.2453 -0.9695 0.9695 0.2453 93.5967 591.0903)" fill="#4EDADD" cx="426.4" cy="235.4" rx="6.7" ry="10"/>
		<g>
			<path d="M427.7,230.4c2.8,0.8,8,3.3,7,7.1c-0.9,3.8-6.7,3.7-9.5,3c-2.9-0.7-7.9-3.3-7-7.1C419.1,229.5,424.8,229.8,427.7,230.4
				c1.9,0.4,2.7-2.5,0.8-2.9c-4.6-1-11.8-0.5-13.2,5.1c-1.4,5.5,4.6,9.6,9.1,10.8c4.5,1.1,11.3,0.5,13.1-4.7c1.9-5.7-4.4-9.8-9-11.2
				C426.6,226.9,425.8,229.8,427.7,230.4z"/>
		</g>
	</g>
	<g>
		
			<ellipse transform="matrix(0.8731 0.4876 -0.4876 0.8731 176.9118 -179.449)" fill="#4EDADD" cx="433.1" cy="250.1" rx="6.7" ry="10"/>
		<g>
			<path d="M437.7,252.6c-1.5,2.5-4.7,6.3-8,5.1c-4.1-1.4-2.7-7.4-1.1-10.2c1.4-2.4,4.2-5.7,7.3-5.3
				C441,242.8,439.1,249.8,437.7,252.6c-0.9,1.7,1.7,3.2,2.6,1.5c2.2-4.3,3.6-11.6-1.8-14.2c-4.9-2.4-10.2,2.1-12.5,6.2
				c-2.3,4.1-3.4,11.3,1.5,14.1c5,2.9,10.4-2,12.8-6C441.3,252.5,438.7,251,437.7,252.6z"/>
		</g>
	</g>
	<g>
		
			<ellipse transform="matrix(-0.2803 -0.9599 0.9599 -0.2803 353.7891 731.7163)" fill="#4EDADD" cx="451.2" cy="233.2" rx="6.7" ry="10"/>
		<g>
			<path d="M449.7,228.2c3-0.7,10-1.1,9.8,3.7c-0.2,3.3-4.1,5.5-6.8,6.2c-2.8,0.8-8.5,1.1-9.7-2.6
				C441.8,231.9,446.9,229.2,449.7,228.2c1.8-0.6,1-3.5-0.8-2.9c-4.4,1.5-10.1,5.3-8.9,10.7c1.3,5.8,8.8,6.4,13.4,5.1
				c4.3-1.3,9.7-5.1,8.9-10.3c-1-6.2-8.7-6.6-13.5-5.4C447,225.8,447.8,228.7,449.7,228.2z"/>
		</g>
	</g>
	<g>
		
			<ellipse transform="matrix(0.7592 -0.6509 0.6509 0.7592 -53.6344 351.5108)" fill="#4EDADD" cx="448.2" cy="248.2" rx="6.7" ry="10"/>
		<g>
			<path d="M452.2,244.9c1.9,2.4,4.8,8.2,0.8,10.2c-3.1,1.5-7-1.4-8.9-3.6c-1.9-2.2-4.6-7.8-1.2-10
				C446.1,239.5,450.2,242.8,452.2,244.9c1.3,1.4,3.4-0.7,2.1-2.1c-3.1-3.4-9.2-7-13.6-3.4c-4.4,3.7-1.9,10.6,1.3,14.2
				c3,3.5,9.1,6.9,13.4,3.5c4.7-3.7,1.9-10.6-1.1-14.3C453.1,241.3,451,243.4,452.2,244.9z"/>
		</g>
	</g>
	<g>
		<circle fill="#E07E58" cx="439.3" cy="237.1" r="7.9"/>
		<g>
			<path d="M446.1,237.1c-0.5,8.6-13.4,8.7-13.4,0C432.6,228.5,445.6,228.5,446.1,237.1c0.1,1.6,2.6,1.6,2.5,0c-0.3-5-4-9.2-9.2-9.2
				c-5,0-9.2,4.2-9.2,9.2c0,4.8,3.9,8.9,8.7,9.2c5.4,0.2,9.3-4,9.6-9.2C448.6,235.5,446.1,235.5,446.1,237.1z"/>
		</g>
	</g>
</g>
<g id="Layer_2">
	<g>
		<g id="ENFJ_4_1_">
			<g>
				<polygon fill="#4EDADD" points="256.8,135.1 250,102.1 267.3,135.1 				"/>
				<g>
					<path d="M258.2,134.7c-2.3-11-4.5-22-6.8-33c-0.9,0.4-1.8,0.8-2.7,1.2c5.8,11,11.6,22,17.3,33c0.4-0.8,0.9-1.5,1.3-2.3
						c-3.5,0-7,0-10.6,0c-1.9,0-1.9,3,0,3c3.5,0,7,0,10.6,0c1.2,0,1.8-1.3,1.3-2.3c-5.8-11-11.6-22-17.3-33
						c-0.8-1.6-3.1-0.4-2.7,1.2c2.3,11,4.5,22,6.8,33C255.7,137.4,258.6,136.6,258.2,134.7z"/>
				</g>
			</g>
			<g>
				<polygon fill="#92FFFF" points="250,168.1 256.8,135.1 267.3,135.1 				"/>
				<g>
					<path d="M251.4,168.5c2.3-11,4.5-22,6.8-33c-0.5,0.4-1,0.7-1.4,1.1c3.5,0,7,0,10.6,0c-0.4-0.8-0.9-1.5-1.3-2.3
						c-5.8,11-11.6,22-17.3,33c-0.9,1.7,1.7,3.2,2.6,1.5c5.8-11,11.6-22,17.3-33c0.5-1-0.1-2.3-1.3-2.3c-3.5,0-7,0-10.6,0
						c-0.6,0-1.3,0.5-1.4,1.1c-2.3,11-4.5,22-6.8,33C248.2,169.6,251,170.4,251.4,168.5z"/>
				</g>
			</g>
			<g>
				<polygon fill="#F789A3" points="232.7,135.1 250,102.1 256.8,135.1 				"/>
				<g>
					<path d="M234,135.8c5.8-11,11.6-22,17.3-33c-0.9-0.1-1.8-0.2-2.7-0.4c2.2,11,4.5,22,6.7,33c0.5-0.6,1-1.3,1.4-1.9
						c-8,0-16,0-24.1,0c-1.9,0-1.9,3,0,3c8,0,16,0,24.1,0c1,0,1.6-1,1.4-1.9c-2.2-11-4.5-22-6.7-33c-0.3-1.3-2.2-1.5-2.7-0.4
						c-5.8,11-11.6,22-17.3,33C230.5,136,233.1,137.6,234,135.8z"/>
				</g>
			</g>
			<g>
				<polygon fill="#FFCCDD" points="250,168.1 232.7,135.1 256.8,135.1 				"/>
				<g>
					<path d="M251.3,167.3c-5.8-11-11.6-22-17.3-33c-0.4,0.8-0.9,1.5-1.3,2.3c8,0,16,0,24.1,0c-0.5-0.6-1-1.3-1.4-1.9
						c-2.2,11-4.5,22-6.7,33c-0.4,1.9,2.5,2.7,2.9,0.8c2.2-11,4.5-22,6.7-33c0.2-0.9-0.4-1.9-1.4-1.9c-8,0-16,0-24.1,0
						c-1.2,0-1.8,1.3-1.3,2.3c5.8,11,11.6,22,17.3,33C249.6,170.6,252.2,169,251.3,167.3z"/>
				</g>
			</g>
		</g>
	</g>
</g>
</svg>
