<?xml version="1.0" encoding="utf-8"?>
<!-- Generator: Adobe Illustrator 18.1.1, SVG Export Plug-In . SVG Version: 6.00 Build 0)  -->
<svg version="1.1" xmlns="http://www.w3.org/2000/svg" xmlns:xlink="http://www.w3.org/1999/xlink" x="0px" y="0px"
	 viewBox="0 0 500 500" enable-background="new 0 0 500 500" xml:space="preserve">
<g id="Layer_1">
	<g>
		<path fill="#CFB6FF" d="M132,332.9c-28,4.6-50.6-12.9-56.2-28.3c-5.6-15.4-7.2-9.7-21.2-19.4s-3.5-17.8-5.6-35.6
			c-2.1-17.8-35.4-20.9-35.4-20.9c40.6-7.7,48.3,3.7,84.7,3.1c36.4-0.6,39.6-6.2,39.6-6.2L132,332.9z"/>
		<g>
			<path d="M131.4,330.5c-15.8,2.5-32.6-2.4-44.2-13.6c-2.4-2.3-4.4-4.6-6.1-7.3c-0.8-1.2-1.5-2.5-2.1-3.9c-0.6-1.2-1.1-2.8-1.8-4.4
				c-1.1-2.8-2.3-5.5-4.2-7.8c-1.3-1.5-2.9-2.7-4.7-3.6c-5.4-2.7-11.4-5.1-15.6-9.6c-0.3-0.3-0.5-0.5-0.7-0.8
				c-0.2-0.3-0.1-0.1-0.4-0.5c-0.4-0.6-0.7-1.2-1-1.8c-0.2-0.4,0.1,0.3,0,0c-0.1-0.1-0.1-0.3-0.2-0.4c-0.1-0.3-0.2-0.6-0.3-0.9
				c-0.1-0.3-0.1-0.6-0.2-0.9c0-0.1-0.1-0.5,0-0.2c0,0.3,0-0.3,0-0.3c-0.2-3,0.2-5,0.7-7.8c0.6-3.4,1.2-6.9,1.3-10.3
				c0.1-3.4,0.1-7.2-1.1-10.5c-1.9-5.3-6.2-9.2-11.1-11.9c-7.7-4.4-16.7-6.6-25.4-7.5c-0.2,0-0.3,0-0.5-0.1c0.2,1.6,0.4,3.3,0.7,4.9
				c11.3-2.1,22.8-3.2,34.3-2.2c8.4,0.8,17.1,2.7,25.7,3.9c11.9,1.6,23.9,1.7,35.9,1c7.8-0.4,15.9-1,23.3-3.3
				c2.1-0.6,5.3-1.6,6.5-3.7c-1.6-0.4-3.1-0.8-4.7-1.3c-0.2,3.6-0.4,7.1-0.6,10.7c-0.5,8.5-0.9,17.1-1.4,25.6
				c-0.6,10.3-1.1,20.7-1.7,31c-0.5,8.9-1,17.8-1.5,26.7c-0.2,4.3-0.7,8.7-0.7,13c0,0.1,0,0.1,0,0.2c-0.2,3.2,4.8,3.2,5,0
				c0.2-3.6,0.4-7.1,0.6-10.7c0.5-8.5,0.9-17.1,1.4-25.6c0.6-10.3,1.1-20.7,1.7-31c0.5-8.9,1-17.8,1.5-26.7c0.2-2.9,0.3-5.9,0.5-8.8
				c0.1-1.4,0.2-2.8,0.2-4.2c0-0.1,0-0.1,0-0.2c0.1-2.5-3.5-3.3-4.7-1.3c-0.2,0.3,0.6-0.7,0.2-0.3c-0.1,0.1-0.1,0.1-0.2,0.2
				c-0.4,0.3,0.7-0.4,0.1-0.1c-0.4,0.2-0.8,0.5-1.2,0.7c-0.1,0.1-0.3,0.1-0.4,0.2c-0.5,0.2,0.7-0.2,0,0c-0.4,0.1-0.8,0.3-1.2,0.4
				c-6.8,2.3-13.5,2.8-20.6,3.3c-11.9,0.8-23.8,0.9-35.7-0.6c-8.5-1.1-17.3-3-25.9-4c-12.7-1.4-25.4-0.2-37.9,2.1
				c-1.2,0.2-2,1.6-1.8,2.7c0.2,1.3,1.2,2,2.5,2.2c0.2,0,0.4,0,0.5,0.1c0.2,0,0.4,0,0.6,0.1c0.1,0,0.2,0,0.4,0c-1-0.1-0.3,0,0,0
				c1.7,0.3,3.4,0.5,5.1,0.9c2.4,0.5,4.8,1.1,7.1,1.8c2.6,0.8,5,1.7,7.2,2.7c1.2,0.6,2.4,1.2,3.5,1.9c0.5,0.3,1.1,0.7,1.6,1
				c0.3,0.2,0.5,0.4,0.8,0.6c0.4,0.3,0.1,0.1,0.1,0c0.2,0.1,0.4,0.3,0.5,0.4c1,0.8,1.9,1.7,2.8,2.7c0.1,0.1,0.2,0.2,0.3,0.3
				c-0.1-0.1-0.3-0.4,0,0c0.2,0.2,0.3,0.5,0.5,0.7c0.3,0.5,0.7,1.1,0.9,1.6c0.1,0.1,0.1,0.3,0.2,0.4c0.2,0.4-0.1-0.3,0,0
				c0.1,0.3,0.2,0.6,0.3,0.8c0.2,0.6,0.4,1.2,0.5,1.9c0.1,0.5,0.2,1.3,0.2,2.4c0.1,1,0.1,2.1,0.1,3.1c0,3.5-0.5,6.6-1.1,10
				c-1,5.7-2.1,11.8,1.6,16.8c2.3,3.2,5.5,5.5,8.8,7.5c2.5,1.6,5.1,2.9,7.8,4.2c0.9,0.4,1.8,0.8,2.7,1.3c0.4,0.2,0.7,0.4,1.1,0.7
				c0.2,0.1,0.7,0.5,0.1,0.1c0.2,0.2,0.4,0.3,0.5,0.5c0.3,0.3,0.6,0.6,0.9,1c0.1,0.1,0.2,0.2,0.2,0.3c0.2,0.3-0.3-0.4-0.1-0.1
				c0.2,0.2,0.3,0.5,0.5,0.7c0.8,1.2,1.4,2.4,1.9,3.7c1.3,2.9,2.3,6.1,3.9,9c1.6,2.9,3.7,5.6,5.9,8c11,12,27.7,18.4,43.9,17.7
				c2.4-0.1,4.8-0.4,7.1-0.8c1.3-0.2,2.1-1.9,1.7-3.1C134.1,330.9,132.7,330.3,131.4,330.5z"/>
		</g>
	</g>
	<g>
		<g>
			<path fill="#FFFFFF" d="M159.1,227.6l-42.5,24l-22.1,12.5c-9.2,5.2-13.5,16.1-10.3,26.2l7.7,24.2l11.4,35.7
				c2.1,6.5,7.1,11.4,13.1,13.5c4.3,1.5,9,1.8,13.7,0.3c11.1-3.6,17.4-15.6,13.8-26.7l-14.1-44.2l50.3-28.4
				c4.6-2.6,7.8-6.6,9.5-11.3c2-5.6,1.7-12.1-1.4-17.7C182.3,225.5,169.3,221.9,159.1,227.6z"/>
			<g>
				<path d="M157.8,225.5c-6.3,3.6-12.7,7.1-19,10.7c-7.6,4.3-15.3,8.6-22.9,12.9c-6.4,3.6-12.8,7.2-19.2,10.8
					c-1.1,0.6-2.3,1.3-3.4,1.9c-3.3,1.9-6,4.4-8.2,7.5c-4.4,6.2-5.5,14.4-3.3,21.7c2.5,7.9,5,15.8,7.5,23.7c2.2,7,4.5,14,6.7,21.1
					c1.4,4.3,2.8,8.6,4.1,13c1.6,4.9,3.8,9.5,7.8,12.9c7.4,6.3,18,7.6,26.6,3.1c7.2-3.8,11.9-11.2,12.6-19.2
					c0.4-4.1-0.7-7.9-1.9-11.7c-1.3-4.2-2.7-8.3-4-12.5c-2.9-9.1-5.8-18.2-8.7-27.3c-0.2-0.6-0.4-1.1-0.5-1.7
					c-0.4,0.9-0.8,1.9-1.1,2.8c3.7-2.1,7.5-4.2,11.2-6.3c7.4-4.2,14.8-8.3,22.1-12.5c5.3-3,10.6-6,15.9-9c3.2-1.8,6-4,8.2-6.9
					c4.4-5.8,5.9-13.7,4-20.7c-3.6-12.8-17.6-20.4-30.3-16.2C160.7,224,159.2,224.7,157.8,225.5c-2.8,1.6-0.3,5.9,2.5,4.3
					c9.9-5.5,23-0.9,26.8,9.9c2.1,6.1,1.1,13-2.9,18.1c-1.8,2.3-4.1,4-6.7,5.4c-5.1,2.9-10.1,5.7-15.2,8.6c-7.1,4-14.2,8-21.3,12
					c-4.2,2.3-8.5,4.5-12.5,7.1c-0.1,0-0.1,0.1-0.2,0.1c-0.9,0.5-1.5,1.8-1.1,2.8c2.2,6.8,4.3,13.6,6.5,20.4
					c2.5,7.8,5,15.6,7.5,23.4c1.7,5.5,1.1,11.3-1.9,16.2c-4.4,6.9-13,10.2-20.9,8c-6.2-1.8-10.9-6.5-12.9-12.6
					c-1-3.2-2.1-6.5-3.1-9.7c-2.7-8.4-5.4-16.9-8-25.3c-2.3-7.1-4.5-14.2-6.8-21.4c-0.3-1.1-0.7-2.1-1-3.2c-1-3.3-1.3-6.9-0.5-10.3
					c1.3-6,5.1-10.5,10.4-13.5c7.1-4,14.2-8,21.3-12c5.8-3.3,11.5-6.5,17.3-9.8c8-4.5,15.9-9,23.9-13.5c0.5-0.3,0.9-0.5,1.4-0.8
					C163.1,228.2,160.6,223.9,157.8,225.5z"/>
			</g>
		</g>
		<g>
			<path fill="#A185D6" d="M163,221.2l-46.4,25.5l-23.2,12.8c-9.6,5.4-15.6,18.3-12.2,28.8l7.3,26.8l10.1,28.3l44.9-15.5l-10.4-35
				l50.7-30.2c4.8-2.7,8.2-6.9,9.9-11.8c2.1-5.9,1.8-12.7-1.5-18.5C186.4,221.6,173.7,215.2,163,221.2z"/>
			<g>
				<path d="M161.8,219c-9.3,5.1-18.6,10.2-28,15.4c-7.6,4.2-15.2,8.3-22.7,12.5c-5.8,3.2-11.6,6.4-17.4,9.6
					c-2.7,1.5-5.2,3.2-7.4,5.4c-3.8,3.9-6.6,8.9-7.8,14.2c-1,4.4-0.8,8.7,0.4,13.1c0.6,2.1,1.2,4.3,1.8,6.5
					c1.7,6.3,3.4,12.5,5.1,18.8c1,3.5,2.3,6.8,3.6,10.2c2.2,6,4.3,12.1,6.5,18.1c0.1,0.4,0.3,0.8,0.4,1.2c0.4,1.2,1.7,2.2,3.1,1.7
					c5.1-1.7,10.1-3.5,15.2-5.2c8.1-2.8,16.1-5.6,24.2-8.4c1.9-0.6,3.7-1.3,5.6-1.9c1.3-0.4,2.2-1.7,1.7-3.1
					c-3-10.2-6.1-20.4-9.1-30.6c-0.4-1.5-0.9-2.9-1.3-4.4c-0.4,0.9-0.8,1.9-1.1,2.8c3.7-2.2,7.5-4.5,11.2-6.7
					c7.4-4.4,14.8-8.8,22.3-13.3c5.4-3.2,10.8-6.4,16.2-9.6c3.1-1.8,5.9-3.9,8.1-6.7c4.7-6,6.5-13.8,4.7-21.3
					c-3-12.8-17.2-23.9-30.6-20.2C164.8,217.5,163.2,218.2,161.8,219c-2.8,1.6-0.3,5.9,2.5,4.3c10.8-6,24,2.9,27.5,13.7
					c2,6.2,0.8,13.4-3.4,18.5c-1.9,2.4-4.3,4-6.9,5.5c-5.1,3.1-10.2,6.1-15.4,9.2c-7.1,4.3-14.3,8.5-21.4,12.8
					c-4.2,2.5-8.5,4.9-12.6,7.5c-0.1,0-0.1,0.1-0.2,0.1c-0.9,0.6-1.5,1.8-1.1,2.8c3,10.2,6.1,20.4,9.1,30.6c0.4,1.5,0.9,2.9,1.3,4.4
					c0.6-1,1.2-2.1,1.7-3.1c-5.1,1.7-10.1,3.5-15.2,5.2c-8.1,2.8-16.1,5.6-24.2,8.4c-1.9,0.6-3.7,1.3-5.6,1.9c1,0.6,2.1,1.2,3.1,1.7
					c-1.7-4.7-3.3-9.3-5-14c-1.7-4.7-3.6-9.4-5.1-14.2c-1.5-4.8-2.6-9.7-4-14.5c-0.9-3.1-1.7-6.2-2.6-9.3c-0.5-1.9-1.2-4-1.5-5.9
					c-1.2-9,4.1-18.7,11.9-23.1c5-2.8,10.1-5.6,15.2-8.4c7.3-4,14.7-8.1,22-12.1c10.5-5.8,21-11.5,31.5-17.3
					c0.2-0.1,0.4-0.2,0.6-0.3C167.1,221.8,164.6,217.5,161.8,219z"/>
			</g>
		</g>
		<g>
			
				<rect x="94.7" y="323.1" transform="matrix(0.9506 -0.3104 0.3104 0.9506 -96.4653 53.393)" fill="#A185D6" width="49.7" height="13.5"/>
			<g>
				<path d="M144.6,326.1c-5.3,1.7-10.6,3.5-15.9,5.2c-8.5,2.8-17,5.5-25.4,8.3c-2,0.6-3.9,1.3-5.9,1.9c1,0.6,2.1,1.2,3.1,1.7
					c-1.4-4.3-2.8-8.5-4.2-12.8c-0.6,1-1.2,2.1-1.7,3.1c5.3-1.7,10.6-3.5,15.9-5.2c8.5-2.8,17-5.5,25.4-8.3c2-0.6,3.9-1.3,5.9-1.9
					c-1-0.6-2.1-1.2-3.1-1.7c1.4,4.3,2.8,8.5,4.2,12.8c1,3,5.8,1.7,4.8-1.3c-1.4-4.3-2.8-8.5-4.2-12.8c-0.4-1.2-1.7-2.2-3.1-1.7
					c-5.3,1.7-10.6,3.5-15.9,5.2c-8.5,2.8-17,5.5-25.4,8.3c-2,0.6-3.9,1.3-5.9,1.9c-1.2,0.4-2.2,1.7-1.7,3.1
					c1.4,4.3,2.8,8.5,4.2,12.8c0.4,1.2,1.7,2.2,3.1,1.7c5.3-1.7,10.6-3.5,15.9-5.2c8.5-2.8,17-5.5,25.4-8.3c2-0.6,3.9-1.3,5.9-1.9
					C149,329.9,147.7,325.1,144.6,326.1z"/>
			</g>
		</g>
	</g>
	<path fill="#FFFFFF" d="M381.1,349.2c-0.2-6-2.6-18-5.4-31.8l-0.1-0.5c-3-14.8-6.6-33.2-6.8-41.2c-0.1-5,0.1-12.2,0.1-19.8v-0.4
		c0-15.6,0.1-37.1-1.4-51.2c-1.2-11.5-5.6-40.7-19.2-62.5c-12.6-20.2-27.9-33.2-47.9-41.4c-18.4-7.4-52.1-8.3-53-8.3
		c-8.6,0-30.7,0.7-49.1,8.1c-20.1,8.1-35.3,21.3-47.9,41.5c-13.6,21.8-17.9,51-19.1,62.5c-1.5,14.1-1.4,35.5-1.2,51.2l0,3.6
		c0,6.3,0,12.3-0.1,16.6c-0.2,8.1-3.9,26.5-6.9,41.3l-0.1,0.6c-2.7,13.8-5.1,25.7-5.4,31.7c-0.6,15.4,3.8,25.7,14.9,35.8
		c7.1,6.4,14,9.5,21.7,9.5c4.1,0,7.8-0.8,11.9-1.8c1.1-0.3,2.3-0.6,3.5-1.1c4,2.2,11.7,5.6,21.7,5.6c6.5,0,14.1-1.4,22.4-5.4
		c4.8,3.9,9.7,7.5,9.7,7.5c12.9,7.3,24,8.8,25.6,8.8h0.4c1.6,0,12.7-0.9,26.1-8.8c0,0,4.3-3.1,8.8-6.7c7.7,3.4,14.7,4.6,20.8,4.6
		c10.9,0,19-3.9,22.7-6.1c1.8,0.7,3.3,1.3,4.9,1.7c4,1,7.7,1.8,11.8,1.8c7.8,0,14.4-2.9,21.6-9.5C377.4,375,381.7,364.6,381.1,349.2
		z"/>
	<g>
		<path fill="#FCEEFF" d="M381.7,345.5c-87.1,23.3-174.7,23.4-262.7,0c17-48.5,13-111,13-111c79.4,23.4,158.4,23.3,237,0
			C369,234.5,360.8,318,381.7,345.5z"/>
	</g>
	<path fill="#C8C8C8" d="M285.5,386.9c0,0,8-6.1,16.8-7c8.8-1,23.8,5.5,23.8,5.5s-4.9,10-14.2,9.8
		C302.5,394.9,285.5,386.9,285.5,386.9z"/>
	<path fill="#C8C8C8" d="M170.6,386.9c0,0,8-6.1,16.8-7s23.8,5.5,23.8,5.5s-4.9,10-14.2,9.8S170.6,386.9,170.6,386.9z"/>
	<path d="M383.9,349.4c-0.2-6.1-2.7-18.4-5.5-32.5l-0.1-0.5c-3-15.1-6.5-33.9-6.7-42.1c-0.1-5.1,0.4-12.5,0.4-20.3v-0.4
		c0-16-0.1-37.9-1.7-52.2c-1.2-11.8-5.8-41.6-19.7-63.8c-12.9-20.6-28.5-33.9-49-42.2c-18.8-7.6-53.2-8.4-54.2-8.4
		c-8.8,0-31.3,0.7-50.1,8.3c-20.5,8.3-36,21.7-48.9,42.3c-13.9,22.2-18.3,52.1-19.5,63.8c-1.5,14.4-1.4,36.3-1.3,52.3l0,3.7
		c0,6.5,0,12.5-0.1,16.9c-0.2,8.3-4,27-7,42.1l-0.2,0.6c-2.8,14.1-5.2,26.3-5.5,32.4c-0.6,15.7,3.8,26.3,15.2,36.6
		c7.3,6.6,14.3,9.7,22.1,9.7c4.2,0,8-0.8,12.1-1.9c1.1-0.3,2.3-0.7,3.5-1.1c4.1,2.3,11.9,5.7,22.2,5.7c6.7,0,14.4-1.4,22.9-5.5
		c4.9,4,9.9,7.4,10,7.4c13.2,7.5,24.5,8.7,26.2,8.7h0.4c1.7,0,13-0.7,26.7-8.7c0,0,4.4-3.1,8.9-6.7c7.8,3.5,15,4.8,21.3,4.8
		c11.2,0,19.4-4,23.2-6.2c1.8,0.7,3.4,1.3,5,1.7c4.1,1,7.9,1.9,12.1,1.9c7.9,0,14.7-3,22.1-9.6C380.1,375.7,384.5,365.1,383.9,349.4
		z M176.6,388.9c6.1-2.6,13.6-5.5,20.1-5.5c4.4,0,7.6,1.3,10.4,4.1l0.2,0.2C194.1,393.1,183.3,391.4,176.6,388.9z M291.1,388.4
		c0.3-0.3,0.6-0.5,0.8-0.8c2.8-2.8,6-4.2,10.4-4.2c6.1,0,13,2.5,18.9,5C314.7,390.9,304.1,393.2,291.1,388.4z M363.8,380.6
		c-6,5.4-11.1,7.8-17.2,7.8c-3.4,0-6.6-0.7-10.4-1.6c-2-0.5-4.5-1.6-7.7-3l-0.5-0.2c-7-3.2-16.7-7.4-25.8-7.4
		c-6.3,0-11.3,2.1-15.6,6.3c-11,11.2-21.9,15.7-29.1,17.5c-0.1,0-7.1,1.9-15.2-0.3c-8.2-2.3-19.2-6.1-30.1-17.2
		c-4.1-4.2-9.2-6.3-15.6-6.3c-9,0-18.6,4.2-25.9,7.4l-0.3,0.1c-3.3,1.4-5.8,2.6-7.9,3.1c-3.8,0.9-7,1.6-10.4,1.6
		c-6,0-11.3-2.4-17.2-7.8c-9.8-8.9-13.3-17.3-12.8-30.9c0.2-5.5,2.6-17.4,5.4-31.2l0.1-0.6c3.2-16.1,6.9-34.4,7.2-43.4
		c0.1-4.5,0.1-10.6,0.1-17.1l0-3.7c-0.1-15.8-0.3-37.5,1.2-51.4c1.2-11.3,5.4-39.8,18.5-60.7c12-19.3,26.5-31.8,45.4-39.5
		c17.6-7.1,39-8.2,47.4-8.2c0.8,0,33.8,0.8,51.4,7.9c19,7.7,33.4,20.4,45.5,39.6c13.1,21,17.8,49.5,19,60.8
		c1.5,14,1.8,35.7,1.8,51.5v0.4c0,7.8-0.6,15.2-0.5,20.4c0.2,8.9,3.7,27.2,6.9,43.4l0,0.5c2.8,13.8,5.1,25.8,5.3,31.3
		C377.2,363.3,373.7,371.7,363.8,380.6z"/>
	<path d="M324.2,191.9c0,10.6-8.6,19.1-19.1,19.1c-10.6,0-19.1-8.6-19.1-19.1c0-0.9,0.1-1.8,0.2-2.6c1.2,0.8,2.6,1.3,4.1,1.3
		c4,0,7.2-3.2,7.2-7.2c0-2.9-1.7-5.4-4.1-6.5c3.2-2.5,7.3-4,11.7-4C315.6,172.8,324.2,181.4,324.2,191.9z"/>
	<path d="M214.1,191.9c0,10.6-8.6,19.1-19.1,19.1c-10.6,0-19.1-8.6-19.1-19.1c0-0.9,0.1-1.8,0.2-2.6c1.2,0.8,2.6,1.3,4.1,1.3
		c4,0,7.2-3.2,7.2-7.2c0-2.9-1.7-5.4-4.1-6.5c3.2-2.5,7.3-4,11.7-4C205.5,172.8,214.1,181.4,214.1,191.9z"/>
	
		<ellipse transform="matrix(0.7169 -0.6971 0.6971 0.7169 -112.2272 180.7014)" fill="#F68694" cx="166.4" cy="228.6" rx="7.4" ry="3.4"/>
	
		<ellipse transform="matrix(0.7169 -0.6971 0.6971 0.7169 -109.0657 190.8302)" fill="#F68694" cx="180.5" cy="229.7" rx="7.4" ry="3.4"/>
	
		<ellipse transform="matrix(0.7169 -0.6971 0.6971 0.7169 -105.0878 200.6274)" fill="#F68694" cx="194.5" cy="229.7" rx="7.4" ry="3.4"/>
	
		<ellipse transform="matrix(-0.7169 -0.6971 0.6971 -0.7169 413.1115 627.1812)" fill="#F68694" cx="333.9" cy="229.7" rx="7.4" ry="3.4"/>
	
		<ellipse transform="matrix(-0.7169 -0.6971 0.6971 -0.7169 388.1657 619.3947)" fill="#F68694" cx="319.8" cy="230.9" rx="7.4" ry="3.4"/>
	
		<ellipse transform="matrix(-0.7169 -0.6971 0.6971 -0.7169 364.0363 609.5975)" fill="#F68694" cx="305.8" cy="230.9" rx="7.4" ry="3.4"/>
	<g>
		<g>
			<path d="M173.8,162.3c5.8-5.2,12.7-9.8,20.7-9.8c8.1,0,15,4.5,20.7,9.8c2.4,2.2,5.9-1.4,3.5-3.5c-6.8-6.1-14.8-11.2-24.3-11.2
				c-9.4,0-17.5,5.1-24.3,11.2C167.8,160.9,171.4,164.4,173.8,162.3L173.8,162.3z"/>
		</g>
	</g>
	<g>
		<g>
			<path d="M275.6,171c1.1,4.9,4.6,6,9,5.9c5.5-0.1,11-0.1,16.6-0.1c10.2,0,20.4,0.1,30.7,0.1c3.2,0,3.2-5,0-5
				c-8.5-0.1-17-0.1-25.5-0.1c-5.7,0-11.3,0-17,0c-2.7,0-8.2,1.3-8.9-2.2C279.7,166.5,274.9,167.9,275.6,171L275.6,171z"/>
		</g>
	</g>
	<g>
		<g>
			<path d="M131.3,236.9c78.2,22.8,160.2,22.9,238.3,0c3.1-0.9,1.8-5.7-1.3-4.8c-77.3,22.7-158.3,22.6-235.7,0
				C129.6,231.2,128.2,236,131.3,236.9L131.3,236.9z"/>
		</g>
	</g>
	<g>
		<g>
			<path d="M271,252c0,31.8,0,63.7,0,95.5c0,4.5,0,9,0,13.5c0,3.2,5,3.2,5,0c0-31.8,0-63.7,0-95.5c0-4.5,0-9,0-13.5
				C276,248.8,271,248.8,271,252L271,252z"/>
		</g>
	</g>
	<g>
		<g>
			<path d="M118.3,347.9c66.8,17.6,136.4,22.2,204.8,12.2c20-2.9,39.7-7.1,59.2-12.2c3.1-0.8,1.8-5.6-1.3-4.8
				c-66.4,17.6-135.6,22.1-203.6,12c-19.5-2.9-38.7-7-57.7-12C116.6,342.3,115.2,347.1,118.3,347.9L118.3,347.9z"/>
		</g>
	</g>
	<g>
		<g>
			<path d="M230.5,227c4.2-4.5,12.9-3.3,18.5-3.3c5.6,0,11.2,0,16.7,0.1c3.2,0,3.2-5,0-5c-6.8-0.1-13.7-0.2-20.5-0.1
				c-6,0.1-13.7,0-18.2,4.8C224.8,225.8,228.3,229.3,230.5,227L230.5,227z"/>
		</g>
	</g>
	<g>
		<circle fill="#CFB6FF" cx="252" cy="270.4" r="7.9"/>
		<g>
			<path d="M257.4,270.4c0,0.2,0,0.4,0,0.7c0,0.5,0,0.1,0,0c-0.1,0.4-0.1,0.7-0.2,1c-0.1,0.2-0.1,0.4-0.2,0.6c0-0.1,0.2-0.4,0,0
				c-0.2,0.4-0.4,0.7-0.6,1.1c-0.3,0.5,0.2-0.1-0.1,0.1c-0.1,0.1-0.2,0.3-0.3,0.4c-0.1,0.1-0.2,0.2-0.3,0.3
				c-0.1,0.1-0.6,0.5-0.1,0.1c-0.3,0.2-0.6,0.4-0.9,0.6c-0.1,0.1-0.2,0.1-0.4,0.2c-0.3,0.1-0.3,0.1,0,0c-0.1,0-0.2,0.1-0.3,0.1
				c-0.3,0.1-0.7,0.2-1,0.3c-0.1,0-0.6,0.1-0.1,0c-0.2,0-0.4,0-0.5,0c-0.4,0-0.7,0-1.1,0c-0.4,0,0.6,0.1-0.1,0
				c-0.2,0-0.4-0.1-0.6-0.1c-0.2-0.1-0.4-0.1-0.6-0.2c-0.1,0-0.4-0.2,0,0c-0.3-0.2-0.6-0.3-0.9-0.5c-0.1-0.1-0.3-0.2-0.4-0.3
				c-0.3-0.2,0.4,0.4-0.1-0.1c-0.3-0.3-0.6-0.6-0.9-0.9c0.3,0.3,0.1,0.1,0,0c-0.1-0.2-0.2-0.3-0.3-0.5c-0.1-0.1-0.1-0.2-0.2-0.4
				c0-0.1-0.3-0.7-0.1-0.2c-0.1-0.3-0.2-0.7-0.3-1c0-0.1-0.1-0.3-0.1-0.4c-0.1-0.5,0,0.3,0-0.3c0-0.3,0-0.7,0-1c0-0.1,0.1-0.8,0-0.2
				c0-0.1,0.1-0.3,0.1-0.4c0.1-0.3,0.2-0.7,0.3-1c0.2-0.6-0.2,0.4,0.1-0.2c0.1-0.2,0.2-0.4,0.3-0.5c0.1-0.1,0.2-0.3,0.3-0.4
				c0.1-0.1,0.4-0.4,0-0.1c0.2-0.3,0.5-0.5,0.7-0.7c0,0,0.5-0.4,0.2-0.2c-0.3,0.2,0.2-0.2,0.2-0.2c0.3-0.2,0.7-0.4,1.1-0.6
				c-0.1,0-0.5,0.2,0,0c0.2-0.1,0.4-0.1,0.6-0.2c0.1,0,0.3-0.1,0.4-0.1c0,0,0.7-0.1,0.3-0.1c-0.4,0.1,0.3,0,0.3,0c0.2,0,0.4,0,0.6,0
				c0.2,0,0.4,0,0.6,0c0.6,0-0.3-0.1,0.2,0c0.4,0.1,0.8,0.2,1.2,0.3c0.6,0.2-0.2-0.2,0.1,0c0.2,0.1,0.4,0.2,0.6,0.3
				c0.1,0.1,0.2,0.1,0.4,0.2c0.1,0.1,0.2,0.2,0.3,0.2c-0.2-0.2-0.2-0.2,0,0c0.2,0.2,0.5,0.5,0.7,0.7c0.5,0.5-0.2-0.4,0.1,0.1
				c0.1,0.2,0.2,0.3,0.3,0.5c0.1,0.2,0.2,0.4,0.3,0.5c0.3,0.5-0.1-0.4,0.1,0.2c0.1,0.4,0.2,0.8,0.3,1.2c0,0.1,0.1,0.5,0,0
				C257.4,269.9,257.4,270.2,257.4,270.4c0,1.3,1.1,2.6,2.5,2.5c1.3-0.1,2.5-1.1,2.5-2.5c-0.1-4.4-2.8-8.3-6.9-9.8
				c-3.9-1.5-8.8-0.2-11.4,3.1c-2.8,3.4-3.3,8.2-1,12.1c2.3,3.8,6.7,5.7,11.1,4.9c4.9-0.9,8.3-5.4,8.4-10.2c0-1.3-1.2-2.6-2.5-2.5
				C258.5,268,257.4,269,257.4,270.4z"/>
		</g>
	</g>
	<g>
		<circle fill="#CFB6FF" cx="252" cy="300.8" r="7.9"/>
		<g>
			<path d="M257.4,300.8c0,0.2,0,0.4,0,0.7c0,0.5,0,0.1,0,0c-0.1,0.4-0.1,0.7-0.2,1c-0.1,0.2-0.1,0.4-0.2,0.6c0-0.1,0.2-0.4,0,0
				c-0.2,0.4-0.4,0.7-0.6,1.1c-0.3,0.5,0.2-0.1-0.1,0.1c-0.1,0.1-0.2,0.3-0.3,0.4c-0.1,0.1-0.2,0.2-0.3,0.3
				c-0.1,0.1-0.6,0.5-0.1,0.1c-0.3,0.2-0.6,0.4-0.9,0.6c-0.1,0.1-0.2,0.1-0.4,0.2c-0.3,0.1-0.3,0.1,0,0c-0.1,0-0.2,0.1-0.3,0.1
				c-0.3,0.1-0.7,0.2-1,0.3c-0.1,0-0.6,0.1-0.1,0c-0.2,0-0.4,0-0.5,0c-0.4,0-0.7,0-1.1,0c-0.4,0,0.6,0.1-0.1,0
				c-0.2,0-0.4-0.1-0.6-0.1c-0.2-0.1-0.4-0.1-0.6-0.2c-0.1,0-0.4-0.2,0,0c-0.3-0.2-0.6-0.3-0.9-0.5c-0.1-0.1-0.3-0.2-0.4-0.3
				c-0.3-0.2,0.4,0.4-0.1-0.1c-0.3-0.3-0.6-0.6-0.9-0.9c0.3,0.3,0.1,0.1,0,0c-0.1-0.2-0.2-0.3-0.3-0.5c-0.1-0.1-0.1-0.2-0.2-0.4
				c0-0.1-0.3-0.7-0.1-0.2c-0.1-0.3-0.2-0.7-0.3-1c0-0.1-0.1-0.3-0.1-0.4c-0.1-0.5,0,0.3,0-0.3c0-0.3,0-0.7,0-1c0-0.1,0.1-0.8,0-0.2
				c0-0.1,0.1-0.3,0.1-0.4c0.1-0.3,0.2-0.7,0.3-1c0.2-0.6-0.2,0.4,0.1-0.2c0.1-0.2,0.2-0.4,0.3-0.5c0.1-0.1,0.2-0.3,0.3-0.4
				c0.1-0.1,0.4-0.4,0-0.1c0.2-0.3,0.5-0.5,0.7-0.7c0,0,0.5-0.4,0.2-0.2c-0.3,0.2,0.2-0.2,0.2-0.2c0.3-0.2,0.7-0.4,1.1-0.6
				c-0.1,0-0.5,0.2,0,0c0.2-0.1,0.4-0.1,0.6-0.2c0.1,0,0.3-0.1,0.4-0.1c0,0,0.7-0.1,0.3-0.1c-0.4,0.1,0.3,0,0.3,0c0.2,0,0.4,0,0.6,0
				c0.2,0,0.4,0,0.6,0c0.6,0-0.3-0.1,0.2,0c0.4,0.1,0.8,0.2,1.2,0.3c0.6,0.2-0.2-0.2,0.1,0c0.2,0.1,0.4,0.2,0.6,0.3
				c0.1,0.1,0.2,0.1,0.4,0.2c0.1,0.1,0.2,0.2,0.3,0.2c-0.2-0.2-0.2-0.2,0,0c0.2,0.2,0.5,0.5,0.7,0.7c0.5,0.5-0.2-0.4,0.1,0.1
				c0.1,0.2,0.2,0.3,0.3,0.5c0.1,0.2,0.2,0.4,0.3,0.5c0.3,0.5-0.1-0.4,0.1,0.2c0.1,0.4,0.2,0.8,0.3,1.2c0,0.1,0.1,0.5,0,0
				C257.4,300.3,257.4,300.5,257.4,300.8c0,1.3,1.1,2.6,2.5,2.5c1.3-0.1,2.5-1.1,2.5-2.5c-0.1-4.4-2.8-8.3-6.9-9.8
				c-3.9-1.5-8.8-0.2-11.4,3.1c-2.8,3.4-3.3,8.2-1,12.1c2.3,3.8,6.7,5.7,11.1,4.9c4.9-0.9,8.3-5.4,8.4-10.2c0-1.3-1.2-2.6-2.5-2.5
				C258.5,298.4,257.4,299.4,257.4,300.8z"/>
		</g>
	</g>
	<g>
		<circle fill="#CFB6FF" cx="252" cy="331.2" r="7.9"/>
		<g>
			<path d="M257.4,331.2c0,0.2,0,0.4,0,0.7c0,0.5,0,0.1,0,0c-0.1,0.4-0.1,0.7-0.2,1c-0.1,0.2-0.1,0.4-0.2,0.6c0-0.1,0.2-0.4,0,0
				c-0.2,0.4-0.4,0.7-0.6,1.1c-0.3,0.5,0.2-0.1-0.1,0.1c-0.1,0.1-0.2,0.3-0.3,0.4c-0.1,0.1-0.2,0.2-0.3,0.3
				c-0.1,0.1-0.6,0.5-0.1,0.1c-0.3,0.2-0.6,0.4-0.9,0.6c-0.1,0.1-0.2,0.1-0.4,0.2c-0.3,0.1-0.3,0.1,0,0c-0.1,0-0.2,0.1-0.3,0.1
				c-0.3,0.1-0.7,0.2-1,0.3c-0.1,0-0.6,0.1-0.1,0c-0.2,0-0.4,0-0.5,0c-0.4,0-0.7,0-1.1,0c-0.4,0,0.6,0.1-0.1,0
				c-0.2,0-0.4-0.1-0.6-0.1c-0.2-0.1-0.4-0.1-0.6-0.2c-0.1,0-0.4-0.2,0,0c-0.3-0.2-0.6-0.3-0.9-0.5c-0.1-0.1-0.3-0.2-0.4-0.3
				c-0.3-0.2,0.4,0.4-0.1-0.1c-0.3-0.3-0.6-0.6-0.9-0.9c0.3,0.3,0.1,0.1,0,0c-0.1-0.2-0.2-0.3-0.3-0.5c-0.1-0.1-0.1-0.2-0.2-0.4
				c0-0.1-0.3-0.7-0.1-0.2c-0.1-0.3-0.2-0.7-0.3-1c0-0.1-0.1-0.3-0.1-0.4c-0.1-0.5,0,0.3,0-0.3c0-0.3,0-0.7,0-1c0-0.1,0.1-0.8,0-0.2
				c0-0.1,0.1-0.3,0.1-0.4c0.1-0.3,0.2-0.7,0.3-1c0.2-0.6-0.2,0.4,0.1-0.2c0.1-0.2,0.2-0.4,0.3-0.5c0.1-0.1,0.2-0.3,0.3-0.4
				c0.1-0.1,0.4-0.4,0-0.1c0.2-0.3,0.5-0.5,0.7-0.7c0,0,0.5-0.4,0.2-0.2c-0.3,0.2,0.2-0.2,0.2-0.2c0.3-0.2,0.7-0.4,1.1-0.6
				c-0.1,0-0.5,0.2,0,0c0.2-0.1,0.4-0.1,0.6-0.2c0.1,0,0.3-0.1,0.4-0.1c0,0,0.7-0.1,0.3-0.1c-0.4,0.1,0.3,0,0.3,0c0.2,0,0.4,0,0.6,0
				c0.2,0,0.4,0,0.6,0c0.6,0-0.3-0.1,0.2,0c0.4,0.1,0.8,0.2,1.2,0.3c0.6,0.2-0.2-0.2,0.1,0c0.2,0.1,0.4,0.2,0.6,0.3
				c0.1,0.1,0.2,0.1,0.4,0.2c0.1,0.1,0.2,0.2,0.3,0.2c-0.2-0.2-0.2-0.2,0,0c0.2,0.2,0.5,0.5,0.7,0.7c0.5,0.5-0.2-0.4,0.1,0.1
				c0.1,0.2,0.2,0.3,0.3,0.5c0.1,0.2,0.2,0.4,0.3,0.5c0.3,0.5-0.1-0.4,0.1,0.2c0.1,0.4,0.2,0.8,0.3,1.2c0,0.1,0.1,0.5,0,0
				C257.4,330.6,257.4,330.9,257.4,331.2c0,1.3,1.1,2.6,2.5,2.5c1.3-0.1,2.5-1.1,2.5-2.5c-0.1-4.4-2.8-8.3-6.9-9.8
				c-3.9-1.5-8.8-0.2-11.4,3.1c-2.8,3.4-3.3,8.2-1,12.1c2.3,3.8,6.7,5.7,11.1,4.9c4.9-0.9,8.3-5.4,8.4-10.2c0-1.3-1.2-2.6-2.5-2.5
				C258.5,328.8,257.4,329.8,257.4,331.2z"/>
		</g>
	</g>
	<g>
		<g>
			
				<rect x="215.5" y="277.2" transform="matrix(0.8846 -0.4663 0.4663 0.8846 -104.8748 142.5101)" fill="#C30000" width="40" height="12"/>
			<g>
				<path d="M255.2,277.9c-10.3,5.4-20.6,10.9-31,16.3c-1.5,0.8-2.9,1.6-4.4,2.3c0.7,0.2,1.4,0.4,2.1,0.5c-1.9-3.5-3.7-7.1-5.6-10.6
					c-0.2,0.7-0.4,1.4-0.5,2.1c10.3-5.4,20.6-10.9,31-16.3c1.5-0.8,2.9-1.6,4.4-2.3c-0.7-0.2-1.4-0.4-2.1-0.5
					c1.9,3.5,3.7,7.1,5.6,10.6c0.9,1.7,3.5,0.2,2.6-1.5c-1.9-3.5-3.7-7.1-5.6-10.6c-0.4-0.7-1.4-0.9-2.1-0.5
					c-10.3,5.4-20.6,10.9-31,16.3c-1.5,0.8-2.9,1.6-4.4,2.3c-0.7,0.4-0.9,1.4-0.5,2.1c1.9,3.5,3.7,7.1,5.6,10.6
					c0.4,0.7,1.4,0.9,2.1,0.5c10.3-5.4,20.6-10.9,31-16.3c1.5-0.8,2.9-1.6,4.4-2.3C258.5,279.5,257,277,255.2,277.9z"/>
			</g>
		</g>
		<g>
			<polygon fill="#C30000" points="215.3,218.1 222.2,231.4 200.9,242.4 194,229.1 198.4,226.8 201.7,233 206.1,230.7 202.9,224.5 
				207.3,222.2 210.5,228.4 214.1,226.6 210.9,220.4 			"/>
			<g>
				<path d="M214,218.8c2.3,4.4,4.6,8.9,6.9,13.3c0.2-0.7,0.4-1.4,0.5-2.1c-6.2,3.2-12.4,6.4-18.6,9.6c-0.9,0.5-1.8,0.9-2.7,1.4
					c0.7,0.2,1.4,0.4,2.1,0.5c-2.3-4.4-4.6-8.9-6.9-13.3c-0.2,0.7-0.4,1.4-0.5,2.1c1.5-0.8,3-1.5,4.4-2.3c-0.7-0.2-1.4-0.4-2.1-0.5
					c1.1,2.1,2.1,4.1,3.2,6.2c0.4,0.7,1.4,0.9,2.1,0.5c1.5-0.8,3-1.5,4.4-2.3c0.7-0.4,0.9-1.4,0.5-2.1c-1.1-2.1-2.1-4.1-3.2-6.2
					c-0.2,0.7-0.4,1.4-0.5,2.1c1.5-0.8,3-1.5,4.4-2.3c-0.7-0.2-1.4-0.4-2.1-0.5c1.1,2.1,2.1,4.1,3.2,6.2c0.4,0.7,1.4,0.9,2.1,0.5
					c1.2-0.6,2.4-1.2,3.6-1.8c0.7-0.4,0.9-1.4,0.5-2.1c-1.1-2.1-2.1-4.1-3.2-6.2c-0.2,0.7-0.4,1.4-0.5,2.1c1.5-0.8,3-1.5,4.4-2.3
					c1.7-0.9,0.2-3.5-1.5-2.6c-1.5,0.8-3,1.5-4.4,2.3c-0.7,0.4-0.9,1.4-0.5,2.1c1.1,2.1,2.1,4.1,3.2,6.2c0.2-0.7,0.4-1.4,0.5-2.1
					c-1.2,0.6-2.4,1.2-3.6,1.8c0.7,0.2,1.4,0.4,2.1,0.5c-1.1-2.1-2.1-4.1-3.2-6.2c-0.4-0.7-1.4-0.9-2.1-0.5c-1.5,0.8-3,1.5-4.4,2.3
					c-0.7,0.4-0.9,1.4-0.5,2.1c1.1,2.1,2.1,4.1,3.2,6.2c0.2-0.7,0.4-1.4,0.5-2.1c-1.5,0.8-3,1.5-4.4,2.3c0.7,0.2,1.4,0.4,2.1,0.5
					c-1.1-2.1-2.1-4.1-3.2-6.2c-0.4-0.7-1.4-0.9-2.1-0.5c-1.5,0.8-3,1.5-4.4,2.3c-0.7,0.4-0.9,1.4-0.5,2.1c2.3,4.4,4.6,8.9,6.9,13.3
					c0.4,0.7,1.4,0.9,2.1,0.5c6.2-3.2,12.4-6.4,18.6-9.6c0.9-0.5,1.8-0.9,2.7-1.4c0.7-0.4,0.9-1.4,0.5-2.1
					c-2.3-4.4-4.6-8.9-6.9-13.3C215.7,215.6,213.1,217.1,214,218.8z"/>
			</g>
		</g>
		<g>
			<path fill="#C30000" d="M247.2,270l-28.7,15.1c-1.5-2.9-1.5-6.3-0.2-9.4c0.6-1.4,1.5-2.8,2.6-4l-13.7-28l12.4-6.5l15.2,27.2
				C240.1,263.7,245,265.8,247.2,270z"/>
			<g>
				<path d="M246.5,268.7c-8.4,4.4-16.8,8.8-25.2,13.3c-1.2,0.6-2.4,1.3-3.6,1.9c0.7,0.2,1.4,0.4,2.1,0.5c-2-3.9-0.6-8.4,2.1-11.6
					c0.5-0.5,0.5-1.2,0.2-1.8c-4-8.2-8-16.3-12-24.5c-0.6-1.2-1.1-2.3-1.7-3.5c-0.2,0.7-0.4,1.4-0.5,2.1c4.1-2.2,8.3-4.3,12.4-6.5
					c-0.7-0.2-1.4-0.4-2.1-0.5c4.4,7.9,8.9,15.9,13.3,23.8c0.6,1.1,1.2,2.2,1.9,3.3c0.2,0.4,0.8,0.8,1.3,0.7
					c4.4-0.5,8.9,0.9,11.1,4.9c0.9,1.7,3.5,0.2,2.6-1.5c-2.7-4.9-8.3-7-13.7-6.4c0.4,0.2,0.9,0.5,1.3,0.7
					c-4.4-7.9-8.9-15.9-13.3-23.8c-0.6-1.1-1.2-2.2-1.9-3.3c-0.4-0.7-1.3-0.9-2.1-0.5c-4.1,2.2-8.3,4.3-12.4,6.5
					c-0.8,0.4-0.9,1.4-0.5,2.1c4,8.2,8,16.3,12,24.5c0.6,1.2,1.1,2.3,1.7,3.5c0.1-0.6,0.2-1.2,0.2-1.8c-3.7,4.3-5.2,10-2.6,15.3
					c0.4,0.7,1.4,0.9,2.1,0.5c8.4-4.4,16.8-8.8,25.2-13.3c1.2-0.6,2.4-1.3,3.6-1.9C249.7,270.4,248.2,267.8,246.5,268.7z"/>
			</g>
		</g>
		<g>
			<rect x="200" y="234.8" transform="matrix(0.8879 -0.46 0.46 0.8879 -85.6288 124.1799)" fill="#C30000" width="24" height="6"/>
			<g>
				<path d="M223.3,233.7c-6.2,3.2-12.4,6.4-18.7,9.7c-0.9,0.5-1.8,0.9-2.6,1.4c0.7,0.2,1.4,0.4,2.1,0.5c-0.9-1.8-1.8-3.6-2.8-5.3
					c-0.2,0.7-0.4,1.4-0.5,2.1c6.2-3.2,12.4-6.4,18.7-9.7c0.9-0.5,1.8-0.9,2.6-1.4c-0.7-0.2-1.4-0.4-2.1-0.5
					c0.9,1.8,1.8,3.6,2.8,5.3c0.9,1.7,3.5,0.2,2.6-1.5c-0.9-1.8-1.8-3.6-2.8-5.3c-0.4-0.7-1.4-0.9-2.1-0.5
					c-6.2,3.2-12.4,6.4-18.7,9.7c-0.9,0.5-1.8,0.9-2.6,1.4c-0.7,0.4-0.9,1.4-0.5,2.1c0.9,1.8,1.8,3.6,2.8,5.3
					c0.4,0.7,1.4,0.9,2.1,0.5c6.2-3.2,12.4-6.4,18.7-9.7c0.9-0.5,1.8-0.9,2.6-1.4C226.5,235.4,225,232.8,223.3,233.7z"/>
			</g>
		</g>
	</g>
	<g>
		<g>
			<path fill="#FFFFFF" d="M364.5,274l-39.9,28.1l-20.7,14.6c-8.6,6.1-20.3,5.3-28.1-1.9l-18.5-17.3L229.9,272
				c-5-4.7-7.2-11.2-6.6-17.6c0.4-4.5,2.3-8.9,5.6-12.5c8-8.6,21.5-9,30.1-1l33.9,31.6l47.2-33.3c4.3-3,9.4-4.2,14.3-3.8
				c6,0.6,11.7,3.6,15.4,8.9C376.4,253.9,374.1,267.3,364.5,274z"/>
			<g>
				<path d="M363.2,271.9c-5.7,4-11.3,8-17,12c-7.3,5.1-14.5,10.3-21.8,15.4c-5.5,3.9-11.1,7.8-16.6,11.7c-3.2,2.3-6.5,5-10.2,6.3
					c-6.9,2.4-14.6,0.8-20-4.2c-6-5.5-11.9-11.1-17.8-16.6c-4.9-4.6-9.8-9.1-14.7-13.7c-3.5-3.3-7-6.5-10.5-9.8
					c-2.9-2.7-5.7-5.2-7.4-9c-3.4-7.7-1.1-17,5.5-22.3c5.5-4.4,13.4-5.3,19.8-2.3c2.9,1.4,5.1,3.6,7.5,5.8c3.3,3,6.5,6.1,9.8,9.1
					c6.7,6.3,13.4,12.5,20.2,18.8c0.4,0.4,0.8,0.8,1.2,1.2c0.8,0.7,2.1,1,3,0.4c3.2-2.3,6.4-4.5,9.7-6.8c6.6-4.6,13.1-9.3,19.7-13.9
					c5.2-3.7,10.5-7.4,15.7-11.1c1.5-1.1,3-2.2,4.7-3c5.7-2.9,12.7-2.5,18.2,0.8c9.9,5.9,12,20,4.2,28.6
					C365.3,270.1,364.3,271.1,363.2,271.9c-1.1,0.8-1.6,2.2-0.9,3.4c0.6,1.1,2.3,1.7,3.4,0.9c5.1-3.7,8.8-9.2,9.9-15.4
					c1-6.3-0.3-12.8-4.1-18c-7.7-10.5-22.5-13-33.2-5.5c-4.4,3.1-8.8,6.2-13.2,9.3c-6.9,4.9-13.9,9.8-20.8,14.7
					c-2.8,2-5.6,3.9-8.4,5.9c-1.4,1-3,1.9-4.3,3c-0.1,0.1-0.1,0.1-0.2,0.1c1,0.1,2,0.3,3,0.4c-5.4-5-10.8-10.1-16.2-15.1
					c-5.9-5.5-11.7-11-17.6-16.4c-5.4-5-12.6-7.3-20-6.2c-8.8,1.3-16.2,7.6-19,16c-2.9,8.7-0.3,18.5,6.3,24.7c2,1.9,4.1,3.8,6.1,5.7
					c6.9,6.4,13.7,12.8,20.6,19.2c5.4,5,10.8,10,16.1,15c1,1,2,1.9,3.1,2.9c2.7,2.5,5.9,4.4,9.4,5.6c7.3,2.4,15.6,1.1,21.9-3.3
					c6.8-4.8,13.5-9.6,20.3-14.3c5.3-3.7,10.6-7.5,15.8-11.2c7.6-5.4,15.3-10.8,22.9-16.2c0.5-0.3,0.9-0.7,1.4-1
					c1.1-0.8,1.6-2.2,0.9-3.4C366,271.7,364.4,271.1,363.2,271.9z"/>
			</g>
		</g>
		<g>
			<path fill="#A185D6" d="M372,273.2l-42.9,31l-21.5,15.4c-9,6.4-23.2,6.2-31.3-1.3l-21.1-18.1L234.2,279l33.3-33.9l27.2,24.4
				l49.1-32.9c4.5-3.2,9.8-4.4,14.9-3.9c6.2,0.6,12.2,3.8,16.1,9.3C381.7,251.9,382,266.1,372,273.2z"/>
			<g>
				<path d="M370.8,271c-8.5,6.1-17,12.3-25.5,18.4c-6.9,5-13.9,10-20.8,15c-5.4,3.9-10.8,7.8-16.2,11.7c-1.9,1.4-3.9,2.8-6.1,3.7
					c-4.6,1.9-10,2.4-14.9,1.3c-3.6-0.8-6.7-2.5-9.5-4.9c-1.8-1.6-3.7-3.1-5.5-4.7c-4.8-4.1-9.6-8.2-14.4-12.3
					c-2.8-2.4-5.3-5.2-7.9-7.8c-4.4-4.4-8.9-8.9-13.3-13.3c-0.3-0.3-0.6-0.6-0.9-0.9c0,1.2,0,2.4,0,3.5c3.7-3.8,7.5-7.6,11.2-11.4
					c6-6.1,11.9-12.2,17.9-18.3c1.4-1.4,2.8-2.8,4.1-4.2c-1.2,0-2.4,0-3.5,0c7.9,7.1,15.9,14.2,23.8,21.4c1.1,1,2.3,2,3.4,3
					c0.8,0.7,2.1,1,3,0.4c3.4-2.3,6.8-4.6,10.2-6.9c6.9-4.6,13.8-9.3,20.7-13.9c5.4-3.6,10.8-7.2,16.2-10.8c1.9-1.3,3.7-2.6,5.8-3.5
					c6.2-2.6,13.3-1.8,18.9,2c8.9,6,13.2,21,6,29.7C372.8,269.3,371.8,270.2,370.8,271c-1.1,0.8-1.6,2.2-0.9,3.4
					c0.6,1.1,2.3,1.7,3.4,0.9c5.3-3.8,8.4-9.5,8.9-16c0.5-6.3-1.5-12.8-5-18c-4.2-6.2-10.7-10.2-18.1-11c-6-0.7-11.9,1-16.9,4.4
					c-4.4,3-8.9,6-13.4,9c-7.3,4.9-14.7,9.8-22,14.7c-2.9,2-5.9,3.9-8.8,5.9c-1.5,1-3.1,1.9-4.5,3c-0.1,0.1-0.1,0.1-0.2,0.1
					c1,0.1,2,0.3,3,0.4c-7.9-7.1-15.9-14.2-23.8-21.4c-1.1-1-2.3-2-3.4-3c-1-0.9-2.5-1-3.5,0c-3.7,3.8-7.5,7.6-11.2,11.4
					c-6,6.1-11.9,12.2-17.9,18.3c-1.4,1.4-2.8,2.8-4.1,4.2c-0.9,1-1,2.6,0,3.5c3.6,3.6,7.1,7.1,10.7,10.7c3.5,3.5,6.9,7.2,10.5,10.5
					c3.8,3.6,8,6.8,11.9,10.2c2.4,2.1,4.8,4.1,7.2,6.2c1.9,1.6,3.8,3.4,6,4.7c9.1,5.3,21.7,4.7,30.3-1.4c4.5-3.2,8.9-6.4,13.4-9.7
					c6.9-5,13.9-10,20.8-15c9.8-7.1,19.7-14.2,29.5-21.3c0.2-0.1,0.4-0.3,0.6-0.4c1.1-0.8,1.6-2.2,0.9-3.4
					C373.5,270.8,371.9,270.2,370.8,271z"/>
			</g>
		</g>
		<g>
			
				<rect x="230.4" y="259.2" transform="matrix(0.6876 -0.7261 0.7261 0.6876 -113.3863 268.4297)" fill="#A185D6" width="49.7" height="13.5"/>
			<g>
				<path d="M265.7,241.5c-3.8,4.1-7.7,8.1-11.5,12.2c-6.1,6.5-12.3,13-18.4,19.4c-1.4,1.5-2.8,3-4.3,4.5c-0.9,1-1,2.6,0,3.5
					c3.3,3.1,6.5,6.2,9.8,9.3c1,0.9,2.6,1,3.5,0c3.8-4.1,7.7-8.1,11.5-12.2c6.1-6.5,12.3-13,18.4-19.4c1.4-1.5,2.8-3,4.3-4.5
					c0.9-1,1-2.6,0-3.5c-3.3-3.1-6.5-6.2-9.8-9.3c-2.3-2.2-5.9,1.3-3.5,3.5c3.3,3.1,6.5,6.2,9.8,9.3c0-1.2,0-2.4,0-3.5
					c-3.8,4.1-7.7,8.1-11.5,12.2c-6.1,6.5-12.3,13-18.4,19.4c-1.4,1.5-2.8,3-4.3,4.5c1.2,0,2.4,0,3.5,0c-3.3-3.1-6.5-6.2-9.8-9.3
					c0,1.2,0,2.4,0,3.5c3.8-4.1,7.7-8.1,11.5-12.2c6.1-6.5,12.3-13,18.4-19.4c1.4-1.5,2.8-3,4.3-4.5
					C271.4,242.7,267.9,239.2,265.7,241.5z"/>
			</g>
		</g>
	</g>
</g>
<g id="Layer_2">
	<g>
		<g id="ENFJ_4_1_">
			<g>
				<polygon fill="#7F0909" points="256.8,135.1 250,102.1 267.3,135.1 				"/>
				<g>
					<path d="M258.2,134.7c-2.3-11-4.5-22-6.8-33c-0.9,0.4-1.8,0.8-2.7,1.2c5.8,11,11.6,22,17.3,33c0.4-0.8,0.9-1.5,1.3-2.3
						c-3.5,0-7,0-10.6,0c-1.9,0-1.9,3,0,3c3.5,0,7,0,10.6,0c1.2,0,1.8-1.3,1.3-2.3c-5.8-11-11.6-22-17.3-33
						c-0.8-1.6-3.1-0.4-2.7,1.2c2.3,11,4.5,22,6.8,33C255.7,137.4,258.6,136.6,258.2,134.7z"/>
				</g>
			</g>
			<g>
				<polygon fill="#BC0808" points="250,168.1 256.8,135.1 267.3,135.1 				"/>
				<g>
					<path d="M251.4,168.5c2.3-11,4.5-22,6.8-33c-0.5,0.4-1,0.7-1.4,1.1c3.5,0,7,0,10.6,0c-0.4-0.8-0.9-1.5-1.3-2.3
						c-5.8,11-11.6,22-17.3,33c-0.9,1.7,1.7,3.2,2.6,1.5c5.8-11,11.6-22,17.3-33c0.5-1-0.1-2.3-1.3-2.3c-3.5,0-7,0-10.6,0
						c-0.6,0-1.3,0.5-1.4,1.1c-2.3,11-4.5,22-6.8,33C248.2,169.6,251,170.4,251.4,168.5z"/>
				</g>
			</g>
			<g>
				<polygon fill="#CFB6FF" points="232.7,135.1 250,102.1 256.8,135.1 				"/>
				<g>
					<path d="M234,135.8c5.8-11,11.6-22,17.3-33c-0.9-0.1-1.8-0.2-2.7-0.4c2.2,11,4.5,22,6.7,33c0.5-0.6,1-1.3,1.4-1.9
						c-8,0-16,0-24.1,0c-1.9,0-1.9,3,0,3c8,0,16,0,24.1,0c1,0,1.6-1,1.4-1.9c-2.2-11-4.5-22-6.7-33c-0.3-1.3-2.2-1.5-2.7-0.4
						c-5.8,11-11.6,22-17.3,33C230.5,136,233.1,137.6,234,135.8z"/>
				</g>
			</g>
			<g>
				<polygon fill="#EAE1FF" points="250,168.1 232.7,135.1 256.8,135.1 				"/>
				<g>
					<path d="M251.3,167.3c-5.8-11-11.6-22-17.3-33c-0.4,0.8-0.9,1.5-1.3,2.3c8,0,16,0,24.1,0c-0.5-0.6-1-1.3-1.4-1.9
						c-2.2,11-4.5,22-6.7,33c-0.4,1.9,2.5,2.7,2.9,0.8c2.2-11,4.5-22,6.7-33c0.2-0.9-0.4-1.9-1.4-1.9c-8,0-16,0-24.1,0
						c-1.2,0-1.8,1.3-1.3,2.3c5.8,11,11.6,22,17.3,33C249.6,170.6,252.2,169,251.3,167.3z"/>
				</g>
			</g>
		</g>
	</g>
</g>
</svg>
