<svg xmlns="http://www.w3.org/2000/svg" width="720" height="420" viewBox="0 0 720 420" role="img" aria-labelledby="title desc">
  <title id="title">Mock QA — SquadSync dicembre 2025 (02/12 → 06/12)</title>
  <desc id="desc">Riepilogo canary SquadSync per squadre Bravo/Delta/Echo con trend engagement, adaptive spike e canale feedback.</desc>
  <defs>
    <linearGradient id="bg" x1="0" y1="0" x2="0" y2="1">
      <stop offset="0%" stop-color="#f5f7ff" />
      <stop offset="100%" stop-color="#ffffff" />
    </linearGradient>
  </defs>
  <rect x="0" y="0" width="720" height="420" fill="url(#bg)" rx="24" />
  <text x="40" y="60" font-size="26" font-family="'Segoe UI', sans-serif" fill="#1f2937">Mock QA — SquadSync dicembre 2025</text>
  <text x="40" y="92" font-size="18" font-family="'Segoe UI', sans-serif" fill="#4b5563">Bravo · Delta · Echo — canary HUD bridge (02/12 → 06/12)</text>
  <g transform="translate(60,130)">
    <line x1="0" y1="240" x2="600" y2="240" stroke="#d1d5db" stroke-width="1.5" />
    <line x1="0" y1="180" x2="600" y2="180" stroke="#e5e7eb" stroke-dasharray="4 8" />
    <line x1="0" y1="120" x2="600" y2="120" stroke="#e5e7eb" stroke-dasharray="4 8" />
    <line x1="0" y1="60" x2="600" y2="60" stroke="#e5e7eb" stroke-dasharray="4 8" />
    <line x1="0" y1="0" x2="600" y2="0" stroke="#d1d5db" />
    <polyline fill="none" stroke="#4338ca" stroke-width="5" stroke-linecap="round" stroke-linejoin="round" points="40,140 140,92 260,80 380,108 520,96 600,72" />
    <g fill="#4338ca">
      <circle cx="140" cy="92" r="8" />
      <circle cx="260" cy="80" r="8" />
      <circle cx="380" cy="108" r="8" />
      <circle cx="520" cy="96" r="8" />
      <circle cx="600" cy="72" r="8" />
    </g>
    <g fill="#f59e0b" opacity="0.35">
      <rect x="60" y="188" width="72" height="48" rx="10" />
      <rect x="300" y="164" width="96" height="70" rx="10" />
      <rect x="540" y="150" width="80" height="84" rx="10" />
    </g>
    <polyline fill="none" stroke="#ef4444" stroke-width="3" stroke-dasharray="8 6" points="40,200 140,184 260,160 380,150 520,136 600,120" />
    <g font-size="14" font-family="'Segoe UI', sans-serif" fill="#4b5563">
      <text x="20" y="268">02/12</text>
      <text x="580" y="268">06/12</text>
    </g>
    <g font-size="12" font-family="'Segoe UI', sans-serif" fill="#9ca3af">
      <text x="-44" y="6">1.0</text>
      <text x="-44" y="66">0.8</text>
      <text x="-44" y="126">0.6</text>
      <text x="-44" y="186">0.4</text>
      <text x="-44" y="246">0.2</text>
    </g>
  </g>
  <g transform="translate(400,318)" font-family="'Segoe UI', sans-serif" font-size="14">
    <rect x="0" y="0" width="280" height="96" fill="#ffffff" stroke="#c7d2fe" stroke-width="1.5" rx="14" />
    <circle cx="26" cy="22" r="8" fill="#4338ca" />
    <text x="46" y="26" fill="#1f2937">Engagement medio: 0.74 → 0.58</text>
    <rect x="20" y="42" width="16" height="16" fill="#f59e0b" opacity="0.6" />
    <text x="46" y="55" fill="#1f2937">Deployments totali: 11 → 21</text>
    <line x1="20" y1="72" x2="36" y2="72" stroke="#ef4444" stroke-width="3" stroke-dasharray="8 6" />
    <text x="46" y="76" fill="#1f2937">Incidenti registrati: 4 → 9</text>
    <text x="46" y="94" fill="#2563eb" font-size="12">Routing feedback: #feedback-enhancements · hud_canary_dashboard</text>
  </g>
  <g transform="translate(60,320)" font-family="'Segoe UI', sans-serif" font-size="13" fill="#1f2937">
    <rect x="0" y="0" width="280" height="80" rx="14" fill="#eef2ff" stroke="#c7d2fe" stroke-width="1.5" />
    <text x="18" y="30">Adaptive spike — Delta</text>
    <text x="18" y="52" fill="#4b5563">Ack HUD 82% · tempo risposta 4m · 3 follow-up aperti</text>
  </g>
</svg>
