<svg xmlns="http://www.w3.org/2000/svg" width="720" height="420" viewBox="0 0 720 420" role="img" aria-labelledby="title desc">
  <title id="title">Mock QA — SquadSync novembre 2025 (01/11 → 05/11)</title>
  <desc id="desc">Riepilogo canary SquadSync per squadre Bravo/Delta/Echo con trend engagement e carichi operativi.</desc>
  <defs>
    <linearGradient id="bg" x1="0" y1="0" x2="0" y2="1">
      <stop offset="0%" stop-color="#f5f7ff" />
      <stop offset="100%" stop-color="#ffffff" />
    </linearGradient>
  </defs>
  <rect x="0" y="0" width="720" height="420" fill="url(#bg)" rx="24" />
  <text x="40" y="60" font-size="26" font-family="'Segoe UI', sans-serif" fill="#1f2937">Mock QA — SquadSync novembre 2025</text>
  <text x="40" y="92" font-size="18" font-family="'Segoe UI', sans-serif" fill="#4b5563">Bravo · Delta · Echo — dataset fallback UI (01/11 → 05/11)</text>
  <g transform="translate(60,130)">
    <line x1="0" y1="240" x2="600" y2="240" stroke="#d1d5db" stroke-width="1.5" />
    <line x1="0" y1="180" x2="600" y2="180" stroke="#e5e7eb" stroke-dasharray="4 8" />
    <line x1="0" y1="120" x2="600" y2="120" stroke="#e5e7eb" stroke-dasharray="4 8" />
    <line x1="0" y1="60" x2="600" y2="60" stroke="#e5e7eb" stroke-dasharray="4 8" />
    <line x1="0" y1="0" x2="600" y2="0" stroke="#d1d5db" />
    <polyline fill="none" stroke="#4338ca" stroke-width="5" stroke-linecap="round" stroke-linejoin="round" points="80,100 520,128" />
    <circle cx="80" cy="100" r="8" fill="#4338ca" />
    <circle cx="520" cy="128" r="8" fill="#4338ca" />
    <g fill="#f59e0b" opacity="0.35">
      <rect x="40" y="188" width="80" height="52" rx="10" />
      <rect x="480" y="164" width="80" height="76" rx="10" />
    </g>
    <polyline fill="none" stroke="#ef4444" stroke-width="3" stroke-dasharray="8 6" points="80,180 520,156" />
    <g font-size="14" font-family="'Segoe UI', sans-serif" fill="#4b5563">
      <text x="60" y="268">01/11</text>
      <text x="500" y="268">05/11</text>
    </g>
    <g font-size="12" font-family="'Segoe UI', sans-serif" fill="#9ca3af">
      <text x="-40" y="6">1.0</text>
      <text x="-40" y="66">0.8</text>
      <text x="-40" y="126">0.6</text>
      <text x="-40" y="186">0.4</text>
      <text x="-40" y="246">0.2</text>
    </g>
  </g>
  <g transform="translate(420,330)" font-family="'Segoe UI', sans-serif" font-size="14">
    <rect x="0" y="0" width="250" height="74" fill="#ffffff" stroke="#c7d2fe" stroke-width="1.5" rx="12" />
    <circle cx="22" cy="20" r="7" fill="#4338ca" />
    <text x="40" y="24" fill="#1f2937">Engagement medio: 0.701 → 0.561</text>
    <rect x="16" y="36" width="14" height="14" fill="#f59e0b" opacity="0.6" />
    <text x="40" y="48" fill="#1f2937">Deployments totali: 13 → 19</text>
    <line x1="16" y1="62" x2="30" y2="62" stroke="#ef4444" stroke-width="3" stroke-dasharray="8 6" />
    <text x="40" y="66" fill="#1f2937">Incidenti registrati: 6 → 10</text>
  </g>
</svg>
