<svg xmlns="http://www.w3.org/2000/svg" width="720" height="420" viewBox="0 0 720 420" role="img" aria-labelledby="title desc">
  <title id="title">Mock QA — Trend SquadSync canary (24/10 → 05/11)</title>
  <desc id="desc">Grafico sintetico con engagement medio, deployments e incidenti per il canary SquadSync.</desc>
  <defs>
    <linearGradient id="bg" x1="0" y1="0" x2="0" y2="1">
      <stop offset="0%" stop-color="#eef2ff" />
      <stop offset="100%" stop-color="#ffffff" />
    </linearGradient>
  </defs>
  <rect x="0" y="0" width="720" height="420" fill="url(#bg)" rx="24" />
  <text x="40" y="60" font-size="26" font-family="'Segoe UI', sans-serif" fill="#1f2937">Mock QA — Trend SquadSync canary</text>
  <text x="40" y="92" font-size="18" font-family="'Segoe UI', sans-serif" fill="#4b5563">Finestra 24/10 → 05/11 · dataset mock canary</text>
  <g transform="translate(40,120)">
    <line x1="0" y1="240" x2="640" y2="240" stroke="#d1d5db" stroke-dasharray="4 8" />
    <line x1="0" y1="180" x2="640" y2="180" stroke="#e5e7eb" stroke-dasharray="4 8" />
    <line x1="0" y1="120" x2="640" y2="120" stroke="#e5e7eb" stroke-dasharray="4 8" />
    <line x1="0" y1="60" x2="640" y2="60" stroke="#e5e7eb" stroke-dasharray="4 8" />
    <line x1="0" y1="0" x2="640" y2="0" stroke="#d1d5db" />
    <polyline fill="none" stroke="#4f46e5" stroke-width="4" points="0,210 128,160 256,176 384,96 512,140 640,120" />
    <polyline fill="none" stroke="#ef4444" stroke-width="3" stroke-dasharray="8 6" points="0,220 128,200 256,240 384,200 512,210 640,198" />
    <g fill="#f59e0b" opacity="0.35">
      <rect x="-20" y="110" width="40" height="130" />
      <rect x="108" y="80" width="40" height="160" />
      <rect x="236" y="120" width="40" height="120" />
      <rect x="364" y="40" width="40" height="200" />
      <rect x="492" y="70" width="40" height="170" />
      <rect x="620" y="60" width="40" height="180" />
    </g>
    <g font-size="14" font-family="'Segoe UI', sans-serif" fill="#4b5563">
      <text x="-20" y="268">24/10</text>
      <text x="108" y="268">26/10</text>
      <text x="236" y="268">28/10</text>
      <text x="364" y="268">31/10</text>
      <text x="492" y="268">02/11</text>
      <text x="620" y="268">05/11</text>
    </g>
    <g font-size="12" font-family="'Segoe UI', sans-serif" fill="#9ca3af">
      <text x="-32" y="6">1.0</text>
      <text x="-32" y="66">0.8</text>
      <text x="-32" y="126">0.6</text>
      <text x="-32" y="186">0.4</text>
      <text x="-32" y="246">0.2</text>
    </g>
  </g>
  <g transform="translate(420,330)" font-family="'Segoe UI', sans-serif" font-size="14">
    <rect x="0" y="0" width="220" height="70" fill="#ffffff" stroke="#c7d2fe" stroke-width="1.5" rx="12" />
    <circle cx="22" cy="18" r="6" fill="#4f46e5" />
    <text x="40" y="22" fill="#1f2937">Engagement medio (target 0.60)</text>
    <rect x="16" y="34" width="12" height="12" fill="#f59e0b" opacity="0.6" />
    <text x="40" y="44" fill="#1f2937">Deployments giornalieri (goal ≥ 6)</text>
    <line x1="16" y1="60" x2="28" y2="60" stroke="#ef4444" stroke-width="3" stroke-dasharray="8 6" />
    <text x="40" y="64" fill="#1f2937">Incidenti segnalati (max 2)</text>
  </g>
</svg>
