<svg xmlns="http://www.w3.org/2000/svg" viewBox="0 0 640 360" role="img" aria-labelledby="title desc">
  <title id="title">HUD Risk &amp; Cohesion Snapshot — Skydock Siege r2823</title>
  <desc id="desc">Confronto tra squadre Delta ed Echo: indici risk e cohesion, con finestra alert HUD turni 10-13.</desc>
  <defs>
    <linearGradient id="riskGradient" x1="0" y1="0" x2="1" y2="0">
      <stop offset="0%" stop-color="#f87171" />
      <stop offset="100%" stop-color="#dc2626" />
    </linearGradient>
    <linearGradient id="cohesionGradient" x1="0" y1="0" x2="1" y2="0">
      <stop offset="0%" stop-color="#38bdf8" />
      <stop offset="100%" stop-color="#2563eb" />
    </linearGradient>
    <style>
      text { font-family: 'Inter', 'Segoe UI', sans-serif; fill: #0f172a; }
      .title { font-size: 24px; font-weight: 700; }
      .subtitle { font-size: 16px; fill: #334155; }
      .label { font-size: 14px; font-weight: 600; }
      .value { font-size: 28px; font-weight: 700; }
      .timestamp { font-size: 12px; fill: #475569; }
      .badge { font-size: 12px; font-weight: 700; fill: #1e293b; }
      .chip { font-size: 11px; fill: #475569; }
    </style>
  </defs>
  <rect width="640" height="360" rx="24" ry="24" fill="#f8fafc" />
  <text x="40" y="60" class="title">HUD Risk &amp; Cohesion · VC r2823</text>
  <text x="40" y="88" class="subtitle">Alert risk attivo turno 10→13, ack PI registrato, tilt medio &lt; 0.46</text>
  <rect x="40" y="110" width="560" height="1" fill="#cbd5f5" />
  <g transform="translate(40,132)">
    <text class="label" x="0" y="0">Delta</text>
    <text class="timestamp" x="0" y="18">Turno 11 · risk-high ack HUD+PI</text>
    <rect x="0" y="30" width="260" height="44" rx="12" fill="url(#riskGradient)" opacity="0.85" />
    <rect x="0" y="84" width="320" height="44" rx="12" fill="url(#cohesionGradient)" opacity="0.85" />
    <text class="badge" x="12" y="58">Risk 0.59</text>
    <text class="badge" x="12" y="112">Cohesion 0.72</text>
    <text class="value" x="270" y="60" text-anchor="end">0.59</text>
    <text class="value" x="330" y="114" text-anchor="end">0.72</text>
    <text class="chip" x="0" y="148">Self-heal 9 · Time low HP 7 turni · Support actions 13</text>
  </g>
  <g transform="translate(360,132)">
    <text class="label" x="0" y="0">Echo</text>
    <text class="timestamp" x="0" y="18">Turno 10 · risk-high ack HUD</text>
    <rect x="0" y="30" width="238" height="44" rx="12" fill="url(#riskGradient)" opacity="0.75" />
    <rect x="0" y="84" width="356" height="44" rx="12" fill="url(#cohesionGradient)" opacity="0.9" />
    <text class="badge" x="12" y="58">Risk 0.54</text>
    <text class="badge" x="12" y="112">Cohesion 0.80</text>
    <text class="value" x="248" y="60" text-anchor="end">0.54</text>
    <text class="value" x="366" y="114" text-anchor="end">0.80</text>
    <text class="chip" x="0" y="148">Self-heal 11 · Time low HP 5 turni · Support actions 18</text>
  </g>
  <g transform="translate(40,278)">
    <rect x="0" y="0" width="240" height="52" rx="16" fill="#e0f2fe" />
    <text x="16" y="22" class="badge">Alert window</text>
    <text x="16" y="40" class="chip">Turni 10-13 · weighted index picco 0.62 · recipients HUD, pi.balance.alerts</text>
  </g>
  <g transform="translate(304,278)">
    <rect x="0" y="0" width="296" height="52" rx="16" fill="#fee2e2" />
    <text x="16" y="22" class="badge">Release package</text>
    <text x="16" y="40" class="chip">Canvas · Slack 07/11 16:00 CET · Drive briefing 18:00 CET (`release/v0.6.0-rc1`)</text>
  </g>
</svg>
