<svg width="360" height="160" viewBox="0 0 360 160" fill="none" xmlns="http://www.w3.org/2000/svg" role="img" aria-labelledby="title desc">
  <title id="title">HUD Smart Alerts — Overlay canary 2025-12-06</title>
  <desc id="desc">Mock dell'overlay HUD con timeline risk/cohesion, soglie adaptive e indicatori SquadSync.</desc>
  <rect width="360" height="160" rx="18" fill="#0F172A"/>
  <g transform="translate(20,20)">
    <text x="0" y="0" fill="#E2E8F0" font-size="16" font-family="'Inter', sans-serif">HUD Smart Alerts</text>
    <text x="0" y="18" fill="#38BDF8" font-size="11" font-family="'Inter', sans-serif">Canary · SquadSync hook attivo</text>
  </g>
  <g transform="translate(20,52)">
    <rect width="320" height="60" rx="12" fill="rgba(30, 41, 59, 0.85)" stroke="#1E3A8A" stroke-width="1.5" />
    <polyline points="16,44 92,36 160,28 232,22 304,18" fill="none" stroke="#38BDF8" stroke-width="4" stroke-linecap="round" />
    <polyline points="16,52 92,46 160,40 232,36 304,32" fill="none" stroke="#F97316" stroke-width="3" stroke-dasharray="6 8" />
    <g fill="#38BDF8">
      <circle cx="92" cy="36" r="6" />
      <circle cx="160" cy="28" r="6" />
      <circle cx="232" cy="22" r="6" />
      <circle cx="304" cy="18" r="6" />
    </g>
    <g font-family="'Inter', sans-serif" font-size="10" fill="#94A3B8">
      <text x="8" y="56">Turno 08</text>
      <text x="284" y="56">Turno 12</text>
      <text x="220" y="12">Soglia HUD 0.72</text>
      <text x="150" y="48" fill="#FBBF24">Cohesion alert 0.63</text>
    </g>
  </g>
  <g transform="translate(20,120)">
    <rect width="150" height="24" rx="12" fill="rgba(56, 189, 248, 0.18)" />
    <text x="14" y="16" font-family="'Inter', sans-serif" font-size="11" fill="#38BDF8">Ack rate 86% · Δ -4%</text>
  </g>
  <g transform="translate(190,120)">
    <rect width="150" height="24" rx="12" fill="rgba(249, 115, 22, 0.18)" />
    <text x="14" y="16" font-family="'Inter', sans-serif" font-size="11" fill="#F97316">Squad Delta · Adaptive spike</text>
  </g>
</svg>
